<?xml version="1.0" encoding="UTF-8" standalone="no"?><svg xmlns="http://www.w3.org/2000/svg" xmlns:xlink="http://www.w3.org/1999/xlink" contentScriptType="application/ecmascript" contentStyleType="text/css" height="987.5px" preserveAspectRatio="none" style="width:740px;height:987px;" version="1.1" viewBox="0 0 740 987" width="740px" zoomAndPan="magnify"><defs><filter height="300%" id="f169s65ryvs9c9" width="300%" x="-1" y="-1"><feGaussianBlur result="blurOut" stdDeviation="2.5"/><feColorMatrix in="blurOut" result="blurOut2" type="matrix" values="0 0 0 0 0 0 0 0 0 0 0 0 0 0 0 0 0 0 .4 0"/><feOffset dx="5.0" dy="5.0" in="blurOut2" result="blurOut3"/><feBlend in="SourceGraphic" in2="blurOut3" mode="normal"/></filter></defs><g><!--MD5=[7442f3b126ee602ae02566c1a49e158a]
cluster api--><polygon fill="#FFFFFF" filter="url(#f169s65ryvs9c9)" points="27.5,30,61.25,30,70,59.5117,712.5,59.5117,712.5,972.5,27.5,972.5,27.5,30" style="stroke: #000000; stroke-width: 1.875;"/><line style="stroke: #000000; stroke-width: 1.875;" x1="27.5" x2="70" y1="59.5117" y2="59.5117"/><text fill="#000000" font-family="sans-serif" font-size="17.5" font-weight="bold" lengthAdjust="spacingAndGlyphs" textLength="26.25" x="32.5" y="50.6665">api</text><!--MD5=[5880d1a92aa52ab2ecce262bfcbf7bf1]
cluster business_layer--><polygon fill="#E1ECED" filter="url(#f169s65ryvs9c9)" points="272.5,95,408.75,95,417.5,124.5117,567.5,124.5117,567.5,483.75,272.5,483.75,272.5,95" style="stroke: #000000; stroke-width: 1.875;"/><line style="stroke: #000000; stroke-width: 1.875;" x1="272.5" x2="417.5" y1="124.5117" y2="124.5117"/><text fill="#000000" font-family="sans-serif" font-size="17.5" font-weight="bold" lengthAdjust="spacingAndGlyphs" textLength="128.75" x="277.5" y="115.6665">Business layer</text><!--MD5=[3f9e515f2676bb1a608caf5fe77684a2]
cluster data_layer--><polygon fill="#E1ECED" filter="url(#f169s65ryvs9c9)" points="196.25,533.75,290,533.75,298.75,563.2617,442.5,563.2617,442.5,932.5,196.25,932.5,196.25,533.75" style="stroke: #000000; stroke-width: 1.875;"/><line style="stroke: #000000; stroke-width: 1.875;" x1="196.25" x2="298.75" y1="563.2617" y2="563.2617"/><text fill="#000000" font-family="sans-serif" font-size="17.5" font-weight="bold" lengthAdjust="spacingAndGlyphs" textLength="86.25" x="201.25" y="554.4165">Data layer</text><!--MD5=[31e74d3e9cc554d5981f55118eb73ecc]
cluster dto_layer--><polygon fill="#E1ECED" filter="url(#f169s65ryvs9c9)" points="492.5,670,660,670,668.75,699.5117,672.5,699.5117,672.5,806.25,492.5,806.25,492.5,670" style="stroke: #000000; stroke-width: 1.875;"/><line style="stroke: #000000; stroke-width: 1.875;" x1="492.5" x2="668.75" y1="699.5117" y2="699.5117"/><text fill="#000000" font-family="sans-serif" font-size="17.5" font-weight="bold" lengthAdjust="spacingAndGlyphs" textLength="160" x="497.5" y="690.6665">data transfer layer</text><!--MD5=[74df9e43d1225d16c2e396f3d6c63f8b]
cluster utils_layer--><polygon fill="#E1ECED" filter="url(#f169s65ryvs9c9)" points="57.5,105,177.5,105,186.25,134.5117,232.5,134.5117,232.5,221.25,57.5,221.25,57.5,105" style="stroke: #000000; stroke-width: 1.875;"/><line style="stroke: #000000; stroke-width: 1.875;" x1="57.5" x2="186.25" y1="134.5117" y2="134.5117"/><text fill="#000000" font-family="sans-serif" font-size="17.5" font-weight="bold" lengthAdjust="spacingAndGlyphs" textLength="112.5" x="62.5" y="125.6665">utilities layer</text><!--MD5=[6f42fdf9caaa435e9c7a383376a1e86f]
entity api_controllers--><polygon fill="#FEFECE" filter="url(#f169s65ryvs9c9)" points="330,150,470,150,478.75,179.5117,500,179.5117,500,200.7617,330,200.7617,330,150" style="stroke: #000000; stroke-width: 1.875;"/><line style="stroke: #000000; stroke-width: 1.875;" x1="330" x2="478.75" y1="179.5117" y2="179.5117"/><text fill="#000000" font-family="sans-serif" font-size="17.5" font-weight="bold" lengthAdjust="spacingAndGlyphs" textLength="132.5" x="335" y="171.9165">api_controllers</text><!--MD5=[846fb1ca125f651f5c33ec458ec761bb]
entity business_controllers--><polygon fill="#FEFECE" filter="url(#f169s65ryvs9c9)" points="303.125,276.25,496.875,276.25,505.625,305.7617,526.875,305.7617,526.875,327.0117,303.125,327.0117,303.125,276.25" style="stroke: #000000; stroke-width: 1.875;"/><line style="stroke: #000000; stroke-width: 1.875;" x1="303.125" x2="505.625" y1="305.7617" y2="305.7617"/><text fill="#000000" font-family="sans-serif" font-size="17.5" font-weight="bold" lengthAdjust="spacingAndGlyphs" textLength="186.25" x="308.125" y="298.1665">business_controllers</text><!--MD5=[edbf8080f03594cd1cdf92f6a017abfa]
entity business_services--><polygon fill="#FEFECE" filter="url(#f169s65ryvs9c9)" points="303.125,402.5,476.875,402.5,485.625,432.0117,506.875,432.0117,506.875,453.2617,303.125,453.2617,303.125,402.5" style="stroke: #000000; stroke-width: 1.875;"/><line style="stroke: #000000; stroke-width: 1.875;" x1="303.125" x2="485.625" y1="432.0117" y2="432.0117"/><text fill="#000000" font-family="sans-serif" font-size="17.5" font-weight="bold" lengthAdjust="spacingAndGlyphs" textLength="166.25" x="308.125" y="424.4165">business_services</text><!--MD5=[96711085c3cf3cd3ce1750c7e267598f]
entity data_services--><polygon fill="#FEFECE" filter="url(#f169s65ryvs9c9)" points="226.875,588.75,358.125,588.75,366.875,618.2617,388.125,618.2617,388.125,639.5117,226.875,639.5117,226.875,588.75" style="stroke: #000000; stroke-width: 1.875;"/><line style="stroke: #000000; stroke-width: 1.875;" x1="226.875" x2="366.875" y1="618.2617" y2="618.2617"/><text fill="#000000" font-family="sans-serif" font-size="17.5" font-weight="bold" lengthAdjust="spacingAndGlyphs" textLength="123.75" x="231.875" y="610.6665">data_services</text><!--MD5=[1e8cc644e82844cae882d66ff19aec90]
entity daos--><polygon fill="#FEFECE" filter="url(#f169s65ryvs9c9)" points="275,725,325,725,333.75,754.5117,355,754.5117,355,775.7617,275,775.7617,275,725" style="stroke: #000000; stroke-width: 1.875;"/><line style="stroke: #000000; stroke-width: 1.875;" x1="275" x2="333.75" y1="754.5117" y2="754.5117"/><text fill="#000000" font-family="sans-serif" font-size="17.5" font-weight="bold" lengthAdjust="spacingAndGlyphs" textLength="42.5" x="280" y="746.9165">daos</text><!--MD5=[af2a2f107363d9c1eecaacd6d0c4f7ef]
entity entities--><polygon fill="#FEFECE" filter="url(#f169s65ryvs9c9)" points="276.875,851.25,350.625,851.25,359.375,880.7617,380.625,880.7617,380.625,902.0117,276.875,902.0117,276.875,851.25" style="stroke: #000000; stroke-width: 1.875;"/><line style="stroke: #000000; stroke-width: 1.875;" x1="276.875" x2="359.375" y1="880.7617" y2="880.7617"/><text fill="#000000" font-family="sans-serif" font-size="17.5" font-weight="bold" lengthAdjust="spacingAndGlyphs" textLength="66.25" x="281.875" y="873.1665">entities</text><!--MD5=[113b2f3f7eda726082e0beaab9a73623]
entity dtos--><polygon fill="#FEFECE" filter="url(#f169s65ryvs9c9)" points="523.125,725,569.375,725,578.125,754.5117,599.375,754.5117,599.375,775.7617,523.125,775.7617,523.125,725" style="stroke: #000000; stroke-width: 1.875;"/><line style="stroke: #000000; stroke-width: 1.875;" x1="523.125" x2="578.125" y1="754.5117" y2="754.5117"/><text fill="#000000" font-family="sans-serif" font-size="17.5" font-weight="bold" lengthAdjust="spacingAndGlyphs" textLength="38.75" x="528.125" y="746.9165">dtos</text><!--MD5=[1cb715a40398ef3607f1d329c54535e7]
entity exceptions--><polygon fill="#FEFECE" filter="url(#f169s65ryvs9c9)" points="77.5,150,182.5,150,191.25,179.5117,212.5,179.5117,212.5,200.7617,77.5,200.7617,77.5,150" style="stroke: #000000; stroke-width: 1.875;"/><line style="stroke: #000000; stroke-width: 1.875;" x1="77.5" x2="191.25" y1="179.5117" y2="179.5117"/><text fill="#000000" font-family="sans-serif" font-size="17.5" font-weight="bold" lengthAdjust="spacingAndGlyphs" textLength="97.5" x="82.5" y="171.9165">exceptions</text><!--MD5=[70514a86861c5708b6eeb45a92884750]
link business_layer to dto_layer--><!--MD5=[610260185ef147c85cfd0cf679766d91]
link data_layer to dto_layer--><!--MD5=[99826a6291673ad7abc35aef77c4c04c]
link business_layer to data_layer--><!--MD5=[21bea63b192e36292b09eabd333e4362]
link api_controllers to business_controllers--><path d="M415,201.3237 C415,220.985 415,248.7225 415,269.8863 " fill="none" id="api_controllers-&gt;business_controllers" style="stroke: #A80036; stroke-width: 1.25; stroke-dasharray: 7.0,7.0;"/><polygon fill="#A80036" points="415,276.2263,420,264.9763,415,269.9763,410,264.9763,415,276.2263" style="stroke: #A80036; stroke-width: 1.25;"/><!--MD5=[0cc6687ff2f0786d3683632a9277b6d0]
link business_controllers to business_services--><path d="M413.0237,327.5737 C411.435,347.235 409.1938,374.9725 407.4838,396.1363 " fill="none" id="business_controllers-&gt;business_services" style="stroke: #A80036; stroke-width: 1.25; stroke-dasharray: 7.0,7.0;"/><polygon fill="#A80036" points="406.9713,402.4763,412.8616,391.6658,407.4749,396.2466,402.8941,390.8599,406.9713,402.4763" style="stroke: #A80036; stroke-width: 1.25;"/><!--MD5=[2eac61280f44c7f9271804ed59844333]
link business_controllers to daos--><path d="M379.4662,327.69 C336.8975,357.1175 271.25,402.5 271.25,402.5 C271.25,402.5 205,513.75 205,513.75 C205,513.75 205,640 205,640 C205,640 252.77,687.4988 285.35,719.8938 " fill="none" id="business_controllers-&gt;daos" style="stroke: #A80036; stroke-width: 1.25; stroke-dasharray: 7.0,7.0;"/><polygon fill="#A80036" points="290.0388,724.5563,285.5869,713.0783,285.6069,720.1493,278.5358,720.1693,290.0388,724.5563" style="stroke: #A80036; stroke-width: 1.25;"/><!--MD5=[916a69e1f8a708797a61c664f809125d]
link business_controllers to data_services--><path d="M381.9387,327.69 C342.3313,357.1175 281.25,402.5 281.25,402.5 C281.25,402.5 281.25,503.75 281.25,503.75 C281.25,503.75 292.2788,549.705 300.0388,582.0387 " fill="none" id="business_controllers-&gt;data_services" style="stroke: #A80036; stroke-width: 1.25; stroke-dasharray: 7.0,7.0;"/><polygon fill="#A80036" points="301.5438,588.3063,303.7835,576.2006,300.0868,582.2284,294.059,578.5318,301.5438,588.3063" style="stroke: #A80036; stroke-width: 1.25;"/><!--MD5=[f25b1ccfb07bcb43578ef77cada6dba9]
link data_services to daos--><path d="M308.875,640.1563 C310.1125,662.2163 311.935,694.7163 313.27,718.5288 " fill="none" id="data_services-&gt;daos" style="stroke: #A80036; stroke-width: 1.25; stroke-dasharray: 7.0,7.0;"/><polygon fill="#A80036" points="313.6325,724.9988,317.9947,713.4864,313.2825,718.7586,308.0104,714.0464,313.6325,724.9988" style="stroke: #A80036; stroke-width: 1.25;"/><!--MD5=[c3051bd2bfdd78b258a6252140792219]
link daos to entities--><path d="M317.7163,776.3238 C319.9013,795.985 322.9825,823.7225 325.335,844.8863 " fill="none" id="daos-&gt;entities" style="stroke: #A80036; stroke-width: 1.25; stroke-dasharray: 7.0,7.0;"/><polygon fill="#A80036" points="326.0388,851.2262,329.7673,839.4934,325.3493,845.0144,319.8283,840.5964,326.0388,851.2262" style="stroke: #A80036; stroke-width: 1.25;"/><!--MD5=[5e422ec63f7c2ef5196605d00ceb790f]
link api_controllers to dtos--><path d="M448.0613,201.44 C487.6688,230.8675 548.75,276.25 548.75,276.25 C548.75,276.25 556.25,513.75 556.25,513.75 C556.25,513.75 559.2325,654.29 560.59,718.29 " fill="none" id="api_controllers-&gt;dtos" style="stroke: #A80036; stroke-width: 1.25; stroke-dasharray: 7.0,7.0;"/><polygon fill="#A80036" points="560.7238,724.6038,565.4815,713.2492,560.5898,718.3552,555.4838,713.4635,560.7238,724.6038" style="stroke: #A80036; stroke-width: 1.25;"/><!--MD5=[be7fb558e43a9ba227706c0f1161e477]
link business_controllers to dtos--><path d="M443.1175,327.69 C476.8025,357.1175 528.75,402.5 528.75,402.5 C528.75,402.5 550.4225,633.8175 558.3725,718.6575 " fill="none" id="business_controllers-&gt;dtos" style="stroke: #A80036; stroke-width: 1.25; stroke-dasharray: 7.0,7.0;"/><polygon fill="#A80036" points="558.965,724.9838,562.8922,713.3158,558.3811,718.7611,552.9359,714.2501,558.965,724.9838" style="stroke: #A80036; stroke-width: 1.25;"/><!--MD5=[459eabd4947c29981afafeae995abd37]
link data_services to dtos--><path d="M379.4638,640.0575 C395.9562,645.6563 408.75,650 408.75,650 C408.75,650 473.0588,691.9063 518.155,721.2925 " fill="none" id="data_services-&gt;dtos" style="stroke: #A80036; stroke-width: 1.25; stroke-dasharray: 7.0,7.0;"/><polygon fill="#A80036" points="523.5538,724.81,516.8575,714.4794,518.3172,721.3981,511.3984,722.8579,523.5538,724.81" style="stroke: #A80036; stroke-width: 1.25;"/><!--MD5=[084ec8e84f70a6ceae254e9183ffabd1]
link daos to dtos--><path d="M355.08,750.625 C375.9163,750.625 397.0837,750.625 397.0837,750.625 C397.0837,750.625 479.1663,750.625 479.1663,750.625 C479.1663,750.625 497.32,750.625 516.5525,750.625 " fill="none" id="daos-&gt;dtos" style="stroke: #A80036; stroke-width: 1.25; stroke-dasharray: 7.0,7.0;"/><polygon fill="#A80036" points="523.0925,750.625,511.8425,745.625,516.8425,750.625,511.8425,755.625,523.0925,750.625" style="stroke: #A80036; stroke-width: 1.25;"/><!--MD5=[1e7fab2bcef8a445d11a540748efcf56]
link dtos to entities--><path d="M522.8575,772.31 C483.975,793.005 423.5863,825.1475 380.4975,848.0825 " fill="none" id="dtos-&gt;entities" style="stroke: #A80036; stroke-width: 1.25; stroke-dasharray: 7.0,7.0;"/><polygon fill="#A80036" points="374.8013,851.1138,387.0814,850.2421,380.3185,848.1774,382.3833,841.4145,374.8013,851.1138" style="stroke: #A80036; stroke-width: 1.25;"/><!--MD5=[93a5fc50f4e55b6fde89239b38a70219]
reverse link exceptions to api_controllers--><path d="M219.02,175.625 C228.5125,175.625 235,175.625 235,175.625 C235,175.625 325,175.625 325,175.625 C325,175.625 326.78,175.625 329.8388,175.625 " fill="none" id="exceptions&lt;-api_controllers" style="stroke: #A80036; stroke-width: 1.25; stroke-dasharray: 7.0,7.0;"/><polygon fill="#A80036" points="212.7525,175.625,224.0025,180.625,219.0025,175.625,224.0025,170.625,212.7525,175.625" style="stroke: #A80036; stroke-width: 1.25;"/><!--MD5=[bdb0b6c1ec102e6b6cefc1fa29723a9c]
reverse link exceptions to business_controllers--><path d="M204.56,204.1738 C251.55,225.71 316.4988,255.4788 361.7675,276.2263 " fill="none" id="exceptions&lt;-business_controllers" style="stroke: #A80036; stroke-width: 1.25; stroke-dasharray: 7.0,7.0;"/><polygon fill="#A80036" points="198.3438,201.3237,206.4874,210.5565,204.0254,203.9279,210.654,201.4659,198.3438,201.3237" style="stroke: #A80036; stroke-width: 1.25;"/><!--MD5=[93bca5a8fe87a5605bdb13e4003ffbd8]
@startuml
skinparam linetype polyline



package api {

package  business_layer as "Business layer" #e1eced  {
    package api_controllers
    package business_controllers
    package business_services
}

package data_layer as "Data layer" #e1eced {
    package data_services
    package daos
    package entities
}



package dto_layer as "data transfer layer" #e1eced {
    package dtos
}

package utils_layer as "utilities layer" #e1eced {
    package exceptions
}



}

business_layer .[hidden].> dto_layer
data_layer .[hidden].> dto_layer
business_layer .[hidden]down...> data_layer


api_controllers ..> business_controllers
business_controllers ..> business_services
business_controllers ..> daos
business_controllers ..> data_services
data_services ..> daos
daos ..> entities

api_controllers ..> dtos
business_controllers ..> dtos
data_services ..> dtos
daos ..> dtos
dtos ..> entities
api_controllers .left.> exceptions
business_controllers .left.> exceptions

@enduml

PlantUML version 1.2020.09(Sun May 10 12:51:06 CEST 2020)
(GPL source distribution)
Java Runtime: OpenJDK Runtime Environment
JVM: OpenJDK 64-Bit Server VM
Java Version: 11.0.8+10-b1094.1
Operating System: Windows 10
Default Encoding: Cp1252
Language: en
Country: GB
--></g></svg>