<?xml version="1.0" encoding="UTF-8" standalone="no"?><svg xmlns="http://www.w3.org/2000/svg" xmlns:xlink="http://www.w3.org/1999/xlink" contentScriptType="application/ecmascript" contentStyleType="text/css" height="626.25px" preserveAspectRatio="none" style="width:571px;height:626px;" version="1.1" viewBox="0 0 571 626" width="571.25px" zoomAndPan="magnify"><defs><filter height="300%" id="f1d3ijhbm8eak" width="300%" x="-1" y="-1"><feGaussianBlur result="blurOut" stdDeviation="2.5"/><feColorMatrix in="blurOut" result="blurOut2" type="matrix" values="0 0 0 0 0 0 0 0 0 0 0 0 0 0 0 0 0 0 .4 0"/><feOffset dx="5.0" dy="5.0" in="blurOut2" result="blurOut3"/><feBlend in="SourceGraphic" in2="blurOut3" mode="normal"/></filter></defs><g><!--MD5=[406b65fecc21e832f7a9b6ebadc6dce1]
cluster Client--><polygon fill="#FFFFFF" filter="url(#f1d3ijhbm8eak)" points="27.5,147.5,40,135,205,135,205,285,192.5,297.5,27.5,297.5,27.5,147.5" style="stroke: #000000; stroke-width: 1.875;"/><line style="stroke: #000000; stroke-width: 1.875;" x1="192.5" x2="203.75" y1="147.5" y2="136.25"/><line style="stroke: #000000; stroke-width: 1.875;" x1="27.5" x2="192.5" y1="147.5" y2="147.5"/><line style="stroke: #000000; stroke-width: 1.875;" x1="192.5" x2="192.5" y1="147.5" y2="297.5"/><text fill="#000000" font-family="sans-serif" font-size="17.5" font-style="italic" lengthAdjust="spacingAndGlyphs" textLength="82.5" x="70" y="169.4165">«CLIENT»</text><text fill="#000000" font-family="sans-serif" font-size="17.5" font-weight="bold" lengthAdjust="spacingAndGlyphs" textLength="51.25" x="85.625" y="191.4282">Client</text><!--MD5=[979da56a7f83e2393dc758167ae295d0]
cluster Server--><polygon fill="#FFFFFF" filter="url(#f1d3ijhbm8eak)" points="235,42.5,247.5,30,543.75,30,543.75,598.75,531.25,611.25,235,611.25,235,42.5" style="stroke: #000000; stroke-width: 1.875;"/><line style="stroke: #000000; stroke-width: 1.875;" x1="531.25" x2="542.5" y1="42.5" y2="31.25"/><line style="stroke: #000000; stroke-width: 1.875;" x1="235" x2="531.25" y1="42.5" y2="42.5"/><line style="stroke: #000000; stroke-width: 1.875;" x1="531.25" x2="531.25" y1="42.5" y2="611.25"/><text fill="#000000" font-family="sans-serif" font-size="17.5" font-style="italic" lengthAdjust="spacingAndGlyphs" textLength="90" x="339.375" y="64.4165">«SERVER»</text><text fill="#000000" font-family="sans-serif" font-size="17.5" font-weight="bold" lengthAdjust="spacingAndGlyphs" textLength="60" x="354.375" y="86.4282">Server</text><!--MD5=[5ec7eedd57310648f8059ffb2621ca4b]
cluster docker--><polygon fill="#FFFFFF" filter="url(#f1d3ijhbm8eak)" points="265,340,277.5,327.5,513.75,327.5,513.75,568.75,501.25,581.25,265,581.25,265,340" style="stroke: #000000; stroke-width: 1.875;"/><line style="stroke: #000000; stroke-width: 1.875;" x1="501.25" x2="512.5" y1="340" y2="328.75"/><line style="stroke: #000000; stroke-width: 1.875;" x1="265" x2="501.25" y1="340" y2="340"/><line style="stroke: #000000; stroke-width: 1.875;" x1="501.25" x2="501.25" y1="340" y2="581.25"/><text fill="#000000" font-family="sans-serif" font-size="17.5" font-weight="bold" lengthAdjust="spacingAndGlyphs" textLength="61.25" x="353.75" y="361.9165">docker</text><!--MD5=[c83c0cc739b7458527531ff830714ec3]
cluster server-db--><polygon fill="#03DBFC" filter="url(#f1d3ijhbm8eak)" points="295,401.25,307.5,388.75,483.75,388.75,483.75,538.75,471.25,551.25,295,551.25,295,401.25" style="stroke: #000000; stroke-width: 1.875;"/><line style="stroke: #000000; stroke-width: 1.875;" x1="471.25" x2="482.5" y1="401.25" y2="390"/><line style="stroke: #000000; stroke-width: 1.875;" x1="295" x2="471.25" y1="401.25" y2="401.25"/><line style="stroke: #000000; stroke-width: 1.875;" x1="471.25" x2="471.25" y1="401.25" y2="551.25"/><text fill="#000000" font-family="sans-serif" font-size="17.5" font-style="italic" lengthAdjust="spacingAndGlyphs" textLength="93.75" x="337.5" y="423.1665">«container»</text><text fill="#000000" font-family="sans-serif" font-size="17.5" font-weight="bold" lengthAdjust="spacingAndGlyphs" textLength="87.5" x="340.625" y="445.1782">server-db</text><!--MD5=[fac864e77539af95038f0151207ed802]
cluster API--><polygon fill="#EDD33E" filter="url(#f1d3ijhbm8eak)" points="277.5,126.25,290,113.75,457.5,113.75,457.5,285,445,297.5,277.5,297.5,277.5,126.25" style="stroke: #000000; stroke-width: 1.875;"/><line style="stroke: #000000; stroke-width: 1.875;" x1="445" x2="456.25" y1="126.25" y2="115"/><line style="stroke: #000000; stroke-width: 1.875;" x1="277.5" x2="445" y1="126.25" y2="126.25"/><line style="stroke: #000000; stroke-width: 1.875;" x1="445" x2="445" y1="126.25" y2="297.5"/><text fill="#000000" font-family="sans-serif" font-size="17.5" font-style="italic" lengthAdjust="spacingAndGlyphs" textLength="68.75" x="328.125" y="148.1665">«server»</text><text fill="#000000" font-family="sans-serif" font-size="17.5" font-style="italic" lengthAdjust="spacingAndGlyphs" textLength="72.5" x="326.25" y="170.1782">«tomcat»</text><text fill="#000000" font-family="sans-serif" font-size="17.5" font-weight="bold" lengthAdjust="spacingAndGlyphs" textLength="27.5" x="348.75" y="192.1899">API</text><!--MD5=[9fc11c32cb4ae73303444e0f458a2290]
entity webBrowser--><rect fill="#FEFECE" filter="url(#f1d3ijhbm8eak)" height="69.0234" style="stroke: #A80036; stroke-width: 1.875;" width="131.25" x="53.125" y="208.75"/><rect fill="#FEFECE" height="6.25" style="stroke: #A80036; stroke-width: 1.875;" width="12.5" x="46.875" y="215"/><rect fill="#FEFECE" height="6.25" style="stroke: #A80036; stroke-width: 1.875;" width="12.5" x="46.875" y="265.2734"/><text fill="#000000" font-family="sans-serif" font-size="17.5" font-style="italic" lengthAdjust="spacingAndGlyphs" textLength="106.25" x="65.625" y="239.4165">«Executable»</text><text fill="#000000" font-family="sans-serif" font-size="17.5" lengthAdjust="spacingAndGlyphs" textLength="100" x="68.75" y="261.4282">web-browser</text><!--MD5=[993e0d4fdeccee87e9dafe04241cdfbd]
entity MySQL--><rect fill="#FEFECE" filter="url(#f1d3ijhbm8eak)" height="69.0234" style="stroke: #A80036; stroke-width: 1.875;" width="130" x="315" y="462.5"/><rect fill="#FEFECE" height="6.25" style="stroke: #A80036; stroke-width: 1.875;" width="12.5" x="308.75" y="468.75"/><rect fill="#FEFECE" height="6.25" style="stroke: #A80036; stroke-width: 1.875;" width="12.5" x="308.75" y="519.0234"/><text fill="#000000" font-family="sans-serif" font-size="17.5" font-style="italic" lengthAdjust="spacingAndGlyphs" textLength="105" x="327.5" y="493.1665">«executable»</text><text fill="#000000" font-family="sans-serif" font-size="17.5" lengthAdjust="spacingAndGlyphs" textLength="57.5" x="351.25" y="515.1782">MySQL</text><!--MD5=[5d6dbbd7e3ad527ac67d257ab33183fc]
entity webApp--><rect fill="#FEFECE" filter="url(#f1d3ijhbm8eak)" height="69.0234" style="stroke: #A80036; stroke-width: 1.875;" width="138.75" x="298.125" y="208.75"/><rect fill="#FEFECE" height="6.25" style="stroke: #A80036; stroke-width: 1.875;" width="12.5" x="291.875" y="215"/><rect fill="#FEFECE" height="6.25" style="stroke: #A80036; stroke-width: 1.875;" width="12.5" x="291.875" y="265.2734"/><text fill="#000000" font-family="sans-serif" font-size="17.5" font-style="italic" lengthAdjust="spacingAndGlyphs" textLength="47.5" x="343.75" y="239.4165">«war»</text><text fill="#000000" font-family="sans-serif" font-size="17.5" lengthAdjust="spacingAndGlyphs" textLength="113.75" x="310.625" y="261.4282">agrimManager</text><!--MD5=[148b6dbefdce47159994ef30110783ef]
link webBrowser to webApp--><path d="M184.8238,243.125 C222.525,243.125 260.225,243.125 297.9263,243.125 " fill="none" id="webBrowser-webApp" style="stroke: #A80036; stroke-width: 1.25;"/><!--MD5=[8ad10f0056c74275f48061c2644823b4]
link webApp to MySQL--><path d="M369.16,277.7388 C371.5513,325.7938 375.9387,413.9913 378.3337,462.1225 " fill="none" id="webApp-MySQL" style="stroke: #A80036; stroke-width: 1.25;"/><!--MD5=[cf02505d4df751cefce8dcda8dac8884]
@startuml

node Client <<CLIENT>> {
    component webBrowser as "web-browser" <<Executable>>
}

node Server <<SERVER>> {

    node docker {

    node server-db <<container>> #03dbfc {
        component MySQL <<executable>>
    }
}

    node API <<server>> <<tomcat>> #edd33e {
        component webApp as "agrimManager" <<war>>
    }

webBrowser -right-  webApp
webApp - - MySQL



@enduml

PlantUML version 1.2020.09(Sun May 10 12:51:06 CEST 2020)
(GPL source distribution)
Java Runtime: OpenJDK Runtime Environment
JVM: OpenJDK 64-Bit Server VM
Java Version: 11.0.8+10-b1094.1
Operating System: Windows 10
Default Encoding: Cp1252
Language: en
Country: GB
--></g></svg>