<?xml version="1.0" encoding="UTF-8" standalone="no"?><svg xmlns="http://www.w3.org/2000/svg" xmlns:xlink="http://www.w3.org/1999/xlink" contentScriptType="application/ecmascript" contentStyleType="text/css" height="740px" preserveAspectRatio="none" style="width:622px;height:740px;" version="1.1" viewBox="0 0 622 740" width="622.5px" zoomAndPan="magnify"><defs><filter height="300%" id="f1xx52625ylanp" width="300%" x="-1" y="-1"><feGaussianBlur result="blurOut" stdDeviation="2.5"/><feColorMatrix in="blurOut" result="blurOut2" type="matrix" values="0 0 0 0 0 0 0 0 0 0 0 0 0 0 0 0 0 0 .4 0"/><feOffset dx="5.0" dy="5.0" in="blurOut2" result="blurOut3"/><feBlend in="SourceGraphic" in2="blurOut3" mode="normal"/></filter></defs><g><!--MD5=[406b65fecc21e832f7a9b6ebadc6dce1]
cluster Client--><polygon fill="#FFFFFF" filter="url(#f1xx52625ylanp)" points="27.5,292.5,40,280,205,280,205,430,192.5,442.5,27.5,442.5,27.5,292.5" style="stroke: #000000; stroke-width: 1.875;"/><line style="stroke: #000000; stroke-width: 1.875;" x1="192.5" x2="203.75" y1="292.5" y2="281.25"/><line style="stroke: #000000; stroke-width: 1.875;" x1="27.5" x2="192.5" y1="292.5" y2="292.5"/><line style="stroke: #000000; stroke-width: 1.875;" x1="192.5" x2="192.5" y1="292.5" y2="442.5"/><text fill="#000000" font-family="sans-serif" font-size="17.5" font-style="italic" lengthAdjust="spacingAndGlyphs" textLength="82.5" x="70" y="314.4165">«CLIENT»</text><text fill="#000000" font-family="sans-serif" font-size="17.5" font-weight="bold" lengthAdjust="spacingAndGlyphs" textLength="51.25" x="85.625" y="336.4282">Client</text><!--MD5=[979da56a7f83e2393dc758167ae295d0]
cluster Server--><polygon fill="#FFFFFF" filter="url(#f1xx52625ylanp)" points="235,42.5,247.5,30,595,30,595,712.5,582.5,725,235,725,235,42.5" style="stroke: #000000; stroke-width: 1.875;"/><line style="stroke: #000000; stroke-width: 1.875;" x1="582.5" x2="593.75" y1="42.5" y2="31.25"/><line style="stroke: #000000; stroke-width: 1.875;" x1="235" x2="582.5" y1="42.5" y2="42.5"/><line style="stroke: #000000; stroke-width: 1.875;" x1="582.5" x2="582.5" y1="42.5" y2="725"/><text fill="#000000" font-family="sans-serif" font-size="17.5" font-style="italic" lengthAdjust="spacingAndGlyphs" textLength="90" x="365" y="64.4165">«SERVER»</text><text fill="#000000" font-family="sans-serif" font-size="17.5" font-weight="bold" lengthAdjust="spacingAndGlyphs" textLength="60" x="380" y="86.4282">Server</text><!--MD5=[5ec7eedd57310648f8059ffb2621ca4b]
cluster docker--><polygon fill="#FFFFFF" filter="url(#f1xx52625ylanp)" points="265,126.25,277.5,113.75,565,113.75,565,682.5,552.5,695,265,695,265,126.25" style="stroke: #000000; stroke-width: 1.875;"/><line style="stroke: #000000; stroke-width: 1.875;" x1="552.5" x2="563.75" y1="126.25" y2="115"/><line style="stroke: #000000; stroke-width: 1.875;" x1="265" x2="552.5" y1="126.25" y2="126.25"/><line style="stroke: #000000; stroke-width: 1.875;" x1="552.5" x2="552.5" y1="126.25" y2="695"/><text fill="#000000" font-family="sans-serif" font-size="17.5" font-weight="bold" lengthAdjust="spacingAndGlyphs" textLength="61.25" x="379.375" y="148.1665">docker</text><!--MD5=[9811e56c8be8501e3c4bbef84f239f9a]
cluster server-api--><polygon fill="#03DBFC" filter="url(#f1xx52625ylanp)" points="295,187.5,307.5,175,535,175,535,460,522.5,472.5,295,472.5,295,187.5" style="stroke: #000000; stroke-width: 1.875;"/><line style="stroke: #000000; stroke-width: 1.875;" x1="522.5" x2="533.75" y1="187.5" y2="176.25"/><line style="stroke: #000000; stroke-width: 1.875;" x1="295" x2="522.5" y1="187.5" y2="187.5"/><line style="stroke: #000000; stroke-width: 1.875;" x1="522.5" x2="522.5" y1="187.5" y2="472.5"/><text fill="#000000" font-family="sans-serif" font-size="17.5" font-style="italic" lengthAdjust="spacingAndGlyphs" textLength="93.75" x="363.125" y="209.4165">«container»</text><text fill="#000000" font-family="sans-serif" font-size="17.5" font-weight="bold" lengthAdjust="spacingAndGlyphs" textLength="91.25" x="364.375" y="231.4282">server-api</text><!--MD5=[fac864e77539af95038f0151207ed802]
cluster API--><polygon fill="#EDD33E" filter="url(#f1xx52625ylanp)" points="325,271.25,337.5,258.75,505,258.75,505,430,492.5,442.5,325,442.5,325,271.25" style="stroke: #000000; stroke-width: 1.875;"/><line style="stroke: #000000; stroke-width: 1.875;" x1="492.5" x2="503.75" y1="271.25" y2="260"/><line style="stroke: #000000; stroke-width: 1.875;" x1="325" x2="492.5" y1="271.25" y2="271.25"/><line style="stroke: #000000; stroke-width: 1.875;" x1="492.5" x2="492.5" y1="271.25" y2="442.5"/><text fill="#000000" font-family="sans-serif" font-size="17.5" font-style="italic" lengthAdjust="spacingAndGlyphs" textLength="68.75" x="375.625" y="293.1665">«server»</text><text fill="#000000" font-family="sans-serif" font-size="17.5" font-style="italic" lengthAdjust="spacingAndGlyphs" textLength="72.5" x="373.75" y="315.1782">«tomcat»</text><text fill="#000000" font-family="sans-serif" font-size="17.5" font-weight="bold" lengthAdjust="spacingAndGlyphs" textLength="27.5" x="396.25" y="337.1899">API</text><!--MD5=[c83c0cc739b7458527531ff830714ec3]
cluster server-db--><polygon fill="#03DBFC" filter="url(#f1xx52625ylanp)" points="321.25,515,333.75,502.5,510,502.5,510,652.5,497.5,665,321.25,665,321.25,515" style="stroke: #000000; stroke-width: 1.875;"/><line style="stroke: #000000; stroke-width: 1.875;" x1="497.5" x2="508.75" y1="515" y2="503.75"/><line style="stroke: #000000; stroke-width: 1.875;" x1="321.25" x2="497.5" y1="515" y2="515"/><line style="stroke: #000000; stroke-width: 1.875;" x1="497.5" x2="497.5" y1="515" y2="665"/><text fill="#000000" font-family="sans-serif" font-size="17.5" font-style="italic" lengthAdjust="spacingAndGlyphs" textLength="93.75" x="363.75" y="536.9165">«container»</text><text fill="#000000" font-family="sans-serif" font-size="17.5" font-weight="bold" lengthAdjust="spacingAndGlyphs" textLength="87.5" x="366.875" y="558.9282">server-db</text><!--MD5=[9fc11c32cb4ae73303444e0f458a2290]
entity webBrowser--><rect fill="#FEFECE" filter="url(#f1xx52625ylanp)" height="69.0234" style="stroke: #A80036; stroke-width: 1.875;" width="131.25" x="53.125" y="353.75"/><rect fill="#FEFECE" height="6.25" style="stroke: #A80036; stroke-width: 1.875;" width="12.5" x="46.875" y="360"/><rect fill="#FEFECE" height="6.25" style="stroke: #A80036; stroke-width: 1.875;" width="12.5" x="46.875" y="410.2734"/><text fill="#000000" font-family="sans-serif" font-size="17.5" font-style="italic" lengthAdjust="spacingAndGlyphs" textLength="106.25" x="65.625" y="384.4165">«Executable»</text><text fill="#000000" font-family="sans-serif" font-size="17.5" lengthAdjust="spacingAndGlyphs" textLength="100" x="68.75" y="406.4282">web-browser</text><!--MD5=[5d6dbbd7e3ad527ac67d257ab33183fc]
entity webApp--><rect fill="#FEFECE" filter="url(#f1xx52625ylanp)" height="69.0234" style="stroke: #A80036; stroke-width: 1.875;" width="138.75" x="345.625" y="353.75"/><rect fill="#FEFECE" height="6.25" style="stroke: #A80036; stroke-width: 1.875;" width="12.5" x="339.375" y="360"/><rect fill="#FEFECE" height="6.25" style="stroke: #A80036; stroke-width: 1.875;" width="12.5" x="339.375" y="410.2734"/><text fill="#000000" font-family="sans-serif" font-size="17.5" font-style="italic" lengthAdjust="spacingAndGlyphs" textLength="47.5" x="391.25" y="384.4165">«war»</text><text fill="#000000" font-family="sans-serif" font-size="17.5" lengthAdjust="spacingAndGlyphs" textLength="113.75" x="358.125" y="406.4282">agrimManager</text><!--MD5=[993e0d4fdeccee87e9dafe04241cdfbd]
entity MySQL--><rect fill="#FEFECE" filter="url(#f1xx52625ylanp)" height="69.0234" style="stroke: #A80036; stroke-width: 1.875;" width="130" x="350" y="576.25"/><rect fill="#FEFECE" height="6.25" style="stroke: #A80036; stroke-width: 1.875;" width="12.5" x="343.75" y="582.5"/><rect fill="#FEFECE" height="6.25" style="stroke: #A80036; stroke-width: 1.875;" width="12.5" x="343.75" y="632.7734"/><text fill="#000000" font-family="sans-serif" font-size="17.5" font-style="italic" lengthAdjust="spacingAndGlyphs" textLength="105" x="362.5" y="606.9165">«executable»</text><text fill="#000000" font-family="sans-serif" font-size="17.5" lengthAdjust="spacingAndGlyphs" textLength="57.5" x="386.25" y="628.9282">MySQL</text><!--MD5=[148b6dbefdce47159994ef30110783ef]
link webBrowser to webApp--><path d="M184.7125,388.125 C238.2362,388.125 291.76,388.125 345.2837,388.125 " fill="none" id="webBrowser-webApp" style="stroke: #A80036; stroke-width: 1.25;"/><!--MD5=[8ad10f0056c74275f48061c2644823b4]
link webApp to MySQL--><path d="M415,422.7888 C415,464.2588 415,534.56 415,576.0088 " fill="none" id="webApp-MySQL" style="stroke: #A80036; stroke-width: 1.25;"/><!--MD5=[9b8d26ba187dc192834fba9ff2e6603c]
@startuml

node Client <<CLIENT>> {
    component webBrowser as "web-browser" <<Executable>>
}

node Server <<SERVER>> {

    node docker {
        node server-api <<container>> #03dbfc {
            node API <<server>> <<tomcat>> #edd33e {
                component webApp as "agrimManager" <<war>>
        }
    }

    node server-db <<container>> #03dbfc {
        component MySQL <<executable>>
    }
}

webBrowser -right-  webApp
webApp - - MySQL



@enduml

PlantUML version 1.2020.09(Sun May 10 12:51:06 CEST 2020)
(GPL source distribution)
Java Runtime: OpenJDK Runtime Environment
JVM: OpenJDK 64-Bit Server VM
Java Version: 11.0.8+10-b1094.1
Operating System: Windows 10
Default Encoding: Cp1252
Language: en
Country: GB
--></g></svg>