<?xml version="1.0" encoding="UTF-8" standalone="no"?><svg xmlns="http://www.w3.org/2000/svg" xmlns:xlink="http://www.w3.org/1999/xlink" contentScriptType="application/ecmascript" contentStyleType="text/css" height="2321.25px" preserveAspectRatio="none" style="width:995px;height:2321px;" version="1.1" viewBox="0 0 995 2321" width="995px" zoomAndPan="magnify"><defs><filter height="300%" id="f1i4b7911it6i1" width="300%" x="-1" y="-1"><feGaussianBlur result="blurOut" stdDeviation="2.5"/><feColorMatrix in="blurOut" result="blurOut2" type="matrix" values="0 0 0 0 0 0 0 0 0 0 0 0 0 0 0 0 0 0 .4 0"/><feOffset dx="5.0" dy="5.0" in="blurOut2" result="blurOut3"/><feBlend in="SourceGraphic" in2="blurOut3" mode="normal"/></filter></defs><g><rect fill="#FEFECE" filter="url(#f1i4b7911it6i1)" height="62.5" rx="15.625" ry="15.625" style="stroke: #A80036; stroke-width: 1.875;" width="218.75" x="7.5" y="10"/><line style="stroke: #A80036; stroke-width: 1.875;" x1="7.5" x2="226.25" y1="44.5117" y2="44.5117"/><text fill="#000000" font-family="sans-serif" font-size="17.5" lengthAdjust="spacingAndGlyphs" textLength="193.75" x="20" y="34.4165">:OPENED_DASHBOARD</text><rect fill="#FEFECE" filter="url(#f1i4b7911it6i1)" height="62.5" rx="15.625" ry="15.625" style="stroke: #A80036; stroke-width: 1.875;" width="193.75" x="270" y="10"/><line style="stroke: #A80036; stroke-width: 1.875;" x1="270" x2="463.75" y1="44.5117" y2="44.5117"/><text fill="#000000" font-family="sans-serif" font-size="17.5" lengthAdjust="spacingAndGlyphs" textLength="168.75" x="282.5" y="34.4165">:OPENED_VEHICLES</text><rect fill="#FEFECE" filter="url(#f1i4b7911it6i1)" height="62.5" rx="15.625" ry="15.625" style="stroke: #A80036; stroke-width: 1.875;" width="246.25" x="507.5" y="10"/><line style="stroke: #A80036; stroke-width: 1.875;" x1="507.5" x2="753.75" y1="44.5117" y2="44.5117"/><text fill="#000000" font-family="sans-serif" font-size="17.5" lengthAdjust="spacingAndGlyphs" textLength="221.25" x="520" y="34.4165">:OPENED_INTERVENTIONS</text><rect fill="#FEFECE" filter="url(#f1i4b7911it6i1)" height="62.5" rx="15.625" ry="15.625" style="stroke: #A80036; stroke-width: 1.875;" width="182.5" x="798.125" y="10"/><line style="stroke: #A80036; stroke-width: 1.875;" x1="798.125" x2="980.625" y1="44.5117" y2="44.5117"/><text fill="#000000" font-family="sans-serif" font-size="17.5" lengthAdjust="spacingAndGlyphs" textLength="157.5" x="810.625" y="34.4165">:OPENED_CLIENTS</text><rect fill="#FEFECE" filter="url(#f1i4b7911it6i1)" height="62.5" rx="15.625" ry="15.625" style="stroke: #A80036; stroke-width: 1.875;" width="218.75" x="388.75" y="2245"/><line style="stroke: #A80036; stroke-width: 1.875;" x1="388.75" x2="607.5" y1="2279.5117" y2="2279.5117"/><text fill="#000000" font-family="sans-serif" font-size="17.5" lengthAdjust="spacingAndGlyphs" textLength="193.75" x="401.25" y="2269.4165">:OPENED_DASHBOARD</text><rect fill="#FEFECE" filter="url(#f1i4b7911it6i1)" height="62.5" rx="15.625" ry="15.625" style="stroke: #A80036; stroke-width: 1.875;" width="157.5" x="419.375" y="1832.5"/><line style="stroke: #A80036; stroke-width: 1.875;" x1="419.375" x2="576.875" y1="1867.0117" y2="1867.0117"/><text fill="#000000" font-family="sans-serif" font-size="17.5" lengthAdjust="spacingAndGlyphs" textLength="132.5" x="431.875" y="1856.9165">:openDashboard</text><rect fill="#FEFECE" filter="url(#f1i4b7911it6i1)" height="1607.0117" rx="15.625" ry="15.625" style="stroke: #A80036; stroke-width: 1.875;" width="857.5" x="69.375" y="148.75"/><rect fill="#FFFFFF" height="1565" rx="15.625" ry="15.625" style="stroke: #FFFFFF; stroke-width: 1.25;" width="850" x="73.125" y="187.0117"/><line style="stroke: #A80036; stroke-width: 1.875;" x1="69.375" x2="926.875" y1="183.2617" y2="183.2617"/><text fill="#000000" font-family="sans-serif" font-size="17.5" lengthAdjust="spacingAndGlyphs" textLength="142.5" x="426.875" y="173.1665">createIntervention</text><rect fill="#FEFECE" filter="url(#f1i4b7911it6i1)" height="62.5" rx="15.625" ry="15.625" style="stroke: #A80036; stroke-width: 1.875;" width="62.5" x="414.375" y="339.5117"/><line style="stroke: #A80036; stroke-width: 1.875;" x1="414.375" x2="476.875" y1="374.0234" y2="374.0234"/><text fill="#000000" font-family="sans-serif" font-size="17.5" lengthAdjust="spacingAndGlyphs" textLength="0" x="448.125" y="363.9282"/><rect fill="#FEFECE" filter="url(#f1i4b7911it6i1)" height="62.5" rx="15.625" ry="15.625" style="stroke: #A80036; stroke-width: 1.875;" width="62.5" x="251.875" y="639.5117"/><line style="stroke: #A80036; stroke-width: 1.875;" x1="251.875" x2="314.375" y1="674.0234" y2="674.0234"/><text fill="#000000" font-family="sans-serif" font-size="17.5" lengthAdjust="spacingAndGlyphs" textLength="0" x="285.625" y="663.9282"/><rect fill="#FEFECE" filter="url(#f1i4b7911it6i1)" height="62.5" rx="15.625" ry="15.625" style="stroke: #A80036; stroke-width: 1.875;" width="62.5" x="291.875" y="838.2617"/><line style="stroke: #A80036; stroke-width: 1.875;" x1="291.875" x2="354.375" y1="872.7734" y2="872.7734"/><text fill="#000000" font-family="sans-serif" font-size="17.5" lengthAdjust="spacingAndGlyphs" textLength="0" x="325.625" y="862.6782"/><rect fill="#FEFECE" filter="url(#f1i4b7911it6i1)" height="62.5" rx="15.625" ry="15.625" style="stroke: #A80036; stroke-width: 1.875;" width="62.5" x="531.875" y="1077.0117"/><line style="stroke: #A80036; stroke-width: 1.875;" x1="531.875" x2="594.375" y1="1111.5234" y2="1111.5234"/><text fill="#000000" font-family="sans-serif" font-size="17.5" lengthAdjust="spacingAndGlyphs" textLength="0" x="565.625" y="1101.4282"/><rect fill="#FEFECE" filter="url(#f1i4b7911it6i1)" height="62.5" rx="15.625" ry="15.625" style="stroke: #A80036; stroke-width: 1.875;" width="62.5" x="444.375" y="1254.5117"/><line style="stroke: #A80036; stroke-width: 1.875;" x1="444.375" x2="506.875" y1="1289.0234" y2="1289.0234"/><text fill="#000000" font-family="sans-serif" font-size="17.5" lengthAdjust="spacingAndGlyphs" textLength="0" x="478.125" y="1278.9282"/><rect fill="#FEFECE" filter="url(#f1i4b7911it6i1)" height="62.5" rx="15.625" ry="15.625" style="stroke: #A80036; stroke-width: 1.875;" width="62.5" x="311.875" y="1534.5117"/><line style="stroke: #A80036; stroke-width: 1.875;" x1="311.875" x2="374.375" y1="1569.0234" y2="1569.0234"/><text fill="#000000" font-family="sans-serif" font-size="17.5" lengthAdjust="spacingAndGlyphs" textLength="0" x="345.625" y="1558.9282"/><ellipse cx="445.625" cy="212.0117" fill="#000000" filter="url(#f1i4b7911it6i1)" rx="12.5" ry="12.5" style="stroke: none; stroke-width: 1.25;"/><ellipse cx="124.375" cy="1724.5117" fill="none" filter="url(#f1i4b7911it6i1)" rx="12.5" ry="12.5" style="stroke: #000000; stroke-width: 1.25;"/><ellipse cx="125" cy="1725.1367" fill="#000000" rx="7.5" ry="7.5" style="stroke: none; stroke-width: 1.25;"/><!--MD5=[4a8c5f787d0a038c39cacf2d61c6a23c]
link *start*createIntervention to 1--><path d="M445.625,225.0117 C445.625,247.5867 445.625,297.9117 445.625,332.7742 " fill="none" id="*start*createIntervention-&gt;1" style="stroke: #008000; stroke-width: 1.25;"/><polygon fill="#008000" points="445.625,339.0992,450.625,327.8492,445.625,332.8492,440.625,327.8492,445.625,339.0992" style="stroke: #008000; stroke-width: 1.25;"/><path d="M451.875,253.2617 L451.875,305.7617 L659.375,305.7617 L659.375,265.7617 L646.875,253.2617 L451.875,253.2617 " fill="#F5F5F5" filter="url(#f1i4b7911it6i1)" style="stroke: #008000; stroke-width: 1.25;"/><path d="M646.875,253.2617 L646.875,265.7617 L659.375,265.7617 L646.875,253.2617 " fill="#F5F5F5" style="stroke: #008000; stroke-width: 1.25;"/><text fill="#000000" font-family="sans-serif" font-size="16.25" font-weight="bold" lengthAdjust="spacingAndGlyphs" textLength="168.75" x="459.375" y="276.3806">mechanic requests to</text><ellipse cx="466.25" cy="291.0156" fill="#000000" rx="3.125" ry="3.125" style="stroke: #000000; stroke-width: 0.0;"/><text fill="#000000" font-family="sans-serif" font-size="16.25" lengthAdjust="spacingAndGlyphs" textLength="165" x="475.625" y="296.8201">create new intervention</text><!--MD5=[0ba0d8a0fd0e641c23f69743a446dfe6]
link 1 to 2--><path d="M414.2475,372.0617 C376.3962,374.0242 314.145,383.7242 284.375,424.5117 C239.43,486.0867 256.8,581.5167 271.2638,633.2267 " fill="none" id="1-&gt;2" style="stroke: #008000; stroke-width: 1.25;"/><polygon fill="#008000" points="273.01,639.3117,274.7141,627.1192,271.2866,633.304,265.1018,629.8766,273.01,639.3117" style="stroke: #008000; stroke-width: 1.25;"/><path d="M290.625,430.7617 L290.625,605.7617 L579.375,605.7617 L579.375,443.2617 L566.875,430.7617 L290.625,430.7617 " fill="#F5F5F5" filter="url(#f1i4b7911it6i1)" style="stroke: #008000; stroke-width: 1.25;"/><path d="M566.875,430.7617 L566.875,443.2617 L579.375,443.2617 L566.875,430.7617 " fill="#F5F5F5" style="stroke: #008000; stroke-width: 1.25;"/><text fill="#000000" font-family="sans-serif" font-size="16.25" font-weight="bold" lengthAdjust="spacingAndGlyphs" textLength="127.5" x="298.125" y="453.8806">System requires</text><ellipse cx="305" cy="468.5156" fill="#000000" rx="3.125" ry="3.125" style="stroke: #000000; stroke-width: 0.0;"/><text fill="#000000" font-family="sans-serif" font-size="16.25" lengthAdjust="spacingAndGlyphs" textLength="48.75" x="314.375" y="474.3201">vehicle</text><rect fill="#000000" height="4.375" style="stroke: #000000; stroke-width: 0.0;" width="4.375" x="324.375" y="488.3301"/><text fill="#000000" font-family="sans-serif" font-size="16.25" lengthAdjust="spacingAndGlyphs" textLength="201.25" x="330.625" y="494.7595">(should exist in the system)</text><rect fill="#000000" height="4.375" style="stroke: #000000; stroke-width: 0.0;" width="4.375" x="324.375" y="508.7695"/><text fill="#000000" font-family="sans-serif" font-size="16.25" lengthAdjust="spacingAndGlyphs" textLength="230" x="330.625" y="515.199">(mandatory when type REPAIR)</text><ellipse cx="305" cy="529.834" fill="#000000" rx="3.125" ry="3.125" style="stroke: #000000; stroke-width: 0.0;"/><text fill="#000000" font-family="sans-serif" font-size="16.25" lengthAdjust="spacingAndGlyphs" textLength="117.5" x="314.375" y="535.6384">intervention type</text><rect fill="#000000" height="4.375" style="stroke: #000000; stroke-width: 0.0;" width="4.375" x="324.375" y="549.6484"/><text fill="#000000" font-family="sans-serif" font-size="16.25" lengthAdjust="spacingAndGlyphs" textLength="117.5" x="330.625" y="556.0779">REPAIR | CAFE</text><text fill="#000000" font-family="sans-serif" font-size="16.25" font-weight="bold" lengthAdjust="spacingAndGlyphs" textLength="113.75" x="298.125" y="576.5173">System allows</text><ellipse cx="305" cy="591.1523" fill="#000000" rx="3.125" ry="3.125" style="stroke: #000000; stroke-width: 0.0;"/><text fill="#000000" font-family="sans-serif" font-size="16.25" lengthAdjust="spacingAndGlyphs" textLength="47.5" x="314.375" y="596.9568">cancel</text><!--MD5=[46c88778be5f7d0deb8a0d817827d9b0]
link 2 to *end*createIntervention--><path d="M251.435,685.3667 C195.0399,711.503 83.125,775.1042 83.125,868.2617 C83.125,868.2617 83.125,868.2617 83.125,1567.0117 C83.125,1622.2692 85.2531,1637.6682 104.375,1689.5117 C106.779,1696.0296 110.4424,1702.7115 113.98,1708.3918 " fill="none" id="2-&gt;*end*createIntervention" style="stroke: #A80036; stroke-width: 1.25;"/><polygon fill="#A80036" points="117.4243,1713.6953,115.4901,1701.5371,114.0201,1708.4537,107.1036,1706.9837,117.4243,1713.6953" style="stroke: #A80036; stroke-width: 1.25;"/><path d="M89.375,1168.2617 L89.375,1220.7617 L283.125,1220.7617 L283.125,1180.7617 L270.625,1168.2617 L89.375,1168.2617 " fill="#F5F5F5" filter="url(#f1i4b7911it6i1)" style="stroke: #A80036; stroke-width: 1.25;"/><path d="M270.625,1168.2617 L270.625,1180.7617 L283.125,1180.7617 L270.625,1168.2617 " fill="#F5F5F5" style="stroke: #A80036; stroke-width: 1.25;"/><text fill="#000000" font-family="sans-serif" font-size="16.25" font-weight="bold" lengthAdjust="spacingAndGlyphs" textLength="167.5" x="96.875" y="1191.3806">Mechanic requests to</text><ellipse cx="103.75" cy="1206.0156" fill="#000000" rx="3.125" ry="3.125" style="stroke: #000000; stroke-width: 0.0;"/><text fill="#000000" font-family="sans-serif" font-size="16.25" lengthAdjust="spacingAndGlyphs" textLength="47.5" x="113.125" y="1211.8201">cancel</text><!--MD5=[d209f2622dd5d3103b9c9b4670e2d6db]
link 2 to 4--><path d="M289.2875,702.2455 C296.3925,737.108 308.07,794.3955 315.6775,831.723 " fill="none" id="2-&gt;4" style="stroke: #008000; stroke-width: 1.25;"/><polygon fill="#008000" points="316.9563,837.993,319.6091,825.9711,315.7082,831.8688,309.8105,827.968,316.9563,837.993" style="stroke: #008000; stroke-width: 1.25;"/><path d="M319.375,730.7617 L319.375,804.5117 L494.375,804.5117 L494.375,743.2617 L481.875,730.7617 L319.375,730.7617 " fill="#F5F5F5" filter="url(#f1i4b7911it6i1)" style="stroke: #008000; stroke-width: 1.25;"/><path d="M481.875,730.7617 L481.875,743.2617 L494.375,743.2617 L481.875,730.7617 " fill="#F5F5F5" style="stroke: #008000; stroke-width: 1.25;"/><text fill="#000000" font-family="sans-serif" font-size="16.25" font-weight="bold" lengthAdjust="spacingAndGlyphs" textLength="148.75" x="326.875" y="753.8806">Mechanic provides</text><ellipse cx="333.75" cy="768.5156" fill="#000000" rx="3.125" ry="3.125" style="stroke: #000000; stroke-width: 0.0;"/><text fill="#000000" font-family="sans-serif" font-size="16.25" lengthAdjust="spacingAndGlyphs" textLength="48.75" x="343.125" y="774.3201">vehicle</text><ellipse cx="333.75" cy="788.9551" fill="#000000" rx="3.125" ry="3.125" style="stroke: #000000; stroke-width: 0.0;"/><text fill="#000000" font-family="sans-serif" font-size="16.25" lengthAdjust="spacingAndGlyphs" textLength="117.5" x="343.125" y="794.7595">intervention type</text><!--MD5=[fb7a877824a531edc27ce1774c90edf7]
link 4 to 5--><path d="M331.3325,901.2467 C333.21,908.4505 335.1575,916.1155 336.875,923.2617 C350.8312,981.3242 324.3425,1011.3642 365.625,1054.5117 C407.3538,1098.1255 480.8475,1106.9567 525.455,1107.9755 " fill="none" id="4-&gt;5" style="stroke: #008000; stroke-width: 1.25;"/><polygon fill="#008000" points="531.82,1108.0717,520.647,1102.902,525.5707,1107.9771,520.4956,1112.9008,531.82,1108.0717" style="stroke: #008000; stroke-width: 1.25;"/><path d="M371.875,929.5117 L371.875,1043.2617 L579.375,1043.2617 L579.375,942.0117 L566.875,929.5117 L371.875,929.5117 " fill="#F5F5F5" filter="url(#f1i4b7911it6i1)" style="stroke: #008000; stroke-width: 1.25;"/><path d="M566.875,929.5117 L566.875,942.0117 L579.375,942.0117 L566.875,929.5117 " fill="#F5F5F5" style="stroke: #008000; stroke-width: 1.25;"/><text fill="#000000" font-family="sans-serif" font-size="16.25" font-weight="bold" lengthAdjust="spacingAndGlyphs" textLength="127.5" x="379.375" y="952.6306">System requires</text><ellipse cx="386.25" cy="967.2656" fill="#000000" rx="3.125" ry="3.125" style="stroke: #000000; stroke-width: 0.0;"/><text fill="#000000" font-family="sans-serif" font-size="16.25" lengthAdjust="spacingAndGlyphs" textLength="165" x="395.625" y="973.0701">intervention description</text><text fill="#000000" font-family="sans-serif" font-size="16.25" font-weight="bold" lengthAdjust="spacingAndGlyphs" textLength="113.75" x="379.375" y="993.5095">System allows</text><ellipse cx="386.25" cy="1008.1445" fill="#000000" rx="3.125" ry="3.125" style="stroke: #000000; stroke-width: 0.0;"/><text fill="#000000" font-family="sans-serif" font-size="16.25" lengthAdjust="spacingAndGlyphs" textLength="47.5" x="395.625" y="1013.949">cancel</text><ellipse cx="386.25" cy="1028.584" fill="#000000" rx="3.125" ry="3.125" style="stroke: #000000; stroke-width: 0.0;"/><text fill="#000000" font-family="sans-serif" font-size="16.25" lengthAdjust="spacingAndGlyphs" textLength="136.25" x="395.625" y="1034.3884">go to previous step</text><!--MD5=[8bb6c28bf603fe608aa20148331f27c1]
link 5 to 1--><path d="M582.0225,1076.908 C585.5738,1069.8167 588.7563,1062.1055 590.625,1054.5117 C657.5238,782.6205 751.4188,653.7392 590.625,424.5117 C566.5988,390.2617 517.8725,378.2617 483.5563,374.1117 " fill="none" id="5-&gt;1" style="stroke: #A80036; stroke-width: 1.25;"/><polygon fill="#A80036" points="477.325,373.4242,487.9587,379.6279,483.5373,374.1097,489.0555,369.6883,477.325,373.4242" style="stroke: #A80036; stroke-width: 1.25;"/><path d="M680.625,741.3867 L680.625,793.8867 L874.375,793.8867 L874.375,753.8867 L861.875,741.3867 L680.625,741.3867 " fill="#F5F5F5" filter="url(#f1i4b7911it6i1)" style="stroke: #A80036; stroke-width: 1.25;"/><path d="M861.875,741.3867 L861.875,753.8867 L874.375,753.8867 L861.875,741.3867 " fill="#F5F5F5" style="stroke: #A80036; stroke-width: 1.25;"/><text fill="#000000" font-family="sans-serif" font-size="16.25" font-weight="bold" lengthAdjust="spacingAndGlyphs" textLength="167.5" x="688.125" y="764.5056">Mechanic requests to</text><ellipse cx="695" cy="779.1406" fill="#000000" rx="3.125" ry="3.125" style="stroke: #000000; stroke-width: 0.0;"/><text fill="#000000" font-family="sans-serif" font-size="16.25" lengthAdjust="spacingAndGlyphs" textLength="127.5" x="704.375" y="784.9451">go to previus step</text><!--MD5=[deed8cab30c10dbe2727e65517d240f0]
link 5 to 6--><path d="M561.58,1139.6367 C559.0763,1165.688 552.5563,1203.5342 535.625,1232.0117 C529.6563,1242.0505 521.105,1251.1742 512.3213,1258.8967 " fill="none" id="5-&gt;6" style="stroke: #008000; stroke-width: 1.25;"/><polygon fill="#008000" points="507.4313,1263.0392,519.247,1259.5822,512.2,1258.9992,512.7829,1251.9522,507.4313,1263.0392" style="stroke: #008000; stroke-width: 1.25;"/><path d="M564.375,1168.2617 L564.375,1220.7617 L771.875,1220.7617 L771.875,1180.7617 L759.375,1168.2617 L564.375,1168.2617 " fill="#F5F5F5" filter="url(#f1i4b7911it6i1)" style="stroke: #008000; stroke-width: 1.25;"/><path d="M759.375,1168.2617 L759.375,1180.7617 L771.875,1180.7617 L759.375,1168.2617 " fill="#F5F5F5" style="stroke: #008000; stroke-width: 1.25;"/><text fill="#000000" font-family="sans-serif" font-size="16.25" font-weight="bold" lengthAdjust="spacingAndGlyphs" textLength="148.75" x="571.875" y="1191.3806">Mechanic provides</text><ellipse cx="578.75" cy="1206.0156" fill="#000000" rx="3.125" ry="3.125" style="stroke: #000000; stroke-width: 0.0;"/><text fill="#000000" font-family="sans-serif" font-size="16.25" lengthAdjust="spacingAndGlyphs" textLength="165" x="588.125" y="1211.8201">intervention description</text><!--MD5=[2dfa168d6698efd82f568a8036f37f42]
link 6 to 7--><path d="M461.1925,1317.2367 C436.6013,1368.7405 386.685,1473.2817 360.325,1528.4905 " fill="none" id="6-&gt;7" style="stroke: #008000; stroke-width: 1.25;"/><polygon fill="#008000" points="357.5388,1534.323,366.8985,1526.3256,360.2319,1528.683,357.8745,1522.0165,357.5388,1534.323" style="stroke: #008000; stroke-width: 1.25;"/><path d="M455.625,1345.7617 L455.625,1500.7617 L634.375,1500.7617 L634.375,1358.2617 L621.875,1345.7617 L455.625,1345.7617 " fill="#F5F5F5" filter="url(#f1i4b7911it6i1)" style="stroke: #008000; stroke-width: 1.25;"/><path d="M621.875,1345.7617 L621.875,1358.2617 L634.375,1358.2617 L621.875,1345.7617 " fill="#F5F5F5" style="stroke: #008000; stroke-width: 1.25;"/><text fill="#000000" font-family="sans-serif" font-size="16.25" font-weight="bold" lengthAdjust="spacingAndGlyphs" textLength="111.25" x="463.125" y="1368.8806">System shows</text><ellipse cx="470" cy="1383.5156" fill="#000000" rx="3.125" ry="3.125" style="stroke: #000000; stroke-width: 0.0;"/><text fill="#000000" font-family="sans-serif" font-size="16.25" lengthAdjust="spacingAndGlyphs" textLength="78.75" x="479.375" y="1389.3201">description</text><ellipse cx="470" cy="1403.9551" fill="#000000" rx="3.125" ry="3.125" style="stroke: #000000; stroke-width: 0.0;"/><text fill="#000000" font-family="sans-serif" font-size="16.25" lengthAdjust="spacingAndGlyphs" textLength="31.25" x="479.375" y="1409.7595">type</text><text fill="#000000" font-family="sans-serif" font-size="16.25" font-weight="bold" lengthAdjust="spacingAndGlyphs" textLength="113.75" x="463.125" y="1430.199">System allows</text><ellipse cx="470" cy="1444.834" fill="#000000" rx="3.125" ry="3.125" style="stroke: #000000; stroke-width: 0.0;"/><text fill="#000000" font-family="sans-serif" font-size="16.25" lengthAdjust="spacingAndGlyphs" textLength="136.25" x="479.375" y="1450.6384">go to previous step</text><ellipse cx="470" cy="1465.2734" fill="#000000" rx="3.125" ry="3.125" style="stroke: #000000; stroke-width: 0.0;"/><text fill="#000000" font-family="sans-serif" font-size="16.25" lengthAdjust="spacingAndGlyphs" textLength="47.5" x="479.375" y="1471.0779">cancel</text><ellipse cx="470" cy="1485.7129" fill="#000000" rx="3.125" ry="3.125" style="stroke: #000000; stroke-width: 0.0;"/><text fill="#000000" font-family="sans-serif" font-size="16.25" lengthAdjust="spacingAndGlyphs" textLength="115" x="479.375" y="1491.5173">confirm creation</text><!--MD5=[18d390701d5713e44db207a23fd2fedc]
link 7 to *end*createIntervention--><path d="M351.54,1597.133 C357.2325,1624.6488 360.2062,1664.713 338.125,1689.5117 C312.5263,1718.2605 190.9473,1722.6096 143.4502,1723.2006 " fill="none" id="7-&gt;*end*createIntervention" style="stroke: #A80036; stroke-width: 1.25;"/><polygon fill="#A80036" points="137.0003,1723.263,148.2982,1728.1538,143.25,1723.2024,148.2013,1718.1542,137.0003,1723.263" style="stroke: #A80036; stroke-width: 1.25;"/><path d="M363.125,1625.7617 L363.125,1678.2617 L556.875,1678.2617 L556.875,1638.2617 L544.375,1625.7617 L363.125,1625.7617 " fill="#F5F5F5" filter="url(#f1i4b7911it6i1)" style="stroke: #A80036; stroke-width: 1.25;"/><path d="M544.375,1625.7617 L544.375,1638.2617 L556.875,1638.2617 L544.375,1625.7617 " fill="#F5F5F5" style="stroke: #A80036; stroke-width: 1.25;"/><text fill="#000000" font-family="sans-serif" font-size="16.25" font-weight="bold" lengthAdjust="spacingAndGlyphs" textLength="167.5" x="370.625" y="1648.8806">Mechanic requests to</text><ellipse cx="377.5" cy="1663.5156" fill="#000000" rx="3.125" ry="3.125" style="stroke: #000000; stroke-width: 0.0;"/><text fill="#000000" font-family="sans-serif" font-size="16.25" lengthAdjust="spacingAndGlyphs" textLength="47.5" x="386.875" y="1669.3201">cancel</text><!--MD5=[f3b5af871fcfb1295daef25b406b4b39]
link 7 to 4--><path d="M340.2413,1534.293 C334.8337,1475.9355 323.3563,1343.6355 319.375,1232.0117 C318.2663,1200.9205 319.175,1193.1217 319.375,1162.0117 C319.965,1070.4155 321.5975,962.6255 322.5012,907.4167 " fill="none" id="7-&gt;4" style="stroke: #A80036; stroke-width: 1.25;"/><polygon fill="#A80036" points="322.6088,900.9492,317.423,912.1148,322.5052,907.1984,327.4217,912.2805,322.6088,900.9492" style="stroke: #A80036; stroke-width: 1.25;"/><path d="M325.625,1168.2617 L325.625,1220.7617 L519.375,1220.7617 L519.375,1180.7617 L506.875,1168.2617 L325.625,1168.2617 " fill="#F5F5F5" filter="url(#f1i4b7911it6i1)" style="stroke: #A80036; stroke-width: 1.25;"/><path d="M506.875,1168.2617 L506.875,1180.7617 L519.375,1180.7617 L506.875,1168.2617 " fill="#F5F5F5" style="stroke: #A80036; stroke-width: 1.25;"/><text fill="#000000" font-family="sans-serif" font-size="16.25" font-weight="bold" lengthAdjust="spacingAndGlyphs" textLength="167.5" x="333.125" y="1191.3806">Mechanic requests to</text><ellipse cx="340" cy="1206.0156" fill="#000000" rx="3.125" ry="3.125" style="stroke: #000000; stroke-width: 0.0;"/><text fill="#000000" font-family="sans-serif" font-size="16.25" lengthAdjust="spacingAndGlyphs" textLength="95" x="349.375" y="1211.8201">previous step</text><!--MD5=[18d390701d5713e44db207a23fd2fedc]
link 7 to *end*createIntervention--><path d="M311.4888,1569.7417 C255.8388,1575.2717 144.0871,1589.8692 120.625,1619.5117 C100.9585,1644.3587 110.0733,1684.0112 117.713,1706.4141 " fill="none" id="7-&gt;*end*createIntervention-1" style="stroke: #008000; stroke-width: 1.25;"/><polygon fill="#008000" points="120.0031,1712.7776,120.8978,1700.4991,117.8865,1706.8969,111.4887,1703.8856,120.0031,1712.7776" style="stroke: #008000; stroke-width: 1.25;"/><path d="M126.875,1625.7617 L126.875,1678.2617 L321.875,1678.2617 L321.875,1638.2617 L309.375,1625.7617 L126.875,1625.7617 " fill="#F5F5F5" filter="url(#f1i4b7911it6i1)" style="stroke: #008000; stroke-width: 1.25;"/><path d="M309.375,1625.7617 L309.375,1638.2617 L321.875,1638.2617 L309.375,1625.7617 " fill="#F5F5F5" style="stroke: #008000; stroke-width: 1.25;"/><text fill="#000000" font-family="sans-serif" font-size="16.25" font-weight="bold" lengthAdjust="spacingAndGlyphs" textLength="168.75" x="134.375" y="1648.8806">mechanic requests to</text><ellipse cx="141.25" cy="1663.5156" fill="#000000" rx="3.125" ry="3.125" style="stroke: #000000; stroke-width: 0.0;"/><text fill="#000000" font-family="sans-serif" font-size="16.25" lengthAdjust="spacingAndGlyphs" textLength="115" x="150.625" y="1669.3201">confirm creation</text><!--MD5=[1488eabd224d37018261463db99a46c3]
link initState to createIntervention--><path d="M129.5599,72.7375 C136.7675,89.9125 146.7788,113.775 158.8975,142.6625 " fill="none" id="initState-&gt;createIntervention" style="stroke: #A80036; stroke-width: 1.25;"/><polygon fill="#A80036" points="161.35,148.5125,161.6222,136.2044,158.9385,142.7464,152.3965,140.0628,161.35,148.5125" style="stroke: #A80036; stroke-width: 1.25;"/><!--MD5=[fcd1417b76a1af8be5840f201f3edea1]
link initState2 to createIntervention--><path d="M371.2425,72.7375 C373.7125,89.8375 377.1413,113.575 381.29,142.3 " fill="none" id="initState2-&gt;createIntervention" style="stroke: #A80036; stroke-width: 1.25;"/><polygon fill="#A80036" points="382.1863,148.5125,385.5278,136.6636,381.2934,142.3266,375.6303,138.0922,382.1863,148.5125" style="stroke: #A80036; stroke-width: 1.25;"/><!--MD5=[a01b698f47d5978cfbb96c4a734895c3]
link initState3 to createIntervention--><path d="M626.2163,72.7375 C623.7225,89.8375 620.2613,113.575 616.0725,142.3 " fill="none" id="initState3-&gt;createIntervention" style="stroke: #A80036; stroke-width: 1.25;"/><polygon fill="#A80036" points="615.1688,148.5125,621.7247,138.0922,616.0616,142.3266,611.8272,136.6636,615.1688,148.5125" style="stroke: #A80036; stroke-width: 1.25;"/><!--MD5=[cb12774566a57ebde77f7f8e1e1cb3c7]
link initState4 to createIntervention--><path d="M876.3575,72.7375 C868.9613,89.9125 858.6875,113.775 846.25,142.6625 " fill="none" id="initState4-&gt;createIntervention" style="stroke: #A80036; stroke-width: 1.25;"/><polygon fill="#A80036" points="843.7338,148.5125,852.7877,140.1705,846.214,142.7757,843.6088,136.2021,843.7338,148.5125" style="stroke: #A80036; stroke-width: 1.25;"/><!--MD5=[bca3bc745c23a89e39fecdf2c81c9150]
link createIntervention to openDashboard--><path d="M498.125,1756.4763 C498.125,1784.6725 498.125,1808.3963 498.125,1826.2038 " fill="none" id="createIntervention-&gt;openDashboard" style="stroke: #A80036; stroke-width: 1.25;"/><polygon fill="#A80036" points="498.125,1832.495,503.125,1821.245,498.125,1826.245,493.125,1821.245,498.125,1832.495" style="stroke: #A80036; stroke-width: 1.25;"/><!--MD5=[bff4bdcc9e4386ec958e61a220e68862]
link openDashboard to OPENED_DASHBOARD--><path d="M498.125,1895.1488 C498.125,1968.8963 498.125,2158.2038 498.125,2238.315 " fill="none" id="openDashboard-&gt;OPENED_DASHBOARD" style="stroke: #A80036; stroke-width: 1.25;"/><polygon fill="#A80036" points="498.125,2244.8075,503.125,2233.5575,498.125,2238.5575,493.125,2233.5575,498.125,2244.8075" style="stroke: #A80036; stroke-width: 1.25;"/><path d="M504.375,1938.75 L504.375,2196.25 L686.875,2196.25 L686.875,1951.25 L674.375,1938.75 L504.375,1938.75 " fill="#F5F5F5" filter="url(#f1i4b7911it6i1)" style="stroke: #A80036; stroke-width: 1.25;"/><path d="M674.375,1938.75 L674.375,1951.25 L686.875,1951.25 L674.375,1938.75 " fill="#F5F5F5" style="stroke: #A80036; stroke-width: 1.25;"/><text fill="#000000" font-family="sans-serif" font-size="16.25" font-weight="bold" lengthAdjust="spacingAndGlyphs" textLength="111.25" x="511.875" y="1961.8689">System shows</text><ellipse cx="518.75" cy="1976.5039" fill="#000000" rx="3.125" ry="3.125" style="stroke: #000000; stroke-width: 0.0;"/><text fill="#000000" font-family="sans-serif" font-size="16.25" lengthAdjust="spacingAndGlyphs" textLength="140" x="528.125" y="1982.3083">created intervention</text><rect fill="#000000" height="4.375" style="stroke: #000000; stroke-width: 0.0;" width="4.375" x="538.125" y="1996.3184"/><text fill="#000000" font-family="sans-serif" font-size="16.25" lengthAdjust="spacingAndGlyphs" textLength="35" x="544.375" y="2002.7478">Type</text><rect fill="#000000" height="4.375" style="stroke: #000000; stroke-width: 0.0;" width="4.375" x="538.125" y="2016.7578"/><text fill="#000000" font-family="sans-serif" font-size="16.25" lengthAdjust="spacingAndGlyphs" textLength="102.5" x="544.375" y="2023.1873">Start datetime</text><text fill="#000000" font-family="sans-serif" font-size="16.25" font-weight="bold" lengthAdjust="spacingAndGlyphs" textLength="113.75" x="511.875" y="2043.6267">System allows</text><ellipse cx="518.75" cy="2058.2617" fill="#000000" rx="3.125" ry="3.125" style="stroke: #000000; stroke-width: 0.0;"/><text fill="#000000" font-family="sans-serif" font-size="16.25" lengthAdjust="spacingAndGlyphs" textLength="97.5" x="528.125" y="2064.0662">open vehicles</text><ellipse cx="518.75" cy="2078.7012" fill="#000000" rx="3.125" ry="3.125" style="stroke: #000000; stroke-width: 0.0;"/><text fill="#000000" font-family="sans-serif" font-size="16.25" lengthAdjust="spacingAndGlyphs" textLength="130" x="528.125" y="2084.5056">open interventions</text><ellipse cx="518.75" cy="2099.1406" fill="#000000" rx="3.125" ry="3.125" style="stroke: #000000; stroke-width: 0.0;"/><text fill="#000000" font-family="sans-serif" font-size="16.25" lengthAdjust="spacingAndGlyphs" textLength="87.5" x="528.125" y="2104.9451">open clients</text><ellipse cx="518.75" cy="2119.5801" fill="#000000" rx="3.125" ry="3.125" style="stroke: #000000; stroke-width: 0.0;"/><text fill="#000000" font-family="sans-serif" font-size="16.25" lengthAdjust="spacingAndGlyphs" textLength="115" x="528.125" y="2125.3845">open operations</text><ellipse cx="518.75" cy="2140.0195" fill="#000000" rx="3.125" ry="3.125" style="stroke: #000000; stroke-width: 0.0;"/><text fill="#000000" font-family="sans-serif" font-size="16.25" lengthAdjust="spacingAndGlyphs" textLength="43.75" x="528.125" y="2145.824">logout</text><ellipse cx="518.75" cy="2160.459" fill="#000000" rx="3.125" ry="3.125" style="stroke: #000000; stroke-width: 0.0;"/><text fill="#000000" font-family="sans-serif" font-size="16.25" lengthAdjust="spacingAndGlyphs" textLength="131.25" x="528.125" y="2166.2634">create intervention</text><ellipse cx="518.75" cy="2180.8984" fill="#000000" rx="3.125" ry="3.125" style="stroke: #000000; stroke-width: 0.0;"/><text fill="#000000" font-family="sans-serif" font-size="16.25" lengthAdjust="spacingAndGlyphs" textLength="123.75" x="528.125" y="2186.7029">finish intervention</text><!--MD5=[e42c1d6f639672ed5b40c5a602aa463b]
@startuml
skinparam {
    NoteBackgroundColor #whiteSmoke
}


state initState as ":OPENED_DASHBOARD"
state initState2 as ":OPENED_VEHICLES"
state initState3 as ":OPENED_INTERVENTIONS"
state initState4 as ":OPENED_CLIENTS"
state OPENED_DASHBOARD as ":OPENED_DASHBOARD"
state openDashboard as ":openDashboard"

initState - -> createIntervention
initState2 - -> createIntervention
initState3 - -> createIntervention
initState4 - -> createIntervention

state createIntervention {
state 1 as " "
state 2 as " "
state 4 as " "
state 5 as " "
state 6 as " "
state 7 as " "

[*] -[#Green]-> 1
note on link
    <b>mechanic requests to</b>
    * create new intervention
end note

1 -[#Green]-> 2
note on link
<b>System requires</b>
* vehicle
** (should exist in the system)
** (mandatory when type REPAIR)
* intervention type
** REPAIR | CAFE
<b>System allows</b>
* cancel
end note

2 - -> [*]
note on link
<b>Mechanic requests to</b>
* cancel
end note

2 -[#Green]-> 4
note on link
<b>Mechanic provides</b>
* vehicle
* intervention type
end note

4 -[#Green]-> 5
note on link
<b>System requires</b>
* intervention description
<b>System allows</b>
* cancel
* go to previous step
end note

5 - -> 1
note on link
<b>Mechanic requests to</b>
* go to previus step
end note

5 -[#Green]-> 6
note on link
<b>Mechanic provides</b>
* intervention description
end note

6 -[#Green]-> 7
note on link
<b>System shows</b>
* description
* type
<b>System allows</b>
* go to previous step
* cancel
* confirm creation
end note

7 - -> [*]
note on link
<b>Mechanic requests to</b>
* cancel
end note

7 - -> 4
note on link
<b>Mechanic requests to</b>
* previous step
end note

7 -[#Green]-> [*]
note on link
<b>mechanic requests to
* confirm creation
end note

}

createIntervention - -> openDashboard

openDashboard - -> OPENED_DASHBOARD
note on link
    <b>System shows</b>
    * created intervention
    **Type
    **Start datetime
    <b>System allows</b>
    *  open vehicles
    *  open interventions
    *  open clients
    *  open operations
    *  logout
    *  create intervention
    *  finish intervention
end note
@enduml

PlantUML version 1.2020.09(Sun May 10 12:51:06 CEST 2020)
(GPL source distribution)
Java Runtime: OpenJDK Runtime Environment
JVM: OpenJDK 64-Bit Server VM
Java Version: 11.0.6+8-b765.25
Operating System: Windows 10
Default Encoding: Cp1252
Language: en
Country: GB
--></g></svg>