<?xml version="1.0" encoding="UTF-8" standalone="no"?><svg xmlns="http://www.w3.org/2000/svg" xmlns:xlink="http://www.w3.org/1999/xlink" contentScriptType="application/ecmascript" contentStyleType="text/css" height="2238.75px" preserveAspectRatio="none" style="width:973px;height:2238px;" version="1.1" viewBox="0 0 973 2238" width="973.75px" zoomAndPan="magnify"><defs><filter height="300%" id="f18vy6y2rfqr0i" width="300%" x="-1" y="-1"><feGaussianBlur result="blurOut" stdDeviation="2.5"/><feColorMatrix in="blurOut" result="blurOut2" type="matrix" values="0 0 0 0 0 0 0 0 0 0 0 0 0 0 0 0 0 0 .4 0"/><feOffset dx="5.0" dy="5.0" in="blurOut2" result="blurOut3"/><feBlend in="SourceGraphic" in2="blurOut3" mode="normal"/></filter></defs><g><rect fill="#FEFECE" filter="url(#f18vy6y2rfqr0i)" height="62.5" rx="15.625" ry="15.625" style="stroke: #A80036; stroke-width: 1.875;" width="182.5" x="391.875" y="10"/><line style="stroke: #A80036; stroke-width: 1.875;" x1="391.875" x2="574.375" y1="44.5117" y2="44.5117"/><text fill="#000000" font-family="sans-serif" font-size="17.5" lengthAdjust="spacingAndGlyphs" textLength="157.5" x="404.375" y="34.4165">:OPENED_CLIENTS</text><rect fill="#FEFECE" filter="url(#f18vy6y2rfqr0i)" height="62.5" rx="15.625" ry="15.625" style="stroke: #A80036; stroke-width: 1.875;" width="182.5" x="391.875" y="2162.5"/><line style="stroke: #A80036; stroke-width: 1.875;" x1="391.875" x2="574.375" y1="2197.0117" y2="2197.0117"/><text fill="#000000" font-family="sans-serif" font-size="17.5" lengthAdjust="spacingAndGlyphs" textLength="157.5" x="404.375" y="2186.9165">:OPENED_CLIENTS</text><rect fill="#FEFECE" filter="url(#f18vy6y2rfqr0i)" height="62.5" rx="15.625" ry="15.625" style="stroke: #A80036; stroke-width: 1.875;" width="123.75" x="421.25" y="1750"/><line style="stroke: #A80036; stroke-width: 1.875;" x1="421.25" x2="545" y1="1784.5117" y2="1784.5117"/><text fill="#000000" font-family="sans-serif" font-size="17.5" lengthAdjust="spacingAndGlyphs" textLength="98.75" x="433.75" y="1774.4165">:openClients</text><rect fill="#FEFECE" filter="url(#f18vy6y2rfqr0i)" height="1524.5117" rx="15.625" ry="15.625" style="stroke: #A80036; stroke-width: 1.875;" width="951.25" x="7.5" y="148.75"/><rect fill="#FFFFFF" height="1482.5" rx="15.625" ry="15.625" style="stroke: #FFFFFF; stroke-width: 1.25;" width="943.75" x="11.25" y="187.0117"/><line style="stroke: #A80036; stroke-width: 1.875;" x1="7.5" x2="958.75" y1="183.2617" y2="183.2617"/><text fill="#000000" font-family="sans-serif" font-size="17.5" lengthAdjust="spacingAndGlyphs" textLength="95" x="435.625" y="173.1665">createClient</text><rect fill="#FEFECE" filter="url(#f18vy6y2rfqr0i)" height="62.5" rx="15.625" ry="15.625" style="stroke: #A80036; stroke-width: 1.875;" width="62.5" x="397.5" y="339.5117"/><line style="stroke: #A80036; stroke-width: 1.875;" x1="397.5" x2="460" y1="374.0234" y2="374.0234"/><text fill="#000000" font-family="sans-serif" font-size="17.5" lengthAdjust="spacingAndGlyphs" textLength="0" x="431.25" y="363.9282"/><rect fill="#FEFECE" filter="url(#f18vy6y2rfqr0i)" height="62.5" rx="15.625" ry="15.625" style="stroke: #A80036; stroke-width: 1.875;" width="62.5" x="468.75" y="974.5117"/><line style="stroke: #A80036; stroke-width: 1.875;" x1="468.75" x2="531.25" y1="1009.0234" y2="1009.0234"/><text fill="#000000" font-family="sans-serif" font-size="17.5" lengthAdjust="spacingAndGlyphs" textLength="0" x="502.5" y="998.9282"/><rect fill="#FEFECE" filter="url(#f18vy6y2rfqr0i)" height="62.5" rx="15.625" ry="15.625" style="stroke: #A80036; stroke-width: 1.875;" width="62.5" x="383.75" y="1152.0117"/><line style="stroke: #A80036; stroke-width: 1.875;" x1="383.75" x2="446.25" y1="1186.5234" y2="1186.5234"/><text fill="#000000" font-family="sans-serif" font-size="17.5" lengthAdjust="spacingAndGlyphs" textLength="0" x="417.5" y="1176.4282"/><rect fill="#FEFECE" filter="url(#f18vy6y2rfqr0i)" height="62.5" rx="15.625" ry="15.625" style="stroke: #A80036; stroke-width: 1.875;" width="62.5" x="241.25" y="558.2617"/><line style="stroke: #A80036; stroke-width: 1.875;" x1="241.25" x2="303.75" y1="592.7734" y2="592.7734"/><text fill="#000000" font-family="sans-serif" font-size="17.5" lengthAdjust="spacingAndGlyphs" textLength="0" x="275" y="582.6782"/><rect fill="#FEFECE" filter="url(#f18vy6y2rfqr0i)" height="62.5" rx="15.625" ry="15.625" style="stroke: #A80036; stroke-width: 1.875;" width="62.5" x="241.25" y="735.7617"/><line style="stroke: #A80036; stroke-width: 1.875;" x1="241.25" x2="303.75" y1="770.2734" y2="770.2734"/><text fill="#000000" font-family="sans-serif" font-size="17.5" lengthAdjust="spacingAndGlyphs" textLength="0" x="275" y="760.1782"/><rect fill="#FEFECE" filter="url(#f18vy6y2rfqr0i)" height="62.5" rx="15.625" ry="15.625" style="stroke: #A80036; stroke-width: 1.875;" width="62.5" x="285" y="1452.0117"/><line style="stroke: #A80036; stroke-width: 1.875;" x1="285" x2="347.5" y1="1486.5234" y2="1486.5234"/><text fill="#000000" font-family="sans-serif" font-size="17.5" lengthAdjust="spacingAndGlyphs" textLength="0" x="318.75" y="1476.4282"/><ellipse cx="428.75" cy="212.0117" fill="#000000" filter="url(#f18vy6y2rfqr0i)" rx="12.5" ry="12.5" style="stroke: none; stroke-width: 1.25;"/><ellipse cx="215" cy="1642.0117" fill="none" filter="url(#f18vy6y2rfqr0i)" rx="12.5" ry="12.5" style="stroke: #000000; stroke-width: 1.25;"/><ellipse cx="215.625" cy="1642.6367" fill="#000000" rx="7.5" ry="7.5" style="stroke: none; stroke-width: 1.25;"/><!--MD5=[1d26e47e1770ee4604ed227d2989ccb0]
link *start*createClient to 1--><path d="M428.75,225.0117 C428.75,247.5867 428.75,297.9117 428.75,332.7742 " fill="none" id="*start*createClient-&gt;1" style="stroke: #008000; stroke-width: 1.25;"/><polygon fill="#008000" points="428.75,339.0992,433.75,327.8492,428.75,332.8492,423.75,327.8492,428.75,339.0992" style="stroke: #008000; stroke-width: 1.25;"/><path d="M435,253.2617 L435,305.7617 L628.75,305.7617 L628.75,265.7617 L616.25,253.2617 L435,253.2617 " fill="#F5F5F5" filter="url(#f18vy6y2rfqr0i)" style="stroke: #008000; stroke-width: 1.25;"/><path d="M616.25,253.2617 L616.25,265.7617 L628.75,265.7617 L616.25,253.2617 " fill="#F5F5F5" style="stroke: #008000; stroke-width: 1.25;"/><text fill="#000000" font-family="sans-serif" font-size="16.25" font-weight="bold" lengthAdjust="spacingAndGlyphs" textLength="167.5" x="442.5" y="276.3806">Mechanic requests to</text><ellipse cx="449.375" cy="291.0156" fill="#000000" rx="3.125" ry="3.125" style="stroke: #000000; stroke-width: 0.0;"/><text fill="#000000" font-family="sans-serif" font-size="16.25" lengthAdjust="spacingAndGlyphs" textLength="91.25" x="458.75" y="296.8201">create Client</text><!--MD5=[0ba0d8a0fd0e641c23f69743a446dfe6]
link 1 to 2--><path d="M397.2113,376.4867 C368.0863,382.3367 325.9038,395.5117 302.5,424.5117 C273.4538,460.508 268.9988,515.4942 269.7413,551.6592 " fill="none" id="1-&gt;2" style="stroke: #008000; stroke-width: 1.25;"/><polygon fill="#008000" points="269.9363,558.1842,274.5997,546.7906,269.7505,551.937,264.6041,547.0878,269.9363,558.1842" style="stroke: #008000; stroke-width: 1.25;"/><path d="M308.75,430.7617 L308.75,524.5117 L510,524.5117 L510,443.2617 L497.5,430.7617 L308.75,430.7617 " fill="#F5F5F5" filter="url(#f18vy6y2rfqr0i)" style="stroke: #008000; stroke-width: 1.25;"/><path d="M497.5,430.7617 L497.5,443.2617 L510,443.2617 L497.5,430.7617 " fill="#F5F5F5" style="stroke: #008000; stroke-width: 1.25;"/><text fill="#000000" font-family="sans-serif" font-size="16.25" font-weight="bold" lengthAdjust="spacingAndGlyphs" textLength="127.5" x="316.25" y="453.8806">System requires</text><ellipse cx="323.125" cy="468.5156" fill="#000000" rx="3.125" ry="3.125" style="stroke: #000000; stroke-width: 0.0;"/><text fill="#000000" font-family="sans-serif" font-size="16.25" lengthAdjust="spacingAndGlyphs" textLength="158.75" x="332.5" y="474.3201">full Name (mandatory)</text><text fill="#000000" font-family="sans-serif" font-size="16.25" font-weight="bold" lengthAdjust="spacingAndGlyphs" textLength="113.75" x="316.25" y="494.7595">System allows</text><ellipse cx="323.125" cy="509.3945" fill="#000000" rx="3.125" ry="3.125" style="stroke: #000000; stroke-width: 0.0;"/><text fill="#000000" font-family="sans-serif" font-size="16.25" lengthAdjust="spacingAndGlyphs" textLength="47.5" x="332.5" y="515.199">cancel</text><!--MD5=[d91fadcc59088846e1f96f23b79e28ce]
link 2 to *end*createClient--><path d="M241.1875,597.0742 C173.835,612.673 21.25,659.7117 21.25,765.7617 C21.25,765.7617 21.25,765.7617 21.25,1484.5117 C21.25,1548.3498 45.3973,1568.4202 96.25,1607.0117 C126.2134,1629.7506 170.9038,1637.174 196.0463,1639.5941 " fill="none" id="2-&gt;*end*createClient" style="stroke: #A80036; stroke-width: 1.25;"/><polygon fill="#A80036" points="202.5913,1640.1526,191.8061,1634.216,196.3638,1639.6222,190.9575,1644.1799,202.5913,1640.1526" style="stroke: #A80036; stroke-width: 1.25;"/><path d="M27.5,1065.7617 L27.5,1118.2617 L222.5,1118.2617 L222.5,1078.2617 L210,1065.7617 L27.5,1065.7617 " fill="#F5F5F5" filter="url(#f18vy6y2rfqr0i)" style="stroke: #A80036; stroke-width: 1.25;"/><path d="M210,1065.7617 L210,1078.2617 L222.5,1078.2617 L210,1065.7617 " fill="#F5F5F5" style="stroke: #A80036; stroke-width: 1.25;"/><text fill="#000000" font-family="sans-serif" font-size="16.25" font-weight="bold" lengthAdjust="spacingAndGlyphs" textLength="168.75" x="35" y="1088.8806">mechanic requests to</text><ellipse cx="41.875" cy="1103.5156" fill="#000000" rx="3.125" ry="3.125" style="stroke: #000000; stroke-width: 0.0;"/><text fill="#000000" font-family="sans-serif" font-size="16.25" lengthAdjust="spacingAndGlyphs" textLength="47.5" x="51.25" y="1109.3201">cancel</text><!--MD5=[d209f2622dd5d3103b9c9b4670e2d6db]
link 2 to 4--><path d="M272.5,620.8455 C272.5,650.7705 272.5,696.7367 272.5,728.853 " fill="none" id="2-&gt;4" style="stroke: #008000; stroke-width: 1.25;"/><polygon fill="#008000" points="272.5,735.4855,277.5,724.2355,272.5,729.2355,267.5,724.2355,272.5,735.4855" style="stroke: #008000; stroke-width: 1.25;"/><path d="M278.75,649.5117 L278.75,702.0117 L453.75,702.0117 L453.75,662.0117 L441.25,649.5117 L278.75,649.5117 " fill="#F5F5F5" filter="url(#f18vy6y2rfqr0i)" style="stroke: #008000; stroke-width: 1.25;"/><path d="M441.25,649.5117 L441.25,662.0117 L453.75,662.0117 L441.25,649.5117 " fill="#F5F5F5" style="stroke: #008000; stroke-width: 1.25;"/><text fill="#000000" font-family="sans-serif" font-size="16.25" font-weight="bold" lengthAdjust="spacingAndGlyphs" textLength="148.75" x="286.25" y="672.6306">Mechanic provides</text><ellipse cx="293.125" cy="687.2656" fill="#000000" rx="3.125" ry="3.125" style="stroke: #000000; stroke-width: 0.0;"/><text fill="#000000" font-family="sans-serif" font-size="16.25" lengthAdjust="spacingAndGlyphs" textLength="71.25" x="302.5" y="693.0701">Full name</text><!--MD5=[910482590f1e03b42b082a885a985bc4]
link 4 to A0--><path d="M276.0325,798.2842 C282.0775,847.4467 294.745,940.8117 305,952.0117 C345.17,995.8792 417.7413,1004.6605 462.1238,1005.5942 " fill="none" id="4-&gt;A0" style="stroke: #008000; stroke-width: 1.25;"/><polygon fill="#008000" points="468.4613,1005.678,457.2779,1000.5306,462.2118,1005.5958,457.1465,1010.5297,468.4613,1005.678" style="stroke: #008000; stroke-width: 1.25;"/><path d="M311.25,827.0117 L311.25,940.7617 L510,940.7617 L510,839.5117 L497.5,827.0117 L311.25,827.0117 " fill="#F5F5F5" filter="url(#f18vy6y2rfqr0i)" style="stroke: #008000; stroke-width: 1.25;"/><path d="M497.5,827.0117 L497.5,839.5117 L510,839.5117 L497.5,827.0117 " fill="#F5F5F5" style="stroke: #008000; stroke-width: 1.25;"/><text fill="#000000" font-family="sans-serif" font-size="16.25" font-weight="bold" lengthAdjust="spacingAndGlyphs" textLength="127.5" x="318.75" y="850.1306">System requires</text><ellipse cx="325.625" cy="864.7656" fill="#000000" rx="3.125" ry="3.125" style="stroke: #000000; stroke-width: 0.0;"/><text fill="#000000" font-family="sans-serif" font-size="16.25" lengthAdjust="spacingAndGlyphs" textLength="156.25" x="335" y="870.5701">pending billable hours</text><text fill="#000000" font-family="sans-serif" font-size="16.25" font-weight="bold" lengthAdjust="spacingAndGlyphs" textLength="113.75" x="318.75" y="891.0095">System allows</text><ellipse cx="325.625" cy="905.6445" fill="#000000" rx="3.125" ry="3.125" style="stroke: #000000; stroke-width: 0.0;"/><text fill="#000000" font-family="sans-serif" font-size="16.25" lengthAdjust="spacingAndGlyphs" textLength="57.5" x="335" y="911.449">go back</text><ellipse cx="325.625" cy="926.084" fill="#000000" rx="3.125" ry="3.125" style="stroke: #000000; stroke-width: 0.0;"/><text fill="#000000" font-family="sans-serif" font-size="16.25" lengthAdjust="spacingAndGlyphs" textLength="47.5" x="335" y="931.8884">cancel</text><!--MD5=[78207581f58b3e221c284aabd11e6efa]
link A0 to 1--><path d="M514.625,974.0255 C517.3688,966.9542 519.8213,959.3467 521.25,952.0117 C566.0563,721.8892 639.22,627.113 521.25,424.5117 C509.3775,404.1242 486.3113,391.0117 466.1838,382.9867 " fill="none" id="A0-&gt;1" style="stroke: #A80036; stroke-width: 1.25;"/><polygon fill="#A80036" points="460.0475,380.6492,468.7891,389.3179,465.8903,382.8684,472.3398,379.9695,460.0475,380.6492" style="stroke: #A80036; stroke-width: 1.25;"/><path d="M590,649.5117 L590,702.0117 L783.75,702.0117 L783.75,662.0117 L771.25,649.5117 L590,649.5117 " fill="#F5F5F5" filter="url(#f18vy6y2rfqr0i)" style="stroke: #A80036; stroke-width: 1.25;"/><path d="M771.25,649.5117 L771.25,662.0117 L783.75,662.0117 L771.25,649.5117 " fill="#F5F5F5" style="stroke: #A80036; stroke-width: 1.25;"/><text fill="#000000" font-family="sans-serif" font-size="16.25" font-weight="bold" lengthAdjust="spacingAndGlyphs" textLength="167.5" x="597.5" y="672.6306">Mechanic requests to</text><ellipse cx="604.375" cy="687.2656" fill="#000000" rx="3.125" ry="3.125" style="stroke: #000000; stroke-width: 0.0;"/><text fill="#000000" font-family="sans-serif" font-size="16.25" lengthAdjust="spacingAndGlyphs" textLength="57.5" x="613.75" y="693.0701">go back</text><!--MD5=[1aec90b088d82952be87b4e554efdca6]
link A0 to *end*createClient--><path d="M531.4638,1005.8367 C572.9425,1006.2142 644.6375,1013.9392 678.75,1059.5117 C723.7262,1119.5967 764.045,1131.9067 633.75,1429.5117 C593.1763,1522.1855 579.6425,1557.8055 491.25,1607.0117 C446.8175,1631.746 288.6813,1638.623 233.8688,1640.2862 " fill="none" id="A0-&gt;*end*createClient" style="stroke: #A80036; stroke-width: 1.25;"/><polygon fill="#A80036" points="227.42,1640.4721,238.8096,1645.1454,233.6674,1640.2917,238.521,1635.1495,227.42,1640.4721" style="stroke: #A80036; stroke-width: 1.25;"/><path d="M712.5,1304.5117 L712.5,1357.0117 L906.25,1357.0117 L906.25,1317.0117 L893.75,1304.5117 L712.5,1304.5117 " fill="#F5F5F5" filter="url(#f18vy6y2rfqr0i)" style="stroke: #A80036; stroke-width: 1.25;"/><path d="M893.75,1304.5117 L893.75,1317.0117 L906.25,1317.0117 L893.75,1304.5117 " fill="#F5F5F5" style="stroke: #A80036; stroke-width: 1.25;"/><text fill="#000000" font-family="sans-serif" font-size="16.25" font-weight="bold" lengthAdjust="spacingAndGlyphs" textLength="167.5" x="720" y="1327.6306">Mechanic requests to</text><ellipse cx="726.875" cy="1342.2656" fill="#000000" rx="3.125" ry="3.125" style="stroke: #000000; stroke-width: 0.0;"/><text fill="#000000" font-family="sans-serif" font-size="16.25" lengthAdjust="spacingAndGlyphs" textLength="47.5" x="736.25" y="1348.0701">cancel</text><!--MD5=[c2c6fdd1dc0e3cc43addcf6e2f93a043]
link A0 to A1--><path d="M476.4513,1037.268 C471.4925,1044.3505 466.545,1052.0217 462.5,1059.5117 C454.22,1074.848 438.9,1115.5242 427.895,1145.823 " fill="none" id="A0-&gt;A1" style="stroke: #008000; stroke-width: 1.25;"/><polygon fill="#008000" points="425.755,1151.7342,434.2849,1142.8571,427.8819,1145.8572,424.8818,1139.4542,425.755,1151.7342" style="stroke: #008000; stroke-width: 1.25;"/><path d="M468.75,1065.7617 L468.75,1118.2617 L667.5,1118.2617 L667.5,1078.2617 L655,1065.7617 L468.75,1065.7617 " fill="#F5F5F5" filter="url(#f18vy6y2rfqr0i)" style="stroke: #008000; stroke-width: 1.25;"/><path d="M655,1065.7617 L655,1078.2617 L667.5,1078.2617 L655,1065.7617 " fill="#F5F5F5" style="stroke: #008000; stroke-width: 1.25;"/><text fill="#000000" font-family="sans-serif" font-size="16.25" font-weight="bold" lengthAdjust="spacingAndGlyphs" textLength="107.5" x="476.25" y="1088.8806">User provides</text><ellipse cx="483.125" cy="1103.5156" fill="#000000" rx="3.125" ry="3.125" style="stroke: #000000; stroke-width: 0.0;"/><text fill="#000000" font-family="sans-serif" font-size="16.25" lengthAdjust="spacingAndGlyphs" textLength="156.25" x="492.5" y="1109.3201">pending billable hours</text><!--MD5=[f9e58d902f7eac143de74872ae8c8d96]
link A1 to 6--><path d="M404.9875,1214.6742 C386.7262,1269.6905 348.08,1386.1205 328.3663,1445.5092 " fill="none" id="A1-&gt;6" style="stroke: #008000; stroke-width: 1.25;"/><polygon fill="#008000" points="326.2888,1451.7692,334.579,1442.6679,328.2582,1445.8376,325.0885,1439.5168,326.2888,1451.7692" style="stroke: #008000; stroke-width: 1.25;"/><path d="M402.5,1243.2617 L402.5,1418.2617 L617.5,1418.2617 L617.5,1255.7617 L605,1243.2617 L402.5,1243.2617 " fill="#F5F5F5" filter="url(#f18vy6y2rfqr0i)" style="stroke: #008000; stroke-width: 1.25;"/><path d="M605,1243.2617 L605,1255.7617 L617.5,1255.7617 L605,1243.2617 " fill="#F5F5F5" style="stroke: #008000; stroke-width: 1.25;"/><text fill="#000000" font-family="sans-serif" font-size="16.25" font-weight="bold" lengthAdjust="spacingAndGlyphs" textLength="111.25" x="410" y="1266.3806">System shows</text><ellipse cx="416.875" cy="1281.0156" fill="#000000" rx="3.125" ry="3.125" style="stroke: #000000; stroke-width: 0.0;"/><text fill="#000000" font-family="sans-serif" font-size="16.25" lengthAdjust="spacingAndGlyphs" textLength="75" x="426.25" y="1286.8201">new Client</text><rect fill="#000000" height="4.375" style="stroke: #000000; stroke-width: 0.0;" width="4.375" x="436.25" y="1300.8301"/><text fill="#000000" font-family="sans-serif" font-size="16.25" lengthAdjust="spacingAndGlyphs" textLength="71.25" x="442.5" y="1307.2595">Full name</text><rect fill="#000000" height="4.375" style="stroke: #000000; stroke-width: 0.0;" width="4.375" x="436.25" y="1321.2695"/><text fill="#000000" font-family="sans-serif" font-size="16.25" lengthAdjust="spacingAndGlyphs" textLength="156.25" x="442.5" y="1327.699">pending billable hours</text><text fill="#000000" font-family="sans-serif" font-size="16.25" font-weight="bold" lengthAdjust="spacingAndGlyphs" textLength="113.75" x="410" y="1348.1384">System allows</text><ellipse cx="416.875" cy="1362.7734" fill="#000000" rx="3.125" ry="3.125" style="stroke: #000000; stroke-width: 0.0;"/><text fill="#000000" font-family="sans-serif" font-size="16.25" lengthAdjust="spacingAndGlyphs" textLength="115" x="426.25" y="1368.5779">confirm creation</text><ellipse cx="416.875" cy="1383.2129" fill="#000000" rx="3.125" ry="3.125" style="stroke: #000000; stroke-width: 0.0;"/><text fill="#000000" font-family="sans-serif" font-size="16.25" lengthAdjust="spacingAndGlyphs" textLength="47.5" x="426.25" y="1389.0173">cancel</text><ellipse cx="416.875" cy="1403.6523" fill="#000000" rx="3.125" ry="3.125" style="stroke: #000000; stroke-width: 0.0;"/><text fill="#000000" font-family="sans-serif" font-size="16.25" lengthAdjust="spacingAndGlyphs" textLength="57.5" x="426.25" y="1409.4568">go back</text><!--MD5=[5483d4727aba559bfbbf92d3b739413a]
link 6 to *end*createClient--><path d="M284.7688,1488.0755 C233.5113,1494.5967 135.6413,1510.2955 115,1537.0117 C95.9793,1561.631 96.8563,1581.7391 115,1607.0117 C133.3999,1632.6411 172.2875,1639.062 195.7788,1640.5192 " fill="none" id="6-&gt;*end*createClient" style="stroke: #008000; stroke-width: 1.25;"/><polygon fill="#008000" points="202.535,1640.8278,191.5253,1635.3188,196.2915,1640.5421,191.0682,1645.3083,202.535,1640.8278" style="stroke: #008000; stroke-width: 1.25;"/><path d="M121.25,1543.2617 L121.25,1595.7617 L278.75,1595.7617 L278.75,1555.7617 L266.25,1543.2617 L121.25,1543.2617 " fill="#F5F5F5" filter="url(#f18vy6y2rfqr0i)" style="stroke: #008000; stroke-width: 1.25;"/><path d="M266.25,1543.2617 L266.25,1555.7617 L278.75,1555.7617 L266.25,1543.2617 " fill="#F5F5F5" style="stroke: #008000; stroke-width: 1.25;"/><text fill="#000000" font-family="sans-serif" font-size="16.25" font-weight="bold" lengthAdjust="spacingAndGlyphs" textLength="126.25" x="128.75" y="1566.3806">User requests to</text><ellipse cx="135.625" cy="1581.0156" fill="#000000" rx="3.125" ry="3.125" style="stroke: #000000; stroke-width: 0.0;"/><text fill="#000000" font-family="sans-serif" font-size="16.25" lengthAdjust="spacingAndGlyphs" textLength="115" x="145" y="1586.8201">confirm creation</text><!--MD5=[3ce29d91a35df54cf8f654f0ce628f8c]
link 6 to 4--><path d="M309.575,1451.568 C296.6213,1390.7467 268.49,1249.7205 258.75,1129.5117 C256.2375,1098.5017 258.0163,1090.6142 258.75,1059.5117 C260.9125,967.8442 266.8988,860.0842 270.215,804.898 " fill="none" id="6-&gt;4" style="stroke: #A80036; stroke-width: 1.25;"/><polygon fill="#A80036" points="270.6063,798.433,264.9372,809.3611,270.2295,804.6716,274.919,809.9639,270.6063,798.433" style="stroke: #A80036; stroke-width: 1.25;"/><path d="M265,1065.7617 L265,1118.2617 L417.5,1118.2617 L417.5,1078.2617 L405,1065.7617 L265,1065.7617 " fill="#F5F5F5" filter="url(#f18vy6y2rfqr0i)" style="stroke: #A80036; stroke-width: 1.25;"/><path d="M405,1065.7617 L405,1078.2617 L417.5,1078.2617 L405,1065.7617 " fill="#F5F5F5" style="stroke: #A80036; stroke-width: 1.25;"/><text fill="#000000" font-family="sans-serif" font-size="16.25" font-weight="bold" lengthAdjust="spacingAndGlyphs" textLength="126.25" x="272.5" y="1088.8806">User requests to</text><ellipse cx="279.375" cy="1103.5156" fill="#000000" rx="3.125" ry="3.125" style="stroke: #000000; stroke-width: 0.0;"/><text fill="#000000" font-family="sans-serif" font-size="16.25" lengthAdjust="spacingAndGlyphs" textLength="57.5" x="288.75" y="1109.3201">go back</text><!--MD5=[5483d4727aba559bfbbf92d3b739413a]
link 6 to *end*createClient--><path d="M317.0938,1514.9467 C316.2725,1541.9191 311.0488,1580.9566 290,1607.0117 C275.9,1624.4651 250.8513,1633.2082 233.6075,1637.3581 " fill="none" id="6-&gt;*end*createClient-1" style="stroke: #A80036; stroke-width: 1.25;"/><polygon fill="#A80036" points="227.1963,1638.7776,239.2614,1641.2261,233.2983,1637.4258,237.0986,1631.4628,227.1963,1638.7776" style="stroke: #A80036; stroke-width: 1.25;"/><path d="M322.5,1543.2617 L322.5,1595.7617 L475,1595.7617 L475,1555.7617 L462.5,1543.2617 L322.5,1543.2617 " fill="#F5F5F5" filter="url(#f18vy6y2rfqr0i)" style="stroke: #A80036; stroke-width: 1.25;"/><path d="M462.5,1543.2617 L462.5,1555.7617 L475,1555.7617 L462.5,1543.2617 " fill="#F5F5F5" style="stroke: #A80036; stroke-width: 1.25;"/><text fill="#000000" font-family="sans-serif" font-size="16.25" font-weight="bold" lengthAdjust="spacingAndGlyphs" textLength="126.25" x="330" y="1566.3806">User requests to</text><ellipse cx="336.875" cy="1581.0156" fill="#000000" rx="3.125" ry="3.125" style="stroke: #000000; stroke-width: 0.0;"/><text fill="#000000" font-family="sans-serif" font-size="16.25" lengthAdjust="spacingAndGlyphs" textLength="47.5" x="346.25" y="1586.8201">cancel</text><!--MD5=[dd890ed21ff0db9b88a970ac198c076e]
link initState to createClient--><path d="M483.125,72.8625 C483.125,89.9375 483.125,113.575 483.125,142.1 " fill="none" id="initState-&gt;createClient" style="stroke: #A80036; stroke-width: 1.25;"/><polygon fill="#A80036" points="483.125,148.65,488.125,137.4,483.125,142.4,478.125,137.4,483.125,148.65" style="stroke: #A80036; stroke-width: 1.25;"/><!--MD5=[450637bd7d778f69aba71ce9795ae5bf]
link createClient to openClients--><path d="M483.125,1674.0613 C483.125,1702.16 483.125,1725.8538 483.125,1743.6613 " fill="none" id="createClient-&gt;openClients" style="stroke: #A80036; stroke-width: 1.25;"/><polygon fill="#A80036" points="483.125,1749.9525,488.125,1738.7025,483.125,1743.7025,478.125,1738.7025,483.125,1749.9525" style="stroke: #A80036; stroke-width: 1.25;"/><!--MD5=[c6d7320b6dfe013fbc4c747c0f8045b1]
link openClients to OPENED_CLIENTS--><path d="M483.125,1812.6488 C483.125,1886.3963 483.125,2075.7038 483.125,2155.815 " fill="none" id="openClients-&gt;OPENED_CLIENTS" style="stroke: #A80036; stroke-width: 1.25;"/><polygon fill="#A80036" points="483.125,2162.3075,488.125,2151.0575,483.125,2156.0575,478.125,2151.0575,483.125,2162.3075" style="stroke: #A80036; stroke-width: 1.25;"/><path d="M489.375,1856.25 L489.375,2113.75 L676.875,2113.75 L676.875,1868.75 L664.375,1856.25 L489.375,1856.25 " fill="#F5F5F5" filter="url(#f18vy6y2rfqr0i)" style="stroke: #A80036; stroke-width: 1.25;"/><path d="M664.375,1856.25 L664.375,1868.75 L676.875,1868.75 L664.375,1856.25 " fill="#F5F5F5" style="stroke: #A80036; stroke-width: 1.25;"/><text fill="#000000" font-family="sans-serif" font-size="16.25" font-weight="bold" lengthAdjust="spacingAndGlyphs" textLength="111.25" x="496.875" y="1879.3689">System shows</text><ellipse cx="503.75" cy="1894.0039" fill="#000000" rx="3.125" ry="3.125" style="stroke: #000000; stroke-width: 0.0;"/><text fill="#000000" font-family="sans-serif" font-size="16.25" lengthAdjust="spacingAndGlyphs" textLength="145" x="513.125" y="1899.8083">all clients in system</text><text fill="#000000" font-family="sans-serif" font-size="16.25" font-weight="bold" lengthAdjust="spacingAndGlyphs" textLength="113.75" x="496.875" y="1920.2478">System allows</text><ellipse cx="503.75" cy="1934.8828" fill="#000000" rx="3.125" ry="3.125" style="stroke: #000000; stroke-width: 0.0;"/><text fill="#000000" font-family="sans-serif" font-size="16.25" lengthAdjust="spacingAndGlyphs" textLength="88.75" x="513.125" y="1940.6873">create client</text><ellipse cx="503.75" cy="1955.3223" fill="#000000" rx="3.125" ry="3.125" style="stroke: #000000; stroke-width: 0.0;"/><text fill="#000000" font-family="sans-serif" font-size="16.25" lengthAdjust="spacingAndGlyphs" textLength="92.5" x="513.125" y="1961.1267">update client</text><ellipse cx="503.75" cy="1975.7617" fill="#000000" rx="3.125" ry="3.125" style="stroke: #000000; stroke-width: 0.0;"/><text fill="#000000" font-family="sans-serif" font-size="16.25" lengthAdjust="spacingAndGlyphs" textLength="75" x="513.125" y="1981.5662">read client</text><ellipse cx="503.75" cy="1996.2012" fill="#000000" rx="3.125" ry="3.125" style="stroke: #000000; stroke-width: 0.0;"/><text fill="#000000" font-family="sans-serif" font-size="16.25" lengthAdjust="spacingAndGlyphs" textLength="115" x="513.125" y="2002.0056">open dashboard</text><ellipse cx="503.75" cy="2016.6406" fill="#000000" rx="3.125" ry="3.125" style="stroke: #000000; stroke-width: 0.0;"/><text fill="#000000" font-family="sans-serif" font-size="16.25" lengthAdjust="spacingAndGlyphs" textLength="130" x="513.125" y="2022.4451">open interventions</text><ellipse cx="503.75" cy="2037.0801" fill="#000000" rx="3.125" ry="3.125" style="stroke: #000000; stroke-width: 0.0;"/><text fill="#000000" font-family="sans-serif" font-size="16.25" lengthAdjust="spacingAndGlyphs" textLength="97.5" x="513.125" y="2042.8845">open vehicles</text><ellipse cx="503.75" cy="2057.5195" fill="#000000" rx="3.125" ry="3.125" style="stroke: #000000; stroke-width: 0.0;"/><text fill="#000000" font-family="sans-serif" font-size="16.25" lengthAdjust="spacingAndGlyphs" textLength="115" x="513.125" y="2063.324">open operations</text><ellipse cx="503.75" cy="2077.959" fill="#000000" rx="3.125" ry="3.125" style="stroke: #000000; stroke-width: 0.0;"/><text fill="#000000" font-family="sans-serif" font-size="16.25" lengthAdjust="spacingAndGlyphs" textLength="43.75" x="513.125" y="2083.7634">logout</text><ellipse cx="503.75" cy="2098.3984" fill="#000000" rx="3.125" ry="3.125" style="stroke: #000000; stroke-width: 0.0;"/><text fill="#000000" font-family="sans-serif" font-size="16.25" lengthAdjust="spacingAndGlyphs" textLength="131.25" x="513.125" y="2104.2029">create intervention</text><!--MD5=[f0c589a614c2935fa4444237b4ec475c]
@startuml
skinparam {
    NoteBackgroundColor #whiteSmoke
}

state initState as ":OPENED_CLIENTS"
state OPENED_CLIENTS as ":OPENED_CLIENTS"
state openClients as ":openClients"


initState - -> createClient

state createClient {
state 1 as " "
state A0 as " "
state A1 as " "
state 2 as " "
state 4 as " "
state 6 as " "

[*]  -[#Green]-> 1
note on link
    <b>Mechanic requests to</b>
    * create Client
end note

1 -[#Green]-> 2
note on link
    <b>System requires</b>
    * full Name (mandatory)
    <b>System allows</b>
    * cancel
end note

2 - -> [*]
note on link
<b>mechanic requests to
* cancel
end note

2 -[#Green]-> 4
note on link
<b>Mechanic provides</b>
* Full name
end note

4 -[#Green]-> A0
note on link
<b>System requires</b>
* pending billable hours
<b>System allows</b>
* go back
* cancel
end note

A0 - -> 1
note on link
<b>Mechanic requests to</b>
* go back
end note


A0 - -> [*]
note on link
<b>Mechanic requests to</b>
* cancel
end note

A0 -[#Green]-> A1
note on link
<b>User provides</b>
* pending billable hours
end note

A1 -[#Green]-> 6
note on link
    <b>System shows</b>
    * new Client
    ** Full name
    ** pending billable hours
    <b>System allows</b>
    *confirm creation
    *cancel
    *go back
end note

6 -[#Green]-> [*]
note on link
<b>User requests to</b>
* confirm creation
end note
6 - -> 4
note on link
<b>User requests to</b>
* go back
end note

6 - -> [*]
note on link
<b>User requests to</b>
* cancel
end note
}

createClient - -> openClients

openClients - -> OPENED_CLIENTS
note on link
<b>System shows</b>
* all clients in system
<b>System allows</b>
* create client
* update client
* read client
* open dashboard
* open interventions
* open vehicles
* open operations
* logout
* create intervention
end note

@enduml

PlantUML version 1.2020.09(Sun May 10 12:51:06 CEST 2020)
(GPL source distribution)
Java Runtime: OpenJDK Runtime Environment
JVM: OpenJDK 64-Bit Server VM
Java Version: 11.0.6+8-b765.25
Operating System: Windows 10
Default Encoding: Cp1252
Language: en
Country: GB
--></g></svg>