<?xml version="1.0" encoding="UTF-8" standalone="no"?><svg xmlns="http://www.w3.org/2000/svg" xmlns:xlink="http://www.w3.org/1999/xlink" contentScriptType="application/ecmascript" contentStyleType="text/css" height="906.25px" preserveAspectRatio="none" style="width:391px;height:906px;" version="1.1" viewBox="0 0 391 906" width="391.25px" zoomAndPan="magnify"><defs><filter height="300%" id="f1ud0agzz3wls6" width="300%" x="-1" y="-1"><feGaussianBlur result="blurOut" stdDeviation="2.5"/><feColorMatrix in="blurOut" result="blurOut2" type="matrix" values="0 0 0 0 0 0 0 0 0 0 0 0 0 0 0 0 0 0 .4 0"/><feOffset dx="5.0" dy="5.0" in="blurOut2" result="blurOut3"/><feBlend in="SourceGraphic" in2="blurOut3" mode="normal"/></filter></defs><g><rect fill="#FEFECE" filter="url(#f1ud0agzz3wls6)" height="62.5" rx="15.625" ry="15.625" style="stroke: #A80036; stroke-width: 1.875;" width="218.75" x="7.5" y="10"/><line style="stroke: #A80036; stroke-width: 1.875;" x1="7.5" x2="226.25" y1="44.5117" y2="44.5117"/><text fill="#000000" font-family="sans-serif" font-size="17.5" lengthAdjust="spacingAndGlyphs" textLength="193.75" x="20" y="34.4165">:OPENED_DASHBOARD</text><rect fill="#FEFECE" filter="url(#f1ud0agzz3wls6)" height="62.5" rx="15.625" ry="15.625" style="stroke: #A80036; stroke-width: 1.875;" width="157.5" x="38.125" y="458.75"/><line style="stroke: #A80036; stroke-width: 1.875;" x1="38.125" x2="195.625" y1="493.2617" y2="493.2617"/><text fill="#000000" font-family="sans-serif" font-size="17.5" lengthAdjust="spacingAndGlyphs" textLength="132.5" x="50.625" y="483.1665">:openDashboard</text><rect fill="#FEFECE" filter="url(#f1ud0agzz3wls6)" height="62.5" rx="15.625" ry="15.625" style="stroke: #A80036; stroke-width: 1.875;" width="218.75" x="7.5" y="830"/><line style="stroke: #A80036; stroke-width: 1.875;" x1="7.5" x2="226.25" y1="864.5117" y2="864.5117"/><text fill="#000000" font-family="sans-serif" font-size="17.5" lengthAdjust="spacingAndGlyphs" textLength="193.75" x="20" y="854.4165">:OPENED_DASHBOARD</text><rect fill="#FEFECE" filter="url(#f1ud0agzz3wls6)" height="164.5117" rx="15.625" ry="15.625" style="stroke: #A80036; stroke-width: 1.875;" width="158.75" x="37.5" y="217.5"/><rect fill="#FFFFFF" height="122.5" rx="15.625" ry="15.625" style="stroke: #FFFFFF; stroke-width: 1.25;" width="151.25" x="41.25" y="255.7617"/><line style="stroke: #A80036; stroke-width: 1.875;" x1="37.5" x2="196.25" y1="252.0117" y2="252.0117"/><text fill="#000000" font-family="sans-serif" font-size="17.5" lengthAdjust="spacingAndGlyphs" textLength="133.75" x="50" y="241.9165">finishIntervention</text><ellipse cx="63.75" cy="280.7617" fill="#000000" filter="url(#f1ud0agzz3wls6)" rx="12.5" ry="12.5" style="stroke: none; stroke-width: 1.25;"/><ellipse cx="63.75" cy="350.7617" fill="none" filter="url(#f1ud0agzz3wls6)" rx="12.5" ry="12.5" style="stroke: #000000; stroke-width: 1.25;"/><ellipse cx="64.375" cy="351.3867" fill="#000000" rx="7.5" ry="7.5" style="stroke: none; stroke-width: 1.25;"/><!--MD5=[918700b07fcc9e0e6f666f8a2cae2898]
link *start*finishIntervention to *end*finishIntervention--><path d="M63.75,293.7693 C63.75,304.1258 63.75,319.3762 63.75,331.3086 " fill="none" id="*start*finishIntervention-&gt;*end*finishIntervention" style="stroke: #A80036; stroke-width: 1.25;"/><polygon fill="#A80036" points="63.75,337.8888,68.75,326.6388,63.75,331.6388,58.75,326.6388,63.75,337.8888" style="stroke: #A80036; stroke-width: 1.25;"/><!--MD5=[4e9abc9c6055861bb3db62a8a8e1ba06]
link initState to finishIntervention--><path d="M116.875,72.9013 C116.875,106.7775 116.875,163.0938 116.875,211.0138 " fill="none" id="initState-&gt;finishIntervention" style="stroke: #A80036; stroke-width: 1.25;"/><polygon fill="#A80036" points="116.875,217.415,121.875,206.165,116.875,211.165,111.875,206.165,116.875,217.415" style="stroke: #A80036; stroke-width: 1.25;"/><path d="M123.125,116.25 L123.125,168.75 L318.125,168.75 L318.125,128.75 L305.625,116.25 L123.125,116.25 " fill="#F5F5F5" filter="url(#f1ud0agzz3wls6)" style="stroke: #A80036; stroke-width: 1.25;"/><path d="M305.625,116.25 L305.625,128.75 L318.125,128.75 L305.625,116.25 " fill="#F5F5F5" style="stroke: #A80036; stroke-width: 1.25;"/><text fill="#000000" font-family="sans-serif" font-size="16.25" font-weight="bold" lengthAdjust="spacingAndGlyphs" textLength="168.75" x="130.625" y="139.3689">mechanic requests to</text><text fill="#000000" font-family="sans-serif" font-size="16.25" lengthAdjust="spacingAndGlyphs" textLength="123.75" x="135.625" y="159.8083">finish intervention</text><!--MD5=[d2795f49a750a43189bd190249d74c6b]
link finishIntervention to openDashboard--><path d="M116.875,382.945 C116.875,407.0613 116.875,432.26 116.875,452.0137 " fill="none" id="finishIntervention-&gt;openDashboard" style="stroke: #A80036; stroke-width: 1.25;"/><polygon fill="#A80036" points="116.875,458.495,121.875,447.245,116.875,452.245,111.875,447.245,116.875,458.495" style="stroke: #A80036; stroke-width: 1.25;"/><!--MD5=[bff4bdcc9e4386ec958e61a220e68862]
link openDashboard to OPENED_DASHBOARD--><path d="M116.875,521.4263 C116.875,588.715 116.875,750.83 116.875,823.5855 " fill="none" id="openDashboard-&gt;OPENED_DASHBOARD" style="stroke: #A80036; stroke-width: 1.25;"/><polygon fill="#A80036" points="116.875,829.9239,121.875,818.6739,116.875,823.6739,111.875,818.6739,116.875,829.9239" style="stroke: #A80036; stroke-width: 1.25;"/><path d="M123.125,565 L123.125,781.25 L376.875,781.25 L376.875,577.5 L364.375,565 L123.125,565 " fill="#F5F5F5" filter="url(#f1ud0agzz3wls6)" style="stroke: #A80036; stroke-width: 1.25;"/><path d="M364.375,565 L364.375,577.5 L376.875,577.5 L364.375,565 " fill="#F5F5F5" style="stroke: #A80036; stroke-width: 1.25;"/><text fill="#000000" font-family="sans-serif" font-size="16.25" font-weight="bold" lengthAdjust="spacingAndGlyphs" textLength="111.25" x="130.625" y="588.1189">System shows</text><ellipse cx="137.5" cy="602.7539" fill="#000000" rx="3.125" ry="3.125" style="stroke: #000000; stroke-width: 0.0;"/><text fill="#000000" font-family="sans-serif" font-size="16.25" lengthAdjust="spacingAndGlyphs" textLength="211.25" x="146.875" y="608.5583">mechanic active interventions</text><text fill="#000000" font-family="sans-serif" font-size="16.25" font-weight="bold" lengthAdjust="spacingAndGlyphs" textLength="113.75" x="130.625" y="628.9978">System allows</text><ellipse cx="137.5" cy="643.6328" fill="#000000" rx="3.125" ry="3.125" style="stroke: #000000; stroke-width: 0.0;"/><text fill="#000000" font-family="sans-serif" font-size="16.25" lengthAdjust="spacingAndGlyphs" textLength="97.5" x="146.875" y="649.4373">open vehicles</text><ellipse cx="137.5" cy="664.0723" fill="#000000" rx="3.125" ry="3.125" style="stroke: #000000; stroke-width: 0.0;"/><text fill="#000000" font-family="sans-serif" font-size="16.25" lengthAdjust="spacingAndGlyphs" textLength="130" x="146.875" y="669.8767">open interventions</text><ellipse cx="137.5" cy="684.5117" fill="#000000" rx="3.125" ry="3.125" style="stroke: #000000; stroke-width: 0.0;"/><text fill="#000000" font-family="sans-serif" font-size="16.25" lengthAdjust="spacingAndGlyphs" textLength="87.5" x="146.875" y="690.3162">open clients</text><ellipse cx="137.5" cy="704.9512" fill="#000000" rx="3.125" ry="3.125" style="stroke: #000000; stroke-width: 0.0;"/><text fill="#000000" font-family="sans-serif" font-size="16.25" lengthAdjust="spacingAndGlyphs" textLength="115" x="146.875" y="710.7556">open operations</text><ellipse cx="137.5" cy="725.3906" fill="#000000" rx="3.125" ry="3.125" style="stroke: #000000; stroke-width: 0.0;"/><text fill="#000000" font-family="sans-serif" font-size="16.25" lengthAdjust="spacingAndGlyphs" textLength="43.75" x="146.875" y="731.1951">logout</text><ellipse cx="137.5" cy="745.8301" fill="#000000" rx="3.125" ry="3.125" style="stroke: #000000; stroke-width: 0.0;"/><text fill="#000000" font-family="sans-serif" font-size="16.25" lengthAdjust="spacingAndGlyphs" textLength="131.25" x="146.875" y="751.6345">create intervention</text><ellipse cx="137.5" cy="766.2695" fill="#000000" rx="3.125" ry="3.125" style="stroke: #000000; stroke-width: 0.0;"/><text fill="#000000" font-family="sans-serif" font-size="16.25" lengthAdjust="spacingAndGlyphs" textLength="123.75" x="146.875" y="772.074">finish intervention</text><!--MD5=[25f6d342b05ee5ba6b78b69cffab3c93]
@startuml
skinparam {
    NoteBackgroundColor #whiteSmoke
}

state initState as ":OPENED_DASHBOARD"
state openDashboard as ":openDashboard"
state OPENED_DASHBOARD as ":OPENED_DASHBOARD"

initState - -> finishIntervention
note on link
    <b>mechanic requests to</b>
     finish intervention
end note

state finishIntervention{
    [*] - -> [*]
}

finishIntervention - -> openDashboard

openDashboard - -> OPENED_DASHBOARD
note on link
<b>System shows</b>
* mechanic active interventions
<b>System allows</b>
* open vehicles
* open interventions
* open clients
* open operations
* logout
* create intervention
* finish intervention
end note

@enduml

PlantUML version 1.2020.09(Sun May 10 12:51:06 CEST 2020)
(GPL source distribution)
Java Runtime: OpenJDK Runtime Environment
JVM: OpenJDK 64-Bit Server VM
Java Version: 11.0.6+8-b765.25
Operating System: Windows 10
Default Encoding: Cp1252
Language: en
Country: GB
--></g></svg>