<?xml version="1.0" encoding="UTF-8" standalone="no"?><svg xmlns="http://www.w3.org/2000/svg" xmlns:xlink="http://www.w3.org/1999/xlink" contentScriptType="application/ecmascript" contentStyleType="text/css" height="1558.75px" preserveAspectRatio="none" style="width:841px;height:1558px;" version="1.1" viewBox="0 0 841 1558" width="841.25px" zoomAndPan="magnify"><defs><filter height="300%" id="f1mortepg1oux9" width="300%" x="-1" y="-1"><feGaussianBlur result="blurOut" stdDeviation="2.5"/><feColorMatrix in="blurOut" result="blurOut2" type="matrix" values="0 0 0 0 0 0 0 0 0 0 0 0 0 0 0 0 0 0 .4 0"/><feOffset dx="5.0" dy="5.0" in="blurOut2" result="blurOut3"/><feBlend in="SourceGraphic" in2="blurOut3" mode="normal"/></filter></defs><g><rect fill="#FEFECE" filter="url(#f1mortepg1oux9)" height="62.5" rx="15.625" ry="15.625" style="stroke: #A80036; stroke-width: 1.875;" width="85" x="268.75" y="10"/><line style="stroke: #A80036; stroke-width: 1.875;" x1="268.75" x2="353.75" y1="44.5117" y2="44.5117"/><text fill="#000000" font-family="sans-serif" font-size="17.5" lengthAdjust="spacingAndGlyphs" textLength="60" x="281.25" y="34.4165">:INITIAL</text><rect fill="#FEFECE" filter="url(#f1mortepg1oux9)" height="62.5" rx="15.625" ry="15.625" style="stroke: #A80036; stroke-width: 1.875;" width="157.5" x="232.5" y="1111.25"/><line style="stroke: #A80036; stroke-width: 1.875;" x1="232.5" x2="390" y1="1145.7617" y2="1145.7617"/><text fill="#000000" font-family="sans-serif" font-size="17.5" lengthAdjust="spacingAndGlyphs" textLength="132.5" x="245" y="1135.6665">:openDashboard</text><rect fill="#FEFECE" filter="url(#f1mortepg1oux9)" height="62.5" rx="15.625" ry="15.625" style="stroke: #A80036; stroke-width: 1.875;" width="218.75" x="201.875" y="1482.5"/><line style="stroke: #A80036; stroke-width: 1.875;" x1="201.875" x2="420.625" y1="1517.0117" y2="1517.0117"/><text fill="#000000" font-family="sans-serif" font-size="17.5" lengthAdjust="spacingAndGlyphs" textLength="193.75" x="214.375" y="1506.9165">:OPENED_DASHBOARD</text><rect fill="#FEFECE" filter="url(#f1mortepg1oux9)" height="885.7617" rx="15.625" ry="15.625" style="stroke: #A80036; stroke-width: 1.875;" width="607.5" x="7.5" y="148.75"/><rect fill="#FFFFFF" height="843.75" rx="15.625" ry="15.625" style="stroke: #FFFFFF; stroke-width: 1.25;" width="600" x="11.25" y="187.0117"/><line style="stroke: #A80036; stroke-width: 1.875;" x1="7.5" x2="615" y1="183.2617" y2="183.2617"/><text fill="#000000" font-family="sans-serif" font-size="17.5" lengthAdjust="spacingAndGlyphs" textLength="37.5" x="292.5" y="173.1665">login</text><rect fill="#FEFECE" filter="url(#f1mortepg1oux9)" height="62.5" rx="15.625" ry="15.625" style="stroke: #A80036; stroke-width: 1.875;" width="62.5" x="111.25" y="339.5117"/><line style="stroke: #A80036; stroke-width: 1.875;" x1="111.25" x2="173.75" y1="374.0234" y2="374.0234"/><text fill="#000000" font-family="sans-serif" font-size="17.5" lengthAdjust="spacingAndGlyphs" textLength="0" x="145" y="363.9282"/><polygon fill="#FEFECE" filter="url(#f1mortepg1oux9)" points="150,737.0117,165,752.0117,150,767.0117,135,752.0117,150,737.0117" style="stroke: #A80036; stroke-width: 1.875;"/><rect fill="#FEFECE" filter="url(#f1mortepg1oux9)" height="62.5" rx="15.625" ry="15.625" style="stroke: #A80036; stroke-width: 1.875;" width="62.5" x="21.25" y="538.2617"/><line style="stroke: #A80036; stroke-width: 1.875;" x1="21.25" x2="83.75" y1="572.7734" y2="572.7734"/><text fill="#000000" font-family="sans-serif" font-size="17.5" lengthAdjust="spacingAndGlyphs" textLength="0" x="55" y="562.6782"/><rect fill="#FEFECE" filter="url(#f1mortepg1oux9)" height="62.5" rx="15.625" ry="15.625" style="stroke: #A80036; stroke-width: 1.875;" width="62.5" x="118.75" y="813.2617"/><line style="stroke: #A80036; stroke-width: 1.875;" x1="118.75" x2="181.25" y1="847.7734" y2="847.7734"/><text fill="#000000" font-family="sans-serif" font-size="17.5" lengthAdjust="spacingAndGlyphs" textLength="0" x="152.5" y="837.6782"/><ellipse cx="142.5" cy="212.0117" fill="#000000" filter="url(#f1mortepg1oux9)" rx="12.5" ry="12.5" style="stroke: none; stroke-width: 1.25;"/><ellipse cx="150" cy="1003.2617" fill="none" filter="url(#f1mortepg1oux9)" rx="12.5" ry="12.5" style="stroke: #000000; stroke-width: 1.25;"/><ellipse cx="150.625" cy="1003.8867" fill="#000000" rx="7.5" ry="7.5" style="stroke: none; stroke-width: 1.25;"/><!--MD5=[f237a19b6bd9a9487640db6364a35798]
link *start*login to 1--><path d="M142.5,225.0055 C142.5,247.5892 142.5,297.9155 142.5,332.7792 " fill="none" id="*start*login-&gt;1" style="stroke: #008000; stroke-width: 1.25;"/><polygon fill="#008000" points="142.5,339.098,147.5,327.848,142.5,332.848,137.5,327.848,142.5,339.098" style="stroke: #008000; stroke-width: 1.25;"/><path d="M148.75,253.2617 L148.75,305.7617 L301.25,305.7617 L301.25,265.7617 L288.75,253.2617 L148.75,253.2617 " fill="#F5F5F5" filter="url(#f1mortepg1oux9)" style="stroke: #008000; stroke-width: 1.25;"/><path d="M288.75,253.2617 L288.75,265.7617 L301.25,265.7617 L288.75,253.2617 " fill="#F5F5F5" style="stroke: #008000; stroke-width: 1.25;"/><text fill="#000000" font-family="sans-serif" font-size="16.25" font-weight="bold" lengthAdjust="spacingAndGlyphs" textLength="126.25" x="156.25" y="276.3806">User requests to</text><ellipse cx="163.125" cy="291.0156" fill="#000000" rx="3.125" ry="3.125" style="stroke: #000000; stroke-width: 0.0;"/><text fill="#000000" font-family="sans-serif" font-size="16.25" lengthAdjust="spacingAndGlyphs" textLength="33.75" x="172.5" y="296.8201">login</text><!--MD5=[0ba0d8a0fd0e641c23f69743a446dfe6]
link 1 to 2--><path d="M110.7935,380.5392 C89.1395,388.198 62.0504,401.8192 48.75,424.5117 C29.775,456.8855 34.3749,500.7992 41.4074,531.5405 " fill="none" id="1-&gt;2" style="stroke: #008000; stroke-width: 1.25;"/><polygon fill="#008000" points="42.9373,537.8917,45.1658,525.784,41.4747,531.8153,35.4435,528.1241,42.9373,537.8917" style="stroke: #008000; stroke-width: 1.25;"/><path d="M55,430.7617 L55,504.5117 L208.75,504.5117 L208.75,443.2617 L196.25,430.7617 L55,430.7617 " fill="#F5F5F5" filter="url(#f1mortepg1oux9)" style="stroke: #008000; stroke-width: 1.25;"/><path d="M196.25,430.7617 L196.25,443.2617 L208.75,443.2617 L196.25,430.7617 " fill="#F5F5F5" style="stroke: #008000; stroke-width: 1.25;"/><text fill="#000000" font-family="sans-serif" font-size="16.25" font-weight="bold" lengthAdjust="spacingAndGlyphs" textLength="127.5" x="62.5" y="453.8806">System requires</text><ellipse cx="69.375" cy="468.5156" fill="#000000" rx="3.125" ry="3.125" style="stroke: #000000; stroke-width: 0.0;"/><text fill="#000000" font-family="sans-serif" font-size="16.25" lengthAdjust="spacingAndGlyphs" textLength="71.25" x="78.75" y="474.3201">username</text><ellipse cx="69.375" cy="488.9551" fill="#000000" rx="3.125" ry="3.125" style="stroke: #000000; stroke-width: 0.0;"/><text fill="#000000" font-family="sans-serif" font-size="16.25" lengthAdjust="spacingAndGlyphs" textLength="68.75" x="78.75" y="494.7595">password</text><!--MD5=[d3e38fbb296df062c1834f01c213fc36]
link 2 to condicional--><path d="M47.8023,600.813 C44.5939,632.2317 44.57,681.4767 68.75,714.5117 C83.5381,734.7155 112.1735,743.8667 131.1919,747.863 " fill="none" id="2-&gt;condicional" style="stroke: #008000; stroke-width: 1.25;"/><polygon fill="#008000" points="137.72,749.1117,127.6112,742.085,131.5815,747.9362,125.7304,751.9065,137.72,749.1117" style="stroke: #008000; stroke-width: 1.25;"/><path d="M75,629.5117 L75,703.2617 L208.75,703.2617 L208.75,642.0117 L196.25,629.5117 L75,629.5117 " fill="#F5F5F5" filter="url(#f1mortepg1oux9)" style="stroke: #008000; stroke-width: 1.25;"/><path d="M196.25,629.5117 L196.25,642.0117 L208.75,642.0117 L196.25,629.5117 " fill="#F5F5F5" style="stroke: #008000; stroke-width: 1.25;"/><text fill="#000000" font-family="sans-serif" font-size="16.25" font-weight="bold" lengthAdjust="spacingAndGlyphs" textLength="107.5" x="82.5" y="652.6306">User provides</text><ellipse cx="89.375" cy="667.2656" fill="#000000" rx="3.125" ry="3.125" style="stroke: #000000; stroke-width: 0.0;"/><text fill="#000000" font-family="sans-serif" font-size="16.25" lengthAdjust="spacingAndGlyphs" textLength="71.25" x="98.75" y="673.0701">username</text><ellipse cx="89.375" cy="687.7051" fill="#000000" rx="3.125" ry="3.125" style="stroke: #000000; stroke-width: 0.0;"/><text fill="#000000" font-family="sans-serif" font-size="16.25" lengthAdjust="spacingAndGlyphs" textLength="68.75" x="98.75" y="693.5095">password</text><!--MD5=[b263b4bc8153c55c17d1d0668efd7e91]
link condicional to 1--><path d="M162.01,748.513 C178.4438,744.7192 207.34,735.3242 220,714.5117 C286.9813,604.3942 280.3963,538.3742 220,424.5117 C211.3188,408.1455 195,395.9442 179.5688,387.4442 " fill="none" id="condicional-&gt;1" style="stroke: #A80036; stroke-width: 1.25;"/><polygon fill="#A80036" points="173.9388,384.4792,181.5616,394.1464,179.4684,387.3923,186.2225,385.299,173.9388,384.4792" style="stroke: #A80036; stroke-width: 1.25;"/><path d="M273.75,550.7617 L273.75,583.2617 L562.5,583.2617 L562.5,563.2617 L550,550.7617 L273.75,550.7617 " fill="#F5F5F5" filter="url(#f1mortepg1oux9)" style="stroke: #A80036; stroke-width: 1.25;"/><path d="M550,550.7617 L550,563.2617 L562.5,563.2617 L550,550.7617 " fill="#F5F5F5" style="stroke: #A80036; stroke-width: 1.25;"/><text fill="#000000" font-family="sans-serif" font-size="16.25" lengthAdjust="spacingAndGlyphs" textLength="262.5" x="281.25" y="573.8806">[pair username password not exists]</text><!--MD5=[532f29b048f0052b3b6afb32231f1311]
link condicional to 3--><path d="M150,767.3242 C150,777.8705 150,792.8117 150,806.6542 " fill="none" id="condicional-&gt;3" style="stroke: #008000; stroke-width: 1.25;"/><polygon fill="#008000" points="150,812.9167,155,801.6667,150,806.6667,145,801.6667,150,812.9167" style="stroke: #008000; stroke-width: 1.25;"/><!--MD5=[0e8909393f578fe685ebd8c2e76ee130]
link 3 to *end*login--><path d="M150,875.888 C150,907.9622 150,957.6585 150,984.0748 " fill="none" id="3-&gt;*end*login" style="stroke: #008000; stroke-width: 1.25;"/><polygon fill="#008000" points="150,990.5697,155,979.3197,150,984.3197,145,979.3197,150,990.5697" style="stroke: #008000; stroke-width: 1.25;"/><path d="M156.25,904.5117 L156.25,957.0117 L320,957.0117 L320,917.0117 L307.5,904.5117 L156.25,904.5117 " fill="#F5F5F5" filter="url(#f1mortepg1oux9)" style="stroke: #008000; stroke-width: 1.25;"/><path d="M307.5,904.5117 L307.5,917.0117 L320,917.0117 L307.5,904.5117 " fill="#F5F5F5" style="stroke: #008000; stroke-width: 1.25;"/><text fill="#000000" font-family="sans-serif" font-size="16.25" font-weight="bold" lengthAdjust="spacingAndGlyphs" textLength="111.25" x="163.75" y="927.6306">System shows</text><ellipse cx="170.625" cy="942.2656" fill="#000000" rx="3.125" ry="3.125" style="stroke: #000000; stroke-width: 0.0;"/><text fill="#000000" font-family="sans-serif" font-size="16.25" lengthAdjust="spacingAndGlyphs" textLength="121.25" x="180" y="948.0701">Login successful</text><!--MD5=[3ff027586ae0f3e062b8762719d196cc]
link initstate to login--><path d="M311.25,72.75 C311.25,90.0625 311.25,113.925 311.25,141.9625 " fill="none" id="initstate-&gt;login" style="stroke: #A80036; stroke-width: 1.25;"/><polygon fill="#A80036" points="311.25,148.4,316.25,137.15,311.25,142.15,306.25,137.15,311.25,148.4" style="stroke: #A80036; stroke-width: 1.25;"/><!--MD5=[4161a5ef67aeea07140acceacaaf80c8]
link login to openDashboard--><path d="M311.25,1035.2413 C311.25,1062.8563 311.25,1086.7638 311.25,1104.8488 " fill="none" id="login-&gt;openDashboard" style="stroke: #A80036; stroke-width: 1.25;"/><polygon fill="#A80036" points="311.25,1111.2438,316.25,1099.9938,311.25,1104.9938,306.25,1099.9938,311.25,1111.2438" style="stroke: #A80036; stroke-width: 1.25;"/><!--MD5=[23666a044ee9353181bc2d90c8f3e094]
link openDashboard to endstate--><path d="M311.25,1173.9263 C311.25,1241.215 311.25,1403.33 311.25,1476.0855 " fill="none" id="openDashboard-&gt;endstate" style="stroke: #A80036; stroke-width: 1.25;"/><polygon fill="#A80036" points="311.25,1482.4239,316.25,1471.1739,311.25,1476.1739,306.25,1471.1739,311.25,1482.4239" style="stroke: #A80036; stroke-width: 1.25;"/><path d="M317.5,1217.5 L317.5,1433.75 L826.25,1433.75 L826.25,1230 L813.75,1217.5 L317.5,1217.5 " fill="#F5F5F5" filter="url(#f1mortepg1oux9)" style="stroke: #A80036; stroke-width: 1.25;"/><path d="M813.75,1217.5 L813.75,1230 L826.25,1230 L813.75,1217.5 " fill="#F5F5F5" style="stroke: #A80036; stroke-width: 1.25;"/><text fill="#000000" font-family="sans-serif" font-size="16.25" font-weight="bold" lengthAdjust="spacingAndGlyphs" textLength="111.25" x="325" y="1240.6189">System shows</text><ellipse cx="331.875" cy="1255.2539" fill="#000000" rx="3.125" ry="3.125" style="stroke: #000000; stroke-width: 0.0;"/><text fill="#000000" font-family="sans-serif" font-size="16.25" lengthAdjust="spacingAndGlyphs" textLength="466.25" x="341.25" y="1261.0583">mechanic avtive interventions [mechanic has active interventions]</text><text fill="#000000" font-family="sans-serif" font-size="16.25" font-weight="bold" lengthAdjust="spacingAndGlyphs" textLength="113.75" x="325" y="1281.4978">System allows</text><ellipse cx="331.875" cy="1296.1328" fill="#000000" rx="3.125" ry="3.125" style="stroke: #000000; stroke-width: 0.0;"/><text fill="#000000" font-family="sans-serif" font-size="16.25" lengthAdjust="spacingAndGlyphs" textLength="97.5" x="341.25" y="1301.9373">open vehicles</text><ellipse cx="331.875" cy="1316.5723" fill="#000000" rx="3.125" ry="3.125" style="stroke: #000000; stroke-width: 0.0;"/><text fill="#000000" font-family="sans-serif" font-size="16.25" lengthAdjust="spacingAndGlyphs" textLength="130" x="341.25" y="1322.3767">open interventions</text><ellipse cx="331.875" cy="1337.0117" fill="#000000" rx="3.125" ry="3.125" style="stroke: #000000; stroke-width: 0.0;"/><text fill="#000000" font-family="sans-serif" font-size="16.25" lengthAdjust="spacingAndGlyphs" textLength="87.5" x="341.25" y="1342.8162">open clients</text><ellipse cx="331.875" cy="1357.4512" fill="#000000" rx="3.125" ry="3.125" style="stroke: #000000; stroke-width: 0.0;"/><text fill="#000000" font-family="sans-serif" font-size="16.25" lengthAdjust="spacingAndGlyphs" textLength="115" x="341.25" y="1363.2556">open operations</text><ellipse cx="331.875" cy="1377.8906" fill="#000000" rx="3.125" ry="3.125" style="stroke: #000000; stroke-width: 0.0;"/><text fill="#000000" font-family="sans-serif" font-size="16.25" lengthAdjust="spacingAndGlyphs" textLength="131.25" x="341.25" y="1383.6951">create intervention</text><ellipse cx="331.875" cy="1398.3301" fill="#000000" rx="3.125" ry="3.125" style="stroke: #000000; stroke-width: 0.0;"/><text fill="#000000" font-family="sans-serif" font-size="16.25" lengthAdjust="spacingAndGlyphs" textLength="381.25" x="341.25" y="1404.1345">finish intervention [mechanic has active interventions]</text><ellipse cx="331.875" cy="1418.7695" fill="#000000" rx="3.125" ry="3.125" style="stroke: #000000; stroke-width: 0.0;"/><text fill="#000000" font-family="sans-serif" font-size="16.25" lengthAdjust="spacingAndGlyphs" textLength="43.75" x="341.25" y="1424.574">logout</text><!--MD5=[b7094b17e9c5b50d753157fda3d0dccc]
@startuml
    skinparam {
        NoteBackgroundColor #whiteSmoke
    }

state initstate as ":INITIAL"
state login
state openDashboard as ":openDashboard"
state endstate as ":OPENED_DASHBOARD"

initstate - -> login

state login {

state 1 as " "
state condicional <<choice>>
state 2 as " "
state 3 as " "

[*] -[#Green]-> 1
note on link
<b>User requests to</b>
* login
end note

1 -[#Green]-> 2
note on link
<b>System requires</b>
* username
* password
end note

2 -[#Green]-> condicional
note on link
<b>User provides</b>
* username
* password
end note

condicional - -> 1
note on link
[pair username password not exists]
end note

condicional -[#Green]-> 3

3 -[#Green]-> [*]
note on link
<b>System shows</b>
* Login successful
end note
}

login - -> openDashboard

openDashboard - -> endstate
note on link
<b>System shows</b>
* mechanic avtive interventions [mechanic has active interventions]
<b>System allows</b>
* open vehicles
* open interventions
* open clients
* open operations
* create intervention
* finish intervention [mechanic has active interventions]
* logout
end note

@enduml

PlantUML version 1.2020.09(Sun May 10 12:51:06 CEST 2020)
(GPL source distribution)
Java Runtime: OpenJDK Runtime Environment
JVM: OpenJDK 64-Bit Server VM
Java Version: 11.0.6+8-b765.25
Operating System: Windows 10
Default Encoding: Cp1252
Language: en
Country: GB
--></g></svg>