<?xml version="1.0" encoding="UTF-8" standalone="no"?><svg xmlns="http://www.w3.org/2000/svg" xmlns:xlink="http://www.w3.org/1999/xlink" contentScriptType="application/ecmascript" contentStyleType="text/css" height="748.75px" preserveAspectRatio="none" style="width:706px;height:748px;" version="1.1" viewBox="0 0 706 748" width="706.25px" zoomAndPan="magnify"><defs><filter height="300%" id="f1x6ybj85kouej" width="300%" x="-1" y="-1"><feGaussianBlur result="blurOut" stdDeviation="2.5"/><feColorMatrix in="blurOut" result="blurOut2" type="matrix" values="0 0 0 0 0 0 0 0 0 0 0 0 0 0 0 0 0 0 .4 0"/><feOffset dx="5.0" dy="5.0" in="blurOut2" result="blurOut3"/><feBlend in="SourceGraphic" in2="blurOut3" mode="normal"/></filter></defs><g><rect fill="#FEFECE" filter="url(#f1x6ybj85kouej)" height="62.5" rx="15.625" ry="15.625" style="stroke: #A80036; stroke-width: 1.875;" width="193.75" x="7.5" y="10"/><line style="stroke: #A80036; stroke-width: 1.875;" x1="7.5" x2="201.25" y1="44.5117" y2="44.5117"/><text fill="#000000" font-family="sans-serif" font-size="17.5" lengthAdjust="spacingAndGlyphs" textLength="168.75" x="20" y="34.4165">:OPENED_VEHICLES</text><rect fill="#FEFECE" filter="url(#f1x6ybj85kouej)" height="62.5" rx="15.625" ry="15.625" style="stroke: #A80036; stroke-width: 1.875;" width="182.5" x="245.625" y="10"/><line style="stroke: #A80036; stroke-width: 1.875;" x1="245.625" x2="428.125" y1="44.5117" y2="44.5117"/><text fill="#000000" font-family="sans-serif" font-size="17.5" lengthAdjust="spacingAndGlyphs" textLength="157.5" x="258.125" y="34.4165">:OPENED_CLIENTS</text><rect fill="#FEFECE" filter="url(#f1x6ybj85kouej)" height="62.5" rx="15.625" ry="15.625" style="stroke: #A80036; stroke-width: 1.875;" width="218.75" x="472.5" y="10"/><line style="stroke: #A80036; stroke-width: 1.875;" x1="472.5" x2="691.25" y1="44.5117" y2="44.5117"/><text fill="#000000" font-family="sans-serif" font-size="17.5" lengthAdjust="spacingAndGlyphs" textLength="193.75" x="485" y="34.4165">:OPENED_DASHBOARD</text><rect fill="#FEFECE" filter="url(#f1x6ybj85kouej)" height="62.5" rx="15.625" ry="15.625" style="stroke: #A80036; stroke-width: 1.875;" width="246.25" x="213.75" y="672.5"/><line style="stroke: #A80036; stroke-width: 1.875;" x1="213.75" x2="460" y1="707.0117" y2="707.0117"/><text fill="#000000" font-family="sans-serif" font-size="17.5" lengthAdjust="spacingAndGlyphs" textLength="221.25" x="226.25" y="696.9165">:OPENED_INTERVENTIONS</text><rect fill="#FEFECE" filter="url(#f1x6ybj85kouej)" height="234.5117" rx="15.625" ry="15.625" style="stroke: #A80036; stroke-width: 1.875;" width="252.5" x="210.625" y="148.75"/><rect fill="#FFFFFF" height="192.5" rx="15.625" ry="15.625" style="stroke: #FFFFFF; stroke-width: 1.25;" width="245" x="214.375" y="187.0117"/><line style="stroke: #A80036; stroke-width: 1.875;" x1="210.625" x2="463.125" y1="183.2617" y2="183.2617"/><text fill="#000000" font-family="sans-serif" font-size="17.5" lengthAdjust="spacingAndGlyphs" textLength="141.25" x="266.25" y="173.1665">openInterventions</text><ellipse cx="236.875" cy="212.0117" fill="#000000" filter="url(#f1x6ybj85kouej)" rx="12.5" ry="12.5" style="stroke: none; stroke-width: 1.25;"/><ellipse cx="236.875" cy="352.0117" fill="none" filter="url(#f1x6ybj85kouej)" rx="12.5" ry="12.5" style="stroke: #000000; stroke-width: 1.25;"/><ellipse cx="237.5" cy="352.6367" fill="#000000" rx="7.5" ry="7.5" style="stroke: none; stroke-width: 1.25;"/><!--MD5=[b4147c47bb54a8809d0bc03d229ca741]
link *start*openInterventions to *end*openInterventions--><path d="M236.875,224.5142 C236.875,248.3841 236.875,304.2567 236.875,332.9957 " fill="none" id="*start*openInterventions-&gt;*end*openInterventions" style="stroke: #A80036; stroke-width: 1.25;"/><polygon fill="#A80036" points="236.875,339.3541,241.875,328.1041,236.875,333.1041,231.875,328.1041,236.875,339.3541" style="stroke: #A80036; stroke-width: 1.25;"/><path d="M243.125,253.2617 L243.125,305.7617 L410.625,305.7617 L410.625,265.7617 L398.125,253.2617 L243.125,253.2617 " fill="#F5F5F5" filter="url(#f1x6ybj85kouej)" style="stroke: #A80036; stroke-width: 1.25;"/><path d="M398.125,253.2617 L398.125,265.7617 L410.625,265.7617 L398.125,253.2617 " fill="#F5F5F5" style="stroke: #A80036; stroke-width: 1.25;"/><text fill="#000000" font-family="sans-serif" font-size="16.25" font-weight="bold" lengthAdjust="spacingAndGlyphs" textLength="126.25" x="250.625" y="276.3806">User requests to</text><ellipse cx="257.5" cy="291.0156" fill="#000000" rx="3.125" ry="3.125" style="stroke: #000000; stroke-width: 0.0;"/><text fill="#000000" font-family="sans-serif" font-size="16.25" lengthAdjust="spacingAndGlyphs" textLength="125" x="266.875" y="296.8201">openInterventions</text><!--MD5=[f4322564c9aecf187446de50a71a15ed]
link startState1 to openInterventions--><path d="M135.7313,72.5075 C155.5325,91.4575 182.5613,117.3237 210.3775,143.9437 " fill="none" id="startState1-&gt;openInterventions" style="stroke: #A80036; stroke-width: 1.25;"/><polygon fill="#A80036" points="215.2125,148.57,210.5434,137.1787,210.6977,144.2481,203.6283,144.4024,215.2125,148.57" style="stroke: #A80036; stroke-width: 1.25;"/><!--MD5=[6f817bb6f5f8a429ae84c360689de284]
link startState2 to openInterventions--><path d="M336.875,72.5075 C336.875,91.0662 336.875,116.2575 336.875,142.295 " fill="none" id="startState2-&gt;openInterventions" style="stroke: #A80036; stroke-width: 1.25;"/><polygon fill="#A80036" points="336.875,148.57,341.875,137.32,336.875,142.32,331.875,137.32,336.875,148.57" style="stroke: #A80036; stroke-width: 1.25;"/><!--MD5=[8b6676e31ba4f4461ed5812b9ae79c47]
link startState3 to openInterventions--><path d="M548.8338,72.5075 C527.5088,91.8738 498.2313,118.4625 468.2413,145.6975 " fill="none" id="startState3-&gt;openInterventions" style="stroke: #A80036; stroke-width: 1.25;"/><polygon fill="#A80036" points="463.4225,150.0738,475.1122,146.2119,468.0493,145.8719,468.3893,138.8091,463.4225,150.0738" style="stroke: #A80036; stroke-width: 1.25;"/><!--MD5=[2e5b22bde69a909a217e141ea7b57b47]
link openInterventions to endState--><path d="M336.875,384.0725 C336.875,478.0425 336.875,604.3088 336.875,665.7861 " fill="none" id="openInterventions-&gt;endState" style="stroke: #A80036; stroke-width: 1.25;"/><polygon fill="#A80036" points="336.875,672.2435,341.875,660.9935,336.875,665.9935,331.875,660.9935,336.875,672.2435" style="stroke: #A80036; stroke-width: 1.25;"/><path d="M343.125,427.5 L343.125,623.75 L516.875,623.75 L516.875,440 L504.375,427.5 L343.125,427.5 " fill="#F5F5F5" filter="url(#f1x6ybj85kouej)" style="stroke: #A80036; stroke-width: 1.25;"/><path d="M504.375,427.5 L504.375,440 L516.875,440 L504.375,427.5 " fill="#F5F5F5" style="stroke: #A80036; stroke-width: 1.25;"/><text fill="#000000" font-family="sans-serif" font-size="16.25" font-weight="bold" lengthAdjust="spacingAndGlyphs" textLength="111.25" x="350.625" y="450.6189">System shows</text><ellipse cx="357.5" cy="465.2539" fill="#000000" rx="3.125" ry="3.125" style="stroke: #000000; stroke-width: 0.0;"/><text fill="#000000" font-family="sans-serif" font-size="16.25" lengthAdjust="spacingAndGlyphs" textLength="111.25" x="366.875" y="471.0583">all interventions</text><text fill="#000000" font-family="sans-serif" font-size="16.25" font-weight="bold" lengthAdjust="spacingAndGlyphs" textLength="113.75" x="350.625" y="491.4978">System allows</text><ellipse cx="357.5" cy="506.1328" fill="#000000" rx="3.125" ry="3.125" style="stroke: #000000; stroke-width: 0.0;"/><text fill="#000000" font-family="sans-serif" font-size="16.25" lengthAdjust="spacingAndGlyphs" textLength="115" x="366.875" y="511.9373">open dashboard</text><ellipse cx="357.5" cy="526.5723" fill="#000000" rx="3.125" ry="3.125" style="stroke: #000000; stroke-width: 0.0;"/><text fill="#000000" font-family="sans-serif" font-size="16.25" lengthAdjust="spacingAndGlyphs" textLength="87.5" x="366.875" y="532.3767">open clients</text><ellipse cx="357.5" cy="547.0117" fill="#000000" rx="3.125" ry="3.125" style="stroke: #000000; stroke-width: 0.0;"/><text fill="#000000" font-family="sans-serif" font-size="16.25" lengthAdjust="spacingAndGlyphs" textLength="97.5" x="366.875" y="552.8162">open vehicles</text><ellipse cx="357.5" cy="567.4512" fill="#000000" rx="3.125" ry="3.125" style="stroke: #000000; stroke-width: 0.0;"/><text fill="#000000" font-family="sans-serif" font-size="16.25" lengthAdjust="spacingAndGlyphs" textLength="115" x="366.875" y="573.2556">open operations</text><ellipse cx="357.5" cy="587.8906" fill="#000000" rx="3.125" ry="3.125" style="stroke: #000000; stroke-width: 0.0;"/><text fill="#000000" font-family="sans-serif" font-size="16.25" lengthAdjust="spacingAndGlyphs" textLength="43.75" x="366.875" y="593.6951">logout</text><ellipse cx="357.5" cy="608.3301" fill="#000000" rx="3.125" ry="3.125" style="stroke: #000000; stroke-width: 0.0;"/><text fill="#000000" font-family="sans-serif" font-size="16.25" lengthAdjust="spacingAndGlyphs" textLength="131.25" x="366.875" y="614.1345">create intervention</text><!--MD5=[d070a6fae74b8b4758a9079a3677bcd8]
@startuml
skinparam {
        NoteBackgroundColor #whiteSmoke
}

state startState1 as ":OPENED_VEHICLES"
state startState2 as ":OPENED_CLIENTS"
state startState3 as ":OPENED_DASHBOARD"
state endState as ":OPENED_INTERVENTIONS"

startState1 - -> openInterventions
startState2 - -> openInterventions
startState3 - -> openInterventions

state openInterventions {
    [*] - -> [*]
    note on link
    <b>User requests to</b>
    * openInterventions
    end note

}

openInterventions - -> endState
note on link
<b>System shows
* all interventions
<b>System allows
* open dashboard
* open clients
* open vehicles
* open operations
* logout
* create intervention
end note

@enduml

PlantUML version 1.2020.09(Sun May 10 12:51:06 CEST 2020)
(GPL source distribution)
Java Runtime: OpenJDK Runtime Environment
JVM: OpenJDK 64-Bit Server VM
Java Version: 11.0.6+8-b765.25
Operating System: Windows 10
Default Encoding: Cp1252
Language: en
Country: GB
--></g></svg>