<?xml version="1.0" encoding="UTF-8" standalone="no"?><svg xmlns="http://www.w3.org/2000/svg" xmlns:xlink="http://www.w3.org/1999/xlink" contentScriptType="application/ecmascript" contentStyleType="text/css" height="767.5px" preserveAspectRatio="none" style="width:322px;height:767px;" version="1.1" viewBox="0 0 322 767" width="322.5px" zoomAndPan="magnify"><defs><filter height="300%" id="fczf4oyykz4tn" width="300%" x="-1" y="-1"><feGaussianBlur result="blurOut" stdDeviation="2.5"/><feColorMatrix in="blurOut" result="blurOut2" type="matrix" values="0 0 0 0 0 0 0 0 0 0 0 0 0 0 0 0 0 0 .4 0"/><feOffset dx="5.0" dy="5.0" in="blurOut2" result="blurOut3"/><feBlend in="SourceGraphic" in2="blurOut3" mode="normal"/></filter></defs><g><rect fill="#FEFECE" filter="url(#fczf4oyykz4tn)" height="62.5" rx="15.625" ry="15.625" style="stroke: #A80036; stroke-width: 1.875;" width="193.75" x="7.5" y="10"/><line style="stroke: #A80036; stroke-width: 1.875;" x1="7.5" x2="201.25" y1="44.5117" y2="44.5117"/><text fill="#000000" font-family="sans-serif" font-size="17.5" lengthAdjust="spacingAndGlyphs" textLength="168.75" x="20" y="34.4165">:OPENED_VEHICLES</text><rect fill="#FEFECE" filter="url(#fczf4oyykz4tn)" height="62.5" rx="15.625" ry="15.625" style="stroke: #A80036; stroke-width: 1.875;" width="182.5" x="13.125" y="691.25"/><line style="stroke: #A80036; stroke-width: 1.875;" x1="13.125" x2="195.625" y1="725.7617" y2="725.7617"/><text fill="#000000" font-family="sans-serif" font-size="17.5" lengthAdjust="spacingAndGlyphs" textLength="157.5" x="25.625" y="715.6665">:OPENED_VEHICLE</text><rect fill="#FEFECE" filter="url(#fczf4oyykz4tn)" height="164.5117" rx="15.625" ry="15.625" style="stroke: #A80036; stroke-width: 1.875;" width="131.25" x="38.75" y="217.5"/><rect fill="#FFFFFF" height="122.5" rx="15.625" ry="15.625" style="stroke: #FFFFFF; stroke-width: 1.25;" width="123.75" x="42.5" y="255.7617"/><line style="stroke: #A80036; stroke-width: 1.875;" x1="38.75" x2="170" y1="252.0117" y2="252.0117"/><text fill="#000000" font-family="sans-serif" font-size="17.5" lengthAdjust="spacingAndGlyphs" textLength="106.25" x="51.25" y="241.9165">openVehicles</text><ellipse cx="65" cy="280.7617" fill="#000000" filter="url(#fczf4oyykz4tn)" rx="12.5" ry="12.5" style="stroke: none; stroke-width: 1.25;"/><ellipse cx="65" cy="350.7617" fill="none" filter="url(#fczf4oyykz4tn)" rx="12.5" ry="12.5" style="stroke: #000000; stroke-width: 1.25;"/><ellipse cx="65.625" cy="351.3867" fill="#000000" rx="7.5" ry="7.5" style="stroke: none; stroke-width: 1.25;"/><!--MD5=[9c73b8505b886ec60e3e4e021e6ded2e]
link *start*openVehicles to *end*openVehicles--><path d="M65,293.7693 C65,304.1258 65,319.3762 65,331.3086 " fill="none" id="*start*openVehicles-&gt;*end*openVehicles" style="stroke: #A80036; stroke-width: 1.25;"/><polygon fill="#A80036" points="65,337.8888,70,326.6388,65,331.6388,60,326.6388,65,337.8888" style="stroke: #A80036; stroke-width: 1.25;"/><!--MD5=[fdefe930c71f9c2ecf1f2665f03bf804]
link startState to openVehicles--><path d="M104.375,72.9013 C104.375,106.7775 104.375,163.0938 104.375,211.0137 " fill="none" id="startState-&gt;openVehicles" style="stroke: #A80036; stroke-width: 1.25;"/><polygon fill="#A80036" points="104.375,217.415,109.375,206.165,104.375,211.165,99.375,206.165,104.375,217.415" style="stroke: #A80036; stroke-width: 1.25;"/><path d="M110.625,116.25 L110.625,168.75 L263.125,168.75 L263.125,128.75 L250.625,116.25 L110.625,116.25 " fill="#F5F5F5" filter="url(#fczf4oyykz4tn)" style="stroke: #A80036; stroke-width: 1.25;"/><path d="M250.625,116.25 L250.625,128.75 L263.125,128.75 L250.625,116.25 " fill="#F5F5F5" style="stroke: #A80036; stroke-width: 1.25;"/><text fill="#000000" font-family="sans-serif" font-size="16.25" font-weight="bold" lengthAdjust="spacingAndGlyphs" textLength="126.25" x="118.125" y="139.3689">User requests to</text><ellipse cx="125" cy="154.0039" fill="#000000" rx="3.125" ry="3.125" style="stroke: #000000; stroke-width: 0.0;"/><text fill="#000000" font-family="sans-serif" font-size="16.25" lengthAdjust="spacingAndGlyphs" textLength="97.5" x="134.375" y="159.8083">openVehicles</text><!--MD5=[950ef6eb268c9e44be7d558b3808cdf5]
link openVehicles to endState--><path d="M104.375,382.7288 C104.375,473.8275 104.375,617.3575 104.375,684.4243 " fill="none" id="openVehicles-&gt;endState" style="stroke: #A80036; stroke-width: 1.25;"/><polygon fill="#A80036" points="104.375,691.0585,109.375,679.8085,104.375,684.8085,99.375,679.8085,104.375,691.0585" style="stroke: #A80036; stroke-width: 1.25;"/><path d="M110.625,426.25 L110.625,642.5 L308.125,642.5 L308.125,438.75 L295.625,426.25 L110.625,426.25 " fill="#F5F5F5" filter="url(#fczf4oyykz4tn)" style="stroke: #A80036; stroke-width: 1.25;"/><path d="M295.625,426.25 L295.625,438.75 L308.125,438.75 L295.625,426.25 " fill="#F5F5F5" style="stroke: #A80036; stroke-width: 1.25;"/><text fill="#000000" font-family="sans-serif" font-size="16.25" font-weight="bold" lengthAdjust="spacingAndGlyphs" textLength="111.25" x="118.125" y="449.3689">System shows</text><ellipse cx="125" cy="464.0039" fill="#000000" rx="3.125" ry="3.125" style="stroke: #000000; stroke-width: 0.0;"/><text fill="#000000" font-family="sans-serif" font-size="16.25" lengthAdjust="spacingAndGlyphs" textLength="155" x="134.375" y="469.8083">all vehicles in system</text><text fill="#000000" font-family="sans-serif" font-size="16.25" font-weight="bold" lengthAdjust="spacingAndGlyphs" textLength="113.75" x="118.125" y="490.2478">System allows</text><ellipse cx="125" cy="504.8828" fill="#000000" rx="3.125" ry="3.125" style="stroke: #000000; stroke-width: 0.0;"/><text fill="#000000" font-family="sans-serif" font-size="16.25" lengthAdjust="spacingAndGlyphs" textLength="97.5" x="134.375" y="510.6873">open vehicles</text><ellipse cx="125" cy="525.3223" fill="#000000" rx="3.125" ry="3.125" style="stroke: #000000; stroke-width: 0.0;"/><text fill="#000000" font-family="sans-serif" font-size="16.25" lengthAdjust="spacingAndGlyphs" textLength="130" x="134.375" y="531.1267">open interventions</text><ellipse cx="125" cy="545.7617" fill="#000000" rx="3.125" ry="3.125" style="stroke: #000000; stroke-width: 0.0;"/><text fill="#000000" font-family="sans-serif" font-size="16.25" lengthAdjust="spacingAndGlyphs" textLength="87.5" x="134.375" y="551.5662">open clients</text><ellipse cx="125" cy="566.2012" fill="#000000" rx="3.125" ry="3.125" style="stroke: #000000; stroke-width: 0.0;"/><text fill="#000000" font-family="sans-serif" font-size="16.25" lengthAdjust="spacingAndGlyphs" textLength="115" x="134.375" y="572.0056">open operations</text><ellipse cx="125" cy="586.6406" fill="#000000" rx="3.125" ry="3.125" style="stroke: #000000; stroke-width: 0.0;"/><text fill="#000000" font-family="sans-serif" font-size="16.25" lengthAdjust="spacingAndGlyphs" textLength="43.75" x="134.375" y="592.4451">logout</text><ellipse cx="125" cy="607.0801" fill="#000000" rx="3.125" ry="3.125" style="stroke: #000000; stroke-width: 0.0;"/><text fill="#000000" font-family="sans-serif" font-size="16.25" lengthAdjust="spacingAndGlyphs" textLength="131.25" x="134.375" y="612.8845">create intervention</text><ellipse cx="125" cy="627.5195" fill="#000000" rx="3.125" ry="3.125" style="stroke: #000000; stroke-width: 0.0;"/><text fill="#000000" font-family="sans-serif" font-size="16.25" lengthAdjust="spacingAndGlyphs" textLength="123.75" x="134.375" y="633.324">finish intervention</text><!--MD5=[01af48f59f293d32e4276efed32da9ee]
@startuml
skinparam {
        NoteBackgroundColor #whiteSmoke
}

state startState as ":OPENED_VEHICLES"
state endState as ":OPENED_VEHICLE"

startState - -> openVehicles
note on link
<b>User requests to</b>
* openVehicles
end note

state openVehicles {

[*] - -> [*]


}

openVehicles - -> endState
note on link
<b>System shows
* all vehicles in system
<b>System allows
* open vehicles
* open interventions
* open clients
* open operations
* logout
* create intervention
* finish intervention
end note

@enduml

PlantUML version 1.2020.09(Sun May 10 12:51:06 CEST 2020)
(GPL source distribution)
Java Runtime: OpenJDK Runtime Environment
JVM: OpenJDK 64-Bit Server VM
Java Version: 11.0.6+8-b765.25
Operating System: Windows 10
Default Encoding: Cp1252
Language: en
Country: GB
--></g></svg>