<?xml version="1.0" encoding="UTF-8" standalone="no"?><svg xmlns="http://www.w3.org/2000/svg" xmlns:xlink="http://www.w3.org/1999/xlink" contentScriptType="application/ecmascript" contentStyleType="text/css" height="816.25px" preserveAspectRatio="none" style="width:1322px;height:816px;" version="1.1" viewBox="0 0 1322 816" width="1322.5px" zoomAndPan="magnify"><defs><filter height="300%" id="fxap8v4eyonf0" width="300%" x="-1" y="-1"><feGaussianBlur result="blurOut" stdDeviation="2.5"/><feColorMatrix in="blurOut" result="blurOut2" type="matrix" values="0 0 0 0 0 0 0 0 0 0 0 0 0 0 0 0 0 0 .4 0"/><feOffset dx="5.0" dy="5.0" in="blurOut2" result="blurOut3"/><feBlend in="SourceGraphic" in2="blurOut3" mode="normal"/></filter></defs><g><ellipse cx="636.875" cy="22.5" fill="#000000" filter="url(#fxap8v4eyonf0)" rx="12.5" ry="12.5" style="stroke: none; stroke-width: 1.25;"/><rect fill="#FEFECE" filter="url(#fxap8v4eyonf0)" height="50" rx="15.625" ry="15.625" style="stroke: #A80036; stroke-width: 1.875;" width="67.5" x="603.125" y="111.25"/><text fill="#000000" font-family="sans-serif" font-size="17.5" lengthAdjust="spacingAndGlyphs" textLength="55" x="609.375" y="143.4106">INITIAL</text><rect fill="#FEFECE" filter="url(#fxap8v4eyonf0)" height="50" rx="15.625" ry="15.625" style="stroke: #A80036; stroke-width: 1.875;" width="201.25" x="536.25" y="316.25"/><text fill="#000000" font-family="sans-serif" font-size="17.5" lengthAdjust="spacingAndGlyphs" textLength="188.75" x="542.5" y="348.4106">OPENED_DASHBOARD</text><rect fill="#FEFECE" filter="url(#fxap8v4eyonf0)" height="50" rx="15.625" ry="15.625" style="stroke: #A80036; stroke-width: 1.875;" width="176.25" x="7.5" y="551.875"/><text fill="#000000" font-family="sans-serif" font-size="17.5" lengthAdjust="spacingAndGlyphs" textLength="163.75" x="13.75" y="584.0356">OPENED_VEHICLES</text><rect fill="#FEFECE" filter="url(#fxap8v4eyonf0)" height="50" rx="15.625" ry="15.625" style="stroke: #A80036; stroke-width: 1.875;" width="165" x="401.875" y="551.875"/><text fill="#000000" font-family="sans-serif" font-size="17.5" lengthAdjust="spacingAndGlyphs" textLength="152.5" x="408.125" y="584.0356">OPENED_CLIENTS</text><rect fill="#FEFECE" filter="url(#fxap8v4eyonf0)" height="50" rx="15.625" ry="15.625" style="stroke: #A80036; stroke-width: 1.875;" width="228.75" x="763.75" y="551.875"/><text fill="#000000" font-family="sans-serif" font-size="17.5" lengthAdjust="spacingAndGlyphs" textLength="216.25" x="770" y="584.0356">OPENED_INTERVENTIONS</text><ellipse cx="651.875" cy="790" fill="none" filter="url(#fxap8v4eyonf0)" rx="12.5" ry="12.5" style="stroke: #000000; stroke-width: 1.25;"/><ellipse cx="652.5" cy="790.625" fill="#000000" rx="7.5" ry="7.5" style="stroke: none; stroke-width: 1.25;"/><!--MD5=[06c3f2024f4ea60966e79307ee69ec5f]
link *start to INITIAL--><path d="M636.875,35.2362 C636.875,51.475 636.875,81.72 636.875,104.6675 " fill="none" id="*start-&gt;INITIAL" style="stroke: #008000; stroke-width: 1.25;"/><polygon fill="#008000" points="636.875,110.9288,641.875,99.6788,636.875,104.6788,631.875,99.6788,636.875,110.9288" style="stroke: #008000; stroke-width: 1.25;"/><!--MD5=[2f9381f69d49eaf825075dc57500e277]
link INITIAL to OPENED_DASHBOARD--><path d="M636.875,161.525 C636.875,198.3662 636.875,268.7925 636.875,309.2913 " fill="none" id="INITIAL-&gt;OPENED_DASHBOARD" style="stroke: #008000; stroke-width: 1.25;"/><polygon fill="#008000" points="636.875,316.0063,641.875,304.7563,636.875,309.7563,631.875,304.7563,636.875,316.0063" style="stroke: #008000; stroke-width: 1.25;"/><path d="M643.125,205 L643.125,257.5 L716.875,257.5 L716.875,217.5 L704.375,205 L643.125,205 " fill="#F5F5F5" filter="url(#fxap8v4eyonf0)" style="stroke: #A80036; stroke-width: 1.25;"/><path d="M704.375,205 L704.375,217.5 L716.875,217.5 L704.375,205 " fill="#F5F5F5" style="stroke: #A80036; stroke-width: 1.25;"/><text fill="#000000" font-family="sans-serif" font-size="16.25" lengthAdjust="spacingAndGlyphs" textLength="33.75" x="650.625" y="228.1189">login</text><text fill="#000000" font-family="sans-serif" font-size="16.25" lengthAdjust="spacingAndGlyphs" textLength="47.5" x="650.625" y="248.5583">sign in</text><!--MD5=[7fd3362ee68cab4ea336d5422e86651e]
link OPENED_DASHBOARD to OPENED_VEHICLES--><path d="M536.1538,354.5862 C366.7538,374.915 43.125,413.75 43.125,413.75 C43.125,413.75 43.125,483.75 43.125,483.75 C43.125,483.75 63.3038,519.0625 78.6409,545.9025 " fill="none" id="OPENED_DASHBOARD-&gt;OPENED_VEHICLES" style="stroke: #008000; stroke-width: 1.25;"/><polygon fill="#008000" points="81.8313,551.4862,80.5894,539.238,78.7297,546.0601,71.9076,544.2004,81.8313,551.4862" style="stroke: #008000; stroke-width: 1.25;"/><path d="M49.375,430 L49.375,462.5 L173.125,462.5 L173.125,442.5 L160.625,430 L49.375,430 " fill="#F5F5F5" filter="url(#fxap8v4eyonf0)" style="stroke: #A80036; stroke-width: 1.25;"/><path d="M160.625,430 L160.625,442.5 L173.125,442.5 L160.625,430 " fill="#F5F5F5" style="stroke: #A80036; stroke-width: 1.25;"/><text fill="#000000" font-family="sans-serif" font-size="16.25" lengthAdjust="spacingAndGlyphs" textLength="97.5" x="56.875" y="453.1189">openVehicles</text><!--MD5=[5e11674a1be49c544b6d95b1bdfce1b5]
link OPENED_VEHICLES to OPENED_DASHBOARD--><path d="M122.0001,551.74 C171.7225,506.7113 274.375,413.75 274.375,413.75 C274.375,413.75 422.6713,384.6025 529.5613,363.5925 " fill="none" id="OPENED_VEHICLES-&gt;OPENED_DASHBOARD" style="stroke: #008000; stroke-width: 1.25;"/><polygon fill="#008000" points="535.8988,362.3475,523.8956,359.6112,529.7661,363.553,525.8243,369.4234,535.8988,362.3475" style="stroke: #008000; stroke-width: 1.25;"/><path d="M280.625,420 L280.625,472.5 L433.125,472.5 L433.125,432.5 L420.625,420 L280.625,420 " fill="#F5F5F5" filter="url(#fxap8v4eyonf0)" style="stroke: #A80036; stroke-width: 1.25;"/><path d="M420.625,420 L420.625,432.5 L433.125,432.5 L420.625,420 " fill="#F5F5F5" style="stroke: #A80036; stroke-width: 1.25;"/><text fill="#000000" font-family="sans-serif" font-size="16.25" lengthAdjust="spacingAndGlyphs" textLength="126.25" x="288.125" y="443.1189">createIntervention</text><text fill="#000000" font-family="sans-serif" font-size="16.25" lengthAdjust="spacingAndGlyphs" textLength="112.5" x="288.125" y="463.5583">openDashboard</text><!--MD5=[0658bce038e6d069da9bd29c93478e6a]
link OPENED_DASHBOARD to OPENED_DASHBOARD--><path d="M737.74,321.3887 C762.6625,322.82 781.25,329.44 781.25,341.25 C781.25,352.045 765.72,358.5037 744.0162,360.6275 " fill="none" id="OPENED_DASHBOARD-&gt;OPENED_DASHBOARD" style="stroke: #008000; stroke-width: 1.25;"/><polygon fill="#008000" points="737.74,361.1113,749.341,365.2319,743.9715,360.6309,748.5725,355.2615,737.74,361.1113" style="stroke: #008000; stroke-width: 1.25;"/><path d="M787.5,312.5 L787.5,365 L940,365 L940,325 L927.5,312.5 L787.5,312.5 " fill="#F5F5F5" filter="url(#fxap8v4eyonf0)" style="stroke: #A80036; stroke-width: 1.25;"/><path d="M927.5,312.5 L927.5,325 L940,325 L927.5,312.5 " fill="#F5F5F5" style="stroke: #A80036; stroke-width: 1.25;"/><text fill="#000000" font-family="sans-serif" font-size="16.25" lengthAdjust="spacingAndGlyphs" textLength="126.25" x="795" y="335.6189">createIntervention</text><text fill="#000000" font-family="sans-serif" font-size="16.25" lengthAdjust="spacingAndGlyphs" textLength="118.75" x="795" y="356.0583">finishIntervention</text><!--MD5=[5b0402e1717c04d353cefcf5f980b708]
link OPENED_VEHICLES to OPENED_VEHICLES--><path d="M183.755,553.0875 C208.5025,554.1288 227.5,562.0575 227.5,576.875 C227.5,590.4188 211.6275,598.2075 190,600.2413 " fill="none" id="OPENED_VEHICLES-&gt;OPENED_VEHICLES" style="stroke: #008000; stroke-width: 1.25;"/><polygon fill="#008000" points="183.755,600.6625,195.3153,604.8958,189.9909,600.2428,194.6439,594.9184,183.755,600.6625" style="stroke: #008000; stroke-width: 1.25;"/><path d="M233.75,527.5 L233.75,621.25 L367.5,621.25 L367.5,540 L355,527.5 L233.75,527.5 " fill="#F5F5F5" filter="url(#fxap8v4eyonf0)" style="stroke: #A80036; stroke-width: 1.25;"/><path d="M355,527.5 L355,540 L367.5,540 L355,527.5 " fill="#F5F5F5" style="stroke: #A80036; stroke-width: 1.25;"/><text fill="#000000" font-family="sans-serif" font-size="16.25" lengthAdjust="spacingAndGlyphs" textLength="98.75" x="241.25" y="550.6189">createVehicle</text><text fill="#000000" font-family="sans-serif" font-size="16.25" lengthAdjust="spacingAndGlyphs" textLength="96.25" x="241.25" y="571.0583">configVehicle</text><text fill="#000000" font-family="sans-serif" font-size="16.25" lengthAdjust="spacingAndGlyphs" textLength="97.5" x="241.25" y="591.4978">deleteVehicle</text><text fill="#000000" font-family="sans-serif" font-size="16.25" lengthAdjust="spacingAndGlyphs" textLength="107.5" x="241.25" y="611.9373">importVehicles</text><!--MD5=[15c74f34291f5e75839dab458770ad02]
link OPENED_DASHBOARD to OPENED_CLIENTS--><path d="M575.5975,366.4238 C522.5788,387.1225 454.375,413.75 454.375,413.75 C454.375,413.75 454.375,483.75 454.375,483.75 C454.375,483.75 465.7138,518.4738 474.4488,545.2275 " fill="none" id="OPENED_DASHBOARD-&gt;OPENED_CLIENTS" style="stroke: #008000; stroke-width: 1.25;"/><polygon fill="#008000" points="476.4925,551.4862,477.7514,539.2397,474.5515,545.5453,468.2459,542.3454,476.4925,551.4862" style="stroke: #008000; stroke-width: 1.25;"/><path d="M460.625,430 L460.625,462.5 L571.875,462.5 L571.875,442.5 L559.375,430 L460.625,430 " fill="#F5F5F5" filter="url(#fxap8v4eyonf0)" style="stroke: #A80036; stroke-width: 1.25;"/><path d="M559.375,430 L559.375,442.5 L571.875,442.5 L559.375,430 " fill="#F5F5F5" style="stroke: #A80036; stroke-width: 1.25;"/><text fill="#000000" font-family="sans-serif" font-size="16.25" lengthAdjust="spacingAndGlyphs" textLength="85" x="468.125" y="453.1189">openClients</text><!--MD5=[e86c9098c6e8a06dad771708352e16ef]
link OPENED_CLIENTS to OPENED_DASHBOARD--><path d="M511.6338,551.4862 C542.3738,524.265 588.125,483.75 588.125,483.75 C588.125,483.75 612.0663,414.3813 626.3938,372.87 " fill="none" id="OPENED_CLIENTS-&gt;OPENED_DASHBOARD" style="stroke: #008000; stroke-width: 1.25;"/><polygon fill="#008000" points="628.605,366.4612,620.2076,375.4638,626.5655,372.3691,629.6601,378.727,628.605,366.4612" style="stroke: #008000; stroke-width: 1.25;"/><path d="M618.125,420 L618.125,472.5 L770.625,472.5 L770.625,432.5 L758.125,420 L618.125,420 " fill="#F5F5F5" filter="url(#fxap8v4eyonf0)" style="stroke: #A80036; stroke-width: 1.25;"/><path d="M758.125,420 L758.125,432.5 L770.625,432.5 L758.125,420 " fill="#F5F5F5" style="stroke: #A80036; stroke-width: 1.25;"/><text fill="#000000" font-family="sans-serif" font-size="16.25" lengthAdjust="spacingAndGlyphs" textLength="126.25" x="625.625" y="443.1189">createIntervention</text><text fill="#000000" font-family="sans-serif" font-size="16.25" lengthAdjust="spacingAndGlyphs" textLength="112.5" x="625.625" y="463.5583">openDashboard</text><!--MD5=[bd7c2e30750d5e163bff11905f6efb8d]
link OPENED_CLIENTS to OPENED_CLIENTS--><path d="M566.9438,553.0213 C591.51,553.7338 610.625,561.685 610.625,576.875 C610.625,590.6413 594.9263,598.4625 573.6975,600.3375 " fill="none" id="OPENED_CLIENTS-&gt;OPENED_CLIENTS" style="stroke: #008000; stroke-width: 1.25;"/><polygon fill="#008000" points="566.9438,600.7288,578.4648,605.0678,573.1832,600.3662,577.8848,595.0846,566.9438,600.7288" style="stroke: #008000; stroke-width: 1.25;"/><path d="M616.875,537.5 L616.875,611.25 L729.375,611.25 L729.375,550 L716.875,537.5 L616.875,537.5 " fill="#F5F5F5" filter="url(#fxap8v4eyonf0)" style="stroke: #A80036; stroke-width: 1.25;"/><path d="M716.875,537.5 L716.875,550 L729.375,550 L716.875,537.5 " fill="#F5F5F5" style="stroke: #A80036; stroke-width: 1.25;"/><text fill="#000000" font-family="sans-serif" font-size="16.25" lengthAdjust="spacingAndGlyphs" textLength="86.25" x="624.375" y="560.6189">createClient</text><text fill="#000000" font-family="sans-serif" font-size="16.25" lengthAdjust="spacingAndGlyphs" textLength="83.75" x="624.375" y="581.0583">configClient</text><text fill="#000000" font-family="sans-serif" font-size="16.25" lengthAdjust="spacingAndGlyphs" textLength="85" x="624.375" y="601.4978">deleteClient</text><!--MD5=[f962ecf610241878d7904dbcfaee543a]
link OPENED_DASHBOARD to OPENED_INTERVENTIONS--><path d="M688.9188,366.4238 C733.9475,387.1225 791.875,413.75 791.875,413.75 C791.875,413.75 837.2413,498.8938 862.17,545.6813 " fill="none" id="OPENED_DASHBOARD-&gt;OPENED_INTERVENTIONS" style="stroke: #008000; stroke-width: 1.25;"/><polygon fill="#008000" points="865.3988,551.74,864.5209,539.4603,862.4596,546.2242,855.6957,544.1629,865.3988,551.74" style="stroke: #008000; stroke-width: 1.25;"/><path d="M834.375,430 L834.375,462.5 L985.625,462.5 L985.625,442.5 L973.125,430 L834.375,430 " fill="#F5F5F5" filter="url(#fxap8v4eyonf0)" style="stroke: #A80036; stroke-width: 1.25;"/><path d="M973.125,430 L973.125,442.5 L985.625,442.5 L973.125,430 " fill="#F5F5F5" style="stroke: #A80036; stroke-width: 1.25;"/><text fill="#000000" font-family="sans-serif" font-size="16.25" lengthAdjust="spacingAndGlyphs" textLength="125" x="841.875" y="453.1189">openInterventions</text><!--MD5=[0b4f9f0cf45c3a499e4f4e76b77491af]
link OPENED_INTERVENTIONS to OPENED_DASHBOARD--><path d="M911.6163,551.7262 C949.765,524.5038 1006.875,483.75 1006.875,483.75 C1006.875,483.75 1006.875,413.75 1006.875,413.75 C1006.875,413.75 853.3875,384.1938 744.1275,363.1538 " fill="none" id="OPENED_INTERVENTIONS-&gt;OPENED_DASHBOARD" style="stroke: #008000; stroke-width: 1.25;"/><polygon fill="#008000" points="737.9788,361.97,748.0797,369.0081,744.1159,363.1524,749.9715,359.1886,737.9788,361.97" style="stroke: #008000; stroke-width: 1.25;"/><path d="M1013.125,420 L1013.125,472.5 L1165.625,472.5 L1165.625,432.5 L1153.125,420 L1013.125,420 " fill="#F5F5F5" filter="url(#fxap8v4eyonf0)" style="stroke: #A80036; stroke-width: 1.25;"/><path d="M1153.125,420 L1153.125,432.5 L1165.625,432.5 L1153.125,420 " fill="#F5F5F5" style="stroke: #A80036; stroke-width: 1.25;"/><text fill="#000000" font-family="sans-serif" font-size="16.25" lengthAdjust="spacingAndGlyphs" textLength="126.25" x="1020.625" y="443.1189">createIntervention</text><text fill="#000000" font-family="sans-serif" font-size="16.25" lengthAdjust="spacingAndGlyphs" textLength="112.5" x="1020.625" y="463.5583">openDashboard</text><!--MD5=[9cb05d4109c4a70493bb8d0f8a6b6c3b]
link OPENED_INTERVENTIONS to OPENED_INTERVENTIONS--><path d="M992.5475,553.6125 C1017.8338,555.7975 1036.25,563.5525 1036.25,576.875 C1036.25,589.0525 1020.8638,596.5775 998.9075,599.4513 " fill="none" id="OPENED_INTERVENTIONS-&gt;OPENED_INTERVENTIONS" style="stroke: #008000; stroke-width: 1.25;"/><polygon fill="#008000" points="992.5475,600.1375,1004.2695,603.9001,998.7613,599.4661,1003.1953,593.9579,992.5475,600.1375" style="stroke: #008000; stroke-width: 1.25;"/><path d="M1042.5,548.125 L1042.5,600.625 L1196.25,600.625 L1196.25,560.625 L1183.75,548.125 L1042.5,548.125 " fill="#F5F5F5" filter="url(#fxap8v4eyonf0)" style="stroke: #A80036; stroke-width: 1.25;"/><path d="M1183.75,548.125 L1183.75,560.625 L1196.25,560.625 L1183.75,548.125 " fill="#F5F5F5" style="stroke: #A80036; stroke-width: 1.25;"/><text fill="#000000" font-family="sans-serif" font-size="16.25" lengthAdjust="spacingAndGlyphs" textLength="127.5" x="1050" y="571.2439">billing intervention</text><text fill="#000000" font-family="sans-serif" font-size="16.25" lengthAdjust="spacingAndGlyphs" textLength="116.25" x="1050" y="591.6833">openIntervention</text><!--MD5=[793e8ba27cce923fc9e89a4e74e7431d]
link OPENED_DASHBOARD to *end--><path d="M737.7538,355.5687 C896.5337,376.1375 1186.875,413.75 1186.875,413.75 C1186.875,413.75 1208.125,521.25 1208.125,521.25 C1208.125,521.25 1208.125,632.5 1208.125,632.5 C1208.125,632.5 903.125,740 903.125,740 C903.125,740 727.945,773.9903 670.1375,785.2066 " fill="none" id="OPENED_DASHBOARD-&gt;*end" style="stroke: #008000; stroke-width: 1.25;"/><polygon fill="#008000" points="663.9938,786.3986,675.9896,789.1665,670.1295,785.2093,674.0867,779.3492,663.9938,786.3986" style="stroke: #008000; stroke-width: 1.25;"/><path d="M1214.375,548.125 L1214.375,600.625 L1308.125,600.625 L1308.125,560.625 L1295.625,548.125 L1214.375,548.125 " fill="#F5F5F5" filter="url(#fxap8v4eyonf0)" style="stroke: #A80036; stroke-width: 1.25;"/><path d="M1295.625,548.125 L1295.625,560.625 L1308.125,560.625 L1295.625,548.125 " fill="#F5F5F5" style="stroke: #A80036; stroke-width: 1.25;"/><text fill="#000000" font-family="sans-serif" font-size="16.25" lengthAdjust="spacingAndGlyphs" textLength="43.75" x="1221.875" y="571.2439">logout</text><text fill="#000000" font-family="sans-serif" font-size="16.25" lengthAdjust="spacingAndGlyphs" textLength="67.5" x="1221.875" y="591.6833">closeApp</text><!--MD5=[4e719d0417a469ca10e494df07e2e6c4]
link OPENED_VEHICLES to *end--><path d="M145.055,602.01 C238.2412,647.0387 430.625,740 430.625,740 C430.625,740 580.895,773.1103 633.7513,784.7568 " fill="none" id="OPENED_VEHICLES-&gt;*end" style="stroke: #008000; stroke-width: 1.25;"/><polygon fill="#008000" points="639.98,786.129,630.0692,778.8257,633.8764,784.7843,627.9177,788.5915,639.98,786.129" style="stroke: #008000; stroke-width: 1.25;"/><path d="M436.875,676.25 L436.875,728.75 L530.625,728.75 L530.625,688.75 L518.125,676.25 L436.875,676.25 " fill="#F5F5F5" filter="url(#fxap8v4eyonf0)" style="stroke: #A80036; stroke-width: 1.25;"/><path d="M518.125,676.25 L518.125,688.75 L530.625,688.75 L518.125,676.25 " fill="#F5F5F5" style="stroke: #A80036; stroke-width: 1.25;"/><text fill="#000000" font-family="sans-serif" font-size="16.25" lengthAdjust="spacingAndGlyphs" textLength="43.75" x="444.375" y="699.3689">logout</text><text fill="#000000" font-family="sans-serif" font-size="16.25" lengthAdjust="spacingAndGlyphs" textLength="67.5" x="444.375" y="719.8083">closeApp</text><!--MD5=[adf8f57255849756616039a9ecd58871]
link OPENED_CLIENTS to *end--><path d="M500.975,602.01 C532.2688,647.0387 596.875,740 596.875,740 C596.875,740 621.7575,762.0545 638.05,776.4955 " fill="none" id="OPENED_CLIENTS-&gt;*end" style="stroke: #008000; stroke-width: 1.25;"/><polygon fill="#008000" points="642.7925,780.6999,637.6888,769.4965,638.1148,776.5548,631.0566,776.9808,642.7925,780.6999" style="stroke: #008000; stroke-width: 1.25;"/><path d="M603.125,676.25 L603.125,728.75 L696.875,728.75 L696.875,688.75 L684.375,676.25 L603.125,676.25 " fill="#F5F5F5" filter="url(#fxap8v4eyonf0)" style="stroke: #A80036; stroke-width: 1.25;"/><path d="M684.375,676.25 L684.375,688.75 L696.875,688.75 L684.375,676.25 " fill="#F5F5F5" style="stroke: #A80036; stroke-width: 1.25;"/><text fill="#000000" font-family="sans-serif" font-size="16.25" lengthAdjust="spacingAndGlyphs" textLength="43.75" x="610.625" y="699.3689">logout</text><text fill="#000000" font-family="sans-serif" font-size="16.25" lengthAdjust="spacingAndGlyphs" textLength="67.5" x="610.625" y="719.8083">closeApp</text><!--MD5=[95d855294e3acb33a37e4375cc292d04]
link OPENED_INTERVENTIONS to *end--><path d="M853.7788,602.01 C807.8812,647.0387 713.125,740 713.125,740 C713.125,740 684.8288,762.5213 666.7025,776.949 " fill="none" id="OPENED_INTERVENTIONS-&gt;*end" style="stroke: #008000; stroke-width: 1.25;"/><polygon fill="#008000" points="661.445,781.1328,673.3614,778.0406,666.3357,777.2413,667.1351,770.2155,661.445,781.1328" style="stroke: #008000; stroke-width: 1.25;"/><path d="M788.125,676.25 L788.125,728.75 L881.875,728.75 L881.875,688.75 L869.375,676.25 L788.125,676.25 " fill="#F5F5F5" filter="url(#fxap8v4eyonf0)" style="stroke: #A80036; stroke-width: 1.25;"/><path d="M869.375,676.25 L869.375,688.75 L881.875,688.75 L869.375,676.25 " fill="#F5F5F5" style="stroke: #A80036; stroke-width: 1.25;"/><text fill="#000000" font-family="sans-serif" font-size="16.25" lengthAdjust="spacingAndGlyphs" textLength="43.75" x="795.625" y="699.3689">logout</text><text fill="#000000" font-family="sans-serif" font-size="16.25" lengthAdjust="spacingAndGlyphs" textLength="67.5" x="795.625" y="719.8083">closeApp</text><!--MD5=[267c3769d659750f9d67e9f5e2b1eb41]
@startuml
skinparam {
    NoteBackgroundColor #whiteSmoke
    ArrowColor #green
    linetype polyline
}

hide empty description


[*] - -> INITIAL

INITIAL - -> OPENED_DASHBOARD
 note on link
     login
     sign in
 end note

OPENED_DASHBOARD - -> OPENED_VEHICLES
    note on link
         openVehicles
    end note
OPENED_DASHBOARD - -> OPENED_DASHBOARD
    note on link
         createIntervention
         finishIntervention
    end note

OPENED_VEHICLES - -> OPENED_VEHICLES
    note on link
         createVehicle
         configVehicle
         deleteVehicle
         importVehicles
    end note

OPENED_VEHICLES - -> OPENED_DASHBOARD
    note on link
     createIntervention
     openDashboard
    end note


OPENED_DASHBOARD - -> OPENED_CLIENTS
    note on link
         openClients
    end note

OPENED_CLIENTS - -> OPENED_CLIENTS
    note on link
     createClient
     configClient
     deleteClient
    end note

OPENED_CLIENTS - -> OPENED_DASHBOARD
    note on link
     createIntervention
     openDashboard
    end note


OPENED_DASHBOARD - -> OPENED_INTERVENTIONS
    note on link
         openInterventions
    end note
OPENED_INTERVENTIONS - -> OPENED_INTERVENTIONS
    note on link
         billing intervention
         openIntervention
    end note
OPENED_INTERVENTIONS - -> OPENED_DASHBOARD
    note on link
     createIntervention
     openDashboard
    end note

OPENED_DASHBOARD - -> [*]
    note on link
    logout
    closeApp
    end note
OPENED_VEHICLES - -> [*]
    note on link
    logout
    closeApp
    end note
OPENED_CLIENTS - -> [*]
    note on link
    logout
    closeApp
    end note
OPENED_INTERVENTIONS - -> [*]
    note on link
    logout
    closeApp
    end note
@enduml

PlantUML version 1.2020.09(Sun May 10 12:51:06 CEST 2020)
(GPL source distribution)
Java Runtime: OpenJDK Runtime Environment
JVM: OpenJDK 64-Bit Server VM
Java Version: 11.0.8+10-b944.31
Operating System: Windows 10
Default Encoding: Cp1252
Language: en
Country: GB
--></g></svg>