<?xml version="1.0" encoding="UTF-8" standalone="no"?><svg xmlns="http://www.w3.org/2000/svg" xmlns:xlink="http://www.w3.org/1999/xlink" contentScriptType="application/ecmascript" contentStyleType="text/css" height="1087.5px" preserveAspectRatio="none" style="width:1108px;height:1087px;" version="1.1" viewBox="0 0 1108 1087" width="1108.75px" zoomAndPan="magnify"><defs><filter height="300%" id="fn3a8djhc1mqb" width="300%" x="-1" y="-1"><feGaussianBlur result="blurOut" stdDeviation="2.5"/><feColorMatrix in="blurOut" result="blurOut2" type="matrix" values="0 0 0 0 0 0 0 0 0 0 0 0 0 0 0 0 0 0 .4 0"/><feOffset dx="5.0" dy="5.0" in="blurOut2" result="blurOut3"/><feBlend in="SourceGraphic" in2="blurOut3" mode="normal"/></filter></defs><g><!--MD5=[7442f3b126ee602ae02566c1a49e158a]
cluster api--><polygon fill="#FFFFFF" filter="url(#fn3a8djhc1mqb)" points="27.5,30.625,206.25,30.625,215,60.1367,1081.25,60.1367,1081.25,1072.5,27.5,1072.5,27.5,30.625" style="stroke: #000000; stroke-width: 1.875;"/><line style="stroke: #000000; stroke-width: 1.875;" x1="27.5" x2="215" y1="60.1367" y2="60.1367"/><text fill="#000000" font-family="sans-serif" font-size="17.5" font-weight="bold" lengthAdjust="spacingAndGlyphs" textLength="171.25" x="32.5" y="51.2915">API REST (Backend)</text><!--MD5=[63c4650f895c02f012fb57dede53fb60]
cluster exceptions--><polygon fill="#FFFFFF" filter="url(#fn3a8djhc1mqb)" points="611.25,85.625,716.25,85.625,725,115.1367,1051.25,115.1367,1051.25,475,611.25,475,611.25,85.625" style="stroke: #000000; stroke-width: 1.875;"/><line style="stroke: #000000; stroke-width: 1.875;" x1="611.25" x2="725" y1="115.1367" y2="115.1367"/><text fill="#000000" font-family="sans-serif" font-size="17.5" font-weight="bold" lengthAdjust="spacingAndGlyphs" textLength="97.5" x="616.25" y="106.2915">exceptions</text><!--MD5=[0621a3024af86177891f48642e18b5dc]
cluster handlers--><polygon fill="#FFFFFF" filter="url(#fn3a8djhc1mqb)" points="641.25,140.625,726.25,140.625,735,170.1367,1021.25,170.1367,1021.25,293.125,641.25,293.125,641.25,140.625" style="stroke: #000000; stroke-width: 1.875;"/><line style="stroke: #000000; stroke-width: 1.875;" x1="641.25" x2="735" y1="170.1367" y2="170.1367"/><text fill="#000000" font-family="sans-serif" font-size="17.5" font-weight="bold" lengthAdjust="spacingAndGlyphs" textLength="77.5" x="646.25" y="161.2915">handlers</text><!--MD5=[938fc463f5a004c5606838e20375b017]
cluster api_controllers--><polygon fill="#FFFFFF" filter="url(#fn3a8djhc1mqb)" points="288.75,122.5,428.75,122.5,437.5,152.0117,581.25,152.0117,581.25,311.25,288.75,311.25,288.75,122.5" style="stroke: #000000; stroke-width: 1.875;"/><line style="stroke: #000000; stroke-width: 1.875;" x1="288.75" x2="437.5" y1="152.0117" y2="152.0117"/><text fill="#000000" font-family="sans-serif" font-size="17.5" font-weight="bold" lengthAdjust="spacingAndGlyphs" textLength="132.5" x="293.75" y="143.1665">api_controllers</text><!--MD5=[ef24783297aa271cfe9569141314055f]
cluster business_controllers--><polygon fill="#FFFFFF" filter="url(#fn3a8djhc1mqb)" points="316.25,341.25,510,341.25,518.75,370.7617,581.25,370.7617,581.25,483.75,316.25,483.75,316.25,341.25" style="stroke: #000000; stroke-width: 1.875;"/><line style="stroke: #000000; stroke-width: 1.875;" x1="316.25" x2="518.75" y1="370.7617" y2="370.7617"/><text fill="#000000" font-family="sans-serif" font-size="17.5" font-weight="bold" lengthAdjust="spacingAndGlyphs" textLength="186.25" x="321.25" y="361.9165">business_controllers</text><!--MD5=[7c1efaa4b022b44d0326ecca3af8b27d]
cluster daos--><polygon fill="#FFFFFF" filter="url(#fn3a8djhc1mqb)" points="57.5,560,107.5,560,116.25,589.5117,778.75,589.5117,778.75,1042.5,57.5,1042.5,57.5,560" style="stroke: #000000; stroke-width: 1.875;"/><line style="stroke: #000000; stroke-width: 1.875;" x1="57.5" x2="116.25" y1="589.5117" y2="589.5117"/><text fill="#000000" font-family="sans-serif" font-size="17.5" font-weight="bold" lengthAdjust="spacingAndGlyphs" textLength="42.5" x="62.5" y="580.6665">daos</text><!--MD5=[8ffc20a5a246e37bb7e54b31aa74b858]
cluster hibernate--><polygon fill="#FFFFFF" filter="url(#fn3a8djhc1mqb)" points="87.5,723.75,180,723.75,188.75,753.2617,533.75,753.2617,533.75,1012.5,87.5,1012.5,87.5,723.75" style="stroke: #000000; stroke-width: 1.875;"/><line style="stroke: #000000; stroke-width: 1.875;" x1="87.5" x2="188.75" y1="753.2617" y2="753.2617"/><text fill="#000000" font-family="sans-serif" font-size="17.5" font-weight="bold" lengthAdjust="spacingAndGlyphs" textLength="85" x="92.5" y="744.4165">hibernate</text><!--MD5=[2a013135f1f90689be40a3c084fed702]
cluster entities--><polygon fill="#FFFFFF" filter="url(#fn3a8djhc1mqb)" points="605,887.5,678.75,887.5,687.5,917.0117,735,917.0117,735,1012.5,605,1012.5,605,887.5" style="stroke: #000000; stroke-width: 1.875;"/><line style="stroke: #000000; stroke-width: 1.875;" x1="605" x2="687.5" y1="917.0117" y2="917.0117"/><text fill="#000000" font-family="sans-serif" font-size="17.5" font-weight="bold" lengthAdjust="spacingAndGlyphs" textLength="66.25" x="610" y="908.1665">entities</text><!--MD5=[ac65c812e7532cbcd7b9effd958b962e]
cluster dtos--><polygon fill="#FFFFFF" filter="url(#fn3a8djhc1mqb)" points="808.75,513.75,855,513.75,863.75,543.2617,1051.25,543.2617,1051.25,857.5,808.75,857.5,808.75,513.75" style="stroke: #000000; stroke-width: 1.875;"/><line style="stroke: #000000; stroke-width: 1.875;" x1="808.75" x2="863.75" y1="543.2617" y2="543.2617"/><text fill="#000000" font-family="sans-serif" font-size="17.5" font-weight="bold" lengthAdjust="spacingAndGlyphs" textLength="38.75" x="813.75" y="534.4165">dtos</text><!--MD5=[e484dff12bc7e3f9ae9e3c87a060152b]
cluster mappers--><polygon fill="#FFFFFF" filter="url(#fn3a8djhc1mqb)" points="838.75,568.75,922.5,568.75,931.25,598.2617,1021.25,598.2617,1021.25,693.75,838.75,693.75,838.75,568.75" style="stroke: #000000; stroke-width: 1.875;"/><line style="stroke: #000000; stroke-width: 1.875;" x1="838.75" x2="931.25" y1="598.2617" y2="598.2617"/><text fill="#000000" font-family="sans-serif" font-size="17.5" font-weight="bold" lengthAdjust="spacingAndGlyphs" textLength="76.25" x="843.75" y="589.4165">mappers</text><!--MD5=[c9e1d14f292a3467233ab5a09264c0db]
class BadRequestException--><rect fill="#FEFECE" filter="url(#fn3a8djhc1mqb)" height="60" id="BadRequestException" style="stroke: #A80036; stroke-width: 1.875;" width="192.5" x="631.25" y="395"/><ellipse cx="650" cy="415" fill="#ADD1B2" rx="13.75" ry="13.75" style="stroke: #A80036; stroke-width: 1.25;"/><path d="M652.5,410.625 Q652.7539,410 653.0469,409.6875 Q653.3398,409.375 653.6719,409.375 Q654.2578,409.375 654.6289,409.7266 Q655,410.0781 655,410.8984 L655,412.8516 Q655,413.6719 654.6484,414.0234 Q654.2969,414.375 653.75,414.375 Q653.2617,414.375 652.9492,414.1602 Q652.6367,413.9453 652.5,413.3789 Q652.4414,412.9883 652.2266,412.7734 Q651.8359,412.3633 651.1328,412.1289 Q650.4297,411.875 649.7266,411.875 Q648.8477,411.875 648.1055,412.2266 Q647.3828,412.5781 646.8164,413.3594 Q646.25,414.1406 646.25,415.2148 L646.25,416.3672 Q646.25,417.6563 647.3047,418.5156 Q648.3594,419.375 650.2344,419.375 Q651.3477,419.375 652.1289,419.1211 Q652.5781,418.9844 653.0859,418.5352 Q653.418,418.2813 653.5938,418.2031 Q653.7695,418.125 653.9844,418.125 Q654.3945,418.125 654.6875,418.457 Q655,418.7695 655,419.2188 Q655,419.6484 654.5703,420.1563 Q653.9453,420.8984 652.9492,421.3086 Q651.6406,421.875 650.0391,421.875 Q648.1641,421.875 646.6602,421.1328 Q645.4492,420.5469 644.5898,419.2773 Q643.75,418.0078 643.75,416.5039 L643.75,415.1367 Q643.75,413.5742 644.4922,412.207 Q645.2539,410.8398 646.5625,410.1172 Q647.8906,409.375 649.375,409.375 Q650.2734,409.375 651.0547,409.6875 Q651.8359,410 652.5,410.625 Z "/><text fill="#000000" font-family="sans-serif" font-size="15" lengthAdjust="spacingAndGlyphs" textLength="152.5" x="667.5" y="421.1377">BadRequestException</text><line style="stroke: #A80036; stroke-width: 1.875;" x1="632.5" x2="822.5" y1="435" y2="435"/><line style="stroke: #A80036; stroke-width: 1.875;" x1="632.5" x2="822.5" y1="445" y2="445"/><!--MD5=[838ac959de5e1ba4664740f6291c93a0]
class ErrorMessage--><rect fill="#FEFECE" filter="url(#fn3a8djhc1mqb)" height="60" id="ErrorMessage" style="stroke: #A80036; stroke-width: 1.875;" width="137.5" x="867.5" y="395"/><ellipse cx="886.25" cy="415" fill="#ADD1B2" rx="13.75" ry="13.75" style="stroke: #A80036; stroke-width: 1.25;"/><path d="M888.75,410.625 Q889.0039,410 889.2969,409.6875 Q889.5898,409.375 889.9219,409.375 Q890.5078,409.375 890.8789,409.7266 Q891.25,410.0781 891.25,410.8984 L891.25,412.8516 Q891.25,413.6719 890.8984,414.0234 Q890.5469,414.375 890,414.375 Q889.5117,414.375 889.1992,414.1602 Q888.8867,413.9453 888.75,413.3789 Q888.6914,412.9883 888.4766,412.7734 Q888.0859,412.3633 887.3828,412.1289 Q886.6797,411.875 885.9766,411.875 Q885.0977,411.875 884.3555,412.2266 Q883.6328,412.5781 883.0664,413.3594 Q882.5,414.1406 882.5,415.2148 L882.5,416.3672 Q882.5,417.6563 883.5547,418.5156 Q884.6094,419.375 886.4844,419.375 Q887.5977,419.375 888.3789,419.1211 Q888.8281,418.9844 889.3359,418.5352 Q889.668,418.2813 889.8438,418.2031 Q890.0195,418.125 890.2344,418.125 Q890.6445,418.125 890.9375,418.457 Q891.25,418.7695 891.25,419.2188 Q891.25,419.6484 890.8203,420.1563 Q890.1953,420.8984 889.1992,421.3086 Q887.8906,421.875 886.2891,421.875 Q884.4141,421.875 882.9102,421.1328 Q881.6992,420.5469 880.8398,419.2773 Q880,418.0078 880,416.5039 L880,415.1367 Q880,413.5742 880.7422,412.207 Q881.5039,410.8398 882.8125,410.1172 Q884.1406,409.375 885.625,409.375 Q886.5234,409.375 887.3047,409.6875 Q888.0859,410 888.75,410.625 Z "/><text fill="#000000" font-family="sans-serif" font-size="15" lengthAdjust="spacingAndGlyphs" textLength="97.5" x="903.75" y="421.1377">ErrorMessage</text><line style="stroke: #A80036; stroke-width: 1.875;" x1="868.75" x2="1003.75" y1="435" y2="435"/><line style="stroke: #A80036; stroke-width: 1.875;" x1="868.75" x2="1003.75" y1="445" y2="445"/><!--MD5=[0c1958d2abefae27c45a7363e57c42a5]
class BadRequestExceptionMapper--><rect fill="#FEFECE" filter="url(#fn3a8djhc1mqb)" height="87.5293" id="BadRequestExceptionMapper" style="stroke: #A80036; stroke-width: 1.875;" width="338.75" x="661.875" y="185.625"/><ellipse cx="724.0625" cy="210.7422" fill="#ADD1B2" rx="13.75" ry="13.75" style="stroke: #A80036; stroke-width: 1.25;"/><path d="M726.5625,206.3672 Q726.8164,205.7422 727.1094,205.4297 Q727.4023,205.1172 727.7344,205.1172 Q728.3203,205.1172 728.6914,205.4688 Q729.0625,205.8203 729.0625,206.6406 L729.0625,208.5938 Q729.0625,209.4141 728.7109,209.7656 Q728.3594,210.1172 727.8125,210.1172 Q727.3242,210.1172 727.0117,209.9023 Q726.6992,209.6875 726.5625,209.1211 Q726.5039,208.7305 726.2891,208.5156 Q725.8984,208.1055 725.1953,207.8711 Q724.4922,207.6172 723.7891,207.6172 Q722.9102,207.6172 722.168,207.9688 Q721.4453,208.3203 720.8789,209.1016 Q720.3125,209.8828 720.3125,210.957 L720.3125,212.1094 Q720.3125,213.3984 721.3672,214.2578 Q722.4219,215.1172 724.2969,215.1172 Q725.4102,215.1172 726.1914,214.8633 Q726.6406,214.7266 727.1484,214.2773 Q727.4805,214.0234 727.6563,213.9453 Q727.832,213.8672 728.0469,213.8672 Q728.457,213.8672 728.75,214.1992 Q729.0625,214.5117 729.0625,214.9609 Q729.0625,215.3906 728.6328,215.8984 Q728.0078,216.6406 727.0117,217.0508 Q725.7031,217.6172 724.1016,217.6172 Q722.2266,217.6172 720.7227,216.875 Q719.5117,216.2891 718.6523,215.0195 Q717.8125,213.75 717.8125,212.2461 L717.8125,210.8789 Q717.8125,209.3164 718.5547,207.9492 Q719.3164,206.582 720.625,205.8594 Q721.9531,205.1172 723.4375,205.1172 Q724.3359,205.1172 725.1172,205.4297 Q725.8984,205.7422 726.5625,206.3672 Z "/><text fill="#000000" font-family="sans-serif" font-size="15" font-style="italic" lengthAdjust="spacingAndGlyphs" textLength="90" x="806.5625" y="207.4463">«@Provider»</text><text fill="#000000" font-family="sans-serif" font-size="15" lengthAdjust="spacingAndGlyphs" textLength="203.75" x="749.6875" y="226.3135">BadRequestExceptionMapper</text><line style="stroke: #A80036; stroke-width: 1.875;" x1="663.125" x2="999.375" y1="235.8594" y2="235.8594"/><line style="stroke: #A80036; stroke-width: 1.875;" x1="663.125" x2="999.375" y1="245.8594" y2="245.8594"/><ellipse cx="675.625" cy="259.6094" fill="#84BE84" rx="3.75" ry="3.75" style="stroke: #038048; stroke-width: 1.25;"/><text fill="#000000" font-family="sans-serif" font-size="13.75" lengthAdjust="spacingAndGlyphs" textLength="306.25" x="686.875" y="265.1331">toResponse(e : BadRequestException) : Response</text><!--MD5=[ada8508389a64baf3ed5799f3d1025a1]
class VehicleApiController--><rect fill="#FEFECE" filter="url(#fn3a8djhc1mqb)" height="123.6914" id="VehicleApiController" style="stroke: #A80036; stroke-width: 1.875;" width="252.5" x="308.75" y="167.5"/><ellipse cx="360.6875" cy="202.0508" fill="#ADD1B2" rx="13.75" ry="13.75" style="stroke: #A80036; stroke-width: 1.25;"/><path d="M363.1875,197.6758 Q363.4414,197.0508 363.7344,196.7383 Q364.0273,196.4258 364.3594,196.4258 Q364.9453,196.4258 365.3164,196.7773 Q365.6875,197.1289 365.6875,197.9492 L365.6875,199.9023 Q365.6875,200.7227 365.3359,201.0742 Q364.9844,201.4258 364.4375,201.4258 Q363.9492,201.4258 363.6367,201.2109 Q363.3242,200.9961 363.1875,200.4297 Q363.1289,200.0391 362.9141,199.8242 Q362.5234,199.4141 361.8203,199.1797 Q361.1172,198.9258 360.4141,198.9258 Q359.5352,198.9258 358.793,199.2773 Q358.0703,199.6289 357.5039,200.4102 Q356.9375,201.1914 356.9375,202.2656 L356.9375,203.418 Q356.9375,204.707 357.9922,205.5664 Q359.0469,206.4258 360.9219,206.4258 Q362.0352,206.4258 362.8164,206.1719 Q363.2656,206.0352 363.7734,205.5859 Q364.1055,205.332 364.2813,205.2539 Q364.457,205.1758 364.6719,205.1758 Q365.082,205.1758 365.375,205.5078 Q365.6875,205.8203 365.6875,206.2695 Q365.6875,206.6992 365.2578,207.207 Q364.6328,207.9492 363.6367,208.3594 Q362.3281,208.9258 360.7266,208.9258 Q358.8516,208.9258 357.3477,208.1836 Q356.1367,207.5977 355.2773,206.3281 Q354.4375,205.0586 354.4375,203.5547 L354.4375,202.1875 Q354.4375,200.625 355.1797,199.2578 Q355.9414,197.8906 357.25,197.168 Q358.5781,196.4258 360.0625,196.4258 Q360.9609,196.4258 361.7422,196.7383 Q362.5234,197.0508 363.1875,197.6758 Z "/><text fill="#000000" font-family="sans-serif" font-size="15" font-style="italic" lengthAdjust="spacingAndGlyphs" textLength="55" x="427.4375" y="189.3213">«@Api»</text><text fill="#000000" font-family="sans-serif" font-size="15" font-style="italic" lengthAdjust="spacingAndGlyphs" textLength="63.75" x="423.0625" y="208.1885">«@Path»</text><text fill="#000000" font-family="sans-serif" font-size="15" lengthAdjust="spacingAndGlyphs" textLength="138.75" x="385.5625" y="227.0557">VehicleApiController</text><line style="stroke: #A80036; stroke-width: 1.875;" x1="310" x2="560" y1="236.6016" y2="236.6016"/><rect fill="none" height="7.5" style="stroke: #C82930; stroke-width: 1.25;" width="7.5" x="318.75" y="246.6016"/><text fill="#000000" font-family="sans-serif" font-size="13.75" lengthAdjust="spacingAndGlyphs" textLength="186.25" x="333.75" y="255.8752">VEHICLES : String = "/vehicles"</text><line style="stroke: #A80036; stroke-width: 1.875;" x1="310" x2="560" y1="263.8965" y2="263.8965"/><ellipse cx="322.5" cy="277.6465" fill="#84BE84" rx="3.75" ry="3.75" style="stroke: #038048; stroke-width: 1.25;"/><text fill="#000000" font-family="sans-serif" font-size="13.75" lengthAdjust="spacingAndGlyphs" textLength="220" x="333.75" y="283.1702">create(dto : VehicleDto) : VehicleDto</text><!--MD5=[7b169ba5e4fed0efbc99e549384a9a02]
class VehicleBusinessController--><rect fill="#FEFECE" filter="url(#fn3a8djhc1mqb)" height="77.2949" id="VehicleBusinessController" style="stroke: #A80036; stroke-width: 1.875;" width="223.75" x="336.875" y="386.25"/><ellipse cx="355.625" cy="406.25" fill="#ADD1B2" rx="13.75" ry="13.75" style="stroke: #A80036; stroke-width: 1.25;"/><path d="M358.125,401.875 Q358.3789,401.25 358.6719,400.9375 Q358.9648,400.625 359.2969,400.625 Q359.8828,400.625 360.2539,400.9766 Q360.625,401.3281 360.625,402.1484 L360.625,404.1016 Q360.625,404.9219 360.2734,405.2734 Q359.9219,405.625 359.375,405.625 Q358.8867,405.625 358.5742,405.4102 Q358.2617,405.1953 358.125,404.6289 Q358.0664,404.2383 357.8516,404.0234 Q357.4609,403.6133 356.7578,403.3789 Q356.0547,403.125 355.3516,403.125 Q354.4727,403.125 353.7305,403.4766 Q353.0078,403.8281 352.4414,404.6094 Q351.875,405.3906 351.875,406.4648 L351.875,407.6172 Q351.875,408.9063 352.9297,409.7656 Q353.9844,410.625 355.8594,410.625 Q356.9727,410.625 357.7539,410.3711 Q358.2031,410.2344 358.7109,409.7852 Q359.043,409.5313 359.2188,409.4531 Q359.3945,409.375 359.6094,409.375 Q360.0195,409.375 360.3125,409.707 Q360.625,410.0195 360.625,410.4688 Q360.625,410.8984 360.1953,411.4063 Q359.5703,412.1484 358.5742,412.5586 Q357.2656,413.125 355.6641,413.125 Q353.7891,413.125 352.2852,412.3828 Q351.0742,411.7969 350.2148,410.5273 Q349.375,409.2578 349.375,407.7539 L349.375,406.3867 Q349.375,404.8242 350.1172,403.457 Q350.8789,402.0898 352.1875,401.3672 Q353.5156,400.625 355,400.625 Q355.8984,400.625 356.6797,400.9375 Q357.4609,401.25 358.125,401.875 Z "/><text fill="#000000" font-family="sans-serif" font-size="15" lengthAdjust="spacingAndGlyphs" textLength="183.75" x="373.125" y="412.3877">VehicleBusinessController</text><line style="stroke: #A80036; stroke-width: 1.875;" x1="338.125" x2="559.375" y1="426.25" y2="426.25"/><line style="stroke: #A80036; stroke-width: 1.875;" x1="338.125" x2="559.375" y1="436.25" y2="436.25"/><ellipse cx="350.625" cy="450" fill="#84BE84" rx="3.75" ry="3.75" style="stroke: #038048; stroke-width: 1.25;"/><text fill="#000000" font-family="sans-serif" font-size="13.75" lengthAdjust="spacingAndGlyphs" textLength="168.75" x="361.875" y="455.5237">create(dto : VehicleDto) : int</text><!--MD5=[17cb76f6f20ab93b992c46e16d78044e]
class VehicleDao--><rect fill="#FEFECE" filter="url(#fn3a8djhc1mqb)" height="77.2949" id="VehicleDao" style="stroke: #A80036; stroke-width: 1.875;" width="201.25" x="556.875" y="768.75"/><ellipse cx="612.1875" cy="788.75" fill="#B4A7E5" rx="13.75" ry="13.75" style="stroke: #A80036; stroke-width: 1.25;"/><path d="M613.4375,785 L613.4375,792.5 L615.9375,792.5 L616.543,792.5 L617.1875,793.2813 L617.1875,793.75 L617.1875,794.2188 L616.543,795 L615.9375,795 L608.4375,795 L607.832,795 L607.1875,794.2188 L607.1875,793.75 L607.1875,793.2813 L607.832,792.5 L608.4375,792.5 L610.9375,792.5 L610.9375,785 L608.4375,785 L607.832,785 L607.1875,784.2188 L607.1875,783.75 L607.1875,783.2813 L607.832,782.5 L608.4375,782.5 L615.9375,782.5 L616.543,782.5 L617.1875,783.2813 L617.1875,783.75 L617.1875,784.2188 L616.543,785 L615.9375,785 L613.4375,785 Z "/><text fill="#000000" font-family="sans-serif" font-size="15" font-style="italic" lengthAdjust="spacingAndGlyphs" textLength="80" x="637.8125" y="794.8877">VehicleDao</text><line style="stroke: #A80036; stroke-width: 1.875;" x1="558.125" x2="756.875" y1="808.75" y2="808.75"/><line style="stroke: #A80036; stroke-width: 1.875;" x1="558.125" x2="756.875" y1="818.75" y2="818.75"/><ellipse cx="570.625" cy="832.5" fill="#84BE84" rx="3.75" ry="3.75" style="stroke: #038048; stroke-width: 1.25;"/><text fill="#000000" font-family="sans-serif" font-size="13.75" lengthAdjust="spacingAndGlyphs" textLength="168.75" x="581.875" y="838.0237">create(dto : VehicleDto) : int</text><!--MD5=[20a3a39abeefdf75b64ae3a4bf528af8]
class GenericDao--><rect fill="#FEFECE" filter="url(#fn3a8djhc1mqb)" height="77.2949" id="GenericDao" style="stroke: #A80036; stroke-width: 1.875;" width="205" x="553.75" y="605"/><ellipse cx="572.5" cy="625" fill="#B4A7E5" rx="13.75" ry="13.75" style="stroke: #A80036; stroke-width: 1.25;"/><path d="M573.75,621.25 L573.75,628.75 L576.25,628.75 L576.8555,628.75 L577.5,629.5313 L577.5,630 L577.5,630.4688 L576.8555,631.25 L576.25,631.25 L568.75,631.25 L568.1445,631.25 L567.5,630.4688 L567.5,630 L567.5,629.5313 L568.1445,628.75 L568.75,628.75 L571.25,628.75 L571.25,621.25 L568.75,621.25 L568.1445,621.25 L567.5,620.4688 L567.5,620 L567.5,619.5313 L568.1445,618.75 L568.75,618.75 L576.25,618.75 L576.8555,618.75 L577.5,619.5313 L577.5,620 L577.5,620.4688 L576.8555,621.25 L576.25,621.25 L573.75,621.25 Z "/><text fill="#000000" font-family="sans-serif" font-size="15" font-style="italic" lengthAdjust="spacingAndGlyphs" textLength="82.5" x="590" y="631.1377">GenericDao</text><rect fill="#FFFFFF" height="21.3672" style="stroke: #000000; stroke-width: 1.25; stroke-dasharray: 2.0,2.0;" width="80" x="682.5" y="601.25"/><text fill="#000000" font-family="sans-serif" font-size="15" font-style="italic" lengthAdjust="spacingAndGlyphs" textLength="77.5" x="683.75" y="618.0713">ENTITY, ID</text><line style="stroke: #A80036; stroke-width: 1.875;" x1="555" x2="757.5" y1="645" y2="645"/><line style="stroke: #A80036; stroke-width: 1.875;" x1="555" x2="757.5" y1="655" y2="655"/><ellipse cx="567.5" cy="668.75" fill="#84BE84" rx="3.75" ry="3.75" style="stroke: #038048; stroke-width: 1.25;"/><text fill="#000000" font-family="sans-serif" font-size="13.75" lengthAdjust="spacingAndGlyphs" textLength="172.5" x="578.75" y="674.2737">create(entity : ENTITY) : void</text><!--MD5=[4ff24502377561381df4597efd4e8405]
class DaoFactory--><rect fill="#FEFECE" filter="url(#fn3a8djhc1mqb)" height="77.2949" id="DaoFactory" style="stroke: #A80036; stroke-width: 1.875;" width="210" x="300" y="605"/><ellipse cx="360.3125" cy="625" fill="#A9DCDF" rx="13.75" ry="13.75" style="stroke: #A80036; stroke-width: 1.25;"/><path d="M362.5,626.875 L358.3789,626.875 L357.832,628.125 L357.832,628.125 L358.418,628.125 L359.0625,628.9063 L359.0625,629.375 L359.0625,629.8438 L358.418,630.625 L357.832,630.625 L355.4688,630.625 L354.707,630.625 L354.0625,629.8438 L354.0625,629.375 L354.0625,628.9063 L354.707,628.125 L355.4688,628.125 L358.3594,620.625 L357.2656,620.625 L355.957,620.625 L355.3125,619.8438 L355.3125,619.375 L355.3125,618.9063 L355.957,618.125 L357.2656,618.125 L361.8555,618.125 L365.2148,628.125 L365.918,628.125 L365.918,628.125 L366.5625,628.9063 L366.5625,629.375 L366.5625,629.8438 L365.918,630.625 L365.2148,630.625 L362.8516,630.625 L362.207,630.625 L361.5625,629.8438 L361.5625,629.375 L361.5625,628.9063 L362.207,628.125 L362.8516,628.125 L362.8516,628.125 L362.5,626.875 Z M361.8164,624.375 L360.3125,619.9023 L359.0234,624.375 L361.8164,624.375 Z "/><text fill="#000000" font-family="sans-serif" font-size="15" font-style="italic" lengthAdjust="spacingAndGlyphs" textLength="78.75" x="385.9375" y="631.1377">DaoFactory</text><line style="stroke: #A80036; stroke-width: 1.875;" x1="301.25" x2="508.75" y1="645" y2="645"/><line style="stroke: #A80036; stroke-width: 1.875;" x1="301.25" x2="508.75" y1="655" y2="655"/><ellipse cx="313.75" cy="668.75" fill="#84BE84" rx="3.75" ry="3.75" style="stroke: #038048; stroke-width: 1.25;"/><text fill="#000000" font-family="sans-serif" font-size="13.75" lengthAdjust="spacingAndGlyphs" textLength="177.5" x="325" y="674.2737">getVehicleDao() : VehicleDao</text><!--MD5=[c170e8f45fd12d9a484c7de029faed35]
class VehicleDaoHibr--><rect fill="#FEFECE" filter="url(#fn3a8djhc1mqb)" height="60" id="VehicleDaoHibr" style="stroke: #A80036; stroke-width: 1.875;" width="147.5" x="365" y="932.5"/><ellipse cx="383.75" cy="952.5" fill="#ADD1B2" rx="13.75" ry="13.75" style="stroke: #A80036; stroke-width: 1.25;"/><path d="M386.25,948.125 Q386.5039,947.5 386.7969,947.1875 Q387.0898,946.875 387.4219,946.875 Q388.0078,946.875 388.3789,947.2266 Q388.75,947.5781 388.75,948.3984 L388.75,950.3516 Q388.75,951.1719 388.3984,951.5234 Q388.0469,951.875 387.5,951.875 Q387.0117,951.875 386.6992,951.6602 Q386.3867,951.4453 386.25,950.8789 Q386.1914,950.4883 385.9766,950.2734 Q385.5859,949.8633 384.8828,949.6289 Q384.1797,949.375 383.4766,949.375 Q382.5977,949.375 381.8555,949.7266 Q381.1328,950.0781 380.5664,950.8594 Q380,951.6406 380,952.7148 L380,953.8672 Q380,955.1563 381.0547,956.0156 Q382.1094,956.875 383.9844,956.875 Q385.0977,956.875 385.8789,956.6211 Q386.3281,956.4844 386.8359,956.0352 Q387.168,955.7813 387.3438,955.7031 Q387.5195,955.625 387.7344,955.625 Q388.1445,955.625 388.4375,955.957 Q388.75,956.2695 388.75,956.7188 Q388.75,957.1484 388.3203,957.6563 Q387.6953,958.3984 386.6992,958.8086 Q385.3906,959.375 383.7891,959.375 Q381.9141,959.375 380.4102,958.6328 Q379.1992,958.0469 378.3398,956.7773 Q377.5,955.5078 377.5,954.0039 L377.5,952.6367 Q377.5,951.0742 378.2422,949.707 Q379.0039,948.3398 380.3125,947.6172 Q381.6406,946.875 383.125,946.875 Q384.0234,946.875 384.8047,947.1875 Q385.5859,947.5 386.25,948.125 Z "/><text fill="#000000" font-family="sans-serif" font-size="15" lengthAdjust="spacingAndGlyphs" textLength="107.5" x="401.25" y="958.6377">VehicleDaoHibr</text><line style="stroke: #A80036; stroke-width: 1.875;" x1="366.25" x2="511.25" y1="972.5" y2="972.5"/><line style="stroke: #A80036; stroke-width: 1.875;" x1="366.25" x2="511.25" y1="982.5" y2="982.5"/><!--MD5=[1b9aa11ecf21c3c3e95150f8e8fa8db4]
class GenericDaoHibr--><rect fill="#FEFECE" filter="url(#fn3a8djhc1mqb)" height="60" id="GenericDaoHibr" style="stroke: #A80036; stroke-width: 1.875;" width="151.25" x="361.875" y="777.5"/><ellipse cx="380.625" cy="797.5" fill="#ADD1B2" rx="13.75" ry="13.75" style="stroke: #A80036; stroke-width: 1.25;"/><path d="M383.125,793.125 Q383.3789,792.5 383.6719,792.1875 Q383.9648,791.875 384.2969,791.875 Q384.8828,791.875 385.2539,792.2266 Q385.625,792.5781 385.625,793.3984 L385.625,795.3516 Q385.625,796.1719 385.2734,796.5234 Q384.9219,796.875 384.375,796.875 Q383.8867,796.875 383.5742,796.6602 Q383.2617,796.4453 383.125,795.8789 Q383.0664,795.4883 382.8516,795.2734 Q382.4609,794.8633 381.7578,794.6289 Q381.0547,794.375 380.3516,794.375 Q379.4727,794.375 378.7305,794.7266 Q378.0078,795.0781 377.4414,795.8594 Q376.875,796.6406 376.875,797.7148 L376.875,798.8672 Q376.875,800.1563 377.9297,801.0156 Q378.9844,801.875 380.8594,801.875 Q381.9727,801.875 382.7539,801.6211 Q383.2031,801.4844 383.7109,801.0352 Q384.043,800.7813 384.2188,800.7031 Q384.3945,800.625 384.6094,800.625 Q385.0195,800.625 385.3125,800.957 Q385.625,801.2695 385.625,801.7188 Q385.625,802.1484 385.1953,802.6563 Q384.5703,803.3984 383.5742,803.8086 Q382.2656,804.375 380.6641,804.375 Q378.7891,804.375 377.2852,803.6328 Q376.0742,803.0469 375.2148,801.7773 Q374.375,800.5078 374.375,799.0039 L374.375,797.6367 Q374.375,796.0742 375.1172,794.707 Q375.8789,793.3398 377.1875,792.6172 Q378.5156,791.875 380,791.875 Q380.8984,791.875 381.6797,792.1875 Q382.4609,792.5 383.125,793.125 Z "/><text fill="#000000" font-family="sans-serif" font-size="15" lengthAdjust="spacingAndGlyphs" textLength="111.25" x="398.125" y="803.6377">GenericDaoHibr</text><line style="stroke: #A80036; stroke-width: 1.875;" x1="363.125" x2="511.875" y1="817.5" y2="817.5"/><line style="stroke: #A80036; stroke-width: 1.875;" x1="363.125" x2="511.875" y1="827.5" y2="827.5"/><!--MD5=[40e9218d9d0b1d38f935f0dec40d7033]
class DaoFactoryHibr--><rect fill="#FEFECE" filter="url(#fn3a8djhc1mqb)" height="77.2949" id="DaoFactoryHibr" style="stroke: #A80036; stroke-width: 1.875;" width="210" x="107.5" y="768.75"/><ellipse cx="154.9375" cy="788.75" fill="#ADD1B2" rx="13.75" ry="13.75" style="stroke: #A80036; stroke-width: 1.25;"/><path d="M157.4375,784.375 Q157.6914,783.75 157.9844,783.4375 Q158.2773,783.125 158.6094,783.125 Q159.1953,783.125 159.5664,783.4766 Q159.9375,783.8281 159.9375,784.6484 L159.9375,786.6016 Q159.9375,787.4219 159.5859,787.7734 Q159.2344,788.125 158.6875,788.125 Q158.1992,788.125 157.8867,787.9102 Q157.5742,787.6953 157.4375,787.1289 Q157.3789,786.7383 157.1641,786.5234 Q156.7734,786.1133 156.0703,785.8789 Q155.3672,785.625 154.6641,785.625 Q153.7852,785.625 153.043,785.9766 Q152.3203,786.3281 151.7539,787.1094 Q151.1875,787.8906 151.1875,788.9648 L151.1875,790.1172 Q151.1875,791.4063 152.2422,792.2656 Q153.2969,793.125 155.1719,793.125 Q156.2852,793.125 157.0664,792.8711 Q157.5156,792.7344 158.0234,792.2852 Q158.3555,792.0313 158.5313,791.9531 Q158.707,791.875 158.9219,791.875 Q159.332,791.875 159.625,792.207 Q159.9375,792.5195 159.9375,792.9688 Q159.9375,793.3984 159.5078,793.9063 Q158.8828,794.6484 157.8867,795.0586 Q156.5781,795.625 154.9766,795.625 Q153.1016,795.625 151.5977,794.8828 Q150.3867,794.2969 149.5273,793.0273 Q148.6875,791.7578 148.6875,790.2539 L148.6875,788.8867 Q148.6875,787.3242 149.4297,785.957 Q150.1914,784.5898 151.5,783.8672 Q152.8281,783.125 154.3125,783.125 Q155.2109,783.125 155.9922,783.4375 Q156.7734,783.75 157.4375,784.375 Z "/><text fill="#000000" font-family="sans-serif" font-size="15" lengthAdjust="spacingAndGlyphs" textLength="106.25" x="178.8125" y="794.8877">DaoFactoryHibr</text><line style="stroke: #A80036; stroke-width: 1.875;" x1="108.75" x2="316.25" y1="808.75" y2="808.75"/><line style="stroke: #A80036; stroke-width: 1.875;" x1="108.75" x2="316.25" y1="818.75" y2="818.75"/><ellipse cx="121.25" cy="832.5" fill="#84BE84" rx="3.75" ry="3.75" style="stroke: #038048; stroke-width: 1.25;"/><text fill="#000000" font-family="sans-serif" font-size="13.75" lengthAdjust="spacingAndGlyphs" textLength="177.5" x="132.5" y="838.0237">getVehicleDao() : VehicleDao</text><!--MD5=[3aa0d89c6bfdcbf7f32042cedac57549]
class Vehicle--><rect fill="#FEFECE" filter="url(#fn3a8djhc1mqb)" height="60" id="Vehicle" style="stroke: #A80036; stroke-width: 1.875;" width="90" x="625" y="932.5"/><ellipse cx="643.75" cy="952.5" fill="#ADD1B2" rx="13.75" ry="13.75" style="stroke: #A80036; stroke-width: 1.25;"/><path d="M646.25,948.125 Q646.5039,947.5 646.7969,947.1875 Q647.0898,946.875 647.4219,946.875 Q648.0078,946.875 648.3789,947.2266 Q648.75,947.5781 648.75,948.3984 L648.75,950.3516 Q648.75,951.1719 648.3984,951.5234 Q648.0469,951.875 647.5,951.875 Q647.0117,951.875 646.6992,951.6602 Q646.3867,951.4453 646.25,950.8789 Q646.1914,950.4883 645.9766,950.2734 Q645.5859,949.8633 644.8828,949.6289 Q644.1797,949.375 643.4766,949.375 Q642.5977,949.375 641.8555,949.7266 Q641.1328,950.0781 640.5664,950.8594 Q640,951.6406 640,952.7148 L640,953.8672 Q640,955.1563 641.0547,956.0156 Q642.1094,956.875 643.9844,956.875 Q645.0977,956.875 645.8789,956.6211 Q646.3281,956.4844 646.8359,956.0352 Q647.168,955.7813 647.3438,955.7031 Q647.5195,955.625 647.7344,955.625 Q648.1445,955.625 648.4375,955.957 Q648.75,956.2695 648.75,956.7188 Q648.75,957.1484 648.3203,957.6563 Q647.6953,958.3984 646.6992,958.8086 Q645.3906,959.375 643.7891,959.375 Q641.9141,959.375 640.4102,958.6328 Q639.1992,958.0469 638.3398,956.7773 Q637.5,955.5078 637.5,954.0039 L637.5,952.6367 Q637.5,951.0742 638.2422,949.707 Q639.0039,948.3398 640.3125,947.6172 Q641.6406,946.875 643.125,946.875 Q644.0234,946.875 644.8047,947.1875 Q645.5859,947.5 646.25,948.125 Z "/><text fill="#000000" font-family="sans-serif" font-size="15" lengthAdjust="spacingAndGlyphs" textLength="50" x="661.25" y="958.6377">Vehicle</text><line style="stroke: #A80036; stroke-width: 1.875;" x1="626.25" x2="713.75" y1="972.5" y2="972.5"/><line style="stroke: #A80036; stroke-width: 1.875;" x1="626.25" x2="713.75" y1="982.5" y2="982.5"/><!--MD5=[2a3318510e39bebe3203e38e65057176]
class VehicleDto--><rect fill="#FEFECE" filter="url(#fn3a8djhc1mqb)" height="60" id="VehicleDto" style="stroke: #A80036; stroke-width: 1.875;" width="113.75" x="829.375" y="777.5"/><ellipse cx="848.125" cy="797.5" fill="#ADD1B2" rx="13.75" ry="13.75" style="stroke: #A80036; stroke-width: 1.25;"/><path d="M850.625,793.125 Q850.8789,792.5 851.1719,792.1875 Q851.4648,791.875 851.7969,791.875 Q852.3828,791.875 852.7539,792.2266 Q853.125,792.5781 853.125,793.3984 L853.125,795.3516 Q853.125,796.1719 852.7734,796.5234 Q852.4219,796.875 851.875,796.875 Q851.3867,796.875 851.0742,796.6602 Q850.7617,796.4453 850.625,795.8789 Q850.5664,795.4883 850.3516,795.2734 Q849.9609,794.8633 849.2578,794.6289 Q848.5547,794.375 847.8516,794.375 Q846.9727,794.375 846.2305,794.7266 Q845.5078,795.0781 844.9414,795.8594 Q844.375,796.6406 844.375,797.7148 L844.375,798.8672 Q844.375,800.1563 845.4297,801.0156 Q846.4844,801.875 848.3594,801.875 Q849.4727,801.875 850.2539,801.6211 Q850.7031,801.4844 851.2109,801.0352 Q851.543,800.7813 851.7188,800.7031 Q851.8945,800.625 852.1094,800.625 Q852.5195,800.625 852.8125,800.957 Q853.125,801.2695 853.125,801.7188 Q853.125,802.1484 852.6953,802.6563 Q852.0703,803.3984 851.0742,803.8086 Q849.7656,804.375 848.1641,804.375 Q846.2891,804.375 844.7852,803.6328 Q843.5742,803.0469 842.7148,801.7773 Q841.875,800.5078 841.875,799.0039 L841.875,797.6367 Q841.875,796.0742 842.6172,794.707 Q843.3789,793.3398 844.6875,792.6172 Q846.0156,791.875 847.5,791.875 Q848.3984,791.875 849.1797,792.1875 Q849.9609,792.5 850.625,793.125 Z "/><text fill="#000000" font-family="sans-serif" font-size="15" lengthAdjust="spacingAndGlyphs" textLength="73.75" x="865.625" y="803.6377">VehicleDto</text><line style="stroke: #A80036; stroke-width: 1.875;" x1="830.625" x2="941.875" y1="817.5" y2="817.5"/><line style="stroke: #A80036; stroke-width: 1.875;" x1="830.625" x2="941.875" y1="827.5" y2="827.5"/><!--MD5=[464f7c77757c968b1cb86a639d6eb000]
class VehicleMapper--><rect fill="#FEFECE" filter="url(#fn3a8djhc1mqb)" height="60" id="VehicleMapper" style="stroke: #A80036; stroke-width: 1.875;" width="141.25" x="859.375" y="613.75"/><ellipse cx="878.125" cy="633.75" fill="#ADD1B2" rx="13.75" ry="13.75" style="stroke: #A80036; stroke-width: 1.25;"/><path d="M880.625,629.375 Q880.8789,628.75 881.1719,628.4375 Q881.4648,628.125 881.7969,628.125 Q882.3828,628.125 882.7539,628.4766 Q883.125,628.8281 883.125,629.6484 L883.125,631.6016 Q883.125,632.4219 882.7734,632.7734 Q882.4219,633.125 881.875,633.125 Q881.3867,633.125 881.0742,632.9102 Q880.7617,632.6953 880.625,632.1289 Q880.5664,631.7383 880.3516,631.5234 Q879.9609,631.1133 879.2578,630.8789 Q878.5547,630.625 877.8516,630.625 Q876.9727,630.625 876.2305,630.9766 Q875.5078,631.3281 874.9414,632.1094 Q874.375,632.8906 874.375,633.9648 L874.375,635.1172 Q874.375,636.4063 875.4297,637.2656 Q876.4844,638.125 878.3594,638.125 Q879.4727,638.125 880.2539,637.8711 Q880.7031,637.7344 881.2109,637.2852 Q881.543,637.0313 881.7188,636.9531 Q881.8945,636.875 882.1094,636.875 Q882.5195,636.875 882.8125,637.207 Q883.125,637.5195 883.125,637.9688 Q883.125,638.3984 882.6953,638.9063 Q882.0703,639.6484 881.0742,640.0586 Q879.7656,640.625 878.1641,640.625 Q876.2891,640.625 874.7852,639.8828 Q873.5742,639.2969 872.7148,638.0273 Q871.875,636.7578 871.875,635.2539 L871.875,633.8867 Q871.875,632.3242 872.6172,630.957 Q873.3789,629.5898 874.6875,628.8672 Q876.0156,628.125 877.5,628.125 Q878.3984,628.125 879.1797,628.4375 Q879.9609,628.75 880.625,629.375 Z "/><text fill="#000000" font-family="sans-serif" font-size="15" lengthAdjust="spacingAndGlyphs" textLength="101.25" x="895.625" y="639.8877">VehicleMapper</text><line style="stroke: #A80036; stroke-width: 1.875;" x1="860.625" x2="999.375" y1="653.75" y2="653.75"/><line style="stroke: #A80036; stroke-width: 1.875;" x1="860.625" x2="999.375" y1="663.75" y2="663.75"/><!--MD5=[1110c690b429348679ab90f8e736619f]
link VehicleApiController to VehicleBusinessController--><path d="M440.4148,306.6934 C440.4148,306.6934 443.53,350.4263 444.885,369.4575 " fill="none" id="VehicleApiController-VehicleBusinessController" style="stroke: #A80036; stroke-width: 1.25;"/><polygon fill="#A80036" points="446.0663,386.055,450.255,374.4784,445.6226,379.8208,440.2802,375.1883,446.0663,386.055" style="stroke: #A80036; stroke-width: 1.25;"/><line style="stroke: #A80036; stroke-width: 1.25;" x1="445.6226" x2="444.9119" y1="379.8208" y2="369.8463"/><polygon fill="#FFFFFF" points="439.35,291.7313,434.895,299.5673,440.4148,306.6934,444.8698,298.8574,439.35,291.7313" style="stroke: #A80036; stroke-width: 1.25;"/><!--MD5=[4ce9df907195900402b956b549558c4f]
link VehicleBusinessController to DaoFactory--><path d="M438.155,478.6198 C438.155,478.6198 422.6063,555.4762 415.9175,588.5388 " fill="none" id="VehicleBusinessController-DaoFactory" style="stroke: #A80036; stroke-width: 1.25;"/><polygon fill="#A80036" points="412.6063,604.9013,419.7384,594.8666,413.846,598.7754,409.9371,592.883,412.6063,604.9013" style="stroke: #A80036; stroke-width: 1.25;"/><line style="stroke: #A80036; stroke-width: 1.25;" x1="413.846" x2="415.8294" y1="598.7754" y2="588.9744"/><polygon fill="#FFFFFF" points="441.1288,463.9175,434.7411,470.2774,438.155,478.6198,444.5426,472.2599,441.1288,463.9175" style="stroke: #A80036; stroke-width: 1.25;"/><!--MD5=[0ebddda80a48c7add59e66a37e156399]
link VehicleBusinessController to VehicleDto--><path d="M539.0288,463.75 C576.4313,479.2875 611.25,493.75 611.25,493.75 C611.25,493.75 778.75,503.75 778.75,503.75 C778.75,503.75 838.75,703.75 838.75,703.75 C838.75,703.75 856.3038,741.6288 870.0687,771.3338 " fill="none" id="VehicleBusinessController-&gt;VehicleDto" style="stroke: #A80036; stroke-width: 1.25; stroke-dasharray: 7.0,7.0;"/><polygon fill="#A80036" points="872.765,777.1513,872.5707,764.8417,870.1368,771.4807,863.4979,769.0468,872.765,777.1513" style="stroke: #A80036; stroke-width: 1.25;"/><!--MD5=[174763aeabeb4a78bbcbec66809b5157]
link VehicleBusinessController to VehicleMapper--><path d="M539.0288,463.75 C576.4313,479.2875 611.25,493.75 611.25,493.75 C611.25,493.75 820,503.75 820,503.75 C820,503.75 870.0863,566.9275 902.6637,608.02 " fill="none" id="VehicleBusinessController-&gt;VehicleMapper" style="stroke: #A80036; stroke-width: 1.25;"/><polygon fill="#A80036" points="906.94,613.4137,903.866,601.4926,903.0559,608.5172,896.0314,607.7071,906.94,613.4137" style="stroke: #A80036; stroke-width: 1.25;"/><!--MD5=[d89d564b84570ffc5f90d7c37cc1382f]
link VehicleApiController to BadRequestException--><path d="M527.1475,291.4663 C577.1488,324.48 636.9713,363.9775 678.155,391.1687 " fill="none" id="VehicleApiController-&gt;BadRequestException" style="stroke: #A80036; stroke-width: 1.25; stroke-dasharray: 7.0,7.0;"/><polygon fill="#A80036" points="683.5863,394.755,676.9539,384.3832,678.3709,391.3108,671.4432,392.7278,683.5863,394.755" style="stroke: #A80036; stroke-width: 1.25;"/><!--MD5=[1d465a9c9678fc2be0b4a2218edd1ef0]
link VehicleBusinessController to BadRequestException--><path d="M560.9188,425 C580.2925,425 609.4125,425 624.585,425 " fill="none" id="VehicleBusinessController-&gt;BadRequestException" style="stroke: #A80036; stroke-width: 1.25; stroke-dasharray: 7.0,7.0;"/><polygon fill="#A80036" points="631.1225,425,619.8725,420,624.8725,425,619.8725,430,631.1225,425" style="stroke: #A80036; stroke-width: 1.25;"/><!--MD5=[125791b638d5c602e05e6b76749e54ea]
link VehicleDao to Vehicle--><path d="M660.59,846.4463 C662.5725,870.6338 665.13,901.8438 667.0788,925.615 " fill="none" id="VehicleDao-&gt;Vehicle" style="stroke: #A80036; stroke-width: 1.25; stroke-dasharray: 7.0,7.0;"/><polygon fill="#A80036" points="667.6113,932.1112,671.6752,920.4903,667.1005,925.8822,661.7086,921.3075,667.6113,932.1112" style="stroke: #A80036; stroke-width: 1.25;"/><!--MD5=[a1b2f7844f439280668721fa2b63726d]
link VehicleMapper to Vehicle--><path d="M951.96,673.7575 C966.3475,692.5975 982.5,713.75 982.5,713.75 C982.5,713.75 982.5,867.5 982.5,867.5 C982.5,867.5 810.025,919.2425 721.3438,945.8475 " fill="none" id="VehicleMapper-&gt;Vehicle" style="stroke: #A80036; stroke-width: 1.25; stroke-dasharray: 7.0,7.0;"/><polygon fill="#A80036" points="715.1063,947.7175,727.3186,949.2736,721.0926,945.9214,724.4448,939.6954,715.1063,947.7175" style="stroke: #A80036; stroke-width: 1.25;"/><!--MD5=[774115ecbe9f9f82c52493b15d758418]
link VehicleMapper to VehicleDto--><path d="M922.1788,673.8288 C914.8213,700.9463 903.785,741.6225 895.8862,770.7325 " fill="none" id="VehicleMapper-&gt;VehicleDto" style="stroke: #A80036; stroke-width: 1.25; stroke-dasharray: 7.0,7.0;"/><polygon fill="#A80036" points="894.1513,777.1275,901.9246,767.5809,895.7891,771.0959,892.2741,764.9604,894.1513,777.1275" style="stroke: #A80036; stroke-width: 1.25;"/><!--MD5=[756a97fe561ad5f41eca9a32fc912222]
link BadRequestExceptionMapper to BadRequestException--><path d="M808.225,273.4863 C789.5663,308.2175 763.6063,356.54 746.2125,388.9188 " fill="none" id="BadRequestExceptionMapper-&gt;BadRequestException" style="stroke: #A80036; stroke-width: 1.25; stroke-dasharray: 7.0,7.0;"/><polygon fill="#A80036" points="743.0675,394.7725,752.7957,387.2277,746.025,389.2665,743.9862,382.4958,743.0675,394.7725" style="stroke: #A80036; stroke-width: 1.25;"/><!--MD5=[f2fbcd049e4765371ce21af24efc0b5d]
link BadRequestExceptionMapper to ErrorMessage--><path d="M854.5525,273.4863 C873.4363,308.2175 899.7088,356.54 917.3125,388.9188 " fill="none" id="BadRequestExceptionMapper-&gt;ErrorMessage" style="stroke: #A80036; stroke-width: 1.25; stroke-dasharray: 7.0,7.0;"/><polygon fill="#A80036" points="920.495,394.7725,919.5136,382.5006,917.5094,389.2817,910.7283,387.2775,920.495,394.7725" style="stroke: #A80036; stroke-width: 1.25;"/><!--MD5=[9e1ea553ec7e328b472f5ff18084ed81]
reverse link VehicleDao to VehicleDaoHibr--><path d="M582.8538,860.7887 C548.5325,884.715 509.1213,912.1912 480.1988,932.355 " fill="none" id="VehicleDao&lt;-VehicleDaoHibr" style="stroke: #A80036; stroke-width: 1.25;"/><polygon fill="none" points="577.915,853.5663,603.4275,846.4463,587.9225,867.9213,577.915,853.5663" style="stroke: #A80036; stroke-width: 1.25;"/><!--MD5=[1ea0f2a96077ff920472c209a249e97a]
reverse link GenericDaoHibr to VehicleDaoHibr--><path d="M437.9438,862.8438 C438.135,886.26 438.3525,912.7312 438.5125,932.315 " fill="none" id="GenericDaoHibr&lt;-VehicleDaoHibr" style="stroke: #A80036; stroke-width: 1.25;"/><polygon fill="none" points="429.1938,862.8638,437.7375,837.7925,446.6925,862.72,429.1938,862.8638" style="stroke: #A80036; stroke-width: 1.25;"/><!--MD5=[9931e5148a4e3ec3660ba12ec61f8009]
reverse link GenericDao to GenericDaoHibr--><path d="M557.935,693.715 C535.1888,704.985 517.5,713.75 517.5,713.75 C517.5,713.75 485.8588,750.3363 462.3738,777.49 " fill="none" id="GenericDao&lt;-GenericDaoHibr" style="stroke: #A80036; stroke-width: 1.25;"/><polygon fill="none" points="554.0938,685.8525,580.38,682.5938,561.8638,701.5337,554.0938,685.8525" style="stroke: #A80036; stroke-width: 1.25;"/><!--MD5=[7537a7e49d1b4b789fdd30e9630a5571]
reverse link GenericDao to VehicleDao--><path d="M656.7375,707.955 C656.8975,728.485 657.0687,750.6213 657.2088,768.6812 " fill="none" id="GenericDao&lt;-VehicleDao" style="stroke: #A80036; stroke-width: 1.25;"/><polygon fill="none" points="647.9875,707.8725,656.5425,682.8063,665.4863,707.7375,647.9875,707.8725" style="stroke: #A80036; stroke-width: 1.25;"/><!--MD5=[06ae3205ee9531e675179d674295e8ca]
reverse link DaoFactory to DaoFactoryHibr--><path d="M340.3825,699.1275 C313.1163,721.9675 282.04,747.9988 257.35,768.6812 " fill="none" id="DaoFactory&lt;-DaoFactoryHibr" style="stroke: #A80036; stroke-width: 1.25;"/><polygon fill="none" points="335.0838,692.1525,359.8675,682.8063,346.3213,705.5675,335.0838,692.1525" style="stroke: #A80036; stroke-width: 1.25;"/><!--MD5=[bc024af76e716a9f3cef23a59b96213e]
link DaoFactory to VehicleDao--><path d="M488.6337,689.6602 C488.6337,689.6602 533.75,713.75 533.75,713.75 C533.75,713.75 563.4613,735.9588 593.7675,758.6113 " fill="none" id="DaoFactory-VehicleDao" style="stroke: #A80036; stroke-width: 1.25;"/><polygon fill="#A80036" points="607.1663,768.6263,601.1485,757.8862,602.1601,764.8845,595.1617,765.896,607.1663,768.6263" style="stroke: #A80036; stroke-width: 1.25;"/><line style="stroke: #A80036; stroke-width: 1.25;" x1="602.1601" x2="594.15" y1="764.8845" y2="758.8981"/><polygon fill="#FFFFFF" points="475.4025,682.5938,479.6626,690.5374,488.6337,689.6602,484.3736,681.7166,475.4025,682.5938" style="stroke: #A80036; stroke-width: 1.25;"/><!--MD5=[9e128a169d0e6acd128b92dd4e64bc5f]
@startuml
skinparam linetype polyline
allow_mixing


package api as "API REST (Backend)"{

        package exceptions {
            package handlers {
                Class BadRequestExceptionMapper <<@Provider>> {
                    + toResponse(e : BadRequestException) : Response
                }
            }
            class BadRequestException

            class ErrorMessage

        }

        package api_controllers {
            class VehicleApiController <<@Api>><<@Path>> {
                - VEHICLES : String = "/vehicles"
                + create(dto : VehicleDto) : VehicleDto
            }
        }

        package business_controllers {
            class VehicleBusinessController {
                + create(dto : VehicleDto) : int
            }
        }



        package daos {
            interface VehicleDao {
                        + create(dto : VehicleDto) : int
            }

            interface GenericDao <ENTITY, ID> {
                + create(entity : ENTITY) : void
            }

            abstract DaoFactory {
                + getVehicleDao() : VehicleDao
            }



            package hibernate {

                class VehicleDaoHibr

                class GenericDaoHibr

                class DaoFactoryHibr {
                    + getVehicleDao() : VehicleDao
                }
            }

            package entities {
                class Vehicle
            }

        }

        package dtos {
            class VehicleDto

            package mappers {
                class VehicleMapper
            }

        }


}


VehicleApiController o- -> VehicleBusinessController
VehicleBusinessController o- -> DaoFactory
VehicleBusinessController ..> VehicleDto
VehicleBusinessController - -> VehicleMapper
VehicleApiController .right.> BadRequestException
VehicleBusinessController .right.> BadRequestException
VehicleDao ..> Vehicle
VehicleMapper ..> Vehicle
VehicleMapper ..> VehicleDto

BadRequestExceptionMapper ..> BadRequestException
BadRequestExceptionMapper ..> ErrorMessage
VehicleDao <|- - VehicleDaoHibr
GenericDaoHibr <|- - VehicleDaoHibr
GenericDao <|- - GenericDaoHibr
GenericDao <|- - VehicleDao
DaoFactory <|- - DaoFactoryHibr
DaoFactory o- -> VehicleDao

@enduml

PlantUML version 1.2020.09(Sun May 10 12:51:06 CEST 2020)
(GPL source distribution)
Java Runtime: OpenJDK Runtime Environment
JVM: OpenJDK 64-Bit Server VM
Java Version: 11.0.8+10-b1094.1
Operating System: Windows 10
Default Encoding: Cp1252
Language: en
Country: GB
--></g></svg>