<?xml version="1.0" encoding="UTF-8" standalone="no"?><svg xmlns="http://www.w3.org/2000/svg" xmlns:xlink="http://www.w3.org/1999/xlink" contentScriptType="application/ecmascript" contentStyleType="text/css" height="1057.5px" preserveAspectRatio="none" style="width:842px;height:1057px;" version="1.1" viewBox="0 0 842 1057" width="842.5px" zoomAndPan="magnify"><defs><filter height="300%" id="fvjf3bwj4hkzp" width="300%" x="-1" y="-1"><feGaussianBlur result="blurOut" stdDeviation="2.5"/><feColorMatrix in="blurOut" result="blurOut2" type="matrix" values="0 0 0 0 0 0 0 0 0 0 0 0 0 0 0 0 0 0 .4 0"/><feOffset dx="5.0" dy="5.0" in="blurOut2" result="blurOut3"/><feBlend in="SourceGraphic" in2="blurOut3" mode="normal"/></filter></defs><g><!--MD5=[7442f3b126ee602ae02566c1a49e158a]
cluster api--><polygon fill="#FFFFFF" filter="url(#fvjf3bwj4hkzp)" points="27.5,30,206.25,30,215,59.5117,637.5,59.5117,637.5,1042.5,27.5,1042.5,27.5,30" style="stroke: #000000; stroke-width: 1.875;"/><line style="stroke: #000000; stroke-width: 1.875;" x1="27.5" x2="215" y1="59.5117" y2="59.5117"/><text fill="#000000" font-family="sans-serif" font-size="17.5" font-weight="bold" lengthAdjust="spacingAndGlyphs" textLength="171.25" x="32.5" y="50.6665">API REST (Backend)</text><!--MD5=[5880d1a92aa52ab2ecce262bfcbf7bf1]
cluster business_layer--><polygon fill="#E1ECED" filter="url(#fvjf3bwj4hkzp)" points="165,95,301.25,95,310,124.5117,597.5,124.5117,597.5,483.75,165,483.75,165,95" style="stroke: #000000; stroke-width: 1.875;"/><line style="stroke: #000000; stroke-width: 1.875;" x1="165" x2="310" y1="124.5117" y2="124.5117"/><text fill="#000000" font-family="sans-serif" font-size="17.5" font-weight="bold" lengthAdjust="spacingAndGlyphs" textLength="128.75" x="170" y="115.6665">Business layer</text><!--MD5=[3f9e515f2676bb1a608caf5fe77684a2]
cluster data_layer--><polygon fill="#E1ECED" filter="url(#fvjf3bwj4hkzp)" points="297.5,560,391.25,560,400,589.5117,543.75,589.5117,543.75,1002.5,297.5,1002.5,297.5,560" style="stroke: #000000; stroke-width: 1.875;"/><line style="stroke: #000000; stroke-width: 1.875;" x1="297.5" x2="400" y1="589.5117" y2="589.5117"/><text fill="#000000" font-family="sans-serif" font-size="17.5" font-weight="bold" lengthAdjust="spacingAndGlyphs" textLength="86.25" x="302.5" y="580.6665">Data layer</text><!--MD5=[31e74d3e9cc554d5981f55118eb73ecc]
cluster dto_layer--><polygon fill="#E1ECED" filter="url(#fvjf3bwj4hkzp)" points="67.5,696.25,235,696.25,243.75,725.7617,247.5,725.7617,247.5,832.5,67.5,832.5,67.5,696.25" style="stroke: #000000; stroke-width: 1.875;"/><line style="stroke: #000000; stroke-width: 1.875;" x1="67.5" x2="243.75" y1="725.7617" y2="725.7617"/><text fill="#000000" font-family="sans-serif" font-size="17.5" font-weight="bold" lengthAdjust="spacingAndGlyphs" textLength="160" x="72.5" y="716.9165">data transfer layer</text><!--MD5=[4fc5f174e81f985a2508f8d33e7837ec]
cluster database_layer--><polygon fill="#E1ECED" filter="url(#fvjf3bwj4hkzp)" points="667.5,872.5,802.5,872.5,811.25,902.0117,815,902.0117,815,996.25,667.5,996.25,667.5,872.5" style="stroke: #000000; stroke-width: 1.875;"/><line style="stroke: #000000; stroke-width: 1.875;" x1="667.5" x2="811.25" y1="902.0117" y2="902.0117"/><text fill="#000000" font-family="sans-serif" font-size="17.5" font-weight="bold" lengthAdjust="spacingAndGlyphs" textLength="127.5" x="672.5" y="893.1665">database layer</text><!--MD5=[6f42fdf9caaa435e9c7a383376a1e86f]
entity api_controllers--><polygon fill="#FEFECE" filter="url(#fvjf3bwj4hkzp)" points="218.75,150,358.75,150,367.5,179.5117,388.75,179.5117,388.75,200.7617,218.75,200.7617,218.75,150" style="stroke: #000000; stroke-width: 1.875;"/><line style="stroke: #000000; stroke-width: 1.875;" x1="218.75" x2="367.5" y1="179.5117" y2="179.5117"/><text fill="#000000" font-family="sans-serif" font-size="17.5" font-weight="bold" lengthAdjust="spacingAndGlyphs" textLength="132.5" x="223.75" y="171.9165">api_controllers</text><!--MD5=[846fb1ca125f651f5c33ec458ec761bb]
entity business_controllers--><polygon fill="#FEFECE" filter="url(#fvjf3bwj4hkzp)" points="265.625,276.25,459.375,276.25,468.125,305.7617,489.375,305.7617,489.375,327.0117,265.625,327.0117,265.625,276.25" style="stroke: #000000; stroke-width: 1.875;"/><line style="stroke: #000000; stroke-width: 1.875;" x1="265.625" x2="468.125" y1="305.7617" y2="305.7617"/><text fill="#000000" font-family="sans-serif" font-size="17.5" font-weight="bold" lengthAdjust="spacingAndGlyphs" textLength="186.25" x="270.625" y="298.1665">business_controllers</text><!--MD5=[edbf8080f03594cd1cdf92f6a017abfa]
entity business_services--><polygon fill="#FEFECE" filter="url(#fvjf3bwj4hkzp)" points="309.375,402.5,483.125,402.5,491.875,432.0117,513.125,432.0117,513.125,453.2617,309.375,453.2617,309.375,402.5" style="stroke: #000000; stroke-width: 1.875;"/><line style="stroke: #000000; stroke-width: 1.875;" x1="309.375" x2="491.875" y1="432.0117" y2="432.0117"/><text fill="#000000" font-family="sans-serif" font-size="17.5" font-weight="bold" lengthAdjust="spacingAndGlyphs" textLength="166.25" x="314.375" y="424.4165">business_services</text><!--MD5=[1cb715a40398ef3607f1d329c54535e7]
entity exceptions--><polygon fill="#FEFECE" filter="url(#fvjf3bwj4hkzp)" points="432.5,150,537.5,150,546.25,179.5117,567.5,179.5117,567.5,200.7617,432.5,200.7617,432.5,150" style="stroke: #000000; stroke-width: 1.875;"/><line style="stroke: #000000; stroke-width: 1.875;" x1="432.5" x2="546.25" y1="179.5117" y2="179.5117"/><text fill="#000000" font-family="sans-serif" font-size="17.5" font-weight="bold" lengthAdjust="spacingAndGlyphs" textLength="97.5" x="437.5" y="171.9165">exceptions</text><!--MD5=[96711085c3cf3cd3ce1750c7e267598f]
entity data_services--><polygon fill="#FEFECE" filter="url(#fvjf3bwj4hkzp)" points="351.875,615,483.125,615,491.875,644.5117,513.125,644.5117,513.125,665.7617,351.875,665.7617,351.875,615" style="stroke: #000000; stroke-width: 1.875;"/><line style="stroke: #000000; stroke-width: 1.875;" x1="351.875" x2="491.875" y1="644.5117" y2="644.5117"/><text fill="#000000" font-family="sans-serif" font-size="17.5" font-weight="bold" lengthAdjust="spacingAndGlyphs" textLength="123.75" x="356.875" y="636.9165">data_services</text><!--MD5=[1e8cc644e82844cae882d66ff19aec90]
entity daos--><polygon fill="#FEFECE" filter="url(#fvjf3bwj4hkzp)" points="392.5,751.25,442.5,751.25,451.25,780.7617,472.5,780.7617,472.5,802.0117,392.5,802.0117,392.5,751.25" style="stroke: #000000; stroke-width: 1.875;"/><line style="stroke: #000000; stroke-width: 1.875;" x1="392.5" x2="451.25" y1="780.7617" y2="780.7617"/><text fill="#000000" font-family="sans-serif" font-size="17.5" font-weight="bold" lengthAdjust="spacingAndGlyphs" textLength="42.5" x="397.5" y="773.1665">daos</text><!--MD5=[af2a2f107363d9c1eecaacd6d0c4f7ef]
entity entities--><polygon fill="#FEFECE" filter="url(#fvjf3bwj4hkzp)" points="365.625,921.25,439.375,921.25,448.125,950.7617,469.375,950.7617,469.375,972.0117,365.625,972.0117,365.625,921.25" style="stroke: #000000; stroke-width: 1.875;"/><line style="stroke: #000000; stroke-width: 1.875;" x1="365.625" x2="448.125" y1="950.7617" y2="950.7617"/><text fill="#000000" font-family="sans-serif" font-size="17.5" font-weight="bold" lengthAdjust="spacingAndGlyphs" textLength="66.25" x="370.625" y="943.1665">entities</text><!--MD5=[113b2f3f7eda726082e0beaab9a73623]
entity dtos--><polygon fill="#FEFECE" filter="url(#fvjf3bwj4hkzp)" points="140.625,751.25,186.875,751.25,195.625,780.7617,216.875,780.7617,216.875,802.0117,140.625,802.0117,140.625,751.25" style="stroke: #000000; stroke-width: 1.875;"/><line style="stroke: #000000; stroke-width: 1.875;" x1="140.625" x2="195.625" y1="780.7617" y2="780.7617"/><text fill="#000000" font-family="sans-serif" font-size="17.5" font-weight="bold" lengthAdjust="spacingAndGlyphs" textLength="38.75" x="145.625" y="773.1665">dtos</text><!--MD5=[f50ff5e4cd64f259303fc83dba1819fc]
entity database--><path d="M688.125,930 C688.125,917.5 737.5,917.5 737.5,917.5 C737.5,917.5 786.875,917.5 786.875,930 L786.875,963.2617 C786.875,975.7617 737.5,975.7617 737.5,975.7617 C737.5,975.7617 688.125,975.7617 688.125,963.2617 L688.125,930 " fill="#FEFECE" filter="url(#fvjf3bwj4hkzp)" style="stroke: #000000; stroke-width: 1.875;"/><path d="M688.125,930 C688.125,942.5 737.5,942.5 737.5,942.5 C737.5,942.5 786.875,942.5 786.875,930 " fill="none" style="stroke: #000000; stroke-width: 1.875;"/><text fill="#000000" font-family="sans-serif" font-size="17.5" lengthAdjust="spacingAndGlyphs" textLength="73.75" x="700.625" y="965.6665">database</text><!--MD5=[70514a86861c5708b6eeb45a92884750]
link business_layer to dto_layer--><!--MD5=[610260185ef147c85cfd0cf679766d91]
link data_layer to dto_layer--><!--MD5=[99826a6291673ad7abc35aef77c4c04c]
link business_layer to data_layer--><!--MD5=[21bea63b192e36292b09eabd333e4362]
link api_controllers to business_controllers--><path d="M318.3213,201.3237 C330.1387,221.155 346.8538,249.2013 359.5063,270.4313 " fill="none" id="api_controllers-&gt;business_controllers" style="stroke: #A80036; stroke-width: 1.25; stroke-dasharray: 7.0,7.0;"/><polygon fill="#A80036" points="362.96,276.2263,361.4941,264.0028,359.7596,270.8578,352.9046,269.1233,362.96,276.2263" style="stroke: #A80036; stroke-width: 1.25;"/><!--MD5=[0cc6687ff2f0786d3683632a9277b6d0]
link business_controllers to business_services--><path d="M384.1675,327.5737 C389.53,347.235 397.095,374.9725 402.8663,396.1363 " fill="none" id="business_controllers-&gt;business_services" style="stroke: #A80036; stroke-width: 1.25; stroke-dasharray: 7.0,7.0;"/><polygon fill="#A80036" points="404.5963,402.4763,406.4591,390.3069,402.9513,396.4466,396.8116,392.9388,404.5963,402.4763" style="stroke: #A80036; stroke-width: 1.25;"/><!--MD5=[2eac61280f44c7f9271804ed59844333]
link business_controllers to daos--><path d="M416.4325,327.69 C463.0725,357.1175 535,402.5 535,402.5 C535,402.5 535,666.25 535,666.25 C535,666.25 490.4863,713.7488 460.1288,746.1438 " fill="none" id="business_controllers-&gt;daos" style="stroke: #A80036; stroke-width: 1.25; stroke-dasharray: 7.0,7.0;"/><polygon fill="#A80036" points="455.7588,750.8063,467.0994,746.0154,460.0321,746.2454,459.8021,739.1781,455.7588,750.8063" style="stroke: #A80036; stroke-width: 1.25;"/><!--MD5=[916a69e1f8a708797a61c664f809125d]
link business_controllers to data_services--><path d="M355.2525,327.69 C328.6012,357.1175 287.5,402.5 287.5,402.5 C287.5,402.5 287.5,503.75 287.5,503.75 C287.5,503.75 346.25,540 346.25,540 C346.25,540 381.4488,580.555 406.8738,609.8488 " fill="none" id="business_controllers-&gt;data_services" style="stroke: #A80036; stroke-width: 1.25; stroke-dasharray: 7.0,7.0;"/><polygon fill="#A80036" points="411.18,614.81,407.5818,603.0365,407.0832,610.0899,400.0298,609.5913,411.18,614.81" style="stroke: #A80036; stroke-width: 1.25;"/><!--MD5=[f25b1ccfb07bcb43578ef77cada6dba9]
link data_services to daos--><path d="M432.5,666.4063 C432.5,688.4663 432.5,720.9663 432.5,744.7788 " fill="none" id="data_services-&gt;daos" style="stroke: #A80036; stroke-width: 1.25; stroke-dasharray: 7.0,7.0;"/><polygon fill="#A80036" points="432.5,751.2488,437.5,739.9988,432.5,744.9988,427.5,739.9988,432.5,751.2488" style="stroke: #A80036; stroke-width: 1.25;"/><!--MD5=[c3051bd2bfdd78b258a6252140792219]
link daos to entities--><path d="M430.2863,802.84 C427.6387,832.4063 423.2025,881.9425 420.3137,914.2 " fill="none" id="daos-&gt;entities" style="stroke: #A80036; stroke-width: 1.25; stroke-dasharray: 7.0,7.0;"/><polygon fill="#A80036" points="419.7225,920.8088,425.7055,910.0493,420.2797,914.5836,415.7453,909.1578,419.7225,920.8088" style="stroke: #A80036; stroke-width: 1.25;"/><!--MD5=[5e422ec63f7c2ef5196605d00ceb790f]
link api_controllers to dtos--><path d="M283.3538,201.3013 C230.8275,264.2075 95,426.875 95,426.875 C95,426.875 95,426.875 95,530 C95,530 145.8938,679.2625 168.3338,745.075 " fill="none" id="api_controllers-&gt;dtos" style="stroke: #A80036; stroke-width: 1.25; stroke-dasharray: 7.0,7.0;"/><polygon fill="#A80036" points="170.4138,751.175,171.5143,738.9132,168.3961,745.2596,162.0497,742.1414,170.4138,751.175" style="stroke: #A80036; stroke-width: 1.25;"/><!--MD5=[be7fb558e43a9ba227706c0f1161e477]
link business_controllers to dtos--><path d="M352.7813,327.69 C323.1675,357.1175 277.5,402.5 277.5,402.5 C277.5,402.5 210.455,655.8275 186.8525,745.0113 " fill="none" id="business_controllers-&gt;dtos" style="stroke: #A80036; stroke-width: 1.25; stroke-dasharray: 7.0,7.0;"/><polygon fill="#A80036" points="185.2288,751.1438,192.9424,741.5488,186.8289,745.1021,183.2757,738.9886,185.2288,751.1438" style="stroke: #A80036; stroke-width: 1.25;"/><!--MD5=[459eabd4947c29981afafeae995abd37]
link data_services to dtos--><path d="M360.5363,666.3075 C344.0438,671.9063 331.25,676.25 331.25,676.25 C331.25,676.25 266.9412,718.1563 221.845,747.5425 " fill="none" id="data_services-&gt;dtos" style="stroke: #A80036; stroke-width: 1.25; stroke-dasharray: 7.0,7.0;"/><polygon fill="#A80036" points="216.4463,751.06,228.6016,749.1079,221.6828,747.6481,223.1425,740.7294,216.4463,751.06" style="stroke: #A80036; stroke-width: 1.25;"/><!--MD5=[084ec8e84f70a6ceae254e9183ffabd1]
link daos to dtos--><path d="M392.19,776.875 C370.405,776.875 347.9163,776.875 347.9163,776.875 C347.9163,776.875 263.3338,776.875 263.3338,776.875 C263.3338,776.875 243.7275,776.875 223.395,776.875 " fill="none" id="daos-&gt;dtos" style="stroke: #A80036; stroke-width: 1.25; stroke-dasharray: 7.0,7.0;"/><polygon fill="#A80036" points="217.0825,776.875,228.3325,781.875,223.3325,776.875,228.3325,771.875,217.0825,776.875" style="stroke: #A80036; stroke-width: 1.25;"/><!--MD5=[1e7fab2bcef8a445d11a540748efcf56]
link dtos to entities--><path d="M213.9788,802.84 C257.48,833.3588 331.3125,885.1587 377.0775,917.2663 " fill="none" id="dtos-&gt;entities" style="stroke: #A80036; stroke-width: 1.25; stroke-dasharray: 7.0,7.0;"/><polygon fill="#A80036" points="382.5162,921.0813,376.1783,910.527,377.3998,917.4917,370.4351,918.7132,382.5162,921.0813" style="stroke: #A80036; stroke-width: 1.25;"/><!--MD5=[6c0f91628b9eb4fb413d00db539916b9]
link daos to database--><path d="M472.6875,800.195 C526.28,829.6275 621.3988,881.865 681.86,915.0688 " fill="none" id="daos-&gt;database" style="stroke: #A80036; stroke-width: 1.25; stroke-dasharray: 7.0,7.0;"/><polygon fill="#A80036" points="687.6013,918.2213,680.1451,908.4249,682.1223,915.2139,675.3333,917.1912,687.6013,918.2213" style="stroke: #A80036; stroke-width: 1.25;"/><!--MD5=[93a5fc50f4e55b6fde89239b38a70219]
reverse link exceptions to api_controllers--><path d="M426.1538,175.625 C416.7625,175.625 401.26,175.625 388.7938,175.625 " fill="none" id="exceptions&lt;-api_controllers" style="stroke: #A80036; stroke-width: 1.25; stroke-dasharray: 7.0,7.0;"/><polygon fill="#A80036" points="432.405,175.625,421.155,170.625,426.155,175.625,421.155,180.625,432.405,175.625" style="stroke: #A80036; stroke-width: 1.25;"/><!--MD5=[bdb0b6c1ec102e6b6cefc1fa29723a9c]
reverse link exceptions to business_controllers--><path d="M471.13,206.0388 C449.9813,227.4038 421.6038,256.0712 401.6513,276.2263 " fill="none" id="exceptions&lt;-business_controllers" style="stroke: #A80036; stroke-width: 1.25; stroke-dasharray: 7.0,7.0;"/><polygon fill="#A80036" points="475.7975,201.3237,464.3295,205.8012,471.4005,205.7654,471.4362,212.8364,475.7975,201.3237" style="stroke: #A80036; stroke-width: 1.25;"/><!--MD5=[0c4031bf5db7373e5c5cedc213a0b12c]
@startuml
skinparam linetype polyline



package api as "API REST (Backend)" {

package  business_layer as "Business layer" #e1eced  {
    package api_controllers
    package business_controllers
    package business_services
    package exceptions

}

package data_layer as "Data layer" #e1eced {
    package data_services
    package daos
    package entities
}



package dto_layer as "data transfer layer" #e1eced {
    package dtos
}




}

package database_layer as "database layer" #e1eced {
database database
}

business_layer .[hidden].> dto_layer
data_layer .[hidden].> dto_layer
business_layer .[hidden]down...> data_layer


api_controllers ..> business_controllers
business_controllers ..> business_services
business_controllers ..> daos
business_controllers ....> data_services
data_services ..> daos
daos ..> entities

api_controllers ..> dtos
business_controllers ..> dtos
data_services ..> dtos
daos ..> dtos
dtos ..> entities
daos .down.> database
api_controllers .left.> exceptions
business_controllers .left.> exceptions

@enduml

PlantUML version 1.2020.09(Sun May 10 12:51:06 CEST 2020)
(GPL source distribution)
Java Runtime: OpenJDK Runtime Environment
JVM: OpenJDK 64-Bit Server VM
Java Version: 11.0.8+10-b1094.1
Operating System: Windows 10
Default Encoding: Cp1252
Language: en
Country: GB
--></g></svg>