<?xml version="1.0" encoding="UTF-8" standalone="no"?><svg xmlns="http://www.w3.org/2000/svg" xmlns:xlink="http://www.w3.org/1999/xlink" contentScriptType="application/ecmascript" contentStyleType="text/css" height="963.75px" preserveAspectRatio="none" style="width:953px;height:963px;" version="1.1" viewBox="0 0 953 963" width="953.75px" zoomAndPan="magnify"><defs><filter height="300%" id="f1grww7hdqlold" width="300%" x="-1" y="-1"><feGaussianBlur result="blurOut" stdDeviation="2.5"/><feColorMatrix in="blurOut" result="blurOut2" type="matrix" values="0 0 0 0 0 0 0 0 0 0 0 0 0 0 0 0 0 0 .4 0"/><feOffset dx="5.0" dy="5.0" in="blurOut2" result="blurOut3"/><feBlend in="SourceGraphic" in2="blurOut3" mode="normal"/></filter></defs><g><!--MD5=[35dd84c23ad91445a3974d1258f96446]
cluster webapp--><polygon fill="#E1ECED" filter="url(#f1grww7hdqlold)" points="37.5,40,113.75,40,122.5,69.5117,601.25,69.5117,601.25,506.25,37.5,506.25,37.5,40" style="stroke: #000000; stroke-width: 1.875;"/><line style="stroke: #000000; stroke-width: 1.875;" x1="37.5" x2="122.5" y1="69.5117" y2="69.5117"/><text fill="#000000" font-family="sans-serif" font-size="17.5" font-weight="bold" lengthAdjust="spacingAndGlyphs" textLength="68.75" x="42.5" y="60.6665">webapp</text><text fill="#000000" font-family="sans-serif" font-size="17.5" font-style="italic" lengthAdjust="spacingAndGlyphs" textLength="113.75" x="267.5" y="90.1782">«xhtml, css js»</text><!--MD5=[38f4936ac82e315a639a548dbdbbb686]
cluster resources--><polygon fill="#E1ECED" filter="url(#f1grww7hdqlold)" points="258.75,265,356.25,265,365,294.5117,527.5,294.5117,527.5,466.25,258.75,466.25,258.75,265" style="stroke: #000000; stroke-width: 1.875;"/><line style="stroke: #000000; stroke-width: 1.875;" x1="258.75" x2="365" y1="294.5117" y2="294.5117"/><text fill="#000000" font-family="sans-serif" font-size="17.5" font-weight="bold" lengthAdjust="spacingAndGlyphs" textLength="90" x="263.75" y="285.6665">resources</text><!--MD5=[67a6735b2a5707e03290b64fb931c9ce]
cluster components--><polygon fill="#E1ECED" filter="url(#f1grww7hdqlold)" points="368.75,320,485,320,493.75,349.5117,497.5,349.5117,497.5,436.25,368.75,436.25,368.75,320" style="stroke: #000000; stroke-width: 1.875;"/><line style="stroke: #000000; stroke-width: 1.875;" x1="368.75" x2="493.75" y1="349.5117" y2="349.5117"/><text fill="#000000" font-family="sans-serif" font-size="17.5" font-weight="bold" lengthAdjust="spacingAndGlyphs" textLength="108.75" x="373.75" y="340.6665">components</text><!--MD5=[464b8a121da435760d275ace2e6f7972]
cluster front--><polygon fill="#E1ECED" filter="url(#f1grww7hdqlold)" points="447.5,557.5,497.5,557.5,506.25,587.0117,892.5,587.0117,892.5,948.75,447.5,948.75,447.5,557.5" style="stroke: #000000; stroke-width: 1.875;"/><line style="stroke: #000000; stroke-width: 1.875;" x1="447.5" x2="506.25" y1="587.0117" y2="587.0117"/><text fill="#000000" font-family="sans-serif" font-size="17.5" font-weight="bold" lengthAdjust="spacingAndGlyphs" textLength="42.5" x="452.5" y="578.1665">front</text><text fill="#000000" font-family="sans-serif" font-size="17.5" font-style="italic" lengthAdjust="spacingAndGlyphs" textLength="51.25" x="649.375" y="607.6782">«java»</text><!--MD5=[d694a49b8bee16014f89ead21079a53f]
entity backoffice--><polygon fill="#FEFECE" filter="url(#f1grww7hdqlold)" points="418.125,117.5,516.875,117.5,525.625,147.0117,546.875,147.0117,546.875,168.2617,418.125,168.2617,418.125,117.5" style="stroke: #000000; stroke-width: 1.875;"/><line style="stroke: #000000; stroke-width: 1.875;" x1="418.125" x2="525.625" y1="147.0117" y2="147.0117"/><text fill="#000000" font-family="sans-serif" font-size="17.5" font-weight="bold" lengthAdjust="spacingAndGlyphs" textLength="91.25" x="423.125" y="139.4165">backoffice</text><!--MD5=[a16c68a7c98cb65688962ca0b8d513aa]
entity swagger--><polygon fill="#FEFECE" filter="url(#f1grww7hdqlold)" points="261.25,117.5,343.75,117.5,352.5,147.0117,373.75,147.0117,373.75,168.2617,261.25,168.2617,261.25,117.5" style="stroke: #000000; stroke-width: 1.875;"/><line style="stroke: #000000; stroke-width: 1.875;" x1="261.25" x2="352.5" y1="147.0117" y2="147.0117"/><text fill="#000000" font-family="sans-serif" font-size="17.5" font-weight="bold" lengthAdjust="spacingAndGlyphs" textLength="75" x="266.25" y="139.4165">swagger</text><!--MD5=[4973cff6d5222f460e58305e2909ce55]
entity templates--><polygon fill="#FEFECE" filter="url(#f1grww7hdqlold)" points="110.625,365,204.375,365,213.125,394.5117,234.375,394.5117,234.375,415.7617,110.625,415.7617,110.625,365" style="stroke: #000000; stroke-width: 1.875;"/><line style="stroke: #000000; stroke-width: 1.875;" x1="110.625" x2="213.125" y1="394.5117" y2="394.5117"/><text fill="#000000" font-family="sans-serif" font-size="17.5" font-weight="bold" lengthAdjust="spacingAndGlyphs" textLength="86.25" x="115.625" y="386.9165">templates</text><!--MD5=[0542035a50458396a81371d0a47686f8]
entity user_access--><polygon fill="#FEFECE" filter="url(#f1grww7hdqlold)" points="68.125,117.5,186.875,117.5,195.625,147.0117,216.875,147.0117,216.875,168.2617,68.125,168.2617,68.125,117.5" style="stroke: #000000; stroke-width: 1.875;"/><line style="stroke: #000000; stroke-width: 1.875;" x1="68.125" x2="195.625" y1="147.0117" y2="147.0117"/><text fill="#000000" font-family="sans-serif" font-size="17.5" font-weight="bold" lengthAdjust="spacingAndGlyphs" textLength="111.25" x="73.125" y="139.4165">user_access</text><!--MD5=[ac50c065e0899802ad5ce0cd9f6f6443]
entity css--><polygon fill="#FEFECE" filter="url(#f1grww7hdqlold)" points="278.75,365,316.25,365,325,394.5117,346.25,394.5117,346.25,415.7617,278.75,415.7617,278.75,365" style="stroke: #000000; stroke-width: 1.875;"/><line style="stroke: #000000; stroke-width: 1.875;" x1="278.75" x2="325" y1="394.5117" y2="394.5117"/><text fill="#000000" font-family="sans-serif" font-size="17.5" font-weight="bold" lengthAdjust="spacingAndGlyphs" textLength="30" x="283.75" y="386.9165">css</text><!--MD5=[9b7482e08d8b438fd1bee11a96148ee0]
entity agrim--><polygon fill="#FFFFFF" filter="url(#f1grww7hdqlold)" points="390.625,365,446.875,365,455.625,394.5117,476.875,394.5117,476.875,415.7617,390.625,415.7617,390.625,365" style="stroke: #000000; stroke-width: 1.875;"/><line style="stroke: #000000; stroke-width: 1.875;" x1="390.625" x2="455.625" y1="394.5117" y2="394.5117"/><text fill="#000000" font-family="sans-serif" font-size="17.5" font-weight="bold" lengthAdjust="spacingAndGlyphs" textLength="48.75" x="395.625" y="386.9165">agrim</text><!--MD5=[b373248d402e346e49bf5ab3deba5526]
entity beans--><polygon fill="#FEFECE" filter="url(#f1grww7hdqlold)" points="468.125,625,529.375,625,538.125,654.5117,559.375,654.5117,559.375,675.7617,468.125,675.7617,468.125,625" style="stroke: #000000; stroke-width: 1.875;"/><line style="stroke: #000000; stroke-width: 1.875;" x1="468.125" x2="538.125" y1="654.5117" y2="654.5117"/><text fill="#000000" font-family="sans-serif" font-size="17.5" font-weight="bold" lengthAdjust="spacingAndGlyphs" textLength="53.75" x="473.125" y="646.9165">beans</text><!--MD5=[95e2f137d86b0a76ca65f49d5aa16b0f]
entity converters--><polygon fill="#FEFECE" filter="url(#f1grww7hdqlold)" points="603.75,625,708.75,625,717.5,654.5117,738.75,654.5117,738.75,675.7617,603.75,675.7617,603.75,625" style="stroke: #000000; stroke-width: 1.875;"/><line style="stroke: #000000; stroke-width: 1.875;" x1="603.75" x2="717.5" y1="654.5117" y2="654.5117"/><text fill="#000000" font-family="sans-serif" font-size="17.5" font-weight="bold" lengthAdjust="spacingAndGlyphs" textLength="97.5" x="608.75" y="646.9165">converters</text><!--MD5=[737d41e303b656ed2748c24eb8a52fb6]
entity filters--><polygon fill="#FEFECE" filter="url(#f1grww7hdqlold)" points="783.125,625,841.875,625,850.625,654.5117,871.875,654.5117,871.875,675.7617,783.125,675.7617,783.125,625" style="stroke: #000000; stroke-width: 1.875;"/><line style="stroke: #000000; stroke-width: 1.875;" x1="783.125" x2="850.625" y1="654.5117" y2="654.5117"/><text fill="#000000" font-family="sans-serif" font-size="17.5" font-weight="bold" lengthAdjust="spacingAndGlyphs" textLength="51.25" x="788.125" y="646.9165">filters</text><!--MD5=[113b2f3f7eda726082e0beaab9a73623]
entity dtos--><polygon fill="#FEFECE" filter="url(#f1grww7hdqlold)" points="663.125,877.5,709.375,877.5,718.125,907.0117,739.375,907.0117,739.375,928.2617,663.125,928.2617,663.125,877.5" style="stroke: #000000; stroke-width: 1.875;"/><line style="stroke: #000000; stroke-width: 1.875;" x1="663.125" x2="718.125" y1="907.0117" y2="907.0117"/><text fill="#000000" font-family="sans-serif" font-size="17.5" font-weight="bold" lengthAdjust="spacingAndGlyphs" textLength="38.75" x="668.125" y="899.4165">dtos</text><!--MD5=[ecd40efa396aed24c560a3b32142d2b5]
entity gateways--><polygon fill="#FEFECE" filter="url(#f1grww7hdqlold)" points="536.875,751.25,625.625,751.25,634.375,780.7617,655.625,780.7617,655.625,802.0117,536.875,802.0117,536.875,751.25" style="stroke: #000000; stroke-width: 1.875;"/><line style="stroke: #000000; stroke-width: 1.875;" x1="536.875" x2="634.375" y1="780.7617" y2="780.7617"/><text fill="#000000" font-family="sans-serif" font-size="17.5" font-weight="bold" lengthAdjust="spacingAndGlyphs" textLength="81.25" x="541.875" y="773.1665">gateways</text><!--MD5=[fd35d086f3360a91061ab5b89379d40a]
entity util--><polygon fill="#FEFECE" filter="url(#f1grww7hdqlold)" points="511.25,877.5,546.25,877.5,555,907.0117,576.25,907.0117,576.25,928.2617,511.25,928.2617,511.25,877.5" style="stroke: #000000; stroke-width: 1.875;"/><line style="stroke: #000000; stroke-width: 1.875;" x1="511.25" x2="555" y1="907.0117" y2="907.0117"/><text fill="#000000" font-family="sans-serif" font-size="17.5" font-weight="bold" lengthAdjust="spacingAndGlyphs" textLength="27.5" x="516.25" y="899.4165">util</text><!--MD5=[71ad7d701ddb2313a0bc69b9ccb93022]
link backoffice to templates--><path d="M432.8425,168.9262 C366.9238,201.5175 258.75,255 258.75,255 C258.75,255 217.3875,319.4412 191.95,359.0725 " fill="none" id="backoffice-&gt;templates" style="stroke: #A80036; stroke-width: 1.25; stroke-dasharray: 7.0,7.0;"/><polygon fill="#A80036" points="188.32,364.7288,198.6042,357.9613,191.6957,359.4688,190.1882,352.5603,188.32,364.7288" style="stroke: #A80036; stroke-width: 1.25;"/><!--MD5=[055a9c0852bc835e129b010560501596]
link backoffice to agrim--><path d="M477.6475,168.7625 C468.7275,213.59 449.7425,309.005 439.9213,358.3625 " fill="none" id="backoffice-&gt;agrim" style="stroke: #A80036; stroke-width: 1.25; stroke-dasharray: 7.0,7.0;"/><polygon fill="#A80036" points="438.655,364.7225,445.7546,354.6648,439.8749,358.5927,435.947,352.713,438.655,364.7225" style="stroke: #A80036; stroke-width: 1.25;"/><!--MD5=[506ecc67e69b38f542717d9a11360f41]
link backoffice to css--><path d="M457.5325,168.9262 C424.3888,201.5175 370,255 370,255 C370,255 342.6513,318.9137 325.6763,358.5838 " fill="none" id="backoffice-&gt;css" style="stroke: #A80036; stroke-width: 1.25; stroke-dasharray: 7.0,7.0;"/><polygon fill="#A80036" points="323.0463,364.7288,332.0667,356.3505,325.5035,358.9821,322.872,352.4189,323.0463,364.7288" style="stroke: #A80036; stroke-width: 1.25;"/><!--MD5=[b05f5b1324b205b2ebcf64d3851cda75]
link templates to css--><path d="M234.4475,390.625 C248.0575,390.625 265.8338,390.625 265.8338,390.625 C265.8338,390.625 268.2088,390.625 271.8862,390.625 " fill="none" id="templates-&gt;css" style="stroke: #A80036; stroke-width: 1.25; stroke-dasharray: 7.0,7.0;"/><polygon fill="#A80036" points="278.585,390.625,267.335,385.625,272.335,390.625,267.335,395.625,278.585,390.625" style="stroke: #A80036; stroke-width: 1.25;"/><!--MD5=[33f88e9a15950732269e605eb9654bc5]
link user_access to templates--><path d="M145.4862,168.7625 C150.975,213.59 162.6588,309.005 168.7025,358.3625 " fill="none" id="user_access-&gt;templates" style="stroke: #A80036; stroke-width: 1.25; stroke-dasharray: 7.0,7.0;"/><polygon fill="#A80036" points="169.4813,364.7225,173.0781,352.9486,168.7223,358.5188,163.1521,354.1629,169.4813,364.7225" style="stroke: #A80036; stroke-width: 1.25;"/><!--MD5=[95e7aa1392bcb4705514eaf5643d1a4d]
link user_access to css--><path d="M171.6288,168.9262 C210.2963,201.5175 273.75,255 273.75,255 C273.75,255 292.1813,318.9137 303.62,358.5838 " fill="none" id="user_access-&gt;css" style="stroke: #A80036; stroke-width: 1.25; stroke-dasharray: 7.0,7.0;"/><polygon fill="#A80036" points="305.3925,364.7288,307.0789,352.5337,303.6604,358.7236,297.4706,355.3051,305.3925,364.7288" style="stroke: #A80036; stroke-width: 1.25;"/><!--MD5=[20b52733fb74a7977ac14ae3f6c59a6f]
link user_access to agrim--><path d="M196.3188,168.9262 C267.7613,201.5175 385,255 385,255 C385,255 408.1875,318.9137 422.5788,358.5838 " fill="none" id="user_access-&gt;agrim" style="stroke: #A80036; stroke-width: 1.25; stroke-dasharray: 7.0,7.0;"/><polygon fill="#A80036" points="424.8088,364.7288,425.6754,352.4482,422.6787,358.8529,416.274,355.8562,424.8088,364.7288" style="stroke: #A80036; stroke-width: 1.25;"/><!--MD5=[3b943eb7379f0cc8896420cb0691c1a2]
link beans to dtos--><path d="M554.2275,676.44 C602.7188,705.8675 677.5,751.25 677.5,751.25 C677.5,751.25 689.4475,827.0213 696.395,871.0815 " fill="none" id="beans-&gt;dtos" style="stroke: #A80036; stroke-width: 1.25; stroke-dasharray: 7.0,7.0;"/><polygon fill="#A80036" points="697.3812,877.3393,700.5676,865.4477,696.4076,871.1656,690.6897,867.0055,697.3812,877.3393" style="stroke: #A80036; stroke-width: 1.25;"/><!--MD5=[70d7be388b843fb8a2ce1ef40f513436]
link beans to gateways--><path d="M530.0487,676.3238 C543.3825,696.3238 562.2875,724.6813 576.4825,745.975 " fill="none" id="beans-&gt;gateways" style="stroke: #A80036; stroke-width: 1.25; stroke-dasharray: 7.0,7.0;"/><polygon fill="#A80036" points="579.985,751.2262,577.903,739.0925,576.5173,746.0265,569.5833,744.6408,579.985,751.2262" style="stroke: #A80036; stroke-width: 1.25;"/><!--MD5=[9a2531b904ad24526f7e8f41ea0fe1bf]
link beans to util--><path d="M513.9538,676.4113 C514.3075,719.0925 515,802.5 515,802.5 C515,802.5 526.4437,842.055 534.8913,871.2548 " fill="none" id="beans-&gt;util" style="stroke: #A80036; stroke-width: 1.25; stroke-dasharray: 7.0,7.0;"/><polygon fill="#A80036" points="536.6438,877.3104,538.3201,865.114,534.9067,871.3066,528.7141,867.8932,536.6438,877.3104" style="stroke: #A80036; stroke-width: 1.25;"/><!--MD5=[ff3344ba7f48315de58920dd28bd596b]
link gateways to util--><path d="M585.8775,802.5738 C577.465,822.405 565.5663,850.4508 556.5588,871.6818 " fill="none" id="gateways-&gt;util" style="stroke: #A80036; stroke-width: 1.25; stroke-dasharray: 7.0,7.0;"/><polygon fill="#A80036" points="554.1013,877.4768,563.098,869.0732,556.5423,871.7232,553.8923,865.1675,554.1013,877.4768" style="stroke: #A80036; stroke-width: 1.25;"/><!--MD5=[de4885dbfd51f7897849bda481d50119]
link gateways to dtos--><path d="M616.995,802.5738 C633.965,822.5738 658.025,850.9309 676.0925,872.2246 " fill="none" id="gateways-&gt;dtos" style="stroke: #A80036; stroke-width: 1.25; stroke-dasharray: 7.0,7.0;"/><polygon fill="#A80036" points="680.5487,877.4768,677.0831,865.6636,676.5053,872.711,669.4578,872.1332,680.5487,877.4768" style="stroke: #A80036; stroke-width: 1.25;"/><!--MD5=[db65667eb7b7ce59a400de16fd033e75]
link webapp to beans--><path d="M535.6961,506.3718 C535.58,507.1283 535.4641,507.8832 535.3485,508.6364 C534.8861,511.6493 534.4278,514.6357 533.974,517.5931 C533.0662,523.508 532.1762,529.3072 531.3068,534.9726 C529.5679,546.3033 527.9112,557.0981 526.3594,567.2101 C523.2556,587.4341 520.5711,604.9266 518.4862,618.5113 " fill="none" id="webapp-&gt;beans" style="stroke: #A80036; stroke-width: 1.25; stroke-dasharray: 7.0,7.0;"/><polygon fill="#A80036" points="517.5363,624.7025,524.1854,614.3414,518.4846,618.5249,514.3012,612.8241,517.5363,624.7025" style="stroke: #A80036; stroke-width: 1.25;"/><!--MD5=[8ad84eb923a9d771615fe07d73aae900]
link webapp to dtos--><path d="M601.6312,151.4421 C602.2826,151.8856 602.9607,152.3472 603.6641,152.8261 C605.0711,153.7839 606.5797,154.8109 608.1804,155.9006 C611.382,158.0802 614.9524,160.5108 618.8159,163.1409 C634.27,173.6616 654.414,187.375 674.4042,200.9838 C714.3847,228.2013 753.75,255 753.75,255 C753.75,255 938.75,389.375 938.75,389.375 C938.75,389.375 938.75,389.375 938.75,651.875 C938.75,651.875 791.375,807.0063 728.81,872.8646 " fill="none" id="webapp-&gt;dtos" style="stroke: #A80036; stroke-width: 1.25; stroke-dasharray: 7.0,7.0;"/><polygon fill="#A80036" points="724.455,877.4488,735.8289,872.7373,728.7601,872.9179,728.5795,865.8491,724.455,877.4488" style="stroke: #A80036; stroke-width: 1.25;"/><!--MD5=[5dc18293a0ee21b47923fb2ffe2acf6e]
link webapp to filters--><path d="M601.5385,159.8078 C601.6404,159.9606 601.7429,160.1143 601.846,160.2689 C602.0521,160.5781 602.2604,160.8906 602.471,161.2065 C602.8922,161.8383 603.3223,162.4834 603.7606,163.1409 C610.7743,173.6616 619.9166,187.375 628.9891,200.9838 C647.1341,228.2013 665,255 665,255 C665,255 776.7963,526.3213 814.9313,618.8725 " fill="none" id="webapp-&gt;filters" style="stroke: #A80036; stroke-width: 1.25; stroke-dasharray: 7.0,7.0;"/><polygon fill="#A80036" points="817.335,624.705,817.67,612.3985,814.953,618.9267,808.4247,616.2097,817.335,624.705" style="stroke: #A80036; stroke-width: 1.25;"/><!--MD5=[6732b4286655ea9176e73cbef683ef8c]
link webapp to converters--><path d="M601.3109,201.5071 C601.3442,201.6962 601.3775,201.8852 601.4108,202.074 C601.5438,202.8294 601.6764,203.5822 601.8084,204.3317 C602.3363,207.3298 602.8551,210.2758 603.3566,213.1234 C604.3595,218.8185 605.2931,224.1198 606.0921,228.6571 C607.6902,237.7316 608.75,243.75 608.75,243.75 C608.75,243.75 651.775,522.9813 666.4288,618.0888 " fill="none" id="webapp-&gt;converters" style="stroke: #A80036; stroke-width: 1.25; stroke-dasharray: 7.0,7.0;"/><polygon fill="#A80036" points="667.435,624.6125,670.6639,612.7324,666.4834,618.4354,660.7805,614.2549,667.435,624.6125" style="stroke: #A80036; stroke-width: 1.25;"/><!--MD5=[244c8131607b899602af9c5abe6e379d]
@startuml
skinparam linetype polyline

package webapp <<xhtml, css js>> #e1eced  {
    package backoffice

    package resources {
        package components {
            package agrim {
            }
        }
        package css
    }
    package swagger
    package templates
    package user_access
}

package front <<java>> #e1eced {

    package beans
    package converters
    package filters
    package dtos
    package gateways
    package util

}


backoffice ...> templates
backoffice ..> agrim
backoffice ..> css
templates .> css
user_access ..> templates
user_access ...> css
user_access ...> agrim

beans ..> dtos
beans ..> gateways
beans ..> util
gateways ..> util
gateways ..> dtos

webapp .down....> beans
webapp .down....> dtos
webapp .down....> filters
webapp .down....> converters

@enduml

PlantUML version 1.2020.09(Sun May 10 12:51:06 CEST 2020)
(GPL source distribution)
Java Runtime: OpenJDK Runtime Environment
JVM: OpenJDK 64-Bit Server VM
Java Version: 11.0.8+10-b1094.1
Operating System: Windows 10
Default Encoding: Cp1252
Language: en
Country: GB
--></g></svg>