<?xml version="1.0" encoding="UTF-8" standalone="no"?><svg xmlns="http://www.w3.org/2000/svg" xmlns:xlink="http://www.w3.org/1999/xlink" contentScriptType="application/ecmascript" contentStyleType="text/css" height="831.25px" preserveAspectRatio="none" style="width:647px;height:831px;" version="1.1" viewBox="0 0 647 831" width="647.5px" zoomAndPan="magnify"><defs><filter height="300%" id="ftr9s07tvjr2" width="300%" x="-1" y="-1"><feGaussianBlur result="blurOut" stdDeviation="2.5"/><feColorMatrix in="blurOut" result="blurOut2" type="matrix" values="0 0 0 0 0 0 0 0 0 0 0 0 0 0 0 0 0 0 .4 0"/><feOffset dx="5.0" dy="5.0" in="blurOut2" result="blurOut3"/><feBlend in="SourceGraphic" in2="blurOut3" mode="normal"/></filter></defs><g><!--MD5=[ed6624c6556d5e7b1bd23032162d20b7]
class Client--><rect fill="#FEFECE" filter="url(#ftr9s07tvjr2)" height="70.2344" id="Client" style="stroke: #A80036; stroke-width: 1.875;" width="105" x="241.875" y="747.5"/><ellipse cx="260.625" cy="772.6172" fill="#ADD1B2" rx="13.75" ry="13.75" style="stroke: #A80036; stroke-width: 1.25;"/><path d="M263.125,768.2422 Q263.3789,767.6172 263.6719,767.3047 Q263.9648,766.9922 264.2969,766.9922 Q264.8828,766.9922 265.2539,767.3438 Q265.625,767.6953 265.625,768.5156 L265.625,770.4688 Q265.625,771.2891 265.2734,771.6406 Q264.9219,771.9922 264.375,771.9922 Q263.8867,771.9922 263.5742,771.7773 Q263.2617,771.5625 263.125,770.9961 Q263.0664,770.6055 262.8516,770.3906 Q262.4609,769.9805 261.7578,769.7461 Q261.0547,769.4922 260.3516,769.4922 Q259.4727,769.4922 258.7305,769.8438 Q258.0078,770.1953 257.4414,770.9766 Q256.875,771.7578 256.875,772.832 L256.875,773.9844 Q256.875,775.2734 257.9297,776.1328 Q258.9844,776.9922 260.8594,776.9922 Q261.9727,776.9922 262.7539,776.7383 Q263.2031,776.6016 263.7109,776.1523 Q264.043,775.8984 264.2188,775.8203 Q264.3945,775.7422 264.6094,775.7422 Q265.0195,775.7422 265.3125,776.0742 Q265.625,776.3867 265.625,776.8359 Q265.625,777.2656 265.1953,777.7734 Q264.5703,778.5156 263.5742,778.9258 Q262.2656,779.4922 260.6641,779.4922 Q258.7891,779.4922 257.2852,778.75 Q256.0742,778.1641 255.2148,776.8945 Q254.375,775.625 254.375,774.1211 L254.375,772.7539 Q254.375,771.1914 255.1172,769.8242 Q255.8789,768.457 257.1875,767.7344 Q258.5156,766.9922 260,766.9922 Q260.8984,766.9922 261.6797,767.3047 Q262.4609,767.6172 263.125,768.2422 Z "/><text fill="#000000" font-family="sans-serif" font-size="15" font-style="italic" lengthAdjust="spacingAndGlyphs" textLength="70" x="275.625" y="769.3213">«@Entity»</text><text fill="#000000" font-family="sans-serif" font-size="15" lengthAdjust="spacingAndGlyphs" textLength="40" x="290.625" y="788.1885">Client</text><line style="stroke: #A80036; stroke-width: 1.875;" x1="243.125" x2="345.625" y1="797.7344" y2="797.7344"/><line style="stroke: #A80036; stroke-width: 1.875;" x1="243.125" x2="345.625" y1="807.7344" y2="807.7344"/><!--MD5=[91506c20fa69d22eac57944020c826c2]
class Intervention--><rect fill="#FEFECE" filter="url(#ftr9s07tvjr2)" height="139.4141" id="Intervention" style="stroke: #A80036; stroke-width: 1.875;" width="141.25" x="223.75" y="250"/><ellipse cx="252.625" cy="275.1172" fill="#ADD1B2" rx="13.75" ry="13.75" style="stroke: #A80036; stroke-width: 1.25;"/><path d="M255.125,270.7422 Q255.3789,270.1172 255.6719,269.8047 Q255.9648,269.4922 256.2969,269.4922 Q256.8828,269.4922 257.2539,269.8438 Q257.625,270.1953 257.625,271.0156 L257.625,272.9688 Q257.625,273.7891 257.2734,274.1406 Q256.9219,274.4922 256.375,274.4922 Q255.8867,274.4922 255.5742,274.2773 Q255.2617,274.0625 255.125,273.4961 Q255.0664,273.1055 254.8516,272.8906 Q254.4609,272.4805 253.7578,272.2461 Q253.0547,271.9922 252.3516,271.9922 Q251.4727,271.9922 250.7305,272.3438 Q250.0078,272.6953 249.4414,273.4766 Q248.875,274.2578 248.875,275.332 L248.875,276.4844 Q248.875,277.7734 249.9297,278.6328 Q250.9844,279.4922 252.8594,279.4922 Q253.9727,279.4922 254.7539,279.2383 Q255.2031,279.1016 255.7109,278.6523 Q256.043,278.3984 256.2188,278.3203 Q256.3945,278.2422 256.6094,278.2422 Q257.0195,278.2422 257.3125,278.5742 Q257.625,278.8867 257.625,279.3359 Q257.625,279.7656 257.1953,280.2734 Q256.5703,281.0156 255.5742,281.4258 Q254.2656,281.9922 252.6641,281.9922 Q250.7891,281.9922 249.2852,281.25 Q248.0742,280.6641 247.2148,279.3945 Q246.375,278.125 246.375,276.6211 L246.375,275.2539 Q246.375,273.6914 247.1172,272.3242 Q247.8789,270.957 249.1875,270.2344 Q250.5156,269.4922 252,269.4922 Q252.8984,269.4922 253.6797,269.8047 Q254.4609,270.1172 255.125,270.7422 Z "/><text fill="#000000" font-family="sans-serif" font-size="15" font-style="italic" lengthAdjust="spacingAndGlyphs" textLength="70" x="276.75" y="271.8213">«@Entity»</text><text fill="#000000" font-family="sans-serif" font-size="15" lengthAdjust="spacingAndGlyphs" textLength="78.75" x="272.375" y="290.6885">Intervention</text><line style="stroke: #A80036; stroke-width: 1.875;" x1="225" x2="363.75" y1="300.2344" y2="300.2344"/><text fill="#000000" font-family="sans-serif" font-size="13.75" lengthAdjust="spacingAndGlyphs" textLength="88.75" x="231.25" y="319.5081">id «@Id» : long</text><text fill="#000000" font-family="sans-serif" font-size="13.75" lengthAdjust="spacingAndGlyphs" textLength="112.5" x="231.25" y="336.803">description : String</text><text fill="#000000" font-family="sans-serif" font-size="13.75" lengthAdjust="spacingAndGlyphs" textLength="126.25" x="231.25" y="354.0979">startTime : LocalDate</text><text fill="#000000" font-family="sans-serif" font-size="13.75" lengthAdjust="spacingAndGlyphs" textLength="121.25" x="231.25" y="371.3928">endTime : LocalDate</text><line style="stroke: #A80036; stroke-width: 1.875;" x1="225" x2="363.75" y1="379.4141" y2="379.4141"/><!--MD5=[1e29ec7aa20142996304403e448274ec]
class Mechanic--><rect fill="#FEFECE" filter="url(#ftr9s07tvjr2)" height="122.1191" id="Mechanic" style="stroke: #A80036; stroke-width: 1.875;" width="123.75" x="380" y="10"/><ellipse cx="407.1875" cy="35.1172" fill="#ADD1B2" rx="13.75" ry="13.75" style="stroke: #A80036; stroke-width: 1.25;"/><path d="M409.6875,30.7422 Q409.9414,30.1172 410.2344,29.8047 Q410.5273,29.4922 410.8594,29.4922 Q411.4453,29.4922 411.8164,29.8438 Q412.1875,30.1953 412.1875,31.0156 L412.1875,32.9688 Q412.1875,33.7891 411.8359,34.1406 Q411.4844,34.4922 410.9375,34.4922 Q410.4492,34.4922 410.1367,34.2773 Q409.8242,34.0625 409.6875,33.4961 Q409.6289,33.1055 409.4141,32.8906 Q409.0234,32.4805 408.3203,32.2461 Q407.6172,31.9922 406.9141,31.9922 Q406.0352,31.9922 405.293,32.3438 Q404.5703,32.6953 404.0039,33.4766 Q403.4375,34.2578 403.4375,35.332 L403.4375,36.4844 Q403.4375,37.7734 404.4922,38.6328 Q405.5469,39.4922 407.4219,39.4922 Q408.5352,39.4922 409.3164,39.2383 Q409.7656,39.1016 410.2734,38.6523 Q410.6055,38.3984 410.7813,38.3203 Q410.957,38.2422 411.1719,38.2422 Q411.582,38.2422 411.875,38.5742 Q412.1875,38.8867 412.1875,39.3359 Q412.1875,39.7656 411.7578,40.2734 Q411.1328,41.0156 410.1367,41.4258 Q408.8281,41.9922 407.2266,41.9922 Q405.3516,41.9922 403.8477,41.25 Q402.6367,40.6641 401.7773,39.3945 Q400.9375,38.125 400.9375,36.6211 L400.9375,35.2539 Q400.9375,33.6914 401.6797,32.3242 Q402.4414,30.957 403.75,30.2344 Q405.0781,29.4922 406.5625,29.4922 Q407.4609,29.4922 408.2422,29.8047 Q409.0234,30.1172 409.6875,30.7422 Z "/><text fill="#000000" font-family="sans-serif" font-size="15" font-style="italic" lengthAdjust="spacingAndGlyphs" textLength="70" x="424.0625" y="31.8213">«@Entity»</text><text fill="#000000" font-family="sans-serif" font-size="15" lengthAdjust="spacingAndGlyphs" textLength="65" x="426.5625" y="50.6885">Mechanic</text><line style="stroke: #A80036; stroke-width: 1.875;" x1="381.25" x2="502.5" y1="60.2344" y2="60.2344"/><text fill="#000000" font-family="sans-serif" font-size="13.75" lengthAdjust="spacingAndGlyphs" textLength="88.75" x="387.5" y="79.5081">id «@Id» : long</text><text fill="#000000" font-family="sans-serif" font-size="13.75" lengthAdjust="spacingAndGlyphs" textLength="106.25" x="387.5" y="96.803">username : String</text><text fill="#000000" font-family="sans-serif" font-size="13.75" lengthAdjust="spacingAndGlyphs" textLength="108.75" x="387.5" y="114.0979">password : String</text><line style="stroke: #A80036; stroke-width: 1.875;" x1="381.25" x2="502.5" y1="122.1191" y2="122.1191"/><!--MD5=[03fedb4b2c59acba1db02ece874052c7]
class RepairingPack--><rect fill="#FEFECE" filter="url(#ftr9s07tvjr2)" height="122.1191" id="RepairingPack" style="stroke: #A80036; stroke-width: 1.875;" width="163.75" x="7.5" y="507.5"/><ellipse cx="36.375" cy="532.6172" fill="#ADD1B2" rx="13.75" ry="13.75" style="stroke: #A80036; stroke-width: 1.25;"/><path d="M38.875,528.2422 Q39.1289,527.6172 39.4219,527.3047 Q39.7148,526.9922 40.0469,526.9922 Q40.6328,526.9922 41.0039,527.3438 Q41.375,527.6953 41.375,528.5156 L41.375,530.4688 Q41.375,531.2891 41.0234,531.6406 Q40.6719,531.9922 40.125,531.9922 Q39.6367,531.9922 39.3242,531.7773 Q39.0117,531.5625 38.875,530.9961 Q38.8164,530.6055 38.6016,530.3906 Q38.2109,529.9805 37.5078,529.7461 Q36.8047,529.4922 36.1016,529.4922 Q35.2227,529.4922 34.4805,529.8438 Q33.7578,530.1953 33.1914,530.9766 Q32.625,531.7578 32.625,532.832 L32.625,533.9844 Q32.625,535.2734 33.6797,536.1328 Q34.7344,536.9922 36.6094,536.9922 Q37.7227,536.9922 38.5039,536.7383 Q38.9531,536.6016 39.4609,536.1523 Q39.793,535.8984 39.9688,535.8203 Q40.1445,535.7422 40.3594,535.7422 Q40.7695,535.7422 41.0625,536.0742 Q41.375,536.3867 41.375,536.8359 Q41.375,537.2656 40.9453,537.7734 Q40.3203,538.5156 39.3242,538.9258 Q38.0156,539.4922 36.4141,539.4922 Q34.5391,539.4922 33.0352,538.75 Q31.8242,538.1641 30.9648,536.8945 Q30.125,535.625 30.125,534.1211 L30.125,532.7539 Q30.125,531.1914 30.8672,529.8242 Q31.6289,528.457 32.9375,527.7344 Q34.2656,526.9922 35.75,526.9922 Q36.6484,526.9922 37.4297,527.3047 Q38.2109,527.6172 38.875,528.2422 Z "/><text fill="#000000" font-family="sans-serif" font-size="15" font-style="italic" lengthAdjust="spacingAndGlyphs" textLength="70" x="71.75" y="529.3213">«@Entity»</text><text fill="#000000" font-family="sans-serif" font-size="15" lengthAdjust="spacingAndGlyphs" textLength="101.25" x="56.125" y="548.1885">RepairingPack</text><line style="stroke: #A80036; stroke-width: 1.875;" x1="8.75" x2="170" y1="557.7344" y2="557.7344"/><text fill="#000000" font-family="sans-serif" font-size="13.75" lengthAdjust="spacingAndGlyphs" textLength="81.25" x="15" y="577.0081">id «@Id» long</text><text fill="#000000" font-family="sans-serif" font-size="13.75" lengthAdjust="spacingAndGlyphs" textLength="148.75" x="15" y="594.303">invoicedDate : LocalDate</text><text fill="#000000" font-family="sans-serif" font-size="13.75" lengthAdjust="spacingAndGlyphs" textLength="111.25" x="15" y="611.5979">invoicedHours : int</text><line style="stroke: #A80036; stroke-width: 1.875;" x1="8.75" x2="170" y1="619.6191" y2="619.6191"/><!--MD5=[3aa0d89c6bfdcbf7f32042cedac57549]
class Vehicle--><rect fill="#FEFECE" filter="url(#ftr9s07tvjr2)" height="122.1191" id="Vehicle" style="stroke: #A80036; stroke-width: 1.875;" width="157.5" x="215.625" y="507.5"/><ellipse cx="258" cy="532.6172" fill="#ADD1B2" rx="13.75" ry="13.75" style="stroke: #A80036; stroke-width: 1.25;"/><path d="M260.5,528.2422 Q260.7539,527.6172 261.0469,527.3047 Q261.3398,526.9922 261.6719,526.9922 Q262.2578,526.9922 262.6289,527.3438 Q263,527.6953 263,528.5156 L263,530.4688 Q263,531.2891 262.6484,531.6406 Q262.2969,531.9922 261.75,531.9922 Q261.2617,531.9922 260.9492,531.7773 Q260.6367,531.5625 260.5,530.9961 Q260.4414,530.6055 260.2266,530.3906 Q259.8359,529.9805 259.1328,529.7461 Q258.4297,529.4922 257.7266,529.4922 Q256.8477,529.4922 256.1055,529.8438 Q255.3828,530.1953 254.8164,530.9766 Q254.25,531.7578 254.25,532.832 L254.25,533.9844 Q254.25,535.2734 255.3047,536.1328 Q256.3594,536.9922 258.2344,536.9922 Q259.3477,536.9922 260.1289,536.7383 Q260.5781,536.6016 261.0859,536.1523 Q261.418,535.8984 261.5938,535.8203 Q261.7695,535.7422 261.9844,535.7422 Q262.3945,535.7422 262.6875,536.0742 Q263,536.3867 263,536.8359 Q263,537.2656 262.5703,537.7734 Q261.9453,538.5156 260.9492,538.9258 Q259.6406,539.4922 258.0391,539.4922 Q256.1641,539.4922 254.6602,538.75 Q253.4492,538.1641 252.5898,536.8945 Q251.75,535.625 251.75,534.1211 L251.75,532.7539 Q251.75,531.1914 252.4922,529.8242 Q253.2539,528.457 254.5625,527.7344 Q255.8906,526.9922 257.375,526.9922 Q258.2734,526.9922 259.0547,527.3047 Q259.8359,527.6172 260.5,528.2422 Z "/><text fill="#000000" font-family="sans-serif" font-size="15" font-style="italic" lengthAdjust="spacingAndGlyphs" textLength="70" x="278.25" y="529.3213">«@Entity»</text><text fill="#000000" font-family="sans-serif" font-size="15" lengthAdjust="spacingAndGlyphs" textLength="50" x="288.25" y="548.1885">Vehicle</text><line style="stroke: #A80036; stroke-width: 1.875;" x1="216.875" x2="371.875" y1="557.7344" y2="557.7344"/><text fill="#000000" font-family="sans-serif" font-size="13.75" lengthAdjust="spacingAndGlyphs" textLength="88.75" x="223.125" y="577.0081">id «@Id» : long</text><text fill="#000000" font-family="sans-serif" font-size="13.75" lengthAdjust="spacingAndGlyphs" textLength="142.5" x="223.125" y="594.303">registrationPlate : String</text><text fill="#000000" font-family="sans-serif" font-size="13.75" lengthAdjust="spacingAndGlyphs" textLength="81.25" x="223.125" y="611.5979">brand : String</text><line style="stroke: #A80036; stroke-width: 1.875;" x1="216.875" x2="371.875" y1="619.6191" y2="619.6191"/><!--MD5=[a3638c1e5b65d287ecad7f06f5c0f212]
class Role--><rect fill="#FEFECE" filter="url(#ftr9s07tvjr2)" height="111.8848" id="Role" style="stroke: #A80036; stroke-width: 1.875;" width="90" x="544.375" y="263.75"/><ellipse cx="571" cy="283.75" fill="#EB937F" rx="13.75" ry="13.75" style="stroke: #A80036; stroke-width: 1.25;"/><path d="M569.125,285 L569.125,287.5 L574.125,287.5 L574.125,286.25 L574.125,285.6445 L574.9063,285 L575.375,285 L575.8438,285 L576.625,285.6445 L576.625,286.25 L576.625,290 L566.625,290 L566.0195,290 L565.375,289.2188 L565.375,288.75 L565.375,288.2813 L566.0195,287.5 L566.625,287.5 L566.625,287.5 L566.625,280 L566.625,280 L566.0195,280 L565.375,279.2188 L565.375,278.75 L565.375,278.2813 L566.0195,277.5 L566.625,277.5 L576.625,277.5 L576.625,281.25 L576.625,281.8555 L575.8438,282.5 L575.375,282.5 L574.9063,282.5 L574.125,281.8555 L574.125,281.25 L574.125,280 L569.125,280 L569.125,282.5 L570.375,282.5 L570.375,281.8945 L570.375,281.8945 L571.1563,281.25 L571.625,281.25 L572.0938,281.25 L572.875,281.8945 L572.875,282.5 L572.875,285 L572.875,285.6055 L572.0938,286.25 L572.0938,286.25 L571.625,286.25 L571.1563,286.25 L570.375,285.6055 L570.375,285.6055 L570.375,285 L569.125,285 Z "/><text fill="#000000" font-family="sans-serif" font-size="15" lengthAdjust="spacingAndGlyphs" textLength="32.5" x="590.25" y="289.8877">Role</text><line style="stroke: #A80036; stroke-width: 1.875;" x1="545.625" x2="633.125" y1="303.75" y2="303.75"/><text fill="#000000" font-family="sans-serif" font-size="13.75" lengthAdjust="spacingAndGlyphs" textLength="40" x="551.875" y="323.0237">ADMIN</text><text fill="#000000" font-family="sans-serif" font-size="13.75" lengthAdjust="spacingAndGlyphs" textLength="65" x="551.875" y="340.3186">MECHANIC</text><text fill="#000000" font-family="sans-serif" font-size="13.75" lengthAdjust="spacingAndGlyphs" textLength="75" x="551.875" y="357.6135">DEVELOPER</text><line style="stroke: #A80036; stroke-width: 1.875;" x1="545.625" x2="633.125" y1="365.6348" y2="365.6348"/><!--MD5=[872f6de46b744e45df7bf800c322cbcd]
class InterventionType--><rect fill="#FEFECE" filter="url(#ftr9s07tvjr2)" height="94.5898" id="InterventionType" style="stroke: #A80036; stroke-width: 1.875;" width="151.25" x="417.5" y="521.25"/><ellipse cx="436.25" cy="541.25" fill="#EB937F" rx="13.75" ry="13.75" style="stroke: #A80036; stroke-width: 1.25;"/><path d="M434.375,542.5 L434.375,545 L439.375,545 L439.375,543.75 L439.375,543.1445 L440.1563,542.5 L440.625,542.5 L441.0938,542.5 L441.875,543.1445 L441.875,543.75 L441.875,547.5 L431.875,547.5 L431.2695,547.5 L430.625,546.7188 L430.625,546.25 L430.625,545.7813 L431.2695,545 L431.875,545 L431.875,545 L431.875,537.5 L431.875,537.5 L431.2695,537.5 L430.625,536.7188 L430.625,536.25 L430.625,535.7813 L431.2695,535 L431.875,535 L441.875,535 L441.875,538.75 L441.875,539.3555 L441.0938,540 L440.625,540 L440.1563,540 L439.375,539.3555 L439.375,538.75 L439.375,537.5 L434.375,537.5 L434.375,540 L435.625,540 L435.625,539.3945 L435.625,539.3945 L436.4063,538.75 L436.875,538.75 L437.3438,538.75 L438.125,539.3945 L438.125,540 L438.125,542.5 L438.125,543.1055 L437.3438,543.75 L437.3438,543.75 L436.875,543.75 L436.4063,543.75 L435.625,543.1055 L435.625,543.1055 L435.625,542.5 L434.375,542.5 Z "/><text fill="#000000" font-family="sans-serif" font-size="15" lengthAdjust="spacingAndGlyphs" textLength="111.25" x="453.75" y="547.3877">InterventionType</text><line style="stroke: #A80036; stroke-width: 1.875;" x1="418.75" x2="567.5" y1="561.25" y2="561.25"/><text fill="#000000" font-family="sans-serif" font-size="13.75" lengthAdjust="spacingAndGlyphs" textLength="45" x="425" y="580.5237">REPAIR</text><text fill="#000000" font-family="sans-serif" font-size="13.75" lengthAdjust="spacingAndGlyphs" textLength="48.75" x="425" y="597.8186">COFFEE</text><line style="stroke: #A80036; stroke-width: 1.875;" x1="418.75" x2="567.5" y1="605.8398" y2="605.8398"/><!--MD5=[1afbda94433d53b7a45c8f8fdbcb355b]
link Vehicle to Client--><path d="M294.375,645.5363 C294.375,645.5363 294.375,705.6646 294.375,730.7135 " fill="none" id="Vehicle-Client" style="stroke: #A80036; stroke-width: 1.25;"/><polygon fill="#A80036" points="294.375,747.032,299.375,735.782,294.375,740.782,289.375,735.782,294.375,747.032" style="stroke: #A80036; stroke-width: 1.25;"/><line style="stroke: #A80036; stroke-width: 1.25;" x1="294.375" x2="294.375" y1="740.782" y2="730.782"/><polygon fill="#FFFFFF" points="294.375,630.5363,289.375,638.0363,294.375,645.5363,299.375,638.0363,294.375,630.5363" style="stroke: #A80036; stroke-width: 1.25;"/><text fill="#000000" font-family="sans-serif" font-size="16.25" lengthAdjust="spacingAndGlyphs" textLength="121.25" x="295.625" y="685.6189">«@ManyToOne»</text><text fill="#000000" font-family="sans-serif" font-size="16.25" lengthAdjust="spacingAndGlyphs" textLength="38.75" x="341.875" y="706.0583">client</text><text fill="#000000" font-family="sans-serif" font-size="16.25" lengthAdjust="spacingAndGlyphs" textLength="25" x="267.7734" y="656.6553">0..*</text><text fill="#000000" font-family="sans-serif" font-size="16.25" lengthAdjust="spacingAndGlyphs" textLength="27.5" x="263.8672" y="733.9772">0..1</text><!--MD5=[75babe014cae0da54eca3b1f4b051205]
link Intervention to Vehicle--><path d="M294.375,405.1713 C294.375,405.1713 294.375,464.11 294.375,490.8238 " fill="none" id="Intervention-Vehicle" style="stroke: #A80036; stroke-width: 1.25;"/><polygon fill="#A80036" points="294.375,507.3888,299.375,496.1388,294.375,501.1388,289.375,496.1388,294.375,507.3888" style="stroke: #A80036; stroke-width: 1.25;"/><line style="stroke: #A80036; stroke-width: 1.25;" x1="294.375" x2="294.375" y1="501.1388" y2="491.1388"/><polygon fill="#FFFFFF" points="294.375,390.1713,289.375,397.6713,294.375,405.1713,299.375,397.6713,294.375,390.1713" style="stroke: #A80036; stroke-width: 1.25;"/><text fill="#000000" font-family="sans-serif" font-size="16.25" lengthAdjust="spacingAndGlyphs" textLength="121.25" x="295.625" y="445.6189">«@ManyToOne»</text><text fill="#000000" font-family="sans-serif" font-size="16.25" lengthAdjust="spacingAndGlyphs" textLength="48.75" x="336.875" y="466.0583">vehicle</text><text fill="#000000" font-family="sans-serif" font-size="16.25" lengthAdjust="spacingAndGlyphs" textLength="25" x="267.9297" y="416.3692">0..*</text><text fill="#000000" font-family="sans-serif" font-size="16.25" lengthAdjust="spacingAndGlyphs" textLength="27.5" x="264.8555" y="493.8367">0..1</text><!--MD5=[45311eac9e29cefadc9c16650ede21d9]
link Mechanic to Intervention--><path d="M367.3119,120.565 C367.3119,120.565 290.625,170 290.625,170 C290.625,170 290.625,212.5 290.625,212.5 C290.625,212.5 290.9263,221.025 291.3575,233.2462 " fill="none" id="Mechanic-Intervention" style="stroke: #A80036; stroke-width: 1.25;"/><polygon fill="#A80036" points="291.9363,249.6613,296.5363,238.2419,291.7158,243.4151,286.5425,238.5946,291.9363,249.6613" style="stroke: #A80036; stroke-width: 1.25;"/><line style="stroke: #A80036; stroke-width: 1.25;" x1="291.7158" x2="291.3631" y1="243.4151" y2="233.4206"/><polygon fill="#A80036" points="379.92,112.4388,370.9072,112.2992,367.3119,120.565,376.3247,120.7046,379.92,112.4388" style="stroke: #A80036; stroke-width: 1.25;"/><text fill="#000000" font-family="sans-serif" font-size="16.25" lengthAdjust="spacingAndGlyphs" textLength="258.75" x="291.875" y="188.1189">«@OneToMany CascadeType.ALL»</text><text fill="#000000" font-family="sans-serif" font-size="16.25" lengthAdjust="spacingAndGlyphs" textLength="107.5" x="372.5" y="208.5583">interventionList</text><text fill="#000000" font-family="sans-serif" font-size="16.25" lengthAdjust="spacingAndGlyphs" textLength="8.75" x="361.4278" y="113.9487">1</text><text fill="#000000" font-family="sans-serif" font-size="16.25" lengthAdjust="spacingAndGlyphs" textLength="25" x="265.0222" y="236.3024">0..*</text><!--MD5=[287455de2f45a13eada30db5774ecfe1]
link Intervention to RepairingPack--><path d="M211.464,384.739 C211.464,384.739 155.625,427.5 155.625,427.5 C155.625,427.5 140.59,459.2712 124.8455,492.5438 " fill="none" id="Intervention-RepairingPack" style="stroke: #A80036; stroke-width: 1.25;"/><polygon fill="#A80036" points="117.8555,507.315,127.1867,499.2844,120.5286,501.6655,118.1475,495.0074,117.8555,507.315" style="stroke: #A80036; stroke-width: 1.25;"/><line style="stroke: #A80036; stroke-width: 1.25;" x1="120.5286" x2="124.8063" y1="501.6655" y2="492.6263"/><polygon fill="#FFFFFF" points="223.3738,375.62,214.3792,376.2096,211.464,384.739,220.4585,384.1494,223.3738,375.62" style="stroke: #A80036; stroke-width: 1.25;"/><text fill="#000000" font-family="sans-serif" font-size="16.25" lengthAdjust="spacingAndGlyphs" textLength="121.25" x="156.875" y="445.6189">«@ManyToOne»</text><text fill="#000000" font-family="sans-serif" font-size="16.25" lengthAdjust="spacingAndGlyphs" textLength="98.75" x="173.125" y="466.0583">repairingPack</text><text fill="#000000" font-family="sans-serif" font-size="16.25" lengthAdjust="spacingAndGlyphs" textLength="25" x="188.7189" y="377.823">0..*</text><text fill="#000000" font-family="sans-serif" font-size="16.25" lengthAdjust="spacingAndGlyphs" textLength="27.5" x="92.519" y="493.7521">0..1</text><!--MD5=[1b10a0ade126e02313dbb3c3464c1e7e]
link Intervention to InterventionType--><path d="M377.286,384.739 C377.286,384.739 433.125,427.5 433.125,427.5 C433.125,427.5 450.5575,468.175 466.63,505.6775 " fill="none" id="Intervention-InterventionType" style="stroke: #A80036; stroke-width: 1.25;"/><polygon fill="#A80036" points="473.1463,520.8825,473.3099,508.5725,470.684,515.138,464.1186,512.5121,473.1463,520.8825" style="stroke: #A80036; stroke-width: 1.25;"/><line style="stroke: #A80036; stroke-width: 1.25;" x1="470.684" x2="466.745" y1="515.138" y2="505.9456"/><polygon fill="#A80036" points="365.3762,375.62,368.2915,384.1494,377.286,384.739,374.3708,376.2096,365.3762,375.62" style="stroke: #A80036; stroke-width: 1.25;"/><text fill="#000000" font-family="sans-serif" font-size="16.25" lengthAdjust="spacingAndGlyphs" textLength="8.75" x="460.0582" y="507.5194">1</text><!--MD5=[1f81ffd9f2b642def988d96a419da578]
link Mechanic to Role--><path d="M515.6252,132.4229 C515.6252,132.4229 561.875,170 561.875,170 C561.875,170 569.1038,209.1 576.1488,247.2075 " fill="none" id="Mechanic-Role" style="stroke: #A80036; stroke-width: 1.25;"/><polygon fill="#A80036" points="579.135,263.3613,582.0058,251.3896,577.9984,257.2155,572.1725,253.2081,579.135,263.3613" style="stroke: #A80036; stroke-width: 1.25;"/><line style="stroke: #A80036; stroke-width: 1.25;" x1="577.9984" x2="576.1806" y1="257.2155" y2="247.3819"/><polygon fill="#A80036" points="503.9838,122.9637,506.6514,131.5738,515.6252,132.4229,512.9575,123.8129,503.9838,122.9637" style="stroke: #A80036; stroke-width: 1.25;"/><text fill="#000000" font-family="sans-serif" font-size="16.25" lengthAdjust="spacingAndGlyphs" textLength="25" x="550.6529" y="250.1068">1..*</text><!--MD5=[caf48d2890b306d15de3d841c4e89e7e]
@startuml
skinparam linetype polyline

Class Client <<@Entity>>
Class Intervention <<@Entity>>{
    id <<@Id>> : long
    description : String
    startTime : LocalDate
    endTime : LocalDate
}

Class Mechanic <<@Entity>> {
    id <<@Id>> : long
    username : String
    password : String
}

Class RepairingPack <<@Entity>> {
    id <<@Id>> long
    invoicedDate : LocalDate
    invoicedHours : int
}

Class Vehicle <<@Entity>> {
    id <<@Id>> : long
    registrationPlate : String
    brand : String
}

Enum Role {
    ADMIN
    MECHANIC
    DEVELOPER
}

Enum InterventionType{
    REPAIR
    COFFEE
}


Vehicle "0..*" o- -> "0..1" Client : <<@ManyToOne>> \n client
Intervention "0..*" o- -> "0..1" Vehicle : <<@ManyToOne>> \n vehicle
Mechanic "1" *- -> "0..*" Intervention : <<@OneToMany CascadeType.ALL>> \n interventionList
Intervention "0..*" o- -> "0..1" RepairingPack : <<@ManyToOne>> \n repairingPack
Intervention *- -> "1" InterventionType
Mechanic *- -> "1..*" Role
@enduml

PlantUML version 1.2020.09(Sun May 10 12:51:06 CEST 2020)
(GPL source distribution)
Java Runtime: OpenJDK Runtime Environment
JVM: OpenJDK 64-Bit Server VM
Java Version: 11.0.8+10-b1094.1
Operating System: Windows 10
Default Encoding: Cp1252
Language: en
Country: GB
--></g></svg>