<?xml version="1.0" encoding="UTF-8" standalone="no"?><svg xmlns="http://www.w3.org/2000/svg" xmlns:xlink="http://www.w3.org/1999/xlink" contentScriptType="application/ecmascript" contentStyleType="text/css" height="423.75px" preserveAspectRatio="none" style="width:283px;height:423px;" version="1.1" viewBox="0 0 283 423" width="283.75px" zoomAndPan="magnify"><defs><filter height="300%" id="f1entkm6jbwse6" width="300%" x="-1" y="-1"><feGaussianBlur result="blurOut" stdDeviation="2.5"/><feColorMatrix in="blurOut" result="blurOut2" type="matrix" values="0 0 0 0 0 0 0 0 0 0 0 0 0 0 0 0 0 0 .4 0"/><feOffset dx="5.0" dy="5.0" in="blurOut2" result="blurOut3"/><feBlend in="SourceGraphic" in2="blurOut3" mode="normal"/></filter></defs><g><rect fill="#FEFECE" filter="url(#f1entkm6jbwse6)" height="43.8672" style="stroke: #A80036; stroke-width: 1.875;" width="82.5" x="116.4594" y="10"/><text fill="#000000" font-family="sans-serif" font-size="15" lengthAdjust="spacingAndGlyphs" textLength="65" x="125.2094" y="28.0713">Mechanic</text><line style="stroke: #A80036; stroke-width: 1.875;" x1="117.7094" x2="197.7094" y1="33.8672" y2="33.8672"/><rect fill="#FEFECE" filter="url(#f1entkm6jbwse6)" height="43.8672" style="stroke: #A80036; stroke-width: 1.875;" width="96.25" x="45.8344" y="247.5"/><text fill="#000000" font-family="sans-serif" font-size="15" lengthAdjust="spacingAndGlyphs" textLength="78.75" x="54.5844" y="265.5713">Intervention</text><line style="stroke: #A80036; stroke-width: 1.875;" x1="47.0844" x2="140.8344" y1="271.3672" y2="271.3672"/><rect fill="#FEFECE" filter="url(#f1entkm6jbwse6)" height="43.8672" style="stroke: #A80036; stroke-width: 1.875;" width="57.5" x="186.4588" y="247.5"/><text fill="#000000" font-family="sans-serif" font-size="15" lengthAdjust="spacingAndGlyphs" textLength="40" x="195.2088" y="265.5713">Client</text><line style="stroke: #A80036; stroke-width: 1.875;" x1="187.7088" x2="242.7088" y1="271.3672" y2="271.3672"/><rect fill="#FEFECE" filter="url(#f1entkm6jbwse6)" height="43.8672" style="stroke: #A80036; stroke-width: 1.875;" width="67.5" x="181.4588" y="366.25"/><text fill="#000000" font-family="sans-serif" font-size="15" lengthAdjust="spacingAndGlyphs" textLength="50" x="190.2088" y="384.3213">Vehicle</text><line style="stroke: #A80036; stroke-width: 1.875;" x1="182.7088" x2="247.7088" y1="390.1172" y2="390.1172"/><rect fill="#FEFECE" filter="url(#f1entkm6jbwse6)" height="43.8672" style="stroke: #A80036; stroke-width: 1.875;" width="118.75" x="35.8344" y="128.75"/><text fill="#000000" font-family="sans-serif" font-size="15" lengthAdjust="spacingAndGlyphs" textLength="101.25" x="44.5844" y="146.8213">RepairingPack</text><line style="stroke: #A80036; stroke-width: 1.875;" x1="37.0844" x2="153.3344" y1="152.6172" y2="152.6172"/><!--MD5=[c3c064959d75bf90d54a4576dfab5b8e]
reverse link Mechanic to Intervention--><path d="M101.0368,54.7863 C69.2555,70.2087 32.3908,94.3525 13.9594,128.75 C-8.837,171.2938 35.7118,219.9875 66.9951,247.0888 " fill="none" id="Mechanic&lt;-Intervention" style="stroke: #A80036; stroke-width: 1.25;"/><polygon fill="#A80036" points="116.127,47.91,107.2288,46.4703,102.4775,54.1303,111.3757,55.57,116.127,47.91" style="stroke: #A80036; stroke-width: 1.25;"/><text fill="#000000" font-family="sans-serif" font-size="16.25" lengthAdjust="spacingAndGlyphs" textLength="6.25" x="51.5303" y="234.1193">*</text><!--MD5=[10fc4cf26933b8fe96f32505068bcf8e]
link Mechanic to Vehicle--><path d="M173.375,54.1825 C199.5563,91.0175 250.7575,170.5713 265.2088,247.5 C268.8,266.61 269.8488,272.3675 265.2088,291.25 C259.0525,316.311 245.045,342.089 233.4175,360.5563 " fill="none" id="Mechanic-&gt;Vehicle" style="stroke: #A80036; stroke-width: 1.25; stroke-dasharray: 7.0,7.0;"/><polygon fill="#A80036" points="229.8975,366.0439,240.1806,359.2749,233.2724,360.7834,231.7639,353.8751,229.8975,366.0439" style="stroke: #A80036; stroke-width: 1.25;"/><!--MD5=[c0612bb319c2bb9c9a121cf6e661d8b8]
link Mechanic to RepairingPack--><path d="M146.535,53.9088 C136.2013,73.13 120.787,101.8 109.5485,122.7038 " fill="none" id="Mechanic-&gt;RepairingPack" style="stroke: #A80036; stroke-width: 1.25; stroke-dasharray: 7.0,7.0;"/><polygon fill="#A80036" points="106.4971,128.38,116.2294,120.8404,109.4575,122.8756,107.4223,116.1037,106.4971,128.38" style="stroke: #A80036; stroke-width: 1.25;"/><!--MD5=[d7a9b2d155e4b5b6f200e5401ffe5b52]
link Mechanic to Client--><path d="M162.8125,53.98 C173.2125,96.485 196.8588,193.1263 208.4913,240.6713 " fill="none" id="Mechanic-&gt;Client" style="stroke: #A80036; stroke-width: 1.25; stroke-dasharray: 7.0,7.0;"/><polygon fill="#A80036" points="210.1175,247.3175,212.3002,235.2015,208.6319,241.2466,202.5868,237.5784,210.1175,247.3175" style="stroke: #A80036; stroke-width: 1.25;"/><!--MD5=[167c7246344a03b7a9b9ac52a0e7bb16]
reverse link Client to Vehicle--><path d="M215.2088,307.7676 C215.2088,326.9786 215.2088,349.7215 215.2088,365.8798 " fill="none" id="Client&lt;-Vehicle" style="stroke: #A80036; stroke-width: 1.25;"/><polygon fill="#A80036" points="215.2088,291.4081,210.2088,298.9081,215.2088,306.4081,220.2088,298.9081,215.2088,291.4081" style="stroke: #A80036; stroke-width: 1.25;"/><text fill="#000000" font-family="sans-serif" font-size="16.25" lengthAdjust="spacingAndGlyphs" textLength="8.75" x="205.1189" y="318.1365">1</text><!--MD5=[bb201bb38b1319122f2150c2bf5e2133]
reverse link RepairingPack to Intervention--><path d="M94.81,189.0175 C94.6034,208.2288 94.3589,230.9713 94.1851,247.13 " fill="none" id="RepairingPack&lt;-Intervention" style="stroke: #A80036; stroke-width: 1.25;"/><polygon fill="#FFFFFF" points="94.9859,172.6588,89.9054,180.1045,94.8243,187.6579,99.9048,180.2122,94.9859,172.6588" style="stroke: #A80036; stroke-width: 1.25;"/><text fill="#000000" font-family="sans-serif" font-size="16.25" lengthAdjust="spacingAndGlyphs" textLength="27.5" x="63.2065" y="199.3873">0..1</text><text fill="#000000" font-family="sans-serif" font-size="16.25" lengthAdjust="spacingAndGlyphs" textLength="6.25" x="87.011" y="233.7722">*</text><!--MD5=[aec92a431b006b4ac4b9b8c95bf40422]
reverse link Intervention to Vehicle--><path d="M127.8719,303.1391 C148.8188,323.2216 175.0825,348.4025 193.3113,365.8798 " fill="none" id="Intervention&lt;-Vehicle" style="stroke: #A80036; stroke-width: 1.25;"/><polygon fill="#FFFFFF" points="115.6364,291.4081,117.5898,300.2078,126.4639,301.7891,124.5105,292.9894,115.6364,291.4081" style="stroke: #A80036; stroke-width: 1.25;"/><text fill="#000000" font-family="sans-serif" font-size="16.25" lengthAdjust="spacingAndGlyphs" textLength="27.5" x="154.4486" y="352.5218">0..1</text><!--MD5=[f554aeedc212fc69a17422596c2e18a0]
@startuml
object Mechanic
object Intervention
object Client
object Vehicle
object RepairingPack

Mechanic *- - "*" Intervention
Mechanic ..> Vehicle
Mechanic ..> RepairingPack
Mechanic ..> Client
Client "1" *-down- Vehicle
RepairingPack "0..1" o- - "*" Intervention
Intervention o- - "0..1" Vehicle
@enduml

PlantUML version 1.2020.09(Sun May 10 12:51:06 CEST 2020)
(GPL source distribution)
Java Runtime: OpenJDK Runtime Environment
JVM: OpenJDK 64-Bit Server VM
Java Version: 11.0.8+10-b1094.1
Operating System: Windows 10
Default Encoding: Cp1252
Language: en
Country: GB
--></g></svg>