<?xml version="1.0" encoding="UTF-8" standalone="no"?><svg xmlns="http://www.w3.org/2000/svg" xmlns:xlink="http://www.w3.org/1999/xlink" contentScriptType="application/ecmascript" contentStyleType="text/css" height="595px" preserveAspectRatio="none" style="width:836px;height:595px;" version="1.1" viewBox="0 0 836 595" width="836px" zoomAndPan="magnify"><defs><filter height="300%" id="f4pzenovp60g4" width="300%" x="-1" y="-1"><feGaussianBlur result="blurOut" stdDeviation="2.0"/><feColorMatrix in="blurOut" result="blurOut2" type="matrix" values="0 0 0 0 0 0 0 0 0 0 0 0 0 0 0 0 0 0 .4 0"/><feOffset dx="4.0" dy="4.0" in="blurOut2" result="blurOut3"/><feBlend in="SourceGraphic" in2="blurOut3" mode="normal"/></filter></defs><g><rect fill="#FEFECE" filter="url(#f4pzenovp60g4)" height="40" rx="12.5" ry="12.5" style="stroke: #A80036; stroke-width: 1.5;" width="141" x="6" y="8"/><text fill="#000000" font-family="sans-serif" font-size="14" lengthAdjust="spacingAndGlyphs" textLength="131" x="11" y="33.7285">OPENED_VEHICLES</text><rect fill="#FEFECE" filter="url(#f4pzenovp60g4)" height="40" rx="12.5" ry="12.5" style="stroke: #A80036; stroke-width: 1.5;" width="132" x="185.5" y="8"/><text fill="#000000" font-family="sans-serif" font-size="14" lengthAdjust="spacingAndGlyphs" textLength="122" x="190.5" y="33.7285">OPENED_CLIENTS</text><rect fill="#FEFECE" filter="url(#f4pzenovp60g4)" height="40" rx="12.5" ry="12.5" style="stroke: #A80036; stroke-width: 1.5;" width="183" x="353" y="8"/><text fill="#000000" font-family="sans-serif" font-size="14" lengthAdjust="spacingAndGlyphs" textLength="173" x="358" y="33.7285">OPENED_INTERVENTIONS</text><rect fill="#FEFECE" filter="url(#f4pzenovp60g4)" height="40" rx="12.5" ry="12.5" style="stroke: #A80036; stroke-width: 1.5;" width="54" x="574.5" y="8"/><text fill="#000000" font-family="sans-serif" font-size="14" lengthAdjust="spacingAndGlyphs" textLength="44" x="579.5" y="33.7285">INITIAL</text><rect fill="#FEFECE" filter="url(#f4pzenovp60g4)" height="40" rx="12.5" ry="12.5" style="stroke: #A80036; stroke-width: 1.5;" width="161" x="664" y="8"/><text fill="#000000" font-family="sans-serif" font-size="14" lengthAdjust="spacingAndGlyphs" textLength="151" x="669" y="33.7285">OPENED_DASHBOARD</text><rect fill="#FEFECE" filter="url(#f4pzenovp60g4)" height="40" rx="12.5" ry="12.5" style="stroke: #A80036; stroke-width: 1.5;" width="161" x="360" y="544"/><text fill="#000000" font-family="sans-serif" font-size="14" lengthAdjust="spacingAndGlyphs" textLength="151" x="365" y="569.7285">OPENED_DASHBOARD</text><rect fill="#FEFECE" filter="url(#f4pzenovp60g4)" height="318.6094" rx="12.5" ry="12.5" style="stroke: #A80036; stroke-width: 1.5;" width="271" x="305" y="164"/><rect fill="#FFFFFF" height="285" rx="12.5" ry="12.5" style="stroke: #FFFFFF; stroke-width: 1.0;" width="265" x="308" y="194.6094"/><line style="stroke: #A80036; stroke-width: 1.5;" x1="305" x2="576" y1="191.6094" y2="191.6094"/><text fill="#000000" font-family="sans-serif" font-size="14" lengthAdjust="spacingAndGlyphs" textLength="102" x="389.5" y="183.5332">openDashboard</text><ellipse cx="326" cy="214.6094" fill="#000000" filter="url(#f4pzenovp60g4)" rx="10" ry="10" style="stroke: none; stroke-width: 1.0;"/><ellipse cx="326" cy="457.6094" fill="none" filter="url(#f4pzenovp60g4)" rx="10" ry="10" style="stroke: #000000; stroke-width: 1.0;"/><ellipse cx="326.5" cy="458.1094" fill="#000000" rx="6" ry="6" style="stroke: none; stroke-width: 1.0;"/><!--MD5=[7760f02715564001c393a248f9ff75f1]
link *start*openDashboard to *end*openDashboard--><path d="M326,224.7624 C326,261.3714 326,397.4342 326,442.2169 " fill="none" id="*start*openDashboard-&gt;*end*openDashboard" style="stroke: #008000; stroke-width: 1.0;"/><polygon fill="#008000" points="326,447.4471,330,438.4471,326,442.4471,322,438.4471,326,447.4471" style="stroke: #008000; stroke-width: 1.0;"/><path d="M331,247.6094 L331,420.6094 L534,420.6094 L534,257.6094 L524,247.6094 L331,247.6094 " fill="#F5F5F5" filter="url(#f4pzenovp60g4)" style="stroke: #008000; stroke-width: 1.0;"/><path d="M524,247.6094 L524,257.6094 L534,257.6094 L524,247.6094 " fill="#F5F5F5" style="stroke: #008000; stroke-width: 1.0;"/><text fill="#000000" font-family="sans-serif" font-size="13" font-weight="bold" lengthAdjust="spacingAndGlyphs" textLength="89" x="337" y="266.1045">System shows</text><ellipse cx="342.5" cy="277.8125" fill="#000000" rx="2.5" ry="2.5" style="stroke: #000000; stroke-width: 0.0;"/><text fill="#000000" font-family="sans-serif" font-size="13" lengthAdjust="spacingAndGlyphs" textLength="169" x="350" y="282.4561">mechanic active interventions</text><text fill="#000000" font-family="sans-serif" font-size="13" font-weight="bold" lengthAdjust="spacingAndGlyphs" textLength="91" x="337" y="298.8076">System allows</text><ellipse cx="342.5" cy="310.5156" fill="#000000" rx="2.5" ry="2.5" style="stroke: #000000; stroke-width: 0.0;"/><text fill="#000000" font-family="sans-serif" font-size="13" lengthAdjust="spacingAndGlyphs" textLength="78" x="350" y="315.1592">open vehicles</text><ellipse cx="342.5" cy="326.8672" fill="#000000" rx="2.5" ry="2.5" style="stroke: #000000; stroke-width: 0.0;"/><text fill="#000000" font-family="sans-serif" font-size="13" lengthAdjust="spacingAndGlyphs" textLength="104" x="350" y="331.5107">open interventions</text><ellipse cx="342.5" cy="343.2188" fill="#000000" rx="2.5" ry="2.5" style="stroke: #000000; stroke-width: 0.0;"/><text fill="#000000" font-family="sans-serif" font-size="13" lengthAdjust="spacingAndGlyphs" textLength="70" x="350" y="347.8623">open clients</text><ellipse cx="342.5" cy="359.5703" fill="#000000" rx="2.5" ry="2.5" style="stroke: #000000; stroke-width: 0.0;"/><text fill="#000000" font-family="sans-serif" font-size="13" lengthAdjust="spacingAndGlyphs" textLength="92" x="350" y="364.2139">open operations</text><ellipse cx="342.5" cy="375.9219" fill="#000000" rx="2.5" ry="2.5" style="stroke: #000000; stroke-width: 0.0;"/><text fill="#000000" font-family="sans-serif" font-size="13" lengthAdjust="spacingAndGlyphs" textLength="35" x="350" y="380.5654">logout</text><ellipse cx="342.5" cy="392.2734" fill="#000000" rx="2.5" ry="2.5" style="stroke: #000000; stroke-width: 0.0;"/><text fill="#000000" font-family="sans-serif" font-size="13" lengthAdjust="spacingAndGlyphs" textLength="105" x="350" y="396.917">create intervention</text><ellipse cx="342.5" cy="408.625" fill="#000000" rx="2.5" ry="2.5" style="stroke: #000000; stroke-width: 0.0;"/><text fill="#000000" font-family="sans-serif" font-size="13" lengthAdjust="spacingAndGlyphs" textLength="99" x="350" y="413.2686">finish intervention</text><!--MD5=[40cf36ddaf1ccebc1ca33a1b7169da3a]
link startState1 to openDashboard--><path d="M85.3039,48.259 C99.1611,78.571 124.5,134 124.5,134 C124.5,134 215.714,188.411 300.129,238.766 " fill="none" id="startState1-&gt;openDashboard" style="stroke: #008000; stroke-width: 1.0;"/><polygon fill="#008000" points="304.654,241.465,298.9748,233.4185,300.3602,238.903,294.8757,240.2885,304.654,241.465" style="stroke: #008000; stroke-width: 1.0;"/><path d="M129.5,83 L129.5,125 L253.5,125 L253.5,93 L243.5,83 L129.5,83 " fill="#F5F5F5" filter="url(#f4pzenovp60g4)" style="stroke: #008000; stroke-width: 1.0;"/><path d="M243.5,83 L243.5,93 L253.5,93 L243.5,83 " fill="#F5F5F5" style="stroke: #008000; stroke-width: 1.0;"/><text fill="#000000" font-family="sans-serif" font-size="13" font-weight="bold" lengthAdjust="spacingAndGlyphs" textLength="101" x="135.5" y="101.4951">User requests to</text><ellipse cx="141" cy="113.2031" fill="#000000" rx="2.5" ry="2.5" style="stroke: #000000; stroke-width: 0.0;"/><text fill="#000000" font-family="sans-serif" font-size="13" lengthAdjust="spacingAndGlyphs" textLength="90" x="148.5" y="117.8467">openDashboard</text><!--MD5=[ef425f6a1a8b72260792c1d076053469]
link startState2 to openDashboard--><path d="M258.837,48.259 C270.384,78.571 291.5,134 291.5,134 C291.5,134 299.538,144.169 311.881,159.784 " fill="none" id="startState2-&gt;openDashboard" style="stroke: #008000; stroke-width: 1.0;"/><polygon fill="#008000" points="315.109,163.868,312.6672,154.3266,312.0089,159.945,306.3905,159.2867,315.109,163.868" style="stroke: #008000; stroke-width: 1.0;"/><path d="M296.5,83 L296.5,125 L420.5,125 L420.5,93 L410.5,83 L296.5,83 " fill="#F5F5F5" filter="url(#f4pzenovp60g4)" style="stroke: #008000; stroke-width: 1.0;"/><path d="M410.5,83 L410.5,93 L420.5,93 L410.5,83 " fill="#F5F5F5" style="stroke: #008000; stroke-width: 1.0;"/><text fill="#000000" font-family="sans-serif" font-size="13" font-weight="bold" lengthAdjust="spacingAndGlyphs" textLength="101" x="302.5" y="101.4951">User requests to</text><ellipse cx="308" cy="113.2031" fill="#000000" rx="2.5" ry="2.5" style="stroke: #000000; stroke-width: 0.0;"/><text fill="#000000" font-family="sans-serif" font-size="13" lengthAdjust="spacingAndGlyphs" textLength="90" x="315.5" y="117.8467">openDashboard</text><!--MD5=[bd01fe0b97804be981629aa9322c1366]
link startState3 to openDashboard--><path d="M441.774,48.085 C439.808,61.843 437.5,78 437.5,78 C437.5,78 437.5,134 437.5,134 C437.5,134 437.654,143.659 437.892,158.604 " fill="none" id="startState3-&gt;openDashboard" style="stroke: #008000; stroke-width: 1.0;"/><polygon fill="#008000" points="437.975,163.868,441.8305,154.8051,437.895,158.8686,433.8315,154.9332,437.975,163.868" style="stroke: #008000; stroke-width: 1.0;"/><path d="M442.5,83 L442.5,125 L566.5,125 L566.5,93 L556.5,83 L442.5,83 " fill="#F5F5F5" filter="url(#f4pzenovp60g4)" style="stroke: #008000; stroke-width: 1.0;"/><path d="M556.5,83 L556.5,93 L566.5,93 L556.5,83 " fill="#F5F5F5" style="stroke: #008000; stroke-width: 1.0;"/><text fill="#000000" font-family="sans-serif" font-size="13" font-weight="bold" lengthAdjust="spacingAndGlyphs" textLength="101" x="448.5" y="101.4951">User requests to</text><ellipse cx="454" cy="113.2031" fill="#000000" rx="2.5" ry="2.5" style="stroke: #000000; stroke-width: 0.0;"/><text fill="#000000" font-family="sans-serif" font-size="13" lengthAdjust="spacingAndGlyphs" textLength="90" x="461.5" y="117.8467">openDashboard</text><!--MD5=[d0135f51b8bfee4406ad0b33ab60a0e3]
link startState4 to openDashboard--><path d="M597.465,48.259 C591.114,78.571 579.5,134 579.5,134 C579.5,134 572.001,144.169 560.487,159.784 " fill="none" id="startState4-&gt;openDashboard" style="stroke: #008000; stroke-width: 1.0;"/><polygon fill="#008000" points="557.475,163.868,566.0355,158.9979,560.4422,159.8436,559.5965,154.2503,557.475,163.868" style="stroke: #008000; stroke-width: 1.0;"/><!--MD5=[5c261f585f02ad208b2a4df9a6509122]
link startState5 to openDashboard--><path d="M724.554,48.257 C694.76,77.022 636.093,133.663 579.772,188.038 " fill="none" id="startState5-&gt;openDashboard" style="stroke: #008000; stroke-width: 1.0;"/><polygon fill="#008000" points="576.066,191.616,585.3191,188.2426,579.6631,188.1432,579.7626,182.4872,576.066,191.616" style="stroke: #008000; stroke-width: 1.0;"/><!--MD5=[2b1bc4c3aa9049d17b93068144ec0bd7]
link openDashboard to endState--><path d="M440.5,483.251 C440.5,504.7862 440.5,524.3835 440.5,538.7622 " fill="none" id="openDashboard-&gt;endState" style="stroke: #008000; stroke-width: 1.0;"/><polygon fill="#008000" points="440.5,543.8174,444.5,534.8174,440.5,538.8174,436.5,534.8174,440.5,543.8174" style="stroke: #008000; stroke-width: 1.0;"/><!--MD5=[9a50c1d3b97c30dd42e3fda809b16ef5]
@startuml

skinparam {
    NoteBackgroundColor #whiteSmoke
    ArrowColor #green
    NoteBorderColor #green
    linetype polyline
}

hide empty description

state startState1 as "OPENED_VEHICLES"
state startState2 as "OPENED_CLIENTS"
state startState3 as "OPENED_INTERVENTIONS"
state startState4 as "INITIAL"
state startState5 as "OPENED_DASHBOARD"
state endState as "OPENED_DASHBOARD"

startState1 - -> openDashboard
note on link
<b>User requests to</b>
* openDashboard
end note
startState2 - -> openDashboard
note on link
<b>User requests to</b>
* openDashboard
end note
startState3 - -> openDashboard
note on link
<b>User requests to</b>
* openDashboard
end note
startState4 - -> openDashboard

startState5 - -> openDashboard

state openDashboard {

[*] - -> [*]
note on link
<b>System shows
* mechanic active interventions
<b>System allows
* open vehicles
* open interventions
* open clients
* open operations
* logout
* create intervention
* finish intervention
end note

}

openDashboard - -> endState


@enduml

PlantUML version 1.2020.09(Sun May 10 12:51:06 CEST 2020)
(GPL source distribution)
Java Runtime: OpenJDK Runtime Environment
JVM: OpenJDK 64-Bit Server VM
Java Version: 11.0.8+10-b1094.1
Operating System: Windows 10
Default Encoding: Cp1252
Language: en
Country: GB
--></g></svg>