<?xml version="1.0" encoding="UTF-8" standalone="no"?><svg xmlns="http://www.w3.org/2000/svg" xmlns:xlink="http://www.w3.org/1999/xlink" contentScriptType="application/ecmascript" contentStyleType="text/css" height="785px" preserveAspectRatio="none" style="width:861px;height:785px;" version="1.1" viewBox="0 0 861 785" width="861.25px" zoomAndPan="magnify"><defs><filter height="300%" id="f1g8c2lc310xie" width="300%" x="-1" y="-1"><feGaussianBlur result="blurOut" stdDeviation="2.5"/><feColorMatrix in="blurOut" result="blurOut2" type="matrix" values="0 0 0 0 0 0 0 0 0 0 0 0 0 0 0 0 0 0 .4 0"/><feOffset dx="5.0" dy="5.0" in="blurOut2" result="blurOut3"/><feBlend in="SourceGraphic" in2="blurOut3" mode="normal"/></filter></defs><g><!--MD5=[8fc3522a43f8c7199df5e09e5bb0188e]
entity user--><ellipse cx="29.3759" cy="21.875" fill="#FEFECE" filter="url(#f1g8c2lc310xie)" rx="10" ry="10" style="stroke: #A80036; stroke-width: 1.875;"/><path d="M29.3759,31.875 L29.3759,65.625 M13.1259,41.875 L45.6259,41.875 M29.3759,65.625 L13.1259,84.375 M29.3759,65.625 L45.6259,84.375 " fill="none" filter="url(#f1g8c2lc310xie)" style="stroke: #A80036; stroke-width: 1.875;"/><text fill="#000000" font-family="sans-serif" font-size="17.5" lengthAdjust="spacingAndGlyphs" textLength="35" x="11.8759" y="109.4165">user</text><!--MD5=[879601c54c16cbac2938a49e9c3f5a3f]
entity ClientsView--><rect fill="#629EF9" filter="url(#f1g8c2lc310xie)" height="47.0117" style="stroke: #000000; stroke-width: 1.875;" width="115" x="281.8763" y="38.125"/><text fill="#000000" font-family="sans-serif" font-size="17.5" lengthAdjust="spacingAndGlyphs" textLength="90" x="294.3763" y="68.7915">ClientsView</text><!--MD5=[045d36d43cf89d6c26f5272d9f06c611]
entity ClientInfoView--><rect fill="#629EF9" filter="url(#f1g8c2lc310xie)" height="47.0117" style="stroke: #000000; stroke-width: 1.875;" width="135" x="116.8759" y="258.75"/><text fill="#000000" font-family="sans-serif" font-size="17.5" lengthAdjust="spacingAndGlyphs" textLength="110" x="129.3759" y="289.4165">ClientInfoView</text><!--MD5=[57ffef07bec4d934d10175fca5c0f8e6]
entity ClientConfigController--><rect fill="#B5BD68" filter="url(#f1g8c2lc310xie)" height="47.0117" style="stroke: #000000; stroke-width: 1.875;" width="198.75" x="493.7512" y="258.75"/><text fill="#000000" font-family="sans-serif" font-size="17.5" lengthAdjust="spacingAndGlyphs" textLength="173.75" x="506.2512" y="289.4165">ClientConfigController</text><!--MD5=[7bad2fb43d556431ac19a328ed77068a]
entity ClientDao--><rect fill="#F2AC4E" filter="url(#f1g8c2lc310xie)" height="47.0117" style="stroke: #000000; stroke-width: 1.875;" width="102.5" x="324.3762" y="431.25"/><text fill="#000000" font-family="sans-serif" font-size="17.5" lengthAdjust="spacingAndGlyphs" textLength="77.5" x="336.8762" y="461.9165">ClientDao</text><!--MD5=[0ba5ee7700168656dc1b457c6fe9fdac]
entity Client--><rect fill="#F2AC4E" filter="url(#f1g8c2lc310xie)" height="47.0117" style="stroke: #000000; stroke-width: 1.875;" width="70" x="340.6262" y="601.25"/><text fill="#000000" font-family="sans-serif" font-size="17.5" lengthAdjust="spacingAndGlyphs" textLength="45" x="353.1262" y="631.9165">Client</text><!--MD5=[c796543839e6086ac460deba3cd4e684]
entity Vehicle--><rect fill="#F2AC4E" filter="url(#f1g8c2lc310xie)" height="47.0117" style="stroke: #000000; stroke-width: 1.875;" width="82.5" x="565.6263" y="725"/><text fill="#000000" font-family="sans-serif" font-size="17.5" lengthAdjust="spacingAndGlyphs" textLength="57.5" x="578.1263" y="755.6665">Vehicle</text><!--MD5=[289fdc48a9ae917f656257cdf37c9914]
entity VehicleDao--><rect fill="#F2AC4E" filter="url(#f1g8c2lc310xie)" height="47.0117" style="stroke: #000000; stroke-width: 1.875;" width="115" x="638.1263" y="516.25"/><text fill="#000000" font-family="sans-serif" font-size="17.5" lengthAdjust="spacingAndGlyphs" textLength="90" x="650.6263" y="546.9165">VehicleDao</text><!--MD5=[6f176925882fe8d3f63e2fe12010d8ea]
link user to ClientsView--><path d="M47.8394,61.875 C91.6179,61.875 203.4125,61.875 275.15,61.875 " fill="none" id="user-&gt;ClientsView" style="stroke: #A80036; stroke-width: 1.25;"/><polygon fill="#A80036" points="281.5325,61.875,270.2825,56.875,275.2825,61.875,270.2825,66.875,281.5325,61.875" style="stroke: #A80036; stroke-width: 1.25;"/><path d="M76.5634,14.375 L76.5634,46.875 L247.8134,46.875 L247.8134,26.875 L235.3134,14.375 L76.5634,14.375 " fill="#F5F5F5" filter="url(#f1g8c2lc310xie)" style="stroke: #A80036; stroke-width: 0.0;"/><path d="M235.3134,14.375 L235.3134,26.875 L247.8134,26.875 L235.3134,14.375 " fill="#F5F5F5" style="stroke: #A80036; stroke-width: 0.0;"/><text fill="#000000" font-family="sans-serif" font-size="16.25" lengthAdjust="spacingAndGlyphs" textLength="145" x="84.0634" y="37.4939">configClient(clientId)</text><!--MD5=[9575e08eafc245496ebfa0ca04a1f815]
link user to ClientInfoView--><path d="M13.2454,113.8138 C5.8819,147.2113 2.9429,190.3225 24.3759,221.25 C43.8614,249.3675 78.2561,264.3288 110.1751,272.28 " fill="none" id="user-&gt;ClientInfoView" style="stroke: #A80036; stroke-width: 1.25;"/><polygon fill="#A80036" points="116.5207,273.7788,106.7216,266.3263,110.4382,272.3419,104.4226,276.0584,116.5207,273.7788" style="stroke: #A80036; stroke-width: 1.25;"/><path d="M30.6259,157.5 L30.6259,210 L276.8759,210 L276.8759,170 L264.3759,157.5 L30.6259,157.5 " fill="#F5F5F5" filter="url(#f1g8c2lc310xie)" style="stroke: #A80036; stroke-width: 0.0;"/><path d="M264.3759,157.5 L264.3759,170 L276.8759,170 L264.3759,157.5 " fill="#F5F5F5" style="stroke: #A80036; stroke-width: 0.0;"/><text fill="#000000" font-family="sans-serif" font-size="16.25" lengthAdjust="spacingAndGlyphs" textLength="163.75" x="38.1259" y="180.6189">setFullName(fullName)</text><text fill="#000000" font-family="sans-serif" font-size="16.25" lengthAdjust="spacingAndGlyphs" textLength="220" x="38.1259" y="201.0583">setBillableHours(billableHours)</text><!--MD5=[1aa58980925320308d95232c7aab4030]
link ClientsView to ClientInfoView--><path d="M338.08,86.0362 C335.1075,119.2212 325.3225,181.075 293.1263,221.25 C281.8363,235.3375 266.3013,246.6275 250.5025,255.4425 " fill="none" id="ClientsView-&gt;ClientInfoView" style="stroke: #A80036; stroke-width: 1.25;"/><polygon fill="#A80036" points="244.6787,258.58,256.9544,257.6473,250.1814,255.6162,252.2124,248.8431,244.6787,258.58" style="stroke: #A80036; stroke-width: 1.25;"/><path d="M333.1262,167.5 L333.1262,200 L504.3762,200 L504.3762,180 L491.8762,167.5 L333.1262,167.5 " fill="#F5F5F5" filter="url(#f1g8c2lc310xie)" style="stroke: #A80036; stroke-width: 0.0;"/><path d="M491.8762,167.5 L491.8762,180 L504.3762,180 L491.8762,167.5 " fill="#F5F5F5" style="stroke: #A80036; stroke-width: 0.0;"/><text fill="#000000" font-family="sans-serif" font-size="16.25" lengthAdjust="spacingAndGlyphs" textLength="145" x="340.6262" y="190.6189">configClient(clientId)</text><!--MD5=[ee69c9ba64df294eb87bbcb7e29499b7]
link ClientInfoView to ClientConfigController--><path d="M252.3313,282.5 C316.2363,282.5 412.89,282.5 486.9625,282.5 " fill="none" id="ClientInfoView-&gt;ClientConfigController" style="stroke: #A80036; stroke-width: 1.25;"/><polygon fill="#A80036" points="493.6063,282.5,482.3563,277.5,487.3563,282.5,482.3563,287.5,493.6063,282.5" style="stroke: #A80036; stroke-width: 1.25;"/><path d="M279.6888,215 L279.6888,267.5 L460.9387,267.5 L460.9387,227.5 L448.4387,215 L279.6888,215 " fill="#F5F5F5" filter="url(#f1g8c2lc310xie)" style="stroke: #A80036; stroke-width: 0.0;"/><path d="M448.4387,215 L448.4387,227.5 L460.9387,227.5 L448.4387,215 " fill="#F5F5F5" style="stroke: #A80036; stroke-width: 0.0;"/><text fill="#000000" font-family="sans-serif" font-size="16.25" lengthAdjust="spacingAndGlyphs" textLength="133.75" x="287.1888" y="238.1189">readClient(clientId)</text><text fill="#000000" font-family="sans-serif" font-size="16.25" lengthAdjust="spacingAndGlyphs" textLength="155" x="287.1888" y="258.5583">readVehicles(clientId)</text><!--MD5=[244101caf9bac3de7783f8e67ddcc4e1]
link ClientConfigController to ClientDao--><path d="M493.5488,293.3088 C426.9488,301.9988 347.8137,317.5688 326.8762,343.75 C307.2275,368.32 327.5713,402.0525 347.6513,425.6638 " fill="none" id="ClientConfigController-&gt;ClientDao" style="stroke: #A80036; stroke-width: 1.25;"/><polygon fill="#A80036" points="352.1863,430.8388,348.5356,419.0814,348.0684,426.137,341.0128,425.6699,352.1863,430.8388" style="stroke: #A80036; stroke-width: 1.25;"/><path d="M333.1262,350 L333.1262,382.5 L493.1262,382.5 L493.1262,362.5 L480.6262,350 L333.1262,350 " fill="#F5F5F5" filter="url(#f1g8c2lc310xie)" style="stroke: #A80036; stroke-width: 0.0;"/><path d="M480.6262,350 L480.6262,362.5 L493.1262,362.5 L480.6262,350 " fill="#F5F5F5" style="stroke: #A80036; stroke-width: 0.0;"/><text fill="#000000" font-family="sans-serif" font-size="16.25" lengthAdjust="spacingAndGlyphs" textLength="133.75" x="340.6262" y="373.1189">readClient(clientId)</text><!--MD5=[6115023029c8961f45a7f45d5c6f5d58]
link ClientConfigController to VehicleDao--><path d="M613.7775,306.3063 C622.69,317.0125 632.6025,330.3738 639.3763,343.75 C667.365,399.0187 683.4413,470.355 690.7663,509.6163 " fill="none" id="ClientConfigController-&gt;VehicleDao" style="stroke: #A80036; stroke-width: 1.25;"/><polygon fill="#A80036" points="691.95,516.0988,694.8502,504.1342,690.8285,509.9502,685.0125,505.9285,691.95,516.0988" style="stroke: #A80036; stroke-width: 1.25;"/><path d="M665.6263,350 L665.6263,382.5 L846.8763,382.5 L846.8763,362.5 L834.3763,350 L665.6263,350 " fill="#F5F5F5" filter="url(#f1g8c2lc310xie)" style="stroke: #A80036; stroke-width: 0.0;"/><path d="M834.3763,350 L834.3763,362.5 L846.8763,362.5 L834.3763,350 " fill="#F5F5F5" style="stroke: #A80036; stroke-width: 0.0;"/><text fill="#000000" font-family="sans-serif" font-size="16.25" lengthAdjust="spacingAndGlyphs" textLength="155" x="673.1263" y="373.1189">readVehicles(clientId)</text><!--MD5=[15572bf08d55db0230eacc798f4f4c61]
link ClientInfoView to Client--><path d="M197.2213,306.5863 C231.0413,366.71 322.4888,529.2838 359.625,595.305 " fill="none" id="ClientInfoView-&gt;Client" style="stroke: #A80036; stroke-width: 1.25;"/><polygon fill="#A80036" points="362.8363,601.0125,361.6793,588.7559,359.7724,595.565,352.9633,593.6581,362.8363,601.0125" style="stroke: #A80036; stroke-width: 1.25;"/><!--MD5=[1bad0b4fedb8cf28ee42ed48eea5b4dd]
link ClientInfoView to Vehicle--><path d="M185.8163,306.4125 C191.1075,370.1413 214.9863,552.5337 318.1263,648.75 C386.1063,712.1663 496.5575,735.042 559.3175,743.1586 " fill="none" id="ClientInfoView-&gt;Vehicle" style="stroke: #A80036; stroke-width: 1.25;"/><polygon fill="#A80036" points="565.6112,743.9437,555.0662,737.5904,559.4093,743.1705,553.8291,747.5135,565.6112,743.9437" style="stroke: #A80036; stroke-width: 1.25;"/><!--MD5=[dc31599e09acc98916b36fcf4e39c18d]
link ClientConfigController to Client--><path d="M578.5175,306.5863 C538.895,368.525 429.7188,539.1913 390.1713,601.0125 " fill="none" id="ClientConfigController-Client" style="stroke: #A80036; stroke-width: 1.25; stroke-dasharray: 7.0,7.0;"/><text fill="#000000" font-family="sans-serif" font-size="16.25" lengthAdjust="spacingAndGlyphs" textLength="8.75" x="384.5358" y="587.6148">1</text><!--MD5=[c714514ef88ceabdbb6d7cd915db907d]
link ClientConfigController to Vehicle--><path d="M593.7987,306.4313 C596.1325,385.1725 603.8725,646.1888 606.205,724.8621 " fill="none" id="ClientConfigController-Vehicle" style="stroke: #A80036; stroke-width: 1.25; stroke-dasharray: 7.0,7.0;"/><text fill="#000000" font-family="sans-serif" font-size="16.25" lengthAdjust="spacingAndGlyphs" textLength="25" x="577.1713" y="711.4949">0..*</text><!--MD5=[bb15d9afd07e23e38bdfa1ff2bf5055a]
link ClientDao to Client--><path d="M375.6262,478.84 C375.6262,510.8088 375.6262,568.9188 375.6262,600.9838 " fill="none" id="ClientDao-Client" style="stroke: #A80036; stroke-width: 1.25; stroke-dasharray: 7.0,7.0;"/><!--MD5=[125791b638d5c602e05e6b76749e54ea]
link VehicleDao to Vehicle--><path d="M687.9325,563.9225 C677.8363,592.9938 659.0713,644.7575 639.3763,687.5 C633.625,699.9808 626.4125,713.4703 620.2438,724.4916 " fill="none" id="VehicleDao-Vehicle" style="stroke: #A80036; stroke-width: 1.25; stroke-dasharray: 7.0,7.0;"/><!--MD5=[57e6299f67b6a31f722d21ec454a1861]
@startuml

skinparam {
    NoteBorderThickness 0
    NoteBackgroundColor #whiteSmoke
    RectangleBackgroundColor #whiteSmoke
    ArchimateBackgroundColor #whiteSmoke
}


actor user
rectangle #629EF9 ClientsView
rectangle #629EF9 ClientInfoView
rectangle #b5bd68 ClientConfigController
rectangle #F2AC4E ClientDao
rectangle #F2AC4E Client
rectangle #F2AC4E Vehicle
rectangle #F2AC4E VehicleDao

user -right-> ClientsView
note on link
    configClient(clientId)
end note

user -right-> ClientInfoView
note on link
setFullName(fullName)
setBillableHours(billableHours)
end note

ClientsView -down-> ClientInfoView
note on link
   configClient(clientId)
end note

ClientInfoView -right-> ClientConfigController
note on link
    readClient(clientId)
    readVehicles(clientId)
end note


ClientConfigController - -> ClientDao
note on link
    readClient(clientId)
end note

ClientConfigController - -> VehicleDao
note on link
    readVehicles(clientId)
end note

ClientInfoView - -> Client
ClientInfoView - - - -> Vehicle
ClientConfigController .. "1" Client
ClientConfigController .. "0..*" Vehicle
ClientDao .. Client
VehicleDao .. Vehicle
@enduml

PlantUML version 1.2020.09(Sun May 10 12:51:06 CEST 2020)
(GPL source distribution)
Java Runtime: OpenJDK Runtime Environment
JVM: OpenJDK 64-Bit Server VM
Java Version: 11.0.8+10-b944.31
Operating System: Windows 10
Default Encoding: Cp1252
Language: en
Country: GB
--></g></svg>