<?xml version="1.0" encoding="UTF-8" standalone="no"?><svg xmlns="http://www.w3.org/2000/svg" xmlns:xlink="http://www.w3.org/1999/xlink" contentScriptType="application/ecmascript" contentStyleType="text/css" height="126.25px" preserveAspectRatio="none" style="width:612px;height:126px;" version="1.1" viewBox="0 0 612 126" width="612.5px" zoomAndPan="magnify"><defs><filter height="300%" id="f1at6zqnpjkanc" width="300%" x="-1" y="-1"><feGaussianBlur result="blurOut" stdDeviation="2.5"/><feColorMatrix in="blurOut" result="blurOut2" type="matrix" values="0 0 0 0 0 0 0 0 0 0 0 0 0 0 0 0 0 0 .4 0"/><feOffset dx="5.0" dy="5.0" in="blurOut2" result="blurOut3"/><feBlend in="SourceGraphic" in2="blurOut3" mode="normal"/></filter></defs><g><!--MD5=[8fc3522a43f8c7199df5e09e5bb0188e]
entity user--><ellipse cx="25.625" cy="21.875" fill="#FEFECE" filter="url(#f1at6zqnpjkanc)" rx="10" ry="10" style="stroke: #A80036; stroke-width: 1.875;"/><path d="M25.625,31.875 L25.625,65.625 M9.375,41.875 L41.875,41.875 M25.625,65.625 L9.375,84.375 M25.625,65.625 L41.875,84.375 " fill="none" filter="url(#f1at6zqnpjkanc)" style="stroke: #A80036; stroke-width: 1.875;"/><text fill="#000000" font-family="sans-serif" font-size="17.5" lengthAdjust="spacingAndGlyphs" textLength="35" x="8.125" y="109.4165">user</text><!--MD5=[f5a78d3e2c2bba4955990b9a6243d12e]
entity MenuView--><rect fill="#629EF9" filter="url(#f1at6zqnpjkanc)" height="47.0117" style="stroke: #000000; stroke-width: 1.875;" width="105" x="184.375" y="38.125"/><text fill="#000000" font-family="sans-serif" font-size="17.5" lengthAdjust="spacingAndGlyphs" textLength="80" x="196.875" y="68.7915">MenuView</text><!--MD5=[ec12e68d482471526d41adfe4cff0e6f]
entity Session--><rect fill="#F2AC4E" filter="url(#f1at6zqnpjkanc)" height="47.0117" style="stroke: #000000; stroke-width: 1.875;" width="87.5" x="511.875" y="38.125"/><text fill="#000000" font-family="sans-serif" font-size="17.5" lengthAdjust="spacingAndGlyphs" textLength="62.5" x="524.375" y="68.7915">Session</text><!--MD5=[a268f506b33d2fbb3afc3eb21b6af607]
link user to MenuView--><path d="M44.0025,61.875 C73.471,61.875 132.5538,61.875 177.6025,61.875 " fill="none" id="user-&gt;MenuView" style="stroke: #A80036; stroke-width: 1.25;"/><polygon fill="#A80036" points="184.1425,61.875,172.8925,56.875,177.8925,61.875,172.8925,66.875,184.1425,61.875" style="stroke: #A80036; stroke-width: 1.25;"/><path d="M71.5625,14.375 L71.5625,46.875 L151.5625,46.875 L151.5625,26.875 L139.0625,14.375 L71.5625,14.375 " fill="#F5F5F5" filter="url(#f1at6zqnpjkanc)" style="stroke: #A80036; stroke-width: 0.0;"/><path d="M139.0625,14.375 L139.0625,26.875 L151.5625,26.875 L139.0625,14.375 " fill="#F5F5F5" style="stroke: #A80036; stroke-width: 0.0;"/><text fill="#000000" font-family="sans-serif" font-size="16.25" lengthAdjust="spacingAndGlyphs" textLength="53.75" x="79.0625" y="37.4939">logout()</text><!--MD5=[8dc298174baca4f6cb2cd84821bf835a]
link MenuView to Session--><path d="M289.51,61.875 C349.3937,61.875 446.485,61.875 505.3638,61.875 " fill="none" id="MenuView-&gt;Session" style="stroke: #A80036; stroke-width: 1.25;"/><polygon fill="#A80036" points="511.6438,61.875,500.3938,56.875,505.3938,61.875,500.3938,66.875,511.6438,61.875" style="stroke: #A80036; stroke-width: 1.25;"/><path d="M317.5,14.375 L317.5,46.875 L478.75,46.875 L478.75,26.875 L466.25,14.375 L317.5,14.375 " fill="#F5F5F5" filter="url(#f1at6zqnpjkanc)" style="stroke: #A80036; stroke-width: 0.0;"/><path d="M466.25,14.375 L466.25,26.875 L478.75,26.875 L466.25,14.375 " fill="#F5F5F5" style="stroke: #A80036; stroke-width: 0.0;"/><text fill="#000000" font-family="sans-serif" font-size="16.25" lengthAdjust="spacingAndGlyphs" textLength="135" x="325" y="37.4939">invalidateSession()</text><!--MD5=[04a7c6537cb6da809ea6a2a9c9d4e554]
@startuml

skinparam {
    NoteBorderThickness 0
    NoteBackgroundColor #whiteSmoke
    RectangleBackgroundColor #whiteSmoke
    ArchimateBackgroundColor #whiteSmoke
}


actor user

rectangle #629EF9 MenuView
rectangle #F2AC4E Session

user -right-> MenuView
note on link
    logout()
end note

MenuView -> Session
note on link
    invalidateSession()
end note

@enduml

PlantUML version 1.2020.09(Sun May 10 12:51:06 CEST 2020)
(GPL source distribution)
Java Runtime: OpenJDK Runtime Environment
JVM: OpenJDK 64-Bit Server VM
Java Version: 11.0.8+10-b1094.1
Operating System: Windows 10
Default Encoding: Cp1252
Language: en
Country: GB
--></g></svg>