<?xml version="1.0" encoding="UTF-8" standalone="no"?><svg xmlns="http://www.w3.org/2000/svg" xmlns:xlink="http://www.w3.org/1999/xlink" contentScriptType="application/ecmascript" contentStyleType="text/css" height="737px" preserveAspectRatio="none" style="width:888px;height:737px;" version="1.1" viewBox="0 0 888 737" width="888px" zoomAndPan="magnify"><defs><filter height="300%" id="f1b8hcfdv3cm9o" width="300%" x="-1" y="-1"><feGaussianBlur result="blurOut" stdDeviation="2.0"/><feColorMatrix in="blurOut" result="blurOut2" type="matrix" values="0 0 0 0 0 0 0 0 0 0 0 0 0 0 0 0 0 0 .4 0"/><feOffset dx="4.0" dy="4.0" in="blurOut2" result="blurOut3"/><feBlend in="SourceGraphic" in2="blurOut3" mode="normal"/></filter></defs><g><!--MD5=[e209b37fc91f378abaa2ddf468318055]
entity actor--><ellipse cx="62.5" cy="17.5" fill="#FEFECE" filter="url(#f1b8hcfdv3cm9o)" rx="8" ry="8" style="stroke: #A80036; stroke-width: 1.5;"/><path d="M62.5,25.5 L62.5,52.5 M49.5,33.5 L75.5,33.5 M62.5,52.5 L49.5,67.5 M62.5,52.5 L75.5,67.5 " fill="none" filter="url(#f1b8hcfdv3cm9o)" style="stroke: #A80036; stroke-width: 1.5;"/><text fill="#000000" font-family="sans-serif" font-size="14" lengthAdjust="spacingAndGlyphs" textLength="29" x="48" y="87.5332">User</text><!--MD5=[55492eb1c4b62cc9e892e1fafdaeb44c]
entity b1--><rect fill="#629EF9" filter="url(#f1b8hcfdv3cm9o)" height="37.6094" style="stroke: #000000; stroke-width: 1.5;" width="88" x="18.5" y="191"/><text fill="#000000" font-family="sans-serif" font-size="14" lengthAdjust="spacingAndGlyphs" textLength="68" x="28.5" y="215.5332">:MenuView</text><!--MD5=[bb04a20f8ffc3fa40d9086bdeb8759dc]
entity b2--><rect fill="#629EF9" filter="url(#f1b8hcfdv3cm9o)" height="37.6094" style="stroke: #000000; stroke-width: 1.5;" width="123" x="313" y="191"/><text fill="#000000" font-family="sans-serif" font-size="14" lengthAdjust="spacingAndGlyphs" textLength="103" x="323" y="215.5332">:DashboardView</text><!--MD5=[3d2111c8a0a2d14b8769ddc11704380e]
entity c2--><rect fill="#B5BD68" filter="url(#f1b8hcfdv3cm9o)" height="37.6094" style="stroke: #000000; stroke-width: 1.5;" width="188" x="280.5" y="354.5"/><text fill="#000000" font-family="sans-serif" font-size="14" lengthAdjust="spacingAndGlyphs" textLength="168" x="290.5" y="379.0332">:openDashboardController</text><!--MD5=[c8306153f9cb3c677467ab9071446357]
entity e3--><rect fill="#F2AC4E" filter="url(#f1b8hcfdv3cm9o)" height="37.6094" style="stroke: #000000; stroke-width: 1.5;" width="140" x="318.5" y="551"/><text fill="#000000" font-family="sans-serif" font-size="14" lengthAdjust="spacingAndGlyphs" textLength="120" x="328.5" y="575.5332">:InterventionsEntity</text><!--MD5=[99968eeafbc7379c4679c2781d409b3e]
entity e4--><rect fill="#F2AC4E" filter="url(#f1b8hcfdv3cm9o)" height="37.6094" style="stroke: #000000; stroke-width: 1.5;" width="133" x="6" y="551"/><text fill="#000000" font-family="sans-serif" font-size="14" lengthAdjust="spacingAndGlyphs" textLength="113" x="16" y="575.5332">:InterventionEntity</text><!--MD5=[b173ad7416c07f681d6ae7b2d3215148]
entity e5--><rect fill="#F2AC4E" filter="url(#f1b8hcfdv3cm9o)" height="37.6094" style="stroke: #000000; stroke-width: 1.5;" width="105" x="477" y="689"/><text fill="#000000" font-family="sans-serif" font-size="14" lengthAdjust="spacingAndGlyphs" textLength="85" x="487" y="713.5332">:VehicleEntity</text><!--MD5=[3d774add76be5193bed2d701b3921d6e]
entity e6--><rect fill="#F2AC4E" filter="url(#f1b8hcfdv3cm9o)" height="37.6094" style="stroke: #000000; stroke-width: 1.5;" width="109" x="494" y="551"/><text fill="#000000" font-family="sans-serif" font-size="14" lengthAdjust="spacingAndGlyphs" textLength="89" x="504" y="575.5332">:SessionEntity</text><!--MD5=[5ea18c93ccb51d1fa91cb81eafc9d493]
link actor to b1--><path d="M62.5,91.318 C62.5,121.289 62.5,160.937 62.5,185.703 " fill="none" id="actor-&gt;b1" style="stroke: #A80036; stroke-width: 1.0;"/><polygon fill="#A80036" points="62.5,190.753,66.5,181.753,62.5,185.753,58.5,181.753,62.5,190.753" style="stroke: #A80036; stroke-width: 1.0;"/><path d="M67.5,126 L67.5,152 L201.5,152 L201.5,136 L191.5,126 L67.5,126 " fill="#F5F5F5" filter="url(#f1b8hcfdv3cm9o)" style="stroke: #A80036; stroke-width: 0.0;"/><path d="M191.5,126 L191.5,136 L201.5,136 L191.5,126 " fill="#F5F5F5" style="stroke: #A80036; stroke-width: 0.0;"/><text fill="#000000" font-family="sans-serif" font-size="13" lengthAdjust="spacingAndGlyphs" textLength="113" x="73.5" y="144.4951">0: openDashboard()</text><!--MD5=[dad5d2e1a2a5ca29001c223a65c3ee5f]
link b1 to b2--><path d="M106.54,210 C158.986,210 247.113,210 307.902,210 " fill="none" id="b1-&gt;b2" style="stroke: #A80036; stroke-width: 1.0;"/><polygon fill="#A80036" points="312.962,210,303.962,206,307.962,210,303.962,214,312.962,210" style="stroke: #A80036; stroke-width: 1.0;"/><path d="M128.75,172 L128.75,198 L286.75,198 L286.75,182 L276.75,172 L128.75,172 " fill="#F5F5F5" filter="url(#f1b8hcfdv3cm9o)" style="stroke: #A80036; stroke-width: 0.0;"/><path d="M276.75,172 L276.75,182 L286.75,182 L276.75,172 " fill="#F5F5F5" style="stroke: #A80036; stroke-width: 0.0;"/><text fill="#000000" font-family="sans-serif" font-size="13" lengthAdjust="spacingAndGlyphs" textLength="137" x="134.75" y="190.4951">0 : openDashboardView</text><!--MD5=[6563a9383af1b6dc4a74a56c1c5abb03]
link b2 to e4--><path d="M312.865,217.757 C245.88,228.676 141.476,256.881 89.5,329 C41.8795,395.076 56.9382,499.727 66.8215,545.859 " fill="none" id="b2-&gt;e4" style="stroke: #A80036; stroke-width: 1.0;"/><polygon fill="#A80036" points="67.9372,550.927,69.9073,541.2772,66.8615,546.0441,62.0946,542.9983,67.9372,550.927" style="stroke: #A80036; stroke-width: 1.0;"/><path d="M94.5,334 L94.5,409 L253.5,409 L253.5,344 L243.5,334 L94.5,334 " fill="#F5F5F5" filter="url(#f1b8hcfdv3cm9o)" style="stroke: #A80036; stroke-width: 0.0;"/><path d="M243.5,334 L243.5,344 L253.5,344 L243.5,334 " fill="#F5F5F5" style="stroke: #A80036; stroke-width: 0.0;"/><text fill="#000000" font-family="sans-serif" font-size="13" lengthAdjust="spacingAndGlyphs" textLength="101" x="100.5" y="352.4951">0 : getStartTime()</text><text fill="#000000" font-family="sans-serif" font-size="13" lengthAdjust="spacingAndGlyphs" textLength="96" x="100.5" y="368.8467">0 : getEndTime()</text><text fill="#000000" font-family="sans-serif" font-size="13" lengthAdjust="spacingAndGlyphs" textLength="69" x="100.5" y="385.1982">0 : getTitle()</text><text fill="#000000" font-family="sans-serif" font-size="13" lengthAdjust="spacingAndGlyphs" textLength="138" x="100.5" y="401.5498">0 : getInterventionType()</text><!--MD5=[0ae93c1a8669f05451e3c8d1a3d6b8ae]
link b2 to e5--><path d="M436.187,215.063 C503.186,220.724 604.424,233.329 632.5,259 C720.179,339.166 726.12,409.357 685.5,521 C659.778,591.695 594.085,654.2309 556.665,685.6169 " fill="none" id="b2-&gt;e5" style="stroke: #A80036; stroke-width: 1.0;"/><polygon fill="#A80036" points="552.691,688.9226,562.1683,686.243,556.5352,685.7254,557.0528,680.0923,552.691,688.9226" style="stroke: #A80036; stroke-width: 1.0;"/><path d="M711.5,453 L711.5,512 L876.5,512 L876.5,463 L866.5,453 L711.5,453 " fill="#F5F5F5" filter="url(#f1b8hcfdv3cm9o)" style="stroke: #A80036; stroke-width: 0.0;"/><path d="M866.5,453 L866.5,463 L876.5,463 L866.5,453 " fill="#F5F5F5" style="stroke: #A80036; stroke-width: 0.0;"/><text fill="#000000" font-family="sans-serif" font-size="13" lengthAdjust="spacingAndGlyphs" textLength="144" x="717.5" y="471.4951">0 : getRegistrationPlate()</text><text fill="#000000" font-family="sans-serif" font-size="13" lengthAdjust="spacingAndGlyphs" textLength="79" x="717.5" y="487.8467">0 : getBrand()</text><text fill="#000000" font-family="sans-serif" font-size="13" lengthAdjust="spacingAndGlyphs" textLength="125" x="717.5" y="504.1982">0 : getBodyOfFrame()</text><!--MD5=[4e3a7b128feac607bd74dccab7386e20]
link b2 to c2--><path d="M374.5,229.212 C374.5,258.533 374.5,316.199 374.5,348.724 " fill="none" id="b2-&gt;c2" style="stroke: #A80036; stroke-width: 1.0;"/><polygon fill="#A80036" points="374.5,354.107,378.5,345.107,374.5,349.107,370.5,345.107,374.5,354.107" style="stroke: #A80036; stroke-width: 1.0;"/><path d="M379.5,264 L379.5,290 L615.5,290 L615.5,274 L605.5,264 L379.5,264 " fill="#F5F5F5" filter="url(#f1b8hcfdv3cm9o)" style="stroke: #A80036; stroke-width: 0.0;"/><path d="M605.5,264 L605.5,274 L615.5,274 L605.5,264 " fill="#F5F5F5" style="stroke: #A80036; stroke-width: 0.0;"/><text fill="#000000" font-family="sans-serif" font-size="13" lengthAdjust="spacingAndGlyphs" textLength="215" x="385.5" y="282.4951">0 : readActiveInterventions(mechanic)</text><!--MD5=[91e56ad78e20f56d05447ae001febad7]
link c2 to e3--><path d="M322.68,392.565 C297.633,404.221 269.93,422.127 255.5,448 C239.697,476.335 236.855,494.448 255.5,521 C269.009,540.237 291.021,551.799 313.284,558.736 " fill="none" id="c2-&gt;e3" style="stroke: #A80036; stroke-width: 1.0;"/><polygon fill="#A80036" points="318.336,560.231,310.8425,553.8398,313.5419,558.811,308.5706,561.5104,318.336,560.231" style="stroke: #A80036; stroke-width: 1.0;"/><path d="M260.5,469.5 L260.5,495.5 L496.5,495.5 L496.5,479.5 L486.5,469.5 L260.5,469.5 " fill="#F5F5F5" filter="url(#f1b8hcfdv3cm9o)" style="stroke: #A80036; stroke-width: 0.0;"/><path d="M486.5,469.5 L486.5,479.5 L496.5,479.5 L486.5,469.5 " fill="#F5F5F5" style="stroke: #A80036; stroke-width: 0.0;"/><text fill="#000000" font-family="sans-serif" font-size="13" lengthAdjust="spacingAndGlyphs" textLength="215" x="266.5" y="487.9951">0 : readActiveInterventions(mechanic)</text><!--MD5=[923a0438dea40afd2769c8036f572bb5]
link c2 to e4--><path d="M336.761,392.504 C308.3,406.545 268.637,427.11 235.5,448 C185.14,479.748 130.272,522.28 98.7706,547.542 " fill="none" id="c2-&gt;e4" style="stroke: #A80036; stroke-width: 1.0;"/><polygon fill="#A80036" points="94.6713,550.838,104.192,548.3167,98.5682,547.7053,99.1796,542.0816,94.6713,550.838" style="stroke: #A80036; stroke-width: 1.0;"/><text fill="#000000" font-family="sans-serif" font-size="13" lengthAdjust="spacingAndGlyphs" textLength="20" x="78.3988" y="540.1284">0..*</text><!--MD5=[e8c5cd92cb17f61f1ac617e87b0058f3]
link c2 to e6--><path d="M427.986,392.507 C455.791,404.335 488.3,422.419 509.5,448 C533.002,476.359 542.436,519.161 546.156,545.526 " fill="none" id="c2-&gt;e6" style="stroke: #A80036; stroke-width: 1.0;"/><polygon fill="#A80036" points="546.826,550.571,549.6055,541.1225,546.1673,545.6146,541.6753,542.1764,546.826,550.571" style="stroke: #A80036; stroke-width: 1.0;"/><path d="M546.5,469.5 L546.5,495.5 L668.5,495.5 L668.5,479.5 L658.5,469.5 L546.5,469.5 " fill="#F5F5F5" filter="url(#f1b8hcfdv3cm9o)" style="stroke: #A80036; stroke-width: 0.0;"/><path d="M658.5,469.5 L658.5,479.5 L668.5,479.5 L658.5,469.5 " fill="#F5F5F5" style="stroke: #A80036; stroke-width: 0.0;"/><text fill="#000000" font-family="sans-serif" font-size="13" lengthAdjust="spacingAndGlyphs" textLength="101" x="552.5" y="487.9951">0 : getMechanic()</text><!--MD5=[c97c4776446aeb1e005f493e12148f6a]
reverse link e4 to e3--><path d="M144.436,570 C196.57,570 266.697,570 318.402,570 " fill="none" id="e4&lt;-e3" style="stroke: #A80036; stroke-width: 1.0;"/><polygon fill="#A80036" points="139.129,570,148.129,574,144.129,570,148.129,566,139.129,570" style="stroke: #A80036; stroke-width: 1.0;"/><path d="M161.25,532 L161.25,558 L292.25,558 L292.25,542 L282.25,532 L161.25,532 " fill="#F5F5F5" filter="url(#f1b8hcfdv3cm9o)" style="stroke: #A80036; stroke-width: 0.0;"/><path d="M282.25,532 L282.25,542 L292.25,542 L282.25,532 " fill="#F5F5F5" style="stroke: #A80036; stroke-width: 0.0;"/><text fill="#000000" font-family="sans-serif" font-size="13" lengthAdjust="spacingAndGlyphs" textLength="110" x="167.25" y="550.4951">0 : getIntervention()</text><!--MD5=[fa38b9626d57388fc5ba061cd87d0f1c]
link e4 to e5--><path d="M133.186,589.06 C221.712,615.404 385.134,664.0376 471.888,689.855 " fill="none" id="e4-&gt;e5" style="stroke: #A80036; stroke-width: 1.0;"/><polygon fill="#A80036" points="476.725,691.2945,469.2393,684.8942,471.9326,689.8687,466.9581,692.5621,476.725,691.2945" style="stroke: #A80036; stroke-width: 1.0;"/><path d="M360.5,624 L360.5,650 L450.5,650 L450.5,634 L440.5,624 L360.5,624 " fill="#F5F5F5" filter="url(#f1b8hcfdv3cm9o)" style="stroke: #A80036; stroke-width: 0.0;"/><path d="M440.5,624 L440.5,634 L450.5,634 L440.5,624 " fill="#F5F5F5" style="stroke: #A80036; stroke-width: 0.0;"/><text fill="#000000" font-family="sans-serif" font-size="13" lengthAdjust="spacingAndGlyphs" textLength="69" x="366.5" y="642.4951">getVehicle()</text><!--MD5=[1ce066c8cbc0c08a79e1931b301a3ff3]
@startuml

skinparam {
    NoteBorderThickness 0
    NoteBackgroundColor #whiteSmoke
    RectangleBackgroundColor #whiteSmoke
    ArchimateBackgroundColor #whiteSmoke
}


actor :User: as actor

rectangle #629EF9 ":MenuView" as b1
rectangle #629EF9 ":DashboardView" as b2
rectangle #b5bd68 ":openDashboardController" as c2
rectangle #F2AC4E ":InterventionsEntity" as e3
rectangle #F2AC4E ":InterventionEntity" as e4
rectangle #F2AC4E ":VehicleEntity" as e5
rectangle #F2AC4E ":SessionEntity" as e6

actor - -> b1
note on link
0: openDashboard()
end note

b1 -right-> b2
note on link
0 : openDashboardView
end note

b2 -down-> e4
note on link
0 : getStartTime()
0 : getEndTime()
0 : getTitle()
0 : getInterventionType()
end note

b2 -down-> e5
note on link
0 : getRegistrationPlate()
0 : getBrand()
0 : getBodyOfFrame()
end note

b2 -down-> c2
note on link
0 : readActiveInterventions(mechanic)
end note

c2 -down-> e3
note on link
0 : readActiveInterventions(mechanic)
end note

c2 -down-> "0..*" e4

c2 -down-> e6
note on link
0 : getMechanic()
end note

e3 -left-> e4
note on link
0 : getIntervention()
end note

e4 -down-> e5
note on link
getVehicle()
end note

@enduml

PlantUML version 1.2020.09(Sun May 10 12:51:06 CEST 2020)
(GPL source distribution)
Java Runtime: OpenJDK Runtime Environment
JVM: OpenJDK 64-Bit Server VM
Java Version: 11.0.6+8-b765.25
Operating System: Windows 10
Default Encoding: Cp1252
Language: en
Country: GB
--></g></svg>