<?xml version="1.0" encoding="UTF-8" standalone="no"?><svg xmlns="http://www.w3.org/2000/svg" xmlns:xlink="http://www.w3.org/1999/xlink" contentScriptType="application/ecmascript" contentStyleType="text/css" height="765px" preserveAspectRatio="none" style="width:1257px;height:765px;" version="1.1" viewBox="0 0 1257 765" width="1257.5px" zoomAndPan="magnify"><defs><filter height="300%" id="f1be9ke6ow5j51" width="300%" x="-1" y="-1"><feGaussianBlur result="blurOut" stdDeviation="2.5"/><feColorMatrix in="blurOut" result="blurOut2" type="matrix" values="0 0 0 0 0 0 0 0 0 0 0 0 0 0 0 0 0 0 .4 0"/><feOffset dx="5.0" dy="5.0" in="blurOut2" result="blurOut3"/><feBlend in="SourceGraphic" in2="blurOut3" mode="normal"/></filter></defs><g><!--MD5=[8fc3522a43f8c7199df5e09e5bb0188e]
entity user--><ellipse cx="60" cy="21.875" fill="#FEFECE" filter="url(#f1be9ke6ow5j51)" rx="10" ry="10" style="stroke: #A80036; stroke-width: 1.875;"/><path d="M60,31.875 L60,65.625 M43.75,41.875 L76.25,41.875 M60,65.625 L43.75,84.375 M60,65.625 L76.25,84.375 " fill="none" filter="url(#f1be9ke6ow5j51)" style="stroke: #A80036; stroke-width: 1.875;"/><text fill="#000000" font-family="sans-serif" font-size="17.5" lengthAdjust="spacingAndGlyphs" textLength="35" x="42.5" y="109.4165">user</text><!--MD5=[f5a78d3e2c2bba4955990b9a6243d12e]
entity MenuView--><rect fill="#629EF9" filter="url(#f1be9ke6ow5j51)" height="47.0117" style="stroke: #000000; stroke-width: 1.875;" width="105" x="7.5" y="238.75"/><text fill="#000000" font-family="sans-serif" font-size="17.5" lengthAdjust="spacingAndGlyphs" textLength="80" x="20" y="269.4165">MenuView</text><!--MD5=[ca89ee6e86027062307c55e90a5e2a44]
entity InterventionsView--><rect fill="#629EF9" filter="url(#f1be9ke6ow5j51)" height="47.0117" style="stroke: #000000; stroke-width: 1.875;" width="162.5" x="370" y="238.75"/><text fill="#000000" font-family="sans-serif" font-size="17.5" lengthAdjust="spacingAndGlyphs" textLength="137.5" x="382.5" y="269.4165">InterventionsView</text><!--MD5=[90973e21a5485fc9da67c0c5699b9383]
entity OpenInterventionsController--><rect fill="#B5BD68" filter="url(#f1be9ke6ow5j51)" height="47.0117" style="stroke: #000000; stroke-width: 1.875;" width="247.5" x="833.75" y="238.75"/><text fill="#000000" font-family="sans-serif" font-size="17.5" lengthAdjust="spacingAndGlyphs" textLength="222.5" x="846.25" y="269.4165">OpenInterventionsController</text><!--MD5=[dbd7f279121211084b5871fc3663cabf]
entity InterventionsDao--><rect fill="#F2AC4E" filter="url(#f1be9ke6ow5j51)" height="47.0117" style="stroke: #000000; stroke-width: 1.875;" width="158.75" x="634.375" y="411.25"/><text fill="#000000" font-family="sans-serif" font-size="17.5" lengthAdjust="spacingAndGlyphs" textLength="133.75" x="646.875" y="441.9165">InterventionsDao</text><!--MD5=[e3fdc96919b3d0718a6aa38a39f53a06]
entity Intervention--><rect fill="#F2AC4E" filter="url(#f1be9ke6ow5j51)" height="47.0117" style="stroke: #000000; stroke-width: 1.875;" width="117.5" x="655" y="581.25"/><text fill="#000000" font-family="sans-serif" font-size="17.5" lengthAdjust="spacingAndGlyphs" textLength="92.5" x="667.5" y="611.9165">Intervention</text><!--MD5=[6e5a8ceef7a3d9ef19b893e365a5e382]
entity VehiclesDao--><rect fill="#F2AC4E" filter="url(#f1be9ke6ow5j51)" height="47.0117" style="stroke: #000000; stroke-width: 1.875;" width="123.75" x="1025.625" y="496.25"/><text fill="#000000" font-family="sans-serif" font-size="17.5" lengthAdjust="spacingAndGlyphs" textLength="98.75" x="1038.125" y="526.9165">VehiclesDao</text><!--MD5=[c796543839e6086ac460deba3cd4e684]
entity Vehicle--><rect fill="#F2AC4E" filter="url(#f1be9ke6ow5j51)" height="47.0117" style="stroke: #000000; stroke-width: 1.875;" width="82.5" x="955" y="705"/><text fill="#000000" font-family="sans-serif" font-size="17.5" lengthAdjust="spacingAndGlyphs" textLength="57.5" x="967.5" y="735.6665">Vehicle</text><!--MD5=[4c47d1f534553ec0ad9070f35bcc324d]
entity Mechanic--><rect fill="#F2AC4E" filter="url(#f1be9ke6ow5j51)" height="47.0117" style="stroke: #000000; stroke-width: 1.875;" width="100" x="401.25" y="411.25"/><text fill="#000000" font-family="sans-serif" font-size="17.5" lengthAdjust="spacingAndGlyphs" textLength="75" x="413.75" y="441.9165">Mechanic</text><!--MD5=[ec12e68d482471526d41adfe4cff0e6f]
entity Session--><rect fill="#F2AC4E" filter="url(#f1be9ke6ow5j51)" height="47.0117" style="stroke: #000000; stroke-width: 1.875;" width="87.5" x="407.5" y="38.125"/><text fill="#000000" font-family="sans-serif" font-size="17.5" lengthAdjust="spacingAndGlyphs" textLength="62.5" x="420" y="68.7915">Session</text><!--MD5=[a268f506b33d2fbb3afc3eb21b6af607]
link user to MenuView--><path d="M60,114.1475 C60,151.6112 60,201.1713 60,232.1287 " fill="none" id="user-&gt;MenuView" style="stroke: #A80036; stroke-width: 1.25;"/><polygon fill="#A80036" points="60,238.4412,65,227.1912,60,232.1912,55,227.1912,60,238.4412" style="stroke: #A80036; stroke-width: 1.25;"/><path d="M66.25,157.5 L66.25,190 L250,190 L250,170 L237.5,157.5 L66.25,157.5 " fill="#F5F5F5" filter="url(#f1be9ke6ow5j51)" style="stroke: #A80036; stroke-width: 0.0;"/><path d="M237.5,157.5 L237.5,170 L250,170 L237.5,157.5 " fill="#F5F5F5" style="stroke: #A80036; stroke-width: 0.0;"/><text fill="#000000" font-family="sans-serif" font-size="16.25" lengthAdjust="spacingAndGlyphs" textLength="157.5" x="73.75" y="180.6189">openMyInterventions()</text><!--MD5=[4336de9b67a098d4ba2746591b9d96e9]
link MenuView to InterventionsView--><path d="M112.7658,262.5 C176.9775,262.5 286.34,262.5 363.345,262.5 " fill="none" id="MenuView-&gt;InterventionsView" style="stroke: #A80036; stroke-width: 1.25;"/><polygon fill="#A80036" points="369.7613,262.5,358.5113,257.5,363.5113,262.5,358.5113,267.5,369.7613,262.5" style="stroke: #A80036; stroke-width: 1.25;"/><path d="M140.625,215 L140.625,247.5 L336.875,247.5 L336.875,227.5 L324.375,215 L140.625,215 " fill="#F5F5F5" filter="url(#f1be9ke6ow5j51)" style="stroke: #A80036; stroke-width: 0.0;"/><path d="M324.375,215 L324.375,227.5 L336.875,227.5 L324.375,215 " fill="#F5F5F5" style="stroke: #A80036; stroke-width: 0.0;"/><text fill="#000000" font-family="sans-serif" font-size="16.25" lengthAdjust="spacingAndGlyphs" textLength="170" x="148.125" y="238.1189">openInterventionsView()</text><!--MD5=[e4ed12d6064c136b46e94b8fb8b2b9b3]
reverse link Session to InterventionsView--><path d="M451.25,92.4187 C451.25,132.0738 451.25,202.025 451.25,238.1775 " fill="none" id="Session&lt;-InterventionsView" style="stroke: #A80036; stroke-width: 1.25;"/><polygon fill="#A80036" points="451.25,85.8525,446.25,97.1025,451.25,92.1025,456.25,97.1025,451.25,85.8525" style="stroke: #A80036; stroke-width: 1.25;"/><path d="M457.5,157.5 L457.5,190 L586.25,190 L586.25,170 L573.75,157.5 L457.5,157.5 " fill="#F5F5F5" filter="url(#f1be9ke6ow5j51)" style="stroke: #A80036; stroke-width: 0.0;"/><path d="M573.75,157.5 L573.75,170 L586.25,170 L573.75,157.5 " fill="#F5F5F5" style="stroke: #A80036; stroke-width: 0.0;"/><text fill="#000000" font-family="sans-serif" font-size="16.25" lengthAdjust="spacingAndGlyphs" textLength="102.5" x="465" y="180.6189">getMechanic()</text><!--MD5=[97451a318fbb31ff098968f1385ed399]
link InterventionsView to OpenInterventionsController--><path d="M532.5875,262.5 C611.88,262.5 733.755,262.5 826.6813,262.5 " fill="none" id="InterventionsView-&gt;OpenInterventionsController" style="stroke: #A80036; stroke-width: 1.25;"/><polygon fill="#A80036" points="833.32,262.5,822.07,257.5,827.07,262.5,822.07,267.5,833.32,262.5" style="stroke: #A80036; stroke-width: 1.25;"/><path d="M560.625,195 L560.625,247.5 L800.625,247.5 L800.625,207.5 L788.125,195 L560.625,195 " fill="#F5F5F5" filter="url(#f1be9ke6ow5j51)" style="stroke: #A80036; stroke-width: 0.0;"/><path d="M788.125,195 L788.125,207.5 L800.625,207.5 L788.125,195 " fill="#F5F5F5" style="stroke: #A80036; stroke-width: 0.0;"/><text fill="#000000" font-family="sans-serif" font-size="16.25" lengthAdjust="spacingAndGlyphs" textLength="213.75" x="568.125" y="218.1189">readInterventions(mechanicId)</text><text fill="#000000" font-family="sans-serif" font-size="16.25" lengthAdjust="spacingAndGlyphs" textLength="156.25" x="568.125" y="238.5583">readVehicle(vehicleId)</text><!--MD5=[d835f3322136797bf976d4ac0ec2e353]
link OpenInterventionsController to InterventionsDao--><path d="M833.745,270.8438 C754.3213,278.2788 661.4888,293.3613 636.25,323.75 C622.0525,340.845 626.4638,353.7988 636.25,373.75 C642.8063,387.1175 653.935,398.3563 665.7438,407.3613 " fill="none" id="OpenInterventionsController-&gt;InterventionsDao" style="stroke: #A80036; stroke-width: 1.25;"/><polygon fill="#A80036" points="670.835,411.0825,664.7016,400.4081,665.7887,407.3951,658.8017,408.4822,670.835,411.0825" style="stroke: #A80036; stroke-width: 1.25;"/><path d="M642.5,330 L642.5,362.5 L882.5,362.5 L882.5,342.5 L870,330 L642.5,330 " fill="#F5F5F5" filter="url(#f1be9ke6ow5j51)" style="stroke: #A80036; stroke-width: 0.0;"/><path d="M870,330 L870,342.5 L882.5,342.5 L870,330 " fill="#F5F5F5" style="stroke: #A80036; stroke-width: 0.0;"/><text fill="#000000" font-family="sans-serif" font-size="16.25" lengthAdjust="spacingAndGlyphs" textLength="213.75" x="650" y="353.1189">readInterventions(mechanicId)</text><!--MD5=[34a305df6ba2f626d45d03a1b2d78aa0]
link OpenInterventionsController to VehiclesDao--><path d="M992.15,286.3738 C1005.235,296.4388 1019.2413,309.2925 1028.75,323.75 C1063.095,375.97 1078.0213,449.0525 1083.97,489.285 " fill="none" id="OpenInterventionsController-&gt;VehiclesDao" style="stroke: #A80036; stroke-width: 1.25;"/><polygon fill="#A80036" points="1084.915,495.9275,1088.2809,484.0855,1084.0349,489.7398,1078.3806,485.4937,1084.915,495.9275" style="stroke: #A80036; stroke-width: 1.25;"/><path d="M1060,330 L1060,362.5 L1242.5,362.5 L1242.5,342.5 L1230,330 L1060,330 " fill="#F5F5F5" filter="url(#f1be9ke6ow5j51)" style="stroke: #A80036; stroke-width: 0.0;"/><path d="M1230,330 L1230,342.5 L1242.5,342.5 L1230,330 " fill="#F5F5F5" style="stroke: #A80036; stroke-width: 0.0;"/><text fill="#000000" font-family="sans-serif" font-size="16.25" lengthAdjust="spacingAndGlyphs" textLength="156.25" x="1067.5" y="353.1189">readVehicle(vehicleId)</text><!--MD5=[38f5437fc595d84930ebbe246ff65429]
link InterventionsView to Intervention--><path d="M468.8813,286.5863 C515.3938,346.8312 641.3225,509.9388 692.095,575.7025 " fill="none" id="InterventionsView-&gt;Intervention" style="stroke: #A80036; stroke-width: 1.25;"/><polygon fill="#A80036" points="696.1963,581.0125,693.2778,569.0523,692.3763,576.0657,685.363,575.1642,696.1963,581.0125" style="stroke: #A80036; stroke-width: 1.25;"/><!--MD5=[d781d38a7e59b5f10de7b43248ff4f8c]
link InterventionsView to Vehicle--><path d="M430.3538,286.825 C399.16,324.2175 347.2875,399.8013 378.75,458.75 C492.3262,671.5496 823.8863,715.9051 948.3225,725.1068 " fill="none" id="InterventionsView-&gt;Vehicle" style="stroke: #A80036; stroke-width: 1.25;"/><polygon fill="#A80036" points="954.8,725.5678,943.9326,719.7832,948.5657,725.1249,943.224,729.758,954.8,725.5678" style="stroke: #A80036; stroke-width: 1.25;"/><!--MD5=[7bac7d1076a4ccaa31d8d4027821bef9]
link InterventionsView to Mechanic--><path d="M451.25,286.325 C451.25,316.8075 451.25,371.1613 451.25,404.6713 " fill="none" id="InterventionsView-&gt;Mechanic" style="stroke: #A80036; stroke-width: 1.25;"/><polygon fill="#A80036" points="451.25,411.0825,456.25,399.8325,451.25,404.8325,446.25,399.8325,451.25,411.0825" style="stroke: #A80036; stroke-width: 1.25;"/><!--MD5=[f429c5a43ce4ff82760eeede8bfc3f4c]
link OpenInterventionsController to Intervention--><path d="M946.9688,286.3625 C936.0238,309.1063 917.8488,344.85 898.75,373.75 C845.4925,454.3388 770.3625,540.9488 734.445,581.02 " fill="none" id="OpenInterventionsController-Intervention" style="stroke: #A80036; stroke-width: 1.25; stroke-dasharray: 7.0,7.0;"/><text fill="#000000" font-family="sans-serif" font-size="16.25" lengthAdjust="spacingAndGlyphs" textLength="25" x="711.9547" y="567.6246">0..*</text><!--MD5=[a0dbe3cac5012b81ec87109bcfd2dd8a]
link OpenInterventionsController to Vehicle--><path d="M959.395,286.4313 C965.975,365.1725 987.785,626.1888 994.3588,704.8621 " fill="none" id="OpenInterventionsController-Vehicle" style="stroke: #A80036; stroke-width: 1.25; stroke-dasharray: 7.0,7.0;"/><text fill="#000000" font-family="sans-serif" font-size="16.25" lengthAdjust="spacingAndGlyphs" textLength="8.75" x="983.6897" y="691.4949">1</text><!--MD5=[e51d558c5641a6905df1bcf3e21f13dd]
link InterventionsDao to Intervention--><path d="M713.75,458.84 C713.75,490.8088 713.75,548.9188 713.75,580.9838 " fill="none" id="InterventionsDao-Intervention" style="stroke: #A80036; stroke-width: 1.25; stroke-dasharray: 7.0,7.0;"/><!--MD5=[94adf10cd89fc5ba5849f7be97a393c4]
link VehiclesDao to Vehicle--><path d="M1079.325,543.89 C1068.6325,572.9287 1048.8787,624.655 1028.75,667.5 C1022.9063,679.9379 1015.6863,693.4233 1009.5363,704.4531 " fill="none" id="VehiclesDao-Vehicle" style="stroke: #A80036; stroke-width: 1.25; stroke-dasharray: 7.0,7.0;"/><!--MD5=[f22c845ec44cf0d55914a4c6e3ceb6f5]
@startuml

skinparam {
    NoteBorderThickness 0
    NoteBackgroundColor #whiteSmoke
    RectangleBackgroundColor #whiteSmoke
    ArchimateBackgroundColor #whiteSmoke
}


actor user

rectangle #629EF9 MenuView
rectangle #629EF9 InterventionsView

rectangle #b5bd68 OpenInterventionsController

rectangle #F2AC4E InterventionsDao
rectangle #F2AC4E Intervention
rectangle #F2AC4E VehiclesDao
rectangle #F2AC4E Vehicle
rectangle #F2AC4E Mechanic
rectangle #F2AC4E Session


user - -> MenuView
note on link
    openMyInterventions()
end note

MenuView -right-> InterventionsView
note on link
    openInterventionsView()
end note

InterventionsView -up-> Session
note on link
    getMechanic()
end note

InterventionsView -right-> OpenInterventionsController
note on link
    readInterventions(mechanicId)
    readVehicle(vehicleId)
end note

OpenInterventionsController - -> InterventionsDao
note on link
    readInterventions(mechanicId)
end note

OpenInterventionsController - -> VehiclesDao
note on link
    readVehicle(vehicleId)
end note

InterventionsView - -> Intervention
InterventionsView - -> Vehicle
InterventionsView - -> Mechanic

OpenInterventionsController .. "0..*" Intervention
OpenInterventionsController .... "1" Vehicle
InterventionsDao .. Intervention
VehiclesDao .. Vehicle

@enduml

PlantUML version 1.2020.09(Sun May 10 12:51:06 CEST 2020)
(GPL source distribution)
Java Runtime: OpenJDK Runtime Environment
JVM: OpenJDK 64-Bit Server VM
Java Version: 11.0.8+10-b1094.1
Operating System: Windows 10
Default Encoding: Cp1252
Language: en
Country: GB
--></g></svg>