<?xml version="1.0" encoding="UTF-8" standalone="no"?><svg xmlns="http://www.w3.org/2000/svg" xmlns:xlink="http://www.w3.org/1999/xlink" contentScriptType="application/ecmascript" contentStyleType="text/css" height="468px" preserveAspectRatio="none" style="width:1593px;height:468px;" version="1.1" viewBox="0 0 1593 468" width="1593px" zoomAndPan="magnify"><defs><filter height="300%" id="f1t108g9kj3b3x" width="300%" x="-1" y="-1"><feGaussianBlur result="blurOut" stdDeviation="2.0"/><feColorMatrix in="blurOut" result="blurOut2" type="matrix" values="0 0 0 0 0 0 0 0 0 0 0 0 0 0 0 0 0 0 .4 0"/><feOffset dx="4.0" dy="4.0" in="blurOut2" result="blurOut3"/><feBlend in="SourceGraphic" in2="blurOut3" mode="normal"/></filter></defs><g><!--MD5=[999f80192410ad58725ac6d158b21eb2]
cluster Views--><polygon fill="#FFFFFF" filter="url(#f1t108g9kj3b3x)" points="22,25.5,69,25.5,76,49.1094,554,49.1094,554,454.5,22,454.5,22,25.5" style="stroke: #000000; stroke-width: 1.5;"/><line style="stroke: #000000; stroke-width: 1.5;" x1="22" x2="76" y1="49.1094" y2="49.1094"/><text fill="#000000" font-family="sans-serif" font-size="14" font-weight="bold" lengthAdjust="spacingAndGlyphs" textLength="41" x="26" y="42.0332">Views</text><!--MD5=[ed1d20ea533a2a0e7df5ba3c35e56ced]
cluster Controllers--><polygon fill="#FFFFFF" filter="url(#f1t108g9kj3b3x)" points="578,24,663,24,670,47.6094,1370,47.6094,1370,456,578,456,578,24" style="stroke: #000000; stroke-width: 1.5;"/><line style="stroke: #000000; stroke-width: 1.5;" x1="578" x2="670" y1="47.6094" y2="47.6094"/><text fill="#000000" font-family="sans-serif" font-size="14" font-weight="bold" lengthAdjust="spacingAndGlyphs" textLength="79" x="582" y="40.5332">Controllers</text><!--MD5=[027ebfd53c01aea08f474edbf35d0797]
cluster Models--><polygon fill="#FFFFFF" filter="url(#f1t108g9kj3b3x)" points="1394,24,1452,24,1459,47.6094,1571,47.6094,1571,346,1394,346,1394,24" style="stroke: #000000; stroke-width: 1.5;"/><line style="stroke: #000000; stroke-width: 1.5;" x1="1394" x2="1459" y1="47.6094" y2="47.6094"/><text fill="#000000" font-family="sans-serif" font-size="14" font-weight="bold" lengthAdjust="spacingAndGlyphs" textLength="52" x="1398" y="40.5332">Models</text><!--MD5=[4c085d9c348701230c5771955d9f314b]
entity CreateVehicleView--><path d="M69.5,65.5 L69.5,89.5 M69.5,77.5 L86.5,77.5 " fill="none" filter="url(#f1t108g9kj3b3x)" style="stroke: #000000; stroke-width: 2.0;"/><ellipse cx="98.5" cy="77.5" fill="#629EF9" filter="url(#f1t108g9kj3b3x)" rx="12" ry="12" style="stroke: #000000; stroke-width: 2.0;"/><text fill="#000000" font-family="sans-serif" font-size="12" lengthAdjust="spacingAndGlyphs" textLength="103" x="38.5" y="105.957">CreateVehicleView</text><!--MD5=[bf310ff65c094f958214110cd3a57689]
entity CreateClientView--><path d="M203.5,65.5 L203.5,89.5 M203.5,77.5 L220.5,77.5 " fill="none" filter="url(#f1t108g9kj3b3x)" style="stroke: #000000; stroke-width: 2.0;"/><ellipse cx="232.5" cy="77.5" fill="#629EF9" filter="url(#f1t108g9kj3b3x)" rx="12" ry="12" style="stroke: #000000; stroke-width: 2.0;"/><text fill="#000000" font-family="sans-serif" font-size="12" lengthAdjust="spacingAndGlyphs" textLength="95" x="176.5" y="105.957">CreateClientView</text><!--MD5=[9314a834bbeec77e884e35924949f9a9]
entity ConfigClientView--><path d="M333.5,65.5 L333.5,89.5 M333.5,77.5 L350.5,77.5 " fill="none" filter="url(#f1t108g9kj3b3x)" style="stroke: #000000; stroke-width: 2.0;"/><ellipse cx="362.5" cy="77.5" fill="#629EF9" filter="url(#f1t108g9kj3b3x)" rx="12" ry="12" style="stroke: #000000; stroke-width: 2.0;"/><text fill="#000000" font-family="sans-serif" font-size="12" lengthAdjust="spacingAndGlyphs" textLength="94" x="307" y="105.957">ConfigClientView</text><!--MD5=[8b4160d0424288b01998d58295b92c19]
entity ConfigVehicleView--><path d="M466.5,65.5 L466.5,89.5 M466.5,77.5 L483.5,77.5 " fill="none" filter="url(#f1t108g9kj3b3x)" style="stroke: #000000; stroke-width: 2.0;"/><ellipse cx="495.5" cy="77.5" fill="#629EF9" filter="url(#f1t108g9kj3b3x)" rx="12" ry="12" style="stroke: #000000; stroke-width: 2.0;"/><text fill="#000000" font-family="sans-serif" font-size="12" lengthAdjust="spacingAndGlyphs" textLength="102" x="436" y="105.957">ConfigVehicleView</text><!--MD5=[cde785e7aa7fa884f5332c0fa561ef76]
entity VehiclesView--><path d="M70.5,175.5 L70.5,199.5 M70.5,187.5 L87.5,187.5 " fill="none" filter="url(#f1t108g9kj3b3x)" style="stroke: #000000; stroke-width: 2.0;"/><ellipse cx="99.5" cy="187.5" fill="#629EF9" filter="url(#f1t108g9kj3b3x)" rx="12" ry="12" style="stroke: #000000; stroke-width: 2.0;"/><text fill="#000000" font-family="sans-serif" font-size="12" lengthAdjust="spacingAndGlyphs" textLength="73" x="54.5" y="215.957">VehiclesView</text><!--MD5=[879601c54c16cbac2938a49e9c3f5a3f]
entity ClientsView--><path d="M174.5,175.5 L174.5,199.5 M174.5,187.5 L191.5,187.5 " fill="none" filter="url(#f1t108g9kj3b3x)" style="stroke: #000000; stroke-width: 2.0;"/><ellipse cx="203.5" cy="187.5" fill="#629EF9" filter="url(#f1t108g9kj3b3x)" rx="12" ry="12" style="stroke: #000000; stroke-width: 2.0;"/><text fill="#000000" font-family="sans-serif" font-size="12" lengthAdjust="spacingAndGlyphs" textLength="65" x="162.5" y="215.957">ClientsView</text><!--MD5=[ab5382b488bd2f47ce3ed999a238b00f]
entity CreateInterventionView--><path d="M305.5,175.5 L305.5,199.5 M305.5,187.5 L322.5,187.5 " fill="none" filter="url(#f1t108g9kj3b3x)" style="stroke: #000000; stroke-width: 2.0;"/><ellipse cx="334.5" cy="187.5" fill="#629EF9" filter="url(#f1t108g9kj3b3x)" rx="12" ry="12" style="stroke: #000000; stroke-width: 2.0;"/><text fill="#000000" font-family="sans-serif" font-size="12" lengthAdjust="spacingAndGlyphs" textLength="126" x="263" y="215.957">CreateInterventionView</text><!--MD5=[ca89ee6e86027062307c55e90a5e2a44]
entity InterventionsView--><path d="M451.5,175.5 L451.5,199.5 M451.5,187.5 L468.5,187.5 " fill="none" filter="url(#f1t108g9kj3b3x)" style="stroke: #000000; stroke-width: 2.0;"/><ellipse cx="480.5" cy="187.5" fill="#629EF9" filter="url(#f1t108g9kj3b3x)" rx="12" ry="12" style="stroke: #000000; stroke-width: 2.0;"/><text fill="#000000" font-family="sans-serif" font-size="12" lengthAdjust="spacingAndGlyphs" textLength="96" x="424" y="215.957">InterventionsView</text><!--MD5=[0bad0964c7703fd507da547b41b75a4d]
entity MyInterventionsView--><path d="M72.5,285.5 L72.5,309.5 M72.5,297.5 L89.5,297.5 " fill="none" filter="url(#f1t108g9kj3b3x)" style="stroke: #000000; stroke-width: 2.0;"/><ellipse cx="101.5" cy="297.5" fill="#629EF9" filter="url(#f1t108g9kj3b3x)" rx="12" ry="12" style="stroke: #000000; stroke-width: 2.0;"/><text fill="#000000" font-family="sans-serif" font-size="12" lengthAdjust="spacingAndGlyphs" textLength="110" x="38" y="325.957">MyInterventionsView</text><!--MD5=[f5a78d3e2c2bba4955990b9a6243d12e]
entity MenuView--><path d="M190.5,285.5 L190.5,309.5 M190.5,297.5 L207.5,297.5 " fill="none" filter="url(#f1t108g9kj3b3x)" style="stroke: #000000; stroke-width: 2.0;"/><ellipse cx="219.5" cy="297.5" fill="#629EF9" filter="url(#f1t108g9kj3b3x)" rx="12" ry="12" style="stroke: #000000; stroke-width: 2.0;"/><text fill="#000000" font-family="sans-serif" font-size="12" lengthAdjust="spacingAndGlyphs" textLength="56" x="183" y="325.957">MenuView</text><!--MD5=[1aabd2c6b56536cf48f052167268e724]
entity DashboardView--><path d="M297.5,285.5 L297.5,309.5 M297.5,297.5 L314.5,297.5 " fill="none" filter="url(#f1t108g9kj3b3x)" style="stroke: #000000; stroke-width: 2.0;"/><ellipse cx="326.5" cy="297.5" fill="#629EF9" filter="url(#f1t108g9kj3b3x)" rx="12" ry="12" style="stroke: #000000; stroke-width: 2.0;"/><text fill="#000000" font-family="sans-serif" font-size="12" lengthAdjust="spacingAndGlyphs" textLength="88" x="274" y="325.957">DashboardView</text><!--MD5=[78a44f5b38cfce3298d0b589b2be919a]
entity OperationsView--><path d="M420.5,285.5 L420.5,309.5 M420.5,297.5 L437.5,297.5 " fill="none" filter="url(#f1t108g9kj3b3x)" style="stroke: #000000; stroke-width: 2.0;"/><ellipse cx="449.5" cy="297.5" fill="#629EF9" filter="url(#f1t108g9kj3b3x)" rx="12" ry="12" style="stroke: #000000; stroke-width: 2.0;"/><text fill="#000000" font-family="sans-serif" font-size="12" lengthAdjust="spacingAndGlyphs" textLength="87" x="397.5" y="325.957">OperationsView</text><!--MD5=[b5c37742c2552546545ff1db6c9c22b8]
entity loginView--><path d="M72.5,395.5 L72.5,419.5 M72.5,407.5 L89.5,407.5 " fill="none" filter="url(#f1t108g9kj3b3x)" style="stroke: #000000; stroke-width: 2.0;"/><ellipse cx="101.5" cy="407.5" fill="#629EF9" filter="url(#f1t108g9kj3b3x)" rx="12" ry="12" style="stroke: #000000; stroke-width: 2.0;"/><text fill="#000000" font-family="sans-serif" font-size="12" lengthAdjust="spacingAndGlyphs" textLength="53" x="66.5" y="435.957">loginView</text><!--MD5=[6b2347a91d39457ba1928168a71ff1a1]
entity signInView--><path d="M164.5,395.5 L164.5,419.5 M164.5,407.5 L181.5,407.5 " fill="none" filter="url(#f1t108g9kj3b3x)" style="stroke: #000000; stroke-width: 2.0;"/><ellipse cx="193.5" cy="407.5" fill="#629EF9" filter="url(#f1t108g9kj3b3x)" rx="12" ry="12" style="stroke: #000000; stroke-width: 2.0;"/><text fill="#000000" font-family="sans-serif" font-size="12" lengthAdjust="spacingAndGlyphs" textLength="60" x="155" y="435.957">signInView</text><!--MD5=[ad52f4586168a27741d03465c23b7d0c]
entity openClientsController--><ellipse cx="682" cy="76" fill="#B5BD68" filter="url(#f1t108g9kj3b3x)" rx="12" ry="12" style="stroke: #718C00; stroke-width: 2.0;"/><polygon fill="#718C00" points="678,64,684,59,682,64,684,69,678,64" style="stroke: #718C00; stroke-width: 1.0;"/><text fill="#000000" font-family="sans-serif" font-size="14" lengthAdjust="spacingAndGlyphs" textLength="137" x="613.5" y="106.5332">openClientsController</text><!--MD5=[b15d47ab8518b67d1db4b607680933c1]
entity openVehiclesController--><ellipse cx="859" cy="76" fill="#B5BD68" filter="url(#f1t108g9kj3b3x)" rx="12" ry="12" style="stroke: #718C00; stroke-width: 2.0;"/><polygon fill="#718C00" points="855,64,861,59,859,64,861,69,855,64" style="stroke: #718C00; stroke-width: 1.0;"/><text fill="#000000" font-family="sans-serif" font-size="14" lengthAdjust="spacingAndGlyphs" textLength="147" x="785.5" y="106.5332">openVehiclesController</text><!--MD5=[f4c3d9a91c78a838ceb8ab876f7a665c]
entity openDashboardController--><ellipse cx="1050" cy="76" fill="#B5BD68" filter="url(#f1t108g9kj3b3x)" rx="12" ry="12" style="stroke: #718C00; stroke-width: 2.0;"/><polygon fill="#718C00" points="1046,64,1052,59,1050,64,1052,69,1046,64" style="stroke: #718C00; stroke-width: 1.0;"/><text fill="#000000" font-family="sans-serif" font-size="14" lengthAdjust="spacingAndGlyphs" textLength="164" x="968" y="106.5332">openDashboardController</text><!--MD5=[2adea846d37a08e1d975621d7319cc4e]
entity openOperations--><ellipse cx="1218" cy="76" fill="#B5BD68" filter="url(#f1t108g9kj3b3x)" rx="12" ry="12" style="stroke: #718C00; stroke-width: 2.0;"/><polygon fill="#718C00" points="1214,64,1220,59,1218,64,1220,69,1214,64" style="stroke: #718C00; stroke-width: 1.0;"/><text fill="#000000" font-family="sans-serif" font-size="14" lengthAdjust="spacingAndGlyphs" textLength="102" x="1167" y="106.5332">openOperations</text><!--MD5=[9499cacf97555793602be58dd5201700]
entity openInterventionsController--><ellipse cx="682" cy="186" fill="#B5BD68" filter="url(#f1t108g9kj3b3x)" rx="12" ry="12" style="stroke: #718C00; stroke-width: 2.0;"/><polygon fill="#718C00" points="678,174,684,169,682,174,684,179,678,174" style="stroke: #718C00; stroke-width: 1.0;"/><text fill="#000000" font-family="sans-serif" font-size="14" lengthAdjust="spacingAndGlyphs" textLength="175" x="594.5" y="216.5332">openInterventionsController</text><!--MD5=[3f7cf680d6c955fa78007acf34024aa4]
entity openMyInterventionsController--><ellipse cx="901" cy="186" fill="#B5BD68" filter="url(#f1t108g9kj3b3x)" rx="12" ry="12" style="stroke: #718C00; stroke-width: 2.0;"/><polygon fill="#718C00" points="897,174,903,169,901,174,903,179,897,174" style="stroke: #718C00; stroke-width: 1.0;"/><text fill="#000000" font-family="sans-serif" font-size="14" lengthAdjust="spacingAndGlyphs" textLength="193" x="804.5" y="216.5332">openMyInterventionsController</text><!--MD5=[f63c202a6e4b759c74b8768fc01b7814]
entity createClientController--><ellipse cx="1102" cy="186" fill="#B5BD68" filter="url(#f1t108g9kj3b3x)" rx="12" ry="12" style="stroke: #718C00; stroke-width: 2.0;"/><polygon fill="#718C00" points="1098,174,1104,169,1102,174,1104,179,1098,174" style="stroke: #718C00; stroke-width: 1.0;"/><text fill="#000000" font-family="sans-serif" font-size="14" lengthAdjust="spacingAndGlyphs" textLength="138" x="1033" y="216.5332">createClientController</text><!--MD5=[6494b6beb73e1f5fecca1d656ef82b27]
entity createVehicleController--><ellipse cx="1280" cy="186" fill="#B5BD68" filter="url(#f1t108g9kj3b3x)" rx="12" ry="12" style="stroke: #718C00; stroke-width: 2.0;"/><polygon fill="#718C00" points="1276,174,1282,169,1280,174,1282,179,1276,174" style="stroke: #718C00; stroke-width: 1.0;"/><text fill="#000000" font-family="sans-serif" font-size="14" lengthAdjust="spacingAndGlyphs" textLength="148" x="1206" y="216.5332">createVehicleController</text><!--MD5=[9fe5083bf123b6495620ed7e7d41811e]
entity createInterventionController--><ellipse cx="682" cy="296" fill="#B5BD68" filter="url(#f1t108g9kj3b3x)" rx="12" ry="12" style="stroke: #718C00; stroke-width: 2.0;"/><polygon fill="#718C00" points="678,284,684,279,682,284,684,289,678,284" style="stroke: #718C00; stroke-width: 1.0;"/><text fill="#000000" font-family="sans-serif" font-size="14" lengthAdjust="spacingAndGlyphs" textLength="176" x="594" y="326.5332">createInterventionController</text><!--MD5=[e6a4aa4f16bb365220a213a960fc3833]
entity configClientController--><ellipse cx="873" cy="296" fill="#B5BD68" filter="url(#f1t108g9kj3b3x)" rx="12" ry="12" style="stroke: #718C00; stroke-width: 2.0;"/><polygon fill="#718C00" points="869,284,875,279,873,284,875,289,869,284" style="stroke: #718C00; stroke-width: 1.0;"/><text fill="#000000" font-family="sans-serif" font-size="14" lengthAdjust="spacingAndGlyphs" textLength="136" x="805" y="326.5332">configClientController</text><!--MD5=[f8780aa28b7d46e83500383481ef66b0]
entity configVehicleController--><ellipse cx="1049" cy="296" fill="#B5BD68" filter="url(#f1t108g9kj3b3x)" rx="12" ry="12" style="stroke: #718C00; stroke-width: 2.0;"/><polygon fill="#718C00" points="1045,284,1051,279,1049,284,1051,289,1045,284" style="stroke: #718C00; stroke-width: 1.0;"/><text fill="#000000" font-family="sans-serif" font-size="14" lengthAdjust="spacingAndGlyphs" textLength="146" x="976" y="326.5332">configVehicleController</text><!--MD5=[19793ccb82dd77da99a7d7c75da496a3]
entity finishInterventionController--><ellipse cx="1242" cy="296" fill="#B5BD68" filter="url(#f1t108g9kj3b3x)" rx="12" ry="12" style="stroke: #718C00; stroke-width: 2.0;"/><polygon fill="#718C00" points="1238,284,1244,279,1242,284,1244,289,1238,284" style="stroke: #718C00; stroke-width: 1.0;"/><text fill="#000000" font-family="sans-serif" font-size="14" lengthAdjust="spacingAndGlyphs" textLength="169" x="1157.5" y="326.5332">finishInterventionController</text><!--MD5=[f0558ac9e3788c296fb84b744e513bca]
entity loginController--><ellipse cx="682" cy="406" fill="#B5BD68" filter="url(#f1t108g9kj3b3x)" rx="12" ry="12" style="stroke: #718C00; stroke-width: 2.0;"/><polygon fill="#718C00" points="678,394,684,389,682,394,684,399,678,394" style="stroke: #718C00; stroke-width: 1.0;"/><text fill="#000000" font-family="sans-serif" font-size="14" lengthAdjust="spacingAndGlyphs" textLength="92" x="636" y="436.5332">loginController</text><!--MD5=[5565452fd5db2993ad6df6701b5e67cb]
entity logoutController--><ellipse cx="814" cy="406" fill="#B5BD68" filter="url(#f1t108g9kj3b3x)" rx="12" ry="12" style="stroke: #718C00; stroke-width: 2.0;"/><polygon fill="#718C00" points="810,394,816,389,814,394,816,399,810,394" style="stroke: #718C00; stroke-width: 1.0;"/><text fill="#000000" font-family="sans-serif" font-size="14" lengthAdjust="spacingAndGlyphs" textLength="101" x="763.5" y="436.5332">logoutController</text><!--MD5=[3764035e638aecf6dc2d1cd844a60537]
entity signInController--><ellipse cx="949" cy="406" fill="#B5BD68" filter="url(#f1t108g9kj3b3x)" rx="12" ry="12" style="stroke: #718C00; stroke-width: 2.0;"/><polygon fill="#718C00" points="945,394,951,389,949,394,951,399,945,394" style="stroke: #718C00; stroke-width: 1.0;"/><text fill="#000000" font-family="sans-serif" font-size="14" lengthAdjust="spacingAndGlyphs" textLength="99" x="899.5" y="436.5332">signInController</text><!--MD5=[0ba5ee7700168656dc1b457c6fe9fdac]
entity Client--><ellipse cx="1537" cy="186" fill="#F2AC4E" filter="url(#f1t108g9kj3b3x)" rx="12" ry="12" style="stroke: #000000; stroke-width: 2.0;"/><line style="stroke: #000000; stroke-width: 2.0;" x1="1525" x2="1549" y1="200" y2="200"/><text fill="#000000" font-family="sans-serif" font-size="14" lengthAdjust="spacingAndGlyphs" textLength="36" x="1519" y="216.5332">Client</text><!--MD5=[c796543839e6086ac460deba3cd4e684]
entity Vehicle--><ellipse cx="1489" cy="296" fill="#F2AC4E" filter="url(#f1t108g9kj3b3x)" rx="12" ry="12" style="stroke: #000000; stroke-width: 2.0;"/><line style="stroke: #000000; stroke-width: 2.0;" x1="1477" x2="1501" y1="310" y2="310"/><text fill="#000000" font-family="sans-serif" font-size="14" lengthAdjust="spacingAndGlyphs" textLength="46" x="1466" y="326.5332">Vehicle</text><!--MD5=[e3fdc96919b3d0718a6aa38a39f53a06]
entity Intervention--><ellipse cx="1447" cy="186" fill="#F2AC4E" filter="url(#f1t108g9kj3b3x)" rx="12" ry="12" style="stroke: #000000; stroke-width: 2.0;"/><line style="stroke: #000000; stroke-width: 2.0;" x1="1435" x2="1459" y1="200" y2="200"/><text fill="#000000" font-family="sans-serif" font-size="14" lengthAdjust="spacingAndGlyphs" textLength="74" x="1410" y="216.5332">Intervention</text><!--MD5=[4c47d1f534553ec0ad9070f35bcc324d]
entity Mechanic--><ellipse cx="1447" cy="76" fill="#F2AC4E" filter="url(#f1t108g9kj3b3x)" rx="12" ry="12" style="stroke: #000000; stroke-width: 2.0;"/><line style="stroke: #000000; stroke-width: 2.0;" x1="1435" x2="1459" y1="90" y2="90"/><text fill="#000000" font-family="sans-serif" font-size="14" lengthAdjust="spacingAndGlyphs" textLength="60" x="1417" y="106.5332">Mechanic</text><!--MD5=[167c7246344a03b7a9b9ac52a0e7bb16]
reverse link Client to Vehicle--><path d="M1520.91,232.211 C1513.94,247.891 1505.97,265.824 1499.74,279.844 " fill="none" id="Client&lt;-Vehicle" style="stroke: #A80036; stroke-width: 1.0;"/><polygon fill="#A80036" points="1526.23,220.237,1520.1386,224.0964,1521.3583,231.2036,1527.4497,227.3442,1526.23,220.237" style="stroke: #A80036; stroke-width: 1.0;"/><!--MD5=[aec92a431b006b4ac4b9b8c95bf40422]
reverse link Intervention to Vehicle--><path d="M1461.26,232.678 C1467.32,248.246 1474.21,265.963 1479.61,279.844 " fill="none" id="Intervention&lt;-Vehicle" style="stroke: #A80036; stroke-width: 1.0;"/><polygon fill="#FFFFFF" points="1456.43,220.237,1454.8775,227.279,1460.7808,231.4205,1462.3332,224.3785,1456.43,220.237" style="stroke: #A80036; stroke-width: 1.0;"/><!--MD5=[c3c064959d75bf90d54a4576dfab5b8e]
reverse link Mechanic to Intervention--><path d="M1447,123.614 C1447,138.953 1447,156.24 1447,169.844 " fill="none" id="Mechanic&lt;-Intervention" style="stroke: #A80036; stroke-width: 1.0;"/><polygon fill="#A80036" points="1447,110.237,1443,116.237,1447,122.237,1451,116.237,1447,110.237" style="stroke: #A80036; stroke-width: 1.0;"/><!--MD5=[b6448b8e319e15a3aa0bc208ef9d0fa9]
link CreateVehicleView to CreateClientView--><!--MD5=[bd87fc1cae4161861aeadf5f752357ca]
link CreateClientView to ConfigClientView--><!--MD5=[a482526b5c30b3c5a1130a2b560a5875]
link ConfigClientView to ConfigVehicleView--><!--MD5=[63eb4be2fe0ae8b2579f6c11deb0da6f]
link CreateVehicleView to VehiclesView--><!--MD5=[b15a00f3380c14db217085ab07c7e724]
link VehiclesView to ClientsView--><!--MD5=[a3b554208da6fb51c7b64c50a20c78db]
link ClientsView to CreateInterventionView--><!--MD5=[fa7fb93bb9259e4f951b8a29449a6392]
link CreateInterventionView to InterventionsView--><!--MD5=[750654f105b1cd5a6014cffca25cf9c1]
link VehiclesView to MyInterventionsView--><!--MD5=[90f9bf1b02e01f551ab6b26f5776714c]
link MyInterventionsView to MenuView--><!--MD5=[62da2036794d0ff2dad111de6289f721]
link MenuView to DashboardView--><!--MD5=[c0b9432b5d25befc703828f858f2cb36]
link DashboardView to OperationsView--><!--MD5=[9d0b0f5eb271f3d9a55ffb62d66c5743]
link MyInterventionsView to loginView--><!--MD5=[54ec301c70c9241f62c5d05008a496bb]
link loginView to signInView--><!--MD5=[b5be71e2391f9677378370c4488f1780]
link openClientsController to openVehiclesController--><!--MD5=[e9962c8b66b7d3a8ab0857d406565cb6]
link openVehiclesController to openDashboardController--><!--MD5=[da94099afdf4aafcd8206b8f25828ac0]
link openDashboardController to openOperations--><!--MD5=[2990e7a9bc7d2b03af885f350ef2e47e]
link openClientsController to openInterventionsController--><!--MD5=[c526feb3daa171da7a4719fdaa8c111d]
link openInterventionsController to openMyInterventionsController--><!--MD5=[a6dbd0119da0bb51719cfc647c4a7c7b]
link openMyInterventionsController to createClientController--><!--MD5=[1de0dbdeb832828458cad21797ee9682]
link createClientController to createVehicleController--><!--MD5=[1d3e513d9b29d3fdcf4b0253bec0c99a]
link openInterventionsController to createInterventionController--><!--MD5=[321f20c6208e0f72b706b99f823daefa]
link createInterventionController to configClientController--><!--MD5=[e27b729f2cc072a9b96a97b9eed0e28e]
link configClientController to configVehicleController--><!--MD5=[207d04a69afebb40f2a5d35c7423eb20]
link configVehicleController to finishInterventionController--><!--MD5=[8639af14d75b31503e71d5be2d74dba5]
link createInterventionController to loginController--><!--MD5=[46f3e566281100ffb1ad45881d865d4c]
link loginController to logoutController--><!--MD5=[61c84f86f821e5d6e31790439ca75377]
link logoutController to signInController--><!--MD5=[75b4180dcf1bffe4e6514bf394bc51e1]
@startuml


skinparam {
    BoundaryBackgroundColor #629EF9
    BoundaryBorderColor black
    BoundaryFontSize 12
    BoundarySize 10
    ControlBackgroundColor #b5bd68
    ControlBorderColor #718c00
    EntityBackgroundColor #F2AC4E
    EntityBorderColor black
}


package Views {
    boundary CreateVehicleView
    boundary CreateClientView
    boundary ConfigClientView
    boundary ConfigVehicleView
    boundary VehiclesView
    boundary ClientsView
    boundary CreateInterventionView
    boundary InterventionsView
    boundary MyInterventionsView
    boundary MenuView
    boundary DashboardView
    boundary OperationsView
    boundary loginView
    boundary signInView
}

package Controllers {
    control openClientsController
    control openVehiclesController
    control openDashboardController
    control openOperations
    control openInterventionsController
    control openMyInterventionsController
    control createClientController
    control createVehicleController
    control createInterventionController
    control configClientController
    control configVehicleController
    control finishInterventionController
    control loginController
    control logoutController
    control signInController
}

package Models {
    entity Client
    entity Vehicle
    entity Intervention
    entity Mechanic
}

Client *- - Vehicle
Intervention o- - Vehicle
Mechanic *- - Intervention
@enduml

PlantUML version 1.2020.09(Sun May 10 12:51:06 CEST 2020)
(GPL source distribution)
Java Runtime: OpenJDK Runtime Environment
JVM: OpenJDK 64-Bit Server VM
Java Version: 11.0.8+10-b1094.1
Operating System: Windows 10
Default Encoding: Cp1252
Language: en
Country: GB
--></g></svg>