<?xml version="1.0" encoding="UTF-8" standalone="no"?><svg xmlns="http://www.w3.org/2000/svg" xmlns:xlink="http://www.w3.org/1999/xlink" contentScriptType="application/ecmascript" contentStyleType="text/css" height="422.5px" preserveAspectRatio="none" style="width:902px;height:422px;" version="1.1" viewBox="0 0 902 422" width="902.5px" zoomAndPan="magnify"><defs><filter height="300%" id="f1rstrndz3jmqf" width="300%" x="-1" y="-1"><feGaussianBlur result="blurOut" stdDeviation="2.5"/><feColorMatrix in="blurOut" result="blurOut2" type="matrix" values="0 0 0 0 0 0 0 0 0 0 0 0 0 0 0 0 0 0 .4 0"/><feOffset dx="5.0" dy="5.0" in="blurOut2" result="blurOut3"/><feBlend in="SourceGraphic" in2="blurOut3" mode="normal"/></filter></defs><g><!--MD5=[bd58c9b3f4b8063f41ed02105b061fc5]
class CreateVehicleView--><rect fill="#FEFECE" filter="url(#f1rstrndz3jmqf)" height="129.1797" id="CreateVehicleView" style="stroke: #A80036; stroke-width: 1.875;" width="168.75" x="353.75" y="145"/><ellipse cx="372.5" cy="165" fill="#ADD1B2" rx="13.75" ry="13.75" style="stroke: #A80036; stroke-width: 1.25;"/><path d="M375,160.625 Q375.2539,160 375.5469,159.6875 Q375.8398,159.375 376.1719,159.375 Q376.7578,159.375 377.1289,159.7266 Q377.5,160.0781 377.5,160.8984 L377.5,162.8516 Q377.5,163.6719 377.1484,164.0234 Q376.7969,164.375 376.25,164.375 Q375.7617,164.375 375.4492,164.1602 Q375.1367,163.9453 375,163.3789 Q374.9414,162.9883 374.7266,162.7734 Q374.3359,162.3633 373.6328,162.1289 Q372.9297,161.875 372.2266,161.875 Q371.3477,161.875 370.6055,162.2266 Q369.8828,162.5781 369.3164,163.3594 Q368.75,164.1406 368.75,165.2148 L368.75,166.3672 Q368.75,167.6563 369.8047,168.5156 Q370.8594,169.375 372.7344,169.375 Q373.8477,169.375 374.6289,169.1211 Q375.0781,168.9844 375.5859,168.5352 Q375.918,168.2813 376.0938,168.2031 Q376.2695,168.125 376.4844,168.125 Q376.8945,168.125 377.1875,168.457 Q377.5,168.7695 377.5,169.2188 Q377.5,169.6484 377.0703,170.1563 Q376.4453,170.8984 375.4492,171.3086 Q374.1406,171.875 372.5391,171.875 Q370.6641,171.875 369.1602,171.1328 Q367.9492,170.5469 367.0898,169.2773 Q366.25,168.0078 366.25,166.5039 L366.25,165.1367 Q366.25,163.5742 366.9922,162.207 Q367.7539,160.8398 369.0625,160.1172 Q370.3906,159.375 371.875,159.375 Q372.7734,159.375 373.5547,159.6875 Q374.3359,160 375,160.625 Z "/><text fill="#000000" font-family="sans-serif" font-size="15" lengthAdjust="spacingAndGlyphs" textLength="128.75" x="390" y="171.1377">CreateVehicleView</text><line style="stroke: #A80036; stroke-width: 1.875;" x1="355" x2="521.25" y1="185" y2="185"/><line style="stroke: #A80036; stroke-width: 1.875;" x1="355" x2="521.25" y1="195" y2="195"/><ellipse cx="367.5" cy="208.75" fill="#84BE84" rx="3.75" ry="3.75" style="stroke: #038048; stroke-width: 1.25;"/><text fill="#000000" font-family="sans-serif" font-size="13.75" lengthAdjust="spacingAndGlyphs" textLength="102.5" x="378.75" y="214.2737">setClient(clientId)</text><ellipse cx="367.5" cy="226.0449" fill="#84BE84" rx="3.75" ry="3.75" style="stroke: #038048; stroke-width: 1.25;"/><text fill="#000000" font-family="sans-serif" font-size="13.75" lengthAdjust="spacingAndGlyphs" textLength="105" x="378.75" y="231.5686">confirmCreation()</text><ellipse cx="367.5" cy="243.3398" fill="#84BE84" rx="3.75" ry="3.75" style="stroke: #038048; stroke-width: 1.25;"/><text fill="#000000" font-family="sans-serif" font-size="13.75" lengthAdjust="spacingAndGlyphs" textLength="100" x="378.75" y="248.8635">setVehicle(data)</text><ellipse cx="367.5" cy="260.6348" fill="#84BE84" rx="3.75" ry="3.75" style="stroke: #038048; stroke-width: 1.25;"/><text fill="#000000" font-family="sans-serif" font-size="13.75" lengthAdjust="spacingAndGlyphs" textLength="107.5" x="378.75" y="266.1584">searchClient(text)</text><!--MD5=[d00b8625e1e18ad3cef6970b6d29f6da]
class OpenClientsController--><rect fill="#FEFECE" filter="url(#f1rstrndz3jmqf)" height="60" id="OpenClientsController" style="stroke: #A80036; stroke-width: 1.875;" width="193.75" x="7.5" y="348.75"/><ellipse cx="26.25" cy="368.75" fill="#ADD1B2" rx="13.75" ry="13.75" style="stroke: #A80036; stroke-width: 1.25;"/><path d="M28.75,364.375 Q29.0039,363.75 29.2969,363.4375 Q29.5898,363.125 29.9219,363.125 Q30.5078,363.125 30.8789,363.4766 Q31.25,363.8281 31.25,364.6484 L31.25,366.6016 Q31.25,367.4219 30.8984,367.7734 Q30.5469,368.125 30,368.125 Q29.5117,368.125 29.1992,367.9102 Q28.8867,367.6953 28.75,367.1289 Q28.6914,366.7383 28.4766,366.5234 Q28.0859,366.1133 27.3828,365.8789 Q26.6797,365.625 25.9766,365.625 Q25.0977,365.625 24.3555,365.9766 Q23.6328,366.3281 23.0664,367.1094 Q22.5,367.8906 22.5,368.9648 L22.5,370.1172 Q22.5,371.4063 23.5547,372.2656 Q24.6094,373.125 26.4844,373.125 Q27.5977,373.125 28.3789,372.8711 Q28.8281,372.7344 29.3359,372.2852 Q29.668,372.0313 29.8438,371.9531 Q30.0195,371.875 30.2344,371.875 Q30.6445,371.875 30.9375,372.207 Q31.25,372.5195 31.25,372.9688 Q31.25,373.3984 30.8203,373.9063 Q30.1953,374.6484 29.1992,375.0586 Q27.8906,375.625 26.2891,375.625 Q24.4141,375.625 22.9102,374.8828 Q21.6992,374.2969 20.8398,373.0273 Q20,371.7578 20,370.2539 L20,368.8867 Q20,367.3242 20.7422,365.957 Q21.5039,364.5898 22.8125,363.8672 Q24.1406,363.125 25.625,363.125 Q26.5234,363.125 27.3047,363.4375 Q28.0859,363.75 28.75,364.375 Z "/><text fill="#000000" font-family="sans-serif" font-size="15" lengthAdjust="spacingAndGlyphs" textLength="153.75" x="43.75" y="374.8877">OpenClientsController</text><line style="stroke: #A80036; stroke-width: 1.875;" x1="8.75" x2="200" y1="388.75" y2="388.75"/><line style="stroke: #A80036; stroke-width: 1.875;" x1="8.75" x2="200" y1="398.75" y2="398.75"/><!--MD5=[ed6624c6556d5e7b1bd23032162d20b7]
class Client--><rect fill="#FEFECE" filter="url(#f1rstrndz3jmqf)" height="60" id="Client" style="stroke: #A80036; stroke-width: 1.875;" width="80" x="245.625" y="348.75"/><ellipse cx="264.375" cy="368.75" fill="#ADD1B2" rx="13.75" ry="13.75" style="stroke: #A80036; stroke-width: 1.25;"/><path d="M266.875,364.375 Q267.1289,363.75 267.4219,363.4375 Q267.7148,363.125 268.0469,363.125 Q268.6328,363.125 269.0039,363.4766 Q269.375,363.8281 269.375,364.6484 L269.375,366.6016 Q269.375,367.4219 269.0234,367.7734 Q268.6719,368.125 268.125,368.125 Q267.6367,368.125 267.3242,367.9102 Q267.0117,367.6953 266.875,367.1289 Q266.8164,366.7383 266.6016,366.5234 Q266.2109,366.1133 265.5078,365.8789 Q264.8047,365.625 264.1016,365.625 Q263.2227,365.625 262.4805,365.9766 Q261.7578,366.3281 261.1914,367.1094 Q260.625,367.8906 260.625,368.9648 L260.625,370.1172 Q260.625,371.4063 261.6797,372.2656 Q262.7344,373.125 264.6094,373.125 Q265.7227,373.125 266.5039,372.8711 Q266.9531,372.7344 267.4609,372.2852 Q267.793,372.0313 267.9688,371.9531 Q268.1445,371.875 268.3594,371.875 Q268.7695,371.875 269.0625,372.207 Q269.375,372.5195 269.375,372.9688 Q269.375,373.3984 268.9453,373.9063 Q268.3203,374.6484 267.3242,375.0586 Q266.0156,375.625 264.4141,375.625 Q262.5391,375.625 261.0352,374.8828 Q259.8242,374.2969 258.9648,373.0273 Q258.125,371.7578 258.125,370.2539 L258.125,368.8867 Q258.125,367.3242 258.8672,365.957 Q259.6289,364.5898 260.9375,363.8672 Q262.2656,363.125 263.75,363.125 Q264.6484,363.125 265.4297,363.4375 Q266.2109,363.75 266.875,364.375 Z "/><text fill="#000000" font-family="sans-serif" font-size="15" lengthAdjust="spacingAndGlyphs" textLength="40" x="281.875" y="374.8877">Client</text><line style="stroke: #A80036; stroke-width: 1.875;" x1="246.875" x2="324.375" y1="388.75" y2="388.75"/><line style="stroke: #A80036; stroke-width: 1.875;" x1="246.875" x2="324.375" y1="398.75" y2="398.75"/><!--MD5=[919121a62130ca39d08704776cf00319]
class OpenVehicles--><rect fill="#FEFECE" filter="url(#f1rstrndz3jmqf)" height="60" id="OpenVehicles" style="stroke: #A80036; stroke-width: 1.875;" width="136.25" x="370" y="348.75"/><ellipse cx="388.75" cy="368.75" fill="#ADD1B2" rx="13.75" ry="13.75" style="stroke: #A80036; stroke-width: 1.25;"/><path d="M391.25,364.375 Q391.5039,363.75 391.7969,363.4375 Q392.0898,363.125 392.4219,363.125 Q393.0078,363.125 393.3789,363.4766 Q393.75,363.8281 393.75,364.6484 L393.75,366.6016 Q393.75,367.4219 393.3984,367.7734 Q393.0469,368.125 392.5,368.125 Q392.0117,368.125 391.6992,367.9102 Q391.3867,367.6953 391.25,367.1289 Q391.1914,366.7383 390.9766,366.5234 Q390.5859,366.1133 389.8828,365.8789 Q389.1797,365.625 388.4766,365.625 Q387.5977,365.625 386.8555,365.9766 Q386.1328,366.3281 385.5664,367.1094 Q385,367.8906 385,368.9648 L385,370.1172 Q385,371.4063 386.0547,372.2656 Q387.1094,373.125 388.9844,373.125 Q390.0977,373.125 390.8789,372.8711 Q391.3281,372.7344 391.8359,372.2852 Q392.168,372.0313 392.3438,371.9531 Q392.5195,371.875 392.7344,371.875 Q393.1445,371.875 393.4375,372.207 Q393.75,372.5195 393.75,372.9688 Q393.75,373.3984 393.3203,373.9063 Q392.6953,374.6484 391.6992,375.0586 Q390.3906,375.625 388.7891,375.625 Q386.9141,375.625 385.4102,374.8828 Q384.1992,374.2969 383.3398,373.0273 Q382.5,371.7578 382.5,370.2539 L382.5,368.8867 Q382.5,367.3242 383.2422,365.957 Q384.0039,364.5898 385.3125,363.8672 Q386.6406,363.125 388.125,363.125 Q389.0234,363.125 389.8047,363.4375 Q390.5859,363.75 391.25,364.375 Z "/><text fill="#000000" font-family="sans-serif" font-size="15" lengthAdjust="spacingAndGlyphs" textLength="96.25" x="406.25" y="374.8877">OpenVehicles</text><line style="stroke: #A80036; stroke-width: 1.875;" x1="371.25" x2="505" y1="388.75" y2="388.75"/><line style="stroke: #A80036; stroke-width: 1.875;" x1="371.25" x2="505" y1="398.75" y2="398.75"/><!--MD5=[3aa0d89c6bfdcbf7f32042cedac57549]
class Vehicle--><rect fill="#FEFECE" filter="url(#f1rstrndz3jmqf)" height="60" id="Vehicle" style="stroke: #A80036; stroke-width: 1.875;" width="90" x="550.625" y="348.75"/><ellipse cx="569.375" cy="368.75" fill="#ADD1B2" rx="13.75" ry="13.75" style="stroke: #A80036; stroke-width: 1.25;"/><path d="M571.875,364.375 Q572.1289,363.75 572.4219,363.4375 Q572.7148,363.125 573.0469,363.125 Q573.6328,363.125 574.0039,363.4766 Q574.375,363.8281 574.375,364.6484 L574.375,366.6016 Q574.375,367.4219 574.0234,367.7734 Q573.6719,368.125 573.125,368.125 Q572.6367,368.125 572.3242,367.9102 Q572.0117,367.6953 571.875,367.1289 Q571.8164,366.7383 571.6016,366.5234 Q571.2109,366.1133 570.5078,365.8789 Q569.8047,365.625 569.1016,365.625 Q568.2227,365.625 567.4805,365.9766 Q566.7578,366.3281 566.1914,367.1094 Q565.625,367.8906 565.625,368.9648 L565.625,370.1172 Q565.625,371.4063 566.6797,372.2656 Q567.7344,373.125 569.6094,373.125 Q570.7227,373.125 571.5039,372.8711 Q571.9531,372.7344 572.4609,372.2852 Q572.793,372.0313 572.9688,371.9531 Q573.1445,371.875 573.3594,371.875 Q573.7695,371.875 574.0625,372.207 Q574.375,372.5195 574.375,372.9688 Q574.375,373.3984 573.9453,373.9063 Q573.3203,374.6484 572.3242,375.0586 Q571.0156,375.625 569.4141,375.625 Q567.5391,375.625 566.0352,374.8828 Q564.8242,374.2969 563.9648,373.0273 Q563.125,371.7578 563.125,370.2539 L563.125,368.8867 Q563.125,367.3242 563.8672,365.957 Q564.6289,364.5898 565.9375,363.8672 Q567.2656,363.125 568.75,363.125 Q569.6484,363.125 570.4297,363.4375 Q571.2109,363.75 571.875,364.375 Z "/><text fill="#000000" font-family="sans-serif" font-size="15" lengthAdjust="spacingAndGlyphs" textLength="50" x="586.875" y="374.8877">Vehicle</text><line style="stroke: #A80036; stroke-width: 1.875;" x1="551.875" x2="639.375" y1="388.75" y2="388.75"/><line style="stroke: #A80036; stroke-width: 1.875;" x1="551.875" x2="639.375" y1="398.75" y2="398.75"/><!--MD5=[edd10bc75152ce71f9ddbc34691feac5]
class CreateVehicleController--><rect fill="#FEFECE" filter="url(#f1rstrndz3jmqf)" height="60" id="CreateVehicleController" style="stroke: #A80036; stroke-width: 1.875;" width="203.75" x="685" y="348.75"/><ellipse cx="703.75" cy="368.75" fill="#ADD1B2" rx="13.75" ry="13.75" style="stroke: #A80036; stroke-width: 1.25;"/><path d="M706.25,364.375 Q706.5039,363.75 706.7969,363.4375 Q707.0898,363.125 707.4219,363.125 Q708.0078,363.125 708.3789,363.4766 Q708.75,363.8281 708.75,364.6484 L708.75,366.6016 Q708.75,367.4219 708.3984,367.7734 Q708.0469,368.125 707.5,368.125 Q707.0117,368.125 706.6992,367.9102 Q706.3867,367.6953 706.25,367.1289 Q706.1914,366.7383 705.9766,366.5234 Q705.5859,366.1133 704.8828,365.8789 Q704.1797,365.625 703.4766,365.625 Q702.5977,365.625 701.8555,365.9766 Q701.1328,366.3281 700.5664,367.1094 Q700,367.8906 700,368.9648 L700,370.1172 Q700,371.4063 701.0547,372.2656 Q702.1094,373.125 703.9844,373.125 Q705.0977,373.125 705.8789,372.8711 Q706.3281,372.7344 706.8359,372.2852 Q707.168,372.0313 707.3438,371.9531 Q707.5195,371.875 707.7344,371.875 Q708.1445,371.875 708.4375,372.207 Q708.75,372.5195 708.75,372.9688 Q708.75,373.3984 708.3203,373.9063 Q707.6953,374.6484 706.6992,375.0586 Q705.3906,375.625 703.7891,375.625 Q701.9141,375.625 700.4102,374.8828 Q699.1992,374.2969 698.3398,373.0273 Q697.5,371.7578 697.5,370.2539 L697.5,368.8867 Q697.5,367.3242 698.2422,365.957 Q699.0039,364.5898 700.3125,363.8672 Q701.6406,363.125 703.125,363.125 Q704.0234,363.125 704.8047,363.4375 Q705.5859,363.75 706.25,364.375 Z "/><text fill="#000000" font-family="sans-serif" font-size="15" lengthAdjust="spacingAndGlyphs" textLength="163.75" x="721.25" y="374.8877">CreateVehicleController</text><line style="stroke: #A80036; stroke-width: 1.875;" x1="686.25" x2="887.5" y1="388.75" y2="388.75"/><line style="stroke: #A80036; stroke-width: 1.875;" x1="686.25" x2="887.5" y1="398.75" y2="398.75"/><!--MD5=[e59cf999063292dce8d6ea34dd10a338]
class user--><rect fill="#FEFECE" filter="url(#f1rstrndz3jmqf)" height="60" id="user" style="stroke: #A80036; stroke-width: 1.875;" width="71.25" x="330" y="10"/><ellipse cx="348.75" cy="30" fill="#ADD1B2" rx="13.75" ry="13.75" style="stroke: #A80036; stroke-width: 1.25;"/><path d="M351.25,25.625 Q351.5039,25 351.7969,24.6875 Q352.0898,24.375 352.4219,24.375 Q353.0078,24.375 353.3789,24.7266 Q353.75,25.0781 353.75,25.8984 L353.75,27.8516 Q353.75,28.6719 353.3984,29.0234 Q353.0469,29.375 352.5,29.375 Q352.0117,29.375 351.6992,29.1602 Q351.3867,28.9453 351.25,28.3789 Q351.1914,27.9883 350.9766,27.7734 Q350.5859,27.3633 349.8828,27.1289 Q349.1797,26.875 348.4766,26.875 Q347.5977,26.875 346.8555,27.2266 Q346.1328,27.5781 345.5664,28.3594 Q345,29.1406 345,30.2148 L345,31.3672 Q345,32.6563 346.0547,33.5156 Q347.1094,34.375 348.9844,34.375 Q350.0977,34.375 350.8789,34.1211 Q351.3281,33.9844 351.8359,33.5352 Q352.168,33.2813 352.3438,33.2031 Q352.5195,33.125 352.7344,33.125 Q353.1445,33.125 353.4375,33.457 Q353.75,33.7695 353.75,34.2188 Q353.75,34.6484 353.3203,35.1563 Q352.6953,35.8984 351.6992,36.3086 Q350.3906,36.875 348.7891,36.875 Q346.9141,36.875 345.4102,36.1328 Q344.1992,35.5469 343.3398,34.2773 Q342.5,33.0078 342.5,31.5039 L342.5,30.1367 Q342.5,28.5742 343.2422,27.207 Q344.0039,25.8398 345.3125,25.1172 Q346.6406,24.375 348.125,24.375 Q349.0234,24.375 349.8047,24.6875 Q350.5859,25 351.25,25.625 Z "/><text fill="#000000" font-family="sans-serif" font-size="15" lengthAdjust="spacingAndGlyphs" textLength="31.25" x="366.25" y="36.1377">user</text><line style="stroke: #A80036; stroke-width: 1.875;" x1="331.25" x2="400" y1="50" y2="50"/><line style="stroke: #A80036; stroke-width: 1.875;" x1="331.25" x2="400" y1="60" y2="60"/><!--MD5=[5d2bdef844ee30e945474426b37189d0]
class VehiclesView--><rect fill="#FEFECE" filter="url(#f1rstrndz3jmqf)" height="60" id="VehiclesView" style="stroke: #A80036; stroke-width: 1.875;" width="131.25" x="445" y="10"/><ellipse cx="463.75" cy="30" fill="#ADD1B2" rx="13.75" ry="13.75" style="stroke: #A80036; stroke-width: 1.25;"/><path d="M466.25,25.625 Q466.5039,25 466.7969,24.6875 Q467.0898,24.375 467.4219,24.375 Q468.0078,24.375 468.3789,24.7266 Q468.75,25.0781 468.75,25.8984 L468.75,27.8516 Q468.75,28.6719 468.3984,29.0234 Q468.0469,29.375 467.5,29.375 Q467.0117,29.375 466.6992,29.1602 Q466.3867,28.9453 466.25,28.3789 Q466.1914,27.9883 465.9766,27.7734 Q465.5859,27.3633 464.8828,27.1289 Q464.1797,26.875 463.4766,26.875 Q462.5977,26.875 461.8555,27.2266 Q461.1328,27.5781 460.5664,28.3594 Q460,29.1406 460,30.2148 L460,31.3672 Q460,32.6563 461.0547,33.5156 Q462.1094,34.375 463.9844,34.375 Q465.0977,34.375 465.8789,34.1211 Q466.3281,33.9844 466.8359,33.5352 Q467.168,33.2813 467.3438,33.2031 Q467.5195,33.125 467.7344,33.125 Q468.1445,33.125 468.4375,33.457 Q468.75,33.7695 468.75,34.2188 Q468.75,34.6484 468.3203,35.1563 Q467.6953,35.8984 466.6992,36.3086 Q465.3906,36.875 463.7891,36.875 Q461.9141,36.875 460.4102,36.1328 Q459.1992,35.5469 458.3398,34.2773 Q457.5,33.0078 457.5,31.5039 L457.5,30.1367 Q457.5,28.5742 458.2422,27.207 Q459.0039,25.8398 460.3125,25.1172 Q461.6406,24.375 463.125,24.375 Q464.0234,24.375 464.8047,24.6875 Q465.5859,25 466.25,25.625 Z "/><text fill="#000000" font-family="sans-serif" font-size="15" lengthAdjust="spacingAndGlyphs" textLength="91.25" x="481.25" y="36.1377">VehiclesView</text><line style="stroke: #A80036; stroke-width: 1.875;" x1="446.25" x2="575" y1="50" y2="50"/><line style="stroke: #A80036; stroke-width: 1.875;" x1="446.25" x2="575" y1="60" y2="60"/><!--MD5=[b44c997f85679db6e2a09ae47ecf041a]
link CreateVehicleView to OpenClientsController--><path d="M353.4738,252.95 C295.7125,281.8313 220.4275,319.4739 167.805,345.7849 " fill="none" id="CreateVehicleView-&gt;OpenClientsController" style="stroke: #A80036; stroke-width: 1.25;"/><polygon fill="#A80036" points="162.145,348.6149,174.4434,348.0566,167.7353,345.8201,169.9718,339.1121,162.145,348.6149" style="stroke: #A80036; stroke-width: 1.25;"/><!--MD5=[6cd1c7abb8b325bb02b0540c80ef89ae]
link CreateVehicleView to Client--><path d="M380.0363,274.1888 C358.4638,297.7946 334.8338,323.6531 316.61,343.5949 " fill="none" id="CreateVehicleView-&gt;Client" style="stroke: #A80036; stroke-width: 1.25;"/><polygon fill="#A80036" points="312.0975,348.5324,323.3773,343.6,316.3134,343.9184,315.995,336.8545,312.0975,348.5324" style="stroke: #A80036; stroke-width: 1.25;"/><text fill="#000000" font-family="sans-serif" font-size="16.25" lengthAdjust="spacingAndGlyphs" textLength="6.25" x="311.8303" y="335.1518">*</text><!--MD5=[984b2abc1f2433ec447411e37074453f]
link CreateVehicleView to OpenVehicles--><path d="M438.125,274.1888 C438.125,297.1945 438.125,322.3398 438.125,342.0626 " fill="none" id="CreateVehicleView-&gt;OpenVehicles" style="stroke: #A80036; stroke-width: 1.25;"/><polygon fill="#A80036" points="438.125,348.5324,443.125,337.2824,438.125,342.2824,433.125,337.2824,438.125,348.5324" style="stroke: #A80036; stroke-width: 1.25;"/><!--MD5=[5bd590010e2fec617a735ba69b49bfe1]
link CreateVehicleView to Vehicle--><path d="M498.1188,274.1888 C520.3975,297.7946 544.8038,323.6531 563.625,343.5949 " fill="none" id="CreateVehicleView-&gt;Vehicle" style="stroke: #A80036; stroke-width: 1.25;"/><polygon fill="#A80036" points="568.285,348.5324,564.2007,336.9185,563.9956,343.9866,556.9275,343.7815,568.285,348.5324" style="stroke: #A80036; stroke-width: 1.25;"/><text fill="#000000" font-family="sans-serif" font-size="16.25" lengthAdjust="spacingAndGlyphs" textLength="8.75" x="551.408" y="335.1518">1</text><!--MD5=[b06bcf102ca3eb97a617505afc7adde0]
link CreateVehicleView to CreateVehicleController--><path d="M522.5475,251.0213 C583.55,280.21 664.7775,319.0771 721.0138,345.986 " fill="none" id="CreateVehicleView-&gt;CreateVehicleController" style="stroke: #A80036; stroke-width: 1.25;"/><polygon fill="#A80036" points="726.7175,348.7152,718.7283,339.3486,721.0799,346.0171,714.4113,348.3688,726.7175,348.7152" style="stroke: #A80036; stroke-width: 1.25;"/><!--MD5=[7ab9475c6d48a2b217e828268c87f834]
link user to CreateVehicleView--><path d="M378.2538,70.3175 C386.4813,89.2563 397.585,114.8138 407.9963,138.7762 " fill="none" id="user-&gt;CreateVehicleView" style="stroke: #A80036; stroke-width: 1.25;"/><polygon fill="#A80036" points="410.625,144.8288,410.73,132.5181,408.1354,139.096,401.5576,136.5014,410.625,144.8288" style="stroke: #A80036; stroke-width: 1.25;"/><!--MD5=[4391e3a07edec19e6cb4233504f810a9]
link VehiclesView to CreateVehicleView--><path d="M497.9963,70.3175 C489.7688,89.2563 478.665,114.8138 468.2538,138.7762 " fill="none" id="VehiclesView-&gt;CreateVehicleView" style="stroke: #A80036; stroke-width: 1.25;"/><polygon fill="#A80036" points="465.625,144.8288,474.6924,136.5014,468.1146,139.096,465.52,132.5181,465.625,144.8288" style="stroke: #A80036; stroke-width: 1.25;"/><!--MD5=[c2c48a3b1504e3d6e70d01952ecc8015]
@startuml
	class CreateVehicleView {
	+setClient(clientId)
	+confirmCreation()
	+setVehicle(data)
	+searchClient(text)
	}

	CreateVehicleView - -> OpenClientsController
	CreateVehicleView - -> "*" Client
	CreateVehicleView - -> OpenVehicles
	CreateVehicleView - -> "1" Vehicle
	CreateVehicleView - -> CreateVehicleController
	user - -> CreateVehicleView
	VehiclesView - -> CreateVehicleView
@enduml

PlantUML version 1.2020.09(Sun May 10 12:51:06 CEST 2020)
(GPL source distribution)
Java Runtime: OpenJDK Runtime Environment
JVM: OpenJDK 64-Bit Server VM
Java Version: 11.0.8+10-b1094.1
Operating System: Windows 10
Default Encoding: Cp1252
Language: en
Country: GB
--></g></svg>