<?xml version="1.0" encoding="UTF-8" standalone="no"?><svg xmlns="http://www.w3.org/2000/svg" xmlns:xlink="http://www.w3.org/1999/xlink" contentScriptType="application/ecmascript" contentStyleType="text/css" height="406.25px" preserveAspectRatio="none" style="width:510px;height:406px;" version="1.1" viewBox="0 0 510 406" width="510px" zoomAndPan="magnify"><defs><filter height="300%" id="fxaul6rtufesm" width="300%" x="-1" y="-1"><feGaussianBlur result="blurOut" stdDeviation="2.5"/><feColorMatrix in="blurOut" result="blurOut2" type="matrix" values="0 0 0 0 0 0 0 0 0 0 0 0 0 0 0 0 0 0 .4 0"/><feOffset dx="5.0" dy="5.0" in="blurOut2" result="blurOut3"/><feBlend in="SourceGraphic" in2="blurOut3" mode="normal"/></filter></defs><g><!--MD5=[db2a8cf534fad014d6d2a50fd3c594b1]
class CreateClientView--><rect fill="#FEFECE" filter="url(#fxaul6rtufesm)" height="111.8848" id="CreateClientView" style="stroke: #A80036; stroke-width: 1.875;" width="215" x="178.125" y="145"/><ellipse cx="222.1875" cy="165" fill="#ADD1B2" rx="13.75" ry="13.75" style="stroke: #A80036; stroke-width: 1.25;"/><path d="M224.6875,160.625 Q224.9414,160 225.2344,159.6875 Q225.5273,159.375 225.8594,159.375 Q226.4453,159.375 226.8164,159.7266 Q227.1875,160.0781 227.1875,160.8984 L227.1875,162.8516 Q227.1875,163.6719 226.8359,164.0234 Q226.4844,164.375 225.9375,164.375 Q225.4492,164.375 225.1367,164.1602 Q224.8242,163.9453 224.6875,163.3789 Q224.6289,162.9883 224.4141,162.7734 Q224.0234,162.3633 223.3203,162.1289 Q222.6172,161.875 221.9141,161.875 Q221.0352,161.875 220.293,162.2266 Q219.5703,162.5781 219.0039,163.3594 Q218.4375,164.1406 218.4375,165.2148 L218.4375,166.3672 Q218.4375,167.6563 219.4922,168.5156 Q220.5469,169.375 222.4219,169.375 Q223.5352,169.375 224.3164,169.1211 Q224.7656,168.9844 225.2734,168.5352 Q225.6055,168.2813 225.7813,168.2031 Q225.957,168.125 226.1719,168.125 Q226.582,168.125 226.875,168.457 Q227.1875,168.7695 227.1875,169.2188 Q227.1875,169.6484 226.7578,170.1563 Q226.1328,170.8984 225.1367,171.3086 Q223.8281,171.875 222.2266,171.875 Q220.3516,171.875 218.8477,171.1328 Q217.6367,170.5469 216.7773,169.2773 Q215.9375,168.0078 215.9375,166.5039 L215.9375,165.1367 Q215.9375,163.5742 216.6797,162.207 Q217.4414,160.8398 218.75,160.1172 Q220.0781,159.375 221.5625,159.375 Q222.4609,159.375 223.2422,159.6875 Q224.0234,160 224.6875,160.625 Z "/><text fill="#000000" font-family="sans-serif" font-size="15" lengthAdjust="spacingAndGlyphs" textLength="118.75" x="245.3125" y="171.1377">CreateClientView</text><line style="stroke: #A80036; stroke-width: 1.875;" x1="179.375" x2="391.875" y1="185" y2="185"/><line style="stroke: #A80036; stroke-width: 1.875;" x1="179.375" x2="391.875" y1="195" y2="195"/><ellipse cx="191.875" cy="208.75" fill="#84BE84" rx="3.75" ry="3.75" style="stroke: #038048; stroke-width: 1.25;"/><text fill="#000000" font-family="sans-serif" font-size="13.75" lengthAdjust="spacingAndGlyphs" textLength="105" x="203.125" y="214.2737">confirmCreation()</text><ellipse cx="191.875" cy="226.0449" fill="#84BE84" rx="3.75" ry="3.75" style="stroke: #038048; stroke-width: 1.25;"/><text fill="#000000" font-family="sans-serif" font-size="13.75" lengthAdjust="spacingAndGlyphs" textLength="182.5" x="203.125" y="231.5686">setBillableHours(billableHours)</text><ellipse cx="191.875" cy="243.3398" fill="#84BE84" rx="3.75" ry="3.75" style="stroke: #038048; stroke-width: 1.25;"/><text fill="#000000" font-family="sans-serif" font-size="13.75" lengthAdjust="spacingAndGlyphs" textLength="133.75" x="203.125" y="248.8635">setFullName(fullName)</text><!--MD5=[7b68a60807ef0d5ecf982988765ba5ca]
class CreateClientController--><rect fill="#FEFECE" filter="url(#fxaul6rtufesm)" height="60" id="CreateClientController" style="stroke: #A80036; stroke-width: 1.875;" width="193.75" x="7.5" y="332.5"/><ellipse cx="26.25" cy="352.5" fill="#ADD1B2" rx="13.75" ry="13.75" style="stroke: #A80036; stroke-width: 1.25;"/><path d="M28.75,348.125 Q29.0039,347.5 29.2969,347.1875 Q29.5898,346.875 29.9219,346.875 Q30.5078,346.875 30.8789,347.2266 Q31.25,347.5781 31.25,348.3984 L31.25,350.3516 Q31.25,351.1719 30.8984,351.5234 Q30.5469,351.875 30,351.875 Q29.5117,351.875 29.1992,351.6602 Q28.8867,351.4453 28.75,350.8789 Q28.6914,350.4883 28.4766,350.2734 Q28.0859,349.8633 27.3828,349.6289 Q26.6797,349.375 25.9766,349.375 Q25.0977,349.375 24.3555,349.7266 Q23.6328,350.0781 23.0664,350.8594 Q22.5,351.6406 22.5,352.7148 L22.5,353.8672 Q22.5,355.1563 23.5547,356.0156 Q24.6094,356.875 26.4844,356.875 Q27.5977,356.875 28.3789,356.6211 Q28.8281,356.4844 29.3359,356.0352 Q29.668,355.7813 29.8438,355.7031 Q30.0195,355.625 30.2344,355.625 Q30.6445,355.625 30.9375,355.957 Q31.25,356.2695 31.25,356.7188 Q31.25,357.1484 30.8203,357.6563 Q30.1953,358.3984 29.1992,358.8086 Q27.8906,359.375 26.2891,359.375 Q24.4141,359.375 22.9102,358.6328 Q21.6992,358.0469 20.8398,356.7773 Q20,355.5078 20,354.0039 L20,352.6367 Q20,351.0742 20.7422,349.707 Q21.5039,348.3398 22.8125,347.6172 Q24.1406,346.875 25.625,346.875 Q26.5234,346.875 27.3047,347.1875 Q28.0859,347.5 28.75,348.125 Z "/><text fill="#000000" font-family="sans-serif" font-size="15" lengthAdjust="spacingAndGlyphs" textLength="153.75" x="43.75" y="358.6377">CreateClientController</text><line style="stroke: #A80036; stroke-width: 1.875;" x1="8.75" x2="200" y1="372.5" y2="372.5"/><line style="stroke: #A80036; stroke-width: 1.875;" x1="8.75" x2="200" y1="382.5" y2="382.5"/><!--MD5=[b062a93b9911b68ecc396197f878ab01]
class ClientsView--><rect fill="#FEFECE" filter="url(#fxaul6rtufesm)" height="60" id="ClientsView" style="stroke: #A80036; stroke-width: 1.875;" width="121.25" x="225" y="10"/><ellipse cx="243.75" cy="30" fill="#ADD1B2" rx="13.75" ry="13.75" style="stroke: #A80036; stroke-width: 1.25;"/><path d="M246.25,25.625 Q246.5039,25 246.7969,24.6875 Q247.0898,24.375 247.4219,24.375 Q248.0078,24.375 248.3789,24.7266 Q248.75,25.0781 248.75,25.8984 L248.75,27.8516 Q248.75,28.6719 248.3984,29.0234 Q248.0469,29.375 247.5,29.375 Q247.0117,29.375 246.6992,29.1602 Q246.3867,28.9453 246.25,28.3789 Q246.1914,27.9883 245.9766,27.7734 Q245.5859,27.3633 244.8828,27.1289 Q244.1797,26.875 243.4766,26.875 Q242.5977,26.875 241.8555,27.2266 Q241.1328,27.5781 240.5664,28.3594 Q240,29.1406 240,30.2148 L240,31.3672 Q240,32.6563 241.0547,33.5156 Q242.1094,34.375 243.9844,34.375 Q245.0977,34.375 245.8789,34.1211 Q246.3281,33.9844 246.8359,33.5352 Q247.168,33.2813 247.3438,33.2031 Q247.5195,33.125 247.7344,33.125 Q248.1445,33.125 248.4375,33.457 Q248.75,33.7695 248.75,34.2188 Q248.75,34.6484 248.3203,35.1563 Q247.6953,35.8984 246.6992,36.3086 Q245.3906,36.875 243.7891,36.875 Q241.9141,36.875 240.4102,36.1328 Q239.1992,35.5469 238.3398,34.2773 Q237.5,33.0078 237.5,31.5039 L237.5,30.1367 Q237.5,28.5742 238.2422,27.207 Q239.0039,25.8398 240.3125,25.1172 Q241.6406,24.375 243.125,24.375 Q244.0234,24.375 244.8047,24.6875 Q245.5859,25 246.25,25.625 Z "/><text fill="#000000" font-family="sans-serif" font-size="15" lengthAdjust="spacingAndGlyphs" textLength="81.25" x="261.25" y="36.1377">ClientsView</text><line style="stroke: #A80036; stroke-width: 1.875;" x1="226.25" x2="345" y1="50" y2="50"/><line style="stroke: #A80036; stroke-width: 1.875;" x1="226.25" x2="345" y1="60" y2="60"/><!--MD5=[ed6624c6556d5e7b1bd23032162d20b7]
class Client--><rect fill="#FEFECE" filter="url(#fxaul6rtufesm)" height="60" id="Client" style="stroke: #A80036; stroke-width: 1.875;" width="80" x="245.625" y="332.5"/><ellipse cx="264.375" cy="352.5" fill="#ADD1B2" rx="13.75" ry="13.75" style="stroke: #A80036; stroke-width: 1.25;"/><path d="M266.875,348.125 Q267.1289,347.5 267.4219,347.1875 Q267.7148,346.875 268.0469,346.875 Q268.6328,346.875 269.0039,347.2266 Q269.375,347.5781 269.375,348.3984 L269.375,350.3516 Q269.375,351.1719 269.0234,351.5234 Q268.6719,351.875 268.125,351.875 Q267.6367,351.875 267.3242,351.6602 Q267.0117,351.4453 266.875,350.8789 Q266.8164,350.4883 266.6016,350.2734 Q266.2109,349.8633 265.5078,349.6289 Q264.8047,349.375 264.1016,349.375 Q263.2227,349.375 262.4805,349.7266 Q261.7578,350.0781 261.1914,350.8594 Q260.625,351.6406 260.625,352.7148 L260.625,353.8672 Q260.625,355.1563 261.6797,356.0156 Q262.7344,356.875 264.6094,356.875 Q265.7227,356.875 266.5039,356.6211 Q266.9531,356.4844 267.4609,356.0352 Q267.793,355.7813 267.9688,355.7031 Q268.1445,355.625 268.3594,355.625 Q268.7695,355.625 269.0625,355.957 Q269.375,356.2695 269.375,356.7188 Q269.375,357.1484 268.9453,357.6563 Q268.3203,358.3984 267.3242,358.8086 Q266.0156,359.375 264.4141,359.375 Q262.5391,359.375 261.0352,358.6328 Q259.8242,358.0469 258.9648,356.7773 Q258.125,355.5078 258.125,354.0039 L258.125,352.6367 Q258.125,351.0742 258.8672,349.707 Q259.6289,348.3398 260.9375,347.6172 Q262.2656,346.875 263.75,346.875 Q264.6484,346.875 265.4297,347.1875 Q266.2109,347.5 266.875,348.125 Z "/><text fill="#000000" font-family="sans-serif" font-size="15" lengthAdjust="spacingAndGlyphs" textLength="40" x="281.875" y="358.6377">Client</text><line style="stroke: #A80036; stroke-width: 1.875;" x1="246.875" x2="324.375" y1="372.5" y2="372.5"/><line style="stroke: #A80036; stroke-width: 1.875;" x1="246.875" x2="324.375" y1="382.5" y2="382.5"/><!--MD5=[f3afd1301424c6baa14e8943072b6641]
class OpenClients--><rect fill="#FEFECE" filter="url(#fxaul6rtufesm)" height="60" id="OpenClients" style="stroke: #A80036; stroke-width: 1.875;" width="126.25" x="370" y="332.5"/><ellipse cx="388.75" cy="352.5" fill="#ADD1B2" rx="13.75" ry="13.75" style="stroke: #A80036; stroke-width: 1.25;"/><path d="M391.25,348.125 Q391.5039,347.5 391.7969,347.1875 Q392.0898,346.875 392.4219,346.875 Q393.0078,346.875 393.3789,347.2266 Q393.75,347.5781 393.75,348.3984 L393.75,350.3516 Q393.75,351.1719 393.3984,351.5234 Q393.0469,351.875 392.5,351.875 Q392.0117,351.875 391.6992,351.6602 Q391.3867,351.4453 391.25,350.8789 Q391.1914,350.4883 390.9766,350.2734 Q390.5859,349.8633 389.8828,349.6289 Q389.1797,349.375 388.4766,349.375 Q387.5977,349.375 386.8555,349.7266 Q386.1328,350.0781 385.5664,350.8594 Q385,351.6406 385,352.7148 L385,353.8672 Q385,355.1563 386.0547,356.0156 Q387.1094,356.875 388.9844,356.875 Q390.0977,356.875 390.8789,356.6211 Q391.3281,356.4844 391.8359,356.0352 Q392.168,355.7813 392.3438,355.7031 Q392.5195,355.625 392.7344,355.625 Q393.1445,355.625 393.4375,355.957 Q393.75,356.2695 393.75,356.7188 Q393.75,357.1484 393.3203,357.6563 Q392.6953,358.3984 391.6992,358.8086 Q390.3906,359.375 388.7891,359.375 Q386.9141,359.375 385.4102,358.6328 Q384.1992,358.0469 383.3398,356.7773 Q382.5,355.5078 382.5,354.0039 L382.5,352.6367 Q382.5,351.0742 383.2422,349.707 Q384.0039,348.3398 385.3125,347.6172 Q386.6406,346.875 388.125,346.875 Q389.0234,346.875 389.8047,347.1875 Q390.5859,347.5 391.25,348.125 Z "/><text fill="#000000" font-family="sans-serif" font-size="15" lengthAdjust="spacingAndGlyphs" textLength="86.25" x="406.25" y="358.6377">OpenClients</text><line style="stroke: #A80036; stroke-width: 1.875;" x1="371.25" x2="495" y1="372.5" y2="372.5"/><line style="stroke: #A80036; stroke-width: 1.875;" x1="371.25" x2="495" y1="382.5" y2="382.5"/><!--MD5=[419ac1d7506e2e2bc6533ce959fcd271]
link CreateClientView to CreateClientController--><path d="M222.7413,257.5775 C196.125,280.8891 165.9775,307.2951 142.7675,327.6231 " fill="none" id="CreateClientView-&gt;CreateClientController" style="stroke: #A80036; stroke-width: 1.25;"/><polygon fill="#A80036" points="137.6263,332.127,149.3835,328.4761,142.3279,328.0091,142.7949,320.9535,137.6263,332.127" style="stroke: #A80036; stroke-width: 1.25;"/><!--MD5=[d23bdb41222177ad3151863a31e26802]
link ClientsView to CreateClientView--><path d="M285.625,70.3675 C285.625,89.3488 285.625,114.845 285.625,138.2037 " fill="none" id="ClientsView-&gt;CreateClientView" style="stroke: #A80036; stroke-width: 1.25;"/><polygon fill="#A80036" points="285.625,144.7275,290.625,133.4775,285.625,138.4775,280.625,133.4775,285.625,144.7275" style="stroke: #A80036; stroke-width: 1.25;"/><!--MD5=[46f5dd82a6ba8c41459300ee57072ee5]
link CreateClientView to Client--><path d="M285.625,257.5775 C285.625,280.1055 285.625,305.5234 285.625,325.5529 " fill="none" id="CreateClientView-&gt;Client" style="stroke: #A80036; stroke-width: 1.25;"/><polygon fill="#A80036" points="285.625,332.127,290.625,320.877,285.625,325.877,280.625,320.877,285.625,332.127" style="stroke: #A80036; stroke-width: 1.25;"/><text fill="#000000" font-family="sans-serif" font-size="16.25" lengthAdjust="spacingAndGlyphs" textLength="8.75" x="275.7539" y="318.7066">1</text><!--MD5=[c7b78ff173456fade8a2872dfdea66cb]
link CreateClientView to OpenClients--><path d="M336.8,257.5775 C358.2775,280.6933 382.5813,306.8515 401.4038,327.1094 " fill="none" id="CreateClientView-&gt;OpenClients" style="stroke: #A80036; stroke-width: 1.25;"/><polygon fill="#A80036" points="406.0663,332.127,402.0716,320.482,401.812,327.5483,394.7457,327.2887,406.0663,332.127" style="stroke: #A80036; stroke-width: 1.25;"/><!--MD5=[acd2d37257a17accc89332d4df8bc622]
@startuml
	class CreateClientView {
	+confirmCreation()
	+setBillableHours(billableHours)
	+setFullName(fullName)
	}

	CreateClientView - -> CreateClientController
	ClientsView - -> CreateClientView
	CreateClientView - -> "1" Client
	CreateClientView - -> OpenClients
@enduml

PlantUML version 1.2020.09(Sun May 10 12:51:06 CEST 2020)
(GPL source distribution)
Java Runtime: OpenJDK Runtime Environment
JVM: OpenJDK 64-Bit Server VM
Java Version: 11.0.8+10-b1094.1
Operating System: Windows 10
Default Encoding: Cp1252
Language: en
Country: GB
--></g></svg>