<?xml version="1.0" encoding="UTF-8" standalone="no"?><svg xmlns="http://www.w3.org/2000/svg" xmlns:xlink="http://www.w3.org/1999/xlink" contentScriptType="application/ecmascript" contentStyleType="text/css" height="371.25px" preserveAspectRatio="none" style="width:953px;height:371px;" version="1.1" viewBox="0 0 953 371" width="953.75px" zoomAndPan="magnify"><defs><filter height="300%" id="f1agntc43757b5" width="300%" x="-1" y="-1"><feGaussianBlur result="blurOut" stdDeviation="2.5"/><feColorMatrix in="blurOut" result="blurOut2" type="matrix" values="0 0 0 0 0 0 0 0 0 0 0 0 0 0 0 0 0 0 .4 0"/><feOffset dx="5.0" dy="5.0" in="blurOut2" result="blurOut3"/><feBlend in="SourceGraphic" in2="blurOut3" mode="normal"/></filter></defs><g><!--MD5=[bdd4672b4bae795639395c14a0d6d497]
class DashboardView--><rect fill="#FEFECE" filter="url(#f1agntc43757b5)" height="77.2949" id="DashboardView" style="stroke: #A80036; stroke-width: 1.875;" width="225" x="441.875" y="145"/><ellipse cx="494.375" cy="165" fill="#ADD1B2" rx="13.75" ry="13.75" style="stroke: #A80036; stroke-width: 1.25;"/><path d="M496.875,160.625 Q497.1289,160 497.4219,159.6875 Q497.7148,159.375 498.0469,159.375 Q498.6328,159.375 499.0039,159.7266 Q499.375,160.0781 499.375,160.8984 L499.375,162.8516 Q499.375,163.6719 499.0234,164.0234 Q498.6719,164.375 498.125,164.375 Q497.6367,164.375 497.3242,164.1602 Q497.0117,163.9453 496.875,163.3789 Q496.8164,162.9883 496.6016,162.7734 Q496.2109,162.3633 495.5078,162.1289 Q494.8047,161.875 494.1016,161.875 Q493.2227,161.875 492.4805,162.2266 Q491.7578,162.5781 491.1914,163.3594 Q490.625,164.1406 490.625,165.2148 L490.625,166.3672 Q490.625,167.6563 491.6797,168.5156 Q492.7344,169.375 494.6094,169.375 Q495.7227,169.375 496.5039,169.1211 Q496.9531,168.9844 497.4609,168.5352 Q497.793,168.2813 497.9688,168.2031 Q498.1445,168.125 498.3594,168.125 Q498.7695,168.125 499.0625,168.457 Q499.375,168.7695 499.375,169.2188 Q499.375,169.6484 498.9453,170.1563 Q498.3203,170.8984 497.3242,171.3086 Q496.0156,171.875 494.4141,171.875 Q492.5391,171.875 491.0352,171.1328 Q489.8242,170.5469 488.9648,169.2773 Q488.125,168.0078 488.125,166.5039 L488.125,165.1367 Q488.125,163.5742 488.8672,162.207 Q489.6289,160.8398 490.9375,160.1172 Q492.2656,159.375 493.75,159.375 Q494.6484,159.375 495.4297,159.6875 Q496.2109,160 496.875,160.625 Z "/><text fill="#000000" font-family="sans-serif" font-size="15" lengthAdjust="spacingAndGlyphs" textLength="110" x="519.375" y="171.1377">DashboardView</text><line style="stroke: #A80036; stroke-width: 1.875;" x1="443.125" x2="665.625" y1="185" y2="185"/><line style="stroke: #A80036; stroke-width: 1.875;" x1="443.125" x2="665.625" y1="195" y2="195"/><ellipse cx="455.625" cy="208.75" fill="#84BE84" rx="3.75" ry="3.75" style="stroke: #038048; stroke-width: 1.25;"/><text fill="#000000" font-family="sans-serif" font-size="13.75" lengthAdjust="spacingAndGlyphs" textLength="192.5" x="466.875" y="214.2737">finishIntervention(interventionId)</text><!--MD5=[6eb95dae11a1ea7d98ae0342753f209d]
class FinishInterventionController--><rect fill="#FEFECE" filter="url(#f1agntc43757b5)" height="60" id="FinishInterventionController" style="stroke: #A80036; stroke-width: 1.875;" width="228.75" x="7.5" y="297.5"/><ellipse cx="26.25" cy="317.5" fill="#ADD1B2" rx="13.75" ry="13.75" style="stroke: #A80036; stroke-width: 1.25;"/><path d="M28.75,313.125 Q29.0039,312.5 29.2969,312.1875 Q29.5898,311.875 29.9219,311.875 Q30.5078,311.875 30.8789,312.2266 Q31.25,312.5781 31.25,313.3984 L31.25,315.3516 Q31.25,316.1719 30.8984,316.5234 Q30.5469,316.875 30,316.875 Q29.5117,316.875 29.1992,316.6602 Q28.8867,316.4453 28.75,315.8789 Q28.6914,315.4883 28.4766,315.2734 Q28.0859,314.8633 27.3828,314.6289 Q26.6797,314.375 25.9766,314.375 Q25.0977,314.375 24.3555,314.7266 Q23.6328,315.0781 23.0664,315.8594 Q22.5,316.6406 22.5,317.7148 L22.5,318.8672 Q22.5,320.1563 23.5547,321.0156 Q24.6094,321.875 26.4844,321.875 Q27.5977,321.875 28.3789,321.6211 Q28.8281,321.4844 29.3359,321.0352 Q29.668,320.7813 29.8438,320.7031 Q30.0195,320.625 30.2344,320.625 Q30.6445,320.625 30.9375,320.957 Q31.25,321.2695 31.25,321.7188 Q31.25,322.1484 30.8203,322.6563 Q30.1953,323.3984 29.1992,323.8086 Q27.8906,324.375 26.2891,324.375 Q24.4141,324.375 22.9102,323.6328 Q21.6992,323.0469 20.8398,321.7773 Q20,320.5078 20,319.0039 L20,317.6367 Q20,316.0742 20.7422,314.707 Q21.5039,313.3398 22.8125,312.6172 Q24.1406,311.875 25.625,311.875 Q26.5234,311.875 27.3047,312.1875 Q28.0859,312.5 28.75,313.125 Z "/><text fill="#000000" font-family="sans-serif" font-size="15" lengthAdjust="spacingAndGlyphs" textLength="188.75" x="43.75" y="323.6377">FinishInterventionController</text><line style="stroke: #A80036; stroke-width: 1.875;" x1="8.75" x2="235" y1="337.5" y2="337.5"/><line style="stroke: #A80036; stroke-width: 1.875;" x1="8.75" x2="235" y1="347.5" y2="347.5"/><!--MD5=[91506c20fa69d22eac57944020c826c2]
class Intervention--><rect fill="#FEFECE" filter="url(#f1agntc43757b5)" height="60" id="Intervention" style="stroke: #A80036; stroke-width: 1.875;" width="118.75" x="280" y="297.5"/><ellipse cx="298.75" cy="317.5" fill="#ADD1B2" rx="13.75" ry="13.75" style="stroke: #A80036; stroke-width: 1.25;"/><path d="M301.25,313.125 Q301.5039,312.5 301.7969,312.1875 Q302.0898,311.875 302.4219,311.875 Q303.0078,311.875 303.3789,312.2266 Q303.75,312.5781 303.75,313.3984 L303.75,315.3516 Q303.75,316.1719 303.3984,316.5234 Q303.0469,316.875 302.5,316.875 Q302.0117,316.875 301.6992,316.6602 Q301.3867,316.4453 301.25,315.8789 Q301.1914,315.4883 300.9766,315.2734 Q300.5859,314.8633 299.8828,314.6289 Q299.1797,314.375 298.4766,314.375 Q297.5977,314.375 296.8555,314.7266 Q296.1328,315.0781 295.5664,315.8594 Q295,316.6406 295,317.7148 L295,318.8672 Q295,320.1563 296.0547,321.0156 Q297.1094,321.875 298.9844,321.875 Q300.0977,321.875 300.8789,321.6211 Q301.3281,321.4844 301.8359,321.0352 Q302.168,320.7813 302.3438,320.7031 Q302.5195,320.625 302.7344,320.625 Q303.1445,320.625 303.4375,320.957 Q303.75,321.2695 303.75,321.7188 Q303.75,322.1484 303.3203,322.6563 Q302.6953,323.3984 301.6992,323.8086 Q300.3906,324.375 298.7891,324.375 Q296.9141,324.375 295.4102,323.6328 Q294.1992,323.0469 293.3398,321.7773 Q292.5,320.5078 292.5,319.0039 L292.5,317.6367 Q292.5,316.0742 293.2422,314.707 Q294.0039,313.3398 295.3125,312.6172 Q296.6406,311.875 298.125,311.875 Q299.0234,311.875 299.8047,312.1875 Q300.5859,312.5 301.25,313.125 Z "/><text fill="#000000" font-family="sans-serif" font-size="15" lengthAdjust="spacingAndGlyphs" textLength="78.75" x="316.25" y="323.6377">Intervention</text><line style="stroke: #A80036; stroke-width: 1.875;" x1="281.25" x2="397.5" y1="337.5" y2="337.5"/><line style="stroke: #A80036; stroke-width: 1.875;" x1="281.25" x2="397.5" y1="347.5" y2="347.5"/><!--MD5=[a16c6c6b4acf5b7bf94ccf4f6a9af788]
class OpenDashboardController--><rect fill="#FEFECE" filter="url(#f1agntc43757b5)" height="60" id="OpenDashboardController" style="stroke: #A80036; stroke-width: 1.875;" width="222.5" x="443.125" y="297.5"/><ellipse cx="461.875" cy="317.5" fill="#ADD1B2" rx="13.75" ry="13.75" style="stroke: #A80036; stroke-width: 1.25;"/><path d="M464.375,313.125 Q464.6289,312.5 464.9219,312.1875 Q465.2148,311.875 465.5469,311.875 Q466.1328,311.875 466.5039,312.2266 Q466.875,312.5781 466.875,313.3984 L466.875,315.3516 Q466.875,316.1719 466.5234,316.5234 Q466.1719,316.875 465.625,316.875 Q465.1367,316.875 464.8242,316.6602 Q464.5117,316.4453 464.375,315.8789 Q464.3164,315.4883 464.1016,315.2734 Q463.7109,314.8633 463.0078,314.6289 Q462.3047,314.375 461.6016,314.375 Q460.7227,314.375 459.9805,314.7266 Q459.2578,315.0781 458.6914,315.8594 Q458.125,316.6406 458.125,317.7148 L458.125,318.8672 Q458.125,320.1563 459.1797,321.0156 Q460.2344,321.875 462.1094,321.875 Q463.2227,321.875 464.0039,321.6211 Q464.4531,321.4844 464.9609,321.0352 Q465.293,320.7813 465.4688,320.7031 Q465.6445,320.625 465.8594,320.625 Q466.2695,320.625 466.5625,320.957 Q466.875,321.2695 466.875,321.7188 Q466.875,322.1484 466.4453,322.6563 Q465.8203,323.3984 464.8242,323.8086 Q463.5156,324.375 461.9141,324.375 Q460.0391,324.375 458.5352,323.6328 Q457.3242,323.0469 456.4648,321.7773 Q455.625,320.5078 455.625,319.0039 L455.625,317.6367 Q455.625,316.0742 456.3672,314.707 Q457.1289,313.3398 458.4375,312.6172 Q459.7656,311.875 461.25,311.875 Q462.1484,311.875 462.9297,312.1875 Q463.7109,312.5 464.375,313.125 Z "/><text fill="#000000" font-family="sans-serif" font-size="15" lengthAdjust="spacingAndGlyphs" textLength="182.5" x="479.375" y="323.6377">OpenDashboardController</text><line style="stroke: #A80036; stroke-width: 1.875;" x1="444.375" x2="664.375" y1="337.5" y2="337.5"/><line style="stroke: #A80036; stroke-width: 1.875;" x1="444.375" x2="664.375" y1="347.5" y2="347.5"/><!--MD5=[29b2f111522674c67058d1158e551383]
class actor--><rect fill="#FEFECE" filter="url(#f1agntc43757b5)" height="60" id="actor" style="stroke: #A80036; stroke-width: 1.875;" width="73.75" x="450" y="10"/><ellipse cx="468.75" cy="30" fill="#ADD1B2" rx="13.75" ry="13.75" style="stroke: #A80036; stroke-width: 1.25;"/><path d="M471.25,25.625 Q471.5039,25 471.7969,24.6875 Q472.0898,24.375 472.4219,24.375 Q473.0078,24.375 473.3789,24.7266 Q473.75,25.0781 473.75,25.8984 L473.75,27.8516 Q473.75,28.6719 473.3984,29.0234 Q473.0469,29.375 472.5,29.375 Q472.0117,29.375 471.6992,29.1602 Q471.3867,28.9453 471.25,28.3789 Q471.1914,27.9883 470.9766,27.7734 Q470.5859,27.3633 469.8828,27.1289 Q469.1797,26.875 468.4766,26.875 Q467.5977,26.875 466.8555,27.2266 Q466.1328,27.5781 465.5664,28.3594 Q465,29.1406 465,30.2148 L465,31.3672 Q465,32.6563 466.0547,33.5156 Q467.1094,34.375 468.9844,34.375 Q470.0977,34.375 470.8789,34.1211 Q471.3281,33.9844 471.8359,33.5352 Q472.168,33.2813 472.3438,33.2031 Q472.5195,33.125 472.7344,33.125 Q473.1445,33.125 473.4375,33.457 Q473.75,33.7695 473.75,34.2188 Q473.75,34.6484 473.3203,35.1563 Q472.6953,35.8984 471.6992,36.3086 Q470.3906,36.875 468.7891,36.875 Q466.9141,36.875 465.4102,36.1328 Q464.1992,35.5469 463.3398,34.2773 Q462.5,33.0078 462.5,31.5039 L462.5,30.1367 Q462.5,28.5742 463.2422,27.207 Q464.0039,25.8398 465.3125,25.1172 Q466.6406,24.375 468.125,24.375 Q469.0234,24.375 469.8047,24.6875 Q470.5859,25 471.25,25.625 Z "/><text fill="#000000" font-family="sans-serif" font-size="15" lengthAdjust="spacingAndGlyphs" textLength="33.75" x="486.25" y="36.1377">actor</text><line style="stroke: #A80036; stroke-width: 1.875;" x1="451.25" x2="522.5" y1="50" y2="50"/><line style="stroke: #A80036; stroke-width: 1.875;" x1="451.25" x2="522.5" y1="60" y2="60"/><!--MD5=[2ca1536628238a7dc78c5d90808014f9]
class Session--><rect fill="#FEFECE" filter="url(#f1agntc43757b5)" height="60" id="Session" style="stroke: #A80036; stroke-width: 1.875;" width="97.5" x="709.375" y="297.5"/><ellipse cx="728.125" cy="317.5" fill="#ADD1B2" rx="13.75" ry="13.75" style="stroke: #A80036; stroke-width: 1.25;"/><path d="M730.625,313.125 Q730.8789,312.5 731.1719,312.1875 Q731.4648,311.875 731.7969,311.875 Q732.3828,311.875 732.7539,312.2266 Q733.125,312.5781 733.125,313.3984 L733.125,315.3516 Q733.125,316.1719 732.7734,316.5234 Q732.4219,316.875 731.875,316.875 Q731.3867,316.875 731.0742,316.6602 Q730.7617,316.4453 730.625,315.8789 Q730.5664,315.4883 730.3516,315.2734 Q729.9609,314.8633 729.2578,314.6289 Q728.5547,314.375 727.8516,314.375 Q726.9727,314.375 726.2305,314.7266 Q725.5078,315.0781 724.9414,315.8594 Q724.375,316.6406 724.375,317.7148 L724.375,318.8672 Q724.375,320.1563 725.4297,321.0156 Q726.4844,321.875 728.3594,321.875 Q729.4727,321.875 730.2539,321.6211 Q730.7031,321.4844 731.2109,321.0352 Q731.543,320.7813 731.7188,320.7031 Q731.8945,320.625 732.1094,320.625 Q732.5195,320.625 732.8125,320.957 Q733.125,321.2695 733.125,321.7188 Q733.125,322.1484 732.6953,322.6563 Q732.0703,323.3984 731.0742,323.8086 Q729.7656,324.375 728.1641,324.375 Q726.2891,324.375 724.7852,323.6328 Q723.5742,323.0469 722.7148,321.7773 Q721.875,320.5078 721.875,319.0039 L721.875,317.6367 Q721.875,316.0742 722.6172,314.707 Q723.3789,313.3398 724.6875,312.6172 Q726.0156,311.875 727.5,311.875 Q728.3984,311.875 729.1797,312.1875 Q729.9609,312.5 730.625,313.125 Z "/><text fill="#000000" font-family="sans-serif" font-size="15" lengthAdjust="spacingAndGlyphs" textLength="57.5" x="745.625" y="323.6377">Session</text><line style="stroke: #A80036; stroke-width: 1.875;" x1="710.625" x2="805.625" y1="337.5" y2="337.5"/><line style="stroke: #A80036; stroke-width: 1.875;" x1="710.625" x2="805.625" y1="347.5" y2="347.5"/><!--MD5=[3aa0d89c6bfdcbf7f32042cedac57549]
class Vehicle--><rect fill="#FEFECE" filter="url(#f1agntc43757b5)" height="60" id="Vehicle" style="stroke: #A80036; stroke-width: 1.875;" width="90" x="850.625" y="297.5"/><ellipse cx="869.375" cy="317.5" fill="#ADD1B2" rx="13.75" ry="13.75" style="stroke: #A80036; stroke-width: 1.25;"/><path d="M871.875,313.125 Q872.1289,312.5 872.4219,312.1875 Q872.7148,311.875 873.0469,311.875 Q873.6328,311.875 874.0039,312.2266 Q874.375,312.5781 874.375,313.3984 L874.375,315.3516 Q874.375,316.1719 874.0234,316.5234 Q873.6719,316.875 873.125,316.875 Q872.6367,316.875 872.3242,316.6602 Q872.0117,316.4453 871.875,315.8789 Q871.8164,315.4883 871.6016,315.2734 Q871.2109,314.8633 870.5078,314.6289 Q869.8047,314.375 869.1016,314.375 Q868.2227,314.375 867.4805,314.7266 Q866.7578,315.0781 866.1914,315.8594 Q865.625,316.6406 865.625,317.7148 L865.625,318.8672 Q865.625,320.1563 866.6797,321.0156 Q867.7344,321.875 869.6094,321.875 Q870.7227,321.875 871.5039,321.6211 Q871.9531,321.4844 872.4609,321.0352 Q872.793,320.7813 872.9688,320.7031 Q873.1445,320.625 873.3594,320.625 Q873.7695,320.625 874.0625,320.957 Q874.375,321.2695 874.375,321.7188 Q874.375,322.1484 873.9453,322.6563 Q873.3203,323.3984 872.3242,323.8086 Q871.0156,324.375 869.4141,324.375 Q867.5391,324.375 866.0352,323.6328 Q864.8242,323.0469 863.9648,321.7773 Q863.125,320.5078 863.125,319.0039 L863.125,317.6367 Q863.125,316.0742 863.8672,314.707 Q864.6289,313.3398 865.9375,312.6172 Q867.2656,311.875 868.75,311.875 Q869.6484,311.875 870.4297,312.1875 Q871.2109,312.5 871.875,313.125 Z "/><text fill="#000000" font-family="sans-serif" font-size="15" lengthAdjust="spacingAndGlyphs" textLength="50" x="886.875" y="323.6377">Vehicle</text><line style="stroke: #A80036; stroke-width: 1.875;" x1="851.875" x2="939.375" y1="337.5" y2="337.5"/><line style="stroke: #A80036; stroke-width: 1.875;" x1="851.875" x2="939.375" y1="347.5" y2="347.5"/><!--MD5=[f6bfa8e6ad2e37edcd578b647fafadda]
class MenuView--><rect fill="#FEFECE" filter="url(#f1agntc43757b5)" height="60" id="MenuView" style="stroke: #A80036; stroke-width: 1.875;" width="110" x="568.125" y="10"/><ellipse cx="586.875" cy="30" fill="#ADD1B2" rx="13.75" ry="13.75" style="stroke: #A80036; stroke-width: 1.25;"/><path d="M589.375,25.625 Q589.6289,25 589.9219,24.6875 Q590.2148,24.375 590.5469,24.375 Q591.1328,24.375 591.5039,24.7266 Q591.875,25.0781 591.875,25.8984 L591.875,27.8516 Q591.875,28.6719 591.5234,29.0234 Q591.1719,29.375 590.625,29.375 Q590.1367,29.375 589.8242,29.1602 Q589.5117,28.9453 589.375,28.3789 Q589.3164,27.9883 589.1016,27.7734 Q588.7109,27.3633 588.0078,27.1289 Q587.3047,26.875 586.6016,26.875 Q585.7227,26.875 584.9805,27.2266 Q584.2578,27.5781 583.6914,28.3594 Q583.125,29.1406 583.125,30.2148 L583.125,31.3672 Q583.125,32.6563 584.1797,33.5156 Q585.2344,34.375 587.1094,34.375 Q588.2227,34.375 589.0039,34.1211 Q589.4531,33.9844 589.9609,33.5352 Q590.293,33.2813 590.4688,33.2031 Q590.6445,33.125 590.8594,33.125 Q591.2695,33.125 591.5625,33.457 Q591.875,33.7695 591.875,34.2188 Q591.875,34.6484 591.4453,35.1563 Q590.8203,35.8984 589.8242,36.3086 Q588.5156,36.875 586.9141,36.875 Q585.0391,36.875 583.5352,36.1328 Q582.3242,35.5469 581.4648,34.2773 Q580.625,33.0078 580.625,31.5039 L580.625,30.1367 Q580.625,28.5742 581.3672,27.207 Q582.1289,25.8398 583.4375,25.1172 Q584.7656,24.375 586.25,24.375 Q587.1484,24.375 587.9297,24.6875 Q588.7109,25 589.375,25.625 Z "/><text fill="#000000" font-family="sans-serif" font-size="15" lengthAdjust="spacingAndGlyphs" textLength="70" x="604.375" y="36.1377">MenuView</text><line style="stroke: #A80036; stroke-width: 1.875;" x1="569.375" x2="676.875" y1="50" y2="50"/><line style="stroke: #A80036; stroke-width: 1.875;" x1="569.375" x2="676.875" y1="60" y2="60"/><!--MD5=[eeefc553d70b6ba1481a1732880404fd]
link DashboardView to FinishInterventionController--><path d="M441.87,221.7425 C371.655,244.6742 282.3175,273.851 215.8925,295.545 " fill="none" id="DashboardView-&gt;FinishInterventionController" style="stroke: #A80036; stroke-width: 1.25;"/><polygon fill="#A80036" points="209.9413,297.4884,222.1878,298.7474,215.8822,295.5474,219.0822,289.2418,209.9413,297.4884" style="stroke: #A80036; stroke-width: 1.25;"/><!--MD5=[e0f08b99bbab2595579d83c6125b715c]
link DashboardView to Intervention--><path d="M496.7587,222.8525 C463.0125,245.0231 420.8388,272.7301 388.645,293.8811 " fill="none" id="DashboardView-&gt;Intervention" style="stroke: #A80036; stroke-width: 1.25;"/><polygon fill="#A80036" points="383.1613,297.4838,395.3094,295.4877,388.3855,294.053,389.8202,287.129,383.1613,297.4838" style="stroke: #A80036; stroke-width: 1.25;"/><!--MD5=[882b6091aa90f951708d505c700f216f]
link DashboardView to OpenDashboardController--><path d="M554.375,222.8525 C554.375,243.8503 554.375,269.8144 554.375,290.4713 " fill="none" id="DashboardView-&gt;OpenDashboardController" style="stroke: #A80036; stroke-width: 1.25;"/><polygon fill="#A80036" points="554.375,297.2584,559.375,286.0084,554.375,291.0084,549.375,286.0084,554.375,297.2584" style="stroke: #A80036; stroke-width: 1.25;"/><!--MD5=[158bd1e54ba643630751f4037ad032f3]
link actor to DashboardView--><path d="M500.6975,70.175 C510.075,89.7988 522.6513,116.1163 533.2738,138.3438 " fill="none" id="actor-&gt;DashboardView" style="stroke: #A80036; stroke-width: 1.25;"/><polygon fill="#A80036" points="536.2138,144.495,535.8748,132.1886,533.5191,138.8557,526.852,136.5,536.2138,144.495" style="stroke: #A80036; stroke-width: 1.25;"/><!--MD5=[cbb00088b92544238e2f93e5abc90875]
link DashboardView to Session--><path d="M608.9762,222.8525 C640.9575,245.0231 680.9238,272.7301 711.4338,293.8811 " fill="none" id="DashboardView-&gt;Session" style="stroke: #A80036; stroke-width: 1.25;"/><polygon fill="#A80036" points="716.63,297.4838,710.2329,286.9652,711.4935,293.923,704.5357,295.1836,716.63,297.4838" style="stroke: #A80036; stroke-width: 1.25;"/><!--MD5=[12cb02a75a603bb973ed3c9bb4a84f0c]
link DashboardView to Vehicle--><path d="M647.5,222.5275 C700.855,244.1704 769.0063,272.0565 829.375,297.5 C834.275,299.565 839.3688,301.7348 844.4588,303.9179 " fill="none" id="DashboardView-&gt;Vehicle" style="stroke: #A80036; stroke-width: 1.25;"/><polygon fill="#A80036" points="850.42,306.4815,842.0611,297.4432,844.6786,304.0119,838.1098,306.6294,850.42,306.4815" style="stroke: #A80036; stroke-width: 1.25;"/><!--MD5=[62da2036794d0ff2dad111de6289f721]
link MenuView to DashboardView--><path d="M609.0463,70.175 C599.495,89.7988 586.6863,116.1163 575.8675,138.3438 " fill="none" id="MenuView-&gt;DashboardView" style="stroke: #A80036; stroke-width: 1.25;"/><polygon fill="#A80036" points="572.8725,144.495,582.2902,136.566,575.6067,138.8748,573.2979,132.1913,572.8725,144.495" style="stroke: #A80036; stroke-width: 1.25;"/><!--MD5=[8790d9fc83cfdf84f330feceb5ddb4ce]
@startuml
	class DashboardView {
	+finishIntervention(interventionId)
	}

	DashboardView - -> FinishInterventionController
	DashboardView - -> Intervention
	DashboardView - -> OpenDashboardController
	actor - -> DashboardView
	DashboardView - -> Session
	DashboardView - -> Vehicle
	MenuView - -> DashboardView
@enduml

PlantUML version 1.2020.09(Sun May 10 12:51:06 CEST 2020)
(GPL source distribution)
Java Runtime: OpenJDK Runtime Environment
JVM: OpenJDK 64-Bit Server VM
Java Version: 11.0.8+10-b1094.1
Operating System: Windows 10
Default Encoding: Cp1252
Language: en
Country: GB
--></g></svg>