<?xml version="1.0" encoding="UTF-8" standalone="no"?><svg xmlns="http://www.w3.org/2000/svg" xmlns:xlink="http://www.w3.org/1999/xlink" contentScriptType="application/ecmascript" contentStyleType="text/css" height="253.75px" preserveAspectRatio="none" style="width:817px;height:253px;" version="1.1" viewBox="0 0 817 253" width="817.5px" zoomAndPan="magnify"><defs><filter height="300%" id="fq1yfqne01irp" width="300%" x="-1" y="-1"><feGaussianBlur result="blurOut" stdDeviation="2.5"/><feColorMatrix in="blurOut" result="blurOut2" type="matrix" values="0 0 0 0 0 0 0 0 0 0 0 0 0 0 0 0 0 0 .4 0"/><feOffset dx="5.0" dy="5.0" in="blurOut2" result="blurOut3"/><feBlend in="SourceGraphic" in2="blurOut3" mode="normal"/></filter></defs><g><!--MD5=[8309b17d830045003489ce4c308a9814]
class LoginView--><rect fill="#FEFECE" filter="url(#fq1yfqne01irp)" height="94.5898" id="LoginView" style="stroke: #A80036; stroke-width: 1.875;" width="200" x="291.875" y="10"/><ellipse cx="350.9375" cy="30" fill="#ADD1B2" rx="13.75" ry="13.75" style="stroke: #A80036; stroke-width: 1.25;"/><path d="M353.4375,25.625 Q353.6914,25 353.9844,24.6875 Q354.2773,24.375 354.6094,24.375 Q355.1953,24.375 355.5664,24.7266 Q355.9375,25.0781 355.9375,25.8984 L355.9375,27.8516 Q355.9375,28.6719 355.5859,29.0234 Q355.2344,29.375 354.6875,29.375 Q354.1992,29.375 353.8867,29.1602 Q353.5742,28.9453 353.4375,28.3789 Q353.3789,27.9883 353.1641,27.7734 Q352.7734,27.3633 352.0703,27.1289 Q351.3672,26.875 350.6641,26.875 Q349.7852,26.875 349.043,27.2266 Q348.3203,27.5781 347.7539,28.3594 Q347.1875,29.1406 347.1875,30.2148 L347.1875,31.3672 Q347.1875,32.6563 348.2422,33.5156 Q349.2969,34.375 351.1719,34.375 Q352.2852,34.375 353.0664,34.1211 Q353.5156,33.9844 354.0234,33.5352 Q354.3555,33.2813 354.5313,33.2031 Q354.707,33.125 354.9219,33.125 Q355.332,33.125 355.625,33.457 Q355.9375,33.7695 355.9375,34.2188 Q355.9375,34.6484 355.5078,35.1563 Q354.8828,35.8984 353.8867,36.3086 Q352.5781,36.875 350.9766,36.875 Q349.1016,36.875 347.5977,36.1328 Q346.3867,35.5469 345.5273,34.2773 Q344.6875,33.0078 344.6875,31.5039 L344.6875,30.1367 Q344.6875,28.5742 345.4297,27.207 Q346.1914,25.8398 347.5,25.1172 Q348.8281,24.375 350.3125,24.375 Q351.2109,24.375 351.9922,24.6875 Q352.7734,25 353.4375,25.625 Z "/><text fill="#000000" font-family="sans-serif" font-size="15" lengthAdjust="spacingAndGlyphs" textLength="71.25" x="376.5625" y="36.1377">LoginView</text><line style="stroke: #A80036; stroke-width: 1.875;" x1="293.125" x2="490.625" y1="50" y2="50"/><line style="stroke: #A80036; stroke-width: 1.875;" x1="293.125" x2="490.625" y1="60" y2="60"/><ellipse cx="305.625" cy="73.75" fill="#84BE84" rx="3.75" ry="3.75" style="stroke: #038048; stroke-width: 1.25;"/><text fill="#000000" font-family="sans-serif" font-size="13.75" lengthAdjust="spacingAndGlyphs" textLength="45" x="316.875" y="79.2737">signin()</text><ellipse cx="305.625" cy="91.0449" fill="#84BE84" rx="3.75" ry="3.75" style="stroke: #038048; stroke-width: 1.25;"/><text fill="#000000" font-family="sans-serif" font-size="13.75" lengthAdjust="spacingAndGlyphs" textLength="167.5" x="316.875" y="96.5686">login(username, password)</text><!--MD5=[5103e3471bf31fadd75905833dcba617]
class LoginController--><rect fill="#FEFECE" filter="url(#fq1yfqne01irp)" height="60" id="LoginController" style="stroke: #A80036; stroke-width: 1.875;" width="146.25" x="7.5" y="180"/><ellipse cx="26.25" cy="200" fill="#ADD1B2" rx="13.75" ry="13.75" style="stroke: #A80036; stroke-width: 1.25;"/><path d="M28.75,195.625 Q29.0039,195 29.2969,194.6875 Q29.5898,194.375 29.9219,194.375 Q30.5078,194.375 30.8789,194.7266 Q31.25,195.0781 31.25,195.8984 L31.25,197.8516 Q31.25,198.6719 30.8984,199.0234 Q30.5469,199.375 30,199.375 Q29.5117,199.375 29.1992,199.1602 Q28.8867,198.9453 28.75,198.3789 Q28.6914,197.9883 28.4766,197.7734 Q28.0859,197.3633 27.3828,197.1289 Q26.6797,196.875 25.9766,196.875 Q25.0977,196.875 24.3555,197.2266 Q23.6328,197.5781 23.0664,198.3594 Q22.5,199.1406 22.5,200.2148 L22.5,201.3672 Q22.5,202.6563 23.5547,203.5156 Q24.6094,204.375 26.4844,204.375 Q27.5977,204.375 28.3789,204.1211 Q28.8281,203.9844 29.3359,203.5352 Q29.668,203.2813 29.8438,203.2031 Q30.0195,203.125 30.2344,203.125 Q30.6445,203.125 30.9375,203.457 Q31.25,203.7695 31.25,204.2188 Q31.25,204.6484 30.8203,205.1563 Q30.1953,205.8984 29.1992,206.3086 Q27.8906,206.875 26.2891,206.875 Q24.4141,206.875 22.9102,206.1328 Q21.6992,205.5469 20.8398,204.2773 Q20,203.0078 20,201.5039 L20,200.1367 Q20,198.5742 20.7422,197.207 Q21.5039,195.8398 22.8125,195.1172 Q24.1406,194.375 25.625,194.375 Q26.5234,194.375 27.3047,194.6875 Q28.0859,195 28.75,195.625 Z "/><text fill="#000000" font-family="sans-serif" font-size="15" lengthAdjust="spacingAndGlyphs" textLength="106.25" x="43.75" y="206.1377">LoginController</text><line style="stroke: #A80036; stroke-width: 1.875;" x1="8.75" x2="152.5" y1="220" y2="220"/><line style="stroke: #A80036; stroke-width: 1.875;" x1="8.75" x2="152.5" y1="230" y2="230"/><!--MD5=[2ca1536628238a7dc78c5d90808014f9]
class Session--><rect fill="#FEFECE" filter="url(#fq1yfqne01irp)" height="60" id="Session" style="stroke: #A80036; stroke-width: 1.875;" width="97.5" x="198.125" y="180"/><ellipse cx="216.875" cy="200" fill="#ADD1B2" rx="13.75" ry="13.75" style="stroke: #A80036; stroke-width: 1.25;"/><path d="M219.375,195.625 Q219.6289,195 219.9219,194.6875 Q220.2148,194.375 220.5469,194.375 Q221.1328,194.375 221.5039,194.7266 Q221.875,195.0781 221.875,195.8984 L221.875,197.8516 Q221.875,198.6719 221.5234,199.0234 Q221.1719,199.375 220.625,199.375 Q220.1367,199.375 219.8242,199.1602 Q219.5117,198.9453 219.375,198.3789 Q219.3164,197.9883 219.1016,197.7734 Q218.7109,197.3633 218.0078,197.1289 Q217.3047,196.875 216.6016,196.875 Q215.7227,196.875 214.9805,197.2266 Q214.2578,197.5781 213.6914,198.3594 Q213.125,199.1406 213.125,200.2148 L213.125,201.3672 Q213.125,202.6563 214.1797,203.5156 Q215.2344,204.375 217.1094,204.375 Q218.2227,204.375 219.0039,204.1211 Q219.4531,203.9844 219.9609,203.5352 Q220.293,203.2813 220.4688,203.2031 Q220.6445,203.125 220.8594,203.125 Q221.2695,203.125 221.5625,203.457 Q221.875,203.7695 221.875,204.2188 Q221.875,204.6484 221.4453,205.1563 Q220.8203,205.8984 219.8242,206.3086 Q218.5156,206.875 216.9141,206.875 Q215.0391,206.875 213.5352,206.1328 Q212.3242,205.5469 211.4648,204.2773 Q210.625,203.0078 210.625,201.5039 L210.625,200.1367 Q210.625,198.5742 211.3672,197.207 Q212.1289,195.8398 213.4375,195.1172 Q214.7656,194.375 216.25,194.375 Q217.1484,194.375 217.9297,194.6875 Q218.7109,195 219.375,195.625 Z "/><text fill="#000000" font-family="sans-serif" font-size="15" lengthAdjust="spacingAndGlyphs" textLength="57.5" x="234.375" y="206.1377">Session</text><line style="stroke: #A80036; stroke-width: 1.875;" x1="199.375" x2="294.375" y1="220" y2="220"/><line style="stroke: #A80036; stroke-width: 1.875;" x1="199.375" x2="294.375" y1="230" y2="230"/><!--MD5=[1e29ec7aa20142996304403e448274ec]
class Mechanic--><rect fill="#FEFECE" filter="url(#fq1yfqne01irp)" height="60" id="Mechanic" style="stroke: #A80036; stroke-width: 1.875;" width="105" x="339.375" y="180"/><ellipse cx="358.125" cy="200" fill="#ADD1B2" rx="13.75" ry="13.75" style="stroke: #A80036; stroke-width: 1.25;"/><path d="M360.625,195.625 Q360.8789,195 361.1719,194.6875 Q361.4648,194.375 361.7969,194.375 Q362.3828,194.375 362.7539,194.7266 Q363.125,195.0781 363.125,195.8984 L363.125,197.8516 Q363.125,198.6719 362.7734,199.0234 Q362.4219,199.375 361.875,199.375 Q361.3867,199.375 361.0742,199.1602 Q360.7617,198.9453 360.625,198.3789 Q360.5664,197.9883 360.3516,197.7734 Q359.9609,197.3633 359.2578,197.1289 Q358.5547,196.875 357.8516,196.875 Q356.9727,196.875 356.2305,197.2266 Q355.5078,197.5781 354.9414,198.3594 Q354.375,199.1406 354.375,200.2148 L354.375,201.3672 Q354.375,202.6563 355.4297,203.5156 Q356.4844,204.375 358.3594,204.375 Q359.4727,204.375 360.2539,204.1211 Q360.7031,203.9844 361.2109,203.5352 Q361.543,203.2813 361.7188,203.2031 Q361.8945,203.125 362.1094,203.125 Q362.5195,203.125 362.8125,203.457 Q363.125,203.7695 363.125,204.2188 Q363.125,204.6484 362.6953,205.1563 Q362.0703,205.8984 361.0742,206.3086 Q359.7656,206.875 358.1641,206.875 Q356.2891,206.875 354.7852,206.1328 Q353.5742,205.5469 352.7148,204.2773 Q351.875,203.0078 351.875,201.5039 L351.875,200.1367 Q351.875,198.5742 352.6172,197.207 Q353.3789,195.8398 354.6875,195.1172 Q356.0156,194.375 357.5,194.375 Q358.3984,194.375 359.1797,194.6875 Q359.9609,195 360.625,195.625 Z "/><text fill="#000000" font-family="sans-serif" font-size="15" lengthAdjust="spacingAndGlyphs" textLength="65" x="375.625" y="206.1377">Mechanic</text><line style="stroke: #A80036; stroke-width: 1.875;" x1="340.625" x2="443.125" y1="220" y2="220"/><line style="stroke: #A80036; stroke-width: 1.875;" x1="340.625" x2="443.125" y1="230" y2="230"/><!--MD5=[c165718656364e8a2441ae1f83ea1dcf]
class SignInView--><rect fill="#FEFECE" filter="url(#fq1yfqne01irp)" height="60" id="SignInView" style="stroke: #A80036; stroke-width: 1.875;" width="116.25" x="488.75" y="180"/><ellipse cx="507.5" cy="200" fill="#ADD1B2" rx="13.75" ry="13.75" style="stroke: #A80036; stroke-width: 1.25;"/><path d="M510,195.625 Q510.2539,195 510.5469,194.6875 Q510.8398,194.375 511.1719,194.375 Q511.7578,194.375 512.1289,194.7266 Q512.5,195.0781 512.5,195.8984 L512.5,197.8516 Q512.5,198.6719 512.1484,199.0234 Q511.7969,199.375 511.25,199.375 Q510.7617,199.375 510.4492,199.1602 Q510.1367,198.9453 510,198.3789 Q509.9414,197.9883 509.7266,197.7734 Q509.3359,197.3633 508.6328,197.1289 Q507.9297,196.875 507.2266,196.875 Q506.3477,196.875 505.6055,197.2266 Q504.8828,197.5781 504.3164,198.3594 Q503.75,199.1406 503.75,200.2148 L503.75,201.3672 Q503.75,202.6563 504.8047,203.5156 Q505.8594,204.375 507.7344,204.375 Q508.8477,204.375 509.6289,204.1211 Q510.0781,203.9844 510.5859,203.5352 Q510.918,203.2813 511.0938,203.2031 Q511.2695,203.125 511.4844,203.125 Q511.8945,203.125 512.1875,203.457 Q512.5,203.7695 512.5,204.2188 Q512.5,204.6484 512.0703,205.1563 Q511.4453,205.8984 510.4492,206.3086 Q509.1406,206.875 507.5391,206.875 Q505.6641,206.875 504.1602,206.1328 Q502.9492,205.5469 502.0898,204.2773 Q501.25,203.0078 501.25,201.5039 L501.25,200.1367 Q501.25,198.5742 501.9922,197.207 Q502.7539,195.8398 504.0625,195.1172 Q505.3906,194.375 506.875,194.375 Q507.7734,194.375 508.5547,194.6875 Q509.3359,195 510,195.625 Z "/><text fill="#000000" font-family="sans-serif" font-size="15" lengthAdjust="spacingAndGlyphs" textLength="76.25" x="525" y="206.1377">SignInView</text><line style="stroke: #A80036; stroke-width: 1.875;" x1="490" x2="603.75" y1="220" y2="220"/><line style="stroke: #A80036; stroke-width: 1.875;" x1="490" x2="603.75" y1="230" y2="230"/><!--MD5=[acfd4a11b7ab481a843f8f3c2570b65c]
class OpenDashboard--><rect fill="#FEFECE" filter="url(#fq1yfqne01irp)" height="60" id="OpenDashboard" style="stroke: #A80036; stroke-width: 1.875;" width="155" x="649.375" y="180"/><ellipse cx="668.125" cy="200" fill="#ADD1B2" rx="13.75" ry="13.75" style="stroke: #A80036; stroke-width: 1.25;"/><path d="M670.625,195.625 Q670.8789,195 671.1719,194.6875 Q671.4648,194.375 671.7969,194.375 Q672.3828,194.375 672.7539,194.7266 Q673.125,195.0781 673.125,195.8984 L673.125,197.8516 Q673.125,198.6719 672.7734,199.0234 Q672.4219,199.375 671.875,199.375 Q671.3867,199.375 671.0742,199.1602 Q670.7617,198.9453 670.625,198.3789 Q670.5664,197.9883 670.3516,197.7734 Q669.9609,197.3633 669.2578,197.1289 Q668.5547,196.875 667.8516,196.875 Q666.9727,196.875 666.2305,197.2266 Q665.5078,197.5781 664.9414,198.3594 Q664.375,199.1406 664.375,200.2148 L664.375,201.3672 Q664.375,202.6563 665.4297,203.5156 Q666.4844,204.375 668.3594,204.375 Q669.4727,204.375 670.2539,204.1211 Q670.7031,203.9844 671.2109,203.5352 Q671.543,203.2813 671.7188,203.2031 Q671.8945,203.125 672.1094,203.125 Q672.5195,203.125 672.8125,203.457 Q673.125,203.7695 673.125,204.2188 Q673.125,204.6484 672.6953,205.1563 Q672.0703,205.8984 671.0742,206.3086 Q669.7656,206.875 668.1641,206.875 Q666.2891,206.875 664.7852,206.1328 Q663.5742,205.5469 662.7148,204.2773 Q661.875,203.0078 661.875,201.5039 L661.875,200.1367 Q661.875,198.5742 662.6172,197.207 Q663.3789,195.8398 664.6875,195.1172 Q666.0156,194.375 667.5,194.375 Q668.3984,194.375 669.1797,194.6875 Q669.9609,195 670.625,195.625 Z "/><text fill="#000000" font-family="sans-serif" font-size="15" lengthAdjust="spacingAndGlyphs" textLength="115" x="685.625" y="206.1377">OpenDashboard</text><line style="stroke: #A80036; stroke-width: 1.875;" x1="650.625" x2="803.125" y1="220" y2="220"/><line style="stroke: #A80036; stroke-width: 1.875;" x1="650.625" x2="803.125" y1="230" y2="230"/><!--MD5=[00612bbf082436bfb3978d0560ce9303]
link LoginView to LoginController--><path d="M295.525,105.1838 C246.9987,128.5696 189.4338,156.3121 146.1013,177.1954 " fill="none" id="LoginView-&gt;LoginController" style="stroke: #A80036; stroke-width: 1.25;"/><polygon fill="#A80036" points="140.3525,179.9658,152.6577,179.5843,145.9824,177.2517,148.3151,170.5764,140.3525,179.9658" style="stroke: #A80036; stroke-width: 1.25;"/><!--MD5=[1388d103e7d0072ce5f15ff6e719b690]
link LoginView to Session--><path d="M346.7913,105.3888 C324.995,127.9359 299.3225,154.4936 279.4588,175.0428 " fill="none" id="LoginView-&gt;Session" style="stroke: #A80036; stroke-width: 1.25; stroke-dasharray: 7.0,7.0;"/><polygon fill="#A80036" points="275.055,179.5978,286.4685,174.9831,279.3984,175.1036,279.2779,168.0336,275.055,179.5978" style="stroke: #A80036; stroke-width: 1.25;"/><text fill="#000000" font-family="sans-serif" font-size="16.25" lengthAdjust="spacingAndGlyphs" textLength="8.75" x="272.1075" y="166.6722">1</text><!--MD5=[1cb41e0826c52d284a6bf7ccafa1711c]
link LoginView to Mechanic--><path d="M391.875,105.3888 C391.875,127.178 391.875,152.7128 391.875,172.9506 " fill="none" id="LoginView-&gt;Mechanic" style="stroke: #A80036; stroke-width: 1.25;"/><polygon fill="#A80036" points="391.875,179.5978,396.875,168.3478,391.875,173.3478,386.875,168.3478,391.875,179.5978" style="stroke: #A80036; stroke-width: 1.25;"/><text fill="#000000" font-family="sans-serif" font-size="16.25" lengthAdjust="spacingAndGlyphs" textLength="8.75" x="382.0586" y="166.6722">1</text><!--MD5=[9b66fb5479e96f05da90ee9901b26f34]
link LoginView to SignInView--><path d="M440.0688,105.3888 C463.3675,127.9359 490.81,154.4936 512.0438,175.0428 " fill="none" id="LoginView-&gt;SignInView" style="stroke: #A80036; stroke-width: 1.25;"/><polygon fill="#A80036" points="516.7513,179.5978,512.1442,168.1812,512.26,175.2513,505.1899,175.3672,516.7513,179.5978" style="stroke: #A80036; stroke-width: 1.25;"/><!--MD5=[db5de6258108b1126a16735e692faa3a]
link LoginView to OpenDashboard--><path d="M491.9325,103.5513 C544.9188,127.2771 608.715,155.8425 656.4488,177.2161 " fill="none" id="LoginView-&gt;OpenDashboard" style="stroke: #A80036; stroke-width: 1.25;"/><polygon fill="#A80036" points="662.1888,179.7861,653.9636,170.6259,656.4843,177.2325,649.8777,179.7531,662.1888,179.7861" style="stroke: #A80036; stroke-width: 1.25;"/><!--MD5=[916097355a59e70c9fa03b8dae70c288]
@startuml
	class LoginView {
	+signin()
	+login(username, password)
	}

	LoginView - -> LoginController
	LoginView ..> "1" Session
	LoginView - -> "1" Mechanic
	LoginView - -> SignInView
	LoginView - -> OpenDashboard
@enduml

PlantUML version 1.2020.09(Sun May 10 12:51:06 CEST 2020)
(GPL source distribution)
Java Runtime: OpenJDK Runtime Environment
JVM: OpenJDK 64-Bit Server VM
Java Version: 11.0.8+10-b1094.1
Operating System: Windows 10
Default Encoding: Cp1252
Language: en
Country: GB
--></g></svg>