<?xml version="1.0" encoding="UTF-8" standalone="no"?><svg xmlns="http://www.w3.org/2000/svg" xmlns:xlink="http://www.w3.org/1999/xlink" contentScriptType="application/ecmascript" contentStyleType="text/css" height="357.5px" preserveAspectRatio="none" style="width:1150px;height:357px;" version="1.1" viewBox="0 0 1150 357" width="1150px" zoomAndPan="magnify"><defs><filter height="300%" id="fif1ic6p89yga" width="300%" x="-1" y="-1"><feGaussianBlur result="blurOut" stdDeviation="2.5"/><feColorMatrix in="blurOut" result="blurOut2" type="matrix" values="0 0 0 0 0 0 0 0 0 0 0 0 0 0 0 0 0 0 .4 0"/><feOffset dx="5.0" dy="5.0" in="blurOut2" result="blurOut3"/><feBlend in="SourceGraphic" in2="blurOut3" mode="normal"/></filter></defs><g><!--MD5=[f6bfa8e6ad2e37edcd578b647fafadda]
class MenuView--><rect fill="#FEFECE" filter="url(#fif1ic6p89yga)" height="198.3594" id="MenuView" style="stroke: #A80036; stroke-width: 1.875;" width="167.5" x="501.875" y="10"/><ellipse cx="546.5" cy="30" fill="#ADD1B2" rx="13.75" ry="13.75" style="stroke: #A80036; stroke-width: 1.25;"/><path d="M549,25.625 Q549.2539,25 549.5469,24.6875 Q549.8398,24.375 550.1719,24.375 Q550.7578,24.375 551.1289,24.7266 Q551.5,25.0781 551.5,25.8984 L551.5,27.8516 Q551.5,28.6719 551.1484,29.0234 Q550.7969,29.375 550.25,29.375 Q549.7617,29.375 549.4492,29.1602 Q549.1367,28.9453 549,28.3789 Q548.9414,27.9883 548.7266,27.7734 Q548.3359,27.3633 547.6328,27.1289 Q546.9297,26.875 546.2266,26.875 Q545.3477,26.875 544.6055,27.2266 Q543.8828,27.5781 543.3164,28.3594 Q542.75,29.1406 542.75,30.2148 L542.75,31.3672 Q542.75,32.6563 543.8047,33.5156 Q544.8594,34.375 546.7344,34.375 Q547.8477,34.375 548.6289,34.1211 Q549.0781,33.9844 549.5859,33.5352 Q549.918,33.2813 550.0938,33.2031 Q550.2695,33.125 550.4844,33.125 Q550.8945,33.125 551.1875,33.457 Q551.5,33.7695 551.5,34.2188 Q551.5,34.6484 551.0703,35.1563 Q550.4453,35.8984 549.4492,36.3086 Q548.1406,36.875 546.5391,36.875 Q544.6641,36.875 543.1602,36.1328 Q541.9492,35.5469 541.0898,34.2773 Q540.25,33.0078 540.25,31.5039 L540.25,30.1367 Q540.25,28.5742 540.9922,27.207 Q541.7539,25.8398 543.0625,25.1172 Q544.3906,24.375 545.875,24.375 Q546.7734,24.375 547.5547,24.6875 Q548.3359,25 549,25.625 Z "/><text fill="#000000" font-family="sans-serif" font-size="15" lengthAdjust="spacingAndGlyphs" textLength="70" x="569.75" y="36.1377">MenuView</text><line style="stroke: #A80036; stroke-width: 1.875;" x1="503.125" x2="668.125" y1="50" y2="50"/><line style="stroke: #A80036; stroke-width: 1.875;" x1="503.125" x2="668.125" y1="60" y2="60"/><ellipse cx="515.625" cy="73.75" fill="#84BE84" rx="3.75" ry="3.75" style="stroke: #038048; stroke-width: 1.25;"/><text fill="#000000" font-family="sans-serif" font-size="13.75" lengthAdjust="spacingAndGlyphs" textLength="135" x="526.875" y="79.2737">openMyInterventions()</text><ellipse cx="515.625" cy="91.0449" fill="#84BE84" rx="3.75" ry="3.75" style="stroke: #038048; stroke-width: 1.25;"/><text fill="#000000" font-family="sans-serif" font-size="13.75" lengthAdjust="spacingAndGlyphs" textLength="46.25" x="526.875" y="96.5686">logout()</text><ellipse cx="515.625" cy="108.3398" fill="#84BE84" rx="3.75" ry="3.75" style="stroke: #038048; stroke-width: 1.25;"/><text fill="#000000" font-family="sans-serif" font-size="13.75" lengthAdjust="spacingAndGlyphs" textLength="118.75" x="526.875" y="113.8635">createIntervention()</text><ellipse cx="515.625" cy="125.6348" fill="#84BE84" rx="3.75" ry="3.75" style="stroke: #038048; stroke-width: 1.25;"/><text fill="#000000" font-family="sans-serif" font-size="13.75" lengthAdjust="spacingAndGlyphs" textLength="106.25" x="526.875" y="131.1584">openOperations()</text><ellipse cx="515.625" cy="142.9297" fill="#84BE84" rx="3.75" ry="3.75" style="stroke: #038048; stroke-width: 1.25;"/><text fill="#000000" font-family="sans-serif" font-size="13.75" lengthAdjust="spacingAndGlyphs" textLength="117.5" x="526.875" y="148.4534">openInterventions()</text><ellipse cx="515.625" cy="160.2246" fill="#84BE84" rx="3.75" ry="3.75" style="stroke: #038048; stroke-width: 1.25;"/><text fill="#000000" font-family="sans-serif" font-size="13.75" lengthAdjust="spacingAndGlyphs" textLength="80" x="526.875" y="165.7483">openClients()</text><ellipse cx="515.625" cy="177.5195" fill="#84BE84" rx="3.75" ry="3.75" style="stroke: #038048; stroke-width: 1.25;"/><text fill="#000000" font-family="sans-serif" font-size="13.75" lengthAdjust="spacingAndGlyphs" textLength="106.25" x="526.875" y="183.0432">openDashboard()</text><ellipse cx="515.625" cy="194.8145" fill="#84BE84" rx="3.75" ry="3.75" style="stroke: #038048; stroke-width: 1.25;"/><text fill="#000000" font-family="sans-serif" font-size="13.75" lengthAdjust="spacingAndGlyphs" textLength="92.5" x="526.875" y="200.3381">openVehicles()</text><!--MD5=[5d2bdef844ee30e945474426b37189d0]
class VehiclesView--><rect fill="#FEFECE" filter="url(#fif1ic6p89yga)" height="60" id="VehiclesView" style="stroke: #A80036; stroke-width: 1.875;" width="131.25" x="7.5" y="283.75"/><ellipse cx="26.25" cy="303.75" fill="#ADD1B2" rx="13.75" ry="13.75" style="stroke: #A80036; stroke-width: 1.25;"/><path d="M28.75,299.375 Q29.0039,298.75 29.2969,298.4375 Q29.5898,298.125 29.9219,298.125 Q30.5078,298.125 30.8789,298.4766 Q31.25,298.8281 31.25,299.6484 L31.25,301.6016 Q31.25,302.4219 30.8984,302.7734 Q30.5469,303.125 30,303.125 Q29.5117,303.125 29.1992,302.9102 Q28.8867,302.6953 28.75,302.1289 Q28.6914,301.7383 28.4766,301.5234 Q28.0859,301.1133 27.3828,300.8789 Q26.6797,300.625 25.9766,300.625 Q25.0977,300.625 24.3555,300.9766 Q23.6328,301.3281 23.0664,302.1094 Q22.5,302.8906 22.5,303.9648 L22.5,305.1172 Q22.5,306.4063 23.5547,307.2656 Q24.6094,308.125 26.4844,308.125 Q27.5977,308.125 28.3789,307.8711 Q28.8281,307.7344 29.3359,307.2852 Q29.668,307.0313 29.8438,306.9531 Q30.0195,306.875 30.2344,306.875 Q30.6445,306.875 30.9375,307.207 Q31.25,307.5195 31.25,307.9688 Q31.25,308.3984 30.8203,308.9063 Q30.1953,309.6484 29.1992,310.0586 Q27.8906,310.625 26.2891,310.625 Q24.4141,310.625 22.9102,309.8828 Q21.6992,309.2969 20.8398,308.0273 Q20,306.7578 20,305.2539 L20,303.8867 Q20,302.3242 20.7422,300.957 Q21.5039,299.5898 22.8125,298.8672 Q24.1406,298.125 25.625,298.125 Q26.5234,298.125 27.3047,298.4375 Q28.0859,298.75 28.75,299.375 Z "/><text fill="#000000" font-family="sans-serif" font-size="15" lengthAdjust="spacingAndGlyphs" textLength="91.25" x="43.75" y="309.8877">VehiclesView</text><line style="stroke: #A80036; stroke-width: 1.875;" x1="8.75" x2="137.5" y1="323.75" y2="323.75"/><line style="stroke: #A80036; stroke-width: 1.875;" x1="8.75" x2="137.5" y1="333.75" y2="333.75"/><!--MD5=[2ca1536628238a7dc78c5d90808014f9]
class Session--><rect fill="#FEFECE" filter="url(#fif1ic6p89yga)" height="60" id="Session" style="stroke: #A80036; stroke-width: 1.875;" width="97.5" x="713.125" y="79.375"/><ellipse cx="731.875" cy="99.375" fill="#ADD1B2" rx="13.75" ry="13.75" style="stroke: #A80036; stroke-width: 1.25;"/><path d="M734.375,95 Q734.6289,94.375 734.9219,94.0625 Q735.2148,93.75 735.5469,93.75 Q736.1328,93.75 736.5039,94.1016 Q736.875,94.4531 736.875,95.2734 L736.875,97.2266 Q736.875,98.0469 736.5234,98.3984 Q736.1719,98.75 735.625,98.75 Q735.1367,98.75 734.8242,98.5352 Q734.5117,98.3203 734.375,97.7539 Q734.3164,97.3633 734.1016,97.1484 Q733.7109,96.7383 733.0078,96.5039 Q732.3047,96.25 731.6016,96.25 Q730.7227,96.25 729.9805,96.6016 Q729.2578,96.9531 728.6914,97.7344 Q728.125,98.5156 728.125,99.5898 L728.125,100.7422 Q728.125,102.0313 729.1797,102.8906 Q730.2344,103.75 732.1094,103.75 Q733.2227,103.75 734.0039,103.4961 Q734.4531,103.3594 734.9609,102.9102 Q735.293,102.6563 735.4688,102.5781 Q735.6445,102.5 735.8594,102.5 Q736.2695,102.5 736.5625,102.832 Q736.875,103.1445 736.875,103.5938 Q736.875,104.0234 736.4453,104.5313 Q735.8203,105.2734 734.8242,105.6836 Q733.5156,106.25 731.9141,106.25 Q730.0391,106.25 728.5352,105.5078 Q727.3242,104.9219 726.4648,103.6523 Q725.625,102.3828 725.625,100.8789 L725.625,99.5117 Q725.625,97.9492 726.3672,96.582 Q727.1289,95.2148 728.4375,94.4922 Q729.7656,93.75 731.25,93.75 Q732.1484,93.75 732.9297,94.0625 Q733.7109,94.375 734.375,95 Z "/><text fill="#000000" font-family="sans-serif" font-size="15" lengthAdjust="spacingAndGlyphs" textLength="57.5" x="749.375" y="105.5127">Session</text><line style="stroke: #A80036; stroke-width: 1.875;" x1="714.375" x2="809.375" y1="119.375" y2="119.375"/><line style="stroke: #A80036; stroke-width: 1.875;" x1="714.375" x2="809.375" y1="129.375" y2="129.375"/><!--MD5=[b3dbcbbebe7cd62111d3eff112e075fa]
class OperationsView--><rect fill="#FEFECE" filter="url(#fif1ic6p89yga)" height="60" id="OperationsView" style="stroke: #A80036; stroke-width: 1.875;" width="148.75" x="182.5" y="283.75"/><ellipse cx="201.25" cy="303.75" fill="#ADD1B2" rx="13.75" ry="13.75" style="stroke: #A80036; stroke-width: 1.25;"/><path d="M203.75,299.375 Q204.0039,298.75 204.2969,298.4375 Q204.5898,298.125 204.9219,298.125 Q205.5078,298.125 205.8789,298.4766 Q206.25,298.8281 206.25,299.6484 L206.25,301.6016 Q206.25,302.4219 205.8984,302.7734 Q205.5469,303.125 205,303.125 Q204.5117,303.125 204.1992,302.9102 Q203.8867,302.6953 203.75,302.1289 Q203.6914,301.7383 203.4766,301.5234 Q203.0859,301.1133 202.3828,300.8789 Q201.6797,300.625 200.9766,300.625 Q200.0977,300.625 199.3555,300.9766 Q198.6328,301.3281 198.0664,302.1094 Q197.5,302.8906 197.5,303.9648 L197.5,305.1172 Q197.5,306.4063 198.5547,307.2656 Q199.6094,308.125 201.4844,308.125 Q202.5977,308.125 203.3789,307.8711 Q203.8281,307.7344 204.3359,307.2852 Q204.668,307.0313 204.8438,306.9531 Q205.0195,306.875 205.2344,306.875 Q205.6445,306.875 205.9375,307.207 Q206.25,307.5195 206.25,307.9688 Q206.25,308.3984 205.8203,308.9063 Q205.1953,309.6484 204.1992,310.0586 Q202.8906,310.625 201.2891,310.625 Q199.4141,310.625 197.9102,309.8828 Q196.6992,309.2969 195.8398,308.0273 Q195,306.7578 195,305.2539 L195,303.8867 Q195,302.3242 195.7422,300.957 Q196.5039,299.5898 197.8125,298.8672 Q199.1406,298.125 200.625,298.125 Q201.5234,298.125 202.3047,298.4375 Q203.0859,298.75 203.75,299.375 Z "/><text fill="#000000" font-family="sans-serif" font-size="15" lengthAdjust="spacingAndGlyphs" textLength="108.75" x="218.75" y="309.8877">OperationsView</text><line style="stroke: #A80036; stroke-width: 1.875;" x1="183.75" x2="330" y1="323.75" y2="323.75"/><line style="stroke: #A80036; stroke-width: 1.875;" x1="183.75" x2="330" y1="333.75" y2="333.75"/><!--MD5=[62a12d2efef6aa64fe8c97bdb0c8af55]
class CreateInterventionView--><rect fill="#FEFECE" filter="url(#fif1ic6p89yga)" height="60" id="CreateInterventionView" style="stroke: #A80036; stroke-width: 1.875;" width="197.5" x="375.625" y="283.75"/><ellipse cx="394.375" cy="303.75" fill="#ADD1B2" rx="13.75" ry="13.75" style="stroke: #A80036; stroke-width: 1.25;"/><path d="M396.875,299.375 Q397.1289,298.75 397.4219,298.4375 Q397.7148,298.125 398.0469,298.125 Q398.6328,298.125 399.0039,298.4766 Q399.375,298.8281 399.375,299.6484 L399.375,301.6016 Q399.375,302.4219 399.0234,302.7734 Q398.6719,303.125 398.125,303.125 Q397.6367,303.125 397.3242,302.9102 Q397.0117,302.6953 396.875,302.1289 Q396.8164,301.7383 396.6016,301.5234 Q396.2109,301.1133 395.5078,300.8789 Q394.8047,300.625 394.1016,300.625 Q393.2227,300.625 392.4805,300.9766 Q391.7578,301.3281 391.1914,302.1094 Q390.625,302.8906 390.625,303.9648 L390.625,305.1172 Q390.625,306.4063 391.6797,307.2656 Q392.7344,308.125 394.6094,308.125 Q395.7227,308.125 396.5039,307.8711 Q396.9531,307.7344 397.4609,307.2852 Q397.793,307.0313 397.9688,306.9531 Q398.1445,306.875 398.3594,306.875 Q398.7695,306.875 399.0625,307.207 Q399.375,307.5195 399.375,307.9688 Q399.375,308.3984 398.9453,308.9063 Q398.3203,309.6484 397.3242,310.0586 Q396.0156,310.625 394.4141,310.625 Q392.5391,310.625 391.0352,309.8828 Q389.8242,309.2969 388.9648,308.0273 Q388.125,306.7578 388.125,305.2539 L388.125,303.8867 Q388.125,302.3242 388.8672,300.957 Q389.6289,299.5898 390.9375,298.8672 Q392.2656,298.125 393.75,298.125 Q394.6484,298.125 395.4297,298.4375 Q396.2109,298.75 396.875,299.375 Z "/><text fill="#000000" font-family="sans-serif" font-size="15" lengthAdjust="spacingAndGlyphs" textLength="157.5" x="411.875" y="309.8877">CreateInterventionView</text><line style="stroke: #A80036; stroke-width: 1.875;" x1="376.875" x2="571.875" y1="323.75" y2="323.75"/><line style="stroke: #A80036; stroke-width: 1.875;" x1="376.875" x2="571.875" y1="333.75" y2="333.75"/><!--MD5=[6d3946f4576b3d1380341ff87dc4fff4]
class InterventionsView--><rect fill="#FEFECE" filter="url(#fif1ic6p89yga)" height="60" id="InterventionsView" style="stroke: #A80036; stroke-width: 1.875;" width="160" x="616.875" y="283.75"/><ellipse cx="635.625" cy="303.75" fill="#ADD1B2" rx="13.75" ry="13.75" style="stroke: #A80036; stroke-width: 1.25;"/><path d="M638.125,299.375 Q638.3789,298.75 638.6719,298.4375 Q638.9648,298.125 639.2969,298.125 Q639.8828,298.125 640.2539,298.4766 Q640.625,298.8281 640.625,299.6484 L640.625,301.6016 Q640.625,302.4219 640.2734,302.7734 Q639.9219,303.125 639.375,303.125 Q638.8867,303.125 638.5742,302.9102 Q638.2617,302.6953 638.125,302.1289 Q638.0664,301.7383 637.8516,301.5234 Q637.4609,301.1133 636.7578,300.8789 Q636.0547,300.625 635.3516,300.625 Q634.4727,300.625 633.7305,300.9766 Q633.0078,301.3281 632.4414,302.1094 Q631.875,302.8906 631.875,303.9648 L631.875,305.1172 Q631.875,306.4063 632.9297,307.2656 Q633.9844,308.125 635.8594,308.125 Q636.9727,308.125 637.7539,307.8711 Q638.2031,307.7344 638.7109,307.2852 Q639.043,307.0313 639.2188,306.9531 Q639.3945,306.875 639.6094,306.875 Q640.0195,306.875 640.3125,307.207 Q640.625,307.5195 640.625,307.9688 Q640.625,308.3984 640.1953,308.9063 Q639.5703,309.6484 638.5742,310.0586 Q637.2656,310.625 635.6641,310.625 Q633.7891,310.625 632.2852,309.8828 Q631.0742,309.2969 630.2148,308.0273 Q629.375,306.7578 629.375,305.2539 L629.375,303.8867 Q629.375,302.3242 630.1172,300.957 Q630.8789,299.5898 632.1875,298.8672 Q633.5156,298.125 635,298.125 Q635.8984,298.125 636.6797,298.4375 Q637.4609,298.75 638.125,299.375 Z "/><text fill="#000000" font-family="sans-serif" font-size="15" lengthAdjust="spacingAndGlyphs" textLength="120" x="653.125" y="309.8877">InterventionsView</text><line style="stroke: #A80036; stroke-width: 1.875;" x1="618.125" x2="775.625" y1="323.75" y2="323.75"/><line style="stroke: #A80036; stroke-width: 1.875;" x1="618.125" x2="775.625" y1="333.75" y2="333.75"/><!--MD5=[b062a93b9911b68ecc396197f878ab01]
class ClientsView--><rect fill="#FEFECE" filter="url(#fif1ic6p89yga)" height="60" id="ClientsView" style="stroke: #A80036; stroke-width: 1.875;" width="121.25" x="821.25" y="283.75"/><ellipse cx="840" cy="303.75" fill="#ADD1B2" rx="13.75" ry="13.75" style="stroke: #A80036; stroke-width: 1.25;"/><path d="M842.5,299.375 Q842.7539,298.75 843.0469,298.4375 Q843.3398,298.125 843.6719,298.125 Q844.2578,298.125 844.6289,298.4766 Q845,298.8281 845,299.6484 L845,301.6016 Q845,302.4219 844.6484,302.7734 Q844.2969,303.125 843.75,303.125 Q843.2617,303.125 842.9492,302.9102 Q842.6367,302.6953 842.5,302.1289 Q842.4414,301.7383 842.2266,301.5234 Q841.8359,301.1133 841.1328,300.8789 Q840.4297,300.625 839.7266,300.625 Q838.8477,300.625 838.1055,300.9766 Q837.3828,301.3281 836.8164,302.1094 Q836.25,302.8906 836.25,303.9648 L836.25,305.1172 Q836.25,306.4063 837.3047,307.2656 Q838.3594,308.125 840.2344,308.125 Q841.3477,308.125 842.1289,307.8711 Q842.5781,307.7344 843.0859,307.2852 Q843.418,307.0313 843.5938,306.9531 Q843.7695,306.875 843.9844,306.875 Q844.3945,306.875 844.6875,307.207 Q845,307.5195 845,307.9688 Q845,308.3984 844.5703,308.9063 Q843.9453,309.6484 842.9492,310.0586 Q841.6406,310.625 840.0391,310.625 Q838.1641,310.625 836.6602,309.8828 Q835.4492,309.2969 834.5898,308.0273 Q833.75,306.7578 833.75,305.2539 L833.75,303.8867 Q833.75,302.3242 834.4922,300.957 Q835.2539,299.5898 836.5625,298.8672 Q837.8906,298.125 839.375,298.125 Q840.2734,298.125 841.0547,298.4375 Q841.8359,298.75 842.5,299.375 Z "/><text fill="#000000" font-family="sans-serif" font-size="15" lengthAdjust="spacingAndGlyphs" textLength="81.25" x="857.5" y="309.8877">ClientsView</text><line style="stroke: #A80036; stroke-width: 1.875;" x1="822.5" x2="941.25" y1="323.75" y2="323.75"/><line style="stroke: #A80036; stroke-width: 1.875;" x1="822.5" x2="941.25" y1="333.75" y2="333.75"/><!--MD5=[bdd4672b4bae795639395c14a0d6d497]
class DashboardView--><rect fill="#FEFECE" filter="url(#fif1ic6p89yga)" height="60" id="DashboardView" style="stroke: #A80036; stroke-width: 1.875;" width="150" x="986.875" y="283.75"/><ellipse cx="1005.625" cy="303.75" fill="#ADD1B2" rx="13.75" ry="13.75" style="stroke: #A80036; stroke-width: 1.25;"/><path d="M1008.125,299.375 Q1008.3789,298.75 1008.6719,298.4375 Q1008.9648,298.125 1009.2969,298.125 Q1009.8828,298.125 1010.2539,298.4766 Q1010.625,298.8281 1010.625,299.6484 L1010.625,301.6016 Q1010.625,302.4219 1010.2734,302.7734 Q1009.9219,303.125 1009.375,303.125 Q1008.8867,303.125 1008.5742,302.9102 Q1008.2617,302.6953 1008.125,302.1289 Q1008.0664,301.7383 1007.8516,301.5234 Q1007.4609,301.1133 1006.7578,300.8789 Q1006.0547,300.625 1005.3516,300.625 Q1004.4727,300.625 1003.7305,300.9766 Q1003.0078,301.3281 1002.4414,302.1094 Q1001.875,302.8906 1001.875,303.9648 L1001.875,305.1172 Q1001.875,306.4063 1002.9297,307.2656 Q1003.9844,308.125 1005.8594,308.125 Q1006.9727,308.125 1007.7539,307.8711 Q1008.2031,307.7344 1008.7109,307.2852 Q1009.043,307.0313 1009.2188,306.9531 Q1009.3945,306.875 1009.6094,306.875 Q1010.0195,306.875 1010.3125,307.207 Q1010.625,307.5195 1010.625,307.9688 Q1010.625,308.3984 1010.1953,308.9063 Q1009.5703,309.6484 1008.5742,310.0586 Q1007.2656,310.625 1005.6641,310.625 Q1003.7891,310.625 1002.2852,309.8828 Q1001.0742,309.2969 1000.2148,308.0273 Q999.375,306.7578 999.375,305.2539 L999.375,303.8867 Q999.375,302.3242 1000.1172,300.957 Q1000.8789,299.5898 1002.1875,298.8672 Q1003.5156,298.125 1005,298.125 Q1005.8984,298.125 1006.6797,298.4375 Q1007.4609,298.75 1008.125,299.375 Z "/><text fill="#000000" font-family="sans-serif" font-size="15" lengthAdjust="spacingAndGlyphs" textLength="110" x="1023.125" y="309.8877">DashboardView</text><line style="stroke: #A80036; stroke-width: 1.875;" x1="988.125" x2="1135.625" y1="323.75" y2="323.75"/><line style="stroke: #A80036; stroke-width: 1.875;" x1="988.125" x2="1135.625" y1="333.75" y2="333.75"/><!--MD5=[d5ee3621bc80cdf19279bea982f0a7b0]
link MenuView to VehiclesView--><path d="M501.57,143.735 C402.23,182.865 238.63,247.307 144.955,284.2061 " fill="none" id="MenuView-&gt;VehiclesView" style="stroke: #A80036; stroke-width: 1.25;"/><polygon fill="#A80036" points="138.8863,286.5963,151.186,287.1244,144.7012,284.3053,147.5204,277.8205,138.8863,286.5963" style="stroke: #A80036; stroke-width: 1.25;"/><!--MD5=[8dc298174baca4f6cb2cd84821bf835a]
link MenuView to Session--><path d="M669.6188,109.375 C681.895,109.375 694.17,109.375 706.445,109.375 " fill="none" id="MenuView-&gt;Session" style="stroke: #A80036; stroke-width: 1.25;"/><polygon fill="#A80036" points="712.8638,109.375,701.6138,104.375,706.6138,109.375,701.6138,114.375,712.8638,109.375" style="stroke: #A80036; stroke-width: 1.25;"/><!--MD5=[ffd25ecd16cc964c257ad3573640de44]
link MenuView to OperationsView--><path d="M501.8175,162.0888 C441.2463,199.2838 361.285,248.3851 309.4738,280.2006 " fill="none" id="MenuView-&gt;OperationsView" style="stroke: #A80036; stroke-width: 1.25;"/><polygon fill="#A80036" points="303.925,283.6081,316.128,281.9806,309.2506,280.337,310.8942,273.4596,303.925,283.6081" style="stroke: #A80036; stroke-width: 1.25;"/><!--MD5=[29e76145d2dc29153836a68535a78c31]
link MenuView to CreateInterventionView--><path d="M531.3038,209.1975 C517.7075,233.8685 504.0075,258.7286 493.455,277.8771 " fill="none" id="MenuView-&gt;CreateInterventionView" style="stroke: #A80036; stroke-width: 1.25;"/><polygon fill="#A80036" points="490.285,283.6299,500.0933,276.1894,493.3011,278.1558,491.3347,271.3636,490.285,283.6299" style="stroke: #A80036; stroke-width: 1.25;"/><!--MD5=[4336de9b67a098d4ba2746591b9d96e9]
link MenuView to InterventionsView--><path d="M639.9463,209.1975 C653.5425,233.8685 667.2425,258.7286 677.795,277.8771 " fill="none" id="MenuView-&gt;InterventionsView" style="stroke: #A80036; stroke-width: 1.25;"/><polygon fill="#A80036" points="680.965,283.6299,679.9153,271.3636,677.9489,278.1558,671.1567,276.1894,680.965,283.6299" style="stroke: #A80036; stroke-width: 1.25;"/><!--MD5=[c71599cac86e869311397ed9484ffd64]
link MenuView to ClientsView--><path d="M669.895,191.7938 C677.1538,197.7475 684.5325,203.4775 691.875,208.75 C730.5613,236.5284 777.5025,262.2276 815.0487,281.0996 " fill="none" id="MenuView-&gt;ClientsView" style="stroke: #A80036; stroke-width: 1.25;"/><polygon fill="#A80036" points="820.99,284.0691,813.1604,274.5686,815.3988,281.276,808.6914,283.5145,820.99,284.0691" style="stroke: #A80036; stroke-width: 1.25;"/><!--MD5=[62da2036794d0ff2dad111de6289f721]
link MenuView to DashboardView--><path d="M669.5988,194.435 C676.8413,199.6875 684.3025,204.5425 691.875,208.75 C801.68,269.7564 843.5713,249.318 964.375,283.75 C969.7338,285.2775 975.255,286.8658 980.8163,288.4763 " fill="none" id="MenuView-&gt;DashboardView" style="stroke: #A80036; stroke-width: 1.25;"/><polygon fill="#A80036" points="986.86,290.2309,977.4505,282.2921,980.8579,288.488,974.662,291.8954,986.86,290.2309" style="stroke: #A80036; stroke-width: 1.25;"/><!--MD5=[aed4b5d2e168fd9e24e11455fc4c2e52]
@startuml
	class MenuView {
	+openMyInterventions()
	+logout()
	+createIntervention()
	+openOperations()
	+openInterventions()
	+openClients()
	+openDashboard()
	+openVehicles()
	}

	MenuView - -> VehiclesView
	MenuView -> Session
	MenuView - -> OperationsView
	MenuView - -> CreateInterventionView
	MenuView - -> InterventionsView
	MenuView - -> ClientsView
	MenuView - -> DashboardView
@enduml

PlantUML version 1.2020.09(Sun May 10 12:51:06 CEST 2020)
(GPL source distribution)
Java Runtime: OpenJDK Runtime Environment
JVM: OpenJDK 64-Bit Server VM
Java Version: 11.0.8+10-b1094.1
Operating System: Windows 10
Default Encoding: Cp1252
Language: en
Country: GB
--></g></svg>