<?xml version="1.0" encoding="UTF-8" standalone="no"?><svg xmlns="http://www.w3.org/2000/svg" xmlns:xlink="http://www.w3.org/1999/xlink" contentScriptType="application/ecmascript" contentStyleType="text/css" height="406.25px" preserveAspectRatio="none" style="width:661px;height:406px;" version="1.1" viewBox="0 0 661 406" width="661.25px" zoomAndPan="magnify"><defs><filter height="300%" id="fdk2y4avi0u19" width="300%" x="-1" y="-1"><feGaussianBlur result="blurOut" stdDeviation="2.5"/><feColorMatrix in="blurOut" result="blurOut2" type="matrix" values="0 0 0 0 0 0 0 0 0 0 0 0 0 0 0 0 0 0 .4 0"/><feOffset dx="5.0" dy="5.0" in="blurOut2" result="blurOut3"/><feBlend in="SourceGraphic" in2="blurOut3" mode="normal"/></filter></defs><g><!--MD5=[c165718656364e8a2441ae1f83ea1dcf]
class SignInView--><rect fill="#FEFECE" filter="url(#fdk2y4avi0u19)" height="111.8848" id="SignInView" style="stroke: #A80036; stroke-width: 1.875;" width="200" x="236.875" y="145"/><ellipse cx="293.4375" cy="165" fill="#ADD1B2" rx="13.75" ry="13.75" style="stroke: #A80036; stroke-width: 1.25;"/><path d="M295.9375,160.625 Q296.1914,160 296.4844,159.6875 Q296.7773,159.375 297.1094,159.375 Q297.6953,159.375 298.0664,159.7266 Q298.4375,160.0781 298.4375,160.8984 L298.4375,162.8516 Q298.4375,163.6719 298.0859,164.0234 Q297.7344,164.375 297.1875,164.375 Q296.6992,164.375 296.3867,164.1602 Q296.0742,163.9453 295.9375,163.3789 Q295.8789,162.9883 295.6641,162.7734 Q295.2734,162.3633 294.5703,162.1289 Q293.8672,161.875 293.1641,161.875 Q292.2852,161.875 291.543,162.2266 Q290.8203,162.5781 290.2539,163.3594 Q289.6875,164.1406 289.6875,165.2148 L289.6875,166.3672 Q289.6875,167.6563 290.7422,168.5156 Q291.7969,169.375 293.6719,169.375 Q294.7852,169.375 295.5664,169.1211 Q296.0156,168.9844 296.5234,168.5352 Q296.8555,168.2813 297.0313,168.2031 Q297.207,168.125 297.4219,168.125 Q297.832,168.125 298.125,168.457 Q298.4375,168.7695 298.4375,169.2188 Q298.4375,169.6484 298.0078,170.1563 Q297.3828,170.8984 296.3867,171.3086 Q295.0781,171.875 293.4766,171.875 Q291.6016,171.875 290.0977,171.1328 Q288.8867,170.5469 288.0273,169.2773 Q287.1875,168.0078 287.1875,166.5039 L287.1875,165.1367 Q287.1875,163.5742 287.9297,162.207 Q288.6914,160.8398 290,160.1172 Q291.3281,159.375 292.8125,159.375 Q293.7109,159.375 294.4922,159.6875 Q295.2734,160 295.9375,160.625 Z "/><text fill="#000000" font-family="sans-serif" font-size="15" lengthAdjust="spacingAndGlyphs" textLength="76.25" x="319.0625" y="171.1377">SignInView</text><line style="stroke: #A80036; stroke-width: 1.875;" x1="238.125" x2="435.625" y1="185" y2="185"/><line style="stroke: #A80036; stroke-width: 1.875;" x1="238.125" x2="435.625" y1="195" y2="195"/><ellipse cx="250.625" cy="208.75" fill="#84BE84" rx="3.75" ry="3.75" style="stroke: #038048; stroke-width: 1.25;"/><text fill="#000000" font-family="sans-serif" font-size="13.75" lengthAdjust="spacingAndGlyphs" textLength="125" x="261.875" y="214.2737">setPassword(string)</text><ellipse cx="250.625" cy="226.0449" fill="#84BE84" rx="3.75" ry="3.75" style="stroke: #038048; stroke-width: 1.25;"/><text fill="#000000" font-family="sans-serif" font-size="13.75" lengthAdjust="spacingAndGlyphs" textLength="123.75" x="261.875" y="231.5686">setUsername(string)</text><ellipse cx="250.625" cy="243.3398" fill="#84BE84" rx="3.75" ry="3.75" style="stroke: #038048; stroke-width: 1.25;"/><text fill="#000000" font-family="sans-serif" font-size="13.75" lengthAdjust="spacingAndGlyphs" textLength="167.5" x="261.875" y="248.8635">setRepeatPassword(string)</text><!--MD5=[30447da4da4e7cfdf8dead7e3e7400a7]
class SignInController--><rect fill="#FEFECE" filter="url(#fdk2y4avi0u19)" height="60" id="SignInController" style="stroke: #A80036; stroke-width: 1.875;" width="151.25" x="7.5" y="332.5"/><ellipse cx="26.25" cy="352.5" fill="#ADD1B2" rx="13.75" ry="13.75" style="stroke: #A80036; stroke-width: 1.25;"/><path d="M28.75,348.125 Q29.0039,347.5 29.2969,347.1875 Q29.5898,346.875 29.9219,346.875 Q30.5078,346.875 30.8789,347.2266 Q31.25,347.5781 31.25,348.3984 L31.25,350.3516 Q31.25,351.1719 30.8984,351.5234 Q30.5469,351.875 30,351.875 Q29.5117,351.875 29.1992,351.6602 Q28.8867,351.4453 28.75,350.8789 Q28.6914,350.4883 28.4766,350.2734 Q28.0859,349.8633 27.3828,349.6289 Q26.6797,349.375 25.9766,349.375 Q25.0977,349.375 24.3555,349.7266 Q23.6328,350.0781 23.0664,350.8594 Q22.5,351.6406 22.5,352.7148 L22.5,353.8672 Q22.5,355.1563 23.5547,356.0156 Q24.6094,356.875 26.4844,356.875 Q27.5977,356.875 28.3789,356.6211 Q28.8281,356.4844 29.3359,356.0352 Q29.668,355.7813 29.8438,355.7031 Q30.0195,355.625 30.2344,355.625 Q30.6445,355.625 30.9375,355.957 Q31.25,356.2695 31.25,356.7188 Q31.25,357.1484 30.8203,357.6563 Q30.1953,358.3984 29.1992,358.8086 Q27.8906,359.375 26.2891,359.375 Q24.4141,359.375 22.9102,358.6328 Q21.6992,358.0469 20.8398,356.7773 Q20,355.5078 20,354.0039 L20,352.6367 Q20,351.0742 20.7422,349.707 Q21.5039,348.3398 22.8125,347.6172 Q24.1406,346.875 25.625,346.875 Q26.5234,346.875 27.3047,347.1875 Q28.0859,347.5 28.75,348.125 Z "/><text fill="#000000" font-family="sans-serif" font-size="15" lengthAdjust="spacingAndGlyphs" textLength="111.25" x="43.75" y="358.6377">SignInController</text><line style="stroke: #A80036; stroke-width: 1.875;" x1="8.75" x2="157.5" y1="372.5" y2="372.5"/><line style="stroke: #A80036; stroke-width: 1.875;" x1="8.75" x2="157.5" y1="382.5" y2="382.5"/><!--MD5=[2ca1536628238a7dc78c5d90808014f9]
class Session--><rect fill="#FEFECE" filter="url(#fdk2y4avi0u19)" height="60" id="Session" style="stroke: #A80036; stroke-width: 1.875;" width="97.5" x="203.125" y="332.5"/><ellipse cx="221.875" cy="352.5" fill="#ADD1B2" rx="13.75" ry="13.75" style="stroke: #A80036; stroke-width: 1.25;"/><path d="M224.375,348.125 Q224.6289,347.5 224.9219,347.1875 Q225.2148,346.875 225.5469,346.875 Q226.1328,346.875 226.5039,347.2266 Q226.875,347.5781 226.875,348.3984 L226.875,350.3516 Q226.875,351.1719 226.5234,351.5234 Q226.1719,351.875 225.625,351.875 Q225.1367,351.875 224.8242,351.6602 Q224.5117,351.4453 224.375,350.8789 Q224.3164,350.4883 224.1016,350.2734 Q223.7109,349.8633 223.0078,349.6289 Q222.3047,349.375 221.6016,349.375 Q220.7227,349.375 219.9805,349.7266 Q219.2578,350.0781 218.6914,350.8594 Q218.125,351.6406 218.125,352.7148 L218.125,353.8672 Q218.125,355.1563 219.1797,356.0156 Q220.2344,356.875 222.1094,356.875 Q223.2227,356.875 224.0039,356.6211 Q224.4531,356.4844 224.9609,356.0352 Q225.293,355.7813 225.4688,355.7031 Q225.6445,355.625 225.8594,355.625 Q226.2695,355.625 226.5625,355.957 Q226.875,356.2695 226.875,356.7188 Q226.875,357.1484 226.4453,357.6563 Q225.8203,358.3984 224.8242,358.8086 Q223.5156,359.375 221.9141,359.375 Q220.0391,359.375 218.5352,358.6328 Q217.3242,358.0469 216.4648,356.7773 Q215.625,355.5078 215.625,354.0039 L215.625,352.6367 Q215.625,351.0742 216.3672,349.707 Q217.1289,348.3398 218.4375,347.6172 Q219.7656,346.875 221.25,346.875 Q222.1484,346.875 222.9297,347.1875 Q223.7109,347.5 224.375,348.125 Z "/><text fill="#000000" font-family="sans-serif" font-size="15" lengthAdjust="spacingAndGlyphs" textLength="57.5" x="239.375" y="358.6377">Session</text><line style="stroke: #A80036; stroke-width: 1.875;" x1="204.375" x2="299.375" y1="372.5" y2="372.5"/><line style="stroke: #A80036; stroke-width: 1.875;" x1="204.375" x2="299.375" y1="382.5" y2="382.5"/><!--MD5=[acfd4a11b7ab481a843f8f3c2570b65c]
class OpenDashboard--><rect fill="#FEFECE" filter="url(#fdk2y4avi0u19)" height="60" id="OpenDashboard" style="stroke: #A80036; stroke-width: 1.875;" width="155" x="344.375" y="332.5"/><ellipse cx="363.125" cy="352.5" fill="#ADD1B2" rx="13.75" ry="13.75" style="stroke: #A80036; stroke-width: 1.25;"/><path d="M365.625,348.125 Q365.8789,347.5 366.1719,347.1875 Q366.4648,346.875 366.7969,346.875 Q367.3828,346.875 367.7539,347.2266 Q368.125,347.5781 368.125,348.3984 L368.125,350.3516 Q368.125,351.1719 367.7734,351.5234 Q367.4219,351.875 366.875,351.875 Q366.3867,351.875 366.0742,351.6602 Q365.7617,351.4453 365.625,350.8789 Q365.5664,350.4883 365.3516,350.2734 Q364.9609,349.8633 364.2578,349.6289 Q363.5547,349.375 362.8516,349.375 Q361.9727,349.375 361.2305,349.7266 Q360.5078,350.0781 359.9414,350.8594 Q359.375,351.6406 359.375,352.7148 L359.375,353.8672 Q359.375,355.1563 360.4297,356.0156 Q361.4844,356.875 363.3594,356.875 Q364.4727,356.875 365.2539,356.6211 Q365.7031,356.4844 366.2109,356.0352 Q366.543,355.7813 366.7188,355.7031 Q366.8945,355.625 367.1094,355.625 Q367.5195,355.625 367.8125,355.957 Q368.125,356.2695 368.125,356.7188 Q368.125,357.1484 367.6953,357.6563 Q367.0703,358.3984 366.0742,358.8086 Q364.7656,359.375 363.1641,359.375 Q361.2891,359.375 359.7852,358.6328 Q358.5742,358.0469 357.7148,356.7773 Q356.875,355.5078 356.875,354.0039 L356.875,352.6367 Q356.875,351.0742 357.6172,349.707 Q358.3789,348.3398 359.6875,347.6172 Q361.0156,346.875 362.5,346.875 Q363.3984,346.875 364.1797,347.1875 Q364.9609,347.5 365.625,348.125 Z "/><text fill="#000000" font-family="sans-serif" font-size="15" lengthAdjust="spacingAndGlyphs" textLength="115" x="380.625" y="358.6377">OpenDashboard</text><line style="stroke: #A80036; stroke-width: 1.875;" x1="345.625" x2="498.125" y1="372.5" y2="372.5"/><line style="stroke: #A80036; stroke-width: 1.875;" x1="345.625" x2="498.125" y1="382.5" y2="382.5"/><!--MD5=[8309b17d830045003489ce4c308a9814]
class LoginView--><rect fill="#FEFECE" filter="url(#fdk2y4avi0u19)" height="60" id="LoginView" style="stroke: #A80036; stroke-width: 1.875;" width="111.25" x="281.25" y="10"/><ellipse cx="300" cy="30" fill="#ADD1B2" rx="13.75" ry="13.75" style="stroke: #A80036; stroke-width: 1.25;"/><path d="M302.5,25.625 Q302.7539,25 303.0469,24.6875 Q303.3398,24.375 303.6719,24.375 Q304.2578,24.375 304.6289,24.7266 Q305,25.0781 305,25.8984 L305,27.8516 Q305,28.6719 304.6484,29.0234 Q304.2969,29.375 303.75,29.375 Q303.2617,29.375 302.9492,29.1602 Q302.6367,28.9453 302.5,28.3789 Q302.4414,27.9883 302.2266,27.7734 Q301.8359,27.3633 301.1328,27.1289 Q300.4297,26.875 299.7266,26.875 Q298.8477,26.875 298.1055,27.2266 Q297.3828,27.5781 296.8164,28.3594 Q296.25,29.1406 296.25,30.2148 L296.25,31.3672 Q296.25,32.6563 297.3047,33.5156 Q298.3594,34.375 300.2344,34.375 Q301.3477,34.375 302.1289,34.1211 Q302.5781,33.9844 303.0859,33.5352 Q303.418,33.2813 303.5938,33.2031 Q303.7695,33.125 303.9844,33.125 Q304.3945,33.125 304.6875,33.457 Q305,33.7695 305,34.2188 Q305,34.6484 304.5703,35.1563 Q303.9453,35.8984 302.9492,36.3086 Q301.6406,36.875 300.0391,36.875 Q298.1641,36.875 296.6602,36.1328 Q295.4492,35.5469 294.5898,34.2773 Q293.75,33.0078 293.75,31.5039 L293.75,30.1367 Q293.75,28.5742 294.4922,27.207 Q295.2539,25.8398 296.5625,25.1172 Q297.8906,24.375 299.375,24.375 Q300.2734,24.375 301.0547,24.6875 Q301.8359,25 302.5,25.625 Z "/><text fill="#000000" font-family="sans-serif" font-size="15" lengthAdjust="spacingAndGlyphs" textLength="71.25" x="317.5" y="36.1377">LoginView</text><line style="stroke: #A80036; stroke-width: 1.875;" x1="282.5" x2="391.25" y1="50" y2="50"/><line style="stroke: #A80036; stroke-width: 1.875;" x1="282.5" x2="391.25" y1="60" y2="60"/><!--MD5=[1e29ec7aa20142996304403e448274ec]
class Mechanic--><rect fill="#FEFECE" filter="url(#fdk2y4avi0u19)" height="60" id="Mechanic" style="stroke: #A80036; stroke-width: 1.875;" width="105" x="543.125" y="332.5"/><ellipse cx="561.875" cy="352.5" fill="#ADD1B2" rx="13.75" ry="13.75" style="stroke: #A80036; stroke-width: 1.25;"/><path d="M564.375,348.125 Q564.6289,347.5 564.9219,347.1875 Q565.2148,346.875 565.5469,346.875 Q566.1328,346.875 566.5039,347.2266 Q566.875,347.5781 566.875,348.3984 L566.875,350.3516 Q566.875,351.1719 566.5234,351.5234 Q566.1719,351.875 565.625,351.875 Q565.1367,351.875 564.8242,351.6602 Q564.5117,351.4453 564.375,350.8789 Q564.3164,350.4883 564.1016,350.2734 Q563.7109,349.8633 563.0078,349.6289 Q562.3047,349.375 561.6016,349.375 Q560.7227,349.375 559.9805,349.7266 Q559.2578,350.0781 558.6914,350.8594 Q558.125,351.6406 558.125,352.7148 L558.125,353.8672 Q558.125,355.1563 559.1797,356.0156 Q560.2344,356.875 562.1094,356.875 Q563.2227,356.875 564.0039,356.6211 Q564.4531,356.4844 564.9609,356.0352 Q565.293,355.7813 565.4688,355.7031 Q565.6445,355.625 565.8594,355.625 Q566.2695,355.625 566.5625,355.957 Q566.875,356.2695 566.875,356.7188 Q566.875,357.1484 566.4453,357.6563 Q565.8203,358.3984 564.8242,358.8086 Q563.5156,359.375 561.9141,359.375 Q560.0391,359.375 558.5352,358.6328 Q557.3242,358.0469 556.4648,356.7773 Q555.625,355.5078 555.625,354.0039 L555.625,352.6367 Q555.625,351.0742 556.3672,349.707 Q557.1289,348.3398 558.4375,347.6172 Q559.7656,346.875 561.25,346.875 Q562.1484,346.875 562.9297,347.1875 Q563.7109,347.5 564.375,348.125 Z "/><text fill="#000000" font-family="sans-serif" font-size="15" lengthAdjust="spacingAndGlyphs" textLength="65" x="579.375" y="358.6377">Mechanic</text><line style="stroke: #A80036; stroke-width: 1.875;" x1="544.375" x2="646.875" y1="372.5" y2="372.5"/><line style="stroke: #A80036; stroke-width: 1.875;" x1="544.375" x2="646.875" y1="382.5" y2="382.5"/><!--MD5=[c5580407c54de037a90d3d6b6090b73f]
link SignInView to SignInController--><path d="M248.8375,257.5775 C210.8138,281.3655 167.64,308.3758 134.895,328.8618 " fill="none" id="SignInView-&gt;SignInController" style="stroke: #A80036; stroke-width: 1.25;"/><polygon fill="#A80036" points="129.3198,332.3498,141.5091,330.6228,134.6185,329.0353,136.206,322.1448,129.3198,332.3498" style="stroke: #A80036; stroke-width: 1.25;"/><!--MD5=[d0344c470cca7bae7302d37464bd71cc]
link SignInView to Session--><path d="M307.385,257.5775 C295.1125,280.4974 281.2388,306.4084 270.4313,326.593 " fill="none" id="SignInView-&gt;Session" style="stroke: #A80036; stroke-width: 1.25;"/><polygon fill="#A80036" points="267.4688,332.127,277.1867,324.569,270.4187,326.617,268.3707,319.849,267.4688,332.127" style="stroke: #A80036; stroke-width: 1.25;"/><!--MD5=[5e8c876bfa746218cd2dfdfd9b810546]
link SignInView to OpenDashboard--><path d="M366.365,257.5775 C378.6375,280.4974 392.5113,306.4084 403.3187,326.593 " fill="none" id="SignInView-&gt;OpenDashboard" style="stroke: #A80036; stroke-width: 1.25;"/><polygon fill="#A80036" points="406.2813,332.127,405.3793,319.849,403.3313,326.617,396.5633,324.569,406.2813,332.127" style="stroke: #A80036; stroke-width: 1.25;"/><!--MD5=[9b66fb5479e96f05da90ee9901b26f34]
link LoginView to SignInView--><path d="M336.875,70.3675 C336.875,89.3488 336.875,114.845 336.875,138.2037 " fill="none" id="LoginView-&gt;SignInView" style="stroke: #A80036; stroke-width: 1.25;"/><polygon fill="#A80036" points="336.875,144.7275,341.875,133.4775,336.875,138.4775,331.875,133.4775,336.875,144.7275" style="stroke: #A80036; stroke-width: 1.25;"/><!--MD5=[fa5ac77d04cc07f77d489ec95eef3aac]
link SignInView to Mechanic--><path d="M426.6475,257.5775 C465.42,281.3655 509.4438,308.3758 542.835,328.8618 " fill="none" id="SignInView-&gt;Mechanic" style="stroke: #A80036; stroke-width: 1.25;"/><polygon fill="#A80036" points="548.52,332.3498,541.5448,322.2053,543.1925,329.0818,536.316,330.7294,548.52,332.3498" style="stroke: #A80036; stroke-width: 1.25;"/><!--MD5=[65de6681e514a969ea24b3660d9825fb]
@startuml
	class SignInView {
	+setPassword(string)
	+setUsername(string)
	+setRepeatPassword(string)
	}

	SignInView - -> SignInController
	SignInView - -> Session
	SignInView - -> OpenDashboard
	LoginView - -> SignInView
	SignInView - -> Mechanic
@enduml

PlantUML version 1.2020.09(Sun May 10 12:51:06 CEST 2020)
(GPL source distribution)
Java Runtime: OpenJDK Runtime Environment
JVM: OpenJDK 64-Bit Server VM
Java Version: 11.0.8+10-b1094.1
Operating System: Windows 10
Default Encoding: Cp1252
Language: en
Country: GB
--></g></svg>