<?xml version="1.0" encoding="UTF-8" standalone="no"?><svg xmlns="http://www.w3.org/2000/svg" xmlns:xlink="http://www.w3.org/1999/xlink" contentScriptType="application/ecmascript" contentStyleType="text/css" height="670px" preserveAspectRatio="none" style="width:1393px;height:670px;" version="1.1" viewBox="0 0 1393 670" width="1393px" zoomAndPan="magnify"><defs><filter height="300%" id="f1p6mfza5s3bbi" width="300%" x="-1" y="-1"><feGaussianBlur result="blurOut" stdDeviation="2.0"/><feColorMatrix in="blurOut" result="blurOut2" type="matrix" values="0 0 0 0 0 0 0 0 0 0 0 0 0 0 0 0 0 0 .4 0"/><feOffset dx="4.0" dy="4.0" in="blurOut2" result="blurOut3"/><feBlend in="SourceGraphic" in2="blurOut3" mode="normal"/></filter></defs><g><ellipse cx="660.5" cy="18" fill="#000000" filter="url(#f1p6mfza5s3bbi)" rx="10" ry="10" style="stroke: none; stroke-width: 1.0;"/><rect fill="#FEFECE" filter="url(#f1p6mfza5s3bbi)" height="40" rx="12.5" ry="12.5" style="stroke: #A80036; stroke-width: 1.5;" width="54" x="633.5" y="89"/><text fill="#000000" font-family="sans-serif" font-size="14" lengthAdjust="spacingAndGlyphs" textLength="44" x="638.5" y="114.7285">INITIAL</text><rect fill="#FEFECE" filter="url(#f1p6mfza5s3bbi)" height="40" rx="12.5" ry="12.5" style="stroke: #A80036; stroke-width: 1.5;" width="161" x="580" y="261.5"/><text fill="#000000" font-family="sans-serif" font-size="14" lengthAdjust="spacingAndGlyphs" textLength="151" x="585" y="287.2285">OPENED_DASHBOARD</text><rect fill="#FEFECE" filter="url(#f1p6mfza5s3bbi)" height="40" rx="12.5" ry="12.5" style="stroke: #A80036; stroke-width: 1.5;" width="141" x="6" y="458.5"/><text fill="#000000" font-family="sans-serif" font-size="14" lengthAdjust="spacingAndGlyphs" textLength="131" x="11" y="484.2285">OPENED_VEHICLES</text><rect fill="#FEFECE" filter="url(#f1p6mfza5s3bbi)" height="40" rx="12.5" ry="12.5" style="stroke: #A80036; stroke-width: 1.5;" width="132" x="321.5" y="458.5"/><text fill="#000000" font-family="sans-serif" font-size="14" lengthAdjust="spacingAndGlyphs" textLength="122" x="326.5" y="484.2285">OPENED_CLIENTS</text><rect fill="#FEFECE" filter="url(#f1p6mfza5s3bbi)" height="40" rx="12.5" ry="12.5" style="stroke: #A80036; stroke-width: 1.5;" width="183" x="611" y="458.5"/><text fill="#000000" font-family="sans-serif" font-size="14" lengthAdjust="spacingAndGlyphs" textLength="173" x="616" y="484.2285">OPENED_INTERVENTIONS</text><rect fill="#FEFECE" filter="url(#f1p6mfza5s3bbi)" height="40" rx="12.5" ry="12.5" style="stroke: #A80036; stroke-width: 1.5;" width="164" x="981.5" y="458.5"/><text fill="#000000" font-family="sans-serif" font-size="14" lengthAdjust="spacingAndGlyphs" textLength="154" x="986.5" y="484.2285">OPENED_OPERATIONS</text><ellipse cx="521.5" cy="649" fill="none" filter="url(#f1p6mfza5s3bbi)" rx="10" ry="10" style="stroke: #000000; stroke-width: 1.0;"/><ellipse cx="522" cy="649.5" fill="#000000" rx="6" ry="6" style="stroke: none; stroke-width: 1.0;"/><!--MD5=[06c3f2024f4ea60966e79307ee69ec5f]
link *start to INITIAL--><path d="M660.5,28.189 C660.5,41.18 660.5,65.376 660.5,83.734 " fill="none" id="*start-&gt;INITIAL" style="stroke: #008000; stroke-width: 1.0;"/><polygon fill="#008000" points="660.5,88.743,664.5,79.743,660.5,83.743,656.5,79.743,660.5,88.743" style="stroke: #008000; stroke-width: 1.0;"/><!--MD5=[2f9381f69d49eaf825075dc57500e277]
link INITIAL to OPENED_DASHBOARD--><path d="M660.5,129.227 C660.5,160.393 660.5,221.891 660.5,256.097 " fill="none" id="INITIAL-&gt;OPENED_DASHBOARD" style="stroke: #008000; stroke-width: 1.0;"/><polygon fill="#008000" points="660.5,261.343,664.5,252.343,660.5,256.343,656.5,252.343,660.5,261.343" style="stroke: #008000; stroke-width: 1.0;"/><path d="M665.5,164 L665.5,206 L724.5,206 L724.5,174 L714.5,164 L665.5,164 " fill="#F5F5F5" filter="url(#f1p6mfza5s3bbi)" style="stroke: #A80036; stroke-width: 1.0;"/><path d="M714.5,164 L714.5,174 L724.5,174 L714.5,164 " fill="#F5F5F5" style="stroke: #A80036; stroke-width: 1.0;"/><text fill="#000000" font-family="sans-serif" font-size="13" lengthAdjust="spacingAndGlyphs" textLength="27" x="671.5" y="182.4951">login</text><text fill="#000000" font-family="sans-serif" font-size="13" lengthAdjust="spacingAndGlyphs" textLength="38" x="671.5" y="198.8467">sign in</text><!--MD5=[7fd3362ee68cab4ea336d5422e86651e]
link OPENED_DASHBOARD to OPENED_VEHICLES--><path d="M579.694,290.63 C405.35,308.172 9.5,348 9.5,348 C9.5,348 9.5,404 9.5,404 C9.5,404 35.6847,432.725 55.3152,454.26 " fill="none" id="OPENED_DASHBOARD-&gt;OPENED_VEHICLES" style="stroke: #008000; stroke-width: 1.0;"/><polygon fill="#008000" points="58.8965,458.189,55.7894,448.8431,55.5281,454.4939,49.8773,454.2325,58.8965,458.189" style="stroke: #008000; stroke-width: 1.0;"/><path d="M14.5,361 L14.5,387 L113.5,387 L113.5,371 L103.5,361 L14.5,361 " fill="#F5F5F5" filter="url(#f1p6mfza5s3bbi)" style="stroke: #A80036; stroke-width: 1.0;"/><path d="M103.5,361 L103.5,371 L113.5,371 L103.5,361 " fill="#F5F5F5" style="stroke: #A80036; stroke-width: 1.0;"/><text fill="#000000" font-family="sans-serif" font-size="13" lengthAdjust="spacingAndGlyphs" textLength="78" x="20.5" y="379.4951">openVehicles</text><!--MD5=[5e11674a1be49c544b6d95b1bdfce1b5]
link OPENED_VEHICLES to OPENED_DASHBOARD--><path d="M93.9113,458.392 C126.735,422.369 194.5,348 194.5,348 C194.5,348 440.128,313.475 574.725,294.556 " fill="none" id="OPENED_VEHICLES-&gt;OPENED_DASHBOARD" style="stroke: #008000; stroke-width: 1.0;"/><polygon fill="#008000" points="579.861,293.834,570.3919,291.1256,574.9097,294.5299,571.5053,299.0477,579.861,293.834" style="stroke: #008000; stroke-width: 1.0;"/><path d="M199.5,353 L199.5,395 L321.5,395 L321.5,363 L311.5,353 L199.5,353 " fill="#F5F5F5" filter="url(#f1p6mfza5s3bbi)" style="stroke: #A80036; stroke-width: 1.0;"/><path d="M311.5,353 L311.5,363 L321.5,363 L311.5,353 " fill="#F5F5F5" style="stroke: #A80036; stroke-width: 1.0;"/><text fill="#000000" font-family="sans-serif" font-size="13" lengthAdjust="spacingAndGlyphs" textLength="101" x="205.5" y="371.4951">createIntervention</text><text fill="#000000" font-family="sans-serif" font-size="13" lengthAdjust="spacingAndGlyphs" textLength="90" x="205.5" y="387.8467">openDashboard</text><!--MD5=[0658bce038e6d069da9bd29c93478e6a]
link OPENED_DASHBOARD to OPENED_DASHBOARD--><path d="M741.192,264.133 C761.13,265.384 776,271.173 776,281.5 C776,290.94 763.576,296.588 746.213,298.444 " fill="none" id="OPENED_DASHBOARD-&gt;OPENED_DASHBOARD" style="stroke: #008000; stroke-width: 1.0;"/><polygon fill="#008000" points="741.192,298.867,750.4962,302.0969,746.1743,298.447,749.8242,294.1252,741.192,298.867" style="stroke: #008000; stroke-width: 1.0;"/><path d="M781,250 L781,309 L903,309 L903,260 L893,250 L781,250 " fill="#F5F5F5" filter="url(#f1p6mfza5s3bbi)" style="stroke: #A80036; stroke-width: 1.0;"/><path d="M893,250 L893,260 L903,260 L893,250 " fill="#F5F5F5" style="stroke: #A80036; stroke-width: 1.0;"/><text fill="#000000" font-family="sans-serif" font-size="13" lengthAdjust="spacingAndGlyphs" textLength="101" x="787" y="268.4951">createIntervention</text><text fill="#000000" font-family="sans-serif" font-size="13" lengthAdjust="spacingAndGlyphs" textLength="100" x="787" y="284.8467">pauseIntervention</text><text fill="#000000" font-family="sans-serif" font-size="13" lengthAdjust="spacingAndGlyphs" textLength="95" x="787" y="301.1982">finishIntervention</text><!--MD5=[5b0402e1717c04d353cefcf5f980b708]
link OPENED_VEHICLES to OPENED_VEHICLES--><path d="M147.004,459.47 C166.802,460.303 182,466.646 182,478.5 C182,489.335 169.302,495.566 152,497.193 " fill="none" id="OPENED_VEHICLES-&gt;OPENED_VEHICLES" style="stroke: #008000; stroke-width: 1.0;"/><polygon fill="#008000" points="147.004,497.53,156.2523,500.9167,151.9927,497.1943,155.7151,492.9347,147.004,497.53" style="stroke: #008000; stroke-width: 1.0;"/><path d="M187,439 L187,514 L294,514 L294,449 L284,439 L187,439 " fill="#F5F5F5" filter="url(#f1p6mfza5s3bbi)" style="stroke: #A80036; stroke-width: 1.0;"/><path d="M284,439 L284,449 L294,449 L284,439 " fill="#F5F5F5" style="stroke: #A80036; stroke-width: 1.0;"/><text fill="#000000" font-family="sans-serif" font-size="13" lengthAdjust="spacingAndGlyphs" textLength="79" x="193" y="457.4951">createVehicle</text><text fill="#000000" font-family="sans-serif" font-size="13" lengthAdjust="spacingAndGlyphs" textLength="77" x="193" y="473.8467">configVehicle</text><text fill="#000000" font-family="sans-serif" font-size="13" lengthAdjust="spacingAndGlyphs" textLength="78" x="193" y="490.1982">deleteVehicle</text><text fill="#000000" font-family="sans-serif" font-size="13" lengthAdjust="spacingAndGlyphs" textLength="86" x="193" y="506.5498">importVehicles</text><!--MD5=[15c74f34291f5e75839dab458770ad02]
link OPENED_DASHBOARD to OPENED_CLIENTS--><path d="M579.661,298.944 C484.279,318.346 338.5,348 338.5,348 C338.5,348 338.5,404 338.5,404 C338.5,404 357.491,432.487 371.828,453.991 " fill="none" id="OPENED_DASHBOARD-&gt;OPENED_CLIENTS" style="stroke: #008000; stroke-width: 1.0;"/><polygon fill="#008000" points="374.626,458.189,372.9627,448.4816,371.8528,454.0285,366.3059,452.9187,374.626,458.189" style="stroke: #008000; stroke-width: 1.0;"/><path d="M343.5,361 L343.5,387 L432.5,387 L432.5,371 L422.5,361 L343.5,361 " fill="#F5F5F5" filter="url(#f1p6mfza5s3bbi)" style="stroke: #A80036; stroke-width: 1.0;"/><path d="M422.5,361 L422.5,371 L432.5,371 L422.5,361 " fill="#F5F5F5" style="stroke: #A80036; stroke-width: 1.0;"/><text fill="#000000" font-family="sans-serif" font-size="13" lengthAdjust="spacingAndGlyphs" textLength="68" x="349.5" y="379.4951">openClients</text><!--MD5=[e86c9098c6e8a06dad771708352e16ef]
link OPENED_CLIENTS to OPENED_DASHBOARD--><path d="M406.092,458.392 C441.141,422.369 513.5,348 513.5,348 C513.5,348 570.005,322.823 612.949,303.688 " fill="none" id="OPENED_CLIENTS-&gt;OPENED_DASHBOARD" style="stroke: #008000; stroke-width: 1.0;"/><polygon fill="#008000" points="617.586,301.621,607.7371,301.629,613.0186,303.6554,610.9922,308.9369,617.586,301.621" style="stroke: #008000; stroke-width: 1.0;"/><path d="M518.5,353 L518.5,395 L640.5,395 L640.5,363 L630.5,353 L518.5,353 " fill="#F5F5F5" filter="url(#f1p6mfza5s3bbi)" style="stroke: #A80036; stroke-width: 1.0;"/><path d="M630.5,353 L630.5,363 L640.5,363 L630.5,353 " fill="#F5F5F5" style="stroke: #A80036; stroke-width: 1.0;"/><text fill="#000000" font-family="sans-serif" font-size="13" lengthAdjust="spacingAndGlyphs" textLength="101" x="524.5" y="371.4951">createIntervention</text><text fill="#000000" font-family="sans-serif" font-size="13" lengthAdjust="spacingAndGlyphs" textLength="90" x="524.5" y="387.8467">openDashboard</text><!--MD5=[bd7c2e30750d5e163bff11905f6efb8d]
link OPENED_CLIENTS to OPENED_CLIENTS--><path d="M453.555,459.417 C473.208,459.987 488.5,466.348 488.5,478.5 C488.5,489.513 475.941,495.77 458.958,497.27 " fill="none" id="OPENED_CLIENTS-&gt;OPENED_CLIENTS" style="stroke: #008000; stroke-width: 1.0;"/><polygon fill="#008000" points="453.555,497.583,462.7719,501.0542,458.5466,497.293,462.3078,493.0677,453.555,497.583" style="stroke: #008000; stroke-width: 1.0;"/><path d="M493.5,447 L493.5,506 L583.5,506 L583.5,457 L573.5,447 L493.5,447 " fill="#F5F5F5" filter="url(#f1p6mfza5s3bbi)" style="stroke: #A80036; stroke-width: 1.0;"/><path d="M573.5,447 L573.5,457 L583.5,457 L573.5,447 " fill="#F5F5F5" style="stroke: #A80036; stroke-width: 1.0;"/><text fill="#000000" font-family="sans-serif" font-size="13" lengthAdjust="spacingAndGlyphs" textLength="69" x="499.5" y="465.4951">createClient</text><text fill="#000000" font-family="sans-serif" font-size="13" lengthAdjust="spacingAndGlyphs" textLength="67" x="499.5" y="481.8467">configClient</text><text fill="#000000" font-family="sans-serif" font-size="13" lengthAdjust="spacingAndGlyphs" textLength="68" x="499.5" y="498.1982">deleteClient</text><!--MD5=[f962ecf610241878d7904dbcfaee543a]
link OPENED_DASHBOARD to OPENED_INTERVENTIONS--><path d="M659.616,301.798 C658.731,321.119 657.5,348 657.5,348 C657.5,348 657.5,404 657.5,404 C657.5,404 674.796,432.25 687.942,453.722 " fill="none" id="OPENED_DASHBOARD-&gt;OPENED_INTERVENTIONS" style="stroke: #008000; stroke-width: 1.0;"/><polygon fill="#008000" points="690.677,458.189,689.3903,448.4245,688.0668,453.9244,682.567,452.6009,690.677,458.189" style="stroke: #008000; stroke-width: 1.0;"/><path d="M662.5,353 L662.5,395 L801.5,395 L801.5,363 L791.5,353 L662.5,353 " fill="#F5F5F5" filter="url(#f1p6mfza5s3bbi)" style="stroke: #A80036; stroke-width: 1.0;"/><path d="M791.5,353 L791.5,363 L801.5,363 L791.5,353 " fill="#F5F5F5" style="stroke: #A80036; stroke-width: 1.0;"/><text fill="#000000" font-family="sans-serif" font-size="13" lengthAdjust="spacingAndGlyphs" textLength="100" x="668.5" y="371.4951">openInterventions</text><text fill="#000000" font-family="sans-serif" font-size="13" lengthAdjust="spacingAndGlyphs" textLength="118" x="668.5" y="387.8467">openMyInterventions</text><!--MD5=[0b4f9f0cf45c3a499e4f4e76b77491af]
link OPENED_INTERVENTIONS to OPENED_DASHBOARD--><path d="M731.634,458.381 C764.819,436.603 814.5,404 814.5,404 C814.5,404 814.5,348 814.5,348 C814.5,348 755.305,322.823 710.315,303.688 " fill="none" id="OPENED_INTERVENTIONS-&gt;OPENED_DASHBOARD" style="stroke: #008000; stroke-width: 1.0;"/><polygon fill="#008000" points="705.457,301.621,712.1734,308.8245,710.0581,303.578,715.3046,301.4627,705.457,301.621" style="stroke: #008000; stroke-width: 1.0;"/><path d="M819.5,353 L819.5,395 L941.5,395 L941.5,363 L931.5,353 L819.5,353 " fill="#F5F5F5" filter="url(#f1p6mfza5s3bbi)" style="stroke: #A80036; stroke-width: 1.0;"/><path d="M931.5,353 L931.5,363 L941.5,363 L931.5,353 " fill="#F5F5F5" style="stroke: #A80036; stroke-width: 1.0;"/><text fill="#000000" font-family="sans-serif" font-size="13" lengthAdjust="spacingAndGlyphs" textLength="101" x="825.5" y="371.4951">createIntervention</text><text fill="#000000" font-family="sans-serif" font-size="13" lengthAdjust="spacingAndGlyphs" textLength="90" x="825.5" y="387.8467">openDashboard</text><!--MD5=[34401e5380ef69428dfd3f5907d3a658]
link OPENED_DASHBOARD to OPENED_OPERATIONS--><path d="M741.143,300.225 C829.397,319.623 958.5,348 958.5,348 C958.5,348 1014.63,417.232 1044.82,454.455 " fill="none" id="OPENED_DASHBOARD-&gt;OPENED_OPERATIONS" style="stroke: #008000; stroke-width: 1.0;"/><polygon fill="#008000" points="1048.01,458.392,1045.4518,448.8812,1044.8622,454.5072,1039.2362,453.9177,1048.01,458.392" style="stroke: #008000; stroke-width: 1.0;"/><path d="M1007.5,361 L1007.5,387 L1119.5,387 L1119.5,371 L1109.5,361 L1007.5,361 " fill="#F5F5F5" filter="url(#f1p6mfza5s3bbi)" style="stroke: #A80036; stroke-width: 1.0;"/><path d="M1109.5,361 L1109.5,371 L1119.5,371 L1109.5,361 " fill="#F5F5F5" style="stroke: #A80036; stroke-width: 1.0;"/><text fill="#000000" font-family="sans-serif" font-size="13" lengthAdjust="spacingAndGlyphs" textLength="91" x="1013.5" y="379.4951">openOperations</text><!--MD5=[8c54216a9fd09b2d44ec0cc83a6c6b0d]
link OPENED_OPERATIONS to OPENED_DASHBOARD--><path d="M1082.68,458.189 C1104.31,436.412 1136.5,404 1136.5,404 C1136.5,404 1136.5,348 1136.5,348 C1136.5,348 883.598,313.199 746.478,294.331 " fill="none" id="OPENED_OPERATIONS-&gt;OPENED_DASHBOARD" style="stroke: #008000; stroke-width: 1.0;"/><polygon fill="#008000" points="741.247,293.611,749.618,298.8,746.2004,294.2923,750.7081,290.8747,741.247,293.611" style="stroke: #008000; stroke-width: 1.0;"/><path d="M1141.5,353 L1141.5,395 L1263.5,395 L1263.5,363 L1253.5,353 L1141.5,353 " fill="#F5F5F5" filter="url(#f1p6mfza5s3bbi)" style="stroke: #A80036; stroke-width: 1.0;"/><path d="M1253.5,353 L1253.5,363 L1263.5,363 L1253.5,353 " fill="#F5F5F5" style="stroke: #A80036; stroke-width: 1.0;"/><text fill="#000000" font-family="sans-serif" font-size="13" lengthAdjust="spacingAndGlyphs" textLength="101" x="1147.5" y="371.4951">createIntervention</text><text fill="#000000" font-family="sans-serif" font-size="13" lengthAdjust="spacingAndGlyphs" textLength="90" x="1147.5" y="387.8467">openDashboard</text><!--MD5=[e577b56dcf70cdc3c7b9fb7f4477f901]
link OPENED_OPERATIONS to OPENED_OPERATIONS--><path d="M1145.51,459.674 C1165.57,461.068 1180.5,467.344 1180.5,478.5 C1180.5,488.698 1168.03,494.817 1150.56,496.859 " fill="none" id="OPENED_OPERATIONS-&gt;OPENED_OPERATIONS" style="stroke: #008000; stroke-width: 1.0;"/><polygon fill="#008000" points="1145.51,497.326,1154.838,500.4863,1150.4891,496.8688,1154.1065,492.5198,1145.51,497.326" style="stroke: #008000; stroke-width: 1.0;"/><path d="M1185.5,463.5 L1185.5,489.5 L1292.5,489.5 L1292.5,473.5 L1282.5,463.5 L1185.5,463.5 " fill="#F5F5F5" filter="url(#f1p6mfza5s3bbi)" style="stroke: #A80036; stroke-width: 1.0;"/><path d="M1282.5,463.5 L1282.5,473.5 L1292.5,473.5 L1282.5,463.5 " fill="#F5F5F5" style="stroke: #A80036; stroke-width: 1.0;"/><text fill="#000000" font-family="sans-serif" font-size="13" lengthAdjust="spacingAndGlyphs" textLength="86" x="1191.5" y="481.9951">importVehicles</text><!--MD5=[9cb05d4109c4a70493bb8d0f8a6b6c3b]
link OPENED_INTERVENTIONS to OPENED_INTERVENTIONS--><path d="M794.038,459.89 C814.267,461.638 829,467.842 829,478.5 C829,488.242 816.691,494.262 799.126,496.561 " fill="none" id="OPENED_INTERVENTIONS-&gt;OPENED_INTERVENTIONS" style="stroke: #008000; stroke-width: 1.0;"/><polygon fill="#008000" points="794.038,497.11,803.4156,500.1201,799.0091,496.5729,802.5562,492.1664,794.038,497.11" style="stroke: #008000; stroke-width: 1.0;"/><path d="M834,447 L834,506 L954,506 L954,457 L944,447 L834,447 " fill="#F5F5F5" filter="url(#f1p6mfza5s3bbi)" style="stroke: #A80036; stroke-width: 1.0;"/><path d="M944,447 L944,457 L954,457 L944,447 " fill="#F5F5F5" style="stroke: #A80036; stroke-width: 1.0;"/><text fill="#000000" font-family="sans-serif" font-size="13" lengthAdjust="spacingAndGlyphs" textLength="81" x="840" y="465.4951">billIntervention</text><text fill="#000000" font-family="sans-serif" font-size="13" lengthAdjust="spacingAndGlyphs" textLength="99" x="840" y="481.8467">configIntervention</text><text fill="#000000" font-family="sans-serif" font-size="13" lengthAdjust="spacingAndGlyphs" textLength="93" x="840" y="498.1982">openIntervention</text><!--MD5=[793e8ba27cce923fc9e89a4e74e7431d]
link OPENED_DASHBOARD to *end--><path d="M741.236,291.029 C909.144,308.768 1280.5,348 1280.5,348 C1280.5,348 1301.5,434 1301.5,434 C1301.5,434 1301.5,523 1301.5,523 C1301.5,523 644.04,628.3622 536.341,645.6217 " fill="none" id="OPENED_DASHBOARD-&gt;*end" style="stroke: #008000; stroke-width: 1.0;"/><polygon fill="#008000" points="531.362,646.4195,540.8817,648.9445,536.299,645.6281,539.6154,641.0454,531.362,646.4195" style="stroke: #008000; stroke-width: 1.0;"/><path d="M1306.5,455.5 L1306.5,497.5 L1381.5,497.5 L1381.5,465.5 L1371.5,455.5 L1306.5,455.5 " fill="#F5F5F5" filter="url(#f1p6mfza5s3bbi)" style="stroke: #A80036; stroke-width: 1.0;"/><path d="M1371.5,455.5 L1371.5,465.5 L1381.5,465.5 L1371.5,455.5 " fill="#F5F5F5" style="stroke: #A80036; stroke-width: 1.0;"/><text fill="#000000" font-family="sans-serif" font-size="13" lengthAdjust="spacingAndGlyphs" textLength="35" x="1312.5" y="473.9951">logout</text><text fill="#000000" font-family="sans-serif" font-size="13" lengthAdjust="spacingAndGlyphs" textLength="54" x="1312.5" y="490.3467">closeApp</text><!--MD5=[4e719d0417a469ca10e494df07e2e6c4]
link OPENED_VEHICLES to *end--><path d="M116.044,498.608 C190.593,534.631 344.5,609 344.5,609 C344.5,609 464.716,635.4882 507.001,644.8054 " fill="none" id="OPENED_VEHICLES-&gt;*end" style="stroke: #008000; stroke-width: 1.0;"/><polygon fill="#008000" points="511.984,645.9032,504.0553,640.0606,507.1011,644.8275,502.3342,647.8732,511.984,645.9032" style="stroke: #008000; stroke-width: 1.0;"/><path d="M349.5,558 L349.5,600 L424.5,600 L424.5,568 L414.5,558 L349.5,558 " fill="#F5F5F5" filter="url(#f1p6mfza5s3bbi)" style="stroke: #A80036; stroke-width: 1.0;"/><path d="M414.5,558 L414.5,568 L424.5,568 L414.5,558 " fill="#F5F5F5" style="stroke: #A80036; stroke-width: 1.0;"/><text fill="#000000" font-family="sans-serif" font-size="13" lengthAdjust="spacingAndGlyphs" textLength="35" x="355.5" y="576.4951">logout</text><text fill="#000000" font-family="sans-serif" font-size="13" lengthAdjust="spacingAndGlyphs" textLength="54" x="355.5" y="592.8467">closeApp</text><!--MD5=[adf8f57255849756616039a9ecd58871]
link OPENED_CLIENTS to *end--><path d="M400.78,498.608 C425.815,534.631 477.5,609 477.5,609 C477.5,609 497.406,626.6436 510.44,638.1964 " fill="none" id="OPENED_CLIENTS-&gt;*end" style="stroke: #008000; stroke-width: 1.0;"/><polygon fill="#008000" points="514.234,641.5599,510.151,632.5972,510.4919,638.2438,504.8453,638.5847,514.234,641.5599" style="stroke: #008000; stroke-width: 1.0;"/><path d="M482.5,558 L482.5,600 L557.5,600 L557.5,568 L547.5,558 L482.5,558 " fill="#F5F5F5" filter="url(#f1p6mfza5s3bbi)" style="stroke: #A80036; stroke-width: 1.0;"/><path d="M547.5,558 L547.5,568 L557.5,568 L547.5,558 " fill="#F5F5F5" style="stroke: #A80036; stroke-width: 1.0;"/><text fill="#000000" font-family="sans-serif" font-size="13" lengthAdjust="spacingAndGlyphs" textLength="35" x="488.5" y="576.4951">logout</text><text fill="#000000" font-family="sans-serif" font-size="13" lengthAdjust="spacingAndGlyphs" textLength="54" x="488.5" y="592.8467">closeApp</text><!--MD5=[95d855294e3acb33a37e4375cc292d04]
link OPENED_INTERVENTIONS to *end--><path d="M683.023,498.608 C646.305,534.631 570.5,609 570.5,609 C570.5,609 547.863,627.017 533.362,638.5592 " fill="none" id="OPENED_INTERVENTIONS-&gt;*end" style="stroke: #008000; stroke-width: 1.0;"/><polygon fill="#008000" points="529.156,641.9062,538.6891,639.4325,533.0686,638.793,533.7081,633.1724,529.156,641.9062" style="stroke: #008000; stroke-width: 1.0;"/><path d="M630.5,558 L630.5,600 L705.5,600 L705.5,568 L695.5,558 L630.5,558 " fill="#F5F5F5" filter="url(#f1p6mfza5s3bbi)" style="stroke: #A80036; stroke-width: 1.0;"/><path d="M695.5,558 L695.5,568 L705.5,568 L695.5,558 " fill="#F5F5F5" style="stroke: #A80036; stroke-width: 1.0;"/><text fill="#000000" font-family="sans-serif" font-size="13" lengthAdjust="spacingAndGlyphs" textLength="35" x="636.5" y="576.4951">logout</text><text fill="#000000" font-family="sans-serif" font-size="13" lengthAdjust="spacingAndGlyphs" textLength="54" x="636.5" y="592.8467">closeApp</text><!--MD5=[fda60595802777dffa4d9ccd29f2bd43]
@startuml
skinparam {
    NoteBackgroundColor #whiteSmoke
    ArrowColor #green
    linetype polyline
}

hide empty description


[*] - -> INITIAL

INITIAL - -> OPENED_DASHBOARD
 note on link
     login
     sign in
 end note

OPENED_DASHBOARD - -> OPENED_VEHICLES
    note on link
         openVehicles
    end note
OPENED_DASHBOARD - -> OPENED_DASHBOARD
    note on link
         createIntervention
         pauseIntervention
         finishIntervention
    end note

OPENED_VEHICLES - -> OPENED_VEHICLES
    note on link
         createVehicle
         configVehicle
         deleteVehicle
         importVehicles
    end note

OPENED_VEHICLES - -> OPENED_DASHBOARD
    note on link
     createIntervention
     openDashboard
    end note

OPENED_DASHBOARD - -> OPENED_CLIENTS
    note on link
         openClients
    end note

OPENED_CLIENTS - -> OPENED_CLIENTS
    note on link
     createClient
     configClient
     deleteClient
    end note

OPENED_CLIENTS - -> OPENED_DASHBOARD
    note on link
     createIntervention
     openDashboard
    end note


OPENED_DASHBOARD - -> OPENED_INTERVENTIONS
    note on link
         openInterventions
         openMyInterventions
    end note

OPENED_DASHBOARD - -> OPENED_OPERATIONS
    note on link
        openOperations
    end note

OPENED_OPERATIONS - -> OPENED_DASHBOARD
note on link
    createIntervention
    openDashboard
end note

OPENED_OPERATIONS - -> OPENED_OPERATIONS
note on link
    importVehicles
end note

OPENED_INTERVENTIONS - -> OPENED_INTERVENTIONS
    note on link
         billIntervention
         configIntervention
         openIntervention
    end note
OPENED_INTERVENTIONS - -> OPENED_DASHBOARD
    note on link
     createIntervention
     openDashboard
    end note

OPENED_DASHBOARD - -> [*]
    note on link
    logout
    closeApp
    end note
OPENED_VEHICLES - -> [*]
    note on link
    logout
    closeApp
    end note
OPENED_CLIENTS - -> [*]
    note on link
    logout
    closeApp
    end note
OPENED_INTERVENTIONS - -> [*]
    note on link
    logout
    closeApp
    end note
@enduml

PlantUML version 1.2020.09(Sun May 10 12:51:06 CEST 2020)
(GPL source distribution)
Java Runtime: OpenJDK Runtime Environment
JVM: OpenJDK 64-Bit Server VM
Java Version: 11.0.8+10-b1094.1
Operating System: Windows 10
Default Encoding: Cp1252
Language: en
Country: GB
--></g></svg>