<?xml version="1.0" encoding="UTF-8" standalone="no"?><svg xmlns="http://www.w3.org/2000/svg" xmlns:xlink="http://www.w3.org/1999/xlink" contentScriptType="application/ecmascript" contentStyleType="text/css" height="371.25px" preserveAspectRatio="none" style="width:215px;height:371px;" version="1.1" viewBox="0 0 215 371" width="215px" zoomAndPan="magnify"><defs><filter height="300%" id="f1umm85gtn41wg" width="300%" x="-1" y="-1"><feGaussianBlur result="blurOut" stdDeviation="2.5"/><feColorMatrix in="blurOut" result="blurOut2" type="matrix" values="0 0 0 0 0 0 0 0 0 0 0 0 0 0 0 0 0 0 .4 0"/><feOffset dx="5.0" dy="5.0" in="blurOut2" result="blurOut3"/><feBlend in="SourceGraphic" in2="blurOut3" mode="normal"/></filter></defs><g><!--MD5=[7b68a60807ef0d5ecf982988765ba5ca]
class CreateClientController--><rect fill="#FEFECE" filter="url(#f1umm85gtn41wg)" height="77.2949" id="CreateClientController" style="stroke: #A80036; stroke-width: 1.875;" width="193.75" x="7.5" y="145"/><ellipse cx="26.25" cy="165" fill="#ADD1B2" rx="13.75" ry="13.75" style="stroke: #A80036; stroke-width: 1.25;"/><path d="M28.75,160.625 Q29.0039,160 29.2969,159.6875 Q29.5898,159.375 29.9219,159.375 Q30.5078,159.375 30.8789,159.7266 Q31.25,160.0781 31.25,160.8984 L31.25,162.8516 Q31.25,163.6719 30.8984,164.0234 Q30.5469,164.375 30,164.375 Q29.5117,164.375 29.1992,164.1602 Q28.8867,163.9453 28.75,163.3789 Q28.6914,162.9883 28.4766,162.7734 Q28.0859,162.3633 27.3828,162.1289 Q26.6797,161.875 25.9766,161.875 Q25.0977,161.875 24.3555,162.2266 Q23.6328,162.5781 23.0664,163.3594 Q22.5,164.1406 22.5,165.2148 L22.5,166.3672 Q22.5,167.6563 23.5547,168.5156 Q24.6094,169.375 26.4844,169.375 Q27.5977,169.375 28.3789,169.1211 Q28.8281,168.9844 29.3359,168.5352 Q29.668,168.2813 29.8438,168.2031 Q30.0195,168.125 30.2344,168.125 Q30.6445,168.125 30.9375,168.457 Q31.25,168.7695 31.25,169.2188 Q31.25,169.6484 30.8203,170.1563 Q30.1953,170.8984 29.1992,171.3086 Q27.8906,171.875 26.2891,171.875 Q24.4141,171.875 22.9102,171.1328 Q21.6992,170.5469 20.8398,169.2773 Q20,168.0078 20,166.5039 L20,165.1367 Q20,163.5742 20.7422,162.207 Q21.5039,160.8398 22.8125,160.1172 Q24.1406,159.375 25.625,159.375 Q26.5234,159.375 27.3047,159.6875 Q28.0859,160 28.75,160.625 Z "/><text fill="#000000" font-family="sans-serif" font-size="15" lengthAdjust="spacingAndGlyphs" textLength="153.75" x="43.75" y="171.1377">CreateClientController</text><line style="stroke: #A80036; stroke-width: 1.875;" x1="8.75" x2="200" y1="185" y2="185"/><line style="stroke: #A80036; stroke-width: 1.875;" x1="8.75" x2="200" y1="195" y2="195"/><ellipse cx="21.25" cy="208.75" fill="#84BE84" rx="3.75" ry="3.75" style="stroke: #038048; stroke-width: 1.25;"/><text fill="#000000" font-family="sans-serif" font-size="13.75" lengthAdjust="spacingAndGlyphs" textLength="112.5" x="32.5" y="214.2737">createClient(client)</text><!--MD5=[db2a8cf534fad014d6d2a50fd3c594b1]
class CreateClientView--><rect fill="#FEFECE" filter="url(#f1umm85gtn41wg)" height="60" id="CreateClientView" style="stroke: #A80036; stroke-width: 1.875;" width="158.75" x="25" y="10"/><ellipse cx="43.75" cy="30" fill="#ADD1B2" rx="13.75" ry="13.75" style="stroke: #A80036; stroke-width: 1.25;"/><path d="M46.25,25.625 Q46.5039,25 46.7969,24.6875 Q47.0898,24.375 47.4219,24.375 Q48.0078,24.375 48.3789,24.7266 Q48.75,25.0781 48.75,25.8984 L48.75,27.8516 Q48.75,28.6719 48.3984,29.0234 Q48.0469,29.375 47.5,29.375 Q47.0117,29.375 46.6992,29.1602 Q46.3867,28.9453 46.25,28.3789 Q46.1914,27.9883 45.9766,27.7734 Q45.5859,27.3633 44.8828,27.1289 Q44.1797,26.875 43.4766,26.875 Q42.5977,26.875 41.8555,27.2266 Q41.1328,27.5781 40.5664,28.3594 Q40,29.1406 40,30.2148 L40,31.3672 Q40,32.6563 41.0547,33.5156 Q42.1094,34.375 43.9844,34.375 Q45.0977,34.375 45.8789,34.1211 Q46.3281,33.9844 46.8359,33.5352 Q47.168,33.2813 47.3438,33.2031 Q47.5195,33.125 47.7344,33.125 Q48.1445,33.125 48.4375,33.457 Q48.75,33.7695 48.75,34.2188 Q48.75,34.6484 48.3203,35.1563 Q47.6953,35.8984 46.6992,36.3086 Q45.3906,36.875 43.7891,36.875 Q41.9141,36.875 40.4102,36.1328 Q39.1992,35.5469 38.3398,34.2773 Q37.5,33.0078 37.5,31.5039 L37.5,30.1367 Q37.5,28.5742 38.2422,27.207 Q39.0039,25.8398 40.3125,25.1172 Q41.6406,24.375 43.125,24.375 Q44.0234,24.375 44.8047,24.6875 Q45.5859,25 46.25,25.625 Z "/><text fill="#000000" font-family="sans-serif" font-size="15" lengthAdjust="spacingAndGlyphs" textLength="118.75" x="61.25" y="36.1377">CreateClientView</text><line style="stroke: #A80036; stroke-width: 1.875;" x1="26.25" x2="182.5" y1="50" y2="50"/><line style="stroke: #A80036; stroke-width: 1.875;" x1="26.25" x2="182.5" y1="60" y2="60"/><!--MD5=[bec60ffd6aff97f42f6f937250fbd8b4]
class ClientsDao--><rect fill="#FEFECE" filter="url(#f1umm85gtn41wg)" height="60" id="ClientsDao" style="stroke: #A80036; stroke-width: 1.875;" width="117.5" x="45.625" y="297.5"/><ellipse cx="64.375" cy="317.5" fill="#ADD1B2" rx="13.75" ry="13.75" style="stroke: #A80036; stroke-width: 1.25;"/><path d="M66.875,313.125 Q67.1289,312.5 67.4219,312.1875 Q67.7148,311.875 68.0469,311.875 Q68.6328,311.875 69.0039,312.2266 Q69.375,312.5781 69.375,313.3984 L69.375,315.3516 Q69.375,316.1719 69.0234,316.5234 Q68.6719,316.875 68.125,316.875 Q67.6367,316.875 67.3242,316.6602 Q67.0117,316.4453 66.875,315.8789 Q66.8164,315.4883 66.6016,315.2734 Q66.2109,314.8633 65.5078,314.6289 Q64.8047,314.375 64.1016,314.375 Q63.2227,314.375 62.4805,314.7266 Q61.7578,315.0781 61.1914,315.8594 Q60.625,316.6406 60.625,317.7148 L60.625,318.8672 Q60.625,320.1563 61.6797,321.0156 Q62.7344,321.875 64.6094,321.875 Q65.7227,321.875 66.5039,321.6211 Q66.9531,321.4844 67.4609,321.0352 Q67.793,320.7813 67.9688,320.7031 Q68.1445,320.625 68.3594,320.625 Q68.7695,320.625 69.0625,320.957 Q69.375,321.2695 69.375,321.7188 Q69.375,322.1484 68.9453,322.6563 Q68.3203,323.3984 67.3242,323.8086 Q66.0156,324.375 64.4141,324.375 Q62.5391,324.375 61.0352,323.6328 Q59.8242,323.0469 58.9648,321.7773 Q58.125,320.5078 58.125,319.0039 L58.125,317.6367 Q58.125,316.0742 58.8672,314.707 Q59.6289,313.3398 60.9375,312.6172 Q62.2656,311.875 63.75,311.875 Q64.6484,311.875 65.4297,312.1875 Q66.2109,312.5 66.875,313.125 Z "/><text fill="#000000" font-family="sans-serif" font-size="15" lengthAdjust="spacingAndGlyphs" textLength="77.5" x="81.875" y="323.6377">ClientsDao</text><line style="stroke: #A80036; stroke-width: 1.875;" x1="46.875" x2="161.875" y1="337.5" y2="337.5"/><line style="stroke: #A80036; stroke-width: 1.875;" x1="46.875" x2="161.875" y1="347.5" y2="347.5"/><!--MD5=[419ac1d7506e2e2bc6533ce959fcd271]
link CreateClientView to CreateClientController--><path d="M104.375,70.175 C104.375,89.6313 104.375,115.6662 104.375,137.7725 " fill="none" id="CreateClientView-&gt;CreateClientController" style="stroke: #A80036; stroke-width: 1.25;"/><polygon fill="#A80036" points="104.375,144.495,109.375,133.245,104.375,138.245,99.375,133.245,104.375,144.495" style="stroke: #A80036; stroke-width: 1.25;"/><!--MD5=[61ff29af4497d8ec256e949cea26fdb3]
link CreateClientController to ClientsDao--><path d="M104.375,222.8525 C104.375,243.8503 104.375,269.8144 104.375,290.4713 " fill="none" id="CreateClientController-&gt;ClientsDao" style="stroke: #A80036; stroke-width: 1.25;"/><polygon fill="#A80036" points="104.375,297.2584,109.375,286.0084,104.375,291.0084,99.375,286.0084,104.375,297.2584" style="stroke: #A80036; stroke-width: 1.25;"/><!--MD5=[550c0645c5c411dadb990a696fbe573c]
@startuml
	class CreateClientController {
	+createClient(client)
	}

	CreateClientView - -> CreateClientController
	CreateClientController - -> ClientsDao
@enduml

PlantUML version 1.2020.09(Sun May 10 12:51:06 CEST 2020)
(GPL source distribution)
Java Runtime: OpenJDK Runtime Environment
JVM: OpenJDK 64-Bit Server VM
Java Version: 11.0.8+10-b1094.1
Operating System: Windows 10
Default Encoding: Cp1252
Language: en
Country: GB
--></g></svg>