<?xml version="1.0" encoding="UTF-8" standalone="no"?><svg xmlns="http://www.w3.org/2000/svg" xmlns:xlink="http://www.w3.org/1999/xlink" contentScriptType="application/ecmascript" contentStyleType="text/css" height="371.25px" preserveAspectRatio="none" style="width:326px;height:371px;" version="1.1" viewBox="0 0 326 371" width="326.25px" zoomAndPan="magnify"><defs><filter height="300%" id="f1u0ezpybf5r2z" width="300%" x="-1" y="-1"><feGaussianBlur result="blurOut" stdDeviation="2.5"/><feColorMatrix in="blurOut" result="blurOut2" type="matrix" values="0 0 0 0 0 0 0 0 0 0 0 0 0 0 0 0 0 0 .4 0"/><feOffset dx="5.0" dy="5.0" in="blurOut2" result="blurOut3"/><feBlend in="SourceGraphic" in2="blurOut3" mode="normal"/></filter></defs><g><!--MD5=[6eb95dae11a1ea7d98ae0342753f209d]
class FinishInterventionController--><rect fill="#FEFECE" filter="url(#f1u0ezpybf5r2z)" height="77.2949" id="FinishInterventionController" style="stroke: #A80036; stroke-width: 1.875;" width="300" x="12.5" y="145"/><ellipse cx="63.3125" cy="165" fill="#ADD1B2" rx="13.75" ry="13.75" style="stroke: #A80036; stroke-width: 1.25;"/><path d="M65.8125,160.625 Q66.0664,160 66.3594,159.6875 Q66.6523,159.375 66.9844,159.375 Q67.5703,159.375 67.9414,159.7266 Q68.3125,160.0781 68.3125,160.8984 L68.3125,162.8516 Q68.3125,163.6719 67.9609,164.0234 Q67.6094,164.375 67.0625,164.375 Q66.5742,164.375 66.2617,164.1602 Q65.9492,163.9453 65.8125,163.3789 Q65.7539,162.9883 65.5391,162.7734 Q65.1484,162.3633 64.4453,162.1289 Q63.7422,161.875 63.0391,161.875 Q62.1602,161.875 61.418,162.2266 Q60.6953,162.5781 60.1289,163.3594 Q59.5625,164.1406 59.5625,165.2148 L59.5625,166.3672 Q59.5625,167.6563 60.6172,168.5156 Q61.6719,169.375 63.5469,169.375 Q64.6602,169.375 65.4414,169.1211 Q65.8906,168.9844 66.3984,168.5352 Q66.7305,168.2813 66.9063,168.2031 Q67.082,168.125 67.2969,168.125 Q67.707,168.125 68,168.457 Q68.3125,168.7695 68.3125,169.2188 Q68.3125,169.6484 67.8828,170.1563 Q67.2578,170.8984 66.2617,171.3086 Q64.9531,171.875 63.3516,171.875 Q61.4766,171.875 59.9727,171.1328 Q58.7617,170.5469 57.9023,169.2773 Q57.0625,168.0078 57.0625,166.5039 L57.0625,165.1367 Q57.0625,163.5742 57.8047,162.207 Q58.5664,160.8398 59.875,160.1172 Q61.2031,159.375 62.6875,159.375 Q63.5859,159.375 64.3672,159.6875 Q65.1484,160 65.8125,160.625 Z "/><text fill="#000000" font-family="sans-serif" font-size="15" lengthAdjust="spacingAndGlyphs" textLength="188.75" x="87.9375" y="171.1377">FinishInterventionController</text><line style="stroke: #A80036; stroke-width: 1.875;" x1="13.75" x2="311.25" y1="185" y2="185"/><line style="stroke: #A80036; stroke-width: 1.875;" x1="13.75" x2="311.25" y1="195" y2="195"/><ellipse cx="26.25" cy="208.75" fill="#84BE84" rx="3.75" ry="3.75" style="stroke: #038048; stroke-width: 1.25;"/><text fill="#000000" font-family="sans-serif" font-size="13.75" lengthAdjust="spacingAndGlyphs" textLength="267.5" x="37.5" y="214.2737">finishIntervention(mechanicId, interventionId)</text><!--MD5=[bdd4672b4bae795639395c14a0d6d497]
class DashboardView--><rect fill="#FEFECE" filter="url(#f1u0ezpybf5r2z)" height="60" id="DashboardView" style="stroke: #A80036; stroke-width: 1.875;" width="150" x="87.5" y="10"/><ellipse cx="106.25" cy="30" fill="#ADD1B2" rx="13.75" ry="13.75" style="stroke: #A80036; stroke-width: 1.25;"/><path d="M108.75,25.625 Q109.0039,25 109.2969,24.6875 Q109.5898,24.375 109.9219,24.375 Q110.5078,24.375 110.8789,24.7266 Q111.25,25.0781 111.25,25.8984 L111.25,27.8516 Q111.25,28.6719 110.8984,29.0234 Q110.5469,29.375 110,29.375 Q109.5117,29.375 109.1992,29.1602 Q108.8867,28.9453 108.75,28.3789 Q108.6914,27.9883 108.4766,27.7734 Q108.0859,27.3633 107.3828,27.1289 Q106.6797,26.875 105.9766,26.875 Q105.0977,26.875 104.3555,27.2266 Q103.6328,27.5781 103.0664,28.3594 Q102.5,29.1406 102.5,30.2148 L102.5,31.3672 Q102.5,32.6563 103.5547,33.5156 Q104.6094,34.375 106.4844,34.375 Q107.5977,34.375 108.3789,34.1211 Q108.8281,33.9844 109.3359,33.5352 Q109.668,33.2813 109.8438,33.2031 Q110.0195,33.125 110.2344,33.125 Q110.6445,33.125 110.9375,33.457 Q111.25,33.7695 111.25,34.2188 Q111.25,34.6484 110.8203,35.1563 Q110.1953,35.8984 109.1992,36.3086 Q107.8906,36.875 106.2891,36.875 Q104.4141,36.875 102.9102,36.1328 Q101.6992,35.5469 100.8398,34.2773 Q100,33.0078 100,31.5039 L100,30.1367 Q100,28.5742 100.7422,27.207 Q101.5039,25.8398 102.8125,25.1172 Q104.1406,24.375 105.625,24.375 Q106.5234,24.375 107.3047,24.6875 Q108.0859,25 108.75,25.625 Z "/><text fill="#000000" font-family="sans-serif" font-size="15" lengthAdjust="spacingAndGlyphs" textLength="110" x="123.75" y="36.1377">DashboardView</text><line style="stroke: #A80036; stroke-width: 1.875;" x1="88.75" x2="236.25" y1="50" y2="50"/><line style="stroke: #A80036; stroke-width: 1.875;" x1="88.75" x2="236.25" y1="60" y2="60"/><!--MD5=[06d4c65dbd21248dc81c14552ce35f1c]
class MechanicsDao--><rect fill="#FEFECE" filter="url(#f1u0ezpybf5r2z)" height="60" id="MechanicsDao" style="stroke: #A80036; stroke-width: 1.875;" width="142.5" x="7.5" y="297.5"/><ellipse cx="26.25" cy="317.5" fill="#ADD1B2" rx="13.75" ry="13.75" style="stroke: #A80036; stroke-width: 1.25;"/><path d="M28.75,313.125 Q29.0039,312.5 29.2969,312.1875 Q29.5898,311.875 29.9219,311.875 Q30.5078,311.875 30.8789,312.2266 Q31.25,312.5781 31.25,313.3984 L31.25,315.3516 Q31.25,316.1719 30.8984,316.5234 Q30.5469,316.875 30,316.875 Q29.5117,316.875 29.1992,316.6602 Q28.8867,316.4453 28.75,315.8789 Q28.6914,315.4883 28.4766,315.2734 Q28.0859,314.8633 27.3828,314.6289 Q26.6797,314.375 25.9766,314.375 Q25.0977,314.375 24.3555,314.7266 Q23.6328,315.0781 23.0664,315.8594 Q22.5,316.6406 22.5,317.7148 L22.5,318.8672 Q22.5,320.1563 23.5547,321.0156 Q24.6094,321.875 26.4844,321.875 Q27.5977,321.875 28.3789,321.6211 Q28.8281,321.4844 29.3359,321.0352 Q29.668,320.7813 29.8438,320.7031 Q30.0195,320.625 30.2344,320.625 Q30.6445,320.625 30.9375,320.957 Q31.25,321.2695 31.25,321.7188 Q31.25,322.1484 30.8203,322.6563 Q30.1953,323.3984 29.1992,323.8086 Q27.8906,324.375 26.2891,324.375 Q24.4141,324.375 22.9102,323.6328 Q21.6992,323.0469 20.8398,321.7773 Q20,320.5078 20,319.0039 L20,317.6367 Q20,316.0742 20.7422,314.707 Q21.5039,313.3398 22.8125,312.6172 Q24.1406,311.875 25.625,311.875 Q26.5234,311.875 27.3047,312.1875 Q28.0859,312.5 28.75,313.125 Z "/><text fill="#000000" font-family="sans-serif" font-size="15" lengthAdjust="spacingAndGlyphs" textLength="102.5" x="43.75" y="323.6377">MechanicsDao</text><line style="stroke: #A80036; stroke-width: 1.875;" x1="8.75" x2="148.75" y1="337.5" y2="337.5"/><line style="stroke: #A80036; stroke-width: 1.875;" x1="8.75" x2="148.75" y1="347.5" y2="347.5"/><!--MD5=[1e29ec7aa20142996304403e448274ec]
class Mechanic--><rect fill="#FEFECE" filter="url(#f1u0ezpybf5r2z)" height="60" id="Mechanic" style="stroke: #A80036; stroke-width: 1.875;" width="105" x="193.75" y="297.5"/><ellipse cx="212.5" cy="317.5" fill="#ADD1B2" rx="13.75" ry="13.75" style="stroke: #A80036; stroke-width: 1.25;"/><path d="M215,313.125 Q215.2539,312.5 215.5469,312.1875 Q215.8398,311.875 216.1719,311.875 Q216.7578,311.875 217.1289,312.2266 Q217.5,312.5781 217.5,313.3984 L217.5,315.3516 Q217.5,316.1719 217.1484,316.5234 Q216.7969,316.875 216.25,316.875 Q215.7617,316.875 215.4492,316.6602 Q215.1367,316.4453 215,315.8789 Q214.9414,315.4883 214.7266,315.2734 Q214.3359,314.8633 213.6328,314.6289 Q212.9297,314.375 212.2266,314.375 Q211.3477,314.375 210.6055,314.7266 Q209.8828,315.0781 209.3164,315.8594 Q208.75,316.6406 208.75,317.7148 L208.75,318.8672 Q208.75,320.1563 209.8047,321.0156 Q210.8594,321.875 212.7344,321.875 Q213.8477,321.875 214.6289,321.6211 Q215.0781,321.4844 215.5859,321.0352 Q215.918,320.7813 216.0938,320.7031 Q216.2695,320.625 216.4844,320.625 Q216.8945,320.625 217.1875,320.957 Q217.5,321.2695 217.5,321.7188 Q217.5,322.1484 217.0703,322.6563 Q216.4453,323.3984 215.4492,323.8086 Q214.1406,324.375 212.5391,324.375 Q210.6641,324.375 209.1602,323.6328 Q207.9492,323.0469 207.0898,321.7773 Q206.25,320.5078 206.25,319.0039 L206.25,317.6367 Q206.25,316.0742 206.9922,314.707 Q207.7539,313.3398 209.0625,312.6172 Q210.3906,311.875 211.875,311.875 Q212.7734,311.875 213.5547,312.1875 Q214.3359,312.5 215,313.125 Z "/><text fill="#000000" font-family="sans-serif" font-size="15" lengthAdjust="spacingAndGlyphs" textLength="65" x="230" y="323.6377">Mechanic</text><line style="stroke: #A80036; stroke-width: 1.875;" x1="195" x2="297.5" y1="337.5" y2="337.5"/><line style="stroke: #A80036; stroke-width: 1.875;" x1="195" x2="297.5" y1="347.5" y2="347.5"/><!--MD5=[eeefc553d70b6ba1481a1732880404fd]
link DashboardView to FinishInterventionController--><path d="M162.5,70.175 C162.5,89.6313 162.5,115.6662 162.5,137.7725 " fill="none" id="DashboardView-&gt;FinishInterventionController" style="stroke: #A80036; stroke-width: 1.25;"/><polygon fill="#A80036" points="162.5,144.495,167.5,133.245,162.5,138.245,157.5,133.245,162.5,144.495" style="stroke: #A80036; stroke-width: 1.25;"/><!--MD5=[439715382970c7d3afad25ca24fd85b6]
link FinishInterventionController to MechanicsDao--><path d="M140.0563,222.8525 C127.39,244.2155 111.6755,270.7189 99.3278,291.5441 " fill="none" id="FinishInterventionController-&gt;MechanicsDao" style="stroke: #A80036; stroke-width: 1.25;"/><polygon fill="#A80036" points="95.9398,297.2584,105.9783,290.1317,99.1274,291.8824,97.3767,285.0315,95.9398,297.2584" style="stroke: #A80036; stroke-width: 1.25;"/><!--MD5=[c46c8cf7119e5361b4dcdd3ee5231ce5]
link FinishInterventionController to Mechanic--><path d="M184.9438,222.8525 C197.61,244.2155 213.325,270.7189 225.6725,291.5441 " fill="none" id="FinishInterventionController-&gt;Mechanic" style="stroke: #A80036; stroke-width: 1.25; stroke-dasharray: 7.0,7.0;"/><polygon fill="#A80036" points="229.06,297.2584,227.622,285.0316,225.8719,291.8826,219.0208,290.1326,229.06,297.2584" style="stroke: #A80036; stroke-width: 1.25;"/><text fill="#000000" font-family="sans-serif" font-size="16.25" lengthAdjust="spacingAndGlyphs" textLength="8.75" x="214.784" y="283.8717">1</text><!--MD5=[33f825923147d9708f4ca5918e0dedca]
@startuml
	class FinishInterventionController {
	+finishIntervention(mechanicId, interventionId)
	}

	DashboardView - -> FinishInterventionController
	FinishInterventionController - -> MechanicsDao
	FinishInterventionController ..> "1" Mechanic
@enduml

PlantUML version 1.2020.09(Sun May 10 12:51:06 CEST 2020)
(GPL source distribution)
Java Runtime: OpenJDK Runtime Environment
JVM: OpenJDK 64-Bit Server VM
Java Version: 11.0.8+10-b1094.1
Operating System: Windows 10
Default Encoding: Cp1252
Language: en
Country: GB
--></g></svg>