<?xml version="1.0" encoding="UTF-8" standalone="no"?><svg xmlns="http://www.w3.org/2000/svg" xmlns:xlink="http://www.w3.org/1999/xlink" contentScriptType="application/ecmascript" contentStyleType="text/css" height="388.75px" preserveAspectRatio="none" style="width:252px;height:388px;" version="1.1" viewBox="0 0 252 388" width="252.5px" zoomAndPan="magnify"><defs><filter height="300%" id="ff30sbxqira0d" width="300%" x="-1" y="-1"><feGaussianBlur result="blurOut" stdDeviation="2.5"/><feColorMatrix in="blurOut" result="blurOut2" type="matrix" values="0 0 0 0 0 0 0 0 0 0 0 0 0 0 0 0 0 0 .4 0"/><feOffset dx="5.0" dy="5.0" in="blurOut2" result="blurOut3"/><feBlend in="SourceGraphic" in2="blurOut3" mode="normal"/></filter></defs><g><!--MD5=[5103e3471bf31fadd75905833dcba617]
class LoginController--><rect fill="#FEFECE" filter="url(#ff30sbxqira0d)" height="94.5898" id="LoginController" style="stroke: #A80036; stroke-width: 1.875;" width="231.25" x="7.5" y="145"/><ellipse cx="64.6875" cy="165" fill="#ADD1B2" rx="13.75" ry="13.75" style="stroke: #A80036; stroke-width: 1.25;"/><path d="M67.1875,160.625 Q67.4414,160 67.7344,159.6875 Q68.0273,159.375 68.3594,159.375 Q68.9453,159.375 69.3164,159.7266 Q69.6875,160.0781 69.6875,160.8984 L69.6875,162.8516 Q69.6875,163.6719 69.3359,164.0234 Q68.9844,164.375 68.4375,164.375 Q67.9492,164.375 67.6367,164.1602 Q67.3242,163.9453 67.1875,163.3789 Q67.1289,162.9883 66.9141,162.7734 Q66.5234,162.3633 65.8203,162.1289 Q65.1172,161.875 64.4141,161.875 Q63.5352,161.875 62.793,162.2266 Q62.0703,162.5781 61.5039,163.3594 Q60.9375,164.1406 60.9375,165.2148 L60.9375,166.3672 Q60.9375,167.6563 61.9922,168.5156 Q63.0469,169.375 64.9219,169.375 Q66.0352,169.375 66.8164,169.1211 Q67.2656,168.9844 67.7734,168.5352 Q68.1055,168.2813 68.2813,168.2031 Q68.457,168.125 68.6719,168.125 Q69.082,168.125 69.375,168.457 Q69.6875,168.7695 69.6875,169.2188 Q69.6875,169.6484 69.2578,170.1563 Q68.6328,170.8984 67.6367,171.3086 Q66.3281,171.875 64.7266,171.875 Q62.8516,171.875 61.3477,171.1328 Q60.1367,170.5469 59.2773,169.2773 Q58.4375,168.0078 58.4375,166.5039 L58.4375,165.1367 Q58.4375,163.5742 59.1797,162.207 Q59.9414,160.8398 61.25,160.1172 Q62.5781,159.375 64.0625,159.375 Q64.9609,159.375 65.7422,159.6875 Q66.5234,160 67.1875,160.625 Z "/><text fill="#000000" font-family="sans-serif" font-size="15" lengthAdjust="spacingAndGlyphs" textLength="106.25" x="90.3125" y="171.1377">LoginController</text><line style="stroke: #A80036; stroke-width: 1.875;" x1="8.75" x2="237.5" y1="185" y2="185"/><line style="stroke: #A80036; stroke-width: 1.875;" x1="8.75" x2="237.5" y1="195" y2="195"/><ellipse cx="21.25" cy="208.75" fill="#84BE84" rx="3.75" ry="3.75" style="stroke: #038048; stroke-width: 1.25;"/><text fill="#000000" font-family="sans-serif" font-size="13.75" lengthAdjust="spacingAndGlyphs" textLength="198.75" x="32.5" y="214.2737">searchBy(username, password)</text><ellipse cx="21.25" cy="226.0449" fill="#84BE84" rx="3.75" ry="3.75" style="stroke: #038048; stroke-width: 1.25;"/><text fill="#000000" font-family="sans-serif" font-size="13.75" lengthAdjust="spacingAndGlyphs" textLength="167.5" x="32.5" y="231.5686">login(username, password)</text><!--MD5=[8309b17d830045003489ce4c308a9814]
class LoginView--><rect fill="#FEFECE" filter="url(#ff30sbxqira0d)" height="60" id="LoginView" style="stroke: #A80036; stroke-width: 1.875;" width="111.25" x="67.5" y="10"/><ellipse cx="86.25" cy="30" fill="#ADD1B2" rx="13.75" ry="13.75" style="stroke: #A80036; stroke-width: 1.25;"/><path d="M88.75,25.625 Q89.0039,25 89.2969,24.6875 Q89.5898,24.375 89.9219,24.375 Q90.5078,24.375 90.8789,24.7266 Q91.25,25.0781 91.25,25.8984 L91.25,27.8516 Q91.25,28.6719 90.8984,29.0234 Q90.5469,29.375 90,29.375 Q89.5117,29.375 89.1992,29.1602 Q88.8867,28.9453 88.75,28.3789 Q88.6914,27.9883 88.4766,27.7734 Q88.0859,27.3633 87.3828,27.1289 Q86.6797,26.875 85.9766,26.875 Q85.0977,26.875 84.3555,27.2266 Q83.6328,27.5781 83.0664,28.3594 Q82.5,29.1406 82.5,30.2148 L82.5,31.3672 Q82.5,32.6563 83.5547,33.5156 Q84.6094,34.375 86.4844,34.375 Q87.5977,34.375 88.3789,34.1211 Q88.8281,33.9844 89.3359,33.5352 Q89.668,33.2813 89.8438,33.2031 Q90.0195,33.125 90.2344,33.125 Q90.6445,33.125 90.9375,33.457 Q91.25,33.7695 91.25,34.2188 Q91.25,34.6484 90.8203,35.1563 Q90.1953,35.8984 89.1992,36.3086 Q87.8906,36.875 86.2891,36.875 Q84.4141,36.875 82.9102,36.1328 Q81.6992,35.5469 80.8398,34.2773 Q80,33.0078 80,31.5039 L80,30.1367 Q80,28.5742 80.7422,27.207 Q81.5039,25.8398 82.8125,25.1172 Q84.1406,24.375 85.625,24.375 Q86.5234,24.375 87.3047,24.6875 Q88.0859,25 88.75,25.625 Z "/><text fill="#000000" font-family="sans-serif" font-size="15" lengthAdjust="spacingAndGlyphs" textLength="71.25" x="103.75" y="36.1377">LoginView</text><line style="stroke: #A80036; stroke-width: 1.875;" x1="68.75" x2="177.5" y1="50" y2="50"/><line style="stroke: #A80036; stroke-width: 1.875;" x1="68.75" x2="177.5" y1="60" y2="60"/><!--MD5=[06d4c65dbd21248dc81c14552ce35f1c]
class MechanicsDao--><rect fill="#FEFECE" filter="url(#ff30sbxqira0d)" height="60" id="MechanicsDao" style="stroke: #A80036; stroke-width: 1.875;" width="142.5" x="51.875" y="315"/><ellipse cx="70.625" cy="335" fill="#ADD1B2" rx="13.75" ry="13.75" style="stroke: #A80036; stroke-width: 1.25;"/><path d="M73.125,330.625 Q73.3789,330 73.6719,329.6875 Q73.9648,329.375 74.2969,329.375 Q74.8828,329.375 75.2539,329.7266 Q75.625,330.0781 75.625,330.8984 L75.625,332.8516 Q75.625,333.6719 75.2734,334.0234 Q74.9219,334.375 74.375,334.375 Q73.8867,334.375 73.5742,334.1602 Q73.2617,333.9453 73.125,333.3789 Q73.0664,332.9883 72.8516,332.7734 Q72.4609,332.3633 71.7578,332.1289 Q71.0547,331.875 70.3516,331.875 Q69.4727,331.875 68.7305,332.2266 Q68.0078,332.5781 67.4414,333.3594 Q66.875,334.1406 66.875,335.2148 L66.875,336.3672 Q66.875,337.6563 67.9297,338.5156 Q68.9844,339.375 70.8594,339.375 Q71.9727,339.375 72.7539,339.1211 Q73.2031,338.9844 73.7109,338.5352 Q74.043,338.2813 74.2188,338.2031 Q74.3945,338.125 74.6094,338.125 Q75.0195,338.125 75.3125,338.457 Q75.625,338.7695 75.625,339.2188 Q75.625,339.6484 75.1953,340.1563 Q74.5703,340.8984 73.5742,341.3086 Q72.2656,341.875 70.6641,341.875 Q68.7891,341.875 67.2852,341.1328 Q66.0742,340.5469 65.2148,339.2773 Q64.375,338.0078 64.375,336.5039 L64.375,335.1367 Q64.375,333.5742 65.1172,332.207 Q65.8789,330.8398 67.1875,330.1172 Q68.5156,329.375 70,329.375 Q70.8984,329.375 71.6797,329.6875 Q72.4609,330 73.125,330.625 Z "/><text fill="#000000" font-family="sans-serif" font-size="15" lengthAdjust="spacingAndGlyphs" textLength="102.5" x="88.125" y="341.1377">MechanicsDao</text><line style="stroke: #A80036; stroke-width: 1.875;" x1="53.125" x2="193.125" y1="355" y2="355"/><line style="stroke: #A80036; stroke-width: 1.875;" x1="53.125" x2="193.125" y1="365" y2="365"/><!--MD5=[00612bbf082436bfb3978d0560ce9303]
link LoginView to LoginController--><path d="M123.125,70.1713 C123.125,89.47 123.125,115.415 123.125,138.3363 " fill="none" id="LoginView-&gt;LoginController" style="stroke: #A80036; stroke-width: 1.25;"/><polygon fill="#A80036" points="123.125,144.7137,128.125,133.4637,123.125,138.4637,118.125,133.4637,123.125,144.7137" style="stroke: #A80036; stroke-width: 1.25;"/><!--MD5=[7c7947527e80c8b754fb1e91c7a1da12]
link LoginController to MechanicsDao--><path d="M123.125,240.3888 C123.125,262.178 123.125,287.7127 123.125,307.9506 " fill="none" id="LoginController-&gt;MechanicsDao" style="stroke: #A80036; stroke-width: 1.25;"/><polygon fill="#A80036" points="123.125,314.5978,128.125,303.3478,123.125,308.3478,118.125,303.3478,123.125,314.5978" style="stroke: #A80036; stroke-width: 1.25;"/><!--MD5=[3cb488ea14d9401512298a42d073d066]
@startuml
	class LoginController {
	+searchBy(username, password)
	+login(username, password)
	}

	LoginView - -> LoginController
	LoginController - -> MechanicsDao
@enduml

PlantUML version 1.2020.09(Sun May 10 12:51:06 CEST 2020)
(GPL source distribution)
Java Runtime: OpenJDK Runtime Environment
JVM: OpenJDK 64-Bit Server VM
Java Version: 11.0.8+10-b1094.1
Operating System: Windows 10
Default Encoding: Cp1252
Language: en
Country: GB
--></g></svg>