<?xml version="1.0" encoding="UTF-8" standalone="no"?><svg xmlns="http://www.w3.org/2000/svg" xmlns:xlink="http://www.w3.org/1999/xlink" contentScriptType="application/ecmascript" contentStyleType="text/css" height="388.75px" preserveAspectRatio="none" style="width:348px;height:388px;" version="1.1" viewBox="0 0 348 388" width="348.75px" zoomAndPan="magnify"><defs><filter height="300%" id="f1qnvzwuzxmnjl" width="300%" x="-1" y="-1"><feGaussianBlur result="blurOut" stdDeviation="2.5"/><feColorMatrix in="blurOut" result="blurOut2" type="matrix" values="0 0 0 0 0 0 0 0 0 0 0 0 0 0 0 0 0 0 .4 0"/><feOffset dx="5.0" dy="5.0" in="blurOut2" result="blurOut3"/><feBlend in="SourceGraphic" in2="blurOut3" mode="normal"/></filter></defs><g><!--MD5=[a16c6c6b4acf5b7bf94ccf4f6a9af788]
class OpenDashboardController--><rect fill="#FEFECE" filter="url(#f1qnvzwuzxmnjl)" height="94.5898" id="OpenDashboardController" style="stroke: #A80036; stroke-width: 1.875;" width="268.75" x="29.375" y="145"/><ellipse cx="68.9375" cy="165" fill="#ADD1B2" rx="13.75" ry="13.75" style="stroke: #A80036; stroke-width: 1.25;"/><path d="M71.4375,160.625 Q71.6914,160 71.9844,159.6875 Q72.2773,159.375 72.6094,159.375 Q73.1953,159.375 73.5664,159.7266 Q73.9375,160.0781 73.9375,160.8984 L73.9375,162.8516 Q73.9375,163.6719 73.5859,164.0234 Q73.2344,164.375 72.6875,164.375 Q72.1992,164.375 71.8867,164.1602 Q71.5742,163.9453 71.4375,163.3789 Q71.3789,162.9883 71.1641,162.7734 Q70.7734,162.3633 70.0703,162.1289 Q69.3672,161.875 68.6641,161.875 Q67.7852,161.875 67.043,162.2266 Q66.3203,162.5781 65.7539,163.3594 Q65.1875,164.1406 65.1875,165.2148 L65.1875,166.3672 Q65.1875,167.6563 66.2422,168.5156 Q67.2969,169.375 69.1719,169.375 Q70.2852,169.375 71.0664,169.1211 Q71.5156,168.9844 72.0234,168.5352 Q72.3555,168.2813 72.5313,168.2031 Q72.707,168.125 72.9219,168.125 Q73.332,168.125 73.625,168.457 Q73.9375,168.7695 73.9375,169.2188 Q73.9375,169.6484 73.5078,170.1563 Q72.8828,170.8984 71.8867,171.3086 Q70.5781,171.875 68.9766,171.875 Q67.1016,171.875 65.5977,171.1328 Q64.3867,170.5469 63.5273,169.2773 Q62.6875,168.0078 62.6875,166.5039 L62.6875,165.1367 Q62.6875,163.5742 63.4297,162.207 Q64.1914,160.8398 65.5,160.1172 Q66.8281,159.375 68.3125,159.375 Q69.2109,159.375 69.9922,159.6875 Q70.7734,160 71.4375,160.625 Z "/><text fill="#000000" font-family="sans-serif" font-size="15" lengthAdjust="spacingAndGlyphs" textLength="182.5" x="91.0625" y="171.1377">OpenDashboardController</text><line style="stroke: #A80036; stroke-width: 1.875;" x1="30.625" x2="296.875" y1="185" y2="185"/><line style="stroke: #A80036; stroke-width: 1.875;" x1="30.625" x2="296.875" y1="195" y2="195"/><ellipse cx="43.125" cy="208.75" fill="#84BE84" rx="3.75" ry="3.75" style="stroke: #038048; stroke-width: 1.25;"/><text fill="#000000" font-family="sans-serif" font-size="13.75" lengthAdjust="spacingAndGlyphs" textLength="150" x="54.375" y="214.2737">searchVehicle(vehicleId)</text><ellipse cx="43.125" cy="226.0449" fill="#84BE84" rx="3.75" ry="3.75" style="stroke: #038048; stroke-width: 1.25;"/><text fill="#000000" font-family="sans-serif" font-size="13.75" lengthAdjust="spacingAndGlyphs" textLength="236.25" x="54.375" y="231.5686">searchActiveInterventions(mechanicId)</text><!--MD5=[bdd4672b4bae795639395c14a0d6d497]
class DashboardView--><rect fill="#FEFECE" filter="url(#f1qnvzwuzxmnjl)" height="60" id="DashboardView" style="stroke: #A80036; stroke-width: 1.875;" width="150" x="88.75" y="10"/><ellipse cx="107.5" cy="30" fill="#ADD1B2" rx="13.75" ry="13.75" style="stroke: #A80036; stroke-width: 1.25;"/><path d="M110,25.625 Q110.2539,25 110.5469,24.6875 Q110.8398,24.375 111.1719,24.375 Q111.7578,24.375 112.1289,24.7266 Q112.5,25.0781 112.5,25.8984 L112.5,27.8516 Q112.5,28.6719 112.1484,29.0234 Q111.7969,29.375 111.25,29.375 Q110.7617,29.375 110.4492,29.1602 Q110.1367,28.9453 110,28.3789 Q109.9414,27.9883 109.7266,27.7734 Q109.3359,27.3633 108.6328,27.1289 Q107.9297,26.875 107.2266,26.875 Q106.3477,26.875 105.6055,27.2266 Q104.8828,27.5781 104.3164,28.3594 Q103.75,29.1406 103.75,30.2148 L103.75,31.3672 Q103.75,32.6563 104.8047,33.5156 Q105.8594,34.375 107.7344,34.375 Q108.8477,34.375 109.6289,34.1211 Q110.0781,33.9844 110.5859,33.5352 Q110.918,33.2813 111.0938,33.2031 Q111.2695,33.125 111.4844,33.125 Q111.8945,33.125 112.1875,33.457 Q112.5,33.7695 112.5,34.2188 Q112.5,34.6484 112.0703,35.1563 Q111.4453,35.8984 110.4492,36.3086 Q109.1406,36.875 107.5391,36.875 Q105.6641,36.875 104.1602,36.1328 Q102.9492,35.5469 102.0898,34.2773 Q101.25,33.0078 101.25,31.5039 L101.25,30.1367 Q101.25,28.5742 101.9922,27.207 Q102.7539,25.8398 104.0625,25.1172 Q105.3906,24.375 106.875,24.375 Q107.7734,24.375 108.5547,24.6875 Q109.3359,25 110,25.625 Z "/><text fill="#000000" font-family="sans-serif" font-size="15" lengthAdjust="spacingAndGlyphs" textLength="110" x="125" y="36.1377">DashboardView</text><line style="stroke: #A80036; stroke-width: 1.875;" x1="90" x2="237.5" y1="50" y2="50"/><line style="stroke: #A80036; stroke-width: 1.875;" x1="90" x2="237.5" y1="60" y2="60"/><!--MD5=[a39ad64172e37f40d93cf41979371d42]
class VehiclesDao--><rect fill="#FEFECE" filter="url(#f1qnvzwuzxmnjl)" height="60" id="VehiclesDao" style="stroke: #A80036; stroke-width: 1.875;" width="127.5" x="7.5" y="315"/><ellipse cx="26.25" cy="335" fill="#ADD1B2" rx="13.75" ry="13.75" style="stroke: #A80036; stroke-width: 1.25;"/><path d="M28.75,330.625 Q29.0039,330 29.2969,329.6875 Q29.5898,329.375 29.9219,329.375 Q30.5078,329.375 30.8789,329.7266 Q31.25,330.0781 31.25,330.8984 L31.25,332.8516 Q31.25,333.6719 30.8984,334.0234 Q30.5469,334.375 30,334.375 Q29.5117,334.375 29.1992,334.1602 Q28.8867,333.9453 28.75,333.3789 Q28.6914,332.9883 28.4766,332.7734 Q28.0859,332.3633 27.3828,332.1289 Q26.6797,331.875 25.9766,331.875 Q25.0977,331.875 24.3555,332.2266 Q23.6328,332.5781 23.0664,333.3594 Q22.5,334.1406 22.5,335.2148 L22.5,336.3672 Q22.5,337.6563 23.5547,338.5156 Q24.6094,339.375 26.4844,339.375 Q27.5977,339.375 28.3789,339.1211 Q28.8281,338.9844 29.3359,338.5352 Q29.668,338.2813 29.8438,338.2031 Q30.0195,338.125 30.2344,338.125 Q30.6445,338.125 30.9375,338.457 Q31.25,338.7695 31.25,339.2188 Q31.25,339.6484 30.8203,340.1563 Q30.1953,340.8984 29.1992,341.3086 Q27.8906,341.875 26.2891,341.875 Q24.4141,341.875 22.9102,341.1328 Q21.6992,340.5469 20.8398,339.2773 Q20,338.0078 20,336.5039 L20,335.1367 Q20,333.5742 20.7422,332.207 Q21.5039,330.8398 22.8125,330.1172 Q24.1406,329.375 25.625,329.375 Q26.5234,329.375 27.3047,329.6875 Q28.0859,330 28.75,330.625 Z "/><text fill="#000000" font-family="sans-serif" font-size="15" lengthAdjust="spacingAndGlyphs" textLength="87.5" x="43.75" y="341.1377">VehiclesDao</text><line style="stroke: #A80036; stroke-width: 1.875;" x1="8.75" x2="133.75" y1="355" y2="355"/><line style="stroke: #A80036; stroke-width: 1.875;" x1="8.75" x2="133.75" y1="365" y2="365"/><!--MD5=[abb4079e3c36e1e70999512b130a9027]
class InterventionsDao--><rect fill="#FEFECE" filter="url(#f1qnvzwuzxmnjl)" height="60" id="InterventionsDao" style="stroke: #A80036; stroke-width: 1.875;" width="156.25" x="179.375" y="315"/><ellipse cx="198.125" cy="335" fill="#ADD1B2" rx="13.75" ry="13.75" style="stroke: #A80036; stroke-width: 1.25;"/><path d="M200.625,330.625 Q200.8789,330 201.1719,329.6875 Q201.4648,329.375 201.7969,329.375 Q202.3828,329.375 202.7539,329.7266 Q203.125,330.0781 203.125,330.8984 L203.125,332.8516 Q203.125,333.6719 202.7734,334.0234 Q202.4219,334.375 201.875,334.375 Q201.3867,334.375 201.0742,334.1602 Q200.7617,333.9453 200.625,333.3789 Q200.5664,332.9883 200.3516,332.7734 Q199.9609,332.3633 199.2578,332.1289 Q198.5547,331.875 197.8516,331.875 Q196.9727,331.875 196.2305,332.2266 Q195.5078,332.5781 194.9414,333.3594 Q194.375,334.1406 194.375,335.2148 L194.375,336.3672 Q194.375,337.6563 195.4297,338.5156 Q196.4844,339.375 198.3594,339.375 Q199.4727,339.375 200.2539,339.1211 Q200.7031,338.9844 201.2109,338.5352 Q201.543,338.2813 201.7188,338.2031 Q201.8945,338.125 202.1094,338.125 Q202.5195,338.125 202.8125,338.457 Q203.125,338.7695 203.125,339.2188 Q203.125,339.6484 202.6953,340.1563 Q202.0703,340.8984 201.0742,341.3086 Q199.7656,341.875 198.1641,341.875 Q196.2891,341.875 194.7852,341.1328 Q193.5742,340.5469 192.7148,339.2773 Q191.875,338.0078 191.875,336.5039 L191.875,335.1367 Q191.875,333.5742 192.6172,332.207 Q193.3789,330.8398 194.6875,330.1172 Q196.0156,329.375 197.5,329.375 Q198.3984,329.375 199.1797,329.6875 Q199.9609,330 200.625,330.625 Z "/><text fill="#000000" font-family="sans-serif" font-size="15" lengthAdjust="spacingAndGlyphs" textLength="116.25" x="215.625" y="341.1377">InterventionsDao</text><line style="stroke: #A80036; stroke-width: 1.875;" x1="180.625" x2="334.375" y1="355" y2="355"/><line style="stroke: #A80036; stroke-width: 1.875;" x1="180.625" x2="334.375" y1="365" y2="365"/><!--MD5=[882b6091aa90f951708d505c700f216f]
link DashboardView to OpenDashboardController--><path d="M163.75,70.1713 C163.75,89.47 163.75,115.415 163.75,138.3363 " fill="none" id="DashboardView-&gt;OpenDashboardController" style="stroke: #A80036; stroke-width: 1.25;"/><polygon fill="#A80036" points="163.75,144.7137,168.75,133.4637,163.75,138.4637,158.75,133.4637,163.75,144.7137" style="stroke: #A80036; stroke-width: 1.25;"/><!--MD5=[f90df2a441ff62028a9ff9fb470f1839]
link OpenDashboardController to VehiclesDao--><path d="M134.99,240.3888 C121.319,262.557 105.2579,288.6021 92.6781,309.0016 " fill="none" id="OpenDashboardController-&gt;VehiclesDao" style="stroke: #A80036; stroke-width: 1.25;"/><polygon fill="#A80036" points="89.2273,314.5978,99.3881,307.6465,92.5078,309.2779,90.8764,302.3976,89.2273,314.5978" style="stroke: #A80036; stroke-width: 1.25;"/><!--MD5=[8fc9e3e41b5cc92e68ef14f9300cfc11]
link OpenDashboardController to InterventionsDao--><path d="M192.8987,240.3888 C206.7538,262.557 223.0325,288.6021 235.7825,309.0016 " fill="none" id="OpenDashboardController-&gt;InterventionsDao" style="stroke: #A80036; stroke-width: 1.25;"/><polygon fill="#A80036" points="239.28,314.5978,237.5575,302.4078,235.9675,309.2978,229.0775,307.7078,239.28,314.5978" style="stroke: #A80036; stroke-width: 1.25;"/><!--MD5=[d09dead2c6c4c72922fb03dc684248f3]
@startuml
	class OpenDashboardController {
	+searchVehicle(vehicleId)
	+searchActiveInterventions(mechanicId)
	}

	DashboardView - -> OpenDashboardController
	OpenDashboardController - -> VehiclesDao
	OpenDashboardController - -> InterventionsDao
@enduml

PlantUML version 1.2020.09(Sun May 10 12:51:06 CEST 2020)
(GPL source distribution)
Java Runtime: OpenJDK Runtime Environment
JVM: OpenJDK 64-Bit Server VM
Java Version: 11.0.8+10-b1094.1
Operating System: Windows 10
Default Encoding: Cp1252
Language: en
Country: GB
--></g></svg>