<?xml version="1.0" encoding="UTF-8" standalone="no"?><svg xmlns="http://www.w3.org/2000/svg" xmlns:xlink="http://www.w3.org/1999/xlink" contentScriptType="application/ecmascript" contentStyleType="text/css" height="406.25px" preserveAspectRatio="none" style="width:393px;height:406px;" version="1.1" viewBox="0 0 393 406" width="393.75px" zoomAndPan="magnify"><defs><filter height="300%" id="fksv3ovlpo1er" width="300%" x="-1" y="-1"><feGaussianBlur result="blurOut" stdDeviation="2.5"/><feColorMatrix in="blurOut" result="blurOut2" type="matrix" values="0 0 0 0 0 0 0 0 0 0 0 0 0 0 0 0 0 0 .4 0"/><feOffset dx="5.0" dy="5.0" in="blurOut2" result="blurOut3"/><feBlend in="SourceGraphic" in2="blurOut3" mode="normal"/></filter></defs><g><!--MD5=[a8a9ef21f02945362a565f5006e12261]
class OpenVehiclesController--><rect fill="#FEFECE" filter="url(#fksv3ovlpo1er)" height="111.8848" id="OpenVehiclesController" style="stroke: #A80036; stroke-width: 1.875;" width="203.75" x="75" y="145"/><ellipse cx="93.75" cy="165" fill="#ADD1B2" rx="13.75" ry="13.75" style="stroke: #A80036; stroke-width: 1.25;"/><path d="M96.25,160.625 Q96.5039,160 96.7969,159.6875 Q97.0898,159.375 97.4219,159.375 Q98.0078,159.375 98.3789,159.7266 Q98.75,160.0781 98.75,160.8984 L98.75,162.8516 Q98.75,163.6719 98.3984,164.0234 Q98.0469,164.375 97.5,164.375 Q97.0117,164.375 96.6992,164.1602 Q96.3867,163.9453 96.25,163.3789 Q96.1914,162.9883 95.9766,162.7734 Q95.5859,162.3633 94.8828,162.1289 Q94.1797,161.875 93.4766,161.875 Q92.5977,161.875 91.8555,162.2266 Q91.1328,162.5781 90.5664,163.3594 Q90,164.1406 90,165.2148 L90,166.3672 Q90,167.6563 91.0547,168.5156 Q92.1094,169.375 93.9844,169.375 Q95.0977,169.375 95.8789,169.1211 Q96.3281,168.9844 96.8359,168.5352 Q97.168,168.2813 97.3438,168.2031 Q97.5195,168.125 97.7344,168.125 Q98.1445,168.125 98.4375,168.457 Q98.75,168.7695 98.75,169.2188 Q98.75,169.6484 98.3203,170.1563 Q97.6953,170.8984 96.6992,171.3086 Q95.3906,171.875 93.7891,171.875 Q91.9141,171.875 90.4102,171.1328 Q89.1992,170.5469 88.3398,169.2773 Q87.5,168.0078 87.5,166.5039 L87.5,165.1367 Q87.5,163.5742 88.2422,162.207 Q89.0039,160.8398 90.3125,160.1172 Q91.6406,159.375 93.125,159.375 Q94.0234,159.375 94.8047,159.6875 Q95.5859,160 96.25,160.625 Z "/><text fill="#000000" font-family="sans-serif" font-size="15" lengthAdjust="spacingAndGlyphs" textLength="163.75" x="111.25" y="171.1377">OpenVehiclesController</text><line style="stroke: #A80036; stroke-width: 1.875;" x1="76.25" x2="277.5" y1="185" y2="185"/><line style="stroke: #A80036; stroke-width: 1.875;" x1="76.25" x2="277.5" y1="195" y2="195"/><ellipse cx="88.75" cy="208.75" fill="#84BE84" rx="3.75" ry="3.75" style="stroke: #038048; stroke-width: 1.25;"/><text fill="#000000" font-family="sans-serif" font-size="13.75" lengthAdjust="spacingAndGlyphs" textLength="121.25" x="100" y="214.2737">readClient(clientId())</text><ellipse cx="88.75" cy="226.0449" fill="#84BE84" rx="3.75" ry="3.75" style="stroke: #038048; stroke-width: 1.25;"/><text fill="#000000" font-family="sans-serif" font-size="13.75" lengthAdjust="spacingAndGlyphs" textLength="105" x="100" y="231.5686">readAllVehicles()</text><ellipse cx="88.75" cy="243.3398" fill="#84BE84" rx="3.75" ry="3.75" style="stroke: #038048; stroke-width: 1.25;"/><text fill="#000000" font-family="sans-serif" font-size="13.75" lengthAdjust="spacingAndGlyphs" textLength="127.5" x="100" y="248.8635">searchVehicles(text)</text><!--MD5=[bec60ffd6aff97f42f6f937250fbd8b4]
class ClientsDao--><rect fill="#FEFECE" filter="url(#fksv3ovlpo1er)" height="60" id="ClientsDao" style="stroke: #A80036; stroke-width: 1.875;" width="117.5" x="35.625" y="332.5"/><ellipse cx="54.375" cy="352.5" fill="#ADD1B2" rx="13.75" ry="13.75" style="stroke: #A80036; stroke-width: 1.25;"/><path d="M56.875,348.125 Q57.1289,347.5 57.4219,347.1875 Q57.7148,346.875 58.0469,346.875 Q58.6328,346.875 59.0039,347.2266 Q59.375,347.5781 59.375,348.3984 L59.375,350.3516 Q59.375,351.1719 59.0234,351.5234 Q58.6719,351.875 58.125,351.875 Q57.6367,351.875 57.3242,351.6602 Q57.0117,351.4453 56.875,350.8789 Q56.8164,350.4883 56.6016,350.2734 Q56.2109,349.8633 55.5078,349.6289 Q54.8047,349.375 54.1016,349.375 Q53.2227,349.375 52.4805,349.7266 Q51.7578,350.0781 51.1914,350.8594 Q50.625,351.6406 50.625,352.7148 L50.625,353.8672 Q50.625,355.1563 51.6797,356.0156 Q52.7344,356.875 54.6094,356.875 Q55.7227,356.875 56.5039,356.6211 Q56.9531,356.4844 57.4609,356.0352 Q57.793,355.7813 57.9688,355.7031 Q58.1445,355.625 58.3594,355.625 Q58.7695,355.625 59.0625,355.957 Q59.375,356.2695 59.375,356.7188 Q59.375,357.1484 58.9453,357.6563 Q58.3203,358.3984 57.3242,358.8086 Q56.0156,359.375 54.4141,359.375 Q52.5391,359.375 51.0352,358.6328 Q49.8242,358.0469 48.9648,356.7773 Q48.125,355.5078 48.125,354.0039 L48.125,352.6367 Q48.125,351.0742 48.8672,349.707 Q49.6289,348.3398 50.9375,347.6172 Q52.2656,346.875 53.75,346.875 Q54.6484,346.875 55.4297,347.1875 Q56.2109,347.5 56.875,348.125 Z "/><text fill="#000000" font-family="sans-serif" font-size="15" lengthAdjust="spacingAndGlyphs" textLength="77.5" x="71.875" y="358.6377">ClientsDao</text><line style="stroke: #A80036; stroke-width: 1.875;" x1="36.875" x2="151.875" y1="372.5" y2="372.5"/><line style="stroke: #A80036; stroke-width: 1.875;" x1="36.875" x2="151.875" y1="382.5" y2="382.5"/><!--MD5=[a39ad64172e37f40d93cf41979371d42]
class VehiclesDao--><rect fill="#FEFECE" filter="url(#fksv3ovlpo1er)" height="60" id="VehiclesDao" style="stroke: #A80036; stroke-width: 1.875;" width="127.5" x="196.875" y="332.5"/><ellipse cx="215.625" cy="352.5" fill="#ADD1B2" rx="13.75" ry="13.75" style="stroke: #A80036; stroke-width: 1.25;"/><path d="M218.125,348.125 Q218.3789,347.5 218.6719,347.1875 Q218.9648,346.875 219.2969,346.875 Q219.8828,346.875 220.2539,347.2266 Q220.625,347.5781 220.625,348.3984 L220.625,350.3516 Q220.625,351.1719 220.2734,351.5234 Q219.9219,351.875 219.375,351.875 Q218.8867,351.875 218.5742,351.6602 Q218.2617,351.4453 218.125,350.8789 Q218.0664,350.4883 217.8516,350.2734 Q217.4609,349.8633 216.7578,349.6289 Q216.0547,349.375 215.3516,349.375 Q214.4727,349.375 213.7305,349.7266 Q213.0078,350.0781 212.4414,350.8594 Q211.875,351.6406 211.875,352.7148 L211.875,353.8672 Q211.875,355.1563 212.9297,356.0156 Q213.9844,356.875 215.8594,356.875 Q216.9727,356.875 217.7539,356.6211 Q218.2031,356.4844 218.7109,356.0352 Q219.043,355.7813 219.2188,355.7031 Q219.3945,355.625 219.6094,355.625 Q220.0195,355.625 220.3125,355.957 Q220.625,356.2695 220.625,356.7188 Q220.625,357.1484 220.1953,357.6563 Q219.5703,358.3984 218.5742,358.8086 Q217.2656,359.375 215.6641,359.375 Q213.7891,359.375 212.2852,358.6328 Q211.0742,358.0469 210.2148,356.7773 Q209.375,355.5078 209.375,354.0039 L209.375,352.6367 Q209.375,351.0742 210.1172,349.707 Q210.8789,348.3398 212.1875,347.6172 Q213.5156,346.875 215,346.875 Q215.8984,346.875 216.6797,347.1875 Q217.4609,347.5 218.125,348.125 Z "/><text fill="#000000" font-family="sans-serif" font-size="15" lengthAdjust="spacingAndGlyphs" textLength="87.5" x="233.125" y="358.6377">VehiclesDao</text><line style="stroke: #A80036; stroke-width: 1.875;" x1="198.125" x2="323.125" y1="372.5" y2="372.5"/><line style="stroke: #A80036; stroke-width: 1.875;" x1="198.125" x2="323.125" y1="382.5" y2="382.5"/><!--MD5=[5d2bdef844ee30e945474426b37189d0]
class VehiclesView--><rect fill="#FEFECE" filter="url(#fksv3ovlpo1er)" height="60" id="VehiclesView" style="stroke: #A80036; stroke-width: 1.875;" width="131.25" x="7.5" y="10"/><ellipse cx="26.25" cy="30" fill="#ADD1B2" rx="13.75" ry="13.75" style="stroke: #A80036; stroke-width: 1.25;"/><path d="M28.75,25.625 Q29.0039,25 29.2969,24.6875 Q29.5898,24.375 29.9219,24.375 Q30.5078,24.375 30.8789,24.7266 Q31.25,25.0781 31.25,25.8984 L31.25,27.8516 Q31.25,28.6719 30.8984,29.0234 Q30.5469,29.375 30,29.375 Q29.5117,29.375 29.1992,29.1602 Q28.8867,28.9453 28.75,28.3789 Q28.6914,27.9883 28.4766,27.7734 Q28.0859,27.3633 27.3828,27.1289 Q26.6797,26.875 25.9766,26.875 Q25.0977,26.875 24.3555,27.2266 Q23.6328,27.5781 23.0664,28.3594 Q22.5,29.1406 22.5,30.2148 L22.5,31.3672 Q22.5,32.6563 23.5547,33.5156 Q24.6094,34.375 26.4844,34.375 Q27.5977,34.375 28.3789,34.1211 Q28.8281,33.9844 29.3359,33.5352 Q29.668,33.2813 29.8438,33.2031 Q30.0195,33.125 30.2344,33.125 Q30.6445,33.125 30.9375,33.457 Q31.25,33.7695 31.25,34.2188 Q31.25,34.6484 30.8203,35.1563 Q30.1953,35.8984 29.1992,36.3086 Q27.8906,36.875 26.2891,36.875 Q24.4141,36.875 22.9102,36.1328 Q21.6992,35.5469 20.8398,34.2773 Q20,33.0078 20,31.5039 L20,30.1367 Q20,28.5742 20.7422,27.207 Q21.5039,25.8398 22.8125,25.1172 Q24.1406,24.375 25.625,24.375 Q26.5234,24.375 27.3047,24.6875 Q28.0859,25 28.75,25.625 Z "/><text fill="#000000" font-family="sans-serif" font-size="15" lengthAdjust="spacingAndGlyphs" textLength="91.25" x="43.75" y="36.1377">VehiclesView</text><line style="stroke: #A80036; stroke-width: 1.875;" x1="8.75" x2="137.5" y1="50" y2="50"/><line style="stroke: #A80036; stroke-width: 1.875;" x1="8.75" x2="137.5" y1="60" y2="60"/><!--MD5=[62a12d2efef6aa64fe8c97bdb0c8af55]
class CreateInterventionView--><rect fill="#FEFECE" filter="url(#fksv3ovlpo1er)" height="60" id="CreateInterventionView" style="stroke: #A80036; stroke-width: 1.875;" width="197.5" x="183.125" y="10"/><ellipse cx="201.875" cy="30" fill="#ADD1B2" rx="13.75" ry="13.75" style="stroke: #A80036; stroke-width: 1.25;"/><path d="M204.375,25.625 Q204.6289,25 204.9219,24.6875 Q205.2148,24.375 205.5469,24.375 Q206.1328,24.375 206.5039,24.7266 Q206.875,25.0781 206.875,25.8984 L206.875,27.8516 Q206.875,28.6719 206.5234,29.0234 Q206.1719,29.375 205.625,29.375 Q205.1367,29.375 204.8242,29.1602 Q204.5117,28.9453 204.375,28.3789 Q204.3164,27.9883 204.1016,27.7734 Q203.7109,27.3633 203.0078,27.1289 Q202.3047,26.875 201.6016,26.875 Q200.7227,26.875 199.9805,27.2266 Q199.2578,27.5781 198.6914,28.3594 Q198.125,29.1406 198.125,30.2148 L198.125,31.3672 Q198.125,32.6563 199.1797,33.5156 Q200.2344,34.375 202.1094,34.375 Q203.2227,34.375 204.0039,34.1211 Q204.4531,33.9844 204.9609,33.5352 Q205.293,33.2813 205.4688,33.2031 Q205.6445,33.125 205.8594,33.125 Q206.2695,33.125 206.5625,33.457 Q206.875,33.7695 206.875,34.2188 Q206.875,34.6484 206.4453,35.1563 Q205.8203,35.8984 204.8242,36.3086 Q203.5156,36.875 201.9141,36.875 Q200.0391,36.875 198.5352,36.1328 Q197.3242,35.5469 196.4648,34.2773 Q195.625,33.0078 195.625,31.5039 L195.625,30.1367 Q195.625,28.5742 196.3672,27.207 Q197.1289,25.8398 198.4375,25.1172 Q199.7656,24.375 201.25,24.375 Q202.1484,24.375 202.9297,24.6875 Q203.7109,25 204.375,25.625 Z "/><text fill="#000000" font-family="sans-serif" font-size="15" lengthAdjust="spacingAndGlyphs" textLength="157.5" x="219.375" y="36.1377">CreateInterventionView</text><line style="stroke: #A80036; stroke-width: 1.875;" x1="184.375" x2="379.375" y1="50" y2="50"/><line style="stroke: #A80036; stroke-width: 1.875;" x1="184.375" x2="379.375" y1="60" y2="60"/><!--MD5=[4cbaa0019b690df30f745363b4bfe185]
link OpenVehiclesController to ClientsDao--><path d="M148.2525,257.5775 C136.4425,280.3014 123.1054,305.9656 112.6554,326.0743 " fill="none" id="OpenVehiclesController-&gt;ClientsDao" style="stroke: #A80036; stroke-width: 1.25;"/><polygon fill="#A80036" points="109.5098,332.127,119.1342,324.4502,112.3918,326.5812,110.2609,319.8389,109.5098,332.127" style="stroke: #A80036; stroke-width: 1.25;"/><!--MD5=[1a8513f96609cc40d5e42683625eb098]
link OpenVehiclesController to VehiclesDao--><path d="M205.9313,257.5775 C218.0238,280.4974 231.6925,306.4084 242.3413,326.593 " fill="none" id="OpenVehiclesController-&gt;VehiclesDao" style="stroke: #A80036; stroke-width: 1.25;"/><polygon fill="#A80036" points="245.2613,332.127,244.433,319.8438,242.3444,326.5994,235.5888,324.5108,245.2613,332.127" style="stroke: #A80036; stroke-width: 1.25;"/><!--MD5=[9f9a42d40fc66ac560841a98cd9508c5]
link VehiclesView to OpenVehiclesController--><path d="M92.1544,70.3675 C104.772,89.6738 121.7938,115.7187 137.27,139.3988 " fill="none" id="VehiclesView-&gt;OpenVehiclesController" style="stroke: #A80036; stroke-width: 1.25;"/><polygon fill="#A80036" points="140.7525,144.7275,138.783,132.575,137.3332,139.4958,130.4123,138.0459,140.7525,144.7275" style="stroke: #A80036; stroke-width: 1.25;"/><!--MD5=[3622722fcaf08974dda2e70386239c50]
link CreateInterventionView to OpenVehiclesController--><path d="M262.6163,70.3675 C249.8463,89.6738 232.62,115.7187 216.9575,139.3988 " fill="none" id="CreateInterventionView-&gt;OpenVehiclesController" style="stroke: #A80036; stroke-width: 1.25;"/><polygon fill="#A80036" points="213.4325,144.7275,223.8096,138.1034,216.8808,139.5149,215.4693,132.5861,213.4325,144.7275" style="stroke: #A80036; stroke-width: 1.25;"/><!--MD5=[3dfae1b5a4d62cf9a15628343d1bfb1f]
@startuml
	class OpenVehiclesController {
	+readClient(clientId())
	+readAllVehicles()
	+searchVehicles(text)
	}

	OpenVehiclesController - -> ClientsDao
	OpenVehiclesController - -> VehiclesDao
	VehiclesView - -> OpenVehiclesController
	CreateInterventionView - -> OpenVehiclesController
@enduml

PlantUML version 1.2020.09(Sun May 10 12:51:06 CEST 2020)
(GPL source distribution)
Java Runtime: OpenJDK Runtime Environment
JVM: OpenJDK 64-Bit Server VM
Java Version: 11.0.8+10-b1094.1
Operating System: Windows 10
Default Encoding: Cp1252
Language: en
Country: GB
--></g></svg>