<?xml version="1.0" encoding="UTF-8" standalone="no"?><svg xmlns="http://www.w3.org/2000/svg" xmlns:xlink="http://www.w3.org/1999/xlink" contentScriptType="application/ecmascript" contentStyleType="text/css" height="388.75px" preserveAspectRatio="none" style="width:355px;height:388px;" version="1.1" viewBox="0 0 355 388" width="355px" zoomAndPan="magnify"><defs><filter height="300%" id="f1h6zloiavnd5w" width="300%" x="-1" y="-1"><feGaussianBlur result="blurOut" stdDeviation="2.5"/><feColorMatrix in="blurOut" result="blurOut2" type="matrix" values="0 0 0 0 0 0 0 0 0 0 0 0 0 0 0 0 0 0 .4 0"/><feOffset dx="5.0" dy="5.0" in="blurOut2" result="blurOut3"/><feBlend in="SourceGraphic" in2="blurOut3" mode="normal"/></filter></defs><g><!--MD5=[d00b8625e1e18ad3cef6970b6d29f6da]
class OpenClientsController--><rect fill="#FEFECE" filter="url(#f1h6zloiavnd5w)" height="94.5898" id="OpenClientsController" style="stroke: #A80036; stroke-width: 1.875;" width="193.75" x="88.75" y="145"/><ellipse cx="107.5" cy="165" fill="#ADD1B2" rx="13.75" ry="13.75" style="stroke: #A80036; stroke-width: 1.25;"/><path d="M110,160.625 Q110.2539,160 110.5469,159.6875 Q110.8398,159.375 111.1719,159.375 Q111.7578,159.375 112.1289,159.7266 Q112.5,160.0781 112.5,160.8984 L112.5,162.8516 Q112.5,163.6719 112.1484,164.0234 Q111.7969,164.375 111.25,164.375 Q110.7617,164.375 110.4492,164.1602 Q110.1367,163.9453 110,163.3789 Q109.9414,162.9883 109.7266,162.7734 Q109.3359,162.3633 108.6328,162.1289 Q107.9297,161.875 107.2266,161.875 Q106.3477,161.875 105.6055,162.2266 Q104.8828,162.5781 104.3164,163.3594 Q103.75,164.1406 103.75,165.2148 L103.75,166.3672 Q103.75,167.6563 104.8047,168.5156 Q105.8594,169.375 107.7344,169.375 Q108.8477,169.375 109.6289,169.1211 Q110.0781,168.9844 110.5859,168.5352 Q110.918,168.2813 111.0938,168.2031 Q111.2695,168.125 111.4844,168.125 Q111.8945,168.125 112.1875,168.457 Q112.5,168.7695 112.5,169.2188 Q112.5,169.6484 112.0703,170.1563 Q111.4453,170.8984 110.4492,171.3086 Q109.1406,171.875 107.5391,171.875 Q105.6641,171.875 104.1602,171.1328 Q102.9492,170.5469 102.0898,169.2773 Q101.25,168.0078 101.25,166.5039 L101.25,165.1367 Q101.25,163.5742 101.9922,162.207 Q102.7539,160.8398 104.0625,160.1172 Q105.3906,159.375 106.875,159.375 Q107.7734,159.375 108.5547,159.6875 Q109.3359,160 110,160.625 Z "/><text fill="#000000" font-family="sans-serif" font-size="15" lengthAdjust="spacingAndGlyphs" textLength="153.75" x="125" y="171.1377">OpenClientsController</text><line style="stroke: #A80036; stroke-width: 1.875;" x1="90" x2="281.25" y1="185" y2="185"/><line style="stroke: #A80036; stroke-width: 1.875;" x1="90" x2="281.25" y1="195" y2="195"/><ellipse cx="102.5" cy="208.75" fill="#84BE84" rx="3.75" ry="3.75" style="stroke: #038048; stroke-width: 1.25;"/><text fill="#000000" font-family="sans-serif" font-size="13.75" lengthAdjust="spacingAndGlyphs" textLength="92.5" x="113.75" y="214.2737">readAllClients()</text><ellipse cx="102.5" cy="226.0449" fill="#84BE84" rx="3.75" ry="3.75" style="stroke: #038048; stroke-width: 1.25;"/><text fill="#000000" font-family="sans-serif" font-size="13.75" lengthAdjust="spacingAndGlyphs" textLength="127.5" x="113.75" y="231.5686">searchClients(query)</text><!--MD5=[bd58c9b3f4b8063f41ed02105b061fc5]
class CreateVehicleView--><rect fill="#FEFECE" filter="url(#f1h6zloiavnd5w)" height="60" id="CreateVehicleView" style="stroke: #A80036; stroke-width: 1.875;" width="168.75" x="7.5" y="10"/><ellipse cx="26.25" cy="30" fill="#ADD1B2" rx="13.75" ry="13.75" style="stroke: #A80036; stroke-width: 1.25;"/><path d="M28.75,25.625 Q29.0039,25 29.2969,24.6875 Q29.5898,24.375 29.9219,24.375 Q30.5078,24.375 30.8789,24.7266 Q31.25,25.0781 31.25,25.8984 L31.25,27.8516 Q31.25,28.6719 30.8984,29.0234 Q30.5469,29.375 30,29.375 Q29.5117,29.375 29.1992,29.1602 Q28.8867,28.9453 28.75,28.3789 Q28.6914,27.9883 28.4766,27.7734 Q28.0859,27.3633 27.3828,27.1289 Q26.6797,26.875 25.9766,26.875 Q25.0977,26.875 24.3555,27.2266 Q23.6328,27.5781 23.0664,28.3594 Q22.5,29.1406 22.5,30.2148 L22.5,31.3672 Q22.5,32.6563 23.5547,33.5156 Q24.6094,34.375 26.4844,34.375 Q27.5977,34.375 28.3789,34.1211 Q28.8281,33.9844 29.3359,33.5352 Q29.668,33.2813 29.8438,33.2031 Q30.0195,33.125 30.2344,33.125 Q30.6445,33.125 30.9375,33.457 Q31.25,33.7695 31.25,34.2188 Q31.25,34.6484 30.8203,35.1563 Q30.1953,35.8984 29.1992,36.3086 Q27.8906,36.875 26.2891,36.875 Q24.4141,36.875 22.9102,36.1328 Q21.6992,35.5469 20.8398,34.2773 Q20,33.0078 20,31.5039 L20,30.1367 Q20,28.5742 20.7422,27.207 Q21.5039,25.8398 22.8125,25.1172 Q24.1406,24.375 25.625,24.375 Q26.5234,24.375 27.3047,24.6875 Q28.0859,25 28.75,25.625 Z "/><text fill="#000000" font-family="sans-serif" font-size="15" lengthAdjust="spacingAndGlyphs" textLength="128.75" x="43.75" y="36.1377">CreateVehicleView</text><line style="stroke: #A80036; stroke-width: 1.875;" x1="8.75" x2="175" y1="50" y2="50"/><line style="stroke: #A80036; stroke-width: 1.875;" x1="8.75" x2="175" y1="60" y2="60"/><!--MD5=[bec60ffd6aff97f42f6f937250fbd8b4]
class ClientsDao--><rect fill="#FEFECE" filter="url(#f1h6zloiavnd5w)" height="60" id="ClientsDao" style="stroke: #A80036; stroke-width: 1.875;" width="117.5" x="126.875" y="315"/><ellipse cx="145.625" cy="335" fill="#ADD1B2" rx="13.75" ry="13.75" style="stroke: #A80036; stroke-width: 1.25;"/><path d="M148.125,330.625 Q148.3789,330 148.6719,329.6875 Q148.9648,329.375 149.2969,329.375 Q149.8828,329.375 150.2539,329.7266 Q150.625,330.0781 150.625,330.8984 L150.625,332.8516 Q150.625,333.6719 150.2734,334.0234 Q149.9219,334.375 149.375,334.375 Q148.8867,334.375 148.5742,334.1602 Q148.2617,333.9453 148.125,333.3789 Q148.0664,332.9883 147.8516,332.7734 Q147.4609,332.3633 146.7578,332.1289 Q146.0547,331.875 145.3516,331.875 Q144.4727,331.875 143.7305,332.2266 Q143.0078,332.5781 142.4414,333.3594 Q141.875,334.1406 141.875,335.2148 L141.875,336.3672 Q141.875,337.6563 142.9297,338.5156 Q143.9844,339.375 145.8594,339.375 Q146.9727,339.375 147.7539,339.1211 Q148.2031,338.9844 148.7109,338.5352 Q149.043,338.2813 149.2188,338.2031 Q149.3945,338.125 149.6094,338.125 Q150.0195,338.125 150.3125,338.457 Q150.625,338.7695 150.625,339.2188 Q150.625,339.6484 150.1953,340.1563 Q149.5703,340.8984 148.5742,341.3086 Q147.2656,341.875 145.6641,341.875 Q143.7891,341.875 142.2852,341.1328 Q141.0742,340.5469 140.2148,339.2773 Q139.375,338.0078 139.375,336.5039 L139.375,335.1367 Q139.375,333.5742 140.1172,332.207 Q140.8789,330.8398 142.1875,330.1172 Q143.5156,329.375 145,329.375 Q145.8984,329.375 146.6797,329.6875 Q147.4609,330 148.125,330.625 Z "/><text fill="#000000" font-family="sans-serif" font-size="15" lengthAdjust="spacingAndGlyphs" textLength="77.5" x="163.125" y="341.1377">ClientsDao</text><line style="stroke: #A80036; stroke-width: 1.875;" x1="128.125" x2="243.125" y1="355" y2="355"/><line style="stroke: #A80036; stroke-width: 1.875;" x1="128.125" x2="243.125" y1="365" y2="365"/><!--MD5=[b062a93b9911b68ecc396197f878ab01]
class ClientsView--><rect fill="#FEFECE" filter="url(#f1h6zloiavnd5w)" height="60" id="ClientsView" style="stroke: #A80036; stroke-width: 1.875;" width="121.25" x="220" y="10"/><ellipse cx="238.75" cy="30" fill="#ADD1B2" rx="13.75" ry="13.75" style="stroke: #A80036; stroke-width: 1.25;"/><path d="M241.25,25.625 Q241.5039,25 241.7969,24.6875 Q242.0898,24.375 242.4219,24.375 Q243.0078,24.375 243.3789,24.7266 Q243.75,25.0781 243.75,25.8984 L243.75,27.8516 Q243.75,28.6719 243.3984,29.0234 Q243.0469,29.375 242.5,29.375 Q242.0117,29.375 241.6992,29.1602 Q241.3867,28.9453 241.25,28.3789 Q241.1914,27.9883 240.9766,27.7734 Q240.5859,27.3633 239.8828,27.1289 Q239.1797,26.875 238.4766,26.875 Q237.5977,26.875 236.8555,27.2266 Q236.1328,27.5781 235.5664,28.3594 Q235,29.1406 235,30.2148 L235,31.3672 Q235,32.6563 236.0547,33.5156 Q237.1094,34.375 238.9844,34.375 Q240.0977,34.375 240.8789,34.1211 Q241.3281,33.9844 241.8359,33.5352 Q242.168,33.2813 242.3438,33.2031 Q242.5195,33.125 242.7344,33.125 Q243.1445,33.125 243.4375,33.457 Q243.75,33.7695 243.75,34.2188 Q243.75,34.6484 243.3203,35.1563 Q242.6953,35.8984 241.6992,36.3086 Q240.3906,36.875 238.7891,36.875 Q236.9141,36.875 235.4102,36.1328 Q234.1992,35.5469 233.3398,34.2773 Q232.5,33.0078 232.5,31.5039 L232.5,30.1367 Q232.5,28.5742 233.2422,27.207 Q234.0039,25.8398 235.3125,25.1172 Q236.6406,24.375 238.125,24.375 Q239.0234,24.375 239.8047,24.6875 Q240.5859,25 241.25,25.625 Z "/><text fill="#000000" font-family="sans-serif" font-size="15" lengthAdjust="spacingAndGlyphs" textLength="81.25" x="256.25" y="36.1377">ClientsView</text><line style="stroke: #A80036; stroke-width: 1.875;" x1="221.25" x2="340" y1="50" y2="50"/><line style="stroke: #A80036; stroke-width: 1.875;" x1="221.25" x2="340" y1="60" y2="60"/><!--MD5=[b44c997f85679db6e2a09ae47ecf041a]
link CreateVehicleView to OpenClientsController--><path d="M109.951,70.1713 C122.1157,89.635 138.505,115.8588 152.9213,138.9238 " fill="none" id="CreateVehicleView-&gt;OpenClientsController" style="stroke: #A80036; stroke-width: 1.25;"/><polygon fill="#A80036" points="156.54,144.7137,154.8175,132.5238,153.2275,139.4138,146.3375,137.8238,156.54,144.7137" style="stroke: #A80036; stroke-width: 1.25;"/><!--MD5=[f56e8c3844fe2e568295713859b23a98]
link OpenClientsController to ClientsDao--><path d="M185.625,240.3888 C185.625,262.178 185.625,287.7127 185.625,307.9506 " fill="none" id="OpenClientsController-&gt;ClientsDao" style="stroke: #A80036; stroke-width: 1.25;"/><polygon fill="#A80036" points="185.625,314.5978,190.625,303.3478,185.625,308.3478,180.625,303.3478,185.625,314.5978" style="stroke: #A80036; stroke-width: 1.25;"/><!--MD5=[81dfcf33288c0d770adf2a583be9fa56]
link ClientsView to OpenClientsController--><path d="M262.3075,70.1713 C249.9813,89.635 233.3725,115.8588 218.765,138.9238 " fill="none" id="ClientsView-&gt;OpenClientsController" style="stroke: #A80036; stroke-width: 1.25;"/><polygon fill="#A80036" points="215.0975,144.7137,225.3397,137.8829,218.4406,139.433,216.8905,132.5339,215.0975,144.7137" style="stroke: #A80036; stroke-width: 1.25;"/><!--MD5=[958b60adfc0d73f6d2511d4d781a8d6f]
@startuml
	class OpenClientsController {
	+readAllClients()
	+searchClients(query)
	}

	CreateVehicleView - -> OpenClientsController
	OpenClientsController - -> ClientsDao
	ClientsView - -> OpenClientsController
@enduml

PlantUML version 1.2020.09(Sun May 10 12:51:06 CEST 2020)
(GPL source distribution)
Java Runtime: OpenJDK Runtime Environment
JVM: OpenJDK 64-Bit Server VM
Java Version: 11.0.8+10-b1094.1
Operating System: Windows 10
Default Encoding: Cp1252
Language: en
Country: GB
--></g></svg>