<?xml version="1.0" encoding="UTF-8" standalone="no"?><svg xmlns="http://www.w3.org/2000/svg" xmlns:xlink="http://www.w3.org/1999/xlink" contentScriptType="application/ecmascript" contentStyleType="text/css" height="480px" preserveAspectRatio="none" style="width:771px;height:480px;" version="1.1" viewBox="0 0 771 480" width="771px" zoomAndPan="magnify"><defs><filter height="300%" id="f1jw4bxpomdbm5" width="300%" x="-1" y="-1"><feGaussianBlur result="blurOut" stdDeviation="2.0"/><feColorMatrix in="blurOut" result="blurOut2" type="matrix" values="0 0 0 0 0 0 0 0 0 0 0 0 0 0 0 0 0 0 .4 0"/><feOffset dx="4.0" dy="4.0" in="blurOut2" result="blurOut3"/><feBlend in="SourceGraphic" in2="blurOut3" mode="normal"/></filter></defs><g><rect fill="#FEFECE" filter="url(#f1jw4bxpomdbm5)" height="40" rx="12.5" ry="12.5" style="stroke: #A80036; stroke-width: 1.5;" width="58" x="362.5" y="429"/><text fill="#000000" font-family="sans-serif" font-size="14" lengthAdjust="spacingAndGlyphs" textLength="48" x="367.5" y="454.7285">:INITIAL</text><rect fill="#FEFECE" filter="url(#f1jw4bxpomdbm5)" height="40" rx="12.5" ry="12.5" style="stroke: #A80036; stroke-width: 1.5;" width="161" x="6" y="8"/><text fill="#000000" font-family="sans-serif" font-size="14" lengthAdjust="spacingAndGlyphs" textLength="151" x="11" y="33.7285">OPENED_DASHBOARD</text><rect fill="#FEFECE" filter="url(#f1jw4bxpomdbm5)" height="40" rx="12.5" ry="12.5" style="stroke: #A80036; stroke-width: 1.5;" width="183" x="202" y="8"/><text fill="#000000" font-family="sans-serif" font-size="14" lengthAdjust="spacingAndGlyphs" textLength="173" x="207" y="33.7285">OPENED_INTERVENTIONS</text><rect fill="#FEFECE" filter="url(#f1jw4bxpomdbm5)" height="40" rx="12.5" ry="12.5" style="stroke: #A80036; stroke-width: 1.5;" width="141" x="420" y="8"/><text fill="#000000" font-family="sans-serif" font-size="14" lengthAdjust="spacingAndGlyphs" textLength="131" x="425" y="33.7285">OPENED_VEHICLES</text><rect fill="#FEFECE" filter="url(#f1jw4bxpomdbm5)" height="40" rx="12.5" ry="12.5" style="stroke: #A80036; stroke-width: 1.5;" width="132" x="596.5" y="8"/><text fill="#000000" font-family="sans-serif" font-size="14" lengthAdjust="spacingAndGlyphs" textLength="122" x="601.5" y="33.7285">OPENED_CLIENTS</text><rect fill="#FEFECE" filter="url(#f1jw4bxpomdbm5)" height="131.6094" rx="12.5" ry="12.5" style="stroke: #A80036; stroke-width: 1.5;" width="64" x="359.5" y="164"/><rect fill="#FFFFFF" height="98" rx="12.5" ry="12.5" style="stroke: #FFFFFF; stroke-width: 1.0;" width="58" x="362.5" y="194.6094"/><line style="stroke: #A80036; stroke-width: 1.5;" x1="359.5" x2="423.5" y1="191.6094" y2="191.6094"/><text fill="#000000" font-family="sans-serif" font-size="14" lengthAdjust="spacingAndGlyphs" textLength="39" x="372" y="183.5332">logout</text><ellipse cx="380.5" cy="214.6094" fill="#000000" filter="url(#f1jw4bxpomdbm5)" rx="10" ry="10" style="stroke: none; stroke-width: 1.0;"/><ellipse cx="380.5" cy="270.6094" fill="none" filter="url(#f1jw4bxpomdbm5)" rx="10" ry="10" style="stroke: #000000; stroke-width: 1.0;"/><ellipse cx="381" cy="271.1094" fill="#000000" rx="6" ry="6" style="stroke: none; stroke-width: 1.0;"/><!--MD5=[282c70e28efa761b619695f2cab0694f]
link *start*logout to *end*logout--><path d="M380.5,225.0155 C380.5,233.3007 380.5,245.501 380.5,255.0469 " fill="none" id="*start*logout-&gt;*end*logout" style="stroke: #008000; stroke-width: 1.0;"/><polygon fill="#008000" points="380.5,260.3111,384.5,251.3111,380.5,255.3111,376.5,251.3111,380.5,260.3111" style="stroke: #008000; stroke-width: 1.0;"/><!--MD5=[97749eab65de15814e97d24bc13715ae]
link start1 to logout--><path d="M101.3566,48.259 C124.741,78.571 167.5,134 167.5,134 C167.5,134 290.952,186.357 354.56,213.333 " fill="none" id="start1-&gt;logout" style="stroke: #008000; stroke-width: 1.0;"/><polygon fill="#008000" points="359.406,215.389,352.6804,208.1941,354.8024,213.4379,349.5586,215.5598,359.406,215.389" style="stroke: #008000; stroke-width: 1.0;"/><path d="M172.5,83 L172.5,125 L288.5,125 L288.5,93 L278.5,83 L172.5,83 " fill="#F5F5F5" filter="url(#f1jw4bxpomdbm5)" style="stroke: #008000; stroke-width: 1.0;"/><path d="M278.5,83 L278.5,93 L288.5,93 L278.5,83 " fill="#F5F5F5" style="stroke: #008000; stroke-width: 1.0;"/><text fill="#000000" font-family="sans-serif" font-size="13" font-weight="bold" lengthAdjust="spacingAndGlyphs" textLength="95" x="178.5" y="101.4951">User request to</text><ellipse cx="184" cy="113.2031" fill="#000000" rx="2.5" ry="2.5" style="stroke: #000000; stroke-width: 0.0;"/><text fill="#000000" font-family="sans-serif" font-size="13" lengthAdjust="spacingAndGlyphs" textLength="35" x="191.5" y="117.8467">logout</text><!--MD5=[cb22261c60f56f4495ac676fd3b8c5c8]
link start2 to logout--><path d="M297.902,48.259 C304.831,78.571 317.5,134 317.5,134 C317.5,134 337.136,159.208 356.178,183.654 " fill="none" id="start2-&gt;logout" style="stroke: #008000; stroke-width: 1.0;"/><polygon fill="#008000" points="359.473,187.884,357.0973,178.326,356.4001,183.9397,350.7864,183.2426,359.473,187.884" style="stroke: #008000; stroke-width: 1.0;"/><path d="M322.5,83 L322.5,125 L438.5,125 L438.5,93 L428.5,83 L322.5,83 " fill="#F5F5F5" filter="url(#f1jw4bxpomdbm5)" style="stroke: #008000; stroke-width: 1.0;"/><path d="M428.5,83 L428.5,93 L438.5,93 L428.5,83 " fill="#F5F5F5" style="stroke: #008000; stroke-width: 1.0;"/><text fill="#000000" font-family="sans-serif" font-size="13" font-weight="bold" lengthAdjust="spacingAndGlyphs" textLength="95" x="328.5" y="101.4951">User request to</text><ellipse cx="334" cy="113.2031" fill="#000000" rx="2.5" ry="2.5" style="stroke: #000000; stroke-width: 0.0;"/><text fill="#000000" font-family="sans-serif" font-size="13" lengthAdjust="spacingAndGlyphs" textLength="35" x="341.5" y="117.8467">logout</text><!--MD5=[e9176e6caf41ce2c104144fba7fde164]
link start3 to logout--><path d="M483.347,48.259 C472.088,78.571 451.5,134 451.5,134 C451.5,134 439.623,152.805 426.438,173.682 " fill="none" id="start3-&gt;logout" style="stroke: #008000; stroke-width: 1.0;"/><polygon fill="#008000" points="423.608,178.163,431.7961,172.6899,426.2781,173.9357,425.0324,168.4177,423.608,178.163" style="stroke: #008000; stroke-width: 1.0;"/><path d="M477.5,83 L477.5,125 L593.5,125 L593.5,93 L583.5,83 L477.5,83 " fill="#F5F5F5" filter="url(#f1jw4bxpomdbm5)" style="stroke: #008000; stroke-width: 1.0;"/><path d="M583.5,83 L583.5,93 L593.5,93 L583.5,83 " fill="#F5F5F5" style="stroke: #008000; stroke-width: 1.0;"/><text fill="#000000" font-family="sans-serif" font-size="13" font-weight="bold" lengthAdjust="spacingAndGlyphs" textLength="95" x="483.5" y="101.4951">User request to</text><ellipse cx="489" cy="113.2031" fill="#000000" rx="2.5" ry="2.5" style="stroke: #000000; stroke-width: 0.0;"/><text fill="#000000" font-family="sans-serif" font-size="13" lengthAdjust="spacingAndGlyphs" textLength="35" x="496.5" y="117.8467">logout</text><!--MD5=[508e66df3df2769535f3b6f5b26f2d4a]
link start4 to logout--><path d="M652.962,48.259 C637.95,78.571 610.5,134 610.5,134 C610.5,134 491.038,185.821 428.577,212.916 " fill="none" id="start4-&gt;logout" style="stroke: #008000; stroke-width: 1.0;"/><polygon fill="#008000" points="423.814,214.982,433.6625,215.0697,428.401,212.9921,430.4786,207.7306,423.814,214.982" style="stroke: #008000; stroke-width: 1.0;"/><path d="M643.5,83 L643.5,125 L759.5,125 L759.5,93 L749.5,83 L643.5,83 " fill="#F5F5F5" filter="url(#f1jw4bxpomdbm5)" style="stroke: #008000; stroke-width: 1.0;"/><path d="M749.5,83 L749.5,93 L759.5,93 L749.5,83 " fill="#F5F5F5" style="stroke: #008000; stroke-width: 1.0;"/><text fill="#000000" font-family="sans-serif" font-size="13" font-weight="bold" lengthAdjust="spacingAndGlyphs" textLength="95" x="649.5" y="101.4951">User request to</text><ellipse cx="655" cy="113.2031" fill="#000000" rx="2.5" ry="2.5" style="stroke: #000000; stroke-width: 0.0;"/><text fill="#000000" font-family="sans-serif" font-size="13" lengthAdjust="spacingAndGlyphs" textLength="35" x="662.5" y="117.8467">logout</text><!--MD5=[aa342d12c25cd11eced140676528a8f0]
link logout to initial--><path d="M391.5,296.107 C391.5,339.064 391.5,392.8863 391.5,423.5674 " fill="none" id="logout-&gt;initial" style="stroke: #008000; stroke-width: 1.0;"/><polygon fill="#008000" points="391.5,428.6533,395.5,419.6533,391.5,423.6533,387.5,419.6533,391.5,428.6533" style="stroke: #008000; stroke-width: 1.0;"/><path d="M396.5,331 L396.5,390 L508.5,390 L508.5,341 L498.5,331 L396.5,331 " fill="#F5F5F5" filter="url(#f1jw4bxpomdbm5)" style="stroke: #008000; stroke-width: 1.0;"/><path d="M498.5,331 L498.5,341 L508.5,341 L498.5,331 " fill="#F5F5F5" style="stroke: #008000; stroke-width: 1.0;"/><text fill="#000000" font-family="sans-serif" font-size="13" font-weight="bold" lengthAdjust="spacingAndGlyphs" textLength="91" x="402.5" y="349.4951">System allows</text><ellipse cx="408" cy="361.2031" fill="#000000" rx="2.5" ry="2.5" style="stroke: #000000; stroke-width: 0.0;"/><text fill="#000000" font-family="sans-serif" font-size="13" lengthAdjust="spacingAndGlyphs" textLength="27" x="415.5" y="365.8467">login</text><ellipse cx="408" cy="377.5547" fill="#000000" rx="2.5" ry="2.5" style="stroke: #000000; stroke-width: 0.0;"/><text fill="#000000" font-family="sans-serif" font-size="13" lengthAdjust="spacingAndGlyphs" textLength="38" x="415.5" y="382.1982">sign in</text><!--MD5=[0736b9db4ffad081a22deb6938d2072f]
@startuml

skinparam {
    NoteBackgroundColor #whiteSmoke
    ArrowColor #green
    NoteBorderColor #green
    linetype polyline
}

hide empty description

state initial as ":INITIAL"

state start1 as "OPENED_DASHBOARD"
state start2 as "OPENED_INTERVENTIONS"
state start3 as "OPENED_VEHICLES"
state start4 as "OPENED_CLIENTS"

start1 - -> logout
    note on link
    <b>User request to</b>
    * logout
    end note
start2 - -> logout
    note on link
    <b>User request to</b>
    * logout
    end note
start3 - -> logout
    note on link
    <b>User request to</b>
    * logout
    end note
start4 - -> logout
    note on link
    <b>User request to</b>
    * logout
    end note

state logout {
[*] - -> [*]
}

logout - -> initial
note on link
    <b>System allows</b>
    * login
    * sign in
end note

@enduml

PlantUML version 1.2020.09(Sun May 10 12:51:06 CEST 2020)
(GPL source distribution)
Java Runtime: OpenJDK Runtime Environment
JVM: OpenJDK 64-Bit Server VM
Java Version: 11.0.8+10-b1094.1
Operating System: Windows 10
Default Encoding: Cp1252
Language: en
Country: GB
--></g></svg>