<?xml version="1.0" encoding="UTF-8" standalone="no"?><svg xmlns="http://www.w3.org/2000/svg" xmlns:xlink="http://www.w3.org/1999/xlink" contentScriptType="application/ecmascript" contentStyleType="text/css" height="595px" preserveAspectRatio="none" style="width:855px;height:595px;" version="1.1" viewBox="0 0 855 595" width="855px" zoomAndPan="magnify"><defs><filter height="300%" id="fvv1u4q0vu9xl" width="300%" x="-1" y="-1"><feGaussianBlur result="blurOut" stdDeviation="2.5"/><feColorMatrix in="blurOut" result="blurOut2" type="matrix" values="0 0 0 0 0 0 0 0 0 0 0 0 0 0 0 0 0 0 .4 0"/><feOffset dx="5.0" dy="5.0" in="blurOut2" result="blurOut3"/><feBlend in="SourceGraphic" in2="blurOut3" mode="normal"/></filter></defs><g><!--MD5=[8fc3522a43f8c7199df5e09e5bb0188e]
entity user--><ellipse cx="60" cy="21.875" fill="#FEFECE" filter="url(#fvv1u4q0vu9xl)" rx="10" ry="10" style="stroke: #A80036; stroke-width: 1.875;"/><path d="M60,31.875 L60,65.625 M43.75,41.875 L76.25,41.875 M60,65.625 L43.75,84.375 M60,65.625 L76.25,84.375 " fill="none" filter="url(#fvv1u4q0vu9xl)" style="stroke: #A80036; stroke-width: 1.875;"/><text fill="#000000" font-family="sans-serif" font-size="17.5" lengthAdjust="spacingAndGlyphs" textLength="35" x="42.5" y="109.4165">user</text><!--MD5=[f5a78d3e2c2bba4955990b9a6243d12e]
entity MenuView--><rect fill="#629EF9" filter="url(#fvv1u4q0vu9xl)" height="47.0117" style="stroke: #000000; stroke-width: 1.875;" width="105" x="7.5" y="238.75"/><text fill="#000000" font-family="sans-serif" font-size="17.5" lengthAdjust="spacingAndGlyphs" textLength="80" x="20" y="269.4165">MenuView</text><!--MD5=[879601c54c16cbac2938a49e9c3f5a3f]
entity ClientsView--><rect fill="#629EF9" filter="url(#fvv1u4q0vu9xl)" height="47.0117" style="stroke: #000000; stroke-width: 1.875;" width="115" x="328.75" y="238.75"/><text fill="#000000" font-family="sans-serif" font-size="17.5" lengthAdjust="spacingAndGlyphs" textLength="90" x="341.25" y="269.4165">ClientsView</text><!--MD5=[cfefb65cc19f94c7ba9c9493afdaaf2a]
entity OpenClientsController--><rect fill="#B5BD68" filter="url(#fvv1u4q0vu9xl)" height="47.0117" style="stroke: #000000; stroke-width: 1.875;" width="200" x="641.25" y="238.75"/><text fill="#000000" font-family="sans-serif" font-size="17.5" lengthAdjust="spacingAndGlyphs" textLength="175" x="653.75" y="269.4165">OpenClientsController</text><!--MD5=[5669fba6a50c5cf79174eff43ebf57d4]
entity ClientsDao--><rect fill="#F2AC4E" filter="url(#fvv1u4q0vu9xl)" height="47.0117" style="stroke: #000000; stroke-width: 1.875;" width="111.25" x="503.125" y="411.25"/><text fill="#000000" font-family="sans-serif" font-size="17.5" lengthAdjust="spacingAndGlyphs" textLength="86.25" x="515.625" y="441.9165">ClientsDao</text><!--MD5=[0ba5ee7700168656dc1b457c6fe9fdac]
entity Client--><rect fill="#F2AC4E" filter="url(#fvv1u4q0vu9xl)" height="47.0117" style="stroke: #000000; stroke-width: 1.875;" width="70" x="523.75" y="535"/><text fill="#000000" font-family="sans-serif" font-size="17.5" lengthAdjust="spacingAndGlyphs" textLength="45" x="536.25" y="565.6665">Client</text><!--MD5=[a268f506b33d2fbb3afc3eb21b6af607]
link user to MenuView--><path d="M60,114.1475 C60,151.6112 60,201.1713 60,232.1287 " fill="none" id="user-&gt;MenuView" style="stroke: #A80036; stroke-width: 1.25;"/><polygon fill="#A80036" points="60,238.4412,65,227.1912,60,232.1912,55,227.1912,60,238.4412" style="stroke: #A80036; stroke-width: 1.25;"/><path d="M66.25,157.5 L66.25,190 L187.5,190 L187.5,170 L175,157.5 L66.25,157.5 " fill="#F5F5F5" filter="url(#fvv1u4q0vu9xl)" style="stroke: #A80036; stroke-width: 0.0;"/><path d="M175,157.5 L175,170 L187.5,170 L175,157.5 " fill="#F5F5F5" style="stroke: #A80036; stroke-width: 0.0;"/><text fill="#000000" font-family="sans-serif" font-size="16.25" lengthAdjust="spacingAndGlyphs" textLength="95" x="73.75" y="180.6189">openClients()</text><!--MD5=[c71599cac86e869311397ed9484ffd64]
link MenuView to ClientsView--><path d="M112.7803,262.5 C169.8538,262.5 260.8513,262.5 322.0325,262.5 " fill="none" id="MenuView-&gt;ClientsView" style="stroke: #A80036; stroke-width: 1.25;"/><polygon fill="#A80036" points="328.5975,262.5,317.3475,257.5,322.3475,262.5,317.3475,267.5,328.5975,262.5" style="stroke: #A80036; stroke-width: 1.25;"/><path d="M140.625,215 L140.625,247.5 L295.625,247.5 L295.625,227.5 L283.125,215 L140.625,215 " fill="#F5F5F5" filter="url(#fvv1u4q0vu9xl)" style="stroke: #A80036; stroke-width: 0.0;"/><path d="M283.125,215 L283.125,227.5 L295.625,227.5 L283.125,215 " fill="#F5F5F5" style="stroke: #A80036; stroke-width: 0.0;"/><text fill="#000000" font-family="sans-serif" font-size="16.25" lengthAdjust="spacingAndGlyphs" textLength="128.75" x="148.125" y="238.1189">new ClientsView()</text><!--MD5=[81dfcf33288c0d770adf2a583be9fa56]
link ClientsView to OpenClientsController--><path d="M444.0775,262.5 C495.5525,262.5 572.1637,262.5 634.7063,262.5 " fill="none" id="ClientsView-&gt;OpenClientsController" style="stroke: #A80036; stroke-width: 1.25;"/><polygon fill="#A80036" points="641.0988,262.5,629.8488,257.5,634.8488,262.5,629.8488,267.5,641.0988,262.5" style="stroke: #A80036; stroke-width: 1.25;"/><path d="M471.875,215 L471.875,247.5 L608.125,247.5 L608.125,227.5 L595.625,215 L471.875,215 " fill="#F5F5F5" filter="url(#fvv1u4q0vu9xl)" style="stroke: #A80036; stroke-width: 0.0;"/><path d="M595.625,215 L595.625,227.5 L608.125,227.5 L595.625,215 " fill="#F5F5F5" style="stroke: #A80036; stroke-width: 0.0;"/><text fill="#000000" font-family="sans-serif" font-size="16.25" lengthAdjust="spacingAndGlyphs" textLength="110" x="479.375" y="238.1189">readAllClients()</text><!--MD5=[f56e8c3844fe2e568295713859b23a98]
link OpenClientsController to ClientsDao--><path d="M640.8263,272.7238 C608.1263,280.9788 575.1025,296.1538 555,323.75 C538.1338,346.9025 542.3063,380.6588 548.6613,404.6613 " fill="none" id="OpenClientsController-&gt;ClientsDao" style="stroke: #A80036; stroke-width: 1.25;"/><polygon fill="#A80036" points="550.4963,411.155,552.252,398.9698,548.7984,405.14,542.6281,401.6864,550.4963,411.155" style="stroke: #A80036; stroke-width: 1.25;"/><path d="M561.25,330 L561.25,362.5 L697.5,362.5 L697.5,342.5 L685,330 L561.25,330 " fill="#F5F5F5" filter="url(#fvv1u4q0vu9xl)" style="stroke: #A80036; stroke-width: 0.0;"/><path d="M685,330 L685,342.5 L697.5,342.5 L685,330 " fill="#F5F5F5" style="stroke: #A80036; stroke-width: 0.0;"/><text fill="#000000" font-family="sans-serif" font-size="16.25" lengthAdjust="spacingAndGlyphs" textLength="110" x="568.75" y="353.1189">readAllClients()</text><!--MD5=[dcb293bd940712c1732aa849f7decdd5]
link OpenClientsController to Client--><path d="M738.6625,286.295 C735.34,309.3013 728.1838,345.535 713.75,373.75 C680.1075,439.515 618.8888,502.1797 584.31,534.5928 " fill="none" id="OpenClientsController-Client" style="stroke: #A80036; stroke-width: 1.25; stroke-dasharray: 7.0,7.0;"/><text fill="#000000" font-family="sans-serif" font-size="16.25" lengthAdjust="spacingAndGlyphs" textLength="25" x="563.1464" y="521.5642">0..*</text><!--MD5=[596d1ab474876e7244518296a7f8487a]
link ClientsDao to Client--><path d="M558.75,459.0563 C558.75,480.7338 558.75,513.1524 558.75,534.7961 " fill="none" id="ClientsDao-Client" style="stroke: #A80036; stroke-width: 1.25; stroke-dasharray: 7.0,7.0;"/><!--MD5=[a7293d51e69298fb0d2e1aa8a292ec55]
link ClientsView to Client--><path d="M395.5875,286.8025 C411.1312,324.1613 444.28,399.7012 481.25,458.75 C497.1063,484.0766 518.2088,510.6006 534.39,529.7745 " fill="none" id="ClientsView-&gt;Client" style="stroke: #A80036; stroke-width: 1.25;"/><polygon fill="#A80036" points="538.8138,534.9804,535.338,523.1701,534.7662,530.218,527.7183,529.6462,538.8138,534.9804" style="stroke: #A80036; stroke-width: 1.25;"/><!--MD5=[e3387353dbc047697e834eac77bf8336]
@startuml

skinparam {
    NoteBorderThickness 0
    NoteBackgroundColor #whiteSmoke
    RectangleBackgroundColor #whiteSmoke
    ArchimateBackgroundColor #whiteSmoke
}


actor user

rectangle #629EF9 MenuView
rectangle #629EF9 ClientsView

rectangle #b5bd68 OpenClientsController

rectangle #F2AC4E ClientsDao
rectangle #F2AC4E Client

user - -> MenuView
note on link
    openClients()
end note

MenuView -right-> ClientsView
note on link
    new ClientsView()
end note

ClientsView -right-> OpenClientsController
note on link
    readAllClients()
end note

OpenClientsController - -> ClientsDao
note on link
readAllClients()
end note

OpenClientsController .. "0..*" Client

ClientsDao .. Client

ClientsView - -> Client

@enduml

PlantUML version 1.2020.09(Sun May 10 12:51:06 CEST 2020)
(GPL source distribution)
Java Runtime: OpenJDK Runtime Environment
JVM: OpenJDK 64-Bit Server VM
Java Version: 11.0.8+10-b1094.1
Operating System: Windows 10
Default Encoding: Cp1252
Language: en
Country: GB
--></g></svg>