<?xml version="1.0" encoding="UTF-8" standalone="no"?><svg xmlns="http://www.w3.org/2000/svg" xmlns:xlink="http://www.w3.org/1999/xlink" contentScriptType="application/ecmascript" contentStyleType="text/css" height="595px" preserveAspectRatio="none" style="width:1531px;height:595px;" version="1.1" viewBox="0 0 1531 595" width="1531.25px" zoomAndPan="magnify"><defs><filter height="300%" id="f4staml8klhjj" width="300%" x="-1" y="-1"><feGaussianBlur result="blurOut" stdDeviation="2.5"/><feColorMatrix in="blurOut" result="blurOut2" type="matrix" values="0 0 0 0 0 0 0 0 0 0 0 0 0 0 0 0 0 0 .4 0"/><feOffset dx="5.0" dy="5.0" in="blurOut2" result="blurOut3"/><feBlend in="SourceGraphic" in2="blurOut3" mode="normal"/></filter></defs><g><!--MD5=[e209b37fc91f378abaa2ddf468318055]
entity actor--><ellipse cx="60" cy="21.875" fill="#FEFECE" filter="url(#f4staml8klhjj)" rx="10" ry="10" style="stroke: #A80036; stroke-width: 1.875;"/><path d="M60,31.875 L60,65.625 M43.75,41.875 L76.25,41.875 M60,65.625 L43.75,84.375 M60,65.625 L76.25,84.375 " fill="none" filter="url(#f4staml8klhjj)" style="stroke: #A80036; stroke-width: 1.875;"/><text fill="#000000" font-family="sans-serif" font-size="17.5" lengthAdjust="spacingAndGlyphs" textLength="40" x="40" y="109.4165">actor</text><!--MD5=[f5a78d3e2c2bba4955990b9a6243d12e]
entity MenuView--><rect fill="#629EF9" filter="url(#f4staml8klhjj)" height="47.0117" style="stroke: #000000; stroke-width: 1.875;" width="105" x="7.5" y="238.75"/><text fill="#000000" font-family="sans-serif" font-size="17.5" lengthAdjust="spacingAndGlyphs" textLength="80" x="20" y="269.4165">MenuView</text><!--MD5=[1aabd2c6b56536cf48f052167268e724]
entity DashboardView--><rect fill="#629EF9" filter="url(#f4staml8klhjj)" height="47.0117" style="stroke: #000000; stroke-width: 1.875;" width="148.75" x="355.625" y="238.75"/><text fill="#000000" font-family="sans-serif" font-size="17.5" lengthAdjust="spacingAndGlyphs" textLength="123.75" x="368.125" y="269.4165">DashboardView</text><!--MD5=[dbaa41b9cb78125f34378bb85fc42742]
entity OpenDashboardController--><rect fill="#B5BD68" filter="url(#f4staml8klhjj)" height="47.0117" style="stroke: #000000; stroke-width: 1.875;" width="233.75" x="866.875" y="238.75"/><text fill="#000000" font-family="sans-serif" font-size="17.5" lengthAdjust="spacingAndGlyphs" textLength="208.75" x="879.375" y="269.4165">OpenDashboardController</text><!--MD5=[dbd7f279121211084b5871fc3663cabf]
entity InterventionsDao--><rect fill="#F2AC4E" filter="url(#f4staml8klhjj)" height="47.0117" style="stroke: #000000; stroke-width: 1.875;" width="158.75" x="885.625" y="411.25"/><text fill="#000000" font-family="sans-serif" font-size="17.5" lengthAdjust="spacingAndGlyphs" textLength="133.75" x="898.125" y="441.9165">InterventionsDao</text><!--MD5=[6e5a8ceef7a3d9ef19b893e365a5e382]
entity VehiclesDao--><rect fill="#F2AC4E" filter="url(#f4staml8klhjj)" height="47.0117" style="stroke: #000000; stroke-width: 1.875;" width="123.75" x="1394.375" y="238.75"/><text fill="#000000" font-family="sans-serif" font-size="17.5" lengthAdjust="spacingAndGlyphs" textLength="98.75" x="1406.875" y="269.4165">VehiclesDao</text><!--MD5=[e3fdc96919b3d0718a6aa38a39f53a06]
entity Intervention--><rect fill="#F2AC4E" filter="url(#f4staml8klhjj)" height="47.0117" style="stroke: #000000; stroke-width: 1.875;" width="117.5" x="723.75" y="411.25"/><text fill="#000000" font-family="sans-serif" font-size="17.5" lengthAdjust="spacingAndGlyphs" textLength="92.5" x="736.25" y="441.9165">Intervention</text><!--MD5=[ec12e68d482471526d41adfe4cff0e6f]
entity Session--><rect fill="#F2AC4E" filter="url(#f4staml8klhjj)" height="47.0117" style="stroke: #000000; stroke-width: 1.875;" width="87.5" x="386.25" y="411.25"/><text fill="#000000" font-family="sans-serif" font-size="17.5" lengthAdjust="spacingAndGlyphs" textLength="62.5" x="398.75" y="441.9165">Session</text><!--MD5=[c796543839e6086ac460deba3cd4e684]
entity Vehicle--><rect fill="#F2AC4E" filter="url(#f4staml8klhjj)" height="47.0117" style="stroke: #000000; stroke-width: 1.875;" width="82.5" x="1271.25" y="535"/><text fill="#000000" font-family="sans-serif" font-size="17.5" lengthAdjust="spacingAndGlyphs" textLength="57.5" x="1283.75" y="565.6665">Vehicle</text><!--MD5=[3d8348d09ad89d8cd0c0f7dace3a3d24]
link actor to MenuView--><path d="M60,114.1475 C60,151.6112 60,201.1713 60,232.1287 " fill="none" id="actor-&gt;MenuView" style="stroke: #A80036; stroke-width: 1.25;"/><polygon fill="#A80036" points="60,238.4412,65,227.1912,60,232.1912,55,227.1912,60,238.4412" style="stroke: #A80036; stroke-width: 1.25;"/><path d="M66.25,157.5 L66.25,190 L215,190 L215,170 L202.5,157.5 L66.25,157.5 " fill="#F5F5F5" filter="url(#f4staml8klhjj)" style="stroke: #A80036; stroke-width: 0.0;"/><path d="M202.5,157.5 L202.5,170 L215,170 L202.5,157.5 " fill="#F5F5F5" style="stroke: #A80036; stroke-width: 0.0;"/><text fill="#000000" font-family="sans-serif" font-size="16.25" lengthAdjust="spacingAndGlyphs" textLength="122.5" x="73.75" y="180.6189">openDashboard()</text><!--MD5=[62da2036794d0ff2dad111de6289f721]
link MenuView to DashboardView--><path d="M112.619,262.5 C174.3025,262.5 277.2175,262.5 349.0775,262.5 " fill="none" id="MenuView-&gt;DashboardView" style="stroke: #A80036; stroke-width: 1.25;"/><polygon fill="#A80036" points="355.4975,262.5,344.2475,257.5,349.2475,262.5,344.2475,267.5,355.4975,262.5" style="stroke: #A80036; stroke-width: 1.25;"/><path d="M140.3125,215 L140.3125,247.5 L322.8125,247.5 L322.8125,227.5 L310.3125,215 L140.3125,215 " fill="#F5F5F5" filter="url(#f4staml8klhjj)" style="stroke: #A80036; stroke-width: 0.0;"/><path d="M310.3125,215 L310.3125,227.5 L322.8125,227.5 L310.3125,215 " fill="#F5F5F5" style="stroke: #A80036; stroke-width: 0.0;"/><text fill="#000000" font-family="sans-serif" font-size="16.25" lengthAdjust="spacingAndGlyphs" textLength="156.25" x="147.8125" y="238.1189">new DashboardView()</text><!--MD5=[cbb00088b92544238e2f93e5abc90875]
link DashboardView to Session--><path d="M430,286.325 C430,316.8075 430,371.1613 430,404.6713 " fill="none" id="DashboardView-&gt;Session" style="stroke: #A80036; stroke-width: 1.25;"/><polygon fill="#A80036" points="430,411.0825,435,399.8325,430,404.8325,425,399.8325,430,411.0825" style="stroke: #A80036; stroke-width: 1.25;"/><path d="M436.25,330 L436.25,362.5 L565,362.5 L565,342.5 L552.5,330 L436.25,330 " fill="#F5F5F5" filter="url(#f4staml8klhjj)" style="stroke: #A80036; stroke-width: 0.0;"/><path d="M552.5,330 L552.5,342.5 L565,342.5 L552.5,330 " fill="#F5F5F5" style="stroke: #A80036; stroke-width: 0.0;"/><text fill="#000000" font-family="sans-serif" font-size="16.25" lengthAdjust="spacingAndGlyphs" textLength="102.5" x="443.75" y="353.1189">getMechanic()</text><!--MD5=[e0f08b99bbab2595579d83c6125b715c]
link DashboardView to Intervention--><path d="M504.3963,271.57 C554.4675,279.2988 620.5713,294.4313 672.5,323.75 C709.1675,344.4513 741.9725,380.7375 762.0188,405.9475 " fill="none" id="DashboardView-&gt;Intervention" style="stroke: #A80036; stroke-width: 1.25;"/><polygon fill="#A80036" points="766.1,411.1487,763.0867,399.2122,762.2409,406.2325,755.2206,405.3867,766.1,411.1487" style="stroke: #A80036; stroke-width: 1.25;"/><!--MD5=[12cb02a75a603bb973ed3c9bb4a84f0c]
link DashboardView to Vehicle--><path d="M504.5438,283.8988 C531.755,293.3688 561.82,306.4588 586.25,323.75 C650.5838,369.285 632.5663,420.0875 701.25,458.75 C798.2237,513.3375 1138.1638,544.2209 1264.625,554.0363 " fill="none" id="DashboardView-&gt;Vehicle" style="stroke: #A80036; stroke-width: 1.25;"/><polygon fill="#A80036" points="1271.2125,554.5429,1260.3817,548.6899,1264.9811,554.0607,1259.6103,558.6602,1271.2125,554.5429" style="stroke: #A80036; stroke-width: 1.25;"/><!--MD5=[882b6091aa90f951708d505c700f216f]
link DashboardView to OpenDashboardController--><path d="M504.6813,262.5 C595.8575,262.5 751.355,262.5 860.3988,262.5 " fill="none" id="DashboardView-&gt;OpenDashboardController" style="stroke: #A80036; stroke-width: 1.25;"/><polygon fill="#A80036" points="866.8588,262.5,855.6088,257.5,860.6088,262.5,855.6088,267.5,866.8588,262.5" style="stroke: #A80036; stroke-width: 1.25;"/><path d="M532.5,195 L532.5,247.5 L833.75,247.5 L833.75,207.5 L821.25,195 L532.5,195 " fill="#F5F5F5" filter="url(#f4staml8klhjj)" style="stroke: #A80036; stroke-width: 0.0;"/><path d="M821.25,195 L821.25,207.5 L833.75,207.5 L821.25,195 " fill="#F5F5F5" style="stroke: #A80036; stroke-width: 0.0;"/><text fill="#000000" font-family="sans-serif" font-size="16.25" lengthAdjust="spacingAndGlyphs" textLength="275" x="540" y="218.1189">searchActiveInterventions(mechanicId)</text><text fill="#000000" font-family="sans-serif" font-size="16.25" lengthAdjust="spacingAndGlyphs" textLength="173.75" x="540" y="238.5583">searchVehicle(vehicleId)</text><!--MD5=[8fc9e3e41b5cc92e68ef14f9300cfc11]
link OpenDashboardController to InterventionsDao--><path d="M972.9888,286.5638 C968.3888,297.5425 963.5525,311.0525 961.25,323.75 C956.3375,350.8425 958.1425,382.2863 960.66,404.5988 " fill="none" id="OpenDashboardController-&gt;InterventionsDao" style="stroke: #A80036; stroke-width: 1.25;"/><polygon fill="#A80036" points="961.4575,411.2163,965.0744,399.4485,960.7091,405.0112,955.1464,400.6459,961.4575,411.2163" style="stroke: #A80036; stroke-width: 1.25;"/><path d="M967.5,330 L967.5,362.5 L1268.75,362.5 L1268.75,342.5 L1256.25,330 L967.5,330 " fill="#F5F5F5" filter="url(#f4staml8klhjj)" style="stroke: #A80036; stroke-width: 0.0;"/><path d="M1256.25,330 L1256.25,342.5 L1268.75,342.5 L1256.25,330 " fill="#F5F5F5" style="stroke: #A80036; stroke-width: 0.0;"/><text fill="#000000" font-family="sans-serif" font-size="16.25" lengthAdjust="spacingAndGlyphs" textLength="275" x="975" y="353.1189">searchActiveInterventions(mechanicId)</text><!--MD5=[f90df2a441ff62028a9ff9fb470f1839]
link OpenDashboardController to VehiclesDao--><path d="M1101.155,262.5 C1191.2263,262.5 1312.4625,262.5 1387.425,262.5 " fill="none" id="OpenDashboardController-&gt;VehiclesDao" style="stroke: #A80036; stroke-width: 1.25;"/><polygon fill="#A80036" points="1394.0875,262.5,1382.8375,257.5,1387.8375,262.5,1382.8375,267.5,1394.0875,262.5" style="stroke: #A80036; stroke-width: 1.25;"/><path d="M1128.75,215 L1128.75,247.5 L1361.25,247.5 L1361.25,227.5 L1348.75,215 L1128.75,215 " fill="#F5F5F5" filter="url(#f4staml8klhjj)" style="stroke: #A80036; stroke-width: 0.0;"/><path d="M1348.75,215 L1348.75,227.5 L1361.25,227.5 L1348.75,215 " fill="#F5F5F5" style="stroke: #A80036; stroke-width: 0.0;"/><text fill="#000000" font-family="sans-serif" font-size="16.25" lengthAdjust="spacingAndGlyphs" textLength="206.25" x="1136.25" y="238.1189">searchVehicle(interventionId)</text><!--MD5=[eba48dceeef95009536ea101a6727323]
link OpenDashboardController to Vehicle--><path d="M1100.8475,273.0113 C1174.4463,281.395 1260.0375,296.7175 1285,323.75 C1339.3375,382.5862 1326.5875,488.3496 1317.625,534.694 " fill="none" id="OpenDashboardController-Vehicle" style="stroke: #A80036; stroke-width: 1.25; stroke-dasharray: 7.0,7.0;"/><!--MD5=[94adf10cd89fc5ba5849f7be97a393c4]
link VehiclesDao to Vehicle--><path d="M1445.9,286.5063 C1426.6875,328.5225 1383.9,420.9788 1345,497.5 C1338.6625,509.9613 1331.2625,523.6826 1325.125,534.8549 " fill="none" id="VehiclesDao-Vehicle" style="stroke: #A80036; stroke-width: 1.25; stroke-dasharray: 7.0,7.0;"/><!--MD5=[958c5a63344d2e1c9d3df965328fd9df]
link OpenDashboardController to Intervention--><path d="M957.025,286.325 C918.5338,318.84 847.8888,378.515 809.335,411.0825 " fill="none" id="OpenDashboardController-Intervention" style="stroke: #A80036; stroke-width: 1.25; stroke-dasharray: 7.0,7.0;"/><text fill="#000000" font-family="sans-serif" font-size="16.25" lengthAdjust="spacingAndGlyphs" textLength="25" x="788.7251" y="397.7062">0..*</text><!--MD5=[b2f47d0e7bfb9a94bcd18248c360c067]
link Intervention to InterventionsDao--><path d="M841.3138,435 C855.9688,435 870.625,435 885.28,435 " fill="none" id="Intervention-InterventionsDao" style="stroke: #A80036; stroke-width: 1.25;"/><!--MD5=[a1bea5543f2dc656b213d194eec56886]
@startuml

skinparam {
    NoteBorderThickness 0
    NoteBackgroundColor #whiteSmoke
    RectangleBackgroundColor #whiteSmoke
    ArchimateBackgroundColor #whiteSmoke
}


actor actor

rectangle #629EF9 MenuView
rectangle #629EF9 DashboardView

rectangle #b5bd68 OpenDashboardController

rectangle #F2AC4E InterventionsDao
rectangle #F2AC4E VehiclesDao
rectangle #F2AC4E Intervention
rectangle #F2AC4E Session
rectangle #F2AC4E Vehicle

actor - -> MenuView
note on link
    openDashboard()
end note

MenuView -right-> DashboardView
note on link
    new DashboardView()
end note

DashboardView -down-> Session
note on link
    getMechanic()
end note
DashboardView -down-> Intervention
DashboardView -down-> Vehicle

DashboardView -right-> OpenDashboardController
note on link
    searchActiveInterventions(mechanicId)
    searchVehicle(vehicleId)
end note

OpenDashboardController -down-> InterventionsDao
note on link
    searchActiveInterventions(mechanicId)
end note

OpenDashboardController -right-> VehiclesDao
note on link
    searchVehicle(interventionId)
end note

OpenDashboardController .. Vehicle
VehiclesDao .down.. Vehicle
OpenDashboardController .down. "0..*" Intervention
InterventionsDao -left- Intervention

@enduml

PlantUML version 1.2020.09(Sun May 10 12:51:06 CEST 2020)
(GPL source distribution)
Java Runtime: OpenJDK Runtime Environment
JVM: OpenJDK 64-Bit Server VM
Java Version: 11.0.8+10-b1094.1
Operating System: Windows 10
Default Encoding: Cp1252
Language: en
Country: GB
--></g></svg>