<?xml version="1.0" encoding="UTF-8" standalone="no"?><svg xmlns="http://www.w3.org/2000/svg" xmlns:xlink="http://www.w3.org/1999/xlink" contentScriptType="application/ecmascript" contentStyleType="text/css" height="218.75px" preserveAspectRatio="none" style="width:520px;height:218px;" version="1.1" viewBox="0 0 520 218" width="520px" zoomAndPan="magnify"><defs><filter height="300%" id="fl2znaundep98" width="300%" x="-1" y="-1"><feGaussianBlur result="blurOut" stdDeviation="2.5"/><feColorMatrix in="blurOut" result="blurOut2" type="matrix" values="0 0 0 0 0 0 0 0 0 0 0 0 0 0 0 0 0 0 .4 0"/><feOffset dx="5.0" dy="5.0" in="blurOut2" result="blurOut3"/><feBlend in="SourceGraphic" in2="blurOut3" mode="normal"/></filter></defs><g><!--MD5=[ed6624c6556d5e7b1bd23032162d20b7]
class Client--><rect fill="#FEFECE" filter="url(#fl2znaundep98)" height="60" id="Client" style="stroke: #A80036; stroke-width: 1.875;" width="80" x="211.875" y="145"/><ellipse cx="230.625" cy="165" fill="#ADD1B2" rx="13.75" ry="13.75" style="stroke: #A80036; stroke-width: 1.25;"/><path d="M233.125,160.625 Q233.3789,160 233.6719,159.6875 Q233.9648,159.375 234.2969,159.375 Q234.8828,159.375 235.2539,159.7266 Q235.625,160.0781 235.625,160.8984 L235.625,162.8516 Q235.625,163.6719 235.2734,164.0234 Q234.9219,164.375 234.375,164.375 Q233.8867,164.375 233.5742,164.1602 Q233.2617,163.9453 233.125,163.3789 Q233.0664,162.9883 232.8516,162.7734 Q232.4609,162.3633 231.7578,162.1289 Q231.0547,161.875 230.3516,161.875 Q229.4727,161.875 228.7305,162.2266 Q228.0078,162.5781 227.4414,163.3594 Q226.875,164.1406 226.875,165.2148 L226.875,166.3672 Q226.875,167.6563 227.9297,168.5156 Q228.9844,169.375 230.8594,169.375 Q231.9727,169.375 232.7539,169.1211 Q233.2031,168.9844 233.7109,168.5352 Q234.043,168.2813 234.2188,168.2031 Q234.3945,168.125 234.6094,168.125 Q235.0195,168.125 235.3125,168.457 Q235.625,168.7695 235.625,169.2188 Q235.625,169.6484 235.1953,170.1563 Q234.5703,170.8984 233.5742,171.3086 Q232.2656,171.875 230.6641,171.875 Q228.7891,171.875 227.2852,171.1328 Q226.0742,170.5469 225.2148,169.2773 Q224.375,168.0078 224.375,166.5039 L224.375,165.1367 Q224.375,163.5742 225.1172,162.207 Q225.8789,160.8398 227.1875,160.1172 Q228.5156,159.375 230,159.375 Q230.8984,159.375 231.6797,159.6875 Q232.4609,160 233.125,160.625 Z "/><text fill="#000000" font-family="sans-serif" font-size="15" lengthAdjust="spacingAndGlyphs" textLength="40" x="248.125" y="171.1377">Client</text><line style="stroke: #A80036; stroke-width: 1.875;" x1="213.125" x2="290.625" y1="185" y2="185"/><line style="stroke: #A80036; stroke-width: 1.875;" x1="213.125" x2="290.625" y1="195" y2="195"/><!--MD5=[b062a93b9911b68ecc396197f878ab01]
class ClientsView--><rect fill="#FEFECE" filter="url(#fl2znaundep98)" height="60" id="ClientsView" style="stroke: #A80036; stroke-width: 1.875;" width="121.25" x="7.5" y="10"/><ellipse cx="26.25" cy="30" fill="#ADD1B2" rx="13.75" ry="13.75" style="stroke: #A80036; stroke-width: 1.25;"/><path d="M28.75,25.625 Q29.0039,25 29.2969,24.6875 Q29.5898,24.375 29.9219,24.375 Q30.5078,24.375 30.8789,24.7266 Q31.25,25.0781 31.25,25.8984 L31.25,27.8516 Q31.25,28.6719 30.8984,29.0234 Q30.5469,29.375 30,29.375 Q29.5117,29.375 29.1992,29.1602 Q28.8867,28.9453 28.75,28.3789 Q28.6914,27.9883 28.4766,27.7734 Q28.0859,27.3633 27.3828,27.1289 Q26.6797,26.875 25.9766,26.875 Q25.0977,26.875 24.3555,27.2266 Q23.6328,27.5781 23.0664,28.3594 Q22.5,29.1406 22.5,30.2148 L22.5,31.3672 Q22.5,32.6563 23.5547,33.5156 Q24.6094,34.375 26.4844,34.375 Q27.5977,34.375 28.3789,34.1211 Q28.8281,33.9844 29.3359,33.5352 Q29.668,33.2813 29.8438,33.2031 Q30.0195,33.125 30.2344,33.125 Q30.6445,33.125 30.9375,33.457 Q31.25,33.7695 31.25,34.2188 Q31.25,34.6484 30.8203,35.1563 Q30.1953,35.8984 29.1992,36.3086 Q27.8906,36.875 26.2891,36.875 Q24.4141,36.875 22.9102,36.1328 Q21.6992,35.5469 20.8398,34.2773 Q20,33.0078 20,31.5039 L20,30.1367 Q20,28.5742 20.7422,27.207 Q21.5039,25.8398 22.8125,25.1172 Q24.1406,24.375 25.625,24.375 Q26.5234,24.375 27.3047,24.6875 Q28.0859,25 28.75,25.625 Z "/><text fill="#000000" font-family="sans-serif" font-size="15" lengthAdjust="spacingAndGlyphs" textLength="81.25" x="43.75" y="36.1377">ClientsView</text><line style="stroke: #A80036; stroke-width: 1.875;" x1="8.75" x2="127.5" y1="50" y2="50"/><line style="stroke: #A80036; stroke-width: 1.875;" x1="8.75" x2="127.5" y1="60" y2="60"/><!--MD5=[1bad87b9dbf42e3983017760005a656d]
class ConfigClientView--><rect fill="#FEFECE" filter="url(#fl2znaundep98)" height="60" id="ConfigClientView" style="stroke: #A80036; stroke-width: 1.875;" width="157.5" x="173.125" y="10"/><ellipse cx="191.875" cy="30" fill="#ADD1B2" rx="13.75" ry="13.75" style="stroke: #A80036; stroke-width: 1.25;"/><path d="M194.375,25.625 Q194.6289,25 194.9219,24.6875 Q195.2148,24.375 195.5469,24.375 Q196.1328,24.375 196.5039,24.7266 Q196.875,25.0781 196.875,25.8984 L196.875,27.8516 Q196.875,28.6719 196.5234,29.0234 Q196.1719,29.375 195.625,29.375 Q195.1367,29.375 194.8242,29.1602 Q194.5117,28.9453 194.375,28.3789 Q194.3164,27.9883 194.1016,27.7734 Q193.7109,27.3633 193.0078,27.1289 Q192.3047,26.875 191.6016,26.875 Q190.7227,26.875 189.9805,27.2266 Q189.2578,27.5781 188.6914,28.3594 Q188.125,29.1406 188.125,30.2148 L188.125,31.3672 Q188.125,32.6563 189.1797,33.5156 Q190.2344,34.375 192.1094,34.375 Q193.2227,34.375 194.0039,34.1211 Q194.4531,33.9844 194.9609,33.5352 Q195.293,33.2813 195.4688,33.2031 Q195.6445,33.125 195.8594,33.125 Q196.2695,33.125 196.5625,33.457 Q196.875,33.7695 196.875,34.2188 Q196.875,34.6484 196.4453,35.1563 Q195.8203,35.8984 194.8242,36.3086 Q193.5156,36.875 191.9141,36.875 Q190.0391,36.875 188.5352,36.1328 Q187.3242,35.5469 186.4648,34.2773 Q185.625,33.0078 185.625,31.5039 L185.625,30.1367 Q185.625,28.5742 186.3672,27.207 Q187.1289,25.8398 188.4375,25.1172 Q189.7656,24.375 191.25,24.375 Q192.1484,24.375 192.9297,24.6875 Q193.7109,25 194.375,25.625 Z "/><text fill="#000000" font-family="sans-serif" font-size="15" lengthAdjust="spacingAndGlyphs" textLength="117.5" x="209.375" y="36.1377">ConfigClientView</text><line style="stroke: #A80036; stroke-width: 1.875;" x1="174.375" x2="329.375" y1="50" y2="50"/><line style="stroke: #A80036; stroke-width: 1.875;" x1="174.375" x2="329.375" y1="60" y2="60"/><!--MD5=[5d2bdef844ee30e945474426b37189d0]
class VehiclesView--><rect fill="#FEFECE" filter="url(#fl2znaundep98)" height="60" id="VehiclesView" style="stroke: #A80036; stroke-width: 1.875;" width="131.25" x="375" y="10"/><ellipse cx="393.75" cy="30" fill="#ADD1B2" rx="13.75" ry="13.75" style="stroke: #A80036; stroke-width: 1.25;"/><path d="M396.25,25.625 Q396.5039,25 396.7969,24.6875 Q397.0898,24.375 397.4219,24.375 Q398.0078,24.375 398.3789,24.7266 Q398.75,25.0781 398.75,25.8984 L398.75,27.8516 Q398.75,28.6719 398.3984,29.0234 Q398.0469,29.375 397.5,29.375 Q397.0117,29.375 396.6992,29.1602 Q396.3867,28.9453 396.25,28.3789 Q396.1914,27.9883 395.9766,27.7734 Q395.5859,27.3633 394.8828,27.1289 Q394.1797,26.875 393.4766,26.875 Q392.5977,26.875 391.8555,27.2266 Q391.1328,27.5781 390.5664,28.3594 Q390,29.1406 390,30.2148 L390,31.3672 Q390,32.6563 391.0547,33.5156 Q392.1094,34.375 393.9844,34.375 Q395.0977,34.375 395.8789,34.1211 Q396.3281,33.9844 396.8359,33.5352 Q397.168,33.2813 397.3438,33.2031 Q397.5195,33.125 397.7344,33.125 Q398.1445,33.125 398.4375,33.457 Q398.75,33.7695 398.75,34.2188 Q398.75,34.6484 398.3203,35.1563 Q397.6953,35.8984 396.6992,36.3086 Q395.3906,36.875 393.7891,36.875 Q391.9141,36.875 390.4102,36.1328 Q389.1992,35.5469 388.3398,34.2773 Q387.5,33.0078 387.5,31.5039 L387.5,30.1367 Q387.5,28.5742 388.2422,27.207 Q389.0039,25.8398 390.3125,25.1172 Q391.6406,24.375 393.125,24.375 Q394.0234,24.375 394.8047,24.6875 Q395.5859,25 396.25,25.625 Z "/><text fill="#000000" font-family="sans-serif" font-size="15" lengthAdjust="spacingAndGlyphs" textLength="91.25" x="411.25" y="36.1377">VehiclesView</text><line style="stroke: #A80036; stroke-width: 1.875;" x1="376.25" x2="505" y1="50" y2="50"/><line style="stroke: #A80036; stroke-width: 1.875;" x1="376.25" x2="505" y1="60" y2="60"/><!--MD5=[a7293d51e69298fb0d2e1aa8a292ec55]
link ClientsView to Client--><path d="M107.996,70 C137.0313,90.9379 176.4,119.3259 206.6163,141.1146 " fill="none" id="ClientsView-&gt;Client" style="stroke: #A80036; stroke-width: 1.25;"/><polygon fill="#A80036" points="211.765,144.8271,205.564,134.1918,206.6954,141.1718,199.7154,142.3032,211.765,144.8271" style="stroke: #A80036; stroke-width: 1.25;"/><!--MD5=[c837591119cd2aed62b61b4b202b2922]
link ConfigClientView to Client--><path d="M251.875,70 C251.875,90.0038 251.875,116.8076 251.875,138.16 " fill="none" id="ConfigClientView-&gt;Client" style="stroke: #A80036; stroke-width: 1.25;"/><polygon fill="#A80036" points="251.875,144.598,256.875,133.348,251.875,138.348,246.875,133.348,251.875,144.598" style="stroke: #A80036; stroke-width: 1.25;"/><!--MD5=[5430a9698428fc78cdd73388f6b88c76]
link VehiclesView to Client--><path d="M399.6688,70 C369.5363,91.1538 328.5688,119.912 297.4088,141.7864 " fill="none" id="VehiclesView-&gt;Client" style="stroke: #A80036; stroke-width: 1.25;"/><polygon fill="#A80036" points="292.1025,145.5108,304.183,143.1391,297.2178,141.9197,298.4373,134.9546,292.1025,145.5108" style="stroke: #A80036; stroke-width: 1.25;"/><!--MD5=[afd25d3f426b52f0f25f1bb0fd6e0911]
@startuml
	class Client {
	}

	ClientsView - -> Client
	ConfigClientView - -> Client
	VehiclesView - -> Client
@enduml

PlantUML version 1.2020.09(Sun May 10 12:51:06 CEST 2020)
(GPL source distribution)
Java Runtime: OpenJDK Runtime Environment
JVM: OpenJDK 64-Bit Server VM
Java Version: 11.0.8+10-b1094.1
Operating System: Windows 10
Default Encoding: Cp1252
Language: en
Country: GB
--></g></svg>