<?xml version="1.0" encoding="UTF-8" standalone="no"?><svg xmlns="http://www.w3.org/2000/svg" xmlns:xlink="http://www.w3.org/1999/xlink" contentScriptType="application/ecmascript" contentStyleType="text/css" height="218.75px" preserveAspectRatio="none" style="width:616px;height:218px;" version="1.1" viewBox="0 0 616 218" width="616.25px" zoomAndPan="magnify"><defs><filter height="300%" id="f1368w1uidqhut" width="300%" x="-1" y="-1"><feGaussianBlur result="blurOut" stdDeviation="2.5"/><feColorMatrix in="blurOut" result="blurOut2" type="matrix" values="0 0 0 0 0 0 0 0 0 0 0 0 0 0 0 0 0 0 .4 0"/><feOffset dx="5.0" dy="5.0" in="blurOut2" result="blurOut3"/><feBlend in="SourceGraphic" in2="blurOut3" mode="normal"/></filter></defs><g><!--MD5=[91506c20fa69d22eac57944020c826c2]
class Intervention--><rect fill="#FEFECE" filter="url(#f1368w1uidqhut)" height="60" id="Intervention" style="stroke: #A80036; stroke-width: 1.875;" width="118.75" x="264.375" y="145"/><ellipse cx="283.125" cy="165" fill="#ADD1B2" rx="13.75" ry="13.75" style="stroke: #A80036; stroke-width: 1.25;"/><path d="M285.625,160.625 Q285.8789,160 286.1719,159.6875 Q286.4648,159.375 286.7969,159.375 Q287.3828,159.375 287.7539,159.7266 Q288.125,160.0781 288.125,160.8984 L288.125,162.8516 Q288.125,163.6719 287.7734,164.0234 Q287.4219,164.375 286.875,164.375 Q286.3867,164.375 286.0742,164.1602 Q285.7617,163.9453 285.625,163.3789 Q285.5664,162.9883 285.3516,162.7734 Q284.9609,162.3633 284.2578,162.1289 Q283.5547,161.875 282.8516,161.875 Q281.9727,161.875 281.2305,162.2266 Q280.5078,162.5781 279.9414,163.3594 Q279.375,164.1406 279.375,165.2148 L279.375,166.3672 Q279.375,167.6563 280.4297,168.5156 Q281.4844,169.375 283.3594,169.375 Q284.4727,169.375 285.2539,169.1211 Q285.7031,168.9844 286.2109,168.5352 Q286.543,168.2813 286.7188,168.2031 Q286.8945,168.125 287.1094,168.125 Q287.5195,168.125 287.8125,168.457 Q288.125,168.7695 288.125,169.2188 Q288.125,169.6484 287.6953,170.1563 Q287.0703,170.8984 286.0742,171.3086 Q284.7656,171.875 283.1641,171.875 Q281.2891,171.875 279.7852,171.1328 Q278.5742,170.5469 277.7148,169.2773 Q276.875,168.0078 276.875,166.5039 L276.875,165.1367 Q276.875,163.5742 277.6172,162.207 Q278.3789,160.8398 279.6875,160.1172 Q281.0156,159.375 282.5,159.375 Q283.3984,159.375 284.1797,159.6875 Q284.9609,160 285.625,160.625 Z "/><text fill="#000000" font-family="sans-serif" font-size="15" lengthAdjust="spacingAndGlyphs" textLength="78.75" x="300.625" y="171.1377">Intervention</text><line style="stroke: #A80036; stroke-width: 1.875;" x1="265.625" x2="381.875" y1="185" y2="185"/><line style="stroke: #A80036; stroke-width: 1.875;" x1="265.625" x2="381.875" y1="195" y2="195"/><!--MD5=[62a12d2efef6aa64fe8c97bdb0c8af55]
class CreateInterventionView--><rect fill="#FEFECE" filter="url(#f1368w1uidqhut)" height="60" id="CreateInterventionView" style="stroke: #A80036; stroke-width: 1.875;" width="197.5" x="7.5" y="10"/><ellipse cx="26.25" cy="30" fill="#ADD1B2" rx="13.75" ry="13.75" style="stroke: #A80036; stroke-width: 1.25;"/><path d="M28.75,25.625 Q29.0039,25 29.2969,24.6875 Q29.5898,24.375 29.9219,24.375 Q30.5078,24.375 30.8789,24.7266 Q31.25,25.0781 31.25,25.8984 L31.25,27.8516 Q31.25,28.6719 30.8984,29.0234 Q30.5469,29.375 30,29.375 Q29.5117,29.375 29.1992,29.1602 Q28.8867,28.9453 28.75,28.3789 Q28.6914,27.9883 28.4766,27.7734 Q28.0859,27.3633 27.3828,27.1289 Q26.6797,26.875 25.9766,26.875 Q25.0977,26.875 24.3555,27.2266 Q23.6328,27.5781 23.0664,28.3594 Q22.5,29.1406 22.5,30.2148 L22.5,31.3672 Q22.5,32.6563 23.5547,33.5156 Q24.6094,34.375 26.4844,34.375 Q27.5977,34.375 28.3789,34.1211 Q28.8281,33.9844 29.3359,33.5352 Q29.668,33.2813 29.8438,33.2031 Q30.0195,33.125 30.2344,33.125 Q30.6445,33.125 30.9375,33.457 Q31.25,33.7695 31.25,34.2188 Q31.25,34.6484 30.8203,35.1563 Q30.1953,35.8984 29.1992,36.3086 Q27.8906,36.875 26.2891,36.875 Q24.4141,36.875 22.9102,36.1328 Q21.6992,35.5469 20.8398,34.2773 Q20,33.0078 20,31.5039 L20,30.1367 Q20,28.5742 20.7422,27.207 Q21.5039,25.8398 22.8125,25.1172 Q24.1406,24.375 25.625,24.375 Q26.5234,24.375 27.3047,24.6875 Q28.0859,25 28.75,25.625 Z "/><text fill="#000000" font-family="sans-serif" font-size="15" lengthAdjust="spacingAndGlyphs" textLength="157.5" x="43.75" y="36.1377">CreateInterventionView</text><line style="stroke: #A80036; stroke-width: 1.875;" x1="8.75" x2="203.75" y1="50" y2="50"/><line style="stroke: #A80036; stroke-width: 1.875;" x1="8.75" x2="203.75" y1="60" y2="60"/><!--MD5=[bdd4672b4bae795639395c14a0d6d497]
class DashboardView--><rect fill="#FEFECE" filter="url(#f1368w1uidqhut)" height="60" id="DashboardView" style="stroke: #A80036; stroke-width: 1.875;" width="150" x="248.75" y="10"/><ellipse cx="267.5" cy="30" fill="#ADD1B2" rx="13.75" ry="13.75" style="stroke: #A80036; stroke-width: 1.25;"/><path d="M270,25.625 Q270.2539,25 270.5469,24.6875 Q270.8398,24.375 271.1719,24.375 Q271.7578,24.375 272.1289,24.7266 Q272.5,25.0781 272.5,25.8984 L272.5,27.8516 Q272.5,28.6719 272.1484,29.0234 Q271.7969,29.375 271.25,29.375 Q270.7617,29.375 270.4492,29.1602 Q270.1367,28.9453 270,28.3789 Q269.9414,27.9883 269.7266,27.7734 Q269.3359,27.3633 268.6328,27.1289 Q267.9297,26.875 267.2266,26.875 Q266.3477,26.875 265.6055,27.2266 Q264.8828,27.5781 264.3164,28.3594 Q263.75,29.1406 263.75,30.2148 L263.75,31.3672 Q263.75,32.6563 264.8047,33.5156 Q265.8594,34.375 267.7344,34.375 Q268.8477,34.375 269.6289,34.1211 Q270.0781,33.9844 270.5859,33.5352 Q270.918,33.2813 271.0938,33.2031 Q271.2695,33.125 271.4844,33.125 Q271.8945,33.125 272.1875,33.457 Q272.5,33.7695 272.5,34.2188 Q272.5,34.6484 272.0703,35.1563 Q271.4453,35.8984 270.4492,36.3086 Q269.1406,36.875 267.5391,36.875 Q265.6641,36.875 264.1602,36.1328 Q262.9492,35.5469 262.0898,34.2773 Q261.25,33.0078 261.25,31.5039 L261.25,30.1367 Q261.25,28.5742 261.9922,27.207 Q262.7539,25.8398 264.0625,25.1172 Q265.3906,24.375 266.875,24.375 Q267.7734,24.375 268.5547,24.6875 Q269.3359,25 270,25.625 Z "/><text fill="#000000" font-family="sans-serif" font-size="15" lengthAdjust="spacingAndGlyphs" textLength="110" x="285" y="36.1377">DashboardView</text><line style="stroke: #A80036; stroke-width: 1.875;" x1="250" x2="397.5" y1="50" y2="50"/><line style="stroke: #A80036; stroke-width: 1.875;" x1="250" x2="397.5" y1="60" y2="60"/><!--MD5=[6d3946f4576b3d1380341ff87dc4fff4]
class InterventionsView--><rect fill="#FEFECE" filter="url(#f1368w1uidqhut)" height="60" id="InterventionsView" style="stroke: #A80036; stroke-width: 1.875;" width="160" x="442.5" y="10"/><ellipse cx="461.25" cy="30" fill="#ADD1B2" rx="13.75" ry="13.75" style="stroke: #A80036; stroke-width: 1.25;"/><path d="M463.75,25.625 Q464.0039,25 464.2969,24.6875 Q464.5898,24.375 464.9219,24.375 Q465.5078,24.375 465.8789,24.7266 Q466.25,25.0781 466.25,25.8984 L466.25,27.8516 Q466.25,28.6719 465.8984,29.0234 Q465.5469,29.375 465,29.375 Q464.5117,29.375 464.1992,29.1602 Q463.8867,28.9453 463.75,28.3789 Q463.6914,27.9883 463.4766,27.7734 Q463.0859,27.3633 462.3828,27.1289 Q461.6797,26.875 460.9766,26.875 Q460.0977,26.875 459.3555,27.2266 Q458.6328,27.5781 458.0664,28.3594 Q457.5,29.1406 457.5,30.2148 L457.5,31.3672 Q457.5,32.6563 458.5547,33.5156 Q459.6094,34.375 461.4844,34.375 Q462.5977,34.375 463.3789,34.1211 Q463.8281,33.9844 464.3359,33.5352 Q464.668,33.2813 464.8438,33.2031 Q465.0195,33.125 465.2344,33.125 Q465.6445,33.125 465.9375,33.457 Q466.25,33.7695 466.25,34.2188 Q466.25,34.6484 465.8203,35.1563 Q465.1953,35.8984 464.1992,36.3086 Q462.8906,36.875 461.2891,36.875 Q459.4141,36.875 457.9102,36.1328 Q456.6992,35.5469 455.8398,34.2773 Q455,33.0078 455,31.5039 L455,30.1367 Q455,28.5742 455.7422,27.207 Q456.5039,25.8398 457.8125,25.1172 Q459.1406,24.375 460.625,24.375 Q461.5234,24.375 462.3047,24.6875 Q463.0859,25 463.75,25.625 Z "/><text fill="#000000" font-family="sans-serif" font-size="15" lengthAdjust="spacingAndGlyphs" textLength="120" x="478.75" y="36.1377">InterventionsView</text><line style="stroke: #A80036; stroke-width: 1.875;" x1="443.75" x2="601.25" y1="50" y2="50"/><line style="stroke: #A80036; stroke-width: 1.875;" x1="443.75" x2="601.25" y1="60" y2="60"/><!--MD5=[a535b4e8f17356c3d8fbb4389cad23c9]
link CreateInterventionView to Intervention--><path d="M153.4438,70 C187.955,91.0244 234.7975,119.5606 270.6213,141.3844 " fill="none" id="CreateInterventionView-&gt;Intervention" style="stroke: #A80036; stroke-width: 1.25;"/><polygon fill="#A80036" points="276.2725,144.8271,269.2663,134.7041,270.935,141.5754,264.0636,143.2441,276.2725,144.8271" style="stroke: #A80036; stroke-width: 1.25;"/><!--MD5=[e0f08b99bbab2595579d83c6125b715c]
link DashboardView to Intervention--><path d="M323.75,70 C323.75,90.0038 323.75,116.8076 323.75,138.16 " fill="none" id="DashboardView-&gt;Intervention" style="stroke: #A80036; stroke-width: 1.25;"/><polygon fill="#A80036" points="323.75,144.598,328.75,133.348,323.75,138.348,318.75,133.348,323.75,144.598" style="stroke: #A80036; stroke-width: 1.25;"/><!--MD5=[38f5437fc595d84930ebbe246ff65429]
link InterventionsView to Intervention--><path d="M479.3738,70 C447.9688,90.9379 405.3863,119.3259 372.7038,141.1146 " fill="none" id="InterventionsView-&gt;Intervention" style="stroke: #A80036; stroke-width: 1.25;"/><polygon fill="#A80036" points="367.1337,144.8271,379.268,142.7483,372.3344,141.3608,373.722,134.4272,367.1337,144.8271" style="stroke: #A80036; stroke-width: 1.25;"/><!--MD5=[342d86ed6ac52f21a62ffe03d0413144]
@startuml
	class Intervention {
	}

	CreateInterventionView - -> Intervention
	DashboardView - -> Intervention
	InterventionsView - -> Intervention
@enduml

PlantUML version 1.2020.09(Sun May 10 12:51:06 CEST 2020)
(GPL source distribution)
Java Runtime: OpenJDK Runtime Environment
JVM: OpenJDK 64-Bit Server VM
Java Version: 11.0.8+10-b1094.1
Operating System: Windows 10
Default Encoding: Cp1252
Language: en
Country: GB
--></g></svg>