<?xml version="1.0" encoding="UTF-8" standalone="no"?><svg xmlns="http://www.w3.org/2000/svg" xmlns:xlink="http://www.w3.org/1999/xlink" contentScriptType="application/ecmascript" contentStyleType="text/css" height="218.75px" preserveAspectRatio="none" style="width:536px;height:218px;" version="1.1" viewBox="0 0 536 218" width="536.25px" zoomAndPan="magnify"><defs><filter height="300%" id="fkgw753bvfwwd" width="300%" x="-1" y="-1"><feGaussianBlur result="blurOut" stdDeviation="2.5"/><feColorMatrix in="blurOut" result="blurOut2" type="matrix" values="0 0 0 0 0 0 0 0 0 0 0 0 0 0 0 0 0 0 .4 0"/><feOffset dx="5.0" dy="5.0" in="blurOut2" result="blurOut3"/><feBlend in="SourceGraphic" in2="blurOut3" mode="normal"/></filter></defs><g><!--MD5=[1e29ec7aa20142996304403e448274ec]
class Mechanic--><rect fill="#FEFECE" filter="url(#fkgw753bvfwwd)" height="60" id="Mechanic" style="stroke: #A80036; stroke-width: 1.875;" width="105" x="235" y="145"/><ellipse cx="253.75" cy="165" fill="#ADD1B2" rx="13.75" ry="13.75" style="stroke: #A80036; stroke-width: 1.25;"/><path d="M256.25,160.625 Q256.5039,160 256.7969,159.6875 Q257.0898,159.375 257.4219,159.375 Q258.0078,159.375 258.3789,159.7266 Q258.75,160.0781 258.75,160.8984 L258.75,162.8516 Q258.75,163.6719 258.3984,164.0234 Q258.0469,164.375 257.5,164.375 Q257.0117,164.375 256.6992,164.1602 Q256.3867,163.9453 256.25,163.3789 Q256.1914,162.9883 255.9766,162.7734 Q255.5859,162.3633 254.8828,162.1289 Q254.1797,161.875 253.4766,161.875 Q252.5977,161.875 251.8555,162.2266 Q251.1328,162.5781 250.5664,163.3594 Q250,164.1406 250,165.2148 L250,166.3672 Q250,167.6563 251.0547,168.5156 Q252.1094,169.375 253.9844,169.375 Q255.0977,169.375 255.8789,169.1211 Q256.3281,168.9844 256.8359,168.5352 Q257.168,168.2813 257.3438,168.2031 Q257.5195,168.125 257.7344,168.125 Q258.1445,168.125 258.4375,168.457 Q258.75,168.7695 258.75,169.2188 Q258.75,169.6484 258.3203,170.1563 Q257.6953,170.8984 256.6992,171.3086 Q255.3906,171.875 253.7891,171.875 Q251.9141,171.875 250.4102,171.1328 Q249.1992,170.5469 248.3398,169.2773 Q247.5,168.0078 247.5,166.5039 L247.5,165.1367 Q247.5,163.5742 248.2422,162.207 Q249.0039,160.8398 250.3125,160.1172 Q251.6406,159.375 253.125,159.375 Q254.0234,159.375 254.8047,159.6875 Q255.5859,160 256.25,160.625 Z "/><text fill="#000000" font-family="sans-serif" font-size="15" lengthAdjust="spacingAndGlyphs" textLength="65" x="271.25" y="171.1377">Mechanic</text><line style="stroke: #A80036; stroke-width: 1.875;" x1="236.25" x2="338.75" y1="185" y2="185"/><line style="stroke: #A80036; stroke-width: 1.875;" x1="236.25" x2="338.75" y1="195" y2="195"/><!--MD5=[6d3946f4576b3d1380341ff87dc4fff4]
class InterventionsView--><rect fill="#FEFECE" filter="url(#fkgw753bvfwwd)" height="60" id="InterventionsView" style="stroke: #A80036; stroke-width: 1.875;" width="160" x="7.5" y="10"/><ellipse cx="26.25" cy="30" fill="#ADD1B2" rx="13.75" ry="13.75" style="stroke: #A80036; stroke-width: 1.25;"/><path d="M28.75,25.625 Q29.0039,25 29.2969,24.6875 Q29.5898,24.375 29.9219,24.375 Q30.5078,24.375 30.8789,24.7266 Q31.25,25.0781 31.25,25.8984 L31.25,27.8516 Q31.25,28.6719 30.8984,29.0234 Q30.5469,29.375 30,29.375 Q29.5117,29.375 29.1992,29.1602 Q28.8867,28.9453 28.75,28.3789 Q28.6914,27.9883 28.4766,27.7734 Q28.0859,27.3633 27.3828,27.1289 Q26.6797,26.875 25.9766,26.875 Q25.0977,26.875 24.3555,27.2266 Q23.6328,27.5781 23.0664,28.3594 Q22.5,29.1406 22.5,30.2148 L22.5,31.3672 Q22.5,32.6563 23.5547,33.5156 Q24.6094,34.375 26.4844,34.375 Q27.5977,34.375 28.3789,34.1211 Q28.8281,33.9844 29.3359,33.5352 Q29.668,33.2813 29.8438,33.2031 Q30.0195,33.125 30.2344,33.125 Q30.6445,33.125 30.9375,33.457 Q31.25,33.7695 31.25,34.2188 Q31.25,34.6484 30.8203,35.1563 Q30.1953,35.8984 29.1992,36.3086 Q27.8906,36.875 26.2891,36.875 Q24.4141,36.875 22.9102,36.1328 Q21.6992,35.5469 20.8398,34.2773 Q20,33.0078 20,31.5039 L20,30.1367 Q20,28.5742 20.7422,27.207 Q21.5039,25.8398 22.8125,25.1172 Q24.1406,24.375 25.625,24.375 Q26.5234,24.375 27.3047,24.6875 Q28.0859,25 28.75,25.625 Z "/><text fill="#000000" font-family="sans-serif" font-size="15" lengthAdjust="spacingAndGlyphs" textLength="120" x="43.75" y="36.1377">InterventionsView</text><line style="stroke: #A80036; stroke-width: 1.875;" x1="8.75" x2="166.25" y1="50" y2="50"/><line style="stroke: #A80036; stroke-width: 1.875;" x1="8.75" x2="166.25" y1="60" y2="60"/><!--MD5=[30447da4da4e7cfdf8dead7e3e7400a7]
class SignInController--><rect fill="#FEFECE" filter="url(#fkgw753bvfwwd)" height="60" id="SignInController" style="stroke: #A80036; stroke-width: 1.875;" width="151.25" x="211.875" y="10"/><ellipse cx="230.625" cy="30" fill="#ADD1B2" rx="13.75" ry="13.75" style="stroke: #A80036; stroke-width: 1.25;"/><path d="M233.125,25.625 Q233.3789,25 233.6719,24.6875 Q233.9648,24.375 234.2969,24.375 Q234.8828,24.375 235.2539,24.7266 Q235.625,25.0781 235.625,25.8984 L235.625,27.8516 Q235.625,28.6719 235.2734,29.0234 Q234.9219,29.375 234.375,29.375 Q233.8867,29.375 233.5742,29.1602 Q233.2617,28.9453 233.125,28.3789 Q233.0664,27.9883 232.8516,27.7734 Q232.4609,27.3633 231.7578,27.1289 Q231.0547,26.875 230.3516,26.875 Q229.4727,26.875 228.7305,27.2266 Q228.0078,27.5781 227.4414,28.3594 Q226.875,29.1406 226.875,30.2148 L226.875,31.3672 Q226.875,32.6563 227.9297,33.5156 Q228.9844,34.375 230.8594,34.375 Q231.9727,34.375 232.7539,34.1211 Q233.2031,33.9844 233.7109,33.5352 Q234.043,33.2813 234.2188,33.2031 Q234.3945,33.125 234.6094,33.125 Q235.0195,33.125 235.3125,33.457 Q235.625,33.7695 235.625,34.2188 Q235.625,34.6484 235.1953,35.1563 Q234.5703,35.8984 233.5742,36.3086 Q232.2656,36.875 230.6641,36.875 Q228.7891,36.875 227.2852,36.1328 Q226.0742,35.5469 225.2148,34.2773 Q224.375,33.0078 224.375,31.5039 L224.375,30.1367 Q224.375,28.5742 225.1172,27.207 Q225.8789,25.8398 227.1875,25.1172 Q228.5156,24.375 230,24.375 Q230.8984,24.375 231.6797,24.6875 Q232.4609,25 233.125,25.625 Z "/><text fill="#000000" font-family="sans-serif" font-size="15" lengthAdjust="spacingAndGlyphs" textLength="111.25" x="248.125" y="36.1377">SignInController</text><line style="stroke: #A80036; stroke-width: 1.875;" x1="213.125" x2="361.875" y1="50" y2="50"/><line style="stroke: #A80036; stroke-width: 1.875;" x1="213.125" x2="361.875" y1="60" y2="60"/><!--MD5=[c165718656364e8a2441ae1f83ea1dcf]
class SignInView--><rect fill="#FEFECE" filter="url(#fkgw753bvfwwd)" height="60" id="SignInView" style="stroke: #A80036; stroke-width: 1.875;" width="116.25" x="406.875" y="10"/><ellipse cx="425.625" cy="30" fill="#ADD1B2" rx="13.75" ry="13.75" style="stroke: #A80036; stroke-width: 1.25;"/><path d="M428.125,25.625 Q428.3789,25 428.6719,24.6875 Q428.9648,24.375 429.2969,24.375 Q429.8828,24.375 430.2539,24.7266 Q430.625,25.0781 430.625,25.8984 L430.625,27.8516 Q430.625,28.6719 430.2734,29.0234 Q429.9219,29.375 429.375,29.375 Q428.8867,29.375 428.5742,29.1602 Q428.2617,28.9453 428.125,28.3789 Q428.0664,27.9883 427.8516,27.7734 Q427.4609,27.3633 426.7578,27.1289 Q426.0547,26.875 425.3516,26.875 Q424.4727,26.875 423.7305,27.2266 Q423.0078,27.5781 422.4414,28.3594 Q421.875,29.1406 421.875,30.2148 L421.875,31.3672 Q421.875,32.6563 422.9297,33.5156 Q423.9844,34.375 425.8594,34.375 Q426.9727,34.375 427.7539,34.1211 Q428.2031,33.9844 428.7109,33.5352 Q429.043,33.2813 429.2188,33.2031 Q429.3945,33.125 429.6094,33.125 Q430.0195,33.125 430.3125,33.457 Q430.625,33.7695 430.625,34.2188 Q430.625,34.6484 430.1953,35.1563 Q429.5703,35.8984 428.5742,36.3086 Q427.2656,36.875 425.6641,36.875 Q423.7891,36.875 422.2852,36.1328 Q421.0742,35.5469 420.2148,34.2773 Q419.375,33.0078 419.375,31.5039 L419.375,30.1367 Q419.375,28.5742 420.1172,27.207 Q420.8789,25.8398 422.1875,25.1172 Q423.5156,24.375 425,24.375 Q425.8984,24.375 426.6797,24.6875 Q427.4609,25 428.125,25.625 Z "/><text fill="#000000" font-family="sans-serif" font-size="15" lengthAdjust="spacingAndGlyphs" textLength="76.25" x="443.125" y="36.1377">SignInView</text><line style="stroke: #A80036; stroke-width: 1.875;" x1="408.125" x2="521.875" y1="50" y2="50"/><line style="stroke: #A80036; stroke-width: 1.875;" x1="408.125" x2="521.875" y1="60" y2="60"/><!--MD5=[7bac7d1076a4ccaa31d8d4027821bef9]
link InterventionsView to Mechanic--><path d="M130.897,70 C162.5,90.9379 205.35,119.3259 238.2388,141.1146 " fill="none" id="InterventionsView-&gt;Mechanic" style="stroke: #A80036; stroke-width: 1.25;"/><polygon fill="#A80036" points="243.8425,144.8271,237.2253,134.4456,238.6322,141.3753,231.7025,142.7822,243.8425,144.8271" style="stroke: #A80036; stroke-width: 1.25;"/><!--MD5=[13f5f430fc5a9e93d57967bfaca64d11]
link SignInController to Mechanic--><path d="M287.5,70 C287.5,90.0038 287.5,116.8076 287.5,138.16 " fill="none" id="SignInController-&gt;Mechanic" style="stroke: #A80036; stroke-width: 1.25;"/><polygon fill="#A80036" points="287.5,144.598,292.5,133.348,287.5,138.348,282.5,133.348,287.5,144.598" style="stroke: #A80036; stroke-width: 1.25;"/><!--MD5=[fa5ac77d04cc07f77d489ec95eef3aac]
link SignInView to Mechanic--><path d="M426.485,70 C398.6487,90.7796 360.9813,118.8974 331.8825,140.6196 " fill="none" id="SignInView-&gt;Mechanic" style="stroke: #A80036; stroke-width: 1.25;"/><polygon fill="#A80036" points="326.5525,144.598,338.5585,141.8743,331.5607,140.859,332.5761,133.8612,326.5525,144.598" style="stroke: #A80036; stroke-width: 1.25;"/><!--MD5=[82b445c2308e4d405f50f6d5427912b3]
@startuml
	class Mechanic {
	}

	InterventionsView - -> Mechanic
	SignInController - -> Mechanic
	SignInView - -> Mechanic
@enduml

PlantUML version 1.2020.09(Sun May 10 12:51:06 CEST 2020)
(GPL source distribution)
Java Runtime: OpenJDK Runtime Environment
JVM: OpenJDK 64-Bit Server VM
Java Version: 11.0.8+10-b1094.1
Operating System: Windows 10
Default Encoding: Cp1252
Language: en
Country: GB
--></g></svg>