<?xml version="1.0" encoding="UTF-8" standalone="no"?><svg xmlns="http://www.w3.org/2000/svg" xmlns:xlink="http://www.w3.org/1999/xlink" contentScriptType="application/ecmascript" contentStyleType="text/css" height="762px" preserveAspectRatio="none" style="width:1349px;height:762px;" version="1.1" viewBox="0 0 1349 762" width="1349px" zoomAndPan="magnify"><defs><filter height="300%" id="fbbl0e657j45f" width="300%" x="-1" y="-1"><feGaussianBlur result="blurOut" stdDeviation="2.0"/><feColorMatrix in="blurOut" result="blurOut2" type="matrix" values="0 0 0 0 0 0 0 0 0 0 0 0 0 0 0 0 0 0 .4 0"/><feOffset dx="4.0" dy="4.0" in="blurOut2" result="blurOut3"/><feBlend in="SourceGraphic" in2="blurOut3" mode="normal"/></filter></defs><g><!--MD5=[999f80192410ad58725ac6d158b21eb2]
cluster Views--><polygon fill="#FFFFFF" filter="url(#fbbl0e657j45f)" points="30,32,77,32,84,55.6094,1004,55.6094,1004,254,30,254,30,32" style="stroke: #000000; stroke-width: 1.5;"/><line style="stroke: #000000; stroke-width: 1.5;" x1="30" x2="84" y1="55.6094" y2="55.6094"/><text fill="#000000" font-family="sans-serif" font-size="14" font-weight="bold" lengthAdjust="spacingAndGlyphs" textLength="41" x="34" y="48.5332">Views</text><!--MD5=[ed1d20ea533a2a0e7df5ba3c35e56ced]
cluster Controllers--><polygon fill="#FFFFFF" filter="url(#fbbl0e657j45f)" points="217,294,302,294,309,317.6094,1033,317.6094,1033,750,217,750,217,294" style="stroke: #000000; stroke-width: 1.5;"/><line style="stroke: #000000; stroke-width: 1.5;" x1="217" x2="309" y1="317.6094" y2="317.6094"/><text fill="#000000" font-family="sans-serif" font-size="14" font-weight="bold" lengthAdjust="spacingAndGlyphs" textLength="79" x="221" y="310.5332">Controllers</text><!--MD5=[027ebfd53c01aea08f474edbf35d0797]
cluster Models--><polygon fill="#FFFFFF" filter="url(#fbbl0e657j45f)" points="1073,412,1131,412,1138,435.6094,1327,435.6094,1327,750,1073,750,1073,412" style="stroke: #000000; stroke-width: 1.5;"/><line style="stroke: #000000; stroke-width: 1.5;" x1="1073" x2="1138" y1="435.6094" y2="435.6094"/><text fill="#000000" font-family="sans-serif" font-size="14" font-weight="bold" lengthAdjust="spacingAndGlyphs" textLength="52" x="1077" y="428.5332">Models</text><!--MD5=[1aabd2c6b56536cf48f052167268e724]
entity DashboardView--><path d="M896.5,80 L896.5,104 M896.5,92 L913.5,92 " fill="none" filter="url(#fbbl0e657j45f)" style="stroke: #000000; stroke-width: 2.0;"/><ellipse cx="925.5" cy="92" fill="#629EF9" filter="url(#fbbl0e657j45f)" rx="12" ry="12" style="stroke: #000000; stroke-width: 2.0;"/><text fill="#000000" font-family="sans-serif" font-size="12" lengthAdjust="spacingAndGlyphs" textLength="88" x="873" y="120.457">DashboardView</text><!--MD5=[78a44f5b38cfce3298d0b589b2be919a]
entity OperationsView--><path d="M773.5,80 L773.5,104 M773.5,92 L790.5,92 " fill="none" filter="url(#fbbl0e657j45f)" style="stroke: #000000; stroke-width: 2.0;"/><ellipse cx="802.5" cy="92" fill="#629EF9" filter="url(#fbbl0e657j45f)" rx="12" ry="12" style="stroke: #000000; stroke-width: 2.0;"/><text fill="#000000" font-family="sans-serif" font-size="12" lengthAdjust="spacingAndGlyphs" textLength="87" x="750.5" y="120.457">OperationsView</text><!--MD5=[4c085d9c348701230c5771955d9f314b]
entity CreateVehicleView--><path d="M762.5,187 L762.5,211 M762.5,199 L779.5,199 " fill="none" filter="url(#fbbl0e657j45f)" style="stroke: #000000; stroke-width: 2.0;"/><ellipse cx="791.5" cy="199" fill="#629EF9" filter="url(#fbbl0e657j45f)" rx="12" ry="12" style="stroke: #000000; stroke-width: 2.0;"/><text fill="#000000" font-family="sans-serif" font-size="12" lengthAdjust="spacingAndGlyphs" textLength="103" x="731.5" y="227.457">CreateVehicleView</text><!--MD5=[bf310ff65c094f958214110cd3a57689]
entity CreateClientView--><path d="M176.5,187 L176.5,211 M176.5,199 L193.5,199 " fill="none" filter="url(#fbbl0e657j45f)" style="stroke: #000000; stroke-width: 2.0;"/><ellipse cx="205.5" cy="199" fill="#629EF9" filter="url(#fbbl0e657j45f)" rx="12" ry="12" style="stroke: #000000; stroke-width: 2.0;"/><text fill="#000000" font-family="sans-serif" font-size="12" lengthAdjust="spacingAndGlyphs" textLength="95" x="149.5" y="227.457">CreateClientView</text><!--MD5=[9314a834bbeec77e884e35924949f9a9]
entity ConfigClientView--><path d="M306.5,187 L306.5,211 M306.5,199 L323.5,199 " fill="none" filter="url(#fbbl0e657j45f)" style="stroke: #000000; stroke-width: 2.0;"/><ellipse cx="335.5" cy="199" fill="#629EF9" filter="url(#fbbl0e657j45f)" rx="12" ry="12" style="stroke: #000000; stroke-width: 2.0;"/><text fill="#000000" font-family="sans-serif" font-size="12" lengthAdjust="spacingAndGlyphs" textLength="94" x="280" y="227.457">ConfigClientView</text><!--MD5=[8b4160d0424288b01998d58295b92c19]
entity ConfigVehicleView--><path d="M900.5,187 L900.5,211 M900.5,199 L917.5,199 " fill="none" filter="url(#fbbl0e657j45f)" style="stroke: #000000; stroke-width: 2.0;"/><ellipse cx="929.5" cy="199" fill="#629EF9" filter="url(#fbbl0e657j45f)" rx="12" ry="12" style="stroke: #000000; stroke-width: 2.0;"/><text fill="#000000" font-family="sans-serif" font-size="12" lengthAdjust="spacingAndGlyphs" textLength="102" x="870" y="227.457">ConfigVehicleView</text><!--MD5=[cde785e7aa7fa884f5332c0fa561ef76]
entity VehiclesView--><path d="M658.5,80 L658.5,104 M658.5,92 L675.5,92 " fill="none" filter="url(#fbbl0e657j45f)" style="stroke: #000000; stroke-width: 2.0;"/><ellipse cx="687.5" cy="92" fill="#629EF9" filter="url(#fbbl0e657j45f)" rx="12" ry="12" style="stroke: #000000; stroke-width: 2.0;"/><text fill="#000000" font-family="sans-serif" font-size="12" lengthAdjust="spacingAndGlyphs" textLength="73" x="642.5" y="120.457">VehiclesView</text><!--MD5=[ab5382b488bd2f47ce3ed999a238b00f]
entity CreateInterventionView--><path d="M612.5,187 L612.5,211 M612.5,199 L629.5,199 " fill="none" filter="url(#fbbl0e657j45f)" style="stroke: #000000; stroke-width: 2.0;"/><ellipse cx="641.5" cy="199" fill="#629EF9" filter="url(#fbbl0e657j45f)" rx="12" ry="12" style="stroke: #000000; stroke-width: 2.0;"/><text fill="#000000" font-family="sans-serif" font-size="12" lengthAdjust="spacingAndGlyphs" textLength="126" x="570" y="227.457">CreateInterventionView</text><!--MD5=[f5a78d3e2c2bba4955990b9a6243d12e]
entity MenuView--><path d="M558.5,80 L558.5,104 M558.5,92 L575.5,92 " fill="none" filter="url(#fbbl0e657j45f)" style="stroke: #000000; stroke-width: 2.0;"/><ellipse cx="587.5" cy="92" fill="#629EF9" filter="url(#fbbl0e657j45f)" rx="12" ry="12" style="stroke: #000000; stroke-width: 2.0;"/><text fill="#000000" font-family="sans-serif" font-size="12" lengthAdjust="spacingAndGlyphs" textLength="56" x="551" y="120.457">MenuView</text><!--MD5=[a97bfc2faaf266f55e1845b794aa09c5]
entity ConfigInterventionView--><path d="M451.5,187 L451.5,211 M451.5,199 L468.5,199 " fill="none" filter="url(#fbbl0e657j45f)" style="stroke: #000000; stroke-width: 2.0;"/><ellipse cx="480.5" cy="199" fill="#629EF9" filter="url(#fbbl0e657j45f)" rx="12" ry="12" style="stroke: #000000; stroke-width: 2.0;"/><text fill="#000000" font-family="sans-serif" font-size="12" lengthAdjust="spacingAndGlyphs" textLength="125" x="409.5" y="227.457">ConfigInterventionView</text><!--MD5=[ca89ee6e86027062307c55e90a5e2a44]
entity InterventionsView--><path d="M447.5,80 L447.5,104 M447.5,92 L464.5,92 " fill="none" filter="url(#fbbl0e657j45f)" style="stroke: #000000; stroke-width: 2.0;"/><ellipse cx="476.5" cy="92" fill="#629EF9" filter="url(#fbbl0e657j45f)" rx="12" ry="12" style="stroke: #000000; stroke-width: 2.0;"/><text fill="#000000" font-family="sans-serif" font-size="12" lengthAdjust="spacingAndGlyphs" textLength="96" x="420" y="120.457">InterventionsView</text><!--MD5=[0bad0964c7703fd507da547b41b75a4d]
entity MyInterventionsView--><path d="M309.5,80 L309.5,104 M309.5,92 L326.5,92 " fill="none" filter="url(#fbbl0e657j45f)" style="stroke: #000000; stroke-width: 2.0;"/><ellipse cx="338.5" cy="92" fill="#629EF9" filter="url(#fbbl0e657j45f)" rx="12" ry="12" style="stroke: #000000; stroke-width: 2.0;"/><text fill="#000000" font-family="sans-serif" font-size="12" lengthAdjust="spacingAndGlyphs" textLength="110" x="275" y="120.457">MyInterventionsView</text><!--MD5=[879601c54c16cbac2938a49e9c3f5a3f]
entity ClientsView--><path d="M181.5,80 L181.5,104 M181.5,92 L198.5,92 " fill="none" filter="url(#fbbl0e657j45f)" style="stroke: #000000; stroke-width: 2.0;"/><ellipse cx="210.5" cy="92" fill="#629EF9" filter="url(#fbbl0e657j45f)" rx="12" ry="12" style="stroke: #000000; stroke-width: 2.0;"/><text fill="#000000" font-family="sans-serif" font-size="12" lengthAdjust="spacingAndGlyphs" textLength="65" x="169.5" y="120.457">ClientsView</text><!--MD5=[b5c37742c2552546545ff1db6c9c22b8]
entity loginView--><path d="M63.5,80 L63.5,104 M63.5,92 L80.5,92 " fill="none" filter="url(#fbbl0e657j45f)" style="stroke: #000000; stroke-width: 2.0;"/><ellipse cx="92.5" cy="92" fill="#629EF9" filter="url(#fbbl0e657j45f)" rx="12" ry="12" style="stroke: #000000; stroke-width: 2.0;"/><text fill="#000000" font-family="sans-serif" font-size="12" lengthAdjust="spacingAndGlyphs" textLength="53" x="57.5" y="120.457">loginView</text><!--MD5=[6b2347a91d39457ba1928168a71ff1a1]
entity signInView--><path d="M63.5,187 L63.5,211 M63.5,199 L80.5,199 " fill="none" filter="url(#fbbl0e657j45f)" style="stroke: #000000; stroke-width: 2.0;"/><ellipse cx="92.5" cy="199" fill="#629EF9" filter="url(#fbbl0e657j45f)" rx="12" ry="12" style="stroke: #000000; stroke-width: 2.0;"/><text fill="#000000" font-family="sans-serif" font-size="12" lengthAdjust="spacingAndGlyphs" textLength="60" x="54" y="227.457">signInView</text><!--MD5=[ad52f4586168a27741d03465c23b7d0c]
entity openClientsController--><ellipse cx="329" cy="354" fill="#B5BD68" filter="url(#fbbl0e657j45f)" rx="12" ry="12" style="stroke: #718C00; stroke-width: 2.0;"/><polygon fill="#718C00" points="325,342,331,337,329,342,331,347,325,342" style="stroke: #718C00; stroke-width: 1.0;"/><text fill="#000000" font-family="sans-serif" font-size="14" lengthAdjust="spacingAndGlyphs" textLength="137" x="260.5" y="384.5332">openClientsController</text><!--MD5=[b15d47ab8518b67d1db4b607680933c1]
entity openVehiclesController--><ellipse cx="506" cy="354" fill="#B5BD68" filter="url(#fbbl0e657j45f)" rx="12" ry="12" style="stroke: #718C00; stroke-width: 2.0;"/><polygon fill="#718C00" points="502,342,508,337,506,342,508,347,502,342" style="stroke: #718C00; stroke-width: 1.0;"/><text fill="#000000" font-family="sans-serif" font-size="14" lengthAdjust="spacingAndGlyphs" textLength="147" x="432.5" y="384.5332">openVehiclesController</text><!--MD5=[f4c3d9a91c78a838ceb8ab876f7a665c]
entity openDashboardController--><ellipse cx="697" cy="354" fill="#B5BD68" filter="url(#fbbl0e657j45f)" rx="12" ry="12" style="stroke: #718C00; stroke-width: 2.0;"/><polygon fill="#718C00" points="693,342,699,337,697,342,699,347,693,342" style="stroke: #718C00; stroke-width: 1.0;"/><text fill="#000000" font-family="sans-serif" font-size="14" lengthAdjust="spacingAndGlyphs" textLength="164" x="615" y="384.5332">openDashboardController</text><!--MD5=[2adea846d37a08e1d975621d7319cc4e]
entity openOperations--><ellipse cx="865" cy="354" fill="#B5BD68" filter="url(#fbbl0e657j45f)" rx="12" ry="12" style="stroke: #718C00; stroke-width: 2.0;"/><polygon fill="#718C00" points="861,342,867,337,865,342,867,347,861,342" style="stroke: #718C00; stroke-width: 1.0;"/><text fill="#000000" font-family="sans-serif" font-size="14" lengthAdjust="spacingAndGlyphs" textLength="102" x="814" y="384.5332">openOperations</text><!--MD5=[9499cacf97555793602be58dd5201700]
entity openInterventionsController--><ellipse cx="329" cy="472" fill="#B5BD68" filter="url(#fbbl0e657j45f)" rx="12" ry="12" style="stroke: #718C00; stroke-width: 2.0;"/><polygon fill="#718C00" points="325,460,331,455,329,460,331,465,325,460" style="stroke: #718C00; stroke-width: 1.0;"/><text fill="#000000" font-family="sans-serif" font-size="14" lengthAdjust="spacingAndGlyphs" textLength="175" x="241.5" y="502.5332">openInterventionsController</text><!--MD5=[3f7cf680d6c955fa78007acf34024aa4]
entity openMyInterventionsController--><ellipse cx="548" cy="472" fill="#B5BD68" filter="url(#fbbl0e657j45f)" rx="12" ry="12" style="stroke: #718C00; stroke-width: 2.0;"/><polygon fill="#718C00" points="544,460,550,455,548,460,550,465,544,460" style="stroke: #718C00; stroke-width: 1.0;"/><text fill="#000000" font-family="sans-serif" font-size="14" lengthAdjust="spacingAndGlyphs" textLength="193" x="451.5" y="502.5332">openMyInterventionsController</text><!--MD5=[f63c202a6e4b759c74b8768fc01b7814]
entity createClientController--><ellipse cx="749" cy="472" fill="#B5BD68" filter="url(#fbbl0e657j45f)" rx="12" ry="12" style="stroke: #718C00; stroke-width: 2.0;"/><polygon fill="#718C00" points="745,460,751,455,749,460,751,465,745,460" style="stroke: #718C00; stroke-width: 1.0;"/><text fill="#000000" font-family="sans-serif" font-size="14" lengthAdjust="spacingAndGlyphs" textLength="138" x="680" y="502.5332">createClientController</text><!--MD5=[6494b6beb73e1f5fecca1d656ef82b27]
entity createVehicleController--><ellipse cx="927" cy="472" fill="#B5BD68" filter="url(#fbbl0e657j45f)" rx="12" ry="12" style="stroke: #718C00; stroke-width: 2.0;"/><polygon fill="#718C00" points="923,460,929,455,927,460,929,465,923,460" style="stroke: #718C00; stroke-width: 1.0;"/><text fill="#000000" font-family="sans-serif" font-size="14" lengthAdjust="spacingAndGlyphs" textLength="148" x="853" y="502.5332">createVehicleController</text><!--MD5=[9fe5083bf123b6495620ed7e7d41811e]
entity createInterventionController--><ellipse cx="329" cy="582" fill="#B5BD68" filter="url(#fbbl0e657j45f)" rx="12" ry="12" style="stroke: #718C00; stroke-width: 2.0;"/><polygon fill="#718C00" points="325,570,331,565,329,570,331,575,325,570" style="stroke: #718C00; stroke-width: 1.0;"/><text fill="#000000" font-family="sans-serif" font-size="14" lengthAdjust="spacingAndGlyphs" textLength="176" x="241" y="612.5332">createInterventionController</text><!--MD5=[e6a4aa4f16bb365220a213a960fc3833]
entity configClientController--><ellipse cx="520" cy="582" fill="#B5BD68" filter="url(#fbbl0e657j45f)" rx="12" ry="12" style="stroke: #718C00; stroke-width: 2.0;"/><polygon fill="#718C00" points="516,570,522,565,520,570,522,575,516,570" style="stroke: #718C00; stroke-width: 1.0;"/><text fill="#000000" font-family="sans-serif" font-size="14" lengthAdjust="spacingAndGlyphs" textLength="136" x="452" y="612.5332">configClientController</text><!--MD5=[f8780aa28b7d46e83500383481ef66b0]
entity configVehicleController--><ellipse cx="696" cy="582" fill="#B5BD68" filter="url(#fbbl0e657j45f)" rx="12" ry="12" style="stroke: #718C00; stroke-width: 2.0;"/><polygon fill="#718C00" points="692,570,698,565,696,570,698,575,692,570" style="stroke: #718C00; stroke-width: 1.0;"/><text fill="#000000" font-family="sans-serif" font-size="14" lengthAdjust="spacingAndGlyphs" textLength="146" x="623" y="612.5332">configVehicleController</text><!--MD5=[19793ccb82dd77da99a7d7c75da496a3]
entity finishInterventionController--><ellipse cx="889" cy="582" fill="#B5BD68" filter="url(#fbbl0e657j45f)" rx="12" ry="12" style="stroke: #718C00; stroke-width: 2.0;"/><polygon fill="#718C00" points="885,570,891,565,889,570,891,575,885,570" style="stroke: #718C00; stroke-width: 1.0;"/><text fill="#000000" font-family="sans-serif" font-size="14" lengthAdjust="spacingAndGlyphs" textLength="169" x="804.5" y="612.5332">finishInterventionController</text><!--MD5=[f0558ac9e3788c296fb84b744e513bca]
entity loginController--><ellipse cx="329" cy="692" fill="#B5BD68" filter="url(#fbbl0e657j45f)" rx="12" ry="12" style="stroke: #718C00; stroke-width: 2.0;"/><polygon fill="#718C00" points="325,680,331,675,329,680,331,685,325,680" style="stroke: #718C00; stroke-width: 1.0;"/><text fill="#000000" font-family="sans-serif" font-size="14" lengthAdjust="spacingAndGlyphs" textLength="92" x="283" y="722.5332">loginController</text><!--MD5=[5565452fd5db2993ad6df6701b5e67cb]
entity logoutController--><ellipse cx="461" cy="692" fill="#B5BD68" filter="url(#fbbl0e657j45f)" rx="12" ry="12" style="stroke: #718C00; stroke-width: 2.0;"/><polygon fill="#718C00" points="457,680,463,675,461,680,463,685,457,680" style="stroke: #718C00; stroke-width: 1.0;"/><text fill="#000000" font-family="sans-serif" font-size="14" lengthAdjust="spacingAndGlyphs" textLength="101" x="410.5" y="722.5332">logoutController</text><!--MD5=[3764035e638aecf6dc2d1cd844a60537]
entity signInController--><ellipse cx="596" cy="692" fill="#B5BD68" filter="url(#fbbl0e657j45f)" rx="12" ry="12" style="stroke: #718C00; stroke-width: 2.0;"/><polygon fill="#718C00" points="592,680,598,675,596,680,598,685,592,680" style="stroke: #718C00; stroke-width: 1.0;"/><text fill="#000000" font-family="sans-serif" font-size="14" lengthAdjust="spacingAndGlyphs" textLength="99" x="546.5" y="722.5332">signInController</text><!--MD5=[0ba5ee7700168656dc1b457c6fe9fdac]
entity Client--><ellipse cx="1268" cy="582" fill="#F2AC4E" filter="url(#fbbl0e657j45f)" rx="12" ry="12" style="stroke: #000000; stroke-width: 2.0;"/><line style="stroke: #000000; stroke-width: 2.0;" x1="1256" x2="1280" y1="596" y2="596"/><text fill="#000000" font-family="sans-serif" font-size="14" lengthAdjust="spacingAndGlyphs" textLength="36" x="1250" y="612.5332">Client</text><!--MD5=[c796543839e6086ac460deba3cd4e684]
entity Vehicle--><ellipse cx="1223" cy="692" fill="#F2AC4E" filter="url(#fbbl0e657j45f)" rx="12" ry="12" style="stroke: #000000; stroke-width: 2.0;"/><line style="stroke: #000000; stroke-width: 2.0;" x1="1211" x2="1235" y1="706" y2="706"/><text fill="#000000" font-family="sans-serif" font-size="14" lengthAdjust="spacingAndGlyphs" textLength="46" x="1200" y="722.5332">Vehicle</text><!--MD5=[e3fdc96919b3d0718a6aa38a39f53a06]
entity Intervention--><ellipse cx="1178" cy="582" fill="#F2AC4E" filter="url(#fbbl0e657j45f)" rx="12" ry="12" style="stroke: #000000; stroke-width: 2.0;"/><line style="stroke: #000000; stroke-width: 2.0;" x1="1166" x2="1190" y1="596" y2="596"/><text fill="#000000" font-family="sans-serif" font-size="14" lengthAdjust="spacingAndGlyphs" textLength="74" x="1141" y="612.5332">Intervention</text><!--MD5=[4c47d1f534553ec0ad9070f35bcc324d]
entity Mechanic--><ellipse cx="1273" cy="472" fill="#F2AC4E" filter="url(#fbbl0e657j45f)" rx="12" ry="12" style="stroke: #000000; stroke-width: 2.0;"/><line style="stroke: #000000; stroke-width: 2.0;" x1="1261" x2="1285" y1="486" y2="486"/><text fill="#000000" font-family="sans-serif" font-size="14" lengthAdjust="spacingAndGlyphs" textLength="60" x="1243" y="502.5332">Mechanic</text><!--MD5=[d80e64fb96818e3176932d984395000d]
entity RepairingPack--><ellipse cx="1162" cy="472" fill="#F2AC4E" filter="url(#fbbl0e657j45f)" rx="12" ry="12" style="stroke: #000000; stroke-width: 2.0;"/><line style="stroke: #000000; stroke-width: 2.0;" x1="1150" x2="1174" y1="486" y2="486"/><text fill="#000000" font-family="sans-serif" font-size="14" lengthAdjust="spacingAndGlyphs" textLength="92" x="1116" y="502.5332">RepairingPack</text><!--MD5=[925ab9a538a08a1e98b60985b23e0ae1]
link Views to Controllers--><!--MD5=[424488e8f480e7d5928ef5318233d0af]
link Controllers to Models--><!--MD5=[9f0af71f6c4897d63402095dd3789c52]
reverse link VehiclesView to CreateVehicleView--><path d="M710.822,132.628 C726.834,148.794 745.867,168.01 760.367,182.65 " fill="none" id="VehiclesView&lt;-CreateVehicleView" style="stroke: #A80036; stroke-width: 1.0;"/><polygon fill="#FFFFFF" points="701.311,123.025,702.6906,130.1029,709.7546,131.5517,708.3751,124.4738,701.311,123.025" style="stroke: #A80036; stroke-width: 1.0;"/><!--MD5=[5d9335f8ce4938197892de9f0003eb3b]
reverse link VehiclesView to ConfigVehicleView--><path d="M727.695,121.628 C768.983,139.542 828.009,165.153 869.953,183.351 " fill="none" id="VehiclesView&lt;-ConfigVehicleView" style="stroke: #A80036; stroke-width: 1.0;"/><polygon fill="#FFFFFF" points="715.755,116.447,719.6671,122.5047,726.7635,121.2233,722.8513,115.1657,715.755,116.447" style="stroke: #A80036; stroke-width: 1.0;"/><!--MD5=[e39d989c83d926c496b6c2000ed11b2f]
reverse link ClientsView to ConfigClientView--><path d="M238.893,131.49 C258.411,147.885 281.958,167.665 299.797,182.65 " fill="none" id="ClientsView&lt;-ConfigClientView" style="stroke: #A80036; stroke-width: 1.0;"/><polygon fill="#FFFFFF" points="228.816,123.025,230.8375,129.947,238.0045,130.7432,235.983,123.8213,228.816,123.025" style="stroke: #A80036; stroke-width: 1.0;"/><!--MD5=[8293e353abc30c104d3a6f9298772d47]
reverse link ClientsView to CreateClientView--><path d="M200.293,136.337 C199.563,151.669 198.733,169.115 198.088,182.65 " fill="none" id="ClientsView&lt;-CreateClientView" style="stroke: #A80036; stroke-width: 1.0;"/><polygon fill="#FFFFFF" points="200.927,123.025,196.646,128.8279,200.356,135.0114,204.637,129.2085,200.927,123.025" style="stroke: #A80036; stroke-width: 1.0;"/><!--MD5=[f4d8b25735611cac0ea9e6f2c41aa2b0]
reverse link MenuView to CreateInterventionView--><path d="M596.71,134.936 C604.764,150.597 614.075,168.701 621.248,182.65 " fill="none" id="MenuView&lt;-CreateInterventionView" style="stroke: #A80036; stroke-width: 1.0;"/><polygon fill="#FFFFFF" points="590.584,123.025,589.7712,130.1902,596.0726,133.6962,596.8854,126.5311,590.584,123.025" style="stroke: #A80036; stroke-width: 1.0;"/><!--MD5=[6e823808b17d62c4f322969428be28eb]
reverse link loginView to signInView--><path d="M84,136.337 C84,151.669 84,169.115 84,182.65 " fill="none" id="loginView&lt;-signInView" style="stroke: #A80036; stroke-width: 1.0;"/><polygon fill="#FFFFFF" points="84,123.025,80,129.025,84,135.025,88,129.025,84,123.025" style="stroke: #A80036; stroke-width: 1.0;"/><!--MD5=[cf0afc8146165ce77c6a272c60ff7498]
reverse link MyInterventionsView to ConfigInterventionView--><path d="M370.993,130.812 C393.342,147.337 420.552,167.458 441.098,182.65 " fill="none" id="MyInterventionsView&lt;-ConfigInterventionView" style="stroke: #A80036; stroke-width: 1.0;"/><polygon fill="#FFFFFF" points="360.463,123.025,362.9088,129.8087,370.1114,130.1601,367.6655,123.3764,360.463,123.025" style="stroke: #A80036; stroke-width: 1.0;"/><!--MD5=[cf41a8f929fffe039bf95a63723e5762]
reverse link InterventionsView to ConfigInterventionView--><path d="M469.365,136.337 C469.949,151.669 470.614,169.115 471.13,182.65 " fill="none" id="InterventionsView&lt;-ConfigInterventionView" style="stroke: #A80036; stroke-width: 1.0;"/><polygon fill="#FFFFFF" points="468.858,123.025,465.0897,129.1732,469.3156,135.0163,473.0839,128.8681,468.858,123.025" style="stroke: #A80036; stroke-width: 1.0;"/><!--MD5=[167c7246344a03b7a9b9ac52a0e7bb16]
reverse link Client to Vehicle--><path d="M1252.72,628.678 C1246.23,644.246 1238.85,661.963 1233.07,675.8436 " fill="none" id="Client&lt;-Vehicle" style="stroke: #A80036; stroke-width: 1.0;"/><polygon fill="#A80036" points="1257.9,616.237,1251.9,620.237,1253.2846,627.3139,1259.2846,623.3139,1257.9,616.237" style="stroke: #A80036; stroke-width: 1.0;"/><!--MD5=[aec92a431b006b4ac4b9b8c95bf40422]
reverse link Intervention to Vehicle--><path d="M1193.28,628.678 C1199.77,644.246 1207.15,661.963 1212.93,675.8436 " fill="none" id="Intervention&lt;-Vehicle" style="stroke: #A80036; stroke-width: 1.0;"/><polygon fill="#FFFFFF" points="1188.1,616.237,1186.7154,623.3139,1192.7154,627.3139,1194.1,620.237,1188.1,616.237" style="stroke: #A80036; stroke-width: 1.0;"/><!--MD5=[c3c064959d75bf90d54a4576dfab5b8e]
reverse link Mechanic to Intervention--><path d="M1242.78,516.36 C1228.61,532.465 1212.07,551.269 1199.25,565.844 " fill="none" id="Mechanic&lt;-Intervention" style="stroke: #A80036; stroke-width: 1.0;"/><polygon fill="#A80036" points="1251.68,506.237,1244.7133,508.0984,1243.752,515.2452,1250.7187,513.3837,1251.68,506.237" style="stroke: #A80036; stroke-width: 1.0;"/><!--MD5=[bb201bb38b1319122f2150c2bf5e2133]
reverse link RepairingPack to Intervention--><path d="M1167.5,519.146 C1169.79,534.6 1172.39,552.101 1174.42,565.844 " fill="none" id="RepairingPack&lt;-Intervention" style="stroke: #A80036; stroke-width: 1.0;"/><polygon fill="#FFFFFF" points="1165.59,506.237,1162.513,512.7586,1167.3494,518.1073,1170.4265,511.5857,1165.59,506.237" style="stroke: #A80036; stroke-width: 1.0;"/><!--MD5=[b5be71e2391f9677378370c4488f1780]
link openClientsController to openVehiclesController--><!--MD5=[e9962c8b66b7d3a8ab0857d406565cb6]
link openVehiclesController to openDashboardController--><!--MD5=[da94099afdf4aafcd8206b8f25828ac0]
link openDashboardController to openOperations--><!--MD5=[2990e7a9bc7d2b03af885f350ef2e47e]
link openClientsController to openInterventionsController--><!--MD5=[c526feb3daa171da7a4719fdaa8c111d]
link openInterventionsController to openMyInterventionsController--><!--MD5=[a6dbd0119da0bb51719cfc647c4a7c7b]
link openMyInterventionsController to createClientController--><!--MD5=[1de0dbdeb832828458cad21797ee9682]
link createClientController to createVehicleController--><!--MD5=[1d3e513d9b29d3fdcf4b0253bec0c99a]
link openInterventionsController to createInterventionController--><!--MD5=[321f20c6208e0f72b706b99f823daefa]
link createInterventionController to configClientController--><!--MD5=[e27b729f2cc072a9b96a97b9eed0e28e]
link configClientController to configVehicleController--><!--MD5=[207d04a69afebb40f2a5d35c7423eb20]
link configVehicleController to finishInterventionController--><!--MD5=[8639af14d75b31503e71d5be2d74dba5]
link createInterventionController to loginController--><!--MD5=[46f3e566281100ffb1ad45881d865d4c]
link loginController to logoutController--><!--MD5=[61c84f86f821e5d6e31790439ca75377]
link logoutController to signInController--><!--MD5=[93cd1932f4c096576fae441fe88ed719]
@startuml


skinparam {
    BoundaryBackgroundColor #629EF9
    BoundaryBorderColor black
    BoundaryFontSize 12
    BoundarySize 10
    ControlBackgroundColor #b5bd68
    ControlBorderColor #718c00
    EntityBackgroundColor #F2AC4E
    EntityBorderColor black
}


package Views {
    boundary DashboardView
    boundary OperationsView
    boundary CreateVehicleView
    boundary CreateClientView
    boundary ConfigClientView
    boundary ConfigVehicleView
    boundary VehiclesView
    boundary CreateInterventionView
    boundary MenuView
    boundary ConfigInterventionView
    boundary InterventionsView
    boundary MyInterventionsView
    boundary ClientsView
    boundary loginView
    boundary signInView
}

package Controllers {
    control openClientsController
    control openVehiclesController
    control openDashboardController
    control openOperations
    control openInterventionsController
    control openMyInterventionsController
    control createClientController
    control createVehicleController
    control createInterventionController
    control configClientController
    control configVehicleController
    control finishInterventionController
    control loginController
    control logoutController
    control signInController
}

package Models {
    entity Client
    entity Vehicle
    entity Intervention
    entity Mechanic
    entity RepairingPack
}

Views -[hidden]- - Controllers
Controllers -[hidden]- Models

VehiclesView o- - CreateVehicleView
VehiclesView o- - ConfigVehicleView
ClientsView o- - ConfigClientView
ClientsView o- - CreateClientView
MenuView o- - CreateInterventionView
loginView o- - signInView
MyInterventionsView o- - ConfigInterventionView
InterventionsView o- - ConfigInterventionView

Client *- - Vehicle
Intervention o- - Vehicle
Mechanic *- - Intervention
RepairingPack o- - Intervention
@enduml

PlantUML version 1.2020.09(Sun May 10 12:51:06 CEST 2020)
(GPL source distribution)
Java Runtime: OpenJDK Runtime Environment
JVM: OpenJDK 64-Bit Server VM
Java Version: 11.0.8+10-b1094.1
Operating System: Windows 10
Default Encoding: Cp1252
Language: en
Country: GB
--></g></svg>