<?xml version="1.0" encoding="UTF-8" standalone="no"?><svg xmlns="http://www.w3.org/2000/svg" xmlns:xlink="http://www.w3.org/1999/xlink" contentScriptType="application/ecmascript" contentStyleType="text/css" height="356px" preserveAspectRatio="none" style="width:545px;height:356px;" version="1.1" viewBox="0 0 545 356" width="545px" zoomAndPan="magnify"><defs><filter height="300%" id="f11cyr045ew4tw" width="300%" x="-1" y="-1"><feGaussianBlur result="blurOut" stdDeviation="2.0"/><feColorMatrix in="blurOut" result="blurOut2" type="matrix" values="0 0 0 0 0 0 0 0 0 0 0 0 0 0 0 0 0 0 .4 0"/><feOffset dx="4.0" dy="4.0" in="blurOut2" result="blurOut3"/><feBlend in="SourceGraphic" in2="blurOut3" mode="normal"/></filter></defs><g><!--MD5=[16ecbb7417423ec633ca7948c94e4b2b]
cluster ClientsManagement--><polygon fill="#FFFFFF" filter="url(#f11cyr045ew4tw)" points="22,24,168,24,175,47.6094,523,47.6094,523,344,22,344,22,24" style="stroke: #000000; stroke-width: 1.5;"/><line style="stroke: #000000; stroke-width: 1.5;" x1="22" x2="175" y1="47.6094" y2="47.6094"/><text fill="#000000" font-family="sans-serif" font-size="14" font-weight="bold" lengthAdjust="spacingAndGlyphs" textLength="140" x="26" y="40.5332">ClientsManagement</text><!--MD5=[370f09de3b578360a6dfb01a48af8db0]
entity mechanic--><ellipse cx="68" cy="176" fill="#FEFECE" filter="url(#f11cyr045ew4tw)" rx="8" ry="8" style="stroke: #A80036; stroke-width: 1.5;"/><path d="M68,184 L68,211 M55,192 L81,192 M68,211 L55,226 M68,211 L81,226 " fill="none" filter="url(#f11cyr045ew4tw)" style="stroke: #A80036; stroke-width: 1.5;"/><text fill="#000000" font-family="sans-serif" font-size="14" lengthAdjust="spacingAndGlyphs" textLength="60" x="38" y="246.0332">mechanic</text><ellipse cx="218.7401" cy="311.9517" fill="#FEFECE" filter="url(#f11cyr045ew4tw)" rx="56.7401" ry="15.4517" style="stroke: #A80036; stroke-width: 1.5;"/><text fill="#000000" font-family="sans-serif" font-size="14" lengthAdjust="spacingAndGlyphs" textLength="76" x="180.7401" y="317.2564">createClient</text><ellipse cx="451.033" cy="220.9517" fill="#FEFECE" filter="url(#f11cyr045ew4tw)" rx="56.033" ry="15.4517" style="stroke: #A80036; stroke-width: 1.5;"/><text fill="#000000" font-family="sans-serif" font-size="14" lengthAdjust="spacingAndGlyphs" textLength="75" x="413.533" y="226.2564">openClients</text><ellipse cx="218.5833" cy="207.9517" fill="#FEFECE" filter="url(#f11cyr045ew4tw)" rx="51.0833" ry="15.4517" style="stroke: #A80036; stroke-width: 1.5;"/><text fill="#000000" font-family="sans-serif" font-size="14" lengthAdjust="spacingAndGlyphs" textLength="68" x="184.5833" y="213.2564">openClient</text><ellipse cx="218.5685" cy="141.9517" fill="#FEFECE" filter="url(#f11cyr045ew4tw)" rx="59.5685" ry="15.4517" style="stroke: #A80036; stroke-width: 1.5;"/><text fill="#000000" font-family="sans-serif" font-size="14" lengthAdjust="spacingAndGlyphs" textLength="80" x="178.5685" y="147.2564">updateClient</text><ellipse cx="218.533" cy="75.9517" fill="#FEFECE" filter="url(#f11cyr045ew4tw)" rx="56.033" ry="15.4517" style="stroke: #A80036; stroke-width: 1.5;"/><text fill="#000000" font-family="sans-serif" font-size="14" lengthAdjust="spacingAndGlyphs" textLength="75" x="181.033" y="81.2564">deleteClient</text><!--MD5=[6c37d799751164b5ee991cd3bbb59dfb]
link mechanic to createClient--><path d="M98.2931,242.531 C107.228,251.836 117.485,261.4142 128,269 C143.846,280.4317 163.204,290.1697 179.859,297.473 " fill="none" id="mechanic-&gt;createClient" style="stroke: #A80036; stroke-width: 1.0;"/><polygon fill="#A80036" points="184.48,299.4677,177.802,292.2286,179.8894,297.4862,174.6317,299.5736,184.48,299.4677" style="stroke: #A80036; stroke-width: 1.0;"/><!--MD5=[450637bd7d778f69aba71ce9795ae5bf]
link createClient to openClients--><path d="M274.19,308.9508 C302.283,305.8306 336.505,299.5613 365,287 C390.689,275.6757 415.506,254.906 431.624,239.681 " fill="none" id="createClient-&gt;openClients" style="stroke: #A80036; stroke-width: 1.0; stroke-dasharray: 7.0,7.0;"/><polygon fill="#A80036" points="435.53,235.939,426.2633,239.275,431.9189,239.3973,431.7966,245.0528,435.53,235.939" style="stroke: #A80036; stroke-width: 1.0;"/><text fill="#000000" font-family="sans-serif" font-size="13" lengthAdjust="spacingAndGlyphs" textLength="55" x="309" y="283.4951">«include»</text><!--MD5=[b04baa2de76f88f9a85401abc78e33a5]
link mechanic to openClient--><path d="M98.3388,208 C116.572,208 140.592,208 162.287,208 " fill="none" id="mechanic-&gt;openClient" style="stroke: #A80036; stroke-width: 1.0;"/><polygon fill="#A80036" points="167.456,208,158.456,204,162.456,208,158.456,212,167.456,208" style="stroke: #A80036; stroke-width: 1.0;"/><!--MD5=[5473b4dbead658d565c68223a891e7ac]
link mechanic to updateClient--><path d="M98.3388,194.961 C122.609,184.174 157.133,168.83 182.778,157.432 " fill="none" id="mechanic-&gt;updateClient" style="stroke: #A80036; stroke-width: 1.0;"/><polygon fill="#A80036" points="187.459,155.352,177.6101,155.35,182.8895,157.3818,180.8578,162.6612,187.459,155.352" style="stroke: #A80036; stroke-width: 1.0;"/><!--MD5=[3ff65d4c52b58d793e6774c7f2348086]
link updateClient to openClients--><path d="M255.263,154.257 C297.148,168.612 366.343,192.328 409.981,207.284 " fill="none" id="updateClient-&gt;openClients" style="stroke: #A80036; stroke-width: 1.0; stroke-dasharray: 7.0,7.0;"/><polygon fill="#A80036" points="414.91,208.973,407.6934,202.2707,410.1802,207.3516,405.0992,209.8384,414.91,208.973" style="stroke: #A80036; stroke-width: 1.0;"/><text fill="#000000" font-family="sans-serif" font-size="13" lengthAdjust="spacingAndGlyphs" textLength="55" x="309" y="170.4951">«include»</text><!--MD5=[93126d5d8de04e4414b045df02321691]
link mechanic to deleteClient--><path d="M98.1487,170.506 C114.663,150.749 136.483,126.961 159,109 C166.845,102.742 176.028,96.962 184.761,92.046 " fill="none" id="mechanic-&gt;deleteClient" style="stroke: #A80036; stroke-width: 1.0;"/><polygon fill="#A80036" points="189.555,89.406,179.7417,90.2426,185.1749,91.8175,183.6001,97.2507,189.555,89.406" style="stroke: #A80036; stroke-width: 1.0;"/><!--MD5=[da82f0cd9ce0edcc4c6a2d38dfeac44d]
link deleteClient to openClients--><path d="M250.815,88.772 C281.143,101.76 327.863,123.427 365,148 C389.377,164.13 414.422,186.476 430.953,202.183 " fill="none" id="deleteClient-&gt;openClients" style="stroke: #A80036; stroke-width: 1.0; stroke-dasharray: 7.0,7.0;"/><polygon fill="#A80036" points="434.966,206.025,431.2326,196.9112,431.3549,202.5667,425.6993,202.689,434.966,206.025" style="stroke: #A80036; stroke-width: 1.0;"/><text fill="#000000" font-family="sans-serif" font-size="13" lengthAdjust="spacingAndGlyphs" textLength="55" x="309" y="113.4951">«include»</text><!--MD5=[4af8823dd3cfa4dd1430cea14097065d]
link mechanic to openClients--><path d="M98.2695,221.707 C115.526,229.026 138.026,237.276 159,241 C243.215,255.953 342.977,242.469 401.112,231.562 " fill="none" id="mechanic-&gt;openClients" style="stroke: #A80036; stroke-width: 1.0;"/><polygon fill="#A80036" points="406.261,230.583,396.6722,228.3348,401.349,231.5171,398.1668,236.194,406.261,230.583" style="stroke: #A80036; stroke-width: 1.0;"/><!--MD5=[08d885412769ccc1b907a97cedbfaee3]
@startuml

left to right direction

package ClientsManagement {
:mechanic: - -> (createClient)
(createClient) ..> (openClients) : <<include>>
:mechanic: - -> (openClient)
:mechanic: - -> (updateClient)
(updateClient) ..> (openClients) : <<include>>
:mechanic: - -> (deleteClient)
(deleteClient) ..> (openClients) : <<include>>
:mechanic: - -> (openClients)
}

@enduml

PlantUML version 1.2020.09(Sun May 10 12:51:06 CEST 2020)
(GPL source distribution)
Java Runtime: OpenJDK Runtime Environment
JVM: OpenJDK 64-Bit Server VM
Java Version: 11.0.6+8-b765.25
Operating System: Windows 10
Default Encoding: Cp1252
Language: en
Country: GB
--></g></svg>