<?xml version="1.0" encoding="UTF-8" standalone="no"?><svg xmlns="http://www.w3.org/2000/svg" xmlns:xlink="http://www.w3.org/1999/xlink" contentScriptType="application/ecmascript" contentStyleType="text/css" height="510px" preserveAspectRatio="none" style="width:790px;height:510px;" version="1.1" viewBox="0 0 790 510" width="790px" zoomAndPan="magnify"><defs><filter height="300%" id="f1pvnuppkanlx5" width="300%" x="-1" y="-1"><feGaussianBlur result="blurOut" stdDeviation="2.5"/><feColorMatrix in="blurOut" result="blurOut2" type="matrix" values="0 0 0 0 0 0 0 0 0 0 0 0 0 0 0 0 0 0 .4 0"/><feOffset dx="5.0" dy="5.0" in="blurOut2" result="blurOut3"/><feBlend in="SourceGraphic" in2="blurOut3" mode="normal"/></filter></defs><g><!--MD5=[16ecbb7417423ec633ca7948c94e4b2b]
cluster ClientsManagement--><polygon fill="#FFFFFF" filter="url(#f1pvnuppkanlx5)" points="27.5,30,210,30,218.75,59.5117,762.5,59.5117,762.5,495,27.5,495,27.5,30" style="stroke: #000000; stroke-width: 1.875;"/><line style="stroke: #000000; stroke-width: 1.875;" x1="27.5" x2="218.75" y1="59.5117" y2="59.5117"/><text fill="#000000" font-family="sans-serif" font-size="17.5" font-weight="bold" lengthAdjust="spacingAndGlyphs" textLength="175" x="32.5" y="50.6665">ClientsManagement</text><!--MD5=[370f09de3b578360a6dfb01a48af8db0]
entity mechanic--><ellipse cx="86.875" cy="87.5" fill="#FEFECE" filter="url(#f1pvnuppkanlx5)" rx="10" ry="10" style="stroke: #A80036; stroke-width: 1.875;"/><path d="M86.875,97.5 L86.875,131.25 M70.625,107.5 L103.125,107.5 M86.875,131.25 L70.625,150 M86.875,131.25 L103.125,150 " fill="none" filter="url(#f1pvnuppkanlx5)" style="stroke: #A80036; stroke-width: 1.875;"/><text fill="#000000" font-family="sans-serif" font-size="17.5" lengthAdjust="spacingAndGlyphs" textLength="75" x="49.375" y="175.0415">mechanic</text><!--MD5=[966c1203244200a41ac5fc270e79b5ef]
entity all--><ellipse cx="220.625" cy="235" fill="#FEFECE" filter="url(#f1pvnuppkanlx5)" rx="10" ry="10" style="stroke: #A80036; stroke-width: 1.875;"/><path d="M220.625,245 L220.625,278.75 M204.375,255 L236.875,255 M220.625,278.75 L204.375,297.5 M220.625,278.75 L236.875,297.5 " fill="none" filter="url(#f1pvnuppkanlx5)" style="stroke: #A80036; stroke-width: 1.875;"/><text fill="#000000" font-family="sans-serif" font-size="17.5" lengthAdjust="spacingAndGlyphs" textLength="17.5" x="211.875" y="322.5415">all</text><!--MD5=[79a439086b036a57b90a01d7b2f8bbd1]
entity admin--><ellipse cx="86.875" cy="235" fill="#FEFECE" filter="url(#f1pvnuppkanlx5)" rx="10" ry="10" style="stroke: #A80036; stroke-width: 1.875;"/><path d="M86.875,245 L86.875,278.75 M70.625,255 L103.125,255 M86.875,278.75 L70.625,297.5 M86.875,278.75 L103.125,297.5 " fill="none" filter="url(#f1pvnuppkanlx5)" style="stroke: #A80036; stroke-width: 1.875;"/><text fill="#000000" font-family="sans-serif" font-size="17.5" lengthAdjust="spacingAndGlyphs" textLength="47.5" x="63.125" y="322.5415">admin</text><!--MD5=[23e4898078453906b079a6bea7d1245c]
entity developer--><ellipse cx="86.875" cy="382.5" fill="#FEFECE" filter="url(#f1pvnuppkanlx5)" rx="10" ry="10" style="stroke: #A80036; stroke-width: 1.875;"/><path d="M86.875,392.5 L86.875,426.25 M70.625,402.5 L103.125,402.5 M86.875,426.25 L70.625,445 M86.875,426.25 L103.125,445 " fill="none" filter="url(#f1pvnuppkanlx5)" style="stroke: #A80036; stroke-width: 1.875;"/><text fill="#000000" font-family="sans-serif" font-size="17.5" lengthAdjust="spacingAndGlyphs" textLength="78.75" x="47.5" y="470.0415">developer</text><ellipse cx="385.9251" cy="358.6896" fill="#FEFECE" filter="url(#f1pvnuppkanlx5)" rx="70.9251" ry="19.3146" style="stroke: #A80036; stroke-width: 1.875;"/><text fill="#000000" font-family="sans-serif" font-size="17.5" lengthAdjust="spacingAndGlyphs" textLength="95" x="338.4251" y="365.3205">createClient</text><ellipse cx="672.5413" cy="264.9396" fill="#FEFECE" filter="url(#f1pvnuppkanlx5)" rx="70.0413" ry="19.3146" style="stroke: #A80036; stroke-width: 1.875;"/><text fill="#000000" font-family="sans-serif" font-size="17.5" lengthAdjust="spacingAndGlyphs" textLength="93.75" x="625.6663" y="271.5705">openClients</text><ellipse cx="385.4074" cy="228.6896" fill="#FEFECE" filter="url(#f1pvnuppkanlx5)" rx="69.1574" ry="19.3146" style="stroke: #A80036; stroke-width: 1.875;"/><text fill="#000000" font-family="sans-serif" font-size="17.5" lengthAdjust="spacingAndGlyphs" textLength="92.5" x="339.1574" y="235.3205">configClient</text><ellipse cx="385.6663" cy="146.1896" fill="#FEFECE" filter="url(#f1pvnuppkanlx5)" rx="70.0413" ry="19.3146" style="stroke: #A80036; stroke-width: 1.875;"/><text fill="#000000" font-family="sans-serif" font-size="17.5" lengthAdjust="spacingAndGlyphs" textLength="93.75" x="338.7913" y="152.8205">deleteClient</text><!--MD5=[76d6334b0b02588446ff6e8faa1d31ca]
link mechanic to all--><path d="M124.6855,168.5875 C143.6863,189.94 166.76,215.8713 185.3738,236.79 " fill="none" id="mechanic-&gt;all" style="stroke: #A80036; stroke-width: 1.25;"/><polygon fill="none" points="192.1025,231.1888,202.185,255.6812,179.0288,242.8213,192.1025,231.1888" style="stroke: #A80036; stroke-width: 1.25;"/><!--MD5=[632e2529caf45198b4e96a956cde6a86]
link admin to all--><path d="M110.987,275 C129.1665,275 155.1013,275 177.0425,275 " fill="none" id="admin-&gt;all" style="stroke: #A80036; stroke-width: 1.25;"/><polygon fill="none" points="177.2075,266.25,202.2075,275,177.2075,283.75,177.2075,266.25" style="stroke: #A80036; stroke-width: 1.25;"/><!--MD5=[1fd893bffd749a7bbba672877dd4c8d4]
link developer to all--><path d="M126.4408,379.44 C145.1825,358.3775 167.5425,333.25 185.6325,312.92 " fill="none" id="developer-&gt;all" style="stroke: #A80036; stroke-width: 1.25;"/><polygon fill="none" points="179.1513,307.0413,202.3063,294.1813,192.225,318.675,179.1513,307.0413" style="stroke: #A80036; stroke-width: 1.25;"/><!--MD5=[1bbf69c6369cea2ac52c30f03183f22e]
link all to createClient--><path d="M238.9163,284.6475 C249.5825,290.6238 263.645,298.3938 276.25,305 C298.4838,316.6525 323.5738,329.1638 343.9838,339.1813 " fill="none" id="all-&gt;createClient" style="stroke: #A80036; stroke-width: 1.25;"/><polygon fill="#A80036" points="349.61,341.9375,341.7075,332.4975,343.9975,339.1875,337.3075,341.4775,349.61,341.9375" style="stroke: #A80036; stroke-width: 1.25;"/><!--MD5=[450637bd7d778f69aba71ce9795ae5bf]
link createClient to openClients--><path d="M453.07,352.8475 C487.26,348.385 529.2013,340.6775 565,327.5 C592.1688,317.4988 620.2938,300.615 640.7775,286.915 " fill="none" id="createClient-&gt;openClients" style="stroke: #A80036; stroke-width: 1.25; stroke-dasharray: 7.0,7.0;"/><polygon fill="#A80036" points="646.345,283.1437,634.2266,285.3132,641.1704,286.6489,639.8348,293.5926,646.345,283.1437" style="stroke: #A80036; stroke-width: 1.25;"/><text fill="#000000" font-family="sans-serif" font-size="16.25" lengthAdjust="spacingAndGlyphs" textLength="68.75" x="495" y="323.1189">«include»</text><!--MD5=[655e84c751a83136973e6be844994588]
link all to configClient--><path d="M239.265,270.05 C260.7575,263.9338 298.355,253.2325 329.8938,244.2563 " fill="none" id="all-&gt;configClient" style="stroke: #A80036; stroke-width: 1.25;"/><polygon fill="#A80036" points="336.115,242.4863,323.926,240.7568,330.1037,244.1971,326.6634,250.3748,336.115,242.4863" style="stroke: #A80036; stroke-width: 1.25;"/><!--MD5=[5da7e9ff36a0918c35b9791427638834]
link configClient to openClients--><path d="M449.2825,236.705 C494.3175,242.4463 555.1413,250.2 601.73,256.1388 " fill="none" id="configClient-&gt;openClients" style="stroke: #A80036; stroke-width: 1.25; stroke-dasharray: 7.0,7.0;"/><polygon fill="#A80036" points="608.4975,257.0013,597.969,250.6206,602.2975,256.212,596.7061,260.5405,608.4975,257.0013" style="stroke: #A80036; stroke-width: 1.25;"/><text fill="#000000" font-family="sans-serif" font-size="16.25" lengthAdjust="spacingAndGlyphs" textLength="68.75" x="495" y="239.3689">«include»</text><!--MD5=[6bd1531a0bd1782044ae0b674ccfc56b]
link all to deleteClient--><path d="M239.0413,256.67 C256.9888,238.0525 286.4663,208.9825 315,187.5 C324.8238,180.1038 336.0638,172.9325 346.595,166.6987 " fill="none" id="all-&gt;deleteClient" style="stroke: #A80036; stroke-width: 1.25;"/><polygon fill="#A80036" points="352.3588,163.3375,340.1219,164.6872,346.9601,166.4867,345.1606,173.3249,352.3588,163.3375" style="stroke: #A80036; stroke-width: 1.25;"/><!--MD5=[da82f0cd9ce0edcc4c6a2d38dfeac44d]
link deleteClient to openClients--><path d="M431.7363,160.9713 C468.105,173.2988 520.4513,191.935 565,211.25 C588.4038,221.3975 613.9325,234.2513 634.0988,244.8438 " fill="none" id="deleteClient-&gt;openClients" style="stroke: #A80036; stroke-width: 1.25; stroke-dasharray: 7.0,7.0;"/><polygon fill="#A80036" points="639.6388,247.7675,632.0245,238.0935,634.1117,244.8495,627.3557,246.9368,639.6388,247.7675" style="stroke: #A80036; stroke-width: 1.25;"/><text fill="#000000" font-family="sans-serif" font-size="16.25" lengthAdjust="spacingAndGlyphs" textLength="68.75" x="495" y="180.6189">«include»</text><!--MD5=[3771474684fe13f8fa4513c6652f2cfa]
link all to openClients--><path d="M238.9313,274.6475 C277.5963,273.845 374.8713,271.8137 456.25,270 C502.665,268.965 554.7163,267.7563 595.9763,266.7863 " fill="none" id="all-&gt;openClients" style="stroke: #A80036; stroke-width: 1.25;"/><polygon fill="#A80036" points="602.5038,266.6325,591.1397,261.8974,596.2555,266.7789,591.374,271.8947,602.5038,266.6325" style="stroke: #A80036; stroke-width: 1.25;"/><!--MD5=[e12a64294ad1af590e66bd895556af05]
@startuml

left to right direction

package ClientsManagement {
:mechanic: - -|> :all:
:admin: - -|> :all:
:developer: - -|> :all:

:all: - -> (createClient)
(createClient) ..> (openClients) : <<include>>
:all: - -> (configClient)
(configClient) ..> (openClients) : <<include>>
:all: - -> (deleteClient)
(deleteClient) ..> (openClients) : <<include>>
:all: - -> (openClients)
}

@enduml

PlantUML version 1.2020.09(Sun May 10 12:51:06 CEST 2020)
(GPL source distribution)
Java Runtime: OpenJDK Runtime Environment
JVM: OpenJDK 64-Bit Server VM
Java Version: 11.0.8+10-b944.31
Operating System: Windows 10
Default Encoding: Cp1252
Language: en
Country: GB
--></g></svg>