<?xml version="1.0" encoding="UTF-8" standalone="no"?><svg xmlns="http://www.w3.org/2000/svg" xmlns:xlink="http://www.w3.org/1999/xlink" contentScriptType="application/ecmascript" contentStyleType="text/css" height="510px" preserveAspectRatio="none" style="width:1040px;height:510px;" version="1.1" viewBox="0 0 1040 510" width="1040px" zoomAndPan="magnify"><defs><filter height="300%" id="fh1m424fjzsgs" width="300%" x="-1" y="-1"><feGaussianBlur result="blurOut" stdDeviation="2.5"/><feColorMatrix in="blurOut" result="blurOut2" type="matrix" values="0 0 0 0 0 0 0 0 0 0 0 0 0 0 0 0 0 0 .4 0"/><feOffset dx="5.0" dy="5.0" in="blurOut2" result="blurOut3"/><feBlend in="SourceGraphic" in2="blurOut3" mode="normal"/></filter></defs><g><!--MD5=[47b632a0e9a752ad76fa7b3c6f98a9fa]
cluster InterventionsManagement--><polygon fill="#FFFFFF" filter="url(#fh1m424fjzsgs)" points="27.5,30,267.5,30,276.25,59.5117,1012.5,59.5117,1012.5,495,27.5,495,27.5,30" style="stroke: #000000; stroke-width: 1.875;"/><line style="stroke: #000000; stroke-width: 1.875;" x1="27.5" x2="276.25" y1="59.5117" y2="59.5117"/><text fill="#000000" font-family="sans-serif" font-size="17.5" font-weight="bold" lengthAdjust="spacingAndGlyphs" textLength="232.5" x="32.5" y="50.6665">InterventionsManagement</text><!--MD5=[370f09de3b578360a6dfb01a48af8db0]
entity mechanic--><ellipse cx="86.875" cy="87.5" fill="#FEFECE" filter="url(#fh1m424fjzsgs)" rx="10" ry="10" style="stroke: #A80036; stroke-width: 1.875;"/><path d="M86.875,97.5 L86.875,131.25 M70.625,107.5 L103.125,107.5 M86.875,131.25 L70.625,150 M86.875,131.25 L103.125,150 " fill="none" filter="url(#fh1m424fjzsgs)" style="stroke: #A80036; stroke-width: 1.875;"/><text fill="#000000" font-family="sans-serif" font-size="17.5" lengthAdjust="spacingAndGlyphs" textLength="75" x="49.375" y="175.0415">mechanic</text><!--MD5=[8fc3522a43f8c7199df5e09e5bb0188e]
entity user--><ellipse cx="295.625" cy="176.25" fill="#FEFECE" filter="url(#fh1m424fjzsgs)" rx="10" ry="10" style="stroke: #A80036; stroke-width: 1.875;"/><path d="M295.625,186.25 L295.625,220 M279.375,196.25 L311.875,196.25 M295.625,220 L279.375,238.75 M295.625,220 L311.875,238.75 " fill="none" filter="url(#fh1m424fjzsgs)" style="stroke: #A80036; stroke-width: 1.875;"/><text fill="#000000" font-family="sans-serif" font-size="17.5" lengthAdjust="spacingAndGlyphs" textLength="35" x="278.125" y="263.7915">user</text><!--MD5=[23e4898078453906b079a6bea7d1245c]
entity developer--><ellipse cx="86.875" cy="235" fill="#FEFECE" filter="url(#fh1m424fjzsgs)" rx="10" ry="10" style="stroke: #A80036; stroke-width: 1.875;"/><path d="M86.875,245 L86.875,278.75 M70.625,255 L103.125,255 M86.875,278.75 L70.625,297.5 M86.875,278.75 L103.125,297.5 " fill="none" filter="url(#fh1m424fjzsgs)" style="stroke: #A80036; stroke-width: 1.875;"/><text fill="#000000" font-family="sans-serif" font-size="17.5" lengthAdjust="spacingAndGlyphs" textLength="78.75" x="47.5" y="322.5415">developer</text><ellipse cx="567.5266" cy="241.1303" fill="#FEFECE" filter="url(#fh1m424fjzsgs)" rx="93.7766" ry="21.7553" style="stroke: #A80036; stroke-width: 1.875;"/><text fill="#000000" font-family="sans-serif" font-size="17.5" lengthAdjust="spacingAndGlyphs" textLength="142.5" x="496.2766" y="247.7612">createIntervention</text><ellipse cx="904.2157" cy="241.2181" fill="#FEFECE" filter="url(#fh1m424fjzsgs)" rx="87.9657" ry="20.5931" style="stroke: #A80036; stroke-width: 1.875;"/><text fill="#000000" font-family="sans-serif" font-size="17.5" lengthAdjust="spacingAndGlyphs" textLength="127.5" x="840.4657" y="247.849">openDashboard</text><!--MD5=[79a439086b036a57b90a01d7b2f8bbd1]
entity admin--><ellipse cx="86.875" cy="382.5" fill="#FEFECE" filter="url(#fh1m424fjzsgs)" rx="10" ry="10" style="stroke: #A80036; stroke-width: 1.875;"/><path d="M86.875,392.5 L86.875,426.25 M70.625,402.5 L103.125,402.5 M86.875,426.25 L70.625,445 M86.875,426.25 L103.125,445 " fill="none" filter="url(#fh1m424fjzsgs)" style="stroke: #A80036; stroke-width: 1.875;"/><text fill="#000000" font-family="sans-serif" font-size="17.5" lengthAdjust="spacingAndGlyphs" textLength="47.5" x="63.125" y="470.0415">admin</text><ellipse cx="295.7828" cy="356.0316" fill="#FEFECE" filter="url(#fh1m424fjzsgs)" rx="93.2828" ry="21.6566" style="stroke: #A80036; stroke-width: 1.875;"/><text fill="#000000" font-family="sans-serif" font-size="17.5" lengthAdjust="spacingAndGlyphs" textLength="141.25" x="225.1578" y="362.6624">openInterventions</text><ellipse cx="567.3996" cy="150.9799" fill="#FEFECE" filter="url(#fh1m424fjzsgs)" rx="102.3996" ry="23.4799" style="stroke: #A80036; stroke-width: 1.875;"/><text fill="#000000" font-family="sans-serif" font-size="17.5" lengthAdjust="spacingAndGlyphs" textLength="163.75" x="485.5246" y="157.6108">openMyInterventions</text><!--MD5=[806725e63a06202b8f6954a33e7c0646]
link mechanic to user--><path d="M124.5236,143.1625 C160.805,158.775 216.3988,182.6962 254.0138,198.8825 " fill="none" id="mechanic-&gt;user" style="stroke: #A80036; stroke-width: 1.25;"/><polygon fill="none" points="257.7025,190.9438,277.2088,208.8638,250.785,207.0188,257.7025,190.9438" style="stroke: #A80036; stroke-width: 1.25;"/><!--MD5=[19550f970e569750a7f66dff6d65690d]
link developer to user--><path d="M126.4356,264.0875 C162.2688,253.88 215.66,238.6713 252.58,228.155 " fill="none" id="developer-&gt;user" style="stroke: #A80036; stroke-width: 1.25;"/><polygon fill="none" points="250.5975,219.6213,277.0388,221.1888,255.3925,236.4525,250.5975,219.6213" style="stroke: #A80036; stroke-width: 1.25;"/><!--MD5=[5a9293b0230f56a870e058464ad8c388]
link user to createIntervention--><path d="M314.135,217.8525 C345.8988,220.8 415.6813,227.2763 473.7938,232.6688 " fill="none" id="user-&gt;createIntervention" style="stroke: #A80036; stroke-width: 1.25;"/><polygon fill="#A80036" points="480.0975,233.2538,469.3587,227.2338,473.8743,232.6752,468.433,237.1909,480.0975,233.2538" style="stroke: #A80036; stroke-width: 1.25;"/><!--MD5=[bca3bc745c23a89e39fecdf2c81c9150]
link createIntervention to openDashboard--><path d="M661.4475,241.25 C707.5013,241.25 763.0338,241.25 809.2475,241.25 " fill="none" id="createIntervention-&gt;openDashboard" style="stroke: #A80036; stroke-width: 1.25; stroke-dasharray: 7.0,7.0;"/><polygon fill="#A80036" points="815.9963,241.25,804.7463,236.25,809.7463,241.25,804.7463,246.25,815.9963,241.25" style="stroke: #A80036; stroke-width: 1.25;"/><text fill="#000000" font-family="sans-serif" font-size="16.25" lengthAdjust="spacingAndGlyphs" textLength="68.75" x="708.75" y="236.8689">«include»</text><!--MD5=[eac6fb0c15dbf4a3bfb31fbdd7a2750d]
link admin to openInterventions--><path d="M110.9854,415.157 C140.375,405.7165 192.5275,388.965 233.7225,375.7325 " fill="none" id="admin-&gt;openInterventions" style="stroke: #A80036; stroke-width: 1.25;"/><polygon fill="#A80036" points="239.7175,373.8063,227.4776,372.4843,233.7666,375.7167,230.5343,382.0057,239.7175,373.8063" style="stroke: #A80036; stroke-width: 1.25;"/><!--MD5=[ab68ecb15e325a144a2235474211143c]
link developer to openInterventions--><path d="M126.4356,290.0925 C158.5925,302.76 204.8888,320.9975 240.7313,335.1175 " fill="none" id="developer-&gt;openInterventions" style="stroke: #A80036; stroke-width: 1.25;"/><polygon fill="#A80036" points="246.8425,337.525,238.2079,328.7497,241.0274,335.2343,234.5428,338.0538,246.8425,337.525" style="stroke: #A80036; stroke-width: 1.25;"/><!--MD5=[1c1c5a9944a20bf94908c2a7a83da97b]
link user to openMyInterventions--><path d="M314.135,212.085 C348.825,203.715 428.865,184.4013 489.5238,169.7637 " fill="none" id="user-&gt;openMyInterventions" style="stroke: #A80036; stroke-width: 1.25;"/><polygon fill="#A80036" points="495.7012,168.2738,483.5924,166.0517,489.6256,169.7396,485.9377,175.7727,495.7012,168.2738" style="stroke: #A80036; stroke-width: 1.25;"/><!--MD5=[cd52a1bd62ff9c2ba6a4ef6dfed881fe]
@startuml
left to right direction


package InterventionsManagement {
:mechanic: - -|> :user:
:developer: - -|> :user:

:user: - -> (createIntervention)
(createIntervention) ..> (openDashboard) : <<include>>
:admin: - -> (openInterventions)
:developer: - -> (openInterventions)
:user: - -> (openMyInterventions)
}
@enduml

PlantUML version 1.2020.09(Sun May 10 12:51:06 CEST 2020)
(GPL source distribution)
Java Runtime: OpenJDK Runtime Environment
JVM: OpenJDK 64-Bit Server VM
Java Version: 11.0.8+10-b944.31
Operating System: Windows 10
Default Encoding: Cp1252
Language: en
Country: GB
--></g></svg>