<?xml version="1.0" encoding="UTF-8" standalone="no"?><svg xmlns="http://www.w3.org/2000/svg" xmlns:xlink="http://www.w3.org/1999/xlink" contentScriptType="application/ecmascript" contentStyleType="text/css" height="600px" preserveAspectRatio="none" style="width:1096px;height:600px;" version="1.1" viewBox="0 0 1096 600" width="1096.25px" zoomAndPan="magnify"><defs><filter height="300%" id="frdceiocu7vuo" width="300%" x="-1" y="-1"><feGaussianBlur result="blurOut" stdDeviation="2.5"/><feColorMatrix in="blurOut" result="blurOut2" type="matrix" values="0 0 0 0 0 0 0 0 0 0 0 0 0 0 0 0 0 0 .4 0"/><feOffset dx="5.0" dy="5.0" in="blurOut2" result="blurOut3"/><feBlend in="SourceGraphic" in2="blurOut3" mode="normal"/></filter></defs><g><!--MD5=[47b632a0e9a752ad76fa7b3c6f98a9fa]
cluster InterventionsManagement--><polygon fill="#FFFFFF" filter="url(#frdceiocu7vuo)" points="27.5,30,267.5,30,276.25,59.5117,1068.75,59.5117,1068.75,585,27.5,585,27.5,30" style="stroke: #000000; stroke-width: 1.875;"/><line style="stroke: #000000; stroke-width: 1.875;" x1="27.5" x2="276.25" y1="59.5117" y2="59.5117"/><text fill="#000000" font-family="sans-serif" font-size="17.5" font-weight="bold" lengthAdjust="spacingAndGlyphs" textLength="232.5" x="32.5" y="50.6665">InterventionsManagement</text><!--MD5=[370f09de3b578360a6dfb01a48af8db0]
entity mechanic--><ellipse cx="86.875" cy="177.5" fill="#FEFECE" filter="url(#frdceiocu7vuo)" rx="10" ry="10" style="stroke: #A80036; stroke-width: 1.875;"/><path d="M86.875,187.5 L86.875,221.25 M70.625,197.5 L103.125,197.5 M86.875,221.25 L70.625,240 M86.875,221.25 L103.125,240 " fill="none" filter="url(#frdceiocu7vuo)" style="stroke: #A80036; stroke-width: 1.875;"/><text fill="#000000" font-family="sans-serif" font-size="17.5" lengthAdjust="spacingAndGlyphs" textLength="75" x="49.375" y="265.0415">mechanic</text><!--MD5=[8fc3522a43f8c7199df5e09e5bb0188e]
entity user--><ellipse cx="288.75" cy="222.5" fill="#FEFECE" filter="url(#frdceiocu7vuo)" rx="10" ry="10" style="stroke: #A80036; stroke-width: 1.875;"/><path d="M288.75,232.5 L288.75,266.25 M272.5,242.5 L305,242.5 M288.75,266.25 L272.5,285 M288.75,266.25 L305,285 " fill="none" filter="url(#frdceiocu7vuo)" style="stroke: #A80036; stroke-width: 1.875;"/><text fill="#000000" font-family="sans-serif" font-size="17.5" lengthAdjust="spacingAndGlyphs" textLength="35" x="271.25" y="310.0415">user</text><!--MD5=[23e4898078453906b079a6bea7d1245c]
entity developer--><ellipse cx="86.875" cy="325" fill="#FEFECE" filter="url(#frdceiocu7vuo)" rx="10" ry="10" style="stroke: #A80036; stroke-width: 1.875;"/><path d="M86.875,335 L86.875,368.75 M70.625,345 L103.125,345 M86.875,368.75 L70.625,387.5 M86.875,368.75 L103.125,387.5 " fill="none" filter="url(#frdceiocu7vuo)" style="stroke: #A80036; stroke-width: 1.875;"/><text fill="#000000" font-family="sans-serif" font-size="17.5" lengthAdjust="spacingAndGlyphs" textLength="78.75" x="47.5" y="412.5415">developer</text><!--MD5=[79a439086b036a57b90a01d7b2f8bbd1]
entity admin--><ellipse cx="86.875" cy="472.5" fill="#FEFECE" filter="url(#frdceiocu7vuo)" rx="10" ry="10" style="stroke: #A80036; stroke-width: 1.875;"/><path d="M86.875,482.5 L86.875,516.25 M70.625,492.5 L103.125,492.5 M86.875,516.25 L70.625,535 M86.875,516.25 L103.125,535 " fill="none" filter="url(#frdceiocu7vuo)" style="stroke: #A80036; stroke-width: 1.875;"/><text fill="#000000" font-family="sans-serif" font-size="17.5" lengthAdjust="spacingAndGlyphs" textLength="47.5" x="63.125" y="560.0415">admin</text><!--MD5=[35b5e21611523c4fc71f059dcedd152e]
entity superUser--><ellipse cx="288.75" cy="370" fill="#FEFECE" filter="url(#frdceiocu7vuo)" rx="10" ry="10" style="stroke: #A80036; stroke-width: 1.875;"/><path d="M288.75,380 L288.75,413.75 M272.5,390 L305,390 M288.75,413.75 L272.5,432.5 M288.75,413.75 L305,432.5 " fill="none" filter="url(#frdceiocu7vuo)" style="stroke: #A80036; stroke-width: 1.875;"/><text fill="#000000" font-family="sans-serif" font-size="17.5" lengthAdjust="spacingAndGlyphs" textLength="81.25" x="248.125" y="457.5415">superUser</text><ellipse cx="623.7766" cy="183.6303" fill="#FEFECE" filter="url(#frdceiocu7vuo)" rx="93.7766" ry="21.7553" style="stroke: #A80036; stroke-width: 1.875;"/><text fill="#000000" font-family="sans-serif" font-size="17.5" lengthAdjust="spacingAndGlyphs" textLength="142.5" x="552.5266" y="190.2612">createIntervention</text><ellipse cx="623.4804" cy="96.0711" fill="#FEFECE" filter="url(#frdceiocu7vuo)" rx="90.3554" ry="21.0711" style="stroke: #A80036; stroke-width: 1.875;"/><text fill="#000000" font-family="sans-serif" font-size="17.5" lengthAdjust="spacingAndGlyphs" textLength="133.75" x="556.6054" y="102.7019">finishIntervention</text><ellipse cx="623.9078" cy="542.2816" fill="#FEFECE" filter="url(#frdceiocu7vuo)" rx="93.2828" ry="21.6566" style="stroke: #A80036; stroke-width: 1.875;"/><text fill="#000000" font-family="sans-serif" font-size="17.5" lengthAdjust="spacingAndGlyphs" textLength="141.25" x="553.2828" y="548.9124">openInterventions</text><ellipse cx="288.5895" cy="526.4679" fill="#FEFECE" filter="url(#frdceiocu7vuo)" rx="86.0895" ry="20.2179" style="stroke: #A80036; stroke-width: 1.875;"/><text fill="#000000" font-family="sans-serif" font-size="17.5" lengthAdjust="spacingAndGlyphs" textLength="122.5" x="227.3395" y="533.0988">billInterventions</text><ellipse cx="623.6496" cy="452.2299" fill="#FEFECE" filter="url(#frdceiocu7vuo)" rx="102.3996" ry="23.4799" style="stroke: #A80036; stroke-width: 1.875;"/><text fill="#000000" font-family="sans-serif" font-size="17.5" lengthAdjust="spacingAndGlyphs" textLength="163.75" x="541.7746" y="458.8608">openMyInterventions</text><ellipse cx="623.6477" cy="362.3545" fill="#FEFECE" filter="url(#frdceiocu7vuo)" rx="96.7727" ry="22.3545" style="stroke: #A80036; stroke-width: 1.875;"/><text fill="#000000" font-family="sans-serif" font-size="17.5" lengthAdjust="spacingAndGlyphs" textLength="150" x="548.6477" y="368.9854">pauseInterventions</text><ellipse cx="623.974" cy="272.5448" fill="#FEFECE" filter="url(#frdceiocu7vuo)" rx="100.849" ry="23.1698" style="stroke: #A80036; stroke-width: 1.875;"/><text fill="#000000" font-family="sans-serif" font-size="17.5" lengthAdjust="spacingAndGlyphs" textLength="160" x="543.974" y="279.1757">resumeInterventions</text><ellipse cx="960.4657" cy="141.2181" fill="#FEFECE" filter="url(#frdceiocu7vuo)" rx="87.9657" ry="20.5931" style="stroke: #A80036; stroke-width: 1.875;"/><text fill="#000000" font-family="sans-serif" font-size="17.5" lengthAdjust="spacingAndGlyphs" textLength="127.5" x="896.7157" y="147.849">openDashboard</text><!--MD5=[806725e63a06202b8f6954a33e7c0646]
link mechanic to user--><path d="M124.6935,225.7538 C158.7563,233.4412 209.5212,244.9 245.29,252.9725 " fill="none" id="mechanic-&gt;user" style="stroke: #A80036; stroke-width: 1.25;"/><polygon fill="none" points="247.695,244.5463,270.155,258.585,243.8425,261.6163,247.695,244.5463" style="stroke: #A80036; stroke-width: 1.25;"/><!--MD5=[19550f970e569750a7f66dff6d65690d]
link developer to user--><path d="M126.5665,345.2375 C161.5313,327.2612 212.91,300.8475 248.155,282.7275 " fill="none" id="developer-&gt;user" style="stroke: #A80036; stroke-width: 1.25;"/><polygon fill="none" points="244.2663,274.8875,270.5013,271.2388,252.2688,290.4512,244.2663,274.8875" style="stroke: #A80036; stroke-width: 1.25;"/><!--MD5=[6642bac34abdd241a43dd2c06501691e]
link admin to superUser--><path d="M110.9959,500.742 C138.825,486.435 186.9188,461.71 225.8813,441.6787 " fill="none" id="admin-&gt;superUser" style="stroke: #A80036; stroke-width: 1.25;"/><polygon fill="none" points="221.8863,433.8938,248.1213,430.245,229.8875,449.4575,221.8863,433.8938" style="stroke: #A80036; stroke-width: 1.25;"/><!--MD5=[b73b3952ca94ed8495d7c3f47034ee61]
link developer to superUser--><path d="M126.5665,373.6763 C153.9313,379.8525 191.3475,388.2975 223.2163,395.4913 " fill="none" id="developer-&gt;superUser" style="stroke: #A80036; stroke-width: 1.25;"/><polygon fill="none" points="225.3513,387.0025,247.8113,401.0425,221.4988,404.0738,225.3513,387.0025" style="stroke: #A80036; stroke-width: 1.25;"/><!--MD5=[5a9293b0230f56a870e058464ad8c388]
link user to createIntervention--><path d="M306.9462,258.4863 C351.1613,248.015 472.0413,219.385 550.7038,200.755 " fill="none" id="user-&gt;createIntervention" style="stroke: #A80036; stroke-width: 1.25;"/><polygon fill="#A80036" points="557.235,199.2075,545.1352,196.9367,551.1535,200.6488,547.4413,206.6672,557.235,199.2075" style="stroke: #A80036; stroke-width: 1.25;"/><!--MD5=[2f1cf365634b755ae8a0c9a0859376dd]
link user to finishIntervention--><path d="M307.165,252.8037 C345.2175,231.4437 439.7425,179.1225 521.25,140 C537.5475,132.1775 555.595,124.175 571.8838,117.1887 " fill="none" id="user-&gt;finishIntervention" style="stroke: #A80036; stroke-width: 1.25;"/><polygon fill="#A80036" points="577.7987,114.6625,565.489,114.4804,572.0505,117.1161,569.4148,123.6776,577.7987,114.6625" style="stroke: #A80036; stroke-width: 1.25;"/><!--MD5=[a78ecd3200fe44275d11d0904a7bd921]
link superUser to openInterventions--><path d="M329.4475,425.72 C389.0613,449.475 502.2275,494.5718 569.1438,521.2378 " fill="none" id="superUser-&gt;openInterventions" style="stroke: #A80036; stroke-width: 1.25;"/><polygon fill="#A80036" points="575.0738,523.6006,566.4748,514.7904,569.268,521.2864,562.772,524.0796,575.0738,523.6006" style="stroke: #A80036; stroke-width: 1.25;"/><!--MD5=[3f0608ca12dec027aa0e6acfb3fcc390]
link admin to billInterventions--><path d="M110.9959,514.0773 C132.7638,515.5785 166.9288,517.9348 199.4262,520.1759 " fill="none" id="admin-&gt;billInterventions" style="stroke: #A80036; stroke-width: 1.25;"/><polygon fill="#A80036" points="205.8988,520.6224,195.0197,514.8596,199.6636,520.192,194.3312,524.8359,205.8988,520.6224" style="stroke: #A80036; stroke-width: 1.25;"/><!--MD5=[1c1c5a9944a20bf94908c2a7a83da97b]
link user to openMyInterventions--><path d="M306.9588,274.0925 C344.5975,299.5863 438.3513,361.785 521.25,406.25 C535.9838,414.1525 552.3225,421.9963 567.4988,428.9188 " fill="none" id="user-&gt;openMyInterventions" style="stroke: #A80036; stroke-width: 1.25;"/><polygon fill="#A80036" points="573.475,431.6238,565.2891,422.4284,567.7815,429.0457,561.1642,431.5381,573.475,431.6238" style="stroke: #A80036; stroke-width: 1.25;"/><!--MD5=[24b71ec5973959dba65258ee4649dd60]
link user to pauseInterventions--><path d="M306.9462,267.5963 C352.475,281.29 479.295,319.4313 557.6025,342.9813 " fill="none" id="user-&gt;pauseInterventions" style="stroke: #A80036; stroke-width: 1.25;"/><polygon fill="#A80036" points="563.6213,344.7925,554.2884,336.7638,557.6362,342.9922,551.4078,346.3399,563.6213,344.7925" style="stroke: #A80036; stroke-width: 1.25;"/><!--MD5=[ddb3c13d0091b8923213128b5acee654]
link user to resumeInterventions--><path d="M306.9462,263.01 C345.3038,264.1638 441.3638,267.0525 517.4988,269.3425 " fill="none" id="user-&gt;resumeInterventions" style="stroke: #A80036; stroke-width: 1.25;"/><polygon fill="#A80036" points="523.8712,269.5338,512.7778,264.1954,517.6241,269.3445,512.475,274.1908,523.8712,269.5338" style="stroke: #A80036; stroke-width: 1.25;"/><!--MD5=[bca3bc745c23a89e39fecdf2c81c9150]
link createIntervention to openDashboard--><path d="M717.47,186.0413 C754.2425,185.6412 796.8113,183.5325 835,177.5 C858.3525,173.8112 883.4975,167.04 905.025,160.3388 " fill="none" id="createIntervention-&gt;openDashboard" style="stroke: #A80036; stroke-width: 1.25; stroke-dasharray: 7.0,7.0;"/><polygon fill="#A80036" points="910.9975,158.4537,898.764,157.0743,905.0377,160.3362,901.7758,166.6099,910.9975,158.4537" style="stroke: #A80036; stroke-width: 1.25;"/><text fill="#000000" font-family="sans-serif" font-size="16.25" lengthAdjust="spacingAndGlyphs" textLength="68.75" x="765" y="173.1189">«include»</text><!--MD5=[d2795f49a750a43189bd190249d74c6b]
link finishIntervention to openDashboard--><path d="M702.9738,106.7437 C755.2688,113.7812 824.0313,123.035 877.1813,130.1888 " fill="none" id="finishIntervention-&gt;openDashboard" style="stroke: #A80036; stroke-width: 1.25; stroke-dasharray: 7.0,7.0;"/><polygon fill="#A80036" points="883.5838,131.05,873.1017,124.5934,877.3897,130.2159,871.7671,134.5039,883.5838,131.05" style="stroke: #A80036; stroke-width: 1.25;"/><text fill="#000000" font-family="sans-serif" font-size="16.25" lengthAdjust="spacingAndGlyphs" textLength="68.75" x="765" y="111.8689">«include»</text><!--MD5=[3ab980604411c22e001c1df3db41fc58]
link billInterventions to openInterventions--><path d="M373.475,530.3296 C419.685,532.588 477.3488,535.4061 525.5488,537.7618 " fill="none" id="billInterventions-&gt;openInterventions" style="stroke: #A80036; stroke-width: 1.25; stroke-dasharray: 7.0,7.0;"/><polygon fill="#A80036" points="531.9812,538.0761,520.989,532.5325,525.7387,537.7708,520.5004,542.5205,531.9812,538.0761" style="stroke: #A80036; stroke-width: 1.25;"/><text fill="#000000" font-family="sans-serif" font-size="16.25" lengthAdjust="spacingAndGlyphs" textLength="68.75" x="413.75" y="526.8689">«include»</text><!--MD5=[0c5bde3811743a606be597803661eee8]
@startuml
left to right direction

package InterventionsManagement {
:mechanic: - -|> :user:
:developer: - -|> :user:
:admin: - -|> :superUser:
:developer: - -|> :superUser:

:user: - -> (createIntervention)
:user: - -> (finishIntervention)
:superUser: - -> (openInterventions)
:admin: - -> (billInterventions)
:user: - -> (openMyInterventions)
:user: - -> (pauseInterventions)
:user: - -> (resumeInterventions)
(createIntervention) ..> (openDashboard) : <<include>>
(finishIntervention) ..> (openDashboard) : <<include>>
(billInterventions) ..> (openInterventions) : <<include>>
}
@enduml

PlantUML version 1.2020.09(Sun May 10 12:51:06 CEST 2020)
(GPL source distribution)
Java Runtime: OpenJDK Runtime Environment
JVM: OpenJDK 64-Bit Server VM
Java Version: 11.0.8+10-b1094.1
Operating System: Windows 10
Default Encoding: Cp1252
Language: en
Country: GB
--></g></svg>