<?xml version="1.0" encoding="UTF-8" standalone="no"?><svg xmlns="http://www.w3.org/2000/svg" xmlns:xlink="http://www.w3.org/1999/xlink" contentScriptType="application/ecmascript" contentStyleType="text/css" height="615px" preserveAspectRatio="none" style="width:903px;height:615px;" version="1.1" viewBox="0 0 903 615" width="903.75px" zoomAndPan="magnify"><defs><filter height="300%" id="f1egvrbyiec1l3" width="300%" x="-1" y="-1"><feGaussianBlur result="blurOut" stdDeviation="2.5"/><feColorMatrix in="blurOut" result="blurOut2" type="matrix" values="0 0 0 0 0 0 0 0 0 0 0 0 0 0 0 0 0 0 .4 0"/><feOffset dx="5.0" dy="5.0" in="blurOut2" result="blurOut3"/><feBlend in="SourceGraphic" in2="blurOut3" mode="normal"/></filter></defs><g><!--MD5=[9a68b8f93f318a0a8d8dc46796261f1c]
cluster MechanicManagement--><polygon fill="#FFFFFF" filter="url(#f1egvrbyiec1l3)" points="27.5,30,233.75,30,242.5,59.5117,876.25,59.5117,876.25,600,27.5,600,27.5,30" style="stroke: #000000; stroke-width: 1.875;"/><line style="stroke: #000000; stroke-width: 1.875;" x1="27.5" x2="242.5" y1="59.5117" y2="59.5117"/><text fill="#000000" font-family="sans-serif" font-size="17.5" font-weight="bold" lengthAdjust="spacingAndGlyphs" textLength="198.75" x="32.5" y="50.6665">MechanicManagement</text><!--MD5=[370f09de3b578360a6dfb01a48af8db0]
entity mechanic--><ellipse cx="86.875" cy="461.25" fill="#FEFECE" filter="url(#f1egvrbyiec1l3)" rx="10" ry="10" style="stroke: #A80036; stroke-width: 1.875;"/><path d="M86.875,471.25 L86.875,505 M70.625,481.25 L103.125,481.25 M86.875,505 L70.625,523.75 M86.875,505 L103.125,523.75 " fill="none" filter="url(#f1egvrbyiec1l3)" style="stroke: #A80036; stroke-width: 1.875;"/><text fill="#000000" font-family="sans-serif" font-size="17.5" lengthAdjust="spacingAndGlyphs" textLength="75" x="49.375" y="548.7915">mechanic</text><!--MD5=[966c1203244200a41ac5fc270e79b5ef]
entity all--><ellipse cx="243.125" cy="355" fill="#FEFECE" filter="url(#f1egvrbyiec1l3)" rx="10" ry="10" style="stroke: #A80036; stroke-width: 1.875;"/><path d="M243.125,365 L243.125,398.75 M226.875,375 L259.375,375 M243.125,398.75 L226.875,417.5 M243.125,398.75 L259.375,417.5 " fill="none" filter="url(#f1egvrbyiec1l3)" style="stroke: #A80036; stroke-width: 1.875;"/><text fill="#000000" font-family="sans-serif" font-size="17.5" lengthAdjust="spacingAndGlyphs" textLength="17.5" x="234.375" y="442.5415">all</text><!--MD5=[79a439086b036a57b90a01d7b2f8bbd1]
entity admin--><ellipse cx="86.875" cy="313.75" fill="#FEFECE" filter="url(#f1egvrbyiec1l3)" rx="10" ry="10" style="stroke: #A80036; stroke-width: 1.875;"/><path d="M86.875,323.75 L86.875,357.5 M70.625,333.75 L103.125,333.75 M86.875,357.5 L70.625,376.25 M86.875,357.5 L103.125,376.25 " fill="none" filter="url(#f1egvrbyiec1l3)" style="stroke: #A80036; stroke-width: 1.875;"/><text fill="#000000" font-family="sans-serif" font-size="17.5" lengthAdjust="spacingAndGlyphs" textLength="47.5" x="63.125" y="401.2915">admin</text><!--MD5=[23e4898078453906b079a6bea7d1245c]
entity developer--><ellipse cx="86.875" cy="166.25" fill="#FEFECE" filter="url(#f1egvrbyiec1l3)" rx="10" ry="10" style="stroke: #A80036; stroke-width: 1.875;"/><path d="M86.875,176.25 L86.875,210 M70.625,186.25 L103.125,186.25 M86.875,210 L70.625,228.75 M86.875,210 L103.125,228.75 " fill="none" filter="url(#f1egvrbyiec1l3)" style="stroke: #A80036; stroke-width: 1.875;"/><text fill="#000000" font-family="sans-serif" font-size="17.5" lengthAdjust="spacingAndGlyphs" textLength="78.75" x="47.5" y="253.7915">developer</text><!--MD5=[35b5e21611523c4fc71f059dcedd152e]
entity superUser--><ellipse cx="243.125" cy="166.25" fill="#FEFECE" filter="url(#f1egvrbyiec1l3)" rx="10" ry="10" style="stroke: #A80036; stroke-width: 1.875;"/><path d="M243.125,176.25 L243.125,210 M226.875,186.25 L259.375,186.25 M243.125,210 L226.875,228.75 M243.125,210 L259.375,228.75 " fill="none" filter="url(#f1egvrbyiec1l3)" style="stroke: #A80036; stroke-width: 1.875;"/><text fill="#000000" font-family="sans-serif" font-size="17.5" lengthAdjust="spacingAndGlyphs" textLength="81.25" x="202.5" y="253.7915">superUser</text><ellipse cx="447.0235" cy="179.7797" fill="#FEFECE" filter="url(#f1egvrbyiec1l3)" rx="87.0235" ry="20.4047" style="stroke: #A80036; stroke-width: 1.875;"/><text fill="#000000" font-family="sans-serif" font-size="17.5" lengthAdjust="spacingAndGlyphs" textLength="125" x="384.5235" y="186.4106">createMechanic</text><ellipse cx="446.7145" cy="311.4679" fill="#FEFECE" filter="url(#f1egvrbyiec1l3)" rx="86.0895" ry="20.2179" style="stroke: #A80036; stroke-width: 1.875;"/><text fill="#000000" font-family="sans-serif" font-size="17.5" lengthAdjust="spacingAndGlyphs" textLength="122.5" x="385.4645" y="318.0988">configMechanic</text><ellipse cx="447.1804" cy="95.3111" fill="#FEFECE" filter="url(#f1egvrbyiec1l3)" rx="86.5554" ry="20.3111" style="stroke: #A80036; stroke-width: 1.875;"/><text fill="#000000" font-family="sans-serif" font-size="17.5" lengthAdjust="spacingAndGlyphs" textLength="123.75" x="385.3054" y="101.9419">deleteMechanic</text><ellipse cx="768.4304" cy="217.8111" fill="#FEFECE" filter="url(#f1egvrbyiec1l3)" rx="86.5554" ry="20.3111" style="stroke: #A80036; stroke-width: 1.875;"/><text fill="#000000" font-family="sans-serif" font-size="17.5" lengthAdjust="spacingAndGlyphs" textLength="123.75" x="706.5554" y="224.4419">openMechanics</text><ellipse cx="447.1415" cy="394.9396" fill="#FEFECE" filter="url(#f1egvrbyiec1l3)" rx="30.2665" ry="19.3146" style="stroke: #A80036; stroke-width: 1.875;"/><text fill="#000000" font-family="sans-serif" font-size="17.5" lengthAdjust="spacingAndGlyphs" textLength="37.5" x="428.3915" y="401.5705">login</text><ellipse cx="767.9657" cy="436.2181" fill="#FEFECE" filter="url(#f1egvrbyiec1l3)" rx="87.9657" ry="20.5931" style="stroke: #A80036; stroke-width: 1.875;"/><text fill="#000000" font-family="sans-serif" font-size="17.5" lengthAdjust="spacingAndGlyphs" textLength="127.5" x="704.2157" y="442.849">openDashboard</text><ellipse cx="446.757" cy="477.4396" fill="#FEFECE" filter="url(#f1egvrbyiec1l3)" rx="41.757" ry="19.3146" style="stroke: #A80036; stroke-width: 1.875;"/><text fill="#000000" font-family="sans-serif" font-size="17.5" lengthAdjust="spacingAndGlyphs" textLength="53.75" x="419.882" y="484.0705">signUp</text><ellipse cx="446.9715" cy="559.9396" fill="#FEFECE" filter="url(#f1egvrbyiec1l3)" rx="38.2215" ry="19.3146" style="stroke: #A80036; stroke-width: 1.875;"/><text fill="#000000" font-family="sans-serif" font-size="17.5" lengthAdjust="spacingAndGlyphs" textLength="48.75" x="422.5965" y="566.5705">logout</text><!--MD5=[76d6334b0b02588446ff6e8faa1d31ca]
link mechanic to all--><path d="M124.5616,476.07 C148.5188,459.515 179.8,437.8975 204.035,421.1487 " fill="none" id="mechanic-&gt;all" style="stroke: #A80036; stroke-width: 1.25;"/><polygon fill="none" points="199.1025,413.9225,224.6438,406.9075,209.0513,428.3187,199.1025,413.9225" style="stroke: #A80036; stroke-width: 1.25;"/><!--MD5=[632e2529caf45198b4e96a956cde6a86]
link admin to all--><path d="M110.8114,359.8363 C134.36,366.1538 171.71,376.175 200.5238,383.9063 " fill="none" id="admin-&gt;all" style="stroke: #A80036; stroke-width: 1.25;"/><polygon fill="none" points="202.9275,375.4913,224.8063,390.42,198.3925,392.3937,202.9275,375.4913" style="stroke: #A80036; stroke-width: 1.25;"/><!--MD5=[1fd893bffd749a7bbba672877dd4c8d4]
link developer to all--><path d="M126.526,253.3925 C151.8625,284.4975 184.7125,324.8238 208.8713,354.4838 " fill="none" id="developer-&gt;all" style="stroke: #A80036; stroke-width: 1.25;"/><polygon fill="none" points="215.6913,349.0013,224.6963,373.91,202.1225,360.0525,215.6913,349.0013" style="stroke: #A80036; stroke-width: 1.25;"/><!--MD5=[6642bac34abdd241a43dd2c06501691e]
link admin to superUser--><path d="M110.8114,331.9863 C130.0758,313.505 158.5775,286.1613 184.0863,261.69 " fill="none" id="admin-&gt;superUser" style="stroke: #A80036; stroke-width: 1.25;"/><polygon fill="none" points="178.2825,255.1325,202.38,244.1387,190.3975,267.76,178.2825,255.1325" style="stroke: #A80036; stroke-width: 1.25;"/><!--MD5=[b73b3952ca94ed8495d7c3f47034ee61]
link developer to superUser--><path d="M126.526,206.25 C141.8825,206.25 160,206.25 177.2688,206.25 " fill="none" id="developer-&gt;superUser" style="stroke: #A80036; stroke-width: 1.25;"/><polygon fill="none" points="177.3588,197.5,202.3588,206.25,177.3588,215,177.3588,197.5" style="stroke: #A80036; stroke-width: 1.25;"/><!--MD5=[f4ddba314942a21b2aa463d5fbbf83a9]
link superUser to createMechanic--><path d="M284.135,201.0638 C306.9263,198.0913 336.3887,194.2488 363.8963,190.66 " fill="none" id="superUser-&gt;createMechanic" style="stroke: #A80036; stroke-width: 1.25;"/><polygon fill="#A80036" points="370.1013,189.8512,358.2988,186.3492,363.9038,190.6601,359.5929,196.2651,370.1013,189.8512" style="stroke: #A80036; stroke-width: 1.25;"/><!--MD5=[aee8a8e21253b9f2832ab8e6443a2112]
link all to configMechanic--><path d="M261.5338,387.86 C291.4625,375.405 354.2012,349.2963 398.0775,331.0363 " fill="none" id="all-&gt;configMechanic" style="stroke: #A80036; stroke-width: 1.25;"/><polygon fill="#A80036" points="403.8688,328.6275,391.5612,328.335,398.0987,331.0294,395.4043,337.567,403.8688,328.6275" style="stroke: #A80036; stroke-width: 1.25;"/><!--MD5=[b3be8f134c7cff1a09756a05d8a3c624]
link superUser to deleteMechanic--><path d="M284.0788,181.6325 C306.1925,168.1775 334.3613,151.4587 360,137.5 C373.5188,130.14 388.4813,122.5337 402.0663,115.8263 " fill="none" id="superUser-&gt;deleteMechanic" style="stroke: #A80036; stroke-width: 1.25;"/><polygon fill="#A80036" points="407.7963,113.01,395.4944,113.4857,402.1873,115.7672,399.9058,122.4601,407.7963,113.01" style="stroke: #A80036; stroke-width: 1.25;"/><!--MD5=[d41044f2886c1583c5f926ae9d94dc33]
link superUser to openMechanics--><path d="M283.8313,213.1875 C306.1125,216.7538 334.5213,220.7188 360,222.5 C469.3762,230.1488 595.6825,226.685 678.1875,222.7712 " fill="none" id="superUser-&gt;openMechanics" style="stroke: #A80036; stroke-width: 1.25;"/><polygon fill="#A80036" points="684.5462,222.465,673.0679,218.014,678.3035,222.7668,673.5508,228.0024,684.5462,222.465" style="stroke: #A80036; stroke-width: 1.25;"/><!--MD5=[d86528af90934ca05534ae69e9b04d71]
link all to login--><path d="M261.5338,395 C294.2863,395 366.33,395 409.9475,395 " fill="none" id="all-&gt;login" style="stroke: #A80036; stroke-width: 1.25;"/><polygon fill="#A80036" points="416.6938,395,405.4438,390,410.4438,395,405.4438,400,416.6938,395" style="stroke: #A80036; stroke-width: 1.25;"/><!--MD5=[4161a5ef67aeea07140acceacaaf80c8]
link login to openDashboard--><path d="M476.4125,398.6613 C522.5375,404.63 615.6663,416.6813 684.0875,425.5363 " fill="none" id="login-&gt;openDashboard" style="stroke: #A80036; stroke-width: 1.25; stroke-dasharray: 7.0,7.0;"/><polygon fill="#A80036" points="690.6288,426.3825,680.1132,419.9806,684.4304,425.5807,678.8303,429.8979,690.6288,426.3825" style="stroke: #A80036; stroke-width: 1.25;"/><text fill="#000000" font-family="sans-serif" font-size="16.25" lengthAdjust="spacingAndGlyphs" textLength="68.75" x="572.5" y="406.8689">«include»</text><!--MD5=[24ab174fed991376842b0a69de5b893c]
link signUp to openDashboard--><path d="M487.53,472.4 C536.3238,466.0863 620.7275,455.1637 684.02,446.9725 " fill="none" id="signUp-&gt;openDashboard" style="stroke: #A80036; stroke-width: 1.25; stroke-dasharray: 7.0,7.0;"/><polygon fill="#A80036" points="690.4638,446.1388,678.6653,442.6233,684.2654,446.9406,679.9482,452.5407,690.4638,446.1388" style="stroke: #A80036; stroke-width: 1.25;"/><text fill="#000000" font-family="sans-serif" font-size="16.25" lengthAdjust="spacingAndGlyphs" textLength="68.75" x="572.5" y="448.1189">«include»</text><!--MD5=[026b6d2d95d981eca2ab7d83408a22a1]
link configMechanic to openMechanics--><path d="M527.4425,304.0688 C563.1963,299.4213 605.5863,291.9275 642.5,280 C673.45,269.9988 706.235,253.2388 730.3713,239.59 " fill="none" id="configMechanic-&gt;openMechanics" style="stroke: #A80036; stroke-width: 1.25; stroke-dasharray: 7.0,7.0;"/><polygon fill="#A80036" points="736.315,236.1925,724.0667,237.4341,730.8888,239.2939,729.029,246.1161,736.315,236.1925" style="stroke: #A80036; stroke-width: 1.25;"/><text fill="#000000" font-family="sans-serif" font-size="16.25" lengthAdjust="spacingAndGlyphs" textLength="68.75" x="572.5" y="275.6189">«include»</text><!--MD5=[a275b35912fcfca74c2f8195389855f4]
link createMechanic to openMechanics--><path d="M525.285,189.0775 C573.2475,194.72 634.8888,201.9725 683.9025,207.7387 " fill="none" id="createMechanic-&gt;openMechanics" style="stroke: #A80036; stroke-width: 1.25; stroke-dasharray: 7.0,7.0;"/><polygon fill="#A80036" points="690.425,208.5063,679.8364,202.2259,684.2178,207.7759,678.6678,212.1573,690.425,208.5063" style="stroke: #A80036; stroke-width: 1.25;"/><text fill="#000000" font-family="sans-serif" font-size="16.25" lengthAdjust="spacingAndGlyphs" textLength="68.75" x="572.5" y="191.8689">«include»</text><!--MD5=[2b25055a172c09b8c96b7a16d2952232]
link deleteMechanic to openMechanics--><path d="M497.1925,111.3238 C536.6988,124.7138 593.5188,144.53 642.5,163.75 C668.945,174.1275 698.1175,186.675 721.56,197.0363 " fill="none" id="deleteMechanic-&gt;openMechanics" style="stroke: #A80036; stroke-width: 1.25; stroke-dasharray: 7.0,7.0;"/><polygon fill="#A80036" points="727.3913,199.6213,719.1339,190.4901,721.6778,197.0877,715.0802,199.6316,727.3913,199.6213" style="stroke: #A80036; stroke-width: 1.25;"/><text fill="#000000" font-family="sans-serif" font-size="16.25" lengthAdjust="spacingAndGlyphs" textLength="68.75" x="572.5" y="134.3689">«include»</text><!--MD5=[7080b4a751283af490da9e2e7ea3d0fd]
link all to signUp--><path d="M261.5338,402.0338 C293.9675,415.33 364.935,444.4225 408.6688,462.35 " fill="none" id="all-&gt;signUp" style="stroke: #A80036; stroke-width: 1.25;"/><polygon fill="#A80036" points="414.9163,464.9113,406.404,456.0172,409.1334,462.5403,402.6104,465.2698,414.9163,464.9113" style="stroke: #A80036; stroke-width: 1.25;"/><!--MD5=[dbf35797b0505fc189f4dcd27c16a5a3]
link all to logout--><path d="M261.49,417.9625 C282.4013,444.8088 319.97,489.3088 360,518.75 C375.1538,529.895 393.7913,539.2939 409.8038,546.2919 " fill="none" id="all-&gt;logout" style="stroke: #A80036; stroke-width: 1.25;"/><polygon fill="#A80036" points="415.5738,548.7603,407.198,539.7376,409.8277,546.3014,403.2639,548.9312,415.5738,548.7603" style="stroke: #A80036; stroke-width: 1.25;"/><!--MD5=[8f3f4ee8012b1ded797c035c73d6e64a]
@startuml
left to right direction

package MechanicManagement {
:mechanic: - -|> :all:
:admin: - -|> :all:
:developer: - -|> :all:

:admin: - -|> :superUser:
:developer: - -|> :superUser:


:superUser: - -> (createMechanic)
:all: - -> (configMechanic)
:superUser: - -> (deleteMechanic)
:superUser: - -> (openMechanics)
:all: - -> (login)
(login) ..> (openDashboard) : <<include>>
(signUp) ..> (openDashboard) : <<include>>
(configMechanic) ..> (openMechanics) : <<include>>
(createMechanic) ..> (openMechanics) : <<include>>
(deleteMechanic) ..> (openMechanics) : <<include>>
:all: - -> (signUp)
:all: - -> (logout)
}

@enduml

PlantUML version 1.2020.09(Sun May 10 12:51:06 CEST 2020)
(GPL source distribution)
Java Runtime: OpenJDK Runtime Environment
JVM: OpenJDK 64-Bit Server VM
Java Version: 11.0.8+10-b944.31
Operating System: Windows 10
Default Encoding: Cp1252
Language: en
Country: GB
--></g></svg>