<?xml version="1.0" encoding="UTF-8" standalone="no"?><svg xmlns="http://www.w3.org/2000/svg" xmlns:xlink="http://www.w3.org/1999/xlink" contentScriptType="application/ecmascript" contentStyleType="text/css" height="607px" preserveAspectRatio="none" style="width:338px;height:607px;" version="1.1" viewBox="0 0 338 607" width="338px" zoomAndPan="magnify"><defs><filter height="300%" id="f1ocli42vqmhm0" width="300%" x="-1" y="-1"><feGaussianBlur result="blurOut" stdDeviation="2.0"/><feColorMatrix in="blurOut" result="blurOut2" type="matrix" values="0 0 0 0 0 0 0 0 0 0 0 0 0 0 0 0 0 0 .4 0"/><feOffset dx="4.0" dy="4.0" in="blurOut2" result="blurOut3"/><feBlend in="SourceGraphic" in2="blurOut3" mode="normal"/></filter></defs><g><!--MD5=[9a68b8f93f318a0a8d8dc46796261f1c]
cluster MechanicManagement--><polygon fill="#FFFFFF" filter="url(#f1ocli42vqmhm0)" points="22,24,187,24,194,47.6094,316,47.6094,316,595,22,595,22,24" style="stroke: #000000; stroke-width: 1.5;"/><line style="stroke: #000000; stroke-width: 1.5;" x1="22" x2="194" y1="47.6094" y2="47.6094"/><text fill="#000000" font-family="sans-serif" font-size="14" font-weight="bold" lengthAdjust="spacingAndGlyphs" textLength="159" x="26" y="40.5332">MechanicManagement</text><!--MD5=[370f09de3b578360a6dfb01a48af8db0]
entity mechanic--><ellipse cx="68" cy="244" fill="#FEFECE" filter="url(#f1ocli42vqmhm0)" rx="8" ry="8" style="stroke: #A80036; stroke-width: 1.5;"/><path d="M68,252 L68,279 M55,260 L81,260 M68,279 L55,294 M68,279 L81,294 " fill="none" filter="url(#f1ocli42vqmhm0)" style="stroke: #A80036; stroke-width: 1.5;"/><text fill="#000000" font-family="sans-serif" font-size="14" lengthAdjust="spacingAndGlyphs" textLength="60" x="38" y="314.0332">mechanic</text><ellipse cx="229.6188" cy="409.8238" fill="#FEFECE" filter="url(#f1ocli42vqmhm0)" rx="69.6188" ry="16.3238" style="stroke: #A80036; stroke-width: 1.5;"/><text fill="#000000" font-family="sans-serif" font-size="14" lengthAdjust="spacingAndGlyphs" textLength="100" x="179.6188" y="415.1284">createMechanic</text><ellipse cx="229.6715" cy="343.2343" fill="#FEFECE" filter="url(#f1ocli42vqmhm0)" rx="66.6715" ry="15.7343" style="stroke: #A80036; stroke-width: 1.5;"/><text fill="#000000" font-family="sans-serif" font-size="14" lengthAdjust="spacingAndGlyphs" textLength="92" x="183.6715" y="348.539">openMechanic</text><ellipse cx="229.7443" cy="276.2489" fill="#FEFECE" filter="url(#f1ocli42vqmhm0)" rx="69.2443" ry="16.2489" style="stroke: #A80036; stroke-width: 1.5;"/><text fill="#000000" font-family="sans-serif" font-size="14" lengthAdjust="spacingAndGlyphs" textLength="99" x="180.2443" y="281.5536">deleteMechanic</text><ellipse cx="229.7443" cy="209.2489" fill="#FEFECE" filter="url(#f1ocli42vqmhm0)" rx="69.2443" ry="16.2489" style="stroke: #A80036; stroke-width: 1.5;"/><text fill="#000000" font-family="sans-serif" font-size="14" lengthAdjust="spacingAndGlyphs" textLength="99" x="180.2443" y="214.5536">openMechanics</text><ellipse cx="229.7132" cy="562.9517" fill="#FEFECE" filter="url(#f1ocli42vqmhm0)" rx="24.2132" ry="15.4517" style="stroke: #A80036; stroke-width: 1.5;"/><text fill="#000000" font-family="sans-serif" font-size="14" lengthAdjust="spacingAndGlyphs" textLength="30" x="214.7132" y="568.2564">login</text><ellipse cx="229.3726" cy="477.9745" fill="#FEFECE" filter="url(#f1ocli42vqmhm0)" rx="70.3726" ry="16.4745" style="stroke: #A80036; stroke-width: 1.5;"/><text fill="#000000" font-family="sans-serif" font-size="14" lengthAdjust="spacingAndGlyphs" textLength="102" x="178.3726" y="483.2792">openDashboard</text><ellipse cx="229.4056" cy="141.9517" fill="#FEFECE" filter="url(#f1ocli42vqmhm0)" rx="33.4056" ry="15.4517" style="stroke: #A80036; stroke-width: 1.5;"/><text fill="#000000" font-family="sans-serif" font-size="14" lengthAdjust="spacingAndGlyphs" textLength="43" x="207.9056" y="147.2564">signUp</text><ellipse cx="229.5772" cy="75.9517" fill="#FEFECE" filter="url(#f1ocli42vqmhm0)" rx="30.5772" ry="15.4517" style="stroke: #A80036; stroke-width: 1.5;"/><text fill="#000000" font-family="sans-serif" font-size="14" lengthAdjust="spacingAndGlyphs" textLength="39" x="210.0772" y="81.2564">logout</text><!--MD5=[7a43e0ea0bd010a9e78ca465b4460bc5]
link mechanic to createMechanic--><path d="M98.0666,314.915 C114.396,334.933 136.068,358.694 159,376 C167.926,382.736 178.396,388.687 188.463,393.65 " fill="none" id="mechanic-&gt;createMechanic" style="stroke: #A80036; stroke-width: 1.0;"/><polygon fill="#A80036" points="193.052,395.861,186.679,388.352,188.5472,393.6914,183.2078,395.5596,193.052,395.861" style="stroke: #A80036; stroke-width: 1.0;"/><!--MD5=[c0f463d6e86c7c9b15c7b4679c38a0db]
link mechanic to openMechanic--><path d="M98.2548,288.289 C124.525,299.324 163.213,315.575 191.599,327.499 " fill="none" id="mechanic-&gt;openMechanic" style="stroke: #A80036; stroke-width: 1.0;"/><polygon fill="#A80036" points="196.418,329.523,189.6711,322.3481,191.8086,327.5855,186.5712,329.723,196.418,329.523" style="stroke: #A80036; stroke-width: 1.0;"/><!--MD5=[8cef5839ddbfed4d9204c05134a8de33]
link mechanic to deleteMechanic--><path d="M98.2548,276 C114.339,276 135.078,276 155.258,276 " fill="none" id="mechanic-&gt;deleteMechanic" style="stroke: #A80036; stroke-width: 1.0;"/><polygon fill="#A80036" points="160.373,276,151.373,272,155.373,276,151.373,280,160.373,276" style="stroke: #A80036; stroke-width: 1.0;"/><!--MD5=[1a9fc4d4b886e249fd5c75b0179dfe46]
link mechanic to openMechanics--><path d="M98.2548,263.711 C124.185,252.819 162.213,236.845 190.491,224.966 " fill="none" id="mechanic-&gt;openMechanics" style="stroke: #A80036; stroke-width: 1.0;"/><polygon fill="#A80036" points="195.297,222.947,185.4502,222.7433,190.6869,224.8827,188.5474,230.1194,195.297,222.947" style="stroke: #A80036; stroke-width: 1.0;"/><!--MD5=[cae584add319f2a2c1d6a06288fc939c]
link mechanic to login--><path d="M77.3518,317.93 C88.9597,368.088 113.825,452.702 159,512 C171.493,528.399 190.664,541.9162 205.71,550.9048 " fill="none" id="mechanic-&gt;login" style="stroke: #A80036; stroke-width: 1.0;"/><polygon fill="#A80036" points="210.234,553.5472,204.4793,545.5545,205.9163,551.0258,200.445,552.4628,210.234,553.5472" style="stroke: #A80036; stroke-width: 1.0;"/><!--MD5=[4161a5ef67aeea07140acceacaaf80c8]
link login to openDashboard--><path d="M229.5,547.4097 C229.5,534.0919 229.5,514.7853 229.5,499.913 " fill="none" id="login-&gt;openDashboard" style="stroke: #A80036; stroke-width: 1.0; stroke-dasharray: 7.0,7.0;"/><polygon fill="#A80036" points="229.5,494.654,225.5,503.654,229.5,499.654,233.5,503.654,229.5,494.654" style="stroke: #A80036; stroke-width: 1.0;"/><text fill="#000000" font-family="sans-serif" font-size="13" lengthAdjust="spacingAndGlyphs" textLength="55" x="190" y="526.4951">«include»</text><!--MD5=[435c85b0a64346fdb2b192d0e62735bf]
link mechanic to signUp--><path d="M98.3148,236.076 C114.556,215.927 136.071,192.183 159,175 C170.701,166.231 185.103,158.928 197.757,153.44 " fill="none" id="mechanic-&gt;signUp" style="stroke: #A80036; stroke-width: 1.0;"/><polygon fill="#A80036" points="202.693,151.351,192.8457,151.175,198.0884,153.2997,195.9637,158.5424,202.693,151.351" style="stroke: #A80036; stroke-width: 1.0;"/><!--MD5=[31c0fa1ba47176dcfa5bdf4508bcdaf6]
link mechanic to logout--><path d="M82.9668,234.231 C97.1319,197.275 122.232,143.939 159,109 C169.952,98.593 184.794,90.94 197.95,85.639 " fill="none" id="mechanic-&gt;logout" style="stroke: #A80036; stroke-width: 1.0;"/><polygon fill="#A80036" points="202.71,83.792,192.8725,83.3183,198.0486,85.6006,195.7663,90.7766,202.71,83.792" style="stroke: #A80036; stroke-width: 1.0;"/><!--MD5=[49ac5e5dbc3f32c15229b298d34bcc88]
@startuml
left to right direction

package MechanicManagement {
:mechanic: - -> (createMechanic)
:mechanic: - -> (openMechanic)
:mechanic: - -> (deleteMechanic)
:mechanic: - -> (openMechanics)
:mechanic: - -> (login)
    (login) .> (openDashboard) : <<include>>
:mechanic: - -> (signUp)
:mechanic: - -> (logout)
}

@enduml

PlantUML version 1.2020.09(Sun May 10 12:51:06 CEST 2020)
(GPL source distribution)
Java Runtime: OpenJDK Runtime Environment
JVM: OpenJDK 64-Bit Server VM
Java Version: 11.0.6+8-b765.25
Operating System: Windows 10
Default Encoding: Cp1252
Language: en
Country: GB
--></g></svg>