<?xml version="1.0" encoding="UTF-8" standalone="no"?><svg xmlns="http://www.w3.org/2000/svg" xmlns:xlink="http://www.w3.org/1999/xlink" contentScriptType="application/ecmascript" contentStyleType="text/css" height="701.25px" preserveAspectRatio="none" style="width:927px;height:701px;" version="1.1" viewBox="0 0 927 701" width="927.5px" zoomAndPan="magnify"><defs><filter height="300%" id="fadbmf0icfby5" width="300%" x="-1" y="-1"><feGaussianBlur result="blurOut" stdDeviation="2.5"/><feColorMatrix in="blurOut" result="blurOut2" type="matrix" values="0 0 0 0 0 0 0 0 0 0 0 0 0 0 0 0 0 0 .4 0"/><feOffset dx="5.0" dy="5.0" in="blurOut2" result="blurOut3"/><feBlend in="SourceGraphic" in2="blurOut3" mode="normal"/></filter></defs><g><!--MD5=[9a68b8f93f318a0a8d8dc46796261f1c]
cluster MechanicManagement--><polygon fill="#FFFFFF" filter="url(#fadbmf0icfby5)" points="27.5,30,233.75,30,242.5,59.5117,900,59.5117,900,686.25,27.5,686.25,27.5,30" style="stroke: #000000; stroke-width: 1.875;"/><line style="stroke: #000000; stroke-width: 1.875;" x1="27.5" x2="242.5" y1="59.5117" y2="59.5117"/><text fill="#000000" font-family="sans-serif" font-size="17.5" font-weight="bold" lengthAdjust="spacingAndGlyphs" textLength="198.75" x="32.5" y="50.6665">MechanicManagement</text><!--MD5=[370f09de3b578360a6dfb01a48af8db0]
entity mechanic--><ellipse cx="86.875" cy="482.5" fill="#FEFECE" filter="url(#fadbmf0icfby5)" rx="10" ry="10" style="stroke: #A80036; stroke-width: 1.875;"/><path d="M86.875,492.5 L86.875,526.25 M70.625,502.5 L103.125,502.5 M86.875,526.25 L70.625,545 M86.875,526.25 L103.125,545 " fill="none" filter="url(#fadbmf0icfby5)" style="stroke: #A80036; stroke-width: 1.875;"/><text fill="#000000" font-family="sans-serif" font-size="17.5" lengthAdjust="spacingAndGlyphs" textLength="75" x="49.375" y="570.0415">mechanic</text><!--MD5=[8fc3522a43f8c7199df5e09e5bb0188e]
entity user--><ellipse cx="253.75" cy="441.25" fill="#FEFECE" filter="url(#fadbmf0icfby5)" rx="10" ry="10" style="stroke: #A80036; stroke-width: 1.875;"/><path d="M253.75,451.25 L253.75,485 M237.5,461.25 L270,461.25 M253.75,485 L237.5,503.75 M253.75,485 L270,503.75 " fill="none" filter="url(#fadbmf0icfby5)" style="stroke: #A80036; stroke-width: 1.875;"/><text fill="#000000" font-family="sans-serif" font-size="17.5" lengthAdjust="spacingAndGlyphs" textLength="35" x="236.25" y="528.7915">user</text><!--MD5=[8b5b27b5fa25497f0543505c197e77a5]
entity boss--><ellipse cx="86.875" cy="335" fill="#FEFECE" filter="url(#fadbmf0icfby5)" rx="10" ry="10" style="stroke: #A80036; stroke-width: 1.875;"/><path d="M86.875,345 L86.875,378.75 M70.625,355 L103.125,355 M86.875,378.75 L70.625,397.5 M86.875,378.75 L103.125,397.5 " fill="none" filter="url(#fadbmf0icfby5)" style="stroke: #A80036; stroke-width: 1.875;"/><text fill="#000000" font-family="sans-serif" font-size="17.5" lengthAdjust="spacingAndGlyphs" textLength="37.5" x="68.125" y="422.5415">boss</text><!--MD5=[23e4898078453906b079a6bea7d1245c]
entity developer--><ellipse cx="86.875" cy="187.5" fill="#FEFECE" filter="url(#fadbmf0icfby5)" rx="10" ry="10" style="stroke: #A80036; stroke-width: 1.875;"/><path d="M86.875,197.5 L86.875,231.25 M70.625,207.5 L103.125,207.5 M86.875,231.25 L70.625,250 M86.875,231.25 L103.125,250 " fill="none" filter="url(#fadbmf0icfby5)" style="stroke: #A80036; stroke-width: 1.875;"/><text fill="#000000" font-family="sans-serif" font-size="17.5" lengthAdjust="spacingAndGlyphs" textLength="78.75" x="47.5" y="275.0415">developer</text><!--MD5=[65a041cd1922b3dee6e64063a2213939]
entity administrator--><ellipse cx="253.75" cy="187.5" fill="#FEFECE" filter="url(#fadbmf0icfby5)" rx="10" ry="10" style="stroke: #A80036; stroke-width: 1.875;"/><path d="M253.75,197.5 L253.75,231.25 M237.5,207.5 L270,207.5 M253.75,231.25 L237.5,250 M253.75,231.25 L270,250 " fill="none" filter="url(#fadbmf0icfby5)" style="stroke: #A80036; stroke-width: 1.875;"/><text fill="#000000" font-family="sans-serif" font-size="17.5" lengthAdjust="spacingAndGlyphs" textLength="102.5" x="202.5" y="275.0415">administrator</text><ellipse cx="469.5235" cy="312.2797" fill="#FEFECE" filter="url(#fadbmf0icfby5)" rx="87.0235" ry="20.4047" style="stroke: #A80036; stroke-width: 1.875;"/><text fill="#000000" font-family="sans-serif" font-size="17.5" lengthAdjust="spacingAndGlyphs" textLength="125" x="407.0235" y="318.9106">createMechanic</text><ellipse cx="469.2145" cy="397.7179" fill="#FEFECE" filter="url(#fadbmf0icfby5)" rx="86.0895" ry="20.2179" style="stroke: #A80036; stroke-width: 1.875;"/><text fill="#000000" font-family="sans-serif" font-size="17.5" lengthAdjust="spacingAndGlyphs" textLength="122.5" x="407.9645" y="404.3488">configMechanic</text><ellipse cx="469.6804" cy="227.8111" fill="#FEFECE" filter="url(#fadbmf0icfby5)" rx="86.5554" ry="20.3111" style="stroke: #A80036; stroke-width: 1.875;"/><text fill="#000000" font-family="sans-serif" font-size="17.5" lengthAdjust="spacingAndGlyphs" textLength="123.75" x="407.8054" y="234.4419">deleteMechanic</text><ellipse cx="792.1804" cy="272.8111" fill="#FEFECE" filter="url(#fadbmf0icfby5)" rx="86.5554" ry="20.3111" style="stroke: #A80036; stroke-width: 1.875;"/><text fill="#000000" font-family="sans-serif" font-size="17.5" lengthAdjust="spacingAndGlyphs" textLength="123.75" x="730.3054" y="279.4419">openMechanics</text><ellipse cx="469.2157" cy="142.4681" fill="#FEFECE" filter="url(#fadbmf0icfby5)" rx="87.9657" ry="20.5931" style="stroke: #A80036; stroke-width: 1.875;"/><text fill="#000000" font-family="sans-serif" font-size="17.5" lengthAdjust="spacingAndGlyphs" textLength="127.5" x="405.4657" y="149.099">openOperations</text><ellipse cx="469.6415" cy="563.6896" fill="#FEFECE" filter="url(#fadbmf0icfby5)" rx="30.2665" ry="19.3146" style="stroke: #A80036; stroke-width: 1.875;"/><text fill="#000000" font-family="sans-serif" font-size="17.5" lengthAdjust="spacingAndGlyphs" textLength="37.5" x="450.8915" y="570.3205">login</text><ellipse cx="791.7157" cy="586.2181" fill="#FEFECE" filter="url(#fadbmf0icfby5)" rx="87.9657" ry="20.5931" style="stroke: #A80036; stroke-width: 1.875;"/><text fill="#000000" font-family="sans-serif" font-size="17.5" lengthAdjust="spacingAndGlyphs" textLength="127.5" x="727.9657" y="592.849">openDashboard</text><ellipse cx="469.257" cy="646.1896" fill="#FEFECE" filter="url(#fadbmf0icfby5)" rx="41.757" ry="19.3146" style="stroke: #A80036; stroke-width: 1.875;"/><text fill="#000000" font-family="sans-serif" font-size="17.5" lengthAdjust="spacingAndGlyphs" textLength="53.75" x="442.382" y="652.8205">signUp</text><ellipse cx="469.4715" cy="481.1896" fill="#FEFECE" filter="url(#fadbmf0icfby5)" rx="38.2215" ry="19.3146" style="stroke: #A80036; stroke-width: 1.875;"/><text fill="#000000" font-family="sans-serif" font-size="17.5" lengthAdjust="spacingAndGlyphs" textLength="48.75" x="445.0965" y="487.8205">logout</text><!--MD5=[806725e63a06202b8f6954a33e7c0646]
link mechanic to user--><path d="M124.6051,513.345 C150.1575,506.9325 184.3513,498.3513 210.955,491.6763 " fill="none" id="mechanic-&gt;user" style="stroke: #A80036; stroke-width: 1.25;"/><polygon fill="none" points="208.8713,483.1775,235.2488,485.5787,213.13,500.1513,208.8713,483.1775" style="stroke: #A80036; stroke-width: 1.25;"/><!--MD5=[1189ae1120c3e4545cfcfdabb690b8fe]
link boss to user--><path d="M105.716,386.37 C131.4319,402.9925 179.9413,434.3488 214.14,456.4538 " fill="none" id="boss-&gt;user" style="stroke: #A80036; stroke-width: 1.25;"/><polygon fill="none" points="219.2825,449.36,235.5275,470.28,209.7825,464.0563,219.2825,449.36" style="stroke: #A80036; stroke-width: 1.25;"/><!--MD5=[19550f970e569750a7f66dff6d65690d]
link developer to user--><path d="M121.7854,279.4625 C151.085,324.6925 193.2025,389.71 221.6438,433.6163 " fill="none" id="developer-&gt;user" style="stroke: #A80036; stroke-width: 1.25;"/><polygon fill="none" points="229.2513,429.2663,235.4988,455.005,214.5638,438.78,229.2513,429.2663" style="stroke: #A80036; stroke-width: 1.25;"/><!--MD5=[9eaf3ddbadb62335935b6d062785ffc6]
link boss to administrator--><path d="M105.716,359.215 C124.3779,342.4688 155.0438,314.9513 183.5325,289.3875 " fill="none" id="boss-&gt;administrator" style="stroke: #A80036; stroke-width: 1.25;"/><polygon fill="none" points="177.81,282.7663,202.2613,272.5813,189.4975,295.7913,177.81,282.7663" style="stroke: #A80036; stroke-width: 1.25;"/><!--MD5=[c825b84b2f616c4218922742007a28d9]
link developer to administrator--><path d="M126.6636,227.5 C141.8375,227.5 159.8075,227.5 177.3475,227.5 " fill="none" id="developer-&gt;administrator" style="stroke: #A80036; stroke-width: 1.25;"/><polygon fill="none" points="177.3613,218.75,202.36,227.5,177.36,236.25,177.3613,218.75" style="stroke: #A80036; stroke-width: 1.25;"/><!--MD5=[c9e425b0f9aaa62cfde6e829fc946abc]
link administrator to createMechanic--><path d="M305.5075,247.6438 C339.345,261.1388 383.7238,278.8388 417.57,292.3375 " fill="none" id="administrator-&gt;createMechanic" style="stroke: #A80036; stroke-width: 1.25;"/><polygon fill="#A80036" points="423.7625,294.8075,415.1661,285.9947,417.9574,292.4915,411.4606,295.2828,423.7625,294.8075" style="stroke: #A80036; stroke-width: 1.25;"/><!--MD5=[5cd7eef9abc2d6dd2045ffbd744f1c45]
link user to configMechanic--><path d="M272.0813,474.5375 C303.3713,462.2425 370.9875,435.6713 418.0013,417.1963 " fill="none" id="user-&gt;configMechanic" style="stroke: #A80036; stroke-width: 1.25;"/><polygon fill="#A80036" points="424.205,414.7588,411.9058,414.2188,418.3878,417.0442,415.5625,423.5263,424.205,414.7588" style="stroke: #A80036; stroke-width: 1.25;"/><!--MD5=[94bdd53a8a03d82b7f49cdefaa1b38af]
link administrator to deleteMechanic--><path d="M305.5075,227.5 C326.66,227.5 351.9325,227.5 376.1763,227.5 " fill="none" id="administrator-&gt;deleteMechanic" style="stroke: #A80036; stroke-width: 1.25;"/><polygon fill="#A80036" points="382.9825,227.5,371.7325,222.5,376.7325,227.5,371.7325,232.5,382.9825,227.5" style="stroke: #A80036; stroke-width: 1.25;"/><!--MD5=[d964726d05a7cfa62d097efb36a71965]
link administrator to openMechanics--><path d="M290.2625,175.59 C312.64,147.4738 344.3063,115.41 381.25,100 C453.5463,69.845 483.1063,75.4688 557.5,100 C646.6387,129.3937 729.5775,207.4525 768.0775,247.7125 " fill="none" id="administrator-&gt;openMechanics" style="stroke: #A80036; stroke-width: 1.25;"/><polygon fill="#A80036" points="772.55,252.43,768.4386,240.8257,768.25,247.8943,761.1815,247.7057,772.55,252.43" style="stroke: #A80036; stroke-width: 1.25;"/><!--MD5=[8dbd90e65f2a4248d783a68399c2fdee]
link administrator to openOperations--><path d="M305.5075,207.3563 C339.345,193.8612 383.7238,176.1612 417.57,162.6625 " fill="none" id="administrator-&gt;openOperations" style="stroke: #A80036; stroke-width: 1.25;"/><polygon fill="#A80036" points="423.7625,160.1925,411.4606,159.7172,417.9574,162.5085,415.1661,169.0053,423.7625,160.1925" style="stroke: #A80036; stroke-width: 1.25;"/><!--MD5=[723f75bbc208f5e0dee037db49810223]
link user to login--><path d="M272.0813,487.8613 C308.0025,501.7675 391.8025,534.2063 437.3425,551.8338 " fill="none" id="user-&gt;login" style="stroke: #A80036; stroke-width: 1.25;"/><polygon fill="#A80036" points="443.2363,554.1163,434.5487,545.3933,437.4074,551.8608,430.94,554.7195,443.2363,554.1163" style="stroke: #A80036; stroke-width: 1.25;"/><!--MD5=[4161a5ef67aeea07140acceacaaf80c8]
link login to openDashboard--><path d="M499.5875,565.7863 C544.5975,568.9513 633.1963,575.1813 700.8725,579.9388 " fill="none" id="login-&gt;openDashboard" style="stroke: #A80036; stroke-width: 1.25; stroke-dasharray: 7.0,7.0;"/><polygon fill="#A80036" points="707.355,580.395,696.4843,574.6166,701.1205,579.9557,695.7814,584.5918,707.355,580.395" style="stroke: #A80036; stroke-width: 1.25;"/><text fill="#000000" font-family="sans-serif" font-size="16.25" lengthAdjust="spacingAndGlyphs" textLength="68.75" x="596.25" y="568.1189">«include»</text><!--MD5=[24ab174fed991376842b0a69de5b893c]
link signUp to openDashboard--><path d="M508.59,639.1316 C559.5913,629.5687 651.3225,612.3691 716.3075,600.1846 " fill="none" id="signUp-&gt;openDashboard" style="stroke: #A80036; stroke-width: 1.25; stroke-dasharray: 7.0,7.0;"/><polygon fill="#A80036" points="722.51,599.0215,710.5312,596.1804,716.367,600.1733,712.3741,606.0091,722.51,599.0215" style="stroke: #A80036; stroke-width: 1.25;"/><text fill="#000000" font-family="sans-serif" font-size="16.25" lengthAdjust="spacingAndGlyphs" textLength="68.75" x="596.25" y="605.6189">«include»</text><!--MD5=[026b6d2d95d981eca2ab7d83408a22a1]
link configMechanic to openMechanics--><path d="M538.3013,385.3025 C576.7175,377.13 625.1838,364.69 666.25,347.5 C699.5513,333.56 734.505,311.7538 758.8487,295.2413 " fill="none" id="configMechanic-&gt;openMechanics" style="stroke: #A80036; stroke-width: 1.25; stroke-dasharray: 7.0,7.0;"/><polygon fill="#A80036" points="764.1837,291.59,752.0758,293.8171,759.0258,295.1197,757.7232,302.0697,764.1837,291.59" style="stroke: #A80036; stroke-width: 1.25;"/><text fill="#000000" font-family="sans-serif" font-size="16.25" lengthAdjust="spacingAndGlyphs" textLength="68.75" x="596.25" y="343.1189">«include»</text><!--MD5=[a275b35912fcfca74c2f8195389855f4]
link createMechanic to openMechanics--><path d="M554.8238,316.5575 C589.5125,316.9013 629.995,315.5838 666.25,310 C690.7,306.235 717.0313,298.8113 739.1425,291.5563 " fill="none" id="createMechanic-&gt;openMechanics" style="stroke: #A80036; stroke-width: 1.25; stroke-dasharray: 7.0,7.0;"/><polygon fill="#A80036" points="745.2625,289.5175,733.009,288.3283,739.3327,291.4923,736.1687,297.816,745.2625,289.5175" style="stroke: #A80036; stroke-width: 1.25;"/><text fill="#000000" font-family="sans-serif" font-size="16.25" lengthAdjust="spacingAndGlyphs" textLength="68.75" x="596.25" y="305.6189">«include»</text><!--MD5=[2b25055a172c09b8c96b7a16d2952232]
link deleteMechanic to openMechanics--><path d="M543.6388,237.7675 C593.5238,244.7825 659.6163,254.0775 710.8788,261.2863 " fill="none" id="deleteMechanic-&gt;openMechanics" style="stroke: #A80036; stroke-width: 1.25; stroke-dasharray: 7.0,7.0;"/><polygon fill="#A80036" points="717.3725,262.1988,706.9276,255.6821,711.1833,261.3291,705.5362,265.5848,717.3725,262.1988" style="stroke: #A80036; stroke-width: 1.25;"/><text fill="#000000" font-family="sans-serif" font-size="16.25" lengthAdjust="spacingAndGlyphs" textLength="68.75" x="596.25" y="241.8689">«include»</text><!--MD5=[2a8bd3ffa17e6fd96bf24180c241e99a]
link user to signUp--><path d="M272.0825,501.7987 C294.8713,528.25 337.4575,574.435 381.25,605 C396.2375,615.4608 414.2925,624.5179 430.0513,631.459 " fill="none" id="user-&gt;signUp" style="stroke: #A80036; stroke-width: 1.25;"/><polygon fill="#A80036" points="436.1937,634.1096,427.8462,625.0608,430.4554,631.6329,423.8834,634.2421,436.1937,634.1096" style="stroke: #A80036; stroke-width: 1.25;"/><!--MD5=[f0507fbd7be2efa159f334bb49a37f99]
link user to logout--><path d="M272.0813,481.25 C304.8438,481.25 377.4325,481.25 424.4975,481.25 " fill="none" id="user-&gt;logout" style="stroke: #A80036; stroke-width: 1.25;"/><polygon fill="#A80036" points="431.2488,481.25,419.9988,476.25,424.9988,481.25,419.9988,486.25,431.2488,481.25" style="stroke: #A80036; stroke-width: 1.25;"/><!--MD5=[82729aadcf26d517899ba0495e5236e2]
@startuml
left to right direction

package MechanicManagement {
:mechanic: - -|> :user:
:boss: - -|> :user:
:developer: - -|> :user:

:boss: - -|> :administrator:
:developer: - -|> :administrator:


:administrator: - -> (createMechanic)
:user: - -> (configMechanic)
:administrator: - -> (deleteMechanic)
:administrator: - -> (openMechanics)
:administrator: - -> (openOperations)
:user: - -> (login)
(login) ..> (openDashboard) : <<include>>
(signUp) ..> (openDashboard) : <<include>>
(configMechanic) ..> (openMechanics) : <<include>>
(createMechanic) ..> (openMechanics) : <<include>>
(deleteMechanic) ..> (openMechanics) : <<include>>
:user: - -> (signUp)
:user: - -> (logout)
}

@enduml

PlantUML version 1.2020.09(Sun May 10 12:51:06 CEST 2020)
(GPL source distribution)
Java Runtime: OpenJDK Runtime Environment
JVM: OpenJDK 64-Bit Server VM
Java Version: 11.0.8+10-b1094.1
Operating System: Windows 10
Default Encoding: Cp1252
Language: en
Country: GB
--></g></svg>