<?xml version="1.0" encoding="UTF-8" standalone="no"?><svg xmlns="http://www.w3.org/2000/svg" xmlns:xlink="http://www.w3.org/1999/xlink" contentScriptType="application/ecmascript" contentStyleType="text/css" height="701.25px" preserveAspectRatio="none" style="width:906px;height:701px;" version="1.1" viewBox="0 0 906 701" width="906.25px" zoomAndPan="magnify"><defs><filter height="300%" id="f169t51es1f55p" width="300%" x="-1" y="-1"><feGaussianBlur result="blurOut" stdDeviation="2.5"/><feColorMatrix in="blurOut" result="blurOut2" type="matrix" values="0 0 0 0 0 0 0 0 0 0 0 0 0 0 0 0 0 0 .4 0"/><feOffset dx="5.0" dy="5.0" in="blurOut2" result="blurOut3"/><feBlend in="SourceGraphic" in2="blurOut3" mode="normal"/></filter></defs><g><!--MD5=[9a68b8f93f318a0a8d8dc46796261f1c]
cluster MechanicManagement--><polygon fill="#FFFFFF" filter="url(#f169t51es1f55p)" points="27.5,30,233.75,30,242.5,59.5117,878.75,59.5117,878.75,686.25,27.5,686.25,27.5,30" style="stroke: #000000; stroke-width: 1.875;"/><line style="stroke: #000000; stroke-width: 1.875;" x1="27.5" x2="242.5" y1="59.5117" y2="59.5117"/><text fill="#000000" font-family="sans-serif" font-size="17.5" font-weight="bold" lengthAdjust="spacingAndGlyphs" textLength="198.75" x="32.5" y="50.6665">MechanicManagement</text><!--MD5=[370f09de3b578360a6dfb01a48af8db0]
entity mechanic--><ellipse cx="86.875" cy="482.5" fill="#FEFECE" filter="url(#f169t51es1f55p)" rx="10" ry="10" style="stroke: #A80036; stroke-width: 1.875;"/><path d="M86.875,492.5 L86.875,526.25 M70.625,502.5 L103.125,502.5 M86.875,526.25 L70.625,545 M86.875,526.25 L103.125,545 " fill="none" filter="url(#f169t51es1f55p)" style="stroke: #A80036; stroke-width: 1.875;"/><text fill="#000000" font-family="sans-serif" font-size="17.5" lengthAdjust="spacingAndGlyphs" textLength="75" x="49.375" y="570.0415">mechanic</text><!--MD5=[966c1203244200a41ac5fc270e79b5ef]
entity all--><ellipse cx="243.125" cy="441.25" fill="#FEFECE" filter="url(#f169t51es1f55p)" rx="10" ry="10" style="stroke: #A80036; stroke-width: 1.875;"/><path d="M243.125,451.25 L243.125,485 M226.875,461.25 L259.375,461.25 M243.125,485 L226.875,503.75 M243.125,485 L259.375,503.75 " fill="none" filter="url(#f169t51es1f55p)" style="stroke: #A80036; stroke-width: 1.875;"/><text fill="#000000" font-family="sans-serif" font-size="17.5" lengthAdjust="spacingAndGlyphs" textLength="17.5" x="234.375" y="528.7915">all</text><!--MD5=[79a439086b036a57b90a01d7b2f8bbd1]
entity admin--><ellipse cx="86.875" cy="335" fill="#FEFECE" filter="url(#f169t51es1f55p)" rx="10" ry="10" style="stroke: #A80036; stroke-width: 1.875;"/><path d="M86.875,345 L86.875,378.75 M70.625,355 L103.125,355 M86.875,378.75 L70.625,397.5 M86.875,378.75 L103.125,397.5 " fill="none" filter="url(#f169t51es1f55p)" style="stroke: #A80036; stroke-width: 1.875;"/><text fill="#000000" font-family="sans-serif" font-size="17.5" lengthAdjust="spacingAndGlyphs" textLength="47.5" x="63.125" y="422.5415">admin</text><!--MD5=[23e4898078453906b079a6bea7d1245c]
entity developer--><ellipse cx="86.875" cy="187.5" fill="#FEFECE" filter="url(#f169t51es1f55p)" rx="10" ry="10" style="stroke: #A80036; stroke-width: 1.875;"/><path d="M86.875,197.5 L86.875,231.25 M70.625,207.5 L103.125,207.5 M86.875,231.25 L70.625,250 M86.875,231.25 L103.125,250 " fill="none" filter="url(#f169t51es1f55p)" style="stroke: #A80036; stroke-width: 1.875;"/><text fill="#000000" font-family="sans-serif" font-size="17.5" lengthAdjust="spacingAndGlyphs" textLength="78.75" x="47.5" y="275.0415">developer</text><!--MD5=[35b5e21611523c4fc71f059dcedd152e]
entity superUser--><ellipse cx="243.125" cy="187.5" fill="#FEFECE" filter="url(#f169t51es1f55p)" rx="10" ry="10" style="stroke: #A80036; stroke-width: 1.875;"/><path d="M243.125,197.5 L243.125,231.25 M226.875,207.5 L259.375,207.5 M243.125,231.25 L226.875,250 M243.125,231.25 L259.375,250 " fill="none" filter="url(#f169t51es1f55p)" style="stroke: #A80036; stroke-width: 1.875;"/><text fill="#000000" font-family="sans-serif" font-size="17.5" lengthAdjust="spacingAndGlyphs" textLength="81.25" x="202.5" y="275.0415">superUser</text><ellipse cx="448.2735" cy="312.2797" fill="#FEFECE" filter="url(#f169t51es1f55p)" rx="87.0235" ry="20.4047" style="stroke: #A80036; stroke-width: 1.875;"/><text fill="#000000" font-family="sans-serif" font-size="17.5" lengthAdjust="spacingAndGlyphs" textLength="125" x="385.7735" y="318.9106">createMechanic</text><ellipse cx="447.9645" cy="397.7179" fill="#FEFECE" filter="url(#f169t51es1f55p)" rx="86.0895" ry="20.2179" style="stroke: #A80036; stroke-width: 1.875;"/><text fill="#000000" font-family="sans-serif" font-size="17.5" lengthAdjust="spacingAndGlyphs" textLength="122.5" x="386.7145" y="404.3488">configMechanic</text><ellipse cx="448.4304" cy="227.8111" fill="#FEFECE" filter="url(#f169t51es1f55p)" rx="86.5554" ry="20.3111" style="stroke: #A80036; stroke-width: 1.875;"/><text fill="#000000" font-family="sans-serif" font-size="17.5" lengthAdjust="spacingAndGlyphs" textLength="123.75" x="386.5554" y="234.4419">deleteMechanic</text><ellipse cx="770.9304" cy="272.8111" fill="#FEFECE" filter="url(#f169t51es1f55p)" rx="86.5554" ry="20.3111" style="stroke: #A80036; stroke-width: 1.875;"/><text fill="#000000" font-family="sans-serif" font-size="17.5" lengthAdjust="spacingAndGlyphs" textLength="123.75" x="709.0554" y="279.4419">openMechanics</text><ellipse cx="447.9657" cy="142.4681" fill="#FEFECE" filter="url(#f169t51es1f55p)" rx="87.9657" ry="20.5931" style="stroke: #A80036; stroke-width: 1.875;"/><text fill="#000000" font-family="sans-serif" font-size="17.5" lengthAdjust="spacingAndGlyphs" textLength="127.5" x="384.2157" y="149.099">openOperations</text><ellipse cx="448.3915" cy="563.6896" fill="#FEFECE" filter="url(#f169t51es1f55p)" rx="30.2665" ry="19.3146" style="stroke: #A80036; stroke-width: 1.875;"/><text fill="#000000" font-family="sans-serif" font-size="17.5" lengthAdjust="spacingAndGlyphs" textLength="37.5" x="429.6415" y="570.3205">login</text><ellipse cx="770.4657" cy="586.2181" fill="#FEFECE" filter="url(#f169t51es1f55p)" rx="87.9657" ry="20.5931" style="stroke: #A80036; stroke-width: 1.875;"/><text fill="#000000" font-family="sans-serif" font-size="17.5" lengthAdjust="spacingAndGlyphs" textLength="127.5" x="706.7157" y="592.849">openDashboard</text><ellipse cx="448.007" cy="646.1896" fill="#FEFECE" filter="url(#f169t51es1f55p)" rx="41.757" ry="19.3146" style="stroke: #A80036; stroke-width: 1.875;"/><text fill="#000000" font-family="sans-serif" font-size="17.5" lengthAdjust="spacingAndGlyphs" textLength="53.75" x="421.132" y="652.8205">signUp</text><ellipse cx="448.2215" cy="481.1896" fill="#FEFECE" filter="url(#f169t51es1f55p)" rx="38.2215" ry="19.3146" style="stroke: #A80036; stroke-width: 1.875;"/><text fill="#000000" font-family="sans-serif" font-size="17.5" lengthAdjust="spacingAndGlyphs" textLength="48.75" x="423.8465" y="487.8205">logout</text><!--MD5=[76d6334b0b02588446ff6e8faa1d31ca]
link mechanic to all--><path d="M124.5616,512.7238 C147.2838,506.6287 176.5938,498.7637 200.2338,492.4225 " fill="none" id="mechanic-&gt;all" style="stroke: #A80036; stroke-width: 1.25;"/><polygon fill="none" points="198.23,483.9,224.6438,485.8725,202.765,500.8025,198.23,483.9" style="stroke: #A80036; stroke-width: 1.25;"/><!--MD5=[632e2529caf45198b4e96a956cde6a86]
link admin to all--><path d="M110.8114,390.6775 C135.33,407.6213 174.8138,434.9063 204.0438,455.1063 " fill="none" id="admin-&gt;all" style="stroke: #A80036; stroke-width: 1.25;"/><polygon fill="none" points="209.2138,448.0425,224.8063,469.4538,199.265,462.44,209.2138,448.0425" style="stroke: #A80036; stroke-width: 1.25;"/><!--MD5=[1fd893bffd749a7bbba672877dd4c8d4]
link developer to all--><path d="M119.6096,279.4625 C146.6425,324.0775 185.3413,387.9475 211.9213,431.815 " fill="none" id="developer-&gt;all" style="stroke: #A80036; stroke-width: 1.25;"/><polygon fill="none" points="219.4688,427.385,224.94,453.3013,204.5013,436.4538,219.4688,427.385" style="stroke: #A80036; stroke-width: 1.25;"/><!--MD5=[6642bac34abdd241a43dd2c06501691e]
link admin to superUser--><path d="M110.8114,353.2363 C130.0758,334.755 158.5775,307.4113 184.0863,282.94 " fill="none" id="admin-&gt;superUser" style="stroke: #A80036; stroke-width: 1.25;"/><polygon fill="none" points="178.2825,276.3825,202.38,265.3887,190.3975,289.01,178.2825,276.3825" style="stroke: #A80036; stroke-width: 1.25;"/><!--MD5=[b73b3952ca94ed8495d7c3f47034ee61]
link developer to superUser--><path d="M126.526,227.5 C141.8825,227.5 160,227.5 177.2688,227.5 " fill="none" id="developer-&gt;superUser" style="stroke: #A80036; stroke-width: 1.25;"/><polygon fill="none" points="177.3588,218.75,202.3588,227.5,177.3588,236.25,177.3588,218.75" style="stroke: #A80036; stroke-width: 1.25;"/><!--MD5=[f4ddba314942a21b2aa463d5fbbf83a9]
link superUser to createMechanic--><path d="M283.9,244.0913 C316.65,257.8375 363.3337,277.4338 398.3488,292.1312 " fill="none" id="superUser-&gt;createMechanic" style="stroke: #A80036; stroke-width: 1.25;"/><polygon fill="#A80036" points="404.3038,294.63,395.8668,285.6645,398.5411,292.2103,391.9953,294.8846,404.3038,294.63" style="stroke: #A80036; stroke-width: 1.25;"/><!--MD5=[aee8a8e21253b9f2832ab8e6443a2112]
link all to configMechanic--><path d="M261.2913,474.2538 C291.2213,461.875 354.5238,435.695 398.835,417.3688 " fill="none" id="all-&gt;configMechanic" style="stroke: #A80036; stroke-width: 1.25;"/><polygon fill="#A80036" points="404.6838,414.95,392.3768,414.6307,398.9085,417.3394,396.1998,423.8711,404.6838,414.95" style="stroke: #A80036; stroke-width: 1.25;"/><!--MD5=[b3be8f134c7cff1a09756a05d8a3c624]
link superUser to deleteMechanic--><path d="M283.9,227.5 C304.3787,227.5 330.305,227.5 355.42,227.5 " fill="none" id="superUser-&gt;deleteMechanic" style="stroke: #A80036; stroke-width: 1.25;"/><polygon fill="#A80036" points="361.7838,227.5,350.5338,222.5,355.5338,227.5,350.5338,232.5,361.7838,227.5" style="stroke: #A80036; stroke-width: 1.25;"/><!--MD5=[d41044f2886c1583c5f926ae9d94dc33]
link superUser to openMechanics--><path d="M275.96,175.3713 C296.1238,147.37 325.03,115.495 360,100 C431.6175,68.2663 461.8563,75.4688 536.25,100 C625.3888,129.3937 708.3275,207.4525 746.8275,247.7125 " fill="none" id="superUser-&gt;openMechanics" style="stroke: #A80036; stroke-width: 1.25;"/><polygon fill="#A80036" points="751.3,252.43,747.1886,240.8257,747,247.8943,739.9315,247.7057,751.3,252.43" style="stroke: #A80036; stroke-width: 1.25;"/><!--MD5=[3e83c4519373948bdcf608bb6d0d2a6b]
link superUser to openOperations--><path d="M283.9,210.9087 C316.5413,197.2075 363.0237,177.6975 398,163.0163 " fill="none" id="superUser-&gt;openOperations" style="stroke: #A80036; stroke-width: 1.25;"/><polygon fill="#A80036" points="403.9488,160.5188,391.6404,160.2609,398.1855,162.9369,395.5094,169.482,403.9488,160.5188" style="stroke: #A80036; stroke-width: 1.25;"/><!--MD5=[d86528af90934ca05534ae69e9b04d71]
link all to login--><path d="M261.2913,488.1425 C295.3575,502.0212 372.6575,533.5138 415.9788,551.1625 " fill="none" id="all-&gt;login" style="stroke: #A80036; stroke-width: 1.25;"/><polygon fill="#A80036" points="422.1138,553.6625,413.5807,544.7884,416.3254,551.305,409.8088,554.0497,422.1138,553.6625" style="stroke: #A80036; stroke-width: 1.25;"/><!--MD5=[4161a5ef67aeea07140acceacaaf80c8]
link login to openDashboard--><path d="M478.3375,565.7863 C523.3475,568.9513 611.9463,575.1813 679.6225,579.9388 " fill="none" id="login-&gt;openDashboard" style="stroke: #A80036; stroke-width: 1.25; stroke-dasharray: 7.0,7.0;"/><polygon fill="#A80036" points="686.105,580.395,675.2343,574.6166,679.8705,579.9557,674.5314,584.5918,686.105,580.395" style="stroke: #A80036; stroke-width: 1.25;"/><text fill="#000000" font-family="sans-serif" font-size="16.25" lengthAdjust="spacingAndGlyphs" textLength="68.75" x="575" y="568.1189">«include»</text><!--MD5=[24ab174fed991376842b0a69de5b893c]
link signUp to openDashboard--><path d="M487.34,639.1316 C538.3413,629.5687 630.0725,612.3691 695.0575,600.1846 " fill="none" id="signUp-&gt;openDashboard" style="stroke: #A80036; stroke-width: 1.25; stroke-dasharray: 7.0,7.0;"/><polygon fill="#A80036" points="701.26,599.0215,689.2812,596.1804,695.117,600.1733,691.1241,606.0091,701.26,599.0215" style="stroke: #A80036; stroke-width: 1.25;"/><text fill="#000000" font-family="sans-serif" font-size="16.25" lengthAdjust="spacingAndGlyphs" textLength="68.75" x="575" y="605.6189">«include»</text><!--MD5=[026b6d2d95d981eca2ab7d83408a22a1]
link configMechanic to openMechanics--><path d="M517.0513,385.3025 C555.4675,377.13 603.9338,364.69 645,347.5 C678.3013,333.56 713.255,311.7538 737.5987,295.2413 " fill="none" id="configMechanic-&gt;openMechanics" style="stroke: #A80036; stroke-width: 1.25; stroke-dasharray: 7.0,7.0;"/><polygon fill="#A80036" points="742.9337,291.59,730.8258,293.8171,737.7758,295.1197,736.4732,302.0697,742.9337,291.59" style="stroke: #A80036; stroke-width: 1.25;"/><text fill="#000000" font-family="sans-serif" font-size="16.25" lengthAdjust="spacingAndGlyphs" textLength="68.75" x="575" y="343.1189">«include»</text><!--MD5=[a275b35912fcfca74c2f8195389855f4]
link createMechanic to openMechanics--><path d="M533.5738,316.5575 C568.2625,316.9013 608.745,315.5838 645,310 C669.45,306.235 695.7813,298.8113 717.8925,291.5563 " fill="none" id="createMechanic-&gt;openMechanics" style="stroke: #A80036; stroke-width: 1.25; stroke-dasharray: 7.0,7.0;"/><polygon fill="#A80036" points="724.0125,289.5175,711.759,288.3283,718.0827,291.4923,714.9187,297.816,724.0125,289.5175" style="stroke: #A80036; stroke-width: 1.25;"/><text fill="#000000" font-family="sans-serif" font-size="16.25" lengthAdjust="spacingAndGlyphs" textLength="68.75" x="575" y="305.6189">«include»</text><!--MD5=[2b25055a172c09b8c96b7a16d2952232]
link deleteMechanic to openMechanics--><path d="M522.3888,237.7675 C572.2738,244.7825 638.3663,254.0775 689.6288,261.2863 " fill="none" id="deleteMechanic-&gt;openMechanics" style="stroke: #A80036; stroke-width: 1.25; stroke-dasharray: 7.0,7.0;"/><polygon fill="#A80036" points="696.1225,262.1988,685.6776,255.6821,689.9333,261.3291,684.2862,265.5848,696.1225,262.1988" style="stroke: #A80036; stroke-width: 1.25;"/><text fill="#000000" font-family="sans-serif" font-size="16.25" lengthAdjust="spacingAndGlyphs" textLength="68.75" x="575" y="241.8689">«include»</text><!--MD5=[7080b4a751283af490da9e2e7ea3d0fd]
link all to signUp--><path d="M261.4625,504.2513 C282.345,531.135 319.8863,575.6725 360,605 C374.7537,615.7874 392.7763,624.8918 408.5725,631.78 " fill="none" id="all-&gt;signUp" style="stroke: #A80036; stroke-width: 1.25;"/><polygon fill="#A80036" points="414.7325,634.4048,406.3429,625.3949,408.9827,631.9548,402.4229,634.5946,414.7325,634.4048" style="stroke: #A80036; stroke-width: 1.25;"/><!--MD5=[dbf35797b0505fc189f4dcd27c16a5a3]
link all to logout--><path d="M261.2913,481.25 C292.2775,481.25 359.0313,481.25 403.45,481.25 " fill="none" id="all-&gt;logout" style="stroke: #A80036; stroke-width: 1.25;"/><polygon fill="#A80036" points="409.835,481.25,398.585,476.25,403.585,481.25,398.585,486.25,409.835,481.25" style="stroke: #A80036; stroke-width: 1.25;"/><!--MD5=[1ddc78d34687ec851de5f5eef2db62ed]
@startuml
left to right direction

package MechanicManagement {
:mechanic: - -|> :all:
:admin: - -|> :all:
:developer: - -|> :all:

:admin: - -|> :superUser:
:developer: - -|> :superUser:


:superUser: - -> (createMechanic)
:all: - -> (configMechanic)
:superUser: - -> (deleteMechanic)
:superUser: - -> (openMechanics)
:superUser: - -> (openOperations)
:all: - -> (login)
(login) ..> (openDashboard) : <<include>>
(signUp) ..> (openDashboard) : <<include>>
(configMechanic) ..> (openMechanics) : <<include>>
(createMechanic) ..> (openMechanics) : <<include>>
(deleteMechanic) ..> (openMechanics) : <<include>>
:all: - -> (signUp)
:all: - -> (logout)
}

@enduml

PlantUML version 1.2020.09(Sun May 10 12:51:06 CEST 2020)
(GPL source distribution)
Java Runtime: OpenJDK Runtime Environment
JVM: OpenJDK 64-Bit Server VM
Java Version: 11.0.8+10-b1094.1
Operating System: Windows 10
Default Encoding: Cp1252
Language: en
Country: GB
--></g></svg>