<?xml version="1.0" encoding="UTF-8" standalone="no"?><svg xmlns="http://www.w3.org/2000/svg" xmlns:xlink="http://www.w3.org/1999/xlink" contentScriptType="application/ecmascript" contentStyleType="text/css" height="422px" preserveAspectRatio="none" style="width:573px;height:422px;" version="1.1" viewBox="0 0 573 422" width="573px" zoomAndPan="magnify"><defs><filter height="300%" id="f10j30dghieesp" width="300%" x="-1" y="-1"><feGaussianBlur result="blurOut" stdDeviation="2.0"/><feColorMatrix in="blurOut" result="blurOut2" type="matrix" values="0 0 0 0 0 0 0 0 0 0 0 0 0 0 0 0 0 0 .4 0"/><feOffset dx="4.0" dy="4.0" in="blurOut2" result="blurOut3"/><feBlend in="SourceGraphic" in2="blurOut3" mode="normal"/></filter></defs><g><!--MD5=[175c4f6a097b92fe4254bb575a01a188]
cluster VehiclesManagement--><polygon fill="#FFFFFF" filter="url(#f10j30dghieesp)" points="22,24,179,24,186,47.6094,551,47.6094,551,410,22,410,22,24" style="stroke: #000000; stroke-width: 1.5;"/><line style="stroke: #000000; stroke-width: 1.5;" x1="22" x2="186" y1="47.6094" y2="47.6094"/><text fill="#000000" font-family="sans-serif" font-size="14" font-weight="bold" lengthAdjust="spacingAndGlyphs" textLength="151" x="26" y="40.5332">VehiclesManagement</text><!--MD5=[370f09de3b578360a6dfb01a48af8db0]
entity mechanic--><ellipse cx="68" cy="209" fill="#FEFECE" filter="url(#f10j30dghieesp)" rx="8" ry="8" style="stroke: #A80036; stroke-width: 1.5;"/><path d="M68,217 L68,244 M55,225 L81,225 M68,244 L55,259 M68,244 L81,259 " fill="none" filter="url(#f10j30dghieesp)" style="stroke: #A80036; stroke-width: 1.5;"/><text fill="#000000" font-family="sans-serif" font-size="14" lengthAdjust="spacingAndGlyphs" textLength="60" x="38" y="279.0332">mechanic</text><ellipse cx="225.3112" cy="377.9517" fill="#FEFECE" filter="url(#f10j30dghieesp)" rx="63.8112" ry="15.4517" style="stroke: #A80036; stroke-width: 1.5;"/><text fill="#000000" font-family="sans-serif" font-size="14" lengthAdjust="spacingAndGlyphs" textLength="86" x="182.3112" y="383.2564">createVehicle</text><ellipse cx="472.1041" cy="302.9517" fill="#FEFECE" filter="url(#f10j30dghieesp)" rx="63.1041" ry="15.4517" style="stroke: #A80036; stroke-width: 1.5;"/><text fill="#000000" font-family="sans-serif" font-size="14" lengthAdjust="spacingAndGlyphs" textLength="85" x="429.6041" y="308.2564">openVehicles</text><ellipse cx="225.4529" cy="274.0906" fill="#FEFECE" filter="url(#f10j30dghieesp)" rx="65.9529" ry="15.5906" style="stroke: #A80036; stroke-width: 1.5;"/><text fill="#000000" font-family="sans-serif" font-size="14" lengthAdjust="spacingAndGlyphs" textLength="90" x="180.4529" y="279.3953">updateVehicle</text><ellipse cx="225.6041" cy="207.9517" fill="#FEFECE" filter="url(#f10j30dghieesp)" rx="63.1041" ry="15.4517" style="stroke: #A80036; stroke-width: 1.5;"/><text fill="#000000" font-family="sans-serif" font-size="14" lengthAdjust="spacingAndGlyphs" textLength="85" x="183.1041" y="213.2564">deleteVehicle</text><ellipse cx="225.6543" cy="141.9517" fill="#FEFECE" filter="url(#f10j30dghieesp)" rx="58.1543" ry="15.4517" style="stroke: #A80036; stroke-width: 1.5;"/><text fill="#000000" font-family="sans-serif" font-size="14" lengthAdjust="spacingAndGlyphs" textLength="78" x="186.6543" y="147.2564">openVehicle</text><ellipse cx="225.6715" cy="76.2343" fill="#FEFECE" filter="url(#f10j30dghieesp)" rx="66.6715" ry="15.7343" style="stroke: #A80036; stroke-width: 1.5;"/><text fill="#000000" font-family="sans-serif" font-size="14" lengthAdjust="spacingAndGlyphs" textLength="92" x="179.6715" y="81.539">importVehicles</text><!--MD5=[2cceb8d4c90c75802c75335deb68649a]
link mechanic to createVehicle--><path d="M88.2689,282.866 C98.1334,300.743 111.556,320.73 128,335 C142.688,347.7464 161.764,357.3106 179.072,364.1421 " fill="none" id="mechanic-&gt;createVehicle" style="stroke: #A80036; stroke-width: 1.0;"/><polygon fill="#A80036" points="183.902,365.9969,176.9347,359.0358,179.2345,364.2041,174.0662,366.5039,183.902,365.9969" style="stroke: #A80036; stroke-width: 1.0;"/><!--MD5=[3f607717196b3a2260d020becec4fedb]
link createVehicle to openVehicles--><path d="M286.292,372.8931 C314.9,369.2728 349.305,363.1763 379,353 C402.463,344.9593 427.049,331.287 444.896,320.27 " fill="none" id="createVehicle-&gt;openVehicles" style="stroke: #A80036; stroke-width: 1.0; stroke-dasharray: 7.0,7.0;"/><polygon fill="#A80036" points="449.283,317.531,439.5301,318.9028,445.0413,320.1783,443.7658,325.6895,449.283,317.531" style="stroke: #A80036; stroke-width: 1.0;"/><text fill="#000000" font-family="sans-serif" font-size="13" lengthAdjust="spacingAndGlyphs" textLength="55" x="323" y="349.4951">«include»</text><!--MD5=[b42a2220ce5c69c61a2bb31a40e1085a]
link mechanic to updateVehicle--><path d="M98.2484,247.207 C118.618,251.53 146.383,257.422 170.688,262.58 " fill="none" id="mechanic-&gt;updateVehicle" style="stroke: #A80036; stroke-width: 1.0;"/><polygon fill="#A80036" points="175.819,263.669,167.846,257.887,170.928,262.6305,166.1845,265.7125,175.819,263.669" style="stroke: #A80036; stroke-width: 1.0;"/><!--MD5=[7e2d605f1ff9aeb1ccfbd2b193aad794]
link updateVehicle to openVehicles--><path d="M284.753,280.909 C322.468,285.383 371.499,291.198 409.786,295.739 " fill="none" id="updateVehicle-&gt;openVehicles" style="stroke: #A80036; stroke-width: 1.0; stroke-dasharray: 7.0,7.0;"/><polygon fill="#A80036" points="414.876,296.343,406.4094,291.3115,409.9108,295.7545,405.4677,299.2559,414.876,296.343" style="stroke: #A80036; stroke-width: 1.0;"/><text fill="#000000" font-family="sans-serif" font-size="13" lengthAdjust="spacingAndGlyphs" textLength="55" x="323" y="281.4951">«include»</text><!--MD5=[e80dc8ba5dfee233440fabac33a38210]
link mechanic to deleteVehicle--><path d="M98.2484,234.793 C119.029,230.383 147.505,224.34 172.154,219.109 " fill="none" id="mechanic-&gt;deleteVehicle" style="stroke: #A80036; stroke-width: 1.0;"/><polygon fill="#A80036" points="177.352,218.006,167.718,215.9598,172.4607,219.0431,169.3774,223.7858,177.352,218.006" style="stroke: #A80036; stroke-width: 1.0;"/><!--MD5=[fe212278d3871c867f2905c4fe764d2a]
link deleteVehicle to openVehicles--><path d="M266.484,219.888 C297.534,229.474 341.475,243.819 379,259 C399.403,267.254 421.685,277.867 439.209,286.602 " fill="none" id="deleteVehicle-&gt;openVehicles" style="stroke: #A80036; stroke-width: 1.0; stroke-dasharray: 7.0,7.0;"/><polygon fill="#A80036" points="444.021,289.012,437.7668,281.4038,439.5509,286.7719,434.1827,288.556,444.021,289.012" style="stroke: #A80036; stroke-width: 1.0;"/><text fill="#000000" font-family="sans-serif" font-size="13" lengthAdjust="spacingAndGlyphs" textLength="55" x="323" y="235.4951">«include»</text><!--MD5=[e214bca1a0be300b4517971577e73eee]
link mechanic to openVehicle--><path d="M98.1394,217.718 C115.353,204.458 137.853,187.958 159,175 C169.074,168.827 180.451,162.794 190.862,157.61 " fill="none" id="mechanic-&gt;openVehicle" style="stroke: #A80036; stroke-width: 1.0;"/><polygon fill="#A80036" points="195.569,155.29,185.7278,155.6794,191.0838,157.4997,189.2634,162.8557,195.569,155.29" style="stroke: #A80036; stroke-width: 1.0;"/><!--MD5=[d9cf9abf88139746714ac724389f09c4]
link mechanic to importVehicles--><path d="M90.0432,199.409 C105.9618,171.14 130.003,134.408 159,109 C166.819,102.149 176.312,96.311 185.616,91.538 " fill="none" id="mechanic-&gt;importVehicles" style="stroke: #A80036; stroke-width: 1.0;"/><polygon fill="#A80036" points="190.161,89.28,180.3213,89.7046,185.6837,91.5058,183.8825,96.8682,190.161,89.28" style="stroke: #A80036; stroke-width: 1.0;"/><!--MD5=[bd1c29278e3389376800abdba7439cdd]
link mechanic to openVehicles--><path d="M98.295,269.929 C114.689,284.059 136.35,299.585 159,307 C246.255,335.5649 354.729,324.554 418.081,313.849 " fill="none" id="mechanic-&gt;openVehicles" style="stroke: #A80036; stroke-width: 1.0;"/><polygon fill="#A80036" points="423.315,312.948,413.7668,310.5331,418.3875,313.7964,415.1242,318.4171,423.315,312.948" style="stroke: #A80036; stroke-width: 1.0;"/><!--MD5=[51786943f26e543556d1f0111c96b4b1]
@startuml

left to right direction


package VehiclesManagement {
:mechanic: - -> (createVehicle)
(createVehicle) ..> (openVehicles) :<<include>>
:mechanic: - -> (updateVehicle)
(updateVehicle) ..> (openVehicles) : <<include>>
:mechanic: - -> (deleteVehicle)
(deleteVehicle) ..> (openVehicles) : <<include>>
:mechanic: - -> (openVehicle)
:mechanic: - -> (importVehicles)
:mechanic: - -> (openVehicles)
}

@enduml

PlantUML version 1.2020.09(Sun May 10 12:51:06 CEST 2020)
(GPL source distribution)
Java Runtime: OpenJDK Runtime Environment
JVM: OpenJDK 64-Bit Server VM
Java Version: 11.0.6+8-b765.25
Operating System: Windows 10
Default Encoding: Cp1252
Language: en
Country: GB
--></g></svg>