<?xml version="1.0" encoding="UTF-8" standalone="no"?><svg xmlns="http://www.w3.org/2000/svg" xmlns:xlink="http://www.w3.org/1999/xlink" contentScriptType="application/ecmascript" contentStyleType="text/css" height="510px" preserveAspectRatio="none" style="width:877px;height:510px;" version="1.1" viewBox="0 0 877 510" width="877.5px" zoomAndPan="magnify"><defs><filter height="300%" id="fj1r9wx0mx5vf" width="300%" x="-1" y="-1"><feGaussianBlur result="blurOut" stdDeviation="2.5"/><feColorMatrix in="blurOut" result="blurOut2" type="matrix" values="0 0 0 0 0 0 0 0 0 0 0 0 0 0 0 0 0 0 .4 0"/><feOffset dx="5.0" dy="5.0" in="blurOut2" result="blurOut3"/><feBlend in="SourceGraphic" in2="blurOut3" mode="normal"/></filter></defs><g><!--MD5=[175c4f6a097b92fe4254bb575a01a188]
cluster VehiclesManagement--><polygon fill="#FFFFFF" filter="url(#fj1r9wx0mx5vf)" points="27.5,30,223.75,30,232.5,59.5117,850,59.5117,850,495,27.5,495,27.5,30" style="stroke: #000000; stroke-width: 1.875;"/><line style="stroke: #000000; stroke-width: 1.875;" x1="27.5" x2="232.5" y1="59.5117" y2="59.5117"/><text fill="#000000" font-family="sans-serif" font-size="17.5" font-weight="bold" lengthAdjust="spacingAndGlyphs" textLength="188.75" x="32.5" y="50.6665">VehiclesManagement</text><!--MD5=[370f09de3b578360a6dfb01a48af8db0]
entity mechanic--><ellipse cx="86.875" cy="382.5" fill="#FEFECE" filter="url(#fj1r9wx0mx5vf)" rx="10" ry="10" style="stroke: #A80036; stroke-width: 1.875;"/><path d="M86.875,392.5 L86.875,426.25 M70.625,402.5 L103.125,402.5 M86.875,426.25 L70.625,445 M86.875,426.25 L103.125,445 " fill="none" filter="url(#fj1r9wx0mx5vf)" style="stroke: #A80036; stroke-width: 1.875;"/><text fill="#000000" font-family="sans-serif" font-size="17.5" lengthAdjust="spacingAndGlyphs" textLength="75" x="49.375" y="470.0415">mechanic</text><!--MD5=[966c1203244200a41ac5fc270e79b5ef]
entity all--><ellipse cx="243.125" cy="261.25" fill="#FEFECE" filter="url(#fj1r9wx0mx5vf)" rx="10" ry="10" style="stroke: #A80036; stroke-width: 1.875;"/><path d="M243.125,271.25 L243.125,305 M226.875,281.25 L259.375,281.25 M243.125,305 L226.875,323.75 M243.125,305 L259.375,323.75 " fill="none" filter="url(#fj1r9wx0mx5vf)" style="stroke: #A80036; stroke-width: 1.875;"/><text fill="#000000" font-family="sans-serif" font-size="17.5" lengthAdjust="spacingAndGlyphs" textLength="17.5" x="234.375" y="348.7915">all</text><!--MD5=[79a439086b036a57b90a01d7b2f8bbd1]
entity admin--><ellipse cx="86.875" cy="235" fill="#FEFECE" filter="url(#fj1r9wx0mx5vf)" rx="10" ry="10" style="stroke: #A80036; stroke-width: 1.875;"/><path d="M86.875,245 L86.875,278.75 M70.625,255 L103.125,255 M86.875,278.75 L70.625,297.5 M86.875,278.75 L103.125,297.5 " fill="none" filter="url(#fj1r9wx0mx5vf)" style="stroke: #A80036; stroke-width: 1.875;"/><text fill="#000000" font-family="sans-serif" font-size="17.5" lengthAdjust="spacingAndGlyphs" textLength="47.5" x="63.125" y="322.5415">admin</text><!--MD5=[23e4898078453906b079a6bea7d1245c]
entity developer--><ellipse cx="86.875" cy="87.5" fill="#FEFECE" filter="url(#fj1r9wx0mx5vf)" rx="10" ry="10" style="stroke: #A80036; stroke-width: 1.875;"/><path d="M86.875,97.5 L86.875,131.25 M70.625,107.5 L103.125,107.5 M86.875,131.25 L70.625,150 M86.875,131.25 L103.125,150 " fill="none" filter="url(#fj1r9wx0mx5vf)" style="stroke: #A80036; stroke-width: 1.875;"/><text fill="#000000" font-family="sans-serif" font-size="17.5" lengthAdjust="spacingAndGlyphs" textLength="78.75" x="47.5" y="175.0415">developer</text><!--MD5=[35b5e21611523c4fc71f059dcedd152e]
entity superUser--><ellipse cx="243.125" cy="106.25" fill="#FEFECE" filter="url(#fj1r9wx0mx5vf)" rx="10" ry="10" style="stroke: #A80036; stroke-width: 1.875;"/><path d="M243.125,116.25 L243.125,150 M226.875,126.25 L259.375,126.25 M243.125,150 L226.875,168.75 M243.125,150 L259.375,168.75 " fill="none" filter="url(#fj1r9wx0mx5vf)" style="stroke: #A80036; stroke-width: 1.875;"/><text fill="#000000" font-family="sans-serif" font-size="17.5" lengthAdjust="spacingAndGlyphs" textLength="81.25" x="202.5" y="193.7915">superUser</text><ellipse cx="442.889" cy="307.4396" fill="#FEFECE" filter="url(#fj1r9wx0mx5vf)" rx="79.764" ry="19.3146" style="stroke: #A80036; stroke-width: 1.875;"/><text fill="#000000" font-family="sans-serif" font-size="17.5" lengthAdjust="spacingAndGlyphs" textLength="107.5" x="389.139" y="314.0705">createVehicle</text><ellipse cx="751.3801" cy="242.4396" fill="#FEFECE" filter="url(#fj1r9wx0mx5vf)" rx="78.8801" ry="19.3146" style="stroke: #A80036; stroke-width: 1.875;"/><text fill="#000000" font-family="sans-serif" font-size="17.5" lengthAdjust="spacingAndGlyphs" textLength="106.25" x="698.2551" y="249.0705">openVehicles</text><ellipse cx="442.9962" cy="389.9396" fill="#FEFECE" filter="url(#fj1r9wx0mx5vf)" rx="77.9962" ry="19.3146" style="stroke: #A80036; stroke-width: 1.875;"/><text fill="#000000" font-family="sans-serif" font-size="17.5" lengthAdjust="spacingAndGlyphs" textLength="105" x="390.4962" y="396.5705">configVehicle</text><ellipse cx="443.2551" cy="177.4396" fill="#FEFECE" filter="url(#fj1r9wx0mx5vf)" rx="78.8801" ry="19.3146" style="stroke: #A80036; stroke-width: 1.875;"/><text fill="#000000" font-family="sans-serif" font-size="17.5" lengthAdjust="spacingAndGlyphs" textLength="106.25" x="390.1301" y="184.0705">deleteVehicle</text><ellipse cx="443.3394" cy="95.2929" fill="#FEFECE" filter="url(#fj1r9wx0mx5vf)" rx="83.3394" ry="19.6679" style="stroke: #A80036; stroke-width: 1.875;"/><text fill="#000000" font-family="sans-serif" font-size="17.5" lengthAdjust="spacingAndGlyphs" textLength="115" x="385.8394" y="101.9237">importVehicles</text><!--MD5=[76d6334b0b02588446ff6e8faa1d31ca]
link mechanic to all--><path d="M124.5616,393.7655 C148.765,374.6775 180.445,349.695 204.7825,330.5013 " fill="none" id="mechanic-&gt;all" style="stroke: #A80036; stroke-width: 1.25;"/><polygon fill="none" points="199.595,323.4488,224.6438,314.8388,210.4313,337.19,199.595,323.4488" style="stroke: #A80036; stroke-width: 1.25;"/><!--MD5=[632e2529caf45198b4e96a956cde6a86]
link admin to all--><path d="M110.8114,278.8738 C134.2375,282.8725 171.325,289.205 200.0775,294.1138 " fill="none" id="admin-&gt;all" style="stroke: #A80036; stroke-width: 1.25;"/><polygon fill="none" points="201.635,285.5025,224.8063,298.3363,198.69,302.7538,201.635,285.5025" style="stroke: #A80036; stroke-width: 1.25;"/><!--MD5=[1fd893bffd749a7bbba672877dd4c8d4]
link developer to all--><path d="M126.526,170.8962 C151.4937,199.1112 183.7563,235.5713 207.81,262.7538 " fill="none" id="developer-&gt;all" style="stroke: #A80036; stroke-width: 1.25;"/><polygon fill="none" points="214.6813,257.315,224.6963,281.8363,201.5763,268.9125,214.6813,257.315" style="stroke: #A80036; stroke-width: 1.25;"/><!--MD5=[6642bac34abdd241a43dd2c06501691e]
link admin to superUser--><path d="M110.8114,256.0025 C129.7939,240.1063 157.745,216.7 182.965,195.5813 " fill="none" id="admin-&gt;superUser" style="stroke: #A80036; stroke-width: 1.25;"/><polygon fill="none" points="177.595,188.665,202.38,179.3225,188.8313,202.0812,177.595,188.665" style="stroke: #A80036; stroke-width: 1.25;"/><!--MD5=[b73b3952ca94ed8495d7c3f47034ee61]
link developer to superUser--><path d="M126.526,132.1825 C141.8825,134.0563 160,136.265 177.2688,138.3713 " fill="none" id="developer-&gt;superUser" style="stroke: #A80036; stroke-width: 1.25;"/><polygon fill="none" points="178.6013,129.7187,202.3588,141.4312,176.4838,147.09,178.6013,129.7187" style="stroke: #A80036; stroke-width: 1.25;"/><!--MD5=[90f0650a4fa62543a6037f2baa00f126]
link all to createVehicle--><path d="M261.5563,301.7938 C283.025,302.4725 321.3063,303.685 357.0913,304.8175 " fill="none" id="all-&gt;createVehicle" style="stroke: #A80036; stroke-width: 1.25;"/><polygon fill="#A80036" points="363.7388,305.0275,352.653,299.6732,357.4919,304.8293,352.3358,309.6682,363.7388,305.0275" style="stroke: #A80036; stroke-width: 1.25;"/><!--MD5=[3f607717196b3a2260d020becec4fedb]
link createVehicle to openVehicles--><path d="M513.5938,298.2463 C549.945,292.8613 595.1075,285.3375 635,276.25 C655.2325,271.6413 677.1525,265.5013 696.3763,259.7225 " fill="none" id="createVehicle-&gt;openVehicles" style="stroke: #A80036; stroke-width: 1.25; stroke-dasharray: 7.0,7.0;"/><polygon fill="#A80036" points="702.7863,257.78,690.5696,256.258,696.8049,259.5928,693.4701,265.8281,702.7863,257.78" style="stroke: #A80036; stroke-width: 1.25;"/><text fill="#000000" font-family="sans-serif" font-size="16.25" lengthAdjust="spacingAndGlyphs" textLength="68.75" x="565" y="271.8689">«include»</text><!--MD5=[731af7357bcfc6e5d46af80a7a194cfe]
link all to configVehicle--><path d="M261.5563,308.9713 C291.7012,322.5163 354.9913,350.9575 397.975,370.2725 " fill="none" id="all-&gt;configVehicle" style="stroke: #A80036; stroke-width: 1.25;"/><polygon fill="#A80036" points="404.1625,373.0538,395.9519,363.8805,398.4621,370.4911,391.8515,373.0012,404.1625,373.0538" style="stroke: #A80036; stroke-width: 1.25;"/><!--MD5=[92c6cbcf6cf42713a8c248e01b5e5a5a]
link configVehicle to openVehicles--><path d="M495.2025,375.5475 C534.47,363.47 589.595,344.5025 635,321.25 C666.1725,305.2863 698.8563,282.2013 721.3775,265.15 " fill="none" id="configVehicle-&gt;openVehicles" style="stroke: #A80036; stroke-width: 1.25; stroke-dasharray: 7.0,7.0;"/><polygon fill="#A80036" points="726.8775,260.9538,714.9009,263.8038,721.909,264.7453,720.9674,271.7534,726.8775,260.9538" style="stroke: #A80036; stroke-width: 1.25;"/><text fill="#000000" font-family="sans-serif" font-size="16.25" lengthAdjust="spacingAndGlyphs" textLength="68.75" x="565" y="316.8689">«include»</text><!--MD5=[4c57679c3ff8d40fe0ba7b1ef4e19bf8]
link superUser to deleteVehicle--><path d="M283.8675,152.4988 C308.4613,156.39 340.8362,161.5125 369.875,166.1075 " fill="none" id="superUser-&gt;deleteVehicle" style="stroke: #A80036; stroke-width: 1.25;"/><polygon fill="#A80036" points="376.4013,167.14,366.0709,160.4432,370.2281,166.1632,364.5081,170.3203,376.4013,167.14" style="stroke: #A80036; stroke-width: 1.25;"/><!--MD5=[fe212278d3871c867f2905c4fe764d2a]
link deleteVehicle to openVehicles--><path d="M503.3025,190.0325 C555.2463,201.08 630.82,217.1525 684.6125,228.5938 " fill="none" id="deleteVehicle-&gt;openVehicles" style="stroke: #A80036; stroke-width: 1.25; stroke-dasharray: 7.0,7.0;"/><polygon fill="#A80036" points="690.7325,229.895,680.7703,222.6619,684.6195,228.5935,678.6879,232.4427,690.7325,229.895" style="stroke: #A80036; stroke-width: 1.25;"/><text fill="#000000" font-family="sans-serif" font-size="16.25" lengthAdjust="spacingAndGlyphs" textLength="68.75" x="565" y="200.6189">«include»</text><!--MD5=[99197ce2ef198f6fc5bc8b9b14d81c1e]
link superUser to importVehicles--><path d="M283.8675,136.0025 C311.5175,128.8275 349.0025,119.1 380.5237,110.92 " fill="none" id="superUser-&gt;importVehicles" style="stroke: #A80036; stroke-width: 1.25;"/><polygon fill="#A80036" points="386.7438,109.3062,374.5981,107.2951,380.6945,110.8775,377.1121,116.9739,386.7438,109.3062" style="stroke: #A80036; stroke-width: 1.25;"/><!--MD5=[2274c6ddfa7a17e1988f4ff4ef04a03d]
link all to openVehicles--><path d="M261.3338,294.8963 C283.625,286.83 324.1613,273.135 360,266.25 C463.9938,246.2713 586.1838,241.8263 665.705,241.4 " fill="none" id="all-&gt;openVehicles" style="stroke: #A80036; stroke-width: 1.25;"/><polygon fill="#A80036" points="672.3087,241.3737,661.0388,236.4188,666.0588,241.3987,661.0788,246.4187,672.3087,241.3737" style="stroke: #A80036; stroke-width: 1.25;"/><!--MD5=[f5512a26e0dde49bb93cde4daf791709]
link importVehicles to openVehicles--><path d="M489.9575,111.1738 C529.155,125.635 586.8188,148.2388 635,172.5 C663.675,186.9387 694.6863,206.0363 717.2713,220.635 " fill="none" id="importVehicles-&gt;openVehicles" style="stroke: #A80036; stroke-width: 1.25; stroke-dasharray: 7.0,7.0;"/><polygon fill="#A80036" points="722.825,224.245,716.1172,213.9218,717.5846,220.8389,710.6675,222.3064,722.825,224.245" style="stroke: #A80036; stroke-width: 1.25;"/><text fill="#000000" font-family="sans-serif" font-size="16.25" lengthAdjust="spacingAndGlyphs" textLength="68.75" x="565" y="138.1189">«include»</text><!--MD5=[3fa73bbcfe25711bdb9efef5d0edb563]
@startuml

left to right direction


package VehiclesManagement {
:mechanic: - -|> :all:
:admin: - -|> :all:
:developer: - -|> :all:

:admin: - -|> :superUser:
:developer: - -|> :superUser:

:all: - -> (createVehicle)
(createVehicle) ..> (openVehicles) :<<include>>
:all: - -> (configVehicle)
(configVehicle) ..> (openVehicles) : <<include>>
:superUser: - -> (deleteVehicle)
(deleteVehicle) ..> (openVehicles) : <<include>>
:superUser: - -> (importVehicles)
:all: - -> (openVehicles)
(importVehicles) ..> (openVehicles) : <<include>>

}

@enduml

PlantUML version 1.2020.09(Sun May 10 12:51:06 CEST 2020)
(GPL source distribution)
Java Runtime: OpenJDK Runtime Environment
JVM: OpenJDK 64-Bit Server VM
Java Version: 11.0.8+10-b1094.1
Operating System: Windows 10
Default Encoding: Cp1252
Language: en
Country: GB
--></g></svg>