<?xml version="1.0" encoding="UTF-8" standalone="no"?><svg xmlns="http://www.w3.org/2000/svg" xmlns:xlink="http://www.w3.org/1999/xlink" contentScriptType="application/ecmascript" contentStyleType="text/css" height="371.25px" preserveAspectRatio="none" style="width:223px;height:371px;" version="1.1" viewBox="0 0 223 371" width="223.75px" zoomAndPan="magnify"><defs><filter height="300%" id="f17g2id43mmp5a" width="300%" x="-1" y="-1"><feGaussianBlur result="blurOut" stdDeviation="2.5"/><feColorMatrix in="blurOut" result="blurOut2" type="matrix" values="0 0 0 0 0 0 0 0 0 0 0 0 0 0 0 0 0 0 .4 0"/><feOffset dx="5.0" dy="5.0" in="blurOut2" result="blurOut3"/><feBlend in="SourceGraphic" in2="blurOut3" mode="normal"/></filter></defs><g><!--MD5=[fc034e8661e1d99469ca7885388ee1f3]
class ConfigVehicleController--><rect fill="#FEFECE" filter="url(#f17g2id43mmp5a)" height="77.2949" id="ConfigVehicleController" style="stroke: #A80036; stroke-width: 1.875;" width="202.5" x="7.5" y="145"/><ellipse cx="26.25" cy="165" fill="#ADD1B2" rx="13.75" ry="13.75" style="stroke: #A80036; stroke-width: 1.25;"/><path d="M28.75,160.625 Q29.0039,160 29.2969,159.6875 Q29.5898,159.375 29.9219,159.375 Q30.5078,159.375 30.8789,159.7266 Q31.25,160.0781 31.25,160.8984 L31.25,162.8516 Q31.25,163.6719 30.8984,164.0234 Q30.5469,164.375 30,164.375 Q29.5117,164.375 29.1992,164.1602 Q28.8867,163.9453 28.75,163.3789 Q28.6914,162.9883 28.4766,162.7734 Q28.0859,162.3633 27.3828,162.1289 Q26.6797,161.875 25.9766,161.875 Q25.0977,161.875 24.3555,162.2266 Q23.6328,162.5781 23.0664,163.3594 Q22.5,164.1406 22.5,165.2148 L22.5,166.3672 Q22.5,167.6563 23.5547,168.5156 Q24.6094,169.375 26.4844,169.375 Q27.5977,169.375 28.3789,169.1211 Q28.8281,168.9844 29.3359,168.5352 Q29.668,168.2813 29.8438,168.2031 Q30.0195,168.125 30.2344,168.125 Q30.6445,168.125 30.9375,168.457 Q31.25,168.7695 31.25,169.2188 Q31.25,169.6484 30.8203,170.1563 Q30.1953,170.8984 29.1992,171.3086 Q27.8906,171.875 26.2891,171.875 Q24.4141,171.875 22.9102,171.1328 Q21.6992,170.5469 20.8398,169.2773 Q20,168.0078 20,166.5039 L20,165.1367 Q20,163.5742 20.7422,162.207 Q21.5039,160.8398 22.8125,160.1172 Q24.1406,159.375 25.625,159.375 Q26.5234,159.375 27.3047,159.6875 Q28.0859,160 28.75,160.625 Z "/><text fill="#000000" font-family="sans-serif" font-size="15" lengthAdjust="spacingAndGlyphs" textLength="162.5" x="43.75" y="171.1377">ConfigVehicleController</text><line style="stroke: #A80036; stroke-width: 1.875;" x1="8.75" x2="208.75" y1="185" y2="185"/><line style="stroke: #A80036; stroke-width: 1.875;" x1="8.75" x2="208.75" y1="195" y2="195"/><ellipse cx="21.25" cy="208.75" fill="#84BE84" rx="3.75" ry="3.75" style="stroke: #038048; stroke-width: 1.25;"/><text fill="#000000" font-family="sans-serif" font-size="13.75" lengthAdjust="spacingAndGlyphs" textLength="82.5" x="32.5" y="214.2737">save(vehicle)</text><!--MD5=[a39ad64172e37f40d93cf41979371d42]
class VehiclesDao--><rect fill="#FEFECE" filter="url(#f17g2id43mmp5a)" height="60" id="VehiclesDao" style="stroke: #A80036; stroke-width: 1.875;" width="127.5" x="45" y="297.5"/><ellipse cx="63.75" cy="317.5" fill="#ADD1B2" rx="13.75" ry="13.75" style="stroke: #A80036; stroke-width: 1.25;"/><path d="M66.25,313.125 Q66.5039,312.5 66.7969,312.1875 Q67.0898,311.875 67.4219,311.875 Q68.0078,311.875 68.3789,312.2266 Q68.75,312.5781 68.75,313.3984 L68.75,315.3516 Q68.75,316.1719 68.3984,316.5234 Q68.0469,316.875 67.5,316.875 Q67.0117,316.875 66.6992,316.6602 Q66.3867,316.4453 66.25,315.8789 Q66.1914,315.4883 65.9766,315.2734 Q65.5859,314.8633 64.8828,314.6289 Q64.1797,314.375 63.4766,314.375 Q62.5977,314.375 61.8555,314.7266 Q61.1328,315.0781 60.5664,315.8594 Q60,316.6406 60,317.7148 L60,318.8672 Q60,320.1563 61.0547,321.0156 Q62.1094,321.875 63.9844,321.875 Q65.0977,321.875 65.8789,321.6211 Q66.3281,321.4844 66.8359,321.0352 Q67.168,320.7813 67.3438,320.7031 Q67.5195,320.625 67.7344,320.625 Q68.1445,320.625 68.4375,320.957 Q68.75,321.2695 68.75,321.7188 Q68.75,322.1484 68.3203,322.6563 Q67.6953,323.3984 66.6992,323.8086 Q65.3906,324.375 63.7891,324.375 Q61.9141,324.375 60.4102,323.6328 Q59.1992,323.0469 58.3398,321.7773 Q57.5,320.5078 57.5,319.0039 L57.5,317.6367 Q57.5,316.0742 58.2422,314.707 Q59.0039,313.3398 60.3125,312.6172 Q61.6406,311.875 63.125,311.875 Q64.0234,311.875 64.8047,312.1875 Q65.5859,312.5 66.25,313.125 Z "/><text fill="#000000" font-family="sans-serif" font-size="15" lengthAdjust="spacingAndGlyphs" textLength="87.5" x="81.25" y="323.6377">VehiclesDao</text><line style="stroke: #A80036; stroke-width: 1.875;" x1="46.25" x2="171.25" y1="337.5" y2="337.5"/><line style="stroke: #A80036; stroke-width: 1.875;" x1="46.25" x2="171.25" y1="347.5" y2="347.5"/><!--MD5=[9e0c71a3125094596f70bfdc08b8bc9b]
class ConfigVehicleView--><rect fill="#FEFECE" filter="url(#f17g2id43mmp5a)" height="60" id="ConfigVehicleView" style="stroke: #A80036; stroke-width: 1.875;" width="167.5" x="25" y="10"/><ellipse cx="43.75" cy="30" fill="#ADD1B2" rx="13.75" ry="13.75" style="stroke: #A80036; stroke-width: 1.25;"/><path d="M46.25,25.625 Q46.5039,25 46.7969,24.6875 Q47.0898,24.375 47.4219,24.375 Q48.0078,24.375 48.3789,24.7266 Q48.75,25.0781 48.75,25.8984 L48.75,27.8516 Q48.75,28.6719 48.3984,29.0234 Q48.0469,29.375 47.5,29.375 Q47.0117,29.375 46.6992,29.1602 Q46.3867,28.9453 46.25,28.3789 Q46.1914,27.9883 45.9766,27.7734 Q45.5859,27.3633 44.8828,27.1289 Q44.1797,26.875 43.4766,26.875 Q42.5977,26.875 41.8555,27.2266 Q41.1328,27.5781 40.5664,28.3594 Q40,29.1406 40,30.2148 L40,31.3672 Q40,32.6563 41.0547,33.5156 Q42.1094,34.375 43.9844,34.375 Q45.0977,34.375 45.8789,34.1211 Q46.3281,33.9844 46.8359,33.5352 Q47.168,33.2813 47.3438,33.2031 Q47.5195,33.125 47.7344,33.125 Q48.1445,33.125 48.4375,33.457 Q48.75,33.7695 48.75,34.2188 Q48.75,34.6484 48.3203,35.1563 Q47.6953,35.8984 46.6992,36.3086 Q45.3906,36.875 43.7891,36.875 Q41.9141,36.875 40.4102,36.1328 Q39.1992,35.5469 38.3398,34.2773 Q37.5,33.0078 37.5,31.5039 L37.5,30.1367 Q37.5,28.5742 38.2422,27.207 Q39.0039,25.8398 40.3125,25.1172 Q41.6406,24.375 43.125,24.375 Q44.0234,24.375 44.8047,24.6875 Q45.5859,25 46.25,25.625 Z "/><text fill="#000000" font-family="sans-serif" font-size="15" lengthAdjust="spacingAndGlyphs" textLength="127.5" x="61.25" y="36.1377">ConfigVehicleView</text><line style="stroke: #A80036; stroke-width: 1.875;" x1="26.25" x2="191.25" y1="50" y2="50"/><line style="stroke: #A80036; stroke-width: 1.875;" x1="26.25" x2="191.25" y1="60" y2="60"/><!--MD5=[99bb9e152866dab488dc384582750592]
link ConfigVehicleController to VehiclesDao--><path d="M108.75,222.8525 C108.75,243.8503 108.75,269.8144 108.75,290.4713 " fill="none" id="ConfigVehicleController-&gt;VehiclesDao" style="stroke: #A80036; stroke-width: 1.25;"/><polygon fill="#A80036" points="108.75,297.2584,113.75,286.0084,108.75,291.0084,103.75,286.0084,108.75,297.2584" style="stroke: #A80036; stroke-width: 1.25;"/><!--MD5=[428626b4e90d4a096408b7f2eb43deae]
link ConfigVehicleView to ConfigVehicleController--><path d="M108.75,70.175 C108.75,89.6313 108.75,115.6662 108.75,137.7725 " fill="none" id="ConfigVehicleView-&gt;ConfigVehicleController" style="stroke: #A80036; stroke-width: 1.25;"/><polygon fill="#A80036" points="108.75,144.495,113.75,133.245,108.75,138.245,103.75,133.245,108.75,144.495" style="stroke: #A80036; stroke-width: 1.25;"/><!--MD5=[228308e0ed61620a282a26aca8fcd7db]
@startuml
	class ConfigVehicleController {
	+save(vehicle)
	}

	ConfigVehicleController - -> VehiclesDao
	ConfigVehicleView - -> ConfigVehicleController
@enduml

PlantUML version 1.2020.09(Sun May 10 12:51:06 CEST 2020)
(GPL source distribution)
Java Runtime: OpenJDK Runtime Environment
JVM: OpenJDK 64-Bit Server VM
Java Version: 11.0.8+10-b1094.1
Operating System: Windows 10
Default Encoding: Cp1252
Language: en
Country: GB
--></g></svg>