<?xml version="1.0" encoding="UTF-8" standalone="no"?><svg xmlns="http://www.w3.org/2000/svg" xmlns:xlink="http://www.w3.org/1999/xlink" contentScriptType="application/ecmascript" contentStyleType="text/css" height="388.75px" preserveAspectRatio="none" style="width:310px;height:388px;" version="1.1" viewBox="0 0 310 388" width="310px" zoomAndPan="magnify"><defs><filter height="300%" id="f8cqfntcl7bw9" width="300%" x="-1" y="-1"><feGaussianBlur result="blurOut" stdDeviation="2.5"/><feColorMatrix in="blurOut" result="blurOut2" type="matrix" values="0 0 0 0 0 0 0 0 0 0 0 0 0 0 0 0 0 0 .4 0"/><feOffset dx="5.0" dy="5.0" in="blurOut2" result="blurOut3"/><feBlend in="SourceGraphic" in2="blurOut3" mode="normal"/></filter></defs><g><!--MD5=[b91ba1baef5d10b77f32375464f8b740]
class ConfigClientController--><rect fill="#FEFECE" filter="url(#f8cqfntcl7bw9)" height="94.5898" id="ConfigClientController" style="stroke: #A80036; stroke-width: 1.875;" width="192.5" x="57.5" y="145"/><ellipse cx="76.25" cy="165" fill="#ADD1B2" rx="13.75" ry="13.75" style="stroke: #A80036; stroke-width: 1.25;"/><path d="M78.75,160.625 Q79.0039,160 79.2969,159.6875 Q79.5898,159.375 79.9219,159.375 Q80.5078,159.375 80.8789,159.7266 Q81.25,160.0781 81.25,160.8984 L81.25,162.8516 Q81.25,163.6719 80.8984,164.0234 Q80.5469,164.375 80,164.375 Q79.5117,164.375 79.1992,164.1602 Q78.8867,163.9453 78.75,163.3789 Q78.6914,162.9883 78.4766,162.7734 Q78.0859,162.3633 77.3828,162.1289 Q76.6797,161.875 75.9766,161.875 Q75.0977,161.875 74.3555,162.2266 Q73.6328,162.5781 73.0664,163.3594 Q72.5,164.1406 72.5,165.2148 L72.5,166.3672 Q72.5,167.6563 73.5547,168.5156 Q74.6094,169.375 76.4844,169.375 Q77.5977,169.375 78.3789,169.1211 Q78.8281,168.9844 79.3359,168.5352 Q79.668,168.2813 79.8438,168.2031 Q80.0195,168.125 80.2344,168.125 Q80.6445,168.125 80.9375,168.457 Q81.25,168.7695 81.25,169.2188 Q81.25,169.6484 80.8203,170.1563 Q80.1953,170.8984 79.1992,171.3086 Q77.8906,171.875 76.2891,171.875 Q74.4141,171.875 72.9102,171.1328 Q71.6992,170.5469 70.8398,169.2773 Q70,168.0078 70,166.5039 L70,165.1367 Q70,163.5742 70.7422,162.207 Q71.5039,160.8398 72.8125,160.1172 Q74.1406,159.375 75.625,159.375 Q76.5234,159.375 77.3047,159.6875 Q78.0859,160 78.75,160.625 Z "/><text fill="#000000" font-family="sans-serif" font-size="15" lengthAdjust="spacingAndGlyphs" textLength="152.5" x="93.75" y="171.1377">ConfigClientController</text><line style="stroke: #A80036; stroke-width: 1.875;" x1="58.75" x2="248.75" y1="185" y2="185"/><line style="stroke: #A80036; stroke-width: 1.875;" x1="58.75" x2="248.75" y1="195" y2="195"/><ellipse cx="71.25" cy="208.75" fill="#84BE84" rx="3.75" ry="3.75" style="stroke: #038048; stroke-width: 1.25;"/><text fill="#000000" font-family="sans-serif" font-size="13.75" lengthAdjust="spacingAndGlyphs" textLength="71.25" x="82.5" y="214.2737">save(client)</text><ellipse cx="71.25" cy="226.0449" fill="#84BE84" rx="3.75" ry="3.75" style="stroke: #038048; stroke-width: 1.25;"/><text fill="#000000" font-family="sans-serif" font-size="13.75" lengthAdjust="spacingAndGlyphs" textLength="131.25" x="82.5" y="231.5686">readVehicles(clientId)</text><!--MD5=[a39ad64172e37f40d93cf41979371d42]
class VehiclesDao--><rect fill="#FEFECE" filter="url(#f8cqfntcl7bw9)" height="60" id="VehiclesDao" style="stroke: #A80036; stroke-width: 1.875;" width="127.5" x="7.5" y="315"/><ellipse cx="26.25" cy="335" fill="#ADD1B2" rx="13.75" ry="13.75" style="stroke: #A80036; stroke-width: 1.25;"/><path d="M28.75,330.625 Q29.0039,330 29.2969,329.6875 Q29.5898,329.375 29.9219,329.375 Q30.5078,329.375 30.8789,329.7266 Q31.25,330.0781 31.25,330.8984 L31.25,332.8516 Q31.25,333.6719 30.8984,334.0234 Q30.5469,334.375 30,334.375 Q29.5117,334.375 29.1992,334.1602 Q28.8867,333.9453 28.75,333.3789 Q28.6914,332.9883 28.4766,332.7734 Q28.0859,332.3633 27.3828,332.1289 Q26.6797,331.875 25.9766,331.875 Q25.0977,331.875 24.3555,332.2266 Q23.6328,332.5781 23.0664,333.3594 Q22.5,334.1406 22.5,335.2148 L22.5,336.3672 Q22.5,337.6563 23.5547,338.5156 Q24.6094,339.375 26.4844,339.375 Q27.5977,339.375 28.3789,339.1211 Q28.8281,338.9844 29.3359,338.5352 Q29.668,338.2813 29.8438,338.2031 Q30.0195,338.125 30.2344,338.125 Q30.6445,338.125 30.9375,338.457 Q31.25,338.7695 31.25,339.2188 Q31.25,339.6484 30.8203,340.1563 Q30.1953,340.8984 29.1992,341.3086 Q27.8906,341.875 26.2891,341.875 Q24.4141,341.875 22.9102,341.1328 Q21.6992,340.5469 20.8398,339.2773 Q20,338.0078 20,336.5039 L20,335.1367 Q20,333.5742 20.7422,332.207 Q21.5039,330.8398 22.8125,330.1172 Q24.1406,329.375 25.625,329.375 Q26.5234,329.375 27.3047,329.6875 Q28.0859,330 28.75,330.625 Z "/><text fill="#000000" font-family="sans-serif" font-size="15" lengthAdjust="spacingAndGlyphs" textLength="87.5" x="43.75" y="341.1377">VehiclesDao</text><line style="stroke: #A80036; stroke-width: 1.875;" x1="8.75" x2="133.75" y1="355" y2="355"/><line style="stroke: #A80036; stroke-width: 1.875;" x1="8.75" x2="133.75" y1="365" y2="365"/><!--MD5=[bec60ffd6aff97f42f6f937250fbd8b4]
class ClientsDao--><rect fill="#FEFECE" filter="url(#f8cqfntcl7bw9)" height="60" id="ClientsDao" style="stroke: #A80036; stroke-width: 1.875;" width="117.5" x="178.75" y="315"/><ellipse cx="197.5" cy="335" fill="#ADD1B2" rx="13.75" ry="13.75" style="stroke: #A80036; stroke-width: 1.25;"/><path d="M200,330.625 Q200.2539,330 200.5469,329.6875 Q200.8398,329.375 201.1719,329.375 Q201.7578,329.375 202.1289,329.7266 Q202.5,330.0781 202.5,330.8984 L202.5,332.8516 Q202.5,333.6719 202.1484,334.0234 Q201.7969,334.375 201.25,334.375 Q200.7617,334.375 200.4492,334.1602 Q200.1367,333.9453 200,333.3789 Q199.9414,332.9883 199.7266,332.7734 Q199.3359,332.3633 198.6328,332.1289 Q197.9297,331.875 197.2266,331.875 Q196.3477,331.875 195.6055,332.2266 Q194.8828,332.5781 194.3164,333.3594 Q193.75,334.1406 193.75,335.2148 L193.75,336.3672 Q193.75,337.6563 194.8047,338.5156 Q195.8594,339.375 197.7344,339.375 Q198.8477,339.375 199.6289,339.1211 Q200.0781,338.9844 200.5859,338.5352 Q200.918,338.2813 201.0938,338.2031 Q201.2695,338.125 201.4844,338.125 Q201.8945,338.125 202.1875,338.457 Q202.5,338.7695 202.5,339.2188 Q202.5,339.6484 202.0703,340.1563 Q201.4453,340.8984 200.4492,341.3086 Q199.1406,341.875 197.5391,341.875 Q195.6641,341.875 194.1602,341.1328 Q192.9492,340.5469 192.0898,339.2773 Q191.25,338.0078 191.25,336.5039 L191.25,335.1367 Q191.25,333.5742 191.9922,332.207 Q192.7539,330.8398 194.0625,330.1172 Q195.3906,329.375 196.875,329.375 Q197.7734,329.375 198.5547,329.6875 Q199.3359,330 200,330.625 Z "/><text fill="#000000" font-family="sans-serif" font-size="15" lengthAdjust="spacingAndGlyphs" textLength="77.5" x="215" y="341.1377">ClientsDao</text><line style="stroke: #A80036; stroke-width: 1.875;" x1="180" x2="295" y1="355" y2="355"/><line style="stroke: #A80036; stroke-width: 1.875;" x1="180" x2="295" y1="365" y2="365"/><!--MD5=[1bad87b9dbf42e3983017760005a656d]
class ConfigClientView--><rect fill="#FEFECE" filter="url(#f8cqfntcl7bw9)" height="60" id="ConfigClientView" style="stroke: #A80036; stroke-width: 1.875;" width="157.5" x="75" y="10"/><ellipse cx="93.75" cy="30" fill="#ADD1B2" rx="13.75" ry="13.75" style="stroke: #A80036; stroke-width: 1.25;"/><path d="M96.25,25.625 Q96.5039,25 96.7969,24.6875 Q97.0898,24.375 97.4219,24.375 Q98.0078,24.375 98.3789,24.7266 Q98.75,25.0781 98.75,25.8984 L98.75,27.8516 Q98.75,28.6719 98.3984,29.0234 Q98.0469,29.375 97.5,29.375 Q97.0117,29.375 96.6992,29.1602 Q96.3867,28.9453 96.25,28.3789 Q96.1914,27.9883 95.9766,27.7734 Q95.5859,27.3633 94.8828,27.1289 Q94.1797,26.875 93.4766,26.875 Q92.5977,26.875 91.8555,27.2266 Q91.1328,27.5781 90.5664,28.3594 Q90,29.1406 90,30.2148 L90,31.3672 Q90,32.6563 91.0547,33.5156 Q92.1094,34.375 93.9844,34.375 Q95.0977,34.375 95.8789,34.1211 Q96.3281,33.9844 96.8359,33.5352 Q97.168,33.2813 97.3438,33.2031 Q97.5195,33.125 97.7344,33.125 Q98.1445,33.125 98.4375,33.457 Q98.75,33.7695 98.75,34.2188 Q98.75,34.6484 98.3203,35.1563 Q97.6953,35.8984 96.6992,36.3086 Q95.3906,36.875 93.7891,36.875 Q91.9141,36.875 90.4102,36.1328 Q89.1992,35.5469 88.3398,34.2773 Q87.5,33.0078 87.5,31.5039 L87.5,30.1367 Q87.5,28.5742 88.2422,27.207 Q89.0039,25.8398 90.3125,25.1172 Q91.6406,24.375 93.125,24.375 Q94.0234,24.375 94.8047,24.6875 Q95.5859,25 96.25,25.625 Z "/><text fill="#000000" font-family="sans-serif" font-size="15" lengthAdjust="spacingAndGlyphs" textLength="117.5" x="111.25" y="36.1377">ConfigClientView</text><line style="stroke: #A80036; stroke-width: 1.875;" x1="76.25" x2="231.25" y1="50" y2="50"/><line style="stroke: #A80036; stroke-width: 1.875;" x1="76.25" x2="231.25" y1="60" y2="60"/><!--MD5=[cfc6b2365ecbc669c8804a6c1bb61eae]
link ConfigClientController to VehiclesDao--><path d="M128.0988,240.3888 C115.9061,262.557 101.5814,288.6021 90.3616,309.0016 " fill="none" id="ConfigClientController-&gt;VehiclesDao" style="stroke: #A80036; stroke-width: 1.25;"/><polygon fill="#A80036" points="87.2838,314.5978,97.0865,307.1501,90.2958,309.1214,88.3244,302.3307,87.2838,314.5978" style="stroke: #A80036; stroke-width: 1.25;"/><!--MD5=[02da1f1895a59b9efedc34553ae2703e]
link ConfigClientController to ClientsDao--><path d="M179.79,240.3888 C192.1675,262.557 206.7087,288.6021 218.0988,309.0016 " fill="none" id="ConfigClientController-&gt;ClientsDao" style="stroke: #A80036; stroke-width: 1.25;"/><polygon fill="#A80036" points="221.2238,314.5978,220.105,302.3376,218.1769,309.1407,211.3737,307.2126,221.2238,314.5978" style="stroke: #A80036; stroke-width: 1.25;"/><!--MD5=[21506a4cced13b6e8f30089a1277344c]
link ConfigClientView to ConfigClientController--><path d="M153.75,70.1713 C153.75,89.47 153.75,115.415 153.75,138.3363 " fill="none" id="ConfigClientView-&gt;ConfigClientController" style="stroke: #A80036; stroke-width: 1.25;"/><polygon fill="#A80036" points="153.75,144.7137,158.75,133.4637,153.75,138.4637,148.75,133.4637,153.75,144.7137" style="stroke: #A80036; stroke-width: 1.25;"/><!--MD5=[f0a3c94e4dbd89c8c91d4de0d7eba365]
@startuml
	class ConfigClientController {
	+save(client)
	+readVehicles(clientId)
	}

	ConfigClientController - -> VehiclesDao
	ConfigClientController - -> ClientsDao
	ConfigClientView - -> ConfigClientController
@enduml

PlantUML version 1.2020.09(Sun May 10 12:51:06 CEST 2020)
(GPL source distribution)
Java Runtime: OpenJDK Runtime Environment
JVM: OpenJDK 64-Bit Server VM
Java Version: 11.0.8+10-b1094.1
Operating System: Windows 10
Default Encoding: Cp1252
Language: en
Country: GB
--></g></svg>