<?xml version="1.0" encoding="UTF-8" standalone="no"?><svg xmlns="http://www.w3.org/2000/svg" xmlns:xlink="http://www.w3.org/1999/xlink" contentScriptType="application/ecmascript" contentStyleType="text/css" height="311px" preserveAspectRatio="none" style="width:202px;height:311px;" version="1.1" viewBox="0 0 202 311" width="202px" zoomAndPan="magnify"><defs><filter height="300%" id="f111ab12bengzu" width="300%" x="-1" y="-1"><feGaussianBlur result="blurOut" stdDeviation="2.0"/><feColorMatrix in="blurOut" result="blurOut2" type="matrix" values="0 0 0 0 0 0 0 0 0 0 0 0 0 0 0 0 0 0 .4 0"/><feOffset dx="4.0" dy="4.0" in="blurOut2" result="blurOut3"/><feBlend in="SourceGraphic" in2="blurOut3" mode="normal"/></filter></defs><g><!--MD5=[5103e3471bf31fadd75905833dcba617]
class LoginController--><rect fill="#FEFECE" filter="url(#f111ab12bengzu)" height="75.6719" id="LoginController" style="stroke: #A80036; stroke-width: 1.5;" width="185" x="6" y="116"/><ellipse cx="51.75" cy="132" fill="#ADD1B2" rx="11" ry="11" style="stroke: #A80036; stroke-width: 1.0;"/><path d="M53.75,128.5 Q53.9531,128 54.1875,127.75 Q54.4219,127.5 54.6875,127.5 Q55.1563,127.5 55.4531,127.7813 Q55.75,128.0625 55.75,128.7188 L55.75,130.2813 Q55.75,130.9375 55.4688,131.2188 Q55.1875,131.5 54.75,131.5 Q54.3594,131.5 54.1094,131.3281 Q53.8594,131.1563 53.75,130.7031 Q53.7031,130.3906 53.5313,130.2188 Q53.2188,129.8906 52.6563,129.7031 Q52.0938,129.5 51.5313,129.5 Q50.8281,129.5 50.2344,129.7813 Q49.6563,130.0625 49.2031,130.6875 Q48.75,131.3125 48.75,132.1719 L48.75,133.0938 Q48.75,134.125 49.5938,134.8125 Q50.4375,135.5 51.9375,135.5 Q52.8281,135.5 53.4531,135.2969 Q53.8125,135.1875 54.2188,134.8281 Q54.4844,134.625 54.625,134.5625 Q54.7656,134.5 54.9375,134.5 Q55.2656,134.5 55.5,134.7656 Q55.75,135.0156 55.75,135.375 Q55.75,135.7188 55.4063,136.125 Q54.9063,136.7188 54.1094,137.0469 Q53.0625,137.5 51.7813,137.5 Q50.2813,137.5 49.0781,136.9063 Q48.1094,136.4375 47.4219,135.4219 Q46.75,134.4063 46.75,133.2031 L46.75,132.1094 Q46.75,130.8594 47.3438,129.7656 Q47.9531,128.6719 49,128.0938 Q50.0625,127.5 51.25,127.5 Q51.9688,127.5 52.5938,127.75 Q53.2188,128 53.75,128.5 Z "/><text fill="#000000" font-family="sans-serif" font-size="12" lengthAdjust="spacingAndGlyphs" textLength="85" x="72.25" y="136.9102">LoginController</text><line style="stroke: #A80036; stroke-width: 1.5;" x1="7" x2="190" y1="148" y2="148"/><line style="stroke: #A80036; stroke-width: 1.5;" x1="7" x2="190" y1="156" y2="156"/><ellipse cx="17" cy="167" fill="#84BE84" rx="3" ry="3" style="stroke: #038048; stroke-width: 1.0;"/><text fill="#000000" font-family="sans-serif" font-size="11" lengthAdjust="spacingAndGlyphs" textLength="159" x="26" y="171.4189">searchBy(username, password)</text><ellipse cx="17" cy="180.8359" fill="#84BE84" rx="3" ry="3" style="stroke: #038048; stroke-width: 1.0;"/><text fill="#000000" font-family="sans-serif" font-size="11" lengthAdjust="spacingAndGlyphs" textLength="143" x="26" y="185.2549">create(username, password)</text><!--MD5=[8309b17d830045003489ce4c308a9814]
class LoginView--><rect fill="#FEFECE" filter="url(#f111ab12bengzu)" height="48" id="LoginView" style="stroke: #A80036; stroke-width: 1.5;" width="89" x="54" y="8"/><ellipse cx="69" cy="24" fill="#ADD1B2" rx="11" ry="11" style="stroke: #A80036; stroke-width: 1.0;"/><path d="M71,20.5 Q71.2031,20 71.4375,19.75 Q71.6719,19.5 71.9375,19.5 Q72.4063,19.5 72.7031,19.7813 Q73,20.0625 73,20.7188 L73,22.2813 Q73,22.9375 72.7188,23.2188 Q72.4375,23.5 72,23.5 Q71.6094,23.5 71.3594,23.3281 Q71.1094,23.1563 71,22.7031 Q70.9531,22.3906 70.7813,22.2188 Q70.4688,21.8906 69.9063,21.7031 Q69.3438,21.5 68.7813,21.5 Q68.0781,21.5 67.4844,21.7813 Q66.9063,22.0625 66.4531,22.6875 Q66,23.3125 66,24.1719 L66,25.0938 Q66,26.125 66.8438,26.8125 Q67.6875,27.5 69.1875,27.5 Q70.0781,27.5 70.7031,27.2969 Q71.0625,27.1875 71.4688,26.8281 Q71.7344,26.625 71.875,26.5625 Q72.0156,26.5 72.1875,26.5 Q72.5156,26.5 72.75,26.7656 Q73,27.0156 73,27.375 Q73,27.7188 72.6563,28.125 Q72.1563,28.7188 71.3594,29.0469 Q70.3125,29.5 69.0313,29.5 Q67.5313,29.5 66.3281,28.9063 Q65.3594,28.4375 64.6719,27.4219 Q64,26.4063 64,25.2031 L64,24.1094 Q64,22.8594 64.5938,21.7656 Q65.2031,20.6719 66.25,20.0938 Q67.3125,19.5 68.5,19.5 Q69.2188,19.5 69.8438,19.75 Q70.4688,20 71,20.5 Z "/><text fill="#000000" font-family="sans-serif" font-size="12" lengthAdjust="spacingAndGlyphs" textLength="57" x="83" y="28.9102">LoginView</text><line style="stroke: #A80036; stroke-width: 1.5;" x1="55" x2="142" y1="40" y2="40"/><line style="stroke: #A80036; stroke-width: 1.5;" x1="55" x2="142" y1="48" y2="48"/><!--MD5=[06d4c65dbd21248dc81c14552ce35f1c]
class MechanicsDao--><rect fill="#FEFECE" filter="url(#f111ab12bengzu)" height="48" id="MechanicsDao" style="stroke: #A80036; stroke-width: 1.5;" width="114" x="41.5" y="252"/><ellipse cx="56.5" cy="268" fill="#ADD1B2" rx="11" ry="11" style="stroke: #A80036; stroke-width: 1.0;"/><path d="M58.5,264.5 Q58.7031,264 58.9375,263.75 Q59.1719,263.5 59.4375,263.5 Q59.9063,263.5 60.2031,263.7813 Q60.5,264.0625 60.5,264.7188 L60.5,266.2813 Q60.5,266.9375 60.2188,267.2188 Q59.9375,267.5 59.5,267.5 Q59.1094,267.5 58.8594,267.3281 Q58.6094,267.1563 58.5,266.7031 Q58.4531,266.3906 58.2813,266.2188 Q57.9688,265.8906 57.4063,265.7031 Q56.8438,265.5 56.2813,265.5 Q55.5781,265.5 54.9844,265.7813 Q54.4063,266.0625 53.9531,266.6875 Q53.5,267.3125 53.5,268.1719 L53.5,269.0938 Q53.5,270.125 54.3438,270.8125 Q55.1875,271.5 56.6875,271.5 Q57.5781,271.5 58.2031,271.2969 Q58.5625,271.1875 58.9688,270.8281 Q59.2344,270.625 59.375,270.5625 Q59.5156,270.5 59.6875,270.5 Q60.0156,270.5 60.25,270.7656 Q60.5,271.0156 60.5,271.375 Q60.5,271.7188 60.1563,272.125 Q59.6563,272.7188 58.8594,273.0469 Q57.8125,273.5 56.5313,273.5 Q55.0313,273.5 53.8281,272.9063 Q52.8594,272.4375 52.1719,271.4219 Q51.5,270.4063 51.5,269.2031 L51.5,268.1094 Q51.5,266.8594 52.0938,265.7656 Q52.7031,264.6719 53.75,264.0938 Q54.8125,263.5 56,263.5 Q56.7188,263.5 57.3438,263.75 Q57.9688,264 58.5,264.5 Z "/><text fill="#000000" font-family="sans-serif" font-size="12" lengthAdjust="spacingAndGlyphs" textLength="82" x="70.5" y="272.9102">MechanicsDao</text><line style="stroke: #A80036; stroke-width: 1.5;" x1="42.5" x2="154.5" y1="284" y2="284"/><line style="stroke: #A80036; stroke-width: 1.5;" x1="42.5" x2="154.5" y1="292" y2="292"/><!--MD5=[00612bbf082436bfb3978d0560ce9303]
link LoginView to LoginController--><path d="M98.5,56.137 C98.5,71.576 98.5,92.332 98.5,110.669 " fill="none" id="LoginView-&gt;LoginController" style="stroke: #A80036; stroke-width: 1.0;"/><polygon fill="#A80036" points="98.5,115.771,102.5,106.771,98.5,110.771,94.5,106.771,98.5,115.771" style="stroke: #A80036; stroke-width: 1.0;"/><!--MD5=[7c7947527e80c8b754fb1e91c7a1da12]
link LoginController to MechanicsDao--><path d="M98.5,192.311 C98.5,209.7424 98.5,230.1702 98.5,246.3605 " fill="none" id="LoginController-&gt;MechanicsDao" style="stroke: #A80036; stroke-width: 1.0;"/><polygon fill="#A80036" points="98.5,251.6782,102.5,242.6782,98.5,246.6782,94.5,242.6782,98.5,251.6782" style="stroke: #A80036; stroke-width: 1.0;"/><!--MD5=[2476c01960cdf95e278bff71c5dbb016]
@startuml
	class LoginController {
	+searchBy(username, password)
	+create(username, password)
	}

	LoginView - -> LoginController
	LoginController - -> MechanicsDao
@enduml

PlantUML version 1.2020.09(Sun May 10 12:51:06 CEST 2020)
(GPL source distribution)
Java Runtime: OpenJDK Runtime Environment
JVM: OpenJDK 64-Bit Server VM
Java Version: 11.0.8+10-b1094.1
Operating System: Windows 10
Default Encoding: Cp1252
Language: en
Country: GB
--></g></svg>