<?xml version="1.0" encoding="UTF-8" standalone="no"?><svg xmlns="http://www.w3.org/2000/svg" xmlns:xlink="http://www.w3.org/1999/xlink" contentScriptType="application/ecmascript" contentStyleType="text/css" height="406.25px" preserveAspectRatio="none" style="width:536px;height:406px;" version="1.1" viewBox="0 0 536 406" width="536.25px" zoomAndPan="magnify"><defs><filter height="300%" id="f9xj7hso8e5nz" width="300%" x="-1" y="-1"><feGaussianBlur result="blurOut" stdDeviation="2.5"/><feColorMatrix in="blurOut" result="blurOut2" type="matrix" values="0 0 0 0 0 0 0 0 0 0 0 0 0 0 0 0 0 0 .4 0"/><feOffset dx="5.0" dy="5.0" in="blurOut2" result="blurOut3"/><feBlend in="SourceGraphic" in2="blurOut3" mode="normal"/></filter></defs><g><!--MD5=[fb53487f3bac7251ff70379f798d388d]
class OpenInterventionsController--><rect fill="#FEFECE" filter="url(#f9xj7hso8e5nz)" height="111.8848" id="OpenInterventionsController" style="stroke: #A80036; stroke-width: 1.875;" width="232.5" x="141.25" y="145"/><ellipse cx="160" cy="165" fill="#ADD1B2" rx="13.75" ry="13.75" style="stroke: #A80036; stroke-width: 1.25;"/><path d="M162.5,160.625 Q162.7539,160 163.0469,159.6875 Q163.3398,159.375 163.6719,159.375 Q164.2578,159.375 164.6289,159.7266 Q165,160.0781 165,160.8984 L165,162.8516 Q165,163.6719 164.6484,164.0234 Q164.2969,164.375 163.75,164.375 Q163.2617,164.375 162.9492,164.1602 Q162.6367,163.9453 162.5,163.3789 Q162.4414,162.9883 162.2266,162.7734 Q161.8359,162.3633 161.1328,162.1289 Q160.4297,161.875 159.7266,161.875 Q158.8477,161.875 158.1055,162.2266 Q157.3828,162.5781 156.8164,163.3594 Q156.25,164.1406 156.25,165.2148 L156.25,166.3672 Q156.25,167.6563 157.3047,168.5156 Q158.3594,169.375 160.2344,169.375 Q161.3477,169.375 162.1289,169.1211 Q162.5781,168.9844 163.0859,168.5352 Q163.418,168.2813 163.5938,168.2031 Q163.7695,168.125 163.9844,168.125 Q164.3945,168.125 164.6875,168.457 Q165,168.7695 165,169.2188 Q165,169.6484 164.5703,170.1563 Q163.9453,170.8984 162.9492,171.3086 Q161.6406,171.875 160.0391,171.875 Q158.1641,171.875 156.6602,171.1328 Q155.4492,170.5469 154.5898,169.2773 Q153.75,168.0078 153.75,166.5039 L153.75,165.1367 Q153.75,163.5742 154.4922,162.207 Q155.2539,160.8398 156.5625,160.1172 Q157.8906,159.375 159.375,159.375 Q160.2734,159.375 161.0547,159.6875 Q161.8359,160 162.5,160.625 Z "/><text fill="#000000" font-family="sans-serif" font-size="15" lengthAdjust="spacingAndGlyphs" textLength="192.5" x="177.5" y="171.1377">OpenInterventionsController</text><line style="stroke: #A80036; stroke-width: 1.875;" x1="142.5" x2="372.5" y1="185" y2="185"/><line style="stroke: #A80036; stroke-width: 1.875;" x1="142.5" x2="372.5" y1="195" y2="195"/><ellipse cx="155" cy="208.75" fill="#84BE84" rx="3.75" ry="3.75" style="stroke: #038048; stroke-width: 1.25;"/><text fill="#000000" font-family="sans-serif" font-size="13.75" lengthAdjust="spacingAndGlyphs" textLength="102.5" x="166.25" y="214.2737">readMechanics()</text><ellipse cx="155" cy="226.0449" fill="#84BE84" rx="3.75" ry="3.75" style="stroke: #038048; stroke-width: 1.25;"/><text fill="#000000" font-family="sans-serif" font-size="13.75" lengthAdjust="spacingAndGlyphs" textLength="182.5" x="166.25" y="231.5686">readInterventions(mechanicId)</text><ellipse cx="155" cy="243.3398" fill="#84BE84" rx="3.75" ry="3.75" style="stroke: #038048; stroke-width: 1.25;"/><text fill="#000000" font-family="sans-serif" font-size="13.75" lengthAdjust="spacingAndGlyphs" textLength="135" x="166.25" y="248.8635">readVehicle(vehicleId)</text><!--MD5=[a39ad64172e37f40d93cf41979371d42]
class VehiclesDao--><rect fill="#FEFECE" filter="url(#f9xj7hso8e5nz)" height="60" id="VehiclesDao" style="stroke: #A80036; stroke-width: 1.875;" width="127.5" x="7.5" y="332.5"/><ellipse cx="26.25" cy="352.5" fill="#ADD1B2" rx="13.75" ry="13.75" style="stroke: #A80036; stroke-width: 1.25;"/><path d="M28.75,348.125 Q29.0039,347.5 29.2969,347.1875 Q29.5898,346.875 29.9219,346.875 Q30.5078,346.875 30.8789,347.2266 Q31.25,347.5781 31.25,348.3984 L31.25,350.3516 Q31.25,351.1719 30.8984,351.5234 Q30.5469,351.875 30,351.875 Q29.5117,351.875 29.1992,351.6602 Q28.8867,351.4453 28.75,350.8789 Q28.6914,350.4883 28.4766,350.2734 Q28.0859,349.8633 27.3828,349.6289 Q26.6797,349.375 25.9766,349.375 Q25.0977,349.375 24.3555,349.7266 Q23.6328,350.0781 23.0664,350.8594 Q22.5,351.6406 22.5,352.7148 L22.5,353.8672 Q22.5,355.1563 23.5547,356.0156 Q24.6094,356.875 26.4844,356.875 Q27.5977,356.875 28.3789,356.6211 Q28.8281,356.4844 29.3359,356.0352 Q29.668,355.7813 29.8438,355.7031 Q30.0195,355.625 30.2344,355.625 Q30.6445,355.625 30.9375,355.957 Q31.25,356.2695 31.25,356.7188 Q31.25,357.1484 30.8203,357.6563 Q30.1953,358.3984 29.1992,358.8086 Q27.8906,359.375 26.2891,359.375 Q24.4141,359.375 22.9102,358.6328 Q21.6992,358.0469 20.8398,356.7773 Q20,355.5078 20,354.0039 L20,352.6367 Q20,351.0742 20.7422,349.707 Q21.5039,348.3398 22.8125,347.6172 Q24.1406,346.875 25.625,346.875 Q26.5234,346.875 27.3047,347.1875 Q28.0859,347.5 28.75,348.125 Z "/><text fill="#000000" font-family="sans-serif" font-size="15" lengthAdjust="spacingAndGlyphs" textLength="87.5" x="43.75" y="358.6377">VehiclesDao</text><line style="stroke: #A80036; stroke-width: 1.875;" x1="8.75" x2="133.75" y1="372.5" y2="372.5"/><line style="stroke: #A80036; stroke-width: 1.875;" x1="8.75" x2="133.75" y1="382.5" y2="382.5"/><!--MD5=[abb4079e3c36e1e70999512b130a9027]
class InterventionsDao--><rect fill="#FEFECE" filter="url(#f9xj7hso8e5nz)" height="60" id="InterventionsDao" style="stroke: #A80036; stroke-width: 1.875;" width="156.25" x="179.375" y="332.5"/><ellipse cx="198.125" cy="352.5" fill="#ADD1B2" rx="13.75" ry="13.75" style="stroke: #A80036; stroke-width: 1.25;"/><path d="M200.625,348.125 Q200.8789,347.5 201.1719,347.1875 Q201.4648,346.875 201.7969,346.875 Q202.3828,346.875 202.7539,347.2266 Q203.125,347.5781 203.125,348.3984 L203.125,350.3516 Q203.125,351.1719 202.7734,351.5234 Q202.4219,351.875 201.875,351.875 Q201.3867,351.875 201.0742,351.6602 Q200.7617,351.4453 200.625,350.8789 Q200.5664,350.4883 200.3516,350.2734 Q199.9609,349.8633 199.2578,349.6289 Q198.5547,349.375 197.8516,349.375 Q196.9727,349.375 196.2305,349.7266 Q195.5078,350.0781 194.9414,350.8594 Q194.375,351.6406 194.375,352.7148 L194.375,353.8672 Q194.375,355.1563 195.4297,356.0156 Q196.4844,356.875 198.3594,356.875 Q199.4727,356.875 200.2539,356.6211 Q200.7031,356.4844 201.2109,356.0352 Q201.543,355.7813 201.7188,355.7031 Q201.8945,355.625 202.1094,355.625 Q202.5195,355.625 202.8125,355.957 Q203.125,356.2695 203.125,356.7188 Q203.125,357.1484 202.6953,357.6563 Q202.0703,358.3984 201.0742,358.8086 Q199.7656,359.375 198.1641,359.375 Q196.2891,359.375 194.7852,358.6328 Q193.5742,358.0469 192.7148,356.7773 Q191.875,355.5078 191.875,354.0039 L191.875,352.6367 Q191.875,351.0742 192.6172,349.707 Q193.3789,348.3398 194.6875,347.6172 Q196.0156,346.875 197.5,346.875 Q198.3984,346.875 199.1797,347.1875 Q199.9609,347.5 200.625,348.125 Z "/><text fill="#000000" font-family="sans-serif" font-size="15" lengthAdjust="spacingAndGlyphs" textLength="116.25" x="215.625" y="358.6377">InterventionsDao</text><line style="stroke: #A80036; stroke-width: 1.875;" x1="180.625" x2="334.375" y1="372.5" y2="372.5"/><line style="stroke: #A80036; stroke-width: 1.875;" x1="180.625" x2="334.375" y1="382.5" y2="382.5"/><!--MD5=[06d4c65dbd21248dc81c14552ce35f1c]
class MechanicsDao--><rect fill="#FEFECE" filter="url(#f9xj7hso8e5nz)" height="60" id="MechanicsDao" style="stroke: #A80036; stroke-width: 1.875;" width="142.5" x="380" y="332.5"/><ellipse cx="398.75" cy="352.5" fill="#ADD1B2" rx="13.75" ry="13.75" style="stroke: #A80036; stroke-width: 1.25;"/><path d="M401.25,348.125 Q401.5039,347.5 401.7969,347.1875 Q402.0898,346.875 402.4219,346.875 Q403.0078,346.875 403.3789,347.2266 Q403.75,347.5781 403.75,348.3984 L403.75,350.3516 Q403.75,351.1719 403.3984,351.5234 Q403.0469,351.875 402.5,351.875 Q402.0117,351.875 401.6992,351.6602 Q401.3867,351.4453 401.25,350.8789 Q401.1914,350.4883 400.9766,350.2734 Q400.5859,349.8633 399.8828,349.6289 Q399.1797,349.375 398.4766,349.375 Q397.5977,349.375 396.8555,349.7266 Q396.1328,350.0781 395.5664,350.8594 Q395,351.6406 395,352.7148 L395,353.8672 Q395,355.1563 396.0547,356.0156 Q397.1094,356.875 398.9844,356.875 Q400.0977,356.875 400.8789,356.6211 Q401.3281,356.4844 401.8359,356.0352 Q402.168,355.7813 402.3438,355.7031 Q402.5195,355.625 402.7344,355.625 Q403.1445,355.625 403.4375,355.957 Q403.75,356.2695 403.75,356.7188 Q403.75,357.1484 403.3203,357.6563 Q402.6953,358.3984 401.6992,358.8086 Q400.3906,359.375 398.7891,359.375 Q396.9141,359.375 395.4102,358.6328 Q394.1992,358.0469 393.3398,356.7773 Q392.5,355.5078 392.5,354.0039 L392.5,352.6367 Q392.5,351.0742 393.2422,349.707 Q394.0039,348.3398 395.3125,347.6172 Q396.6406,346.875 398.125,346.875 Q399.0234,346.875 399.8047,347.1875 Q400.5859,347.5 401.25,348.125 Z "/><text fill="#000000" font-family="sans-serif" font-size="15" lengthAdjust="spacingAndGlyphs" textLength="102.5" x="416.25" y="358.6377">MechanicsDao</text><line style="stroke: #A80036; stroke-width: 1.875;" x1="381.25" x2="521.25" y1="372.5" y2="372.5"/><line style="stroke: #A80036; stroke-width: 1.875;" x1="381.25" x2="521.25" y1="382.5" y2="382.5"/><!--MD5=[6d3946f4576b3d1380341ff87dc4fff4]
class InterventionsView--><rect fill="#FEFECE" filter="url(#f9xj7hso8e5nz)" height="60" id="InterventionsView" style="stroke: #A80036; stroke-width: 1.875;" width="160" x="177.5" y="10"/><ellipse cx="196.25" cy="30" fill="#ADD1B2" rx="13.75" ry="13.75" style="stroke: #A80036; stroke-width: 1.25;"/><path d="M198.75,25.625 Q199.0039,25 199.2969,24.6875 Q199.5898,24.375 199.9219,24.375 Q200.5078,24.375 200.8789,24.7266 Q201.25,25.0781 201.25,25.8984 L201.25,27.8516 Q201.25,28.6719 200.8984,29.0234 Q200.5469,29.375 200,29.375 Q199.5117,29.375 199.1992,29.1602 Q198.8867,28.9453 198.75,28.3789 Q198.6914,27.9883 198.4766,27.7734 Q198.0859,27.3633 197.3828,27.1289 Q196.6797,26.875 195.9766,26.875 Q195.0977,26.875 194.3555,27.2266 Q193.6328,27.5781 193.0664,28.3594 Q192.5,29.1406 192.5,30.2148 L192.5,31.3672 Q192.5,32.6563 193.5547,33.5156 Q194.6094,34.375 196.4844,34.375 Q197.5977,34.375 198.3789,34.1211 Q198.8281,33.9844 199.3359,33.5352 Q199.668,33.2813 199.8438,33.2031 Q200.0195,33.125 200.2344,33.125 Q200.6445,33.125 200.9375,33.457 Q201.25,33.7695 201.25,34.2188 Q201.25,34.6484 200.8203,35.1563 Q200.1953,35.8984 199.1992,36.3086 Q197.8906,36.875 196.2891,36.875 Q194.4141,36.875 192.9102,36.1328 Q191.6992,35.5469 190.8398,34.2773 Q190,33.0078 190,31.5039 L190,30.1367 Q190,28.5742 190.7422,27.207 Q191.5039,25.8398 192.8125,25.1172 Q194.1406,24.375 195.625,24.375 Q196.5234,24.375 197.3047,24.6875 Q198.0859,25 198.75,25.625 Z "/><text fill="#000000" font-family="sans-serif" font-size="15" lengthAdjust="spacingAndGlyphs" textLength="120" x="213.75" y="36.1377">InterventionsView</text><line style="stroke: #A80036; stroke-width: 1.875;" x1="178.75" x2="336.25" y1="50" y2="50"/><line style="stroke: #A80036; stroke-width: 1.875;" x1="178.75" x2="336.25" y1="60" y2="60"/><!--MD5=[34a305df6ba2f626d45d03a1b2d78aa0]
link OpenInterventionsController to VehiclesDao--><path d="M192.8813,257.5775 C165.5313,280.8891 134.5513,307.2951 110.7021,327.6231 " fill="none" id="OpenInterventionsController-&gt;VehiclesDao" style="stroke: #A80036; stroke-width: 1.25;"/><polygon fill="#A80036" points="105.4179,332.127,117.2232,328.6346,110.1745,328.0727,110.7363,321.024,105.4179,332.127" style="stroke: #A80036; stroke-width: 1.25;"/><!--MD5=[d835f3322136797bf976d4ac0ec2e353]
link OpenInterventionsController to InterventionsDao--><path d="M257.5,257.5775 C257.5,280.1055 257.5,305.5234 257.5,325.5529 " fill="none" id="OpenInterventionsController-&gt;InterventionsDao" style="stroke: #A80036; stroke-width: 1.25;"/><polygon fill="#A80036" points="257.5,332.127,262.5,320.877,257.5,325.877,252.5,320.877,257.5,332.127" style="stroke: #A80036; stroke-width: 1.25;"/><!--MD5=[7573ade0f4395eaac80b89579e8afbec]
link OpenInterventionsController to MechanicsDao--><path d="M324.72,257.5775 C353.4113,281.085 385.9412,307.7391 410.8337,328.1343 " fill="none" id="OpenInterventionsController-&gt;MechanicsDao" style="stroke: #A80036; stroke-width: 1.25;"/><polygon fill="#A80036" points="415.7063,332.127,410.175,321.1285,410.8725,328.1651,403.8359,328.8625,415.7063,332.127" style="stroke: #A80036; stroke-width: 1.25;"/><!--MD5=[97451a318fbb31ff098968f1385ed399]
link InterventionsView to OpenInterventionsController--><path d="M257.5,70.3675 C257.5,89.3488 257.5,114.845 257.5,138.2037 " fill="none" id="InterventionsView-&gt;OpenInterventionsController" style="stroke: #A80036; stroke-width: 1.25;"/><polygon fill="#A80036" points="257.5,144.7275,262.5,133.4775,257.5,138.4775,252.5,133.4775,257.5,144.7275" style="stroke: #A80036; stroke-width: 1.25;"/><!--MD5=[71ef0fb7b9949e6d2a4e76d3523d5128]
@startuml
	class OpenInterventionsController {
	+readMechanics()
	+readInterventions(mechanicId)
	+readVehicle(vehicleId)
	}

	OpenInterventionsController - -> VehiclesDao
	OpenInterventionsController - -> InterventionsDao
	OpenInterventionsController - -> MechanicsDao
	InterventionsView - -> OpenInterventionsController
@enduml

PlantUML version 1.2020.09(Sun May 10 12:51:06 CEST 2020)
(GPL source distribution)
Java Runtime: OpenJDK Runtime Environment
JVM: OpenJDK 64-Bit Server VM
Java Version: 11.0.8+10-b1094.1
Operating System: Windows 10
Default Encoding: Cp1252
Language: en
Country: GB
--></g></svg>