<?xml version="1.0" encoding="UTF-8" standalone="no"?><svg xmlns="http://www.w3.org/2000/svg" xmlns:xlink="http://www.w3.org/1999/xlink" contentScriptType="application/ecmascript" contentStyleType="text/css" height="371.25px" preserveAspectRatio="none" style="width:337px;height:371px;" version="1.1" viewBox="0 0 337 371" width="337.5px" zoomAndPan="magnify"><defs><filter height="300%" id="fnpjgyabuzdkk" width="300%" x="-1" y="-1"><feGaussianBlur result="blurOut" stdDeviation="2.5"/><feColorMatrix in="blurOut" result="blurOut2" type="matrix" values="0 0 0 0 0 0 0 0 0 0 0 0 0 0 0 0 0 0 .4 0"/><feOffset dx="5.0" dy="5.0" in="blurOut2" result="blurOut3"/><feBlend in="SourceGraphic" in2="blurOut3" mode="normal"/></filter></defs><g><!--MD5=[30447da4da4e7cfdf8dead7e3e7400a7]
class SignInController--><rect fill="#FEFECE" filter="url(#fnpjgyabuzdkk)" height="77.2949" id="SignInController" style="stroke: #A80036; stroke-width: 1.875;" width="316.25" x="7.5" y="145"/><ellipse cx="104.6875" cy="165" fill="#ADD1B2" rx="13.75" ry="13.75" style="stroke: #A80036; stroke-width: 1.25;"/><path d="M107.1875,160.625 Q107.4414,160 107.7344,159.6875 Q108.0273,159.375 108.3594,159.375 Q108.9453,159.375 109.3164,159.7266 Q109.6875,160.0781 109.6875,160.8984 L109.6875,162.8516 Q109.6875,163.6719 109.3359,164.0234 Q108.9844,164.375 108.4375,164.375 Q107.9492,164.375 107.6367,164.1602 Q107.3242,163.9453 107.1875,163.3789 Q107.1289,162.9883 106.9141,162.7734 Q106.5234,162.3633 105.8203,162.1289 Q105.1172,161.875 104.4141,161.875 Q103.5352,161.875 102.793,162.2266 Q102.0703,162.5781 101.5039,163.3594 Q100.9375,164.1406 100.9375,165.2148 L100.9375,166.3672 Q100.9375,167.6563 101.9922,168.5156 Q103.0469,169.375 104.9219,169.375 Q106.0352,169.375 106.8164,169.1211 Q107.2656,168.9844 107.7734,168.5352 Q108.1055,168.2813 108.2813,168.2031 Q108.457,168.125 108.6719,168.125 Q109.082,168.125 109.375,168.457 Q109.6875,168.7695 109.6875,169.2188 Q109.6875,169.6484 109.2578,170.1563 Q108.6328,170.8984 107.6367,171.3086 Q106.3281,171.875 104.7266,171.875 Q102.8516,171.875 101.3477,171.1328 Q100.1367,170.5469 99.2773,169.2773 Q98.4375,168.0078 98.4375,166.5039 L98.4375,165.1367 Q98.4375,163.5742 99.1797,162.207 Q99.9414,160.8398 101.25,160.1172 Q102.5781,159.375 104.0625,159.375 Q104.9609,159.375 105.7422,159.6875 Q106.5234,160 107.1875,160.625 Z "/><text fill="#000000" font-family="sans-serif" font-size="15" lengthAdjust="spacingAndGlyphs" textLength="111.25" x="130.3125" y="171.1377">SignInController</text><line style="stroke: #A80036; stroke-width: 1.875;" x1="8.75" x2="322.5" y1="185" y2="185"/><line style="stroke: #A80036; stroke-width: 1.875;" x1="8.75" x2="322.5" y1="195" y2="195"/><ellipse cx="21.25" cy="208.75" fill="#84BE84" rx="3.75" ry="3.75" style="stroke: #038048; stroke-width: 1.25;"/><text fill="#000000" font-family="sans-serif" font-size="13.75" lengthAdjust="spacingAndGlyphs" textLength="283.75" x="32.5" y="214.2737">signin(username, password, repeatPassword)</text><!--MD5=[06d4c65dbd21248dc81c14552ce35f1c]
class MechanicsDao--><rect fill="#FEFECE" filter="url(#fnpjgyabuzdkk)" height="60" id="MechanicsDao" style="stroke: #A80036; stroke-width: 1.875;" width="142.5" x="10.625" y="297.5"/><ellipse cx="29.375" cy="317.5" fill="#ADD1B2" rx="13.75" ry="13.75" style="stroke: #A80036; stroke-width: 1.25;"/><path d="M31.875,313.125 Q32.1289,312.5 32.4219,312.1875 Q32.7148,311.875 33.0469,311.875 Q33.6328,311.875 34.0039,312.2266 Q34.375,312.5781 34.375,313.3984 L34.375,315.3516 Q34.375,316.1719 34.0234,316.5234 Q33.6719,316.875 33.125,316.875 Q32.6367,316.875 32.3242,316.6602 Q32.0117,316.4453 31.875,315.8789 Q31.8164,315.4883 31.6016,315.2734 Q31.2109,314.8633 30.5078,314.6289 Q29.8047,314.375 29.1016,314.375 Q28.2227,314.375 27.4805,314.7266 Q26.7578,315.0781 26.1914,315.8594 Q25.625,316.6406 25.625,317.7148 L25.625,318.8672 Q25.625,320.1563 26.6797,321.0156 Q27.7344,321.875 29.6094,321.875 Q30.7227,321.875 31.5039,321.6211 Q31.9531,321.4844 32.4609,321.0352 Q32.793,320.7813 32.9688,320.7031 Q33.1445,320.625 33.3594,320.625 Q33.7695,320.625 34.0625,320.957 Q34.375,321.2695 34.375,321.7188 Q34.375,322.1484 33.9453,322.6563 Q33.3203,323.3984 32.3242,323.8086 Q31.0156,324.375 29.4141,324.375 Q27.5391,324.375 26.0352,323.6328 Q24.8242,323.0469 23.9648,321.7773 Q23.125,320.5078 23.125,319.0039 L23.125,317.6367 Q23.125,316.0742 23.8672,314.707 Q24.6289,313.3398 25.9375,312.6172 Q27.2656,311.875 28.75,311.875 Q29.6484,311.875 30.4297,312.1875 Q31.2109,312.5 31.875,313.125 Z "/><text fill="#000000" font-family="sans-serif" font-size="15" lengthAdjust="spacingAndGlyphs" textLength="102.5" x="46.875" y="323.6377">MechanicsDao</text><line style="stroke: #A80036; stroke-width: 1.875;" x1="11.875" x2="151.875" y1="337.5" y2="337.5"/><line style="stroke: #A80036; stroke-width: 1.875;" x1="11.875" x2="151.875" y1="347.5" y2="347.5"/><!--MD5=[1e29ec7aa20142996304403e448274ec]
class Mechanic--><rect fill="#FEFECE" filter="url(#fnpjgyabuzdkk)" height="60" id="Mechanic" style="stroke: #A80036; stroke-width: 1.875;" width="105" x="196.875" y="297.5"/><ellipse cx="215.625" cy="317.5" fill="#ADD1B2" rx="13.75" ry="13.75" style="stroke: #A80036; stroke-width: 1.25;"/><path d="M218.125,313.125 Q218.3789,312.5 218.6719,312.1875 Q218.9648,311.875 219.2969,311.875 Q219.8828,311.875 220.2539,312.2266 Q220.625,312.5781 220.625,313.3984 L220.625,315.3516 Q220.625,316.1719 220.2734,316.5234 Q219.9219,316.875 219.375,316.875 Q218.8867,316.875 218.5742,316.6602 Q218.2617,316.4453 218.125,315.8789 Q218.0664,315.4883 217.8516,315.2734 Q217.4609,314.8633 216.7578,314.6289 Q216.0547,314.375 215.3516,314.375 Q214.4727,314.375 213.7305,314.7266 Q213.0078,315.0781 212.4414,315.8594 Q211.875,316.6406 211.875,317.7148 L211.875,318.8672 Q211.875,320.1563 212.9297,321.0156 Q213.9844,321.875 215.8594,321.875 Q216.9727,321.875 217.7539,321.6211 Q218.2031,321.4844 218.7109,321.0352 Q219.043,320.7813 219.2188,320.7031 Q219.3945,320.625 219.6094,320.625 Q220.0195,320.625 220.3125,320.957 Q220.625,321.2695 220.625,321.7188 Q220.625,322.1484 220.1953,322.6563 Q219.5703,323.3984 218.5742,323.8086 Q217.2656,324.375 215.6641,324.375 Q213.7891,324.375 212.2852,323.6328 Q211.0742,323.0469 210.2148,321.7773 Q209.375,320.5078 209.375,319.0039 L209.375,317.6367 Q209.375,316.0742 210.1172,314.707 Q210.8789,313.3398 212.1875,312.6172 Q213.5156,311.875 215,311.875 Q215.8984,311.875 216.6797,312.1875 Q217.4609,312.5 218.125,313.125 Z "/><text fill="#000000" font-family="sans-serif" font-size="15" lengthAdjust="spacingAndGlyphs" textLength="65" x="233.125" y="323.6377">Mechanic</text><line style="stroke: #A80036; stroke-width: 1.875;" x1="198.125" x2="300.625" y1="337.5" y2="337.5"/><line style="stroke: #A80036; stroke-width: 1.875;" x1="198.125" x2="300.625" y1="347.5" y2="347.5"/><!--MD5=[c165718656364e8a2441ae1f83ea1dcf]
class SignInView--><rect fill="#FEFECE" filter="url(#fnpjgyabuzdkk)" height="60" id="SignInView" style="stroke: #A80036; stroke-width: 1.875;" width="116.25" x="107.5" y="10"/><ellipse cx="126.25" cy="30" fill="#ADD1B2" rx="13.75" ry="13.75" style="stroke: #A80036; stroke-width: 1.25;"/><path d="M128.75,25.625 Q129.0039,25 129.2969,24.6875 Q129.5898,24.375 129.9219,24.375 Q130.5078,24.375 130.8789,24.7266 Q131.25,25.0781 131.25,25.8984 L131.25,27.8516 Q131.25,28.6719 130.8984,29.0234 Q130.5469,29.375 130,29.375 Q129.5117,29.375 129.1992,29.1602 Q128.8867,28.9453 128.75,28.3789 Q128.6914,27.9883 128.4766,27.7734 Q128.0859,27.3633 127.3828,27.1289 Q126.6797,26.875 125.9766,26.875 Q125.0977,26.875 124.3555,27.2266 Q123.6328,27.5781 123.0664,28.3594 Q122.5,29.1406 122.5,30.2148 L122.5,31.3672 Q122.5,32.6563 123.5547,33.5156 Q124.6094,34.375 126.4844,34.375 Q127.5977,34.375 128.3789,34.1211 Q128.8281,33.9844 129.3359,33.5352 Q129.668,33.2813 129.8438,33.2031 Q130.0195,33.125 130.2344,33.125 Q130.6445,33.125 130.9375,33.457 Q131.25,33.7695 131.25,34.2188 Q131.25,34.6484 130.8203,35.1563 Q130.1953,35.8984 129.1992,36.3086 Q127.8906,36.875 126.2891,36.875 Q124.4141,36.875 122.9102,36.1328 Q121.6992,35.5469 120.8398,34.2773 Q120,33.0078 120,31.5039 L120,30.1367 Q120,28.5742 120.7422,27.207 Q121.5039,25.8398 122.8125,25.1172 Q124.1406,24.375 125.625,24.375 Q126.5234,24.375 127.3047,24.6875 Q128.0859,25 128.75,25.625 Z "/><text fill="#000000" font-family="sans-serif" font-size="15" lengthAdjust="spacingAndGlyphs" textLength="76.25" x="143.75" y="36.1377">SignInView</text><line style="stroke: #A80036; stroke-width: 1.875;" x1="108.75" x2="222.5" y1="50" y2="50"/><line style="stroke: #A80036; stroke-width: 1.875;" x1="108.75" x2="222.5" y1="60" y2="60"/><!--MD5=[616a17fc61e02bac6a034463ad70a3e6]
link SignInController to MechanicsDao--><path d="M143.1813,222.8525 C130.515,244.2155 114.8005,270.7189 102.4528,291.5441 " fill="none" id="SignInController-&gt;MechanicsDao" style="stroke: #A80036; stroke-width: 1.25;"/><polygon fill="#A80036" points="99.0648,297.2584,109.1033,290.1317,102.2524,291.8824,100.5017,285.0315,99.0648,297.2584" style="stroke: #A80036; stroke-width: 1.25;"/><!--MD5=[13f5f430fc5a9e93d57967bfaca64d11]
link SignInController to Mechanic--><path d="M188.0688,222.8525 C200.735,244.2155 216.45,270.7189 228.7975,291.5441 " fill="none" id="SignInController-&gt;Mechanic" style="stroke: #A80036; stroke-width: 1.25;"/><polygon fill="#A80036" points="232.185,297.2584,230.747,285.0316,228.9969,291.8826,222.1458,290.1326,232.185,297.2584" style="stroke: #A80036; stroke-width: 1.25;"/><!--MD5=[c5580407c54de037a90d3d6b6090b73f]
link SignInView to SignInController--><path d="M165.625,70.175 C165.625,89.6313 165.625,115.6662 165.625,137.7725 " fill="none" id="SignInView-&gt;SignInController" style="stroke: #A80036; stroke-width: 1.25;"/><polygon fill="#A80036" points="165.625,144.495,170.625,133.245,165.625,138.245,160.625,133.245,165.625,144.495" style="stroke: #A80036; stroke-width: 1.25;"/><!--MD5=[7b8d2e8feb725ac1d24ba3ece98a7280]
@startuml
	class SignInController {
	+signin(username, password, repeatPassword)
	}

	SignInController - -> MechanicsDao
	SignInController - -> Mechanic
	SignInView - -> SignInController
@enduml

PlantUML version 1.2020.09(Sun May 10 12:51:06 CEST 2020)
(GPL source distribution)
Java Runtime: OpenJDK Runtime Environment
JVM: OpenJDK 64-Bit Server VM
Java Version: 11.0.8+10-b1094.1
Operating System: Windows 10
Default Encoding: Cp1252
Language: en
Country: GB
--></g></svg>