<?xml version="1.0" encoding="UTF-8" standalone="no"?><svg xmlns="http://www.w3.org/2000/svg" xmlns:xlink="http://www.w3.org/1999/xlink" contentScriptType="application/ecmascript" contentStyleType="text/css" height="658.75px" preserveAspectRatio="none" style="width:391px;height:658px;" version="1.1" viewBox="0 0 391 658" width="391.25px" zoomAndPan="magnify"><defs><filter height="300%" id="f1va2m2vf9kafz" width="300%" x="-1" y="-1"><feGaussianBlur result="blurOut" stdDeviation="2.5"/><feColorMatrix in="blurOut" result="blurOut2" type="matrix" values="0 0 0 0 0 0 0 0 0 0 0 0 0 0 0 0 0 0 .4 0"/><feOffset dx="5.0" dy="5.0" in="blurOut2" result="blurOut3"/><feBlend in="SourceGraphic" in2="blurOut3" mode="normal"/></filter></defs><g><rect fill="#FEFECE" filter="url(#f1va2m2vf9kafz)" height="43.8672" style="stroke: #A80036; stroke-width: 1.875;" width="177.5" x="7.5" y="10"/><text fill="#000000" font-family="sans-serif" font-size="15" lengthAdjust="spacingAndGlyphs" textLength="160" x="16.25" y="28.0713">AutomobileRepairShop</text><line style="stroke: #A80036; stroke-width: 1.875;" x1="8.75" x2="183.75" y1="33.8672" y2="33.8672"/><rect fill="#FEFECE" filter="url(#f1va2m2vf9kafz)" height="65.3125" style="stroke: #A80036; stroke-width: 1.875;" width="82.5" x="108.75" y="128.75"/><text fill="#000000" font-family="sans-serif" font-size="15" lengthAdjust="spacingAndGlyphs" textLength="65" x="117.5" y="146.8213">Mechanic</text><line style="stroke: #A80036; stroke-width: 1.875;" x1="110" x2="190" y1="152.6172" y2="152.6172"/><text fill="#000000" font-family="sans-serif" font-size="12.5" lengthAdjust="spacingAndGlyphs" textLength="33.75" x="116.25" y="170.5933">name</text><text fill="#000000" font-family="sans-serif" font-size="12.5" lengthAdjust="spacingAndGlyphs" textLength="15" x="116.25" y="186.3159">rol</text><rect fill="#FEFECE" filter="url(#f1va2m2vf9kafz)" height="81.0352" style="stroke: #A80036; stroke-width: 1.875;" width="96.25" x="219.375" y="408.75"/><text fill="#000000" font-family="sans-serif" font-size="15" lengthAdjust="spacingAndGlyphs" textLength="78.75" x="228.125" y="426.8213">Intervention</text><line style="stroke: #A80036; stroke-width: 1.875;" x1="220.625" x2="314.375" y1="432.6172" y2="432.6172"/><text fill="#000000" font-family="sans-serif" font-size="12.5" lengthAdjust="spacingAndGlyphs" textLength="65" x="226.875" y="450.5933">description</text><text fill="#000000" font-family="sans-serif" font-size="12.5" lengthAdjust="spacingAndGlyphs" textLength="47.5" x="226.875" y="466.3159">starHour</text><text fill="#000000" font-family="sans-serif" font-size="12.5" lengthAdjust="spacingAndGlyphs" textLength="50" x="226.875" y="482.0386">endHour</text><rect fill="#FEFECE" filter="url(#f1va2m2vf9kafz)" height="65.3125" style="stroke: #A80036; stroke-width: 1.875;" width="65" x="10" y="268.75"/><text fill="#000000" font-family="sans-serif" font-size="15" lengthAdjust="spacingAndGlyphs" textLength="40" x="22.5" y="286.8213">Client</text><line style="stroke: #A80036; stroke-width: 1.875;" x1="11.25" x2="73.75" y1="292.6172" y2="292.6172"/><text fill="#000000" font-family="sans-serif" font-size="12.5" lengthAdjust="spacingAndGlyphs" textLength="33.75" x="17.5" y="310.5933">name</text><text fill="#000000" font-family="sans-serif" font-size="12.5" lengthAdjust="spacingAndGlyphs" textLength="50" x="17.5" y="326.3159">surname</text><rect fill="#FEFECE" filter="url(#f1va2m2vf9kafz)" height="81.0352" style="stroke: #A80036; stroke-width: 1.875;" width="111.25" x="85.625" y="565"/><text fill="#000000" font-family="sans-serif" font-size="15" lengthAdjust="spacingAndGlyphs" textLength="50" x="116.25" y="583.0713">Vehicle</text><line style="stroke: #A80036; stroke-width: 1.875;" x1="86.875" x2="195.625" y1="588.8672" y2="588.8672"/><text fill="#000000" font-family="sans-serif" font-size="12.5" lengthAdjust="spacingAndGlyphs" textLength="96.25" x="93.125" y="606.8433">registrationPlate</text><text fill="#000000" font-family="sans-serif" font-size="12.5" lengthAdjust="spacingAndGlyphs" textLength="78.75" x="93.125" y="622.5659">lastITV : date</text><text fill="#000000" font-family="sans-serif" font-size="12.5" lengthAdjust="spacingAndGlyphs" textLength="83.75" x="93.125" y="638.2886">nextITV : date</text><rect fill="#FEFECE" filter="url(#f1va2m2vf9kafz)" height="65.3125" style="stroke: #A80036; stroke-width: 1.875;" width="118.75" x="208.125" y="268.75"/><text fill="#000000" font-family="sans-serif" font-size="15" lengthAdjust="spacingAndGlyphs" textLength="101.25" x="216.875" y="286.8213">RepairingPack</text><line style="stroke: #A80036; stroke-width: 1.875;" x1="209.375" x2="325.625" y1="292.6172" y2="292.6172"/><text fill="#000000" font-family="sans-serif" font-size="12.5" lengthAdjust="spacingAndGlyphs" textLength="71.25" x="215.625" y="310.5933">invoiceDate</text><text fill="#000000" font-family="sans-serif" font-size="12.5" lengthAdjust="spacingAndGlyphs" textLength="83.75" x="215.625" y="326.3159">invoicedHours</text><!--MD5=[05545293e16e408695ab19f19954eb9a]
reverse link AutomobileRepairShop to Mechanic--><path d="M111.5703,69.2875 C119.4919,87.9863 129.0678,110.59 136.6788,128.5563 " fill="none" id="AutomobileRepairShop&lt;-Mechanic" style="stroke: #A80036; stroke-width: 1.25;"/><polygon fill="#A80036" points="105.1258,54.0763,103.4477,62.9326,110.9773,67.8878,112.6554,59.0315,105.1258,54.0763" style="stroke: #A80036; stroke-width: 1.25;"/><text fill="#000000" font-family="sans-serif" font-size="16.25" lengthAdjust="spacingAndGlyphs" textLength="6.25" x="126.4203" y="115.034">*</text><!--MD5=[f5df0ce7097ab12593ec179e409c9598]
reverse link AutomobileRepairShop to Client--><path d="M88.7808,70.2112 C78.1311,123.0875 58.7719,219.2075 48.804,268.7 " fill="none" id="AutomobileRepairShop&lt;-Client" style="stroke: #A80036; stroke-width: 1.25;"/><polygon fill="#A80036" points="92.0324,54.0662,85.6505,60.4319,89.0719,68.7712,95.4538,62.4056,92.0324,54.0662" style="stroke: #A80036; stroke-width: 1.25;"/><text fill="#000000" font-family="sans-serif" font-size="16.25" lengthAdjust="spacingAndGlyphs" textLength="6.25" x="43.3289" y="255.2128">*</text><!--MD5=[c3c064959d75bf90d54a4576dfab5b8e]
reverse link Mechanic to Intervention--><path d="M207.3863,175.835 C254.5388,190.1488 318.3425,218.015 348.75,268.75 C376.255,314.6425 339.7663,371.46 307.2463,408.695 " fill="none" id="Mechanic&lt;-Intervention" style="stroke: #A80036; stroke-width: 1.25;"/><polygon fill="#A80036" points="191.4838,171.3213,197.334,178.1787,205.9141,175.4159,200.0638,168.5585,191.4838,171.3213" style="stroke: #A80036; stroke-width: 1.25;"/><text fill="#000000" font-family="sans-serif" font-size="16.25" lengthAdjust="spacingAndGlyphs" textLength="6.25" x="308.5494" y="395.1786">*</text><!--MD5=[10fc4cf26933b8fe96f32505068bcf8e]
link Mechanic to Vehicle--><path d="M149.3775,193.9238 C147.8563,270.7513 143.9438,468.3625 142.16,558.4219 " fill="none" id="Mechanic-&gt;Vehicle" style="stroke: #A80036; stroke-width: 1.25; stroke-dasharray: 7.0,7.0;"/><polygon fill="#A80036" points="142.035,564.7171,147.2568,553.5683,142.1588,558.4684,137.2588,553.3703,142.035,564.7171" style="stroke: #A80036; stroke-width: 1.25;"/><!--MD5=[c0612bb319c2bb9c9a121cf6e661d8b8]
link Mechanic to RepairingPack--><path d="M176.9563,194.045 C194.72,214.8325 218.0325,242.1125 236.5525,263.785 " fill="none" id="Mechanic-&gt;RepairingPack" style="stroke: #A80036; stroke-width: 1.25; stroke-dasharray: 7.0,7.0;"/><polygon fill="#A80036" points="240.6688,268.6012,237.1612,256.8004,236.6084,263.8499,229.5589,263.297,240.6688,268.6012" style="stroke: #A80036; stroke-width: 1.25;"/><!--MD5=[d7a9b2d155e4b5b6f200e5401ffe5b52]
link Mechanic to Client--><path d="M125.3374,194.045 C109.2225,214.6575 88.1159,241.6537 71.2413,263.2375 " fill="none" id="Mechanic-&gt;Client" style="stroke: #A80036; stroke-width: 1.25; stroke-dasharray: 7.0,7.0;"/><polygon fill="#A80036" points="67.0479,268.6012,77.9164,262.8187,70.8977,263.6777,70.0387,256.659,67.0479,268.6012" style="stroke: #A80036; stroke-width: 1.25;"/><!--MD5=[167c7246344a03b7a9b9ac52a0e7bb16]
reverse link Client to Vehicle--><path d="M57.957,349.7512 C77.2986,408.8775 110.079,509.0863 128.2124,564.5195 " fill="none" id="Client&lt;-Vehicle" style="stroke: #A80036; stroke-width: 1.25;"/><polygon fill="#A80036" points="52.8814,334.235,50.4617,342.918,57.5461,348.4912,59.9658,339.8082,52.8814,334.235" style="stroke: #A80036; stroke-width: 1.25;"/><text fill="#000000" font-family="sans-serif" font-size="16.25" lengthAdjust="spacingAndGlyphs" textLength="8.75" x="45.5203" y="361.0589">1</text><!--MD5=[bb201bb38b1319122f2150c2bf5e2133]
reverse link RepairingPack to Intervention--><path d="M267.5,350.4287 C267.5,369.1575 267.5,390.3825 267.5,408.2538 " fill="none" id="RepairingPack&lt;-Intervention" style="stroke: #A80036; stroke-width: 1.25;"/><polygon fill="#FFFFFF" points="267.5,334.0988,262.5,341.5988,267.5,349.0988,272.5,341.5988,267.5,334.0988" style="stroke: #A80036; stroke-width: 1.25;"/><text fill="#000000" font-family="sans-serif" font-size="16.25" lengthAdjust="spacingAndGlyphs" textLength="27.5" x="236.8203" y="360.8911">0..1</text><text fill="#000000" font-family="sans-serif" font-size="16.25" lengthAdjust="spacingAndGlyphs" textLength="6.25" x="260.6348" y="395.1226">*</text><!--MD5=[aec92a431b006b4ac4b9b8c95bf40422]
reverse link Intervention to Vehicle--><path d="M224.4163,503.0925 C207.7925,523.3379 189.1,546.1029 173.6525,564.9148 " fill="none" id="Intervention&lt;-Vehicle" style="stroke: #A80036; stroke-width: 1.25;"/><polygon fill="#FFFFFF" points="234.9875,490.22,226.3636,492.8427,225.4677,501.8119,234.0916,499.1892,234.9875,490.22" style="stroke: #A80036; stroke-width: 1.25;"/><text fill="#000000" font-family="sans-serif" font-size="16.25" lengthAdjust="spacingAndGlyphs" textLength="27.5" x="149.9996" y="551.3921">0..1</text><!--MD5=[47fb7dc467ca1fe1e2e4e3fd5b51cb83]
@startuml
object AutomobileRepairShop
object Mechanic {
    name
    rol
}
object Intervention {
    description
    starHour
    endHour
}
object Client {
    name
    surname
    
}
object Vehicle {
    registrationPlate
    lastITV : date
    nextITV : date
    
}
object RepairingPack {
    invoiceDate
    invoicedHours
}


AutomobileRepairShop *- - "*" Mechanic
AutomobileRepairShop *- - "*" Client
Mechanic *- - "*" Intervention
Mechanic ..> Vehicle
Mechanic ..> RepairingPack
Mechanic ..> Client
Client "1" *-down- Vehicle
RepairingPack "0..1" o- - "*" Intervention
Intervention o- - "0..1" Vehicle
@enduml

PlantUML version 1.2020.09(Sun May 10 12:51:06 CEST 2020)
(GPL source distribution)
Java Runtime: OpenJDK Runtime Environment
JVM: OpenJDK 64-Bit Server VM
Java Version: 11.0.8+10-b1094.1
Operating System: Windows 10
Default Encoding: Cp1252
Language: en
Country: GB
--></g></svg>