<?xml version="1.0" encoding="UTF-8" standalone="no"?><svg xmlns="http://www.w3.org/2000/svg" xmlns:xlink="http://www.w3.org/1999/xlink" contentScriptType="application/ecmascript" contentStyleType="text/css" height="461.25px" preserveAspectRatio="none" style="width:511px;height:461px;" version="1.1" viewBox="0 0 511 461" width="511.25px" zoomAndPan="magnify"><defs><filter height="300%" id="f1sxmzsa634ov0" width="300%" x="-1" y="-1"><feGaussianBlur result="blurOut" stdDeviation="2.5"/><feColorMatrix in="blurOut" result="blurOut2" type="matrix" values="0 0 0 0 0 0 0 0 0 0 0 0 0 0 0 0 0 0 .4 0"/><feOffset dx="5.0" dy="5.0" in="blurOut2" result="blurOut3"/><feBlend in="SourceGraphic" in2="blurOut3" mode="normal"/></filter></defs><g><ellipse cx="121.25" cy="22.5" fill="#000000" filter="url(#f1sxmzsa634ov0)" rx="12.5" ry="12.5" style="stroke: none; stroke-width: 1.25;"/><rect fill="#FEFECE" filter="url(#f1sxmzsa634ov0)" height="62.5" rx="15.625" ry="15.625" style="stroke: #A80036; stroke-width: 1.875;" width="220" x="11.25" y="110"/><line style="stroke: #A80036; stroke-width: 1.875;" x1="11.25" x2="231.25" y1="144.5117" y2="144.5117"/><text fill="#000000" font-family="sans-serif" font-size="17.5" lengthAdjust="spacingAndGlyphs" textLength="195" x="23.75" y="134.4165">ACTIVE_INTERVENTION</text><rect fill="#FEFECE" filter="url(#f1sxmzsa634ov0)" height="62.5" rx="15.625" ry="15.625" style="stroke: #A80036; stroke-width: 1.875;" width="227.5" x="7.5" y="247.5"/><line style="stroke: #A80036; stroke-width: 1.875;" x1="7.5" x2="235" y1="282.0117" y2="282.0117"/><text fill="#000000" font-family="sans-serif" font-size="17.5" lengthAdjust="spacingAndGlyphs" textLength="202.5" x="20" y="271.9165">PAUSED_INTERVENTION</text><rect fill="#FEFECE" filter="url(#f1sxmzsa634ov0)" height="62.5" rx="15.625" ry="15.625" style="stroke: #A80036; stroke-width: 1.875;" width="217.5" x="278.75" y="247.5"/><line style="stroke: #A80036; stroke-width: 1.875;" x1="278.75" x2="496.25" y1="282.0117" y2="282.0117"/><text fill="#000000" font-family="sans-serif" font-size="17.5" lengthAdjust="spacingAndGlyphs" textLength="192.5" x="291.25" y="271.9165">ENDED_INTERVENTION</text><rect fill="#FEFECE" filter="url(#f1sxmzsa634ov0)" height="62.5" rx="15.625" ry="15.625" style="stroke: #A80036; stroke-width: 1.875;" width="217.5" x="278.75" y="385"/><line style="stroke: #A80036; stroke-width: 1.875;" x1="278.75" x2="496.25" y1="419.5117" y2="419.5117"/><text fill="#000000" font-family="sans-serif" font-size="17.5" lengthAdjust="spacingAndGlyphs" textLength="192.5" x="291.25" y="409.4165">BILLED_INTERVENTION</text><!--MD5=[4a79ba69d14acca02142628f9e28da81]
link *start to ACTIVE_INTERVENTION--><path d="M121.25,35.3213 C121.25,51.07 121.25,79.9763 121.25,103.4288 " fill="none" id="*start-&gt;ACTIVE_INTERVENTION" style="stroke: #A80036; stroke-width: 1.25;"/><polygon fill="#A80036" points="121.25,109.8837,126.25,98.6337,121.25,103.6337,116.25,98.6337,121.25,109.8837" style="stroke: #A80036; stroke-width: 1.25;"/><!--MD5=[031294ee27d3c64b46ab7bb0aaeb4821]
link ACTIVE_INTERVENTION to PAUSED_INTERVENTION--><path d="M107.696,172.7963 C104.8116,192.9463 104.5451,219.5263 106.8966,240.8638 " fill="none" id="ACTIVE_INTERVENTION-&gt;PAUSED_INTERVENTION" style="stroke: #A80036; stroke-width: 1.25;"/><polygon fill="#A80036" points="107.7105,247.305,111.2633,235.5177,106.9283,241.1041,101.3419,236.7692,107.7105,247.305" style="stroke: #A80036; stroke-width: 1.25;"/><!--MD5=[f9f6e39b3c961e448ad27693944029d4]
link PAUSED_INTERVENTION to ACTIVE_INTERVENTION--><path d="M135.5863,247.305 C138.6488,227.1775 138.9413,200.5988 136.46,179.2438 " fill="none" id="PAUSED_INTERVENTION-&gt;ACTIVE_INTERVENTION" style="stroke: #A80036; stroke-width: 1.25;"/><polygon fill="#A80036" points="135.6013,172.7963,132.1335,184.6088,136.4281,178.9913,142.0456,183.2859,135.6013,172.7963" style="stroke: #A80036; stroke-width: 1.25;"/><!--MD5=[fce549af4b9c25a4857ef09dfa10ebf2]
link ACTIVE_INTERVENTION to ENDED_INTERVENTION--><path d="M180.67,172.6288 C222.7662,193.9725 279.22,222.5975 322.5125,244.5488 " fill="none" id="ACTIVE_INTERVENTION-&gt;ENDED_INTERVENTION" style="stroke: #A80036; stroke-width: 1.25;"/><polygon fill="#A80036" points="328.2612,247.4638,320.4898,237.9156,322.6872,244.6366,315.9663,246.834,328.2612,247.4638" style="stroke: #A80036; stroke-width: 1.25;"/><!--MD5=[8a533549e221f1ee94c475eaf063794e]
link ENDED_INTERVENTION to BILLED_INTERVENTION--><path d="M387.5,310.2963 C387.5,330.4456 387.5,357.0265 387.5,378.3639 " fill="none" id="ENDED_INTERVENTION-&gt;BILLED_INTERVENTION" style="stroke: #A80036; stroke-width: 1.25;"/><polygon fill="#A80036" points="387.5,384.8045,392.5,373.5545,387.5,378.5545,382.5,373.5545,387.5,384.8045" style="stroke: #A80036; stroke-width: 1.25;"/><!--MD5=[db9ee88ad13cfd16f154e0dda810a723]
@startuml
scale 350 width
[*] - -> ACTIVE_INTERVENTION
ACTIVE_INTERVENTION - -> PAUSED_INTERVENTION
PAUSED_INTERVENTION - -> ACTIVE_INTERVENTION
ACTIVE_INTERVENTION - -> ENDED_INTERVENTION
ENDED_INTERVENTION - -> BILLED_INTERVENTION
@enduml

PlantUML version 1.2020.09(Sun May 10 12:51:06 CEST 2020)
(GPL source distribution)
Java Runtime: OpenJDK Runtime Environment
JVM: OpenJDK 64-Bit Server VM
Java Version: 11.0.8+10-b1094.1
Operating System: Windows 10
Default Encoding: Cp1252
Language: en
Country: GB
--></g></svg>