<?xml version="1.0" encoding="UTF-8" standalone="no"?><svg xmlns="http://www.w3.org/2000/svg" xmlns:xlink="http://www.w3.org/1999/xlink" contentScriptType="application/ecmascript" contentStyleType="text/css" height="600px" preserveAspectRatio="none" style="width:1096px;height:600px;" version="1.1" viewBox="0 0 1096 600" width="1096.25px" zoomAndPan="magnify"><defs><filter height="300%" id="f1s6qnrfauapcy" width="300%" x="-1" y="-1"><feGaussianBlur result="blurOut" stdDeviation="2.5"/><feColorMatrix in="blurOut" result="blurOut2" type="matrix" values="0 0 0 0 0 0 0 0 0 0 0 0 0 0 0 0 0 0 .4 0"/><feOffset dx="5.0" dy="5.0" in="blurOut2" result="blurOut3"/><feBlend in="SourceGraphic" in2="blurOut3" mode="normal"/></filter></defs><g><!--MD5=[47b632a0e9a752ad76fa7b3c6f98a9fa]
cluster InterventionsManagement--><polygon fill="#FFFFFF" filter="url(#f1s6qnrfauapcy)" points="27.5,30,267.5,30,276.25,59.5117,1068.75,59.5117,1068.75,585,27.5,585,27.5,30" style="stroke: #000000; stroke-width: 1.875;"/><line style="stroke: #000000; stroke-width: 1.875;" x1="27.5" x2="276.25" y1="59.5117" y2="59.5117"/><text fill="#000000" font-family="sans-serif" font-size="17.5" font-weight="bold" lengthAdjust="spacingAndGlyphs" textLength="232.5" x="32.5" y="50.6665">InterventionsManagement</text><!--MD5=[370f09de3b578360a6dfb01a48af8db0]
entity mechanic--><ellipse cx="86.875" cy="140" fill="#FEFECE" filter="url(#f1s6qnrfauapcy)" rx="10" ry="10" style="stroke: #A80036; stroke-width: 1.875;"/><path d="M86.875,150 L86.875,183.75 M70.625,160 L103.125,160 M86.875,183.75 L70.625,202.5 M86.875,183.75 L103.125,202.5 " fill="none" filter="url(#f1s6qnrfauapcy)" style="stroke: #A80036; stroke-width: 1.875;"/><text fill="#000000" font-family="sans-serif" font-size="17.5" lengthAdjust="spacingAndGlyphs" textLength="75" x="49.375" y="227.5415">mechanic</text><!--MD5=[8fc3522a43f8c7199df5e09e5bb0188e]
entity user--><ellipse cx="288.75" cy="268.75" fill="#FEFECE" filter="url(#f1s6qnrfauapcy)" rx="10" ry="10" style="stroke: #A80036; stroke-width: 1.875;"/><path d="M288.75,278.75 L288.75,312.5 M272.5,288.75 L305,288.75 M288.75,312.5 L272.5,331.25 M288.75,312.5 L305,331.25 " fill="none" filter="url(#f1s6qnrfauapcy)" style="stroke: #A80036; stroke-width: 1.875;"/><text fill="#000000" font-family="sans-serif" font-size="17.5" lengthAdjust="spacingAndGlyphs" textLength="35" x="271.25" y="356.2915">user</text><!--MD5=[23e4898078453906b079a6bea7d1245c]
entity developer--><ellipse cx="86.875" cy="287.5" fill="#FEFECE" filter="url(#f1s6qnrfauapcy)" rx="10" ry="10" style="stroke: #A80036; stroke-width: 1.875;"/><path d="M86.875,297.5 L86.875,331.25 M70.625,307.5 L103.125,307.5 M86.875,331.25 L70.625,350 M86.875,331.25 L103.125,350 " fill="none" filter="url(#f1s6qnrfauapcy)" style="stroke: #A80036; stroke-width: 1.875;"/><text fill="#000000" font-family="sans-serif" font-size="17.5" lengthAdjust="spacingAndGlyphs" textLength="78.75" x="47.5" y="375.0415">developer</text><!--MD5=[8b5b27b5fa25497f0543505c197e77a5]
entity boss--><ellipse cx="86.875" cy="435" fill="#FEFECE" filter="url(#f1s6qnrfauapcy)" rx="10" ry="10" style="stroke: #A80036; stroke-width: 1.875;"/><path d="M86.875,445 L86.875,478.75 M70.625,455 L103.125,455 M86.875,478.75 L70.625,497.5 M86.875,478.75 L103.125,497.5 " fill="none" filter="url(#f1s6qnrfauapcy)" style="stroke: #A80036; stroke-width: 1.875;"/><text fill="#000000" font-family="sans-serif" font-size="17.5" lengthAdjust="spacingAndGlyphs" textLength="37.5" x="68.125" y="522.5415">boss</text><ellipse cx="623.7766" cy="274.8803" fill="#FEFECE" filter="url(#f1s6qnrfauapcy)" rx="93.7766" ry="21.7553" style="stroke: #A80036; stroke-width: 1.875;"/><text fill="#000000" font-family="sans-serif" font-size="17.5" lengthAdjust="spacingAndGlyphs" textLength="142.5" x="552.5266" y="281.5112">createIntervention</text><ellipse cx="623.4804" cy="187.3211" fill="#FEFECE" filter="url(#f1s6qnrfauapcy)" rx="90.3554" ry="21.0711" style="stroke: #A80036; stroke-width: 1.875;"/><text fill="#000000" font-family="sans-serif" font-size="17.5" lengthAdjust="spacingAndGlyphs" textLength="133.75" x="556.6054" y="193.9519">finishIntervention</text><ellipse cx="623.9078" cy="542.2816" fill="#FEFECE" filter="url(#f1s6qnrfauapcy)" rx="93.2828" ry="21.6566" style="stroke: #A80036; stroke-width: 1.875;"/><text fill="#000000" font-family="sans-serif" font-size="17.5" lengthAdjust="spacingAndGlyphs" textLength="141.25" x="553.2828" y="548.9124">openInterventions</text><ellipse cx="288.5895" cy="533.9679" fill="#FEFECE" filter="url(#f1s6qnrfauapcy)" rx="86.0895" ry="20.2179" style="stroke: #A80036; stroke-width: 1.875;"/><text fill="#000000" font-family="sans-serif" font-size="17.5" lengthAdjust="spacingAndGlyphs" textLength="122.5" x="227.3395" y="540.5988">billInterventions</text><ellipse cx="623.6496" cy="98.4799" fill="#FEFECE" filter="url(#f1s6qnrfauapcy)" rx="102.3996" ry="23.4799" style="stroke: #A80036; stroke-width: 1.875;"/><text fill="#000000" font-family="sans-serif" font-size="17.5" lengthAdjust="spacingAndGlyphs" textLength="163.75" x="541.7746" y="105.1108">openMyInterventions</text><ellipse cx="623.6477" cy="453.6045" fill="#FEFECE" filter="url(#f1s6qnrfauapcy)" rx="96.7727" ry="22.3545" style="stroke: #A80036; stroke-width: 1.875;"/><text fill="#000000" font-family="sans-serif" font-size="17.5" lengthAdjust="spacingAndGlyphs" textLength="150" x="548.6477" y="460.2354">pauseInterventions</text><ellipse cx="623.974" cy="363.7948" fill="#FEFECE" filter="url(#f1s6qnrfauapcy)" rx="100.849" ry="23.1698" style="stroke: #A80036; stroke-width: 1.875;"/><text fill="#000000" font-family="sans-serif" font-size="17.5" lengthAdjust="spacingAndGlyphs" textLength="160" x="543.974" y="370.4257">resumeInterventions</text><ellipse cx="960.4657" cy="231.2181" fill="#FEFECE" filter="url(#f1s6qnrfauapcy)" rx="87.9657" ry="20.5931" style="stroke: #A80036; stroke-width: 1.875;"/><text fill="#000000" font-family="sans-serif" font-size="17.5" lengthAdjust="spacingAndGlyphs" textLength="127.5" x="896.7157" y="237.849">openDashboard</text><!--MD5=[806725e63a06202b8f6954a33e7c0646]
link mechanic to user--><path d="M124.6935,203.615 C159.9363,226.3737 213.06,260.6788 248.9538,283.8575 " fill="none" id="mechanic-&gt;user" style="stroke: #A80036; stroke-width: 1.25;"/><polygon fill="none" points="253.9013,276.6363,270.155,297.55,244.4075,291.3375,253.9013,276.6363" style="stroke: #A80036; stroke-width: 1.25;"/><!--MD5=[19550f970e569750a7f66dff6d65690d]
link developer to user--><path d="M126.5665,323.885 C160.6838,320.6763 210.425,315.9988 245.56,312.6938 " fill="none" id="developer-&gt;user" style="stroke: #A80036; stroke-width: 1.25;"/><polygon fill="none" points="244.7925,303.9775,270.5013,310.3488,246.43,321.4013,244.7925,303.9775" style="stroke: #A80036; stroke-width: 1.25;"/><!--MD5=[1189ae1120c3e4545cfcfdabb690b8fe]
link boss to user--><path d="M105.8183,460.2463 C138.2663,433.19 207.9013,375.1238 250.9163,339.255 " fill="none" id="boss-&gt;user" style="stroke: #A80036; stroke-width: 1.25;"/><polygon fill="none" points="245.3263,332.5238,270.1312,323.2338,256.5338,345.9637,245.3263,332.5238" style="stroke: #A80036; stroke-width: 1.25;"/><!--MD5=[5a9293b0230f56a870e058464ad8c388]
link user to createIntervention--><path d="M306.9462,307.03 C347.6213,302.9013 453.1788,292.1863 531.06,284.2813 " fill="none" id="user-&gt;createIntervention" style="stroke: #A80036; stroke-width: 1.25;"/><polygon fill="#A80036" points="537.5613,283.6213,525.8632,279.7848,531.3433,284.2534,526.8747,289.7335,537.5613,283.6213" style="stroke: #A80036; stroke-width: 1.25;"/><!--MD5=[2f1cf365634b755ae8a0c9a0859376dd]
link user to finishIntervention--><path d="M306.9462,302.57 C354.5387,285.215 490.9575,235.4688 567.9388,207.3962 " fill="none" id="user-&gt;finishIntervention" style="stroke: #A80036; stroke-width: 1.25;"/><polygon fill="#A80036" points="573.8313,205.2475,561.5489,204.4075,567.96,207.3903,564.9773,213.8015,573.8313,205.2475" style="stroke: #A80036; stroke-width: 1.25;"/><!--MD5=[1aab96344c36eda289d1c02fe2af02c2]
link boss to openInterventions--><path d="M105.6638,474.8438 C161.4575,474.6513 339.6425,476.3775 483.75,503.75 C509.6863,508.6764 537.8225,516.1283 561.9363,523.1853 " fill="none" id="boss-&gt;openInterventions" style="stroke: #A80036; stroke-width: 1.25;"/><polygon fill="#A80036" points="567.9762,524.9691,558.6025,516.9882,561.982,523.1994,555.7709,526.579,567.9762,524.9691" style="stroke: #A80036; stroke-width: 1.25;"/><!--MD5=[ab68ecb15e325a144a2235474211143c]
link developer to openInterventions--><path d="M126.3561,347.005 C148.385,357.9613 176.735,371.5825 202.5,382.5 C325.1738,434.4838 359.4975,438.16 483.75,486.25 C512.7088,497.4581 544.8563,510.4551 570.9087,521.1306 " fill="none" id="developer-&gt;openInterventions" style="stroke: #A80036; stroke-width: 1.25;"/><polygon fill="#A80036" points="576.7113,523.5111,568.1998,514.6163,570.9287,521.1396,564.4054,523.8684,576.7113,523.5111" style="stroke: #A80036; stroke-width: 1.25;"/><!--MD5=[22ded3b36092dd494a186b5d5f9c9ef9]
link boss to billInterventions--><path d="M105.8183,480.2136 C133.0688,488.2435 186.5463,504.002 228.4588,516.3521 " fill="none" id="boss-&gt;billInterventions" style="stroke: #A80036; stroke-width: 1.25;"/><polygon fill="#A80036" points="234.5538,518.1483,225.1773,510.1705,228.559,516.3805,222.3489,519.7621,234.5538,518.1483" style="stroke: #A80036; stroke-width: 1.25;"/><!--MD5=[1c1c5a9944a20bf94908c2a7a83da97b]
link user to openMyInterventions--><path d="M307.1738,294.6375 C344.4925,264.4013 436.4563,192.185 521.25,143.75 C535.1113,135.8325 550.625,128.32 565.2638,121.7813 " fill="none" id="user-&gt;openMyInterventions" style="stroke: #A80036; stroke-width: 1.25;"/><polygon fill="#A80036" points="571.0413,119.23,558.7302,119.2021,565.3242,121.7554,562.7709,128.3494,571.0413,119.23" style="stroke: #A80036; stroke-width: 1.25;"/><!--MD5=[24b71ec5973959dba65258ee4649dd60]
link user to pauseInterventions--><path d="M306.9462,316.14 C355.1838,337.1763 494.6713,398.005 571.035,431.3063 " fill="none" id="user-&gt;pauseInterventions" style="stroke: #A80036; stroke-width: 1.25;"/><polygon fill="#A80036" points="576.8725,433.8525,568.5591,424.7723,571.1436,431.3541,564.5617,433.9386,576.8725,433.8525" style="stroke: #A80036; stroke-width: 1.25;"/><!--MD5=[ddb3c13d0091b8923213128b5acee654]
link user to resumeInterventions--><path d="M306.9462,311.5525 C348.3288,318.3988 456.8725,336.3525 535.1013,349.2925 " fill="none" id="user-&gt;resumeInterventions" style="stroke: #A80036; stroke-width: 1.25;"/><polygon fill="#A80036" points="541.625,350.3725,531.3415,343.6041,535.4587,349.3528,529.71,353.4701,541.625,350.3725" style="stroke: #A80036; stroke-width: 1.25;"/><!--MD5=[bca3bc745c23a89e39fecdf2c81c9150]
link createIntervention to openDashboard--><path d="M717.4813,276.625 C754.255,275.99 796.8213,273.6475 835,267.5 C858.3413,263.7413 883.485,256.9575 905.0138,250.2663 " fill="none" id="createIntervention-&gt;openDashboard" style="stroke: #A80036; stroke-width: 1.25; stroke-dasharray: 7.0,7.0;"/><polygon fill="#A80036" points="910.9862,248.385,898.7536,246.9978,905.0253,250.2637,901.7594,256.5353,910.9862,248.385" style="stroke: #A80036; stroke-width: 1.25;"/><text fill="#000000" font-family="sans-serif" font-size="16.25" lengthAdjust="spacingAndGlyphs" textLength="68.75" x="765" y="263.1189">«include»</text><!--MD5=[d2795f49a750a43189bd190249d74c6b]
link finishIntervention to openDashboard--><path d="M703.3963,197.7575 C755.5188,204.5775 823.8613,213.5188 876.8175,220.4487 " fill="none" id="finishIntervention-&gt;openDashboard" style="stroke: #A80036; stroke-width: 1.25; stroke-dasharray: 7.0,7.0;"/><polygon fill="#A80036" points="883.1975,221.2825,872.6928,214.8627,877.0005,220.4702,871.3931,224.7779,883.1975,221.2825" style="stroke: #A80036; stroke-width: 1.25;"/><text fill="#000000" font-family="sans-serif" font-size="16.25" lengthAdjust="spacingAndGlyphs" textLength="68.75" x="765" y="203.1189">«include»</text><!--MD5=[3ab980604411c22e001c1df3db41fc58]
link billInterventions to openInterventions--><path d="M374.7637,535.9806 C420.43,537.1824 476.9938,538.6709 524.5387,539.9221 " fill="none" id="billInterventions-&gt;openInterventions" style="stroke: #A80036; stroke-width: 1.25; stroke-dasharray: 7.0,7.0;"/><polygon fill="#A80036" points="530.8863,540.0891,519.7716,534.7951,524.6384,539.9248,519.5087,544.7917,530.8863,540.0891" style="stroke: #A80036; stroke-width: 1.25;"/><text fill="#000000" font-family="sans-serif" font-size="16.25" lengthAdjust="spacingAndGlyphs" textLength="68.75" x="413.75" y="531.8689">«include»</text><!--MD5=[27f7ddad05d9c7debd68f8f9572c05fd]
@startuml
left to right direction

package InterventionsManagement {
:mechanic: - -|> :user:
:developer: - -|> :user:
:boss: - -|> :user:

:user: - -> (createIntervention)
:user: - -> (finishIntervention)
:boss: - -> (openInterventions)
:developer: - - -> (openInterventions)
:boss: - -> (billInterventions)
:user: - -> (openMyInterventions)
:user: - -> (pauseInterventions)
:user: - -> (resumeInterventions)
(createIntervention) ..> (openDashboard) : <<include>>
(finishIntervention) ..> (openDashboard) : <<include>>
(billInterventions) ..> (openInterventions) : <<include>>
}
@enduml

PlantUML version 1.2020.09(Sun May 10 12:51:06 CEST 2020)
(GPL source distribution)
Java Runtime: OpenJDK Runtime Environment
JVM: OpenJDK 64-Bit Server VM
Java Version: 11.0.8+10-b1094.1
Operating System: Windows 10
Default Encoding: Cp1252
Language: en
Country: GB
--></g></svg>