<?xml version="1.0" encoding="UTF-8" standalone="no"?><svg xmlns="http://www.w3.org/2000/svg" xmlns:xlink="http://www.w3.org/1999/xlink" contentScriptType="application/ecmascript" contentStyleType="text/css" height="698.75px" preserveAspectRatio="none" style="width:1432px;height:698px;" version="1.1" viewBox="0 0 1432 698" width="1432.5px" zoomAndPan="magnify"><defs><filter height="300%" id="fy2ojnicq5340" width="300%" x="-1" y="-1"><feGaussianBlur result="blurOut" stdDeviation="2.5"/><feColorMatrix in="blurOut" result="blurOut2" type="matrix" values="0 0 0 0 0 0 0 0 0 0 0 0 0 0 0 0 0 0 .4 0"/><feOffset dx="5.0" dy="5.0" in="blurOut2" result="blurOut3"/><feBlend in="SourceGraphic" in2="blurOut3" mode="normal"/></filter></defs><g><!--MD5=[b843a707a9d29bfe6172f1502199d263]
entity XView--><path d="M319.375,16.875 L319.375,46.875 M319.375,31.875 L340.625,31.875 " fill="none" filter="url(#fy2ojnicq5340)" style="stroke: #000000; stroke-width: 2.5;"/><ellipse cx="355.625" cy="31.875" fill="#9FB7E5" filter="url(#fy2ojnicq5340)" rx="15" ry="15" style="stroke: #000000; stroke-width: 2.5;"/><text fill="#000000" font-family="sans-serif" font-size="15" lengthAdjust="spacingAndGlyphs" textLength="41.25" x="324.375" y="67.4463">XView</text><!--MD5=[a91319e7cfad8d66707571e19cb9c3d9]
entity XController--><ellipse cx="820" cy="30" fill="#C4E4AB" filter="url(#fy2ojnicq5340)" rx="15" ry="15" style="stroke: #718C00; stroke-width: 2.5;"/><polygon fill="#718C00" points="815,15,822.5,8.75,820,15,822.5,21.25,815,15" style="stroke: #718C00; stroke-width: 1.25;"/><text fill="#000000" font-family="sans-serif" font-size="17.5" lengthAdjust="spacingAndGlyphs" textLength="87.5" x="776.25" y="68.1665">XController</text><!--MD5=[d1b0dfd0ce39cb18e38dc74678584e70]
entity XEntity--><ellipse cx="713.75" cy="267.5" fill="#F8D987" filter="url(#fy2ojnicq5340)" rx="15" ry="15" style="stroke: #000000; stroke-width: 2.5;"/><line style="stroke: #000000; stroke-width: 2.5;" x1="698.75" x2="728.75" y1="285" y2="285"/><text fill="#000000" font-family="sans-serif" font-size="17.5" lengthAdjust="spacingAndGlyphs" textLength="53.75" x="686.875" y="305.6665">XEntity</text><!--MD5=[cd754f8d81a38742ce1362595dcde55c]
entity XEntities--><ellipse cx="1171.25" cy="30" fill="#F8D987" filter="url(#fy2ojnicq5340)" rx="15" ry="15" style="stroke: #000000; stroke-width: 2.5;"/><line style="stroke: #000000; stroke-width: 2.5;" x1="1156.25" x2="1186.25" y1="47.5" y2="47.5"/><text fill="#000000" font-family="sans-serif" font-size="17.5" lengthAdjust="spacingAndGlyphs" textLength="67.5" x="1137.5" y="68.1665">XEntities</text><!--MD5=[69e620827fd35227d329e8118e6b893e]
entity XStyle--><path d="M24.375,393.125 L24.375,423.125 M24.375,408.125 L45.625,408.125 " fill="none" filter="url(#fy2ojnicq5340)" style="stroke: #000000; stroke-width: 2.5;"/><ellipse cx="60.625" cy="408.125" fill="#629EF9" filter="url(#fy2ojnicq5340)" rx="15" ry="15" style="stroke: #000000; stroke-width: 2.5;"/><text fill="#000000" font-family="sans-serif" font-size="15" lengthAdjust="spacingAndGlyphs" textLength="85" x="7.5" y="443.6963">XStyle - CSS</text><!--MD5=[e1959f9d6eaaeb2bbab4621b2f4b0ce0]
entity XTemplate--><path d="M171.875,393.125 L171.875,423.125 M171.875,408.125 L193.125,408.125 " fill="none" filter="url(#fy2ojnicq5340)" style="stroke: #000000; stroke-width: 2.5;"/><ellipse cx="208.125" cy="408.125" fill="#629EF9" filter="url(#fy2ojnicq5340)" rx="15" ry="15" style="stroke: #000000; stroke-width: 2.5;"/><text fill="#000000" font-family="sans-serif" font-size="15" lengthAdjust="spacingAndGlyphs" textLength="122.5" x="136.25" y="443.6963">XTemplate - xhtml</text><!--MD5=[3e43e042c3fe4f7558132f5e4ace8cc0]
entity XBean--><path d="M319.375,393.125 L319.375,423.125 M319.375,408.125 L340.625,408.125 " fill="none" filter="url(#fy2ojnicq5340)" style="stroke: #000000; stroke-width: 2.5;"/><ellipse cx="355.625" cy="408.125" fill="#629EF9" filter="url(#fy2ojnicq5340)" rx="15" ry="15" style="stroke: #000000; stroke-width: 2.5;"/><text fill="#000000" font-family="sans-serif" font-size="15" lengthAdjust="spacingAndGlyphs" textLength="85" x="302.5" y="443.6963">XBean - java</text><!--MD5=[c6fb24700750cfff68f5131225d532fb]
entity XApiController--><ellipse cx="950" cy="406.25" fill="#B5BD68" filter="url(#fy2ojnicq5340)" rx="15" ry="15" style="stroke: #718C00; stroke-width: 2.5;"/><polygon fill="#718C00" points="945,391.25,952.5,385,950,391.25,952.5,397.5,945,391.25" style="stroke: #718C00; stroke-width: 1.25;"/><text fill="#000000" font-family="sans-serif" font-size="17.5" lengthAdjust="spacingAndGlyphs" textLength="161.25" x="869.375" y="444.4165">XApiController - java</text><!--MD5=[bbf0f880fd942a65300bd135fa224f6b]
entity XBusinessController--><ellipse cx="1178.75" cy="406.25" fill="#B5BD68" filter="url(#fy2ojnicq5340)" rx="15" ry="15" style="stroke: #718C00; stroke-width: 2.5;"/><polygon fill="#718C00" points="1173.75,391.25,1181.25,385,1178.75,391.25,1181.25,397.5,1173.75,391.25" style="stroke: #718C00; stroke-width: 1.25;"/><text fill="#000000" font-family="sans-serif" font-size="17.5" lengthAdjust="spacingAndGlyphs" textLength="207.5" x="1075" y="444.4165">XBusinessController - java</text><!--MD5=[ebe48896ccc091e048fe88d7e89d9f4d]
entity XGateway--><ellipse cx="495" cy="406.25" fill="#B5BD68" filter="url(#fy2ojnicq5340)" rx="15" ry="15" style="stroke: #718C00; stroke-width: 2.5;"/><polygon fill="#718C00" points="490,391.25,497.5,385,495,391.25,497.5,397.5,490,391.25" style="stroke: #718C00; stroke-width: 1.25;"/><text fill="#000000" font-family="sans-serif" font-size="17.5" lengthAdjust="spacingAndGlyphs" textLength="127.5" x="431.25" y="444.4165">XGateway - java</text><!--MD5=[bb7c449e9d49406d49b3614b1de06c6d]
entity XDao--><ellipse cx="1372.5" cy="406.25" fill="#F2AC4E" filter="url(#fy2ojnicq5340)" rx="15" ry="15" style="stroke: #000000; stroke-width: 2.5;"/><line style="stroke: #000000; stroke-width: 2.5;" x1="1357.5" x2="1387.5" y1="423.75" y2="423.75"/><text fill="#000000" font-family="sans-serif" font-size="17.5" lengthAdjust="spacingAndGlyphs" textLength="91.25" x="1326.875" y="444.4165">XDao - java</text><!--MD5=[69e49715a4c359aea4a800f263690fc5]
entity XDto--><ellipse cx="556.25" cy="643.75" fill="#F2AC4E" filter="url(#fy2ojnicq5340)" rx="15" ry="15" style="stroke: #000000; stroke-width: 2.5;"/><line style="stroke: #000000; stroke-width: 2.5;" x1="541.25" x2="571.25" y1="661.25" y2="661.25"/><text fill="#000000" font-family="sans-serif" font-size="17.5" lengthAdjust="spacingAndGlyphs" textLength="106.25" x="503.125" y="681.9165">XModel - java</text><!--MD5=[a6f8c75b3f75492d1ec2b2e54a455b92]
entity XDto2--><ellipse cx="802.5" cy="643.75" fill="#F2AC4E" filter="url(#fy2ojnicq5340)" rx="15" ry="15" style="stroke: #000000; stroke-width: 2.5;"/><line style="stroke: #000000; stroke-width: 2.5;" x1="787.5" x2="817.5" y1="661.25" y2="661.25"/><text fill="#000000" font-family="sans-serif" font-size="17.5" lengthAdjust="spacingAndGlyphs" textLength="86.25" x="759.375" y="681.9165">XDto - java</text><!--MD5=[fd32a81c2404801ffd3250cd88dc7b13]
entity XModel--><ellipse cx="1046.25" cy="643.75" fill="#F2AC4E" filter="url(#fy2ojnicq5340)" rx="15" ry="15" style="stroke: #000000; stroke-width: 2.5;"/><line style="stroke: #000000; stroke-width: 2.5;" x1="1031.25" x2="1061.25" y1="661.25" y2="661.25"/><text fill="#000000" font-family="sans-serif" font-size="17.5" lengthAdjust="spacingAndGlyphs" textLength="102.5" x="995" y="681.9165">XEntity - java</text><!--MD5=[50a2f9fbc7f4e317ae9a157602683354]
link XView to XController--><path d="M375.9038,41.25 C421.9825,41.25 503.3337,41.25 503.3337,41.25 C503.3337,41.25 661.6663,41.25 661.6663,41.25 C661.6663,41.25 722.8775,41.25 769.1813,41.25 " fill="none" id="XView-&gt;XController" style="stroke: #A80036; stroke-width: 1.25;"/><polygon fill="#A80036" points="775.895,41.25,764.645,36.25,769.645,41.25,764.645,46.25,775.895,41.25" style="stroke: #A80036; stroke-width: 1.25;"/><!--MD5=[c96254998bffdc37543dfcfe42650edb]
link XController to XEntity--><path d="M806.3275,72.7412 C786.8025,115.925 750.99,195.1338 730.0925,241.355 " fill="none" id="XController-&gt;XEntity" style="stroke: #A80036; stroke-width: 1.25;"/><polygon fill="#A80036" points="727.37,247.375,736.5611,239.1843,729.9451,241.6801,727.4493,235.0642,727.37,247.375" style="stroke: #A80036; stroke-width: 1.25;"/><!--MD5=[1f68c671bc902a1c4247cc12881887ba]
link XController to XEntities--><path d="M863.93,41.25 C897.1538,41.25 937.0838,41.25 937.0838,41.25 C937.0838,41.25 1054.1663,41.25 1054.1663,41.25 C1054.1663,41.25 1096.9163,41.25 1130.7513,41.25 " fill="none" id="XController-&gt;XEntities" style="stroke: #A80036; stroke-width: 1.25;"/><polygon fill="#A80036" points="1137.385,41.25,1126.135,36.25,1131.135,41.25,1126.135,46.25,1137.385,41.25" style="stroke: #A80036; stroke-width: 1.25;"/><!--MD5=[4de373271ed25b31c9e00bfbe01109ae]
link XView to XEntity--><path d="M372.5662,70.9138 C418.9275,118.7025 507.5,210 507.5,210 C507.5,210 622.3575,247.59 680.6488,266.6663 " fill="none" id="XView-&gt;XEntity" style="stroke: #A80036; stroke-width: 1.25;"/><polygon fill="#A80036" points="686.7863,268.675,677.6483,260.4251,680.846,266.7318,674.5393,269.9295,686.7863,268.675" style="stroke: #A80036; stroke-width: 1.25;"/><!--MD5=[434ae80786ffddc1adc857a584c1c241]
reverse link XView to XTemplate--><path d="M329.265,76.9375 C309.6725,119.82 278.75,187.5 278.75,187.5 C278.75,187.5 229.4063,326.4213 207.6263,387.7413 " fill="none" id="XView&lt;-XTemplate" style="stroke: #808080; stroke-width: 1.25; stroke-dasharray: 7.0,7.0;"/><polygon fill="#808080" points="332.0687,70.8013,322.8464,78.9566,329.4719,76.4862,331.9423,83.1117,332.0687,70.8013" style="stroke: #808080; stroke-width: 1.25;"/><text fill="#000000" font-family="sans-serif" font-size="16.25" lengthAdjust="spacingAndGlyphs" textLength="53.75" x="280" y="205.6189">«trace»</text><!--MD5=[dd13b8f21bdf94be4093cbad622a6385]
reverse link XView to XStyle--><path d="M313.2663,75.3675 C271.9625,118.145 205,187.5 205,187.5 C205,187.5 110.868,326.4213 69.3175,387.7413 " fill="none" id="XView&lt;-XStyle" style="stroke: #808080; stroke-width: 1.25; stroke-dasharray: 7.0,7.0;"/><polygon fill="#808080" points="317.6738,70.8013,306.2627,75.4219,313.3327,75.2977,313.457,82.3676,317.6738,70.8013" style="stroke: #808080; stroke-width: 1.25;"/><text fill="#000000" font-family="sans-serif" font-size="16.25" lengthAdjust="spacingAndGlyphs" textLength="53.75" x="206.25" y="205.6189">«trace»</text><!--MD5=[ad0a9a327dfb0dde2502ddd70b0fda44]
reverse link XView to XBean--><path d="M345,77.6087 C345,151.2675 345,320.675 345,387.9563 " fill="none" id="XView&lt;-XBean" style="stroke: #808080; stroke-width: 1.25; stroke-dasharray: 7.0,7.0;"/><polygon fill="#808080" points="345,71.2075,340,82.4575,345,77.4575,350,82.4575,345,71.2075" style="stroke: #808080; stroke-width: 1.25;"/><text fill="#000000" font-family="sans-serif" font-size="16.25" lengthAdjust="spacingAndGlyphs" textLength="53.75" x="346.25" y="205.6189">«trace»</text><!--MD5=[077052d3e712a7d29586dd38bad12772]
reverse link XController to XGateway--><path d="M786.265,77.13 C744.4825,120.0225 678.75,187.5 678.75,187.5 C678.75,187.5 569.3838,323.6487 519.4,385.8738 " fill="none" id="XController&lt;-XGateway" style="stroke: #808080; stroke-width: 1.25; stroke-dasharray: 7.0,7.0;"/><polygon fill="#808080" points="790.7325,72.5438,779.301,77.1137,786.3715,77.0208,786.4644,84.0913,790.7325,72.5438" style="stroke: #808080; stroke-width: 1.25;"/><text fill="#000000" font-family="sans-serif" font-size="16.25" lengthAdjust="spacingAndGlyphs" textLength="53.75" x="680" y="205.6189">«trace»</text><!--MD5=[8378eb86587e7c0d65c10cc493410c6c]
reverse link XEntity to XDto--><path d="M698.4725,316.255 C667.4475,389.8763 597.5863,555.66 568.905,623.72 " fill="none" id="XEntity&lt;-XDto" style="stroke: #808080; stroke-width: 1.25; stroke-dasharray: 7.0,7.0;"/><polygon fill="#808080" points="700.995,310.2687,692.0197,318.6952,698.5686,316.0285,701.2353,322.5775,700.995,310.2687" style="stroke: #808080; stroke-width: 1.25;"/><text fill="#000000" font-family="sans-serif" font-size="16.25" lengthAdjust="spacingAndGlyphs" textLength="53.75" x="628.75" y="504.3689">«trace»</text><!--MD5=[463ad371560d199c47707c1ddcb6fd8f]
reverse link XController to XApiController--><path d="M832.61,78.755 C858.2175,152.3763 915.8813,318.16 939.555,386.22 " fill="none" id="XController&lt;-XApiController" style="stroke: #808080; stroke-width: 1.25; stroke-dasharray: 7.0,7.0;"/><polygon fill="#808080" points="830.5288,72.7687,829.5024,85.037,832.5821,78.6718,838.9473,81.7515,830.5288,72.7687" style="stroke: #808080; stroke-width: 1.25;"/><text fill="#000000" font-family="sans-serif" font-size="16.25" lengthAdjust="spacingAndGlyphs" textLength="53.75" x="878.75" y="205.6189">«trace»</text><!--MD5=[9465d0e5a19a9f8690e92acad9d04204]
reverse link XController to XBusinessController--><path d="M853.5325,77.435 C923.545,150.375 1084.2025,317.75 1149.925,386.22 " fill="none" id="XController&lt;-XBusinessController" style="stroke: #808080; stroke-width: 1.25; stroke-dasharray: 7.0,7.0;"/><polygon fill="#808080" points="849.0538,72.7687,853.2354,84.3479,853.3811,77.2783,860.4507,77.424,849.0538,72.7687" style="stroke: #808080; stroke-width: 1.25;"/><text fill="#000000" font-family="sans-serif" font-size="16.25" lengthAdjust="spacingAndGlyphs" textLength="53.75" x="981.25" y="205.6189">«trace»</text><!--MD5=[e6913fe88019ccc0d1c529f33aa1fb4a]
reverse link XEntity to XDto2--><path d="M721.3938,316.8113 C734.825,381.4913 761.25,508.75 761.25,508.75 C761.25,508.75 781.87,581.2345 793.9525,623.7059 " fill="none" id="XEntity&lt;-XDto2" style="stroke: #808080; stroke-width: 1.25; stroke-dasharray: 7.0,7.0;"/><polygon fill="#808080" points="720.0575,310.3762,717.4471,322.4074,721.3272,316.4959,727.2386,320.376,720.0575,310.3762" style="stroke: #808080; stroke-width: 1.25;"/><text fill="#000000" font-family="sans-serif" font-size="16.25" lengthAdjust="spacingAndGlyphs" textLength="53.75" x="762.5" y="504.3689">«trace»</text><!--MD5=[841edb66dd8576d57f059c082709cc7f]
reverse link XEntity to XModel--><path d="M741.8363,315.4363 C781.0625,364.9275 847.5,448.75 847.5,448.75 C847.5,448.75 961.6375,566.4774 1016.9237,623.5015 " fill="none" id="XEntity&lt;-XModel" style="stroke: #808080; stroke-width: 1.25; stroke-dasharray: 7.0,7.0;"/><polygon fill="#808080" points="737.6613,310.1688,740.7305,322.0911,741.5433,315.0669,748.5675,315.8797,737.6613,310.1688" style="stroke: #808080; stroke-width: 1.25;"/><text fill="#000000" font-family="sans-serif" font-size="16.25" lengthAdjust="spacingAndGlyphs" textLength="53.75" x="906.25" y="504.3689">«trace»</text><!--MD5=[0c542b00a3d30ca5821688326fa9d3f4]
reverse link XEntities to XDao--><path d="M1190.5338,78.3125 C1230.055,151.71 1319.6125,318.0225 1356.325,386.22 " fill="none" id="XEntities&lt;-XDao" style="stroke: #808080; stroke-width: 1.25; stroke-dasharray: 7.0,7.0;"/><polygon fill="#808080" points="1187.5488,72.7687,1188.48,85.0445,1190.5119,78.2717,1197.2847,80.3036,1187.5488,72.7687" style="stroke: #808080; stroke-width: 1.25;"/><text fill="#000000" font-family="sans-serif" font-size="16.25" lengthAdjust="spacingAndGlyphs" textLength="53.75" x="1262.5" y="205.6189">«trace»</text><!--MD5=[1ad8b6e3ce4868a98c635063f7a836a0]
link XTemplate to XBean--><path d="M259.0737,417.5 C273.6388,417.5 295.8338,417.5 295.8338,417.5 C295.8338,417.5 295.8725,417.5 295.95,417.5 " fill="none" id="XTemplate-&gt;XBean" style="stroke: #A80036; stroke-width: 1.25;"/><polygon fill="#A80036" points="302.2613,417.5,291.0113,412.5,296.0113,417.5,291.0113,422.5,302.2613,417.5" style="stroke: #A80036; stroke-width: 1.25;"/><!--MD5=[0a96750e8c3bca69099d2acee725ea54]
reverse link XStyle to XTemplate--><path d="M99.0506,417.5 C99.1273,417.5 99.1666,417.5 99.1666,417.5 C99.1666,417.5 121.3613,417.5 135.9263,417.5 " fill="none" id="XStyle&lt;-XTemplate" style="stroke: #A80036; stroke-width: 1.25;"/><polygon fill="#A80036" points="92.739,417.5,103.989,422.5,98.989,417.5,103.989,412.5,92.739,417.5" style="stroke: #A80036; stroke-width: 1.25;"/><!--MD5=[4a81e3764077e8943470940a86b32ca3]
link XBean to XDto--><path d="M370.4813,447.0963 C409.1275,490.0875 482.4988,571.7071 524.5413,618.4761 " fill="none" id="XBean-&gt;XDto" style="stroke: #A80036; stroke-width: 1.25;"/><polygon fill="#A80036" points="529.0088,623.4461,525.2063,611.737,524.8305,618.7981,517.7694,618.4222,529.0088,623.4461" style="stroke: #A80036; stroke-width: 1.25;"/><!--MD5=[c7acfa08dcd589d90119835bdd84e675]
link XBean to XGateway--><path d="M387.6225,417.5 C392.0675,417.5 395,417.5 395,417.5 C395,417.5 410.5263,417.5 424.275,417.5 " fill="none" id="XBean-&gt;XGateway" style="stroke: #A80036; stroke-width: 1.25;"/><polygon fill="#A80036" points="430.8063,417.5,419.5563,412.5,424.5563,417.5,419.5563,422.5,430.8063,417.5" style="stroke: #A80036; stroke-width: 1.25;"/><!--MD5=[185957532b416e8b1531ed4194056346]
link XDto to XDto2--><path d="M609.6825,655 C652.1125,655 711.005,655 752.5088,655 " fill="none" id="XDto-&gt;XDto2" style="stroke: #808080; stroke-width: 1.25; stroke-dasharray: 7.0,7.0;"/><polygon fill="#808080" points="759.0162,655,747.7662,650,752.7662,655,747.7662,660,759.0162,655" style="stroke: #808080; stroke-width: 1.25;"/><text fill="#000000" font-family="sans-serif" font-size="16.25" lengthAdjust="spacingAndGlyphs" textLength="53.75" x="657.5" y="646.8689">«trace»</text><!--MD5=[981f5fb8fd3a5fede22cd6db0dd8dce5]
link XGateway to XApiController--><path d="M559.225,417.5 C638.6475,417.5 774.18,417.5 862.9138,417.5 " fill="none" id="XGateway-&gt;XApiController" style="stroke: #808080; stroke-width: 1.25; stroke-dasharray: 7.0,7.0;"/><polygon fill="#808080" points="869.22,417.5,857.97,412.5,862.97,417.5,857.97,422.5,869.22,417.5" style="stroke: #808080; stroke-width: 1.25;"/><text fill="#000000" font-family="sans-serif" font-size="16.25" lengthAdjust="spacingAndGlyphs" textLength="53.75" x="687.1875" y="409.3689">«trace»</text><!--MD5=[a546c99f3fa34e376a924392c1897355]
link XApiController to XBusinessController--><path d="M1030.7913,417.5 C1038.1875,417.5 1053.4738,417.5 1068.04,417.5 " fill="none" id="XApiController-&gt;XBusinessController" style="stroke: #A80036; stroke-width: 1.25;"/><polygon fill="#A80036" points="1074.6513,417.5,1063.4013,412.5,1068.4013,417.5,1063.4013,422.5,1074.6513,417.5" style="stroke: #A80036; stroke-width: 1.25;"/><!--MD5=[9e7208bb26b1c1822412ca7bf574810f]
link XGateway to XDto--><path d="M502.8825,448.9913 C514.0913,491.9988 534.6138,570.7383 546.6813,617.0375 " fill="none" id="XGateway-&gt;XDto" style="stroke: #A80036; stroke-width: 1.25;"/><polygon fill="#A80036" points="548.3988,623.625,550.3997,611.4776,546.8224,617.5771,540.723,613.9998,548.3988,623.625" style="stroke: #A80036; stroke-width: 1.25;"/><!--MD5=[39ded9082ddca16de9a0c55c3caa98ab]
link XApiController to XDto2--><path d="M896.3175,448.9463 C864.3675,466.9187 830,486.25 830,486.25 C830,486.25 816.6325,567.6726 808.5362,616.9801 " fill="none" id="XApiController-&gt;XDto2" style="stroke: #A80036; stroke-width: 1.25;"/><polygon fill="#A80036" points="807.48,623.417,814.2366,613.1257,808.4926,617.2496,804.3688,611.5055,807.48,623.417" style="stroke: #A80036; stroke-width: 1.25;"/><!--MD5=[b4d5b94def5010f404da0fb1df13dcbf]
link XBusinessController to XModel--><path d="M1161.6988,448.9913 C1137.2513,492.3512 1092.325,572.0315 1066.3113,618.1694 " fill="none" id="XBusinessController-&gt;XModel" style="stroke: #A80036; stroke-width: 1.25;"/><polygon fill="#A80036" points="1063.235,623.625,1073.1166,616.2822,1066.3052,618.1811,1064.4063,611.3698,1063.235,623.625" style="stroke: #A80036; stroke-width: 1.25;"/><!--MD5=[fcdefb3cbe0525dea1df9a71367016bc]
link XBusinessController to XDao--><path d="M1282.7625,417.5 C1296.2125,417.5 1307.9125,417.5 1307.9125,417.5 C1307.9125,417.5 1312.9,417.5 1320.0875,417.5 " fill="none" id="XBusinessController-&gt;XDao" style="stroke: #A80036; stroke-width: 1.25;"/><polygon fill="#A80036" points="1326.6,417.5,1315.35,412.5,1320.35,417.5,1315.35,422.5,1326.6,417.5" style="stroke: #A80036; stroke-width: 1.25;"/><!--MD5=[9d66dd05645f7adbb321d39d5ba3fb07]
link XBusinessController to XDto2--><path d="M1130.715,448.7512 C1058.89,493.6125 924.21,577.7319 851.7075,623.016 " fill="none" id="XBusinessController-&gt;XDto2" style="stroke: #A80036; stroke-width: 1.25;"/><polygon fill="#A80036" points="846.1687,626.4749,858.3593,624.7564,851.4698,623.1641,853.0621,616.2747,846.1687,626.4749" style="stroke: #A80036; stroke-width: 1.25;"/><!--MD5=[486509f5cf844048907475c539f13499]
link XDto2 to XModel--><path d="M845.9788,655 C865.2975,655 883.75,655 883.75,655 C883.75,655 965,655 965,655 C965,655 975.2788,655 988.525,655 " fill="none" id="XDto2-&gt;XModel" style="stroke: #A80036; stroke-width: 1.25;"/><polygon fill="#A80036" points="994.7938,655,983.5438,650,988.5438,655,983.5438,660,994.7938,655" style="stroke: #A80036; stroke-width: 1.25;"/><!--MD5=[7682806716d7157bd4113db7cbde81f8]
link XDao to XModel--><path d="M1330.85,448.7512 C1270.025,492.56 1157.2363,573.8056 1093.4313,619.765 " fill="none" id="XDao-&gt;XModel" style="stroke: #A80036; stroke-width: 1.25;"/><polygon fill="#A80036" points="1088.1688,623.5558,1100.2193,621.0364,1093.2398,619.9023,1094.3739,612.9228,1088.1688,623.5558" style="stroke: #A80036; stroke-width: 1.25;"/><!--MD5=[fbabfda1c015ac49f83f762584050894]
@startuml


skinparam {
    BoundaryBackgroundColor #629EF9
    BoundaryBorderColor black
    BoundaryFontSize 12
    BoundarySize 10
    ControlBackgroundColor #b5bd68
    ControlBorderColor #718c00
    EntityBackgroundColor #F2AC4E
    EntityBorderColor black
}


 skinparam linetype polyline



    boundary XView #9FB7E5
    control XController #C4E4AB
    entity XEntity #F8D987
    entity XEntities #F8D987
    boundary XStyle as "XStyle - CSS"
    boundary XTemplate as "XTemplate - xhtml"
    boundary XBean as "XBean - java"
    control XApiController as "XApiController - java"
    control XBusinessController as "XBusinessController - java"
    control XGateway as "XGateway - java"
    entity XDao as "XDao - java"
    entity XDto as "XModel - java"
    entity XDto2 as "XDto - java"
    entity XModel as "XEntity - java"


    XView -right-> XController
    XController -right-> XEntity
    XController -right-> XEntities
    XView -down-> XEntity

    XTemplate ...[#Gray]up.> XView : <<trace>>
    XStyle ...[#Gray]up.> XView : <<trace>>
    XBean ...[#Gray]up.> XView : <<trace>>
    XGateway ...[#Gray]up.> XController : <<trace>>
    XDto ...[#Gray]up.> XEntity : <<trace>>
    XApiController ...[#Gray]up.> XController : <<trace>>
    XBusinessController ...[#Gray]up.> XController : <<trace>>
    XDto2 ...[#Gray]up.> XEntity : <<trace>>
    XModel ...[#Gray]up.> XEntity : <<trace>>
    XDao ...[#Gray]up.> XEntities : <<trace>>

    XTemplate -right-> XBean
    XTemplate -left-> XStyle
    XBean - -> XDto
    XBean -right-> XGateway
    XDto .[#Gray]right.> XDto2 : <<trace>>

    XGateway .[#Gray]right.> XApiController : <<trace>>
    XApiController -right-> XBusinessController
    XGateway - -down-> XDto
    XApiController - -down-> XDto2
    XBusinessController - -down-> XModel
    XBusinessController -right-> XDao
    XBusinessController -right-> XDto2
    XDto2 -right-> XModel
    XDao -right-> XModel





@enduml

PlantUML version 1.2020.09(Sun May 10 12:51:06 CEST 2020)
(GPL source distribution)
Java Runtime: OpenJDK Runtime Environment
JVM: OpenJDK 64-Bit Server VM
Java Version: 11.0.8+10-b944.31
Operating System: Windows 10
Default Encoding: Cp1252
Language: en
Country: GB
--></g></svg>