<?xml version="1.0" encoding="UTF-8" standalone="no"?><svg xmlns="http://www.w3.org/2000/svg" xmlns:xlink="http://www.w3.org/1999/xlink" contentScriptType="application/ecmascript" contentStyleType="text/css" height="305px" preserveAspectRatio="none" style="width:937px;height:305px;" version="1.1" viewBox="0 0 937 305" width="937.5px" zoomAndPan="magnify"><defs><filter height="300%" id="f1b0ui0njj5h1s" width="300%" x="-1" y="-1"><feGaussianBlur result="blurOut" stdDeviation="2.5"/><feColorMatrix in="blurOut" result="blurOut2" type="matrix" values="0 0 0 0 0 0 0 0 0 0 0 0 0 0 0 0 0 0 .4 0"/><feOffset dx="5.0" dy="5.0" in="blurOut2" result="blurOut3"/><feBlend in="SourceGraphic" in2="blurOut3" mode="normal"/></filter></defs><g><!--MD5=[bec60ffd6aff97f42f6f937250fbd8b4]
class ClientsDao--><rect fill="#FEFECE" filter="url(#f1b0ui0njj5h1s)" height="146.4746" id="ClientsDao" style="stroke: #A80036; stroke-width: 1.875;" width="206.25" x="367.5" y="145"/><ellipse cx="426.5625" cy="165" fill="#ADD1B2" rx="13.75" ry="13.75" style="stroke: #A80036; stroke-width: 1.25;"/><path d="M429.0625,160.625 Q429.3164,160 429.6094,159.6875 Q429.9023,159.375 430.2344,159.375 Q430.8203,159.375 431.1914,159.7266 Q431.5625,160.0781 431.5625,160.8984 L431.5625,162.8516 Q431.5625,163.6719 431.2109,164.0234 Q430.8594,164.375 430.3125,164.375 Q429.8242,164.375 429.5117,164.1602 Q429.1992,163.9453 429.0625,163.3789 Q429.0039,162.9883 428.7891,162.7734 Q428.3984,162.3633 427.6953,162.1289 Q426.9922,161.875 426.2891,161.875 Q425.4102,161.875 424.668,162.2266 Q423.9453,162.5781 423.3789,163.3594 Q422.8125,164.1406 422.8125,165.2148 L422.8125,166.3672 Q422.8125,167.6563 423.8672,168.5156 Q424.9219,169.375 426.7969,169.375 Q427.9102,169.375 428.6914,169.1211 Q429.1406,168.9844 429.6484,168.5352 Q429.9805,168.2813 430.1563,168.2031 Q430.332,168.125 430.5469,168.125 Q430.957,168.125 431.25,168.457 Q431.5625,168.7695 431.5625,169.2188 Q431.5625,169.6484 431.1328,170.1563 Q430.5078,170.8984 429.5117,171.3086 Q428.2031,171.875 426.6016,171.875 Q424.7266,171.875 423.2227,171.1328 Q422.0117,170.5469 421.1523,169.2773 Q420.3125,168.0078 420.3125,166.5039 L420.3125,165.1367 Q420.3125,163.5742 421.0547,162.207 Q421.8164,160.8398 423.125,160.1172 Q424.4531,159.375 425.9375,159.375 Q426.8359,159.375 427.6172,159.6875 Q428.3984,160 429.0625,160.625 Z "/><text fill="#000000" font-family="sans-serif" font-size="15" lengthAdjust="spacingAndGlyphs" textLength="77.5" x="452.1875" y="171.1377">ClientsDao</text><line style="stroke: #A80036; stroke-width: 1.875;" x1="368.75" x2="572.5" y1="185" y2="185"/><line style="stroke: #A80036; stroke-width: 1.875;" x1="368.75" x2="572.5" y1="195" y2="195"/><ellipse cx="381.25" cy="208.75" fill="#84BE84" rx="3.75" ry="3.75" style="stroke: #038048; stroke-width: 1.25;"/><text fill="#000000" font-family="sans-serif" font-size="13.75" lengthAdjust="spacingAndGlyphs" textLength="112.5" x="392.5" y="214.2737">createClient(client)</text><ellipse cx="381.25" cy="226.0449" fill="#84BE84" rx="3.75" ry="3.75" style="stroke: #038048; stroke-width: 1.25;"/><text fill="#000000" font-family="sans-serif" font-size="13.75" lengthAdjust="spacingAndGlyphs" textLength="71.25" x="392.5" y="231.5686">save(client)</text><ellipse cx="381.25" cy="243.3398" fill="#84BE84" rx="3.75" ry="3.75" style="stroke: #038048; stroke-width: 1.25;"/><text fill="#000000" font-family="sans-serif" font-size="13.75" lengthAdjust="spacingAndGlyphs" textLength="92.5" x="392.5" y="248.8635">readAllClients()</text><ellipse cx="381.25" cy="260.6348" fill="#84BE84" rx="3.75" ry="3.75" style="stroke: #038048; stroke-width: 1.25;"/><text fill="#000000" font-family="sans-serif" font-size="13.75" lengthAdjust="spacingAndGlyphs" textLength="173.75" x="392.5" y="266.1584">searchCliensByName(query)</text><ellipse cx="381.25" cy="277.9297" fill="#84BE84" rx="3.75" ry="3.75" style="stroke: #038048; stroke-width: 1.25;"/><text fill="#000000" font-family="sans-serif" font-size="13.75" lengthAdjust="spacingAndGlyphs" textLength="111.25" x="392.5" y="283.4534">readClient(clientId)</text><!--MD5=[a8a9ef21f02945362a565f5006e12261]
class OpenVehiclesController--><rect fill="#FEFECE" filter="url(#f1b0ui0njj5h1s)" height="60" id="OpenVehiclesController" style="stroke: #A80036; stroke-width: 1.875;" width="203.75" x="7.5" y="10"/><ellipse cx="26.25" cy="30" fill="#ADD1B2" rx="13.75" ry="13.75" style="stroke: #A80036; stroke-width: 1.25;"/><path d="M28.75,25.625 Q29.0039,25 29.2969,24.6875 Q29.5898,24.375 29.9219,24.375 Q30.5078,24.375 30.8789,24.7266 Q31.25,25.0781 31.25,25.8984 L31.25,27.8516 Q31.25,28.6719 30.8984,29.0234 Q30.5469,29.375 30,29.375 Q29.5117,29.375 29.1992,29.1602 Q28.8867,28.9453 28.75,28.3789 Q28.6914,27.9883 28.4766,27.7734 Q28.0859,27.3633 27.3828,27.1289 Q26.6797,26.875 25.9766,26.875 Q25.0977,26.875 24.3555,27.2266 Q23.6328,27.5781 23.0664,28.3594 Q22.5,29.1406 22.5,30.2148 L22.5,31.3672 Q22.5,32.6563 23.5547,33.5156 Q24.6094,34.375 26.4844,34.375 Q27.5977,34.375 28.3789,34.1211 Q28.8281,33.9844 29.3359,33.5352 Q29.668,33.2813 29.8438,33.2031 Q30.0195,33.125 30.2344,33.125 Q30.6445,33.125 30.9375,33.457 Q31.25,33.7695 31.25,34.2188 Q31.25,34.6484 30.8203,35.1563 Q30.1953,35.8984 29.1992,36.3086 Q27.8906,36.875 26.2891,36.875 Q24.4141,36.875 22.9102,36.1328 Q21.6992,35.5469 20.8398,34.2773 Q20,33.0078 20,31.5039 L20,30.1367 Q20,28.5742 20.7422,27.207 Q21.5039,25.8398 22.8125,25.1172 Q24.1406,24.375 25.625,24.375 Q26.5234,24.375 27.3047,24.6875 Q28.0859,25 28.75,25.625 Z "/><text fill="#000000" font-family="sans-serif" font-size="15" lengthAdjust="spacingAndGlyphs" textLength="163.75" x="43.75" y="36.1377">OpenVehiclesController</text><line style="stroke: #A80036; stroke-width: 1.875;" x1="8.75" x2="210" y1="50" y2="50"/><line style="stroke: #A80036; stroke-width: 1.875;" x1="8.75" x2="210" y1="60" y2="60"/><!--MD5=[b91ba1baef5d10b77f32375464f8b740]
class ConfigClientController--><rect fill="#FEFECE" filter="url(#f1b0ui0njj5h1s)" height="60" id="ConfigClientController" style="stroke: #A80036; stroke-width: 1.875;" width="192.5" x="255.625" y="10"/><ellipse cx="274.375" cy="30" fill="#ADD1B2" rx="13.75" ry="13.75" style="stroke: #A80036; stroke-width: 1.25;"/><path d="M276.875,25.625 Q277.1289,25 277.4219,24.6875 Q277.7148,24.375 278.0469,24.375 Q278.6328,24.375 279.0039,24.7266 Q279.375,25.0781 279.375,25.8984 L279.375,27.8516 Q279.375,28.6719 279.0234,29.0234 Q278.6719,29.375 278.125,29.375 Q277.6367,29.375 277.3242,29.1602 Q277.0117,28.9453 276.875,28.3789 Q276.8164,27.9883 276.6016,27.7734 Q276.2109,27.3633 275.5078,27.1289 Q274.8047,26.875 274.1016,26.875 Q273.2227,26.875 272.4805,27.2266 Q271.7578,27.5781 271.1914,28.3594 Q270.625,29.1406 270.625,30.2148 L270.625,31.3672 Q270.625,32.6563 271.6797,33.5156 Q272.7344,34.375 274.6094,34.375 Q275.7227,34.375 276.5039,34.1211 Q276.9531,33.9844 277.4609,33.5352 Q277.793,33.2813 277.9688,33.2031 Q278.1445,33.125 278.3594,33.125 Q278.7695,33.125 279.0625,33.457 Q279.375,33.7695 279.375,34.2188 Q279.375,34.6484 278.9453,35.1563 Q278.3203,35.8984 277.3242,36.3086 Q276.0156,36.875 274.4141,36.875 Q272.5391,36.875 271.0352,36.1328 Q269.8242,35.5469 268.9648,34.2773 Q268.125,33.0078 268.125,31.5039 L268.125,30.1367 Q268.125,28.5742 268.8672,27.207 Q269.6289,25.8398 270.9375,25.1172 Q272.2656,24.375 273.75,24.375 Q274.6484,24.375 275.4297,24.6875 Q276.2109,25 276.875,25.625 Z "/><text fill="#000000" font-family="sans-serif" font-size="15" lengthAdjust="spacingAndGlyphs" textLength="152.5" x="291.875" y="36.1377">ConfigClientController</text><line style="stroke: #A80036; stroke-width: 1.875;" x1="256.875" x2="446.875" y1="50" y2="50"/><line style="stroke: #A80036; stroke-width: 1.875;" x1="256.875" x2="446.875" y1="60" y2="60"/><!--MD5=[d00b8625e1e18ad3cef6970b6d29f6da]
class OpenClientsController--><rect fill="#FEFECE" filter="url(#f1b0ui0njj5h1s)" height="60" id="OpenClientsController" style="stroke: #A80036; stroke-width: 1.875;" width="193.75" x="492.5" y="10"/><ellipse cx="511.25" cy="30" fill="#ADD1B2" rx="13.75" ry="13.75" style="stroke: #A80036; stroke-width: 1.25;"/><path d="M513.75,25.625 Q514.0039,25 514.2969,24.6875 Q514.5898,24.375 514.9219,24.375 Q515.5078,24.375 515.8789,24.7266 Q516.25,25.0781 516.25,25.8984 L516.25,27.8516 Q516.25,28.6719 515.8984,29.0234 Q515.5469,29.375 515,29.375 Q514.5117,29.375 514.1992,29.1602 Q513.8867,28.9453 513.75,28.3789 Q513.6914,27.9883 513.4766,27.7734 Q513.0859,27.3633 512.3828,27.1289 Q511.6797,26.875 510.9766,26.875 Q510.0977,26.875 509.3555,27.2266 Q508.6328,27.5781 508.0664,28.3594 Q507.5,29.1406 507.5,30.2148 L507.5,31.3672 Q507.5,32.6563 508.5547,33.5156 Q509.6094,34.375 511.4844,34.375 Q512.5977,34.375 513.3789,34.1211 Q513.8281,33.9844 514.3359,33.5352 Q514.668,33.2813 514.8438,33.2031 Q515.0195,33.125 515.2344,33.125 Q515.6445,33.125 515.9375,33.457 Q516.25,33.7695 516.25,34.2188 Q516.25,34.6484 515.8203,35.1563 Q515.1953,35.8984 514.1992,36.3086 Q512.8906,36.875 511.2891,36.875 Q509.4141,36.875 507.9102,36.1328 Q506.6992,35.5469 505.8398,34.2773 Q505,33.0078 505,31.5039 L505,30.1367 Q505,28.5742 505.7422,27.207 Q506.5039,25.8398 507.8125,25.1172 Q509.1406,24.375 510.625,24.375 Q511.5234,24.375 512.3047,24.6875 Q513.0859,25 513.75,25.625 Z "/><text fill="#000000" font-family="sans-serif" font-size="15" lengthAdjust="spacingAndGlyphs" textLength="153.75" x="528.75" y="36.1377">OpenClientsController</text><line style="stroke: #A80036; stroke-width: 1.875;" x1="493.75" x2="685" y1="50" y2="50"/><line style="stroke: #A80036; stroke-width: 1.875;" x1="493.75" x2="685" y1="60" y2="60"/><!--MD5=[7b68a60807ef0d5ecf982988765ba5ca]
class CreateClientController--><rect fill="#FEFECE" filter="url(#f1b0ui0njj5h1s)" height="60" id="CreateClientController" style="stroke: #A80036; stroke-width: 1.875;" width="193.75" x="730" y="10"/><ellipse cx="748.75" cy="30" fill="#ADD1B2" rx="13.75" ry="13.75" style="stroke: #A80036; stroke-width: 1.25;"/><path d="M751.25,25.625 Q751.5039,25 751.7969,24.6875 Q752.0898,24.375 752.4219,24.375 Q753.0078,24.375 753.3789,24.7266 Q753.75,25.0781 753.75,25.8984 L753.75,27.8516 Q753.75,28.6719 753.3984,29.0234 Q753.0469,29.375 752.5,29.375 Q752.0117,29.375 751.6992,29.1602 Q751.3867,28.9453 751.25,28.3789 Q751.1914,27.9883 750.9766,27.7734 Q750.5859,27.3633 749.8828,27.1289 Q749.1797,26.875 748.4766,26.875 Q747.5977,26.875 746.8555,27.2266 Q746.1328,27.5781 745.5664,28.3594 Q745,29.1406 745,30.2148 L745,31.3672 Q745,32.6563 746.0547,33.5156 Q747.1094,34.375 748.9844,34.375 Q750.0977,34.375 750.8789,34.1211 Q751.3281,33.9844 751.8359,33.5352 Q752.168,33.2813 752.3438,33.2031 Q752.5195,33.125 752.7344,33.125 Q753.1445,33.125 753.4375,33.457 Q753.75,33.7695 753.75,34.2188 Q753.75,34.6484 753.3203,35.1563 Q752.6953,35.8984 751.6992,36.3086 Q750.3906,36.875 748.7891,36.875 Q746.9141,36.875 745.4102,36.1328 Q744.1992,35.5469 743.3398,34.2773 Q742.5,33.0078 742.5,31.5039 L742.5,30.1367 Q742.5,28.5742 743.2422,27.207 Q744.0039,25.8398 745.3125,25.1172 Q746.6406,24.375 748.125,24.375 Q749.0234,24.375 749.8047,24.6875 Q750.5859,25 751.25,25.625 Z "/><text fill="#000000" font-family="sans-serif" font-size="15" lengthAdjust="spacingAndGlyphs" textLength="153.75" x="766.25" y="36.1377">CreateClientController</text><line style="stroke: #A80036; stroke-width: 1.875;" x1="731.25" x2="922.5" y1="50" y2="50"/><line style="stroke: #A80036; stroke-width: 1.875;" x1="731.25" x2="922.5" y1="60" y2="60"/><!--MD5=[4cbaa0019b690df30f745363b4bfe185]
link OpenVehiclesController to ClientsDao--><path d="M168.6238,70.0538 C220.7938,95.4175 298.1075,133.0038 361.4475,163.7975 " fill="none" id="OpenVehiclesController-&gt;ClientsDao" style="stroke: #A80036; stroke-width: 1.25;"/><polygon fill="#A80036" points="367.1437,166.5665,359.2112,157.1518,361.5225,163.8344,354.8399,166.1458,367.1437,166.5665" style="stroke: #A80036; stroke-width: 1.25;"/><!--MD5=[02da1f1895a59b9efedc34553ae2703e]
link ConfigClientController to ClientsDao--><path d="M371.4838,70.2513 C384.2838,89.1813 401.6475,114.86 418.2663,139.44 " fill="none" id="ConfigClientController-&gt;ClientsDao" style="stroke: #A80036; stroke-width: 1.25;"/><polygon fill="#A80036" points="422.0225,144.9938,419.8626,132.8736,418.5215,139.8163,411.5788,138.4752,422.0225,144.9938" style="stroke: #A80036; stroke-width: 1.25;"/><!--MD5=[f56e8c3844fe2e568295713859b23a98]
link OpenClientsController to ClientsDao--><path d="M569.7663,70.2513 C556.9663,89.1813 539.6025,114.86 522.9838,139.44 " fill="none" id="OpenClientsController-&gt;ClientsDao" style="stroke: #A80036; stroke-width: 1.25;"/><polygon fill="#A80036" points="519.2275,144.9938,529.6712,138.4752,522.7285,139.8163,521.3874,132.8736,519.2275,144.9938" style="stroke: #A80036; stroke-width: 1.25;"/><!--MD5=[61ff29af4497d8ec256e949cea26fdb3]
link CreateClientController to ClientsDao--><path d="M768.4463,70.0538 C717.4838,95.1775 642.1925,132.295 580.065,162.9225 " fill="none" id="CreateClientController-&gt;ClientsDao" style="stroke: #A80036; stroke-width: 1.25;"/><polygon fill="#A80036" points="574.095,165.8662,586.3964,165.3795,579.7015,163.1041,581.977,156.4091,574.095,165.8662" style="stroke: #A80036; stroke-width: 1.25;"/><!--MD5=[d05e8c17b672b20642b9a5516fc6bdc4]
@startuml
	class ClientsDao {
	+createClient(client)
	+save(client)
	+readAllClients()
	+searchCliensByName(query)
	+readClient(clientId)
	}

	OpenVehiclesController - -> ClientsDao
	ConfigClientController - -> ClientsDao
	OpenClientsController - -> ClientsDao
	CreateClientController - -> ClientsDao
@enduml

PlantUML version 1.2020.09(Sun May 10 12:51:06 CEST 2020)
(GPL source distribution)
Java Runtime: OpenJDK Runtime Environment
JVM: OpenJDK 64-Bit Server VM
Java Version: 11.0.8+10-b1094.1
Operating System: Windows 10
Default Encoding: Cp1252
Language: en
Country: GB
--></g></svg>