<?xml version="1.0" encoding="UTF-8" standalone="no"?><svg xmlns="http://www.w3.org/2000/svg" xmlns:xlink="http://www.w3.org/1999/xlink" contentScriptType="application/ecmascript" contentStyleType="text/css" height="270px" preserveAspectRatio="none" style="width:796px;height:270px;" version="1.1" viewBox="0 0 796 270" width="796.25px" zoomAndPan="magnify"><defs><filter height="300%" id="f1k5sdqeorv0np" width="300%" x="-1" y="-1"><feGaussianBlur result="blurOut" stdDeviation="2.5"/><feColorMatrix in="blurOut" result="blurOut2" type="matrix" values="0 0 0 0 0 0 0 0 0 0 0 0 0 0 0 0 0 0 .4 0"/><feOffset dx="5.0" dy="5.0" in="blurOut2" result="blurOut3"/><feBlend in="SourceGraphic" in2="blurOut3" mode="normal"/></filter></defs><g><!--MD5=[abb4079e3c36e1e70999512b130a9027]
class InterventionsDao--><rect fill="#FEFECE" filter="url(#f1k5sdqeorv0np)" height="111.8848" id="InterventionsDao" style="stroke: #A80036; stroke-width: 1.875;" width="268.75" x="255.625" y="145"/><ellipse cx="326.5625" cy="165" fill="#ADD1B2" rx="13.75" ry="13.75" style="stroke: #A80036; stroke-width: 1.25;"/><path d="M329.0625,160.625 Q329.3164,160 329.6094,159.6875 Q329.9023,159.375 330.2344,159.375 Q330.8203,159.375 331.1914,159.7266 Q331.5625,160.0781 331.5625,160.8984 L331.5625,162.8516 Q331.5625,163.6719 331.2109,164.0234 Q330.8594,164.375 330.3125,164.375 Q329.8242,164.375 329.5117,164.1602 Q329.1992,163.9453 329.0625,163.3789 Q329.0039,162.9883 328.7891,162.7734 Q328.3984,162.3633 327.6953,162.1289 Q326.9922,161.875 326.2891,161.875 Q325.4102,161.875 324.668,162.2266 Q323.9453,162.5781 323.3789,163.3594 Q322.8125,164.1406 322.8125,165.2148 L322.8125,166.3672 Q322.8125,167.6563 323.8672,168.5156 Q324.9219,169.375 326.7969,169.375 Q327.9102,169.375 328.6914,169.1211 Q329.1406,168.9844 329.6484,168.5352 Q329.9805,168.2813 330.1563,168.2031 Q330.332,168.125 330.5469,168.125 Q330.957,168.125 331.25,168.457 Q331.5625,168.7695 331.5625,169.2188 Q331.5625,169.6484 331.1328,170.1563 Q330.5078,170.8984 329.5117,171.3086 Q328.2031,171.875 326.6016,171.875 Q324.7266,171.875 323.2227,171.1328 Q322.0117,170.5469 321.1523,169.2773 Q320.3125,168.0078 320.3125,166.5039 L320.3125,165.1367 Q320.3125,163.5742 321.0547,162.207 Q321.8164,160.8398 323.125,160.1172 Q324.4531,159.375 325.9375,159.375 Q326.8359,159.375 327.6172,159.6875 Q328.3984,160 329.0625,160.625 Z "/><text fill="#000000" font-family="sans-serif" font-size="15" lengthAdjust="spacingAndGlyphs" textLength="116.25" x="352.1875" y="171.1377">InterventionsDao</text><line style="stroke: #A80036; stroke-width: 1.875;" x1="256.875" x2="523.125" y1="185" y2="185"/><line style="stroke: #A80036; stroke-width: 1.875;" x1="256.875" x2="523.125" y1="195" y2="195"/><ellipse cx="269.375" cy="208.75" fill="#84BE84" rx="3.75" ry="3.75" style="stroke: #038048; stroke-width: 1.25;"/><text fill="#000000" font-family="sans-serif" font-size="13.75" lengthAdjust="spacingAndGlyphs" textLength="236.25" x="280.625" y="214.2737">searchActiveInterventions(mechanicId)</text><ellipse cx="269.375" cy="226.0449" fill="#84BE84" rx="3.75" ry="3.75" style="stroke: #038048; stroke-width: 1.25;"/><text fill="#000000" font-family="sans-serif" font-size="13.75" lengthAdjust="spacingAndGlyphs" textLength="118.75" x="280.625" y="231.5686">create(intervention)</text><ellipse cx="269.375" cy="243.3398" fill="#84BE84" rx="3.75" ry="3.75" style="stroke: #038048; stroke-width: 1.25;"/><text fill="#000000" font-family="sans-serif" font-size="13.75" lengthAdjust="spacingAndGlyphs" textLength="182.5" x="280.625" y="248.8635">readInterventions(mechanicId)</text><!--MD5=[a16c6c6b4acf5b7bf94ccf4f6a9af788]
class OpenDashboardController--><rect fill="#FEFECE" filter="url(#f1k5sdqeorv0np)" height="60" id="OpenDashboardController" style="stroke: #A80036; stroke-width: 1.875;" width="222.5" x="7.5" y="10"/><ellipse cx="26.25" cy="30" fill="#ADD1B2" rx="13.75" ry="13.75" style="stroke: #A80036; stroke-width: 1.25;"/><path d="M28.75,25.625 Q29.0039,25 29.2969,24.6875 Q29.5898,24.375 29.9219,24.375 Q30.5078,24.375 30.8789,24.7266 Q31.25,25.0781 31.25,25.8984 L31.25,27.8516 Q31.25,28.6719 30.8984,29.0234 Q30.5469,29.375 30,29.375 Q29.5117,29.375 29.1992,29.1602 Q28.8867,28.9453 28.75,28.3789 Q28.6914,27.9883 28.4766,27.7734 Q28.0859,27.3633 27.3828,27.1289 Q26.6797,26.875 25.9766,26.875 Q25.0977,26.875 24.3555,27.2266 Q23.6328,27.5781 23.0664,28.3594 Q22.5,29.1406 22.5,30.2148 L22.5,31.3672 Q22.5,32.6563 23.5547,33.5156 Q24.6094,34.375 26.4844,34.375 Q27.5977,34.375 28.3789,34.1211 Q28.8281,33.9844 29.3359,33.5352 Q29.668,33.2813 29.8438,33.2031 Q30.0195,33.125 30.2344,33.125 Q30.6445,33.125 30.9375,33.457 Q31.25,33.7695 31.25,34.2188 Q31.25,34.6484 30.8203,35.1563 Q30.1953,35.8984 29.1992,36.3086 Q27.8906,36.875 26.2891,36.875 Q24.4141,36.875 22.9102,36.1328 Q21.6992,35.5469 20.8398,34.2773 Q20,33.0078 20,31.5039 L20,30.1367 Q20,28.5742 20.7422,27.207 Q21.5039,25.8398 22.8125,25.1172 Q24.1406,24.375 25.625,24.375 Q26.5234,24.375 27.3047,24.6875 Q28.0859,25 28.75,25.625 Z "/><text fill="#000000" font-family="sans-serif" font-size="15" lengthAdjust="spacingAndGlyphs" textLength="182.5" x="43.75" y="36.1377">OpenDashboardController</text><line style="stroke: #A80036; stroke-width: 1.875;" x1="8.75" x2="228.75" y1="50" y2="50"/><line style="stroke: #A80036; stroke-width: 1.875;" x1="8.75" x2="228.75" y1="60" y2="60"/><!--MD5=[fb53487f3bac7251ff70379f798d388d]
class OpenInterventionsController--><rect fill="#FEFECE" filter="url(#f1k5sdqeorv0np)" height="60" id="OpenInterventionsController" style="stroke: #A80036; stroke-width: 1.875;" width="232.5" x="273.75" y="10"/><ellipse cx="292.5" cy="30" fill="#ADD1B2" rx="13.75" ry="13.75" style="stroke: #A80036; stroke-width: 1.25;"/><path d="M295,25.625 Q295.2539,25 295.5469,24.6875 Q295.8398,24.375 296.1719,24.375 Q296.7578,24.375 297.1289,24.7266 Q297.5,25.0781 297.5,25.8984 L297.5,27.8516 Q297.5,28.6719 297.1484,29.0234 Q296.7969,29.375 296.25,29.375 Q295.7617,29.375 295.4492,29.1602 Q295.1367,28.9453 295,28.3789 Q294.9414,27.9883 294.7266,27.7734 Q294.3359,27.3633 293.6328,27.1289 Q292.9297,26.875 292.2266,26.875 Q291.3477,26.875 290.6055,27.2266 Q289.8828,27.5781 289.3164,28.3594 Q288.75,29.1406 288.75,30.2148 L288.75,31.3672 Q288.75,32.6563 289.8047,33.5156 Q290.8594,34.375 292.7344,34.375 Q293.8477,34.375 294.6289,34.1211 Q295.0781,33.9844 295.5859,33.5352 Q295.918,33.2813 296.0938,33.2031 Q296.2695,33.125 296.4844,33.125 Q296.8945,33.125 297.1875,33.457 Q297.5,33.7695 297.5,34.2188 Q297.5,34.6484 297.0703,35.1563 Q296.4453,35.8984 295.4492,36.3086 Q294.1406,36.875 292.5391,36.875 Q290.6641,36.875 289.1602,36.1328 Q287.9492,35.5469 287.0898,34.2773 Q286.25,33.0078 286.25,31.5039 L286.25,30.1367 Q286.25,28.5742 286.9922,27.207 Q287.7539,25.8398 289.0625,25.1172 Q290.3906,24.375 291.875,24.375 Q292.7734,24.375 293.5547,24.6875 Q294.3359,25 295,25.625 Z "/><text fill="#000000" font-family="sans-serif" font-size="15" lengthAdjust="spacingAndGlyphs" textLength="192.5" x="310" y="36.1377">OpenInterventionsController</text><line style="stroke: #A80036; stroke-width: 1.875;" x1="275" x2="505" y1="50" y2="50"/><line style="stroke: #A80036; stroke-width: 1.875;" x1="275" x2="505" y1="60" y2="60"/><!--MD5=[271ca2af047a16fa902c7f7025fc9e30]
class CreateInterventionController--><rect fill="#FEFECE" filter="url(#f1k5sdqeorv0np)" height="60" id="CreateInterventionController" style="stroke: #A80036; stroke-width: 1.875;" width="232.5" x="550" y="10"/><ellipse cx="568.75" cy="30" fill="#ADD1B2" rx="13.75" ry="13.75" style="stroke: #A80036; stroke-width: 1.25;"/><path d="M571.25,25.625 Q571.5039,25 571.7969,24.6875 Q572.0898,24.375 572.4219,24.375 Q573.0078,24.375 573.3789,24.7266 Q573.75,25.0781 573.75,25.8984 L573.75,27.8516 Q573.75,28.6719 573.3984,29.0234 Q573.0469,29.375 572.5,29.375 Q572.0117,29.375 571.6992,29.1602 Q571.3867,28.9453 571.25,28.3789 Q571.1914,27.9883 570.9766,27.7734 Q570.5859,27.3633 569.8828,27.1289 Q569.1797,26.875 568.4766,26.875 Q567.5977,26.875 566.8555,27.2266 Q566.1328,27.5781 565.5664,28.3594 Q565,29.1406 565,30.2148 L565,31.3672 Q565,32.6563 566.0547,33.5156 Q567.1094,34.375 568.9844,34.375 Q570.0977,34.375 570.8789,34.1211 Q571.3281,33.9844 571.8359,33.5352 Q572.168,33.2813 572.3438,33.2031 Q572.5195,33.125 572.7344,33.125 Q573.1445,33.125 573.4375,33.457 Q573.75,33.7695 573.75,34.2188 Q573.75,34.6484 573.3203,35.1563 Q572.6953,35.8984 571.6992,36.3086 Q570.3906,36.875 568.7891,36.875 Q566.9141,36.875 565.4102,36.1328 Q564.1992,35.5469 563.3398,34.2773 Q562.5,33.0078 562.5,31.5039 L562.5,30.1367 Q562.5,28.5742 563.2422,27.207 Q564.0039,25.8398 565.3125,25.1172 Q566.6406,24.375 568.125,24.375 Q569.0234,24.375 569.8047,24.6875 Q570.5859,25 571.25,25.625 Z "/><text fill="#000000" font-family="sans-serif" font-size="15" lengthAdjust="spacingAndGlyphs" textLength="192.5" x="586.25" y="36.1377">CreateInterventionController</text><line style="stroke: #A80036; stroke-width: 1.875;" x1="551.25" x2="781.25" y1="50" y2="50"/><line style="stroke: #A80036; stroke-width: 1.875;" x1="551.25" x2="781.25" y1="60" y2="60"/><!--MD5=[8fc9e3e41b5cc92e68ef14f9300cfc11]
link OpenDashboardController to InterventionsDao--><path d="M168.1863,70.1825 C202.26,90.125 248.7288,117.32 290.3312,141.6685 " fill="none" id="OpenDashboardController-&gt;InterventionsDao" style="stroke: #A80036; stroke-width: 1.25;"/><polygon fill="#A80036" points="295.9038,144.9299,288.7202,134.9319,290.5097,141.7728,283.6689,143.5623,295.9038,144.9299" style="stroke: #A80036; stroke-width: 1.25;"/><!--MD5=[d835f3322136797bf976d4ac0ec2e353]
link OpenInterventionsController to InterventionsDao--><path d="M390,70.3675 C390,89.3488 390,114.845 390,138.2034 " fill="none" id="OpenInterventionsController-&gt;InterventionsDao" style="stroke: #A80036; stroke-width: 1.25;"/><polygon fill="#A80036" points="390,144.7276,395,133.4776,390,138.4776,385,133.4776,390,144.7276" style="stroke: #A80036; stroke-width: 1.25;"/><!--MD5=[bba02b72cecc4076b43bf9f45ec59860]
link CreateInterventionController to InterventionsDao--><path d="M615.9025,70.1825 C581.2,90.125 533.8763,117.32 491.5062,141.6685 " fill="none" id="CreateInterventionController-&gt;InterventionsDao" style="stroke: #A80036; stroke-width: 1.25;"/><polygon fill="#A80036" points="485.8313,144.9299,498.0766,143.6593,491.2501,141.8156,493.0938,134.9892,485.8313,144.9299" style="stroke: #A80036; stroke-width: 1.25;"/><!--MD5=[0922db1125ccce09f7349dc0fe803fe3]
@startuml
	class InterventionsDao {
	+searchActiveInterventions(mechanicId)
	+create(intervention)
	+readInterventions(mechanicId)
	}

	OpenDashboardController - -> InterventionsDao
	OpenInterventionsController - -> InterventionsDao
	CreateInterventionController - -> InterventionsDao
@enduml

PlantUML version 1.2020.09(Sun May 10 12:51:06 CEST 2020)
(GPL source distribution)
Java Runtime: OpenJDK Runtime Environment
JVM: OpenJDK 64-Bit Server VM
Java Version: 11.0.8+10-b1094.1
Operating System: Windows 10
Default Encoding: Cp1252
Language: en
Country: GB
--></g></svg>