<?xml version="1.0" encoding="UTF-8" standalone="no"?><svg xmlns="http://www.w3.org/2000/svg" xmlns:xlink="http://www.w3.org/1999/xlink" contentScriptType="application/ecmascript" contentStyleType="text/css" height="338.75px" preserveAspectRatio="none" style="width:1498px;height:338px;" version="1.1" viewBox="0 0 1498 338" width="1498.75px" zoomAndPan="magnify"><defs><filter height="300%" id="f1hg0o8mbuw9c2" width="300%" x="-1" y="-1"><feGaussianBlur result="blurOut" stdDeviation="2.5"/><feColorMatrix in="blurOut" result="blurOut2" type="matrix" values="0 0 0 0 0 0 0 0 0 0 0 0 0 0 0 0 0 0 .4 0"/><feOffset dx="5.0" dy="5.0" in="blurOut2" result="blurOut3"/><feBlend in="SourceGraphic" in2="blurOut3" mode="normal"/></filter></defs><g><!--MD5=[a39ad64172e37f40d93cf41979371d42]
class VehiclesDao--><rect fill="#FEFECE" filter="url(#f1hg0o8mbuw9c2)" height="181.0645" id="VehiclesDao" style="stroke: #A80036; stroke-width: 1.875;" width="210" x="616.25" y="145"/><ellipse cx="672.1875" cy="165" fill="#ADD1B2" rx="13.75" ry="13.75" style="stroke: #A80036; stroke-width: 1.25;"/><path d="M674.6875,160.625 Q674.9414,160 675.2344,159.6875 Q675.5273,159.375 675.8594,159.375 Q676.4453,159.375 676.8164,159.7266 Q677.1875,160.0781 677.1875,160.8984 L677.1875,162.8516 Q677.1875,163.6719 676.8359,164.0234 Q676.4844,164.375 675.9375,164.375 Q675.4492,164.375 675.1367,164.1602 Q674.8242,163.9453 674.6875,163.3789 Q674.6289,162.9883 674.4141,162.7734 Q674.0234,162.3633 673.3203,162.1289 Q672.6172,161.875 671.9141,161.875 Q671.0352,161.875 670.293,162.2266 Q669.5703,162.5781 669.0039,163.3594 Q668.4375,164.1406 668.4375,165.2148 L668.4375,166.3672 Q668.4375,167.6563 669.4922,168.5156 Q670.5469,169.375 672.4219,169.375 Q673.5352,169.375 674.3164,169.1211 Q674.7656,168.9844 675.2734,168.5352 Q675.6055,168.2813 675.7813,168.2031 Q675.957,168.125 676.1719,168.125 Q676.582,168.125 676.875,168.457 Q677.1875,168.7695 677.1875,169.2188 Q677.1875,169.6484 676.7578,170.1563 Q676.1328,170.8984 675.1367,171.3086 Q673.8281,171.875 672.2266,171.875 Q670.3516,171.875 668.8477,171.1328 Q667.6367,170.5469 666.7773,169.2773 Q665.9375,168.0078 665.9375,166.5039 L665.9375,165.1367 Q665.9375,163.5742 666.6797,162.207 Q667.4414,160.8398 668.75,160.1172 Q670.0781,159.375 671.5625,159.375 Q672.4609,159.375 673.2422,159.6875 Q674.0234,160 674.6875,160.625 Z "/><text fill="#000000" font-family="sans-serif" font-size="15" lengthAdjust="spacingAndGlyphs" textLength="87.5" x="697.8125" y="171.1377">VehiclesDao</text><line style="stroke: #A80036; stroke-width: 1.875;" x1="617.5" x2="825" y1="185" y2="185"/><line style="stroke: #A80036; stroke-width: 1.875;" x1="617.5" x2="825" y1="195" y2="195"/><ellipse cx="630" cy="208.75" fill="#84BE84" rx="3.75" ry="3.75" style="stroke: #038048; stroke-width: 1.25;"/><text fill="#000000" font-family="sans-serif" font-size="13.75" lengthAdjust="spacingAndGlyphs" textLength="82.5" x="641.25" y="214.2737">save(vehicle)</text><ellipse cx="630" cy="226.0449" fill="#84BE84" rx="3.75" ry="3.75" style="stroke: #038048; stroke-width: 1.25;"/><text fill="#000000" font-family="sans-serif" font-size="13.75" lengthAdjust="spacingAndGlyphs" textLength="120" x="641.25" y="231.5686">searchVehicle(text)</text><ellipse cx="630" cy="243.3398" fill="#84BE84" rx="3.75" ry="3.75" style="stroke: #038048; stroke-width: 1.25;"/><text fill="#000000" font-family="sans-serif" font-size="13.75" lengthAdjust="spacingAndGlyphs" textLength="177.5" x="641.25" y="248.8635">searchVehicle(interventionId)</text><ellipse cx="630" cy="260.6348" fill="#84BE84" rx="3.75" ry="3.75" style="stroke: #038048; stroke-width: 1.25;"/><text fill="#000000" font-family="sans-serif" font-size="13.75" lengthAdjust="spacingAndGlyphs" textLength="136.25" x="641.25" y="266.1584">createVehicle(vehicle)</text><ellipse cx="630" cy="277.9297" fill="#84BE84" rx="3.75" ry="3.75" style="stroke: #038048; stroke-width: 1.25;"/><text fill="#000000" font-family="sans-serif" font-size="13.75" lengthAdjust="spacingAndGlyphs" textLength="135" x="641.25" y="283.4534">readVehicle(vehicleId)</text><ellipse cx="630" cy="295.2246" fill="#84BE84" rx="3.75" ry="3.75" style="stroke: #038048; stroke-width: 1.25;"/><text fill="#000000" font-family="sans-serif" font-size="13.75" lengthAdjust="spacingAndGlyphs" textLength="105" x="641.25" y="300.7483">readAllVehicles()</text><ellipse cx="630" cy="312.5195" fill="#84BE84" rx="3.75" ry="3.75" style="stroke: #038048; stroke-width: 1.25;"/><text fill="#000000" font-family="sans-serif" font-size="13.75" lengthAdjust="spacingAndGlyphs" textLength="131.25" x="641.25" y="318.0432">readVehicles(clientId)</text><!--MD5=[b91ba1baef5d10b77f32375464f8b740]
class ConfigClientController--><rect fill="#FEFECE" filter="url(#f1hg0o8mbuw9c2)" height="60" id="ConfigClientController" style="stroke: #A80036; stroke-width: 1.875;" width="192.5" x="7.5" y="10"/><ellipse cx="26.25" cy="30" fill="#ADD1B2" rx="13.75" ry="13.75" style="stroke: #A80036; stroke-width: 1.25;"/><path d="M28.75,25.625 Q29.0039,25 29.2969,24.6875 Q29.5898,24.375 29.9219,24.375 Q30.5078,24.375 30.8789,24.7266 Q31.25,25.0781 31.25,25.8984 L31.25,27.8516 Q31.25,28.6719 30.8984,29.0234 Q30.5469,29.375 30,29.375 Q29.5117,29.375 29.1992,29.1602 Q28.8867,28.9453 28.75,28.3789 Q28.6914,27.9883 28.4766,27.7734 Q28.0859,27.3633 27.3828,27.1289 Q26.6797,26.875 25.9766,26.875 Q25.0977,26.875 24.3555,27.2266 Q23.6328,27.5781 23.0664,28.3594 Q22.5,29.1406 22.5,30.2148 L22.5,31.3672 Q22.5,32.6563 23.5547,33.5156 Q24.6094,34.375 26.4844,34.375 Q27.5977,34.375 28.3789,34.1211 Q28.8281,33.9844 29.3359,33.5352 Q29.668,33.2813 29.8438,33.2031 Q30.0195,33.125 30.2344,33.125 Q30.6445,33.125 30.9375,33.457 Q31.25,33.7695 31.25,34.2188 Q31.25,34.6484 30.8203,35.1563 Q30.1953,35.8984 29.1992,36.3086 Q27.8906,36.875 26.2891,36.875 Q24.4141,36.875 22.9102,36.1328 Q21.6992,35.5469 20.8398,34.2773 Q20,33.0078 20,31.5039 L20,30.1367 Q20,28.5742 20.7422,27.207 Q21.5039,25.8398 22.8125,25.1172 Q24.1406,24.375 25.625,24.375 Q26.5234,24.375 27.3047,24.6875 Q28.0859,25 28.75,25.625 Z "/><text fill="#000000" font-family="sans-serif" font-size="15" lengthAdjust="spacingAndGlyphs" textLength="152.5" x="43.75" y="36.1377">ConfigClientController</text><line style="stroke: #A80036; stroke-width: 1.875;" x1="8.75" x2="198.75" y1="50" y2="50"/><line style="stroke: #A80036; stroke-width: 1.875;" x1="8.75" x2="198.75" y1="60" y2="60"/><!--MD5=[fc034e8661e1d99469ca7885388ee1f3]
class ConfigVehicleController--><rect fill="#FEFECE" filter="url(#f1hg0o8mbuw9c2)" height="60" id="ConfigVehicleController" style="stroke: #A80036; stroke-width: 1.875;" width="202.5" x="243.75" y="10"/><ellipse cx="262.5" cy="30" fill="#ADD1B2" rx="13.75" ry="13.75" style="stroke: #A80036; stroke-width: 1.25;"/><path d="M265,25.625 Q265.2539,25 265.5469,24.6875 Q265.8398,24.375 266.1719,24.375 Q266.7578,24.375 267.1289,24.7266 Q267.5,25.0781 267.5,25.8984 L267.5,27.8516 Q267.5,28.6719 267.1484,29.0234 Q266.7969,29.375 266.25,29.375 Q265.7617,29.375 265.4492,29.1602 Q265.1367,28.9453 265,28.3789 Q264.9414,27.9883 264.7266,27.7734 Q264.3359,27.3633 263.6328,27.1289 Q262.9297,26.875 262.2266,26.875 Q261.3477,26.875 260.6055,27.2266 Q259.8828,27.5781 259.3164,28.3594 Q258.75,29.1406 258.75,30.2148 L258.75,31.3672 Q258.75,32.6563 259.8047,33.5156 Q260.8594,34.375 262.7344,34.375 Q263.8477,34.375 264.6289,34.1211 Q265.0781,33.9844 265.5859,33.5352 Q265.918,33.2813 266.0938,33.2031 Q266.2695,33.125 266.4844,33.125 Q266.8945,33.125 267.1875,33.457 Q267.5,33.7695 267.5,34.2188 Q267.5,34.6484 267.0703,35.1563 Q266.4453,35.8984 265.4492,36.3086 Q264.1406,36.875 262.5391,36.875 Q260.6641,36.875 259.1602,36.1328 Q257.9492,35.5469 257.0898,34.2773 Q256.25,33.0078 256.25,31.5039 L256.25,30.1367 Q256.25,28.5742 256.9922,27.207 Q257.7539,25.8398 259.0625,25.1172 Q260.3906,24.375 261.875,24.375 Q262.7734,24.375 263.5547,24.6875 Q264.3359,25 265,25.625 Z "/><text fill="#000000" font-family="sans-serif" font-size="15" lengthAdjust="spacingAndGlyphs" textLength="162.5" x="280" y="36.1377">ConfigVehicleController</text><line style="stroke: #A80036; stroke-width: 1.875;" x1="245" x2="445" y1="50" y2="50"/><line style="stroke: #A80036; stroke-width: 1.875;" x1="245" x2="445" y1="60" y2="60"/><!--MD5=[edd10bc75152ce71f9ddbc34691feac5]
class CreateVehicleController--><rect fill="#FEFECE" filter="url(#f1hg0o8mbuw9c2)" height="60" id="CreateVehicleController" style="stroke: #A80036; stroke-width: 1.875;" width="203.75" x="490.625" y="10"/><ellipse cx="509.375" cy="30" fill="#ADD1B2" rx="13.75" ry="13.75" style="stroke: #A80036; stroke-width: 1.25;"/><path d="M511.875,25.625 Q512.1289,25 512.4219,24.6875 Q512.7148,24.375 513.0469,24.375 Q513.6328,24.375 514.0039,24.7266 Q514.375,25.0781 514.375,25.8984 L514.375,27.8516 Q514.375,28.6719 514.0234,29.0234 Q513.6719,29.375 513.125,29.375 Q512.6367,29.375 512.3242,29.1602 Q512.0117,28.9453 511.875,28.3789 Q511.8164,27.9883 511.6016,27.7734 Q511.2109,27.3633 510.5078,27.1289 Q509.8047,26.875 509.1016,26.875 Q508.2227,26.875 507.4805,27.2266 Q506.7578,27.5781 506.1914,28.3594 Q505.625,29.1406 505.625,30.2148 L505.625,31.3672 Q505.625,32.6563 506.6797,33.5156 Q507.7344,34.375 509.6094,34.375 Q510.7227,34.375 511.5039,34.1211 Q511.9531,33.9844 512.4609,33.5352 Q512.793,33.2813 512.9688,33.2031 Q513.1445,33.125 513.3594,33.125 Q513.7695,33.125 514.0625,33.457 Q514.375,33.7695 514.375,34.2188 Q514.375,34.6484 513.9453,35.1563 Q513.3203,35.8984 512.3242,36.3086 Q511.0156,36.875 509.4141,36.875 Q507.5391,36.875 506.0352,36.1328 Q504.8242,35.5469 503.9648,34.2773 Q503.125,33.0078 503.125,31.5039 L503.125,30.1367 Q503.125,28.5742 503.8672,27.207 Q504.6289,25.8398 505.9375,25.1172 Q507.2656,24.375 508.75,24.375 Q509.6484,24.375 510.4297,24.6875 Q511.2109,25 511.875,25.625 Z "/><text fill="#000000" font-family="sans-serif" font-size="15" lengthAdjust="spacingAndGlyphs" textLength="163.75" x="526.875" y="36.1377">CreateVehicleController</text><line style="stroke: #A80036; stroke-width: 1.875;" x1="491.875" x2="693.125" y1="50" y2="50"/><line style="stroke: #A80036; stroke-width: 1.875;" x1="491.875" x2="693.125" y1="60" y2="60"/><!--MD5=[a16c6c6b4acf5b7bf94ccf4f6a9af788]
class OpenDashboardController--><rect fill="#FEFECE" filter="url(#f1hg0o8mbuw9c2)" height="60" id="OpenDashboardController" style="stroke: #A80036; stroke-width: 1.875;" width="222.5" x="738.75" y="10"/><ellipse cx="757.5" cy="30" fill="#ADD1B2" rx="13.75" ry="13.75" style="stroke: #A80036; stroke-width: 1.25;"/><path d="M760,25.625 Q760.2539,25 760.5469,24.6875 Q760.8398,24.375 761.1719,24.375 Q761.7578,24.375 762.1289,24.7266 Q762.5,25.0781 762.5,25.8984 L762.5,27.8516 Q762.5,28.6719 762.1484,29.0234 Q761.7969,29.375 761.25,29.375 Q760.7617,29.375 760.4492,29.1602 Q760.1367,28.9453 760,28.3789 Q759.9414,27.9883 759.7266,27.7734 Q759.3359,27.3633 758.6328,27.1289 Q757.9297,26.875 757.2266,26.875 Q756.3477,26.875 755.6055,27.2266 Q754.8828,27.5781 754.3164,28.3594 Q753.75,29.1406 753.75,30.2148 L753.75,31.3672 Q753.75,32.6563 754.8047,33.5156 Q755.8594,34.375 757.7344,34.375 Q758.8477,34.375 759.6289,34.1211 Q760.0781,33.9844 760.5859,33.5352 Q760.918,33.2813 761.0938,33.2031 Q761.2695,33.125 761.4844,33.125 Q761.8945,33.125 762.1875,33.457 Q762.5,33.7695 762.5,34.2188 Q762.5,34.6484 762.0703,35.1563 Q761.4453,35.8984 760.4492,36.3086 Q759.1406,36.875 757.5391,36.875 Q755.6641,36.875 754.1602,36.1328 Q752.9492,35.5469 752.0898,34.2773 Q751.25,33.0078 751.25,31.5039 L751.25,30.1367 Q751.25,28.5742 751.9922,27.207 Q752.7539,25.8398 754.0625,25.1172 Q755.3906,24.375 756.875,24.375 Q757.7734,24.375 758.5547,24.6875 Q759.3359,25 760,25.625 Z "/><text fill="#000000" font-family="sans-serif" font-size="15" lengthAdjust="spacingAndGlyphs" textLength="182.5" x="775" y="36.1377">OpenDashboardController</text><line style="stroke: #A80036; stroke-width: 1.875;" x1="740" x2="960" y1="50" y2="50"/><line style="stroke: #A80036; stroke-width: 1.875;" x1="740" x2="960" y1="60" y2="60"/><!--MD5=[fb53487f3bac7251ff70379f798d388d]
class OpenInterventionsController--><rect fill="#FEFECE" filter="url(#f1hg0o8mbuw9c2)" height="60" id="OpenInterventionsController" style="stroke: #A80036; stroke-width: 1.875;" width="232.5" x="1005" y="10"/><ellipse cx="1023.75" cy="30" fill="#ADD1B2" rx="13.75" ry="13.75" style="stroke: #A80036; stroke-width: 1.25;"/><path d="M1026.25,25.625 Q1026.5039,25 1026.7969,24.6875 Q1027.0898,24.375 1027.4219,24.375 Q1028.0078,24.375 1028.3789,24.7266 Q1028.75,25.0781 1028.75,25.8984 L1028.75,27.8516 Q1028.75,28.6719 1028.3984,29.0234 Q1028.0469,29.375 1027.5,29.375 Q1027.0117,29.375 1026.6992,29.1602 Q1026.3867,28.9453 1026.25,28.3789 Q1026.1914,27.9883 1025.9766,27.7734 Q1025.5859,27.3633 1024.8828,27.1289 Q1024.1797,26.875 1023.4766,26.875 Q1022.5977,26.875 1021.8555,27.2266 Q1021.1328,27.5781 1020.5664,28.3594 Q1020,29.1406 1020,30.2148 L1020,31.3672 Q1020,32.6563 1021.0547,33.5156 Q1022.1094,34.375 1023.9844,34.375 Q1025.0977,34.375 1025.8789,34.1211 Q1026.3281,33.9844 1026.8359,33.5352 Q1027.168,33.2813 1027.3438,33.2031 Q1027.5195,33.125 1027.7344,33.125 Q1028.1445,33.125 1028.4375,33.457 Q1028.75,33.7695 1028.75,34.2188 Q1028.75,34.6484 1028.3203,35.1563 Q1027.6953,35.8984 1026.6992,36.3086 Q1025.3906,36.875 1023.7891,36.875 Q1021.9141,36.875 1020.4102,36.1328 Q1019.1992,35.5469 1018.3398,34.2773 Q1017.5,33.0078 1017.5,31.5039 L1017.5,30.1367 Q1017.5,28.5742 1018.2422,27.207 Q1019.0039,25.8398 1020.3125,25.1172 Q1021.6406,24.375 1023.125,24.375 Q1024.0234,24.375 1024.8047,24.6875 Q1025.5859,25 1026.25,25.625 Z "/><text fill="#000000" font-family="sans-serif" font-size="15" lengthAdjust="spacingAndGlyphs" textLength="192.5" x="1041.25" y="36.1377">OpenInterventionsController</text><line style="stroke: #A80036; stroke-width: 1.875;" x1="1006.25" x2="1236.25" y1="50" y2="50"/><line style="stroke: #A80036; stroke-width: 1.875;" x1="1006.25" x2="1236.25" y1="60" y2="60"/><!--MD5=[a8a9ef21f02945362a565f5006e12261]
class OpenVehiclesController--><rect fill="#FEFECE" filter="url(#f1hg0o8mbuw9c2)" height="60" id="OpenVehiclesController" style="stroke: #A80036; stroke-width: 1.875;" width="203.75" x="1281.875" y="10"/><ellipse cx="1300.625" cy="30" fill="#ADD1B2" rx="13.75" ry="13.75" style="stroke: #A80036; stroke-width: 1.25;"/><path d="M1303.125,25.625 Q1303.3789,25 1303.6719,24.6875 Q1303.9648,24.375 1304.2969,24.375 Q1304.8828,24.375 1305.2539,24.7266 Q1305.625,25.0781 1305.625,25.8984 L1305.625,27.8516 Q1305.625,28.6719 1305.2734,29.0234 Q1304.9219,29.375 1304.375,29.375 Q1303.8867,29.375 1303.5742,29.1602 Q1303.2617,28.9453 1303.125,28.3789 Q1303.0664,27.9883 1302.8516,27.7734 Q1302.4609,27.3633 1301.7578,27.1289 Q1301.0547,26.875 1300.3516,26.875 Q1299.4727,26.875 1298.7305,27.2266 Q1298.0078,27.5781 1297.4414,28.3594 Q1296.875,29.1406 1296.875,30.2148 L1296.875,31.3672 Q1296.875,32.6563 1297.9297,33.5156 Q1298.9844,34.375 1300.8594,34.375 Q1301.9727,34.375 1302.7539,34.1211 Q1303.2031,33.9844 1303.7109,33.5352 Q1304.043,33.2813 1304.2188,33.2031 Q1304.3945,33.125 1304.6094,33.125 Q1305.0195,33.125 1305.3125,33.457 Q1305.625,33.7695 1305.625,34.2188 Q1305.625,34.6484 1305.1953,35.1563 Q1304.5703,35.8984 1303.5742,36.3086 Q1302.2656,36.875 1300.6641,36.875 Q1298.7891,36.875 1297.2852,36.1328 Q1296.0742,35.5469 1295.2148,34.2773 Q1294.375,33.0078 1294.375,31.5039 L1294.375,30.1367 Q1294.375,28.5742 1295.1172,27.207 Q1295.8789,25.8398 1297.1875,25.1172 Q1298.5156,24.375 1300,24.375 Q1300.8984,24.375 1301.6797,24.6875 Q1302.4609,25 1303.125,25.625 Z "/><text fill="#000000" font-family="sans-serif" font-size="15" lengthAdjust="spacingAndGlyphs" textLength="163.75" x="1318.125" y="36.1377">OpenVehiclesController</text><line style="stroke: #A80036; stroke-width: 1.875;" x1="1283.125" x2="1484.375" y1="50" y2="50"/><line style="stroke: #A80036; stroke-width: 1.875;" x1="1283.125" x2="1484.375" y1="60" y2="60"/><!--MD5=[cfc6b2365ecbc669c8804a6c1bb61eae]
link ConfigClientController to VehiclesDao--><path d="M195.8625,70.0588 C306.3475,104.6125 491.4413,162.5013 609.8563,199.5363 " fill="none" id="ConfigClientController-&gt;VehiclesDao" style="stroke: #A80036; stroke-width: 1.25;"/><polygon fill="#A80036" points="616.1475,201.5039,606.9032,193.3734,610.1825,199.638,603.9178,202.9173,616.1475,201.5039" style="stroke: #A80036; stroke-width: 1.25;"/><!--MD5=[99bb9e152866dab488dc384582750592]
link ConfigVehicleController to VehiclesDao--><path d="M401.3288,70.1625 C456.3625,98.4113 541.6363,142.1813 610.3088,177.43 " fill="none" id="ConfigVehicleController-&gt;VehiclesDao" style="stroke: #A80036; stroke-width: 1.25;"/><polygon fill="#A80036" points="616.06,180.3825,608.335,170.7967,610.4998,177.5283,603.7682,179.6931,616.06,180.3825" style="stroke: #A80036; stroke-width: 1.25;"/><!--MD5=[9f2d2dc8ef250b3cca8f2133607a65fa]
link CreateVehicleController to VehiclesDao--><path d="M611.775,70.1625 C624.2188,88.8275 641.18,114.27 658.035,139.5525 " fill="none" id="CreateVehicleController-&gt;VehiclesDao" style="stroke: #A80036; stroke-width: 1.25;"/><polygon fill="#A80036" points="661.6288,144.9438,659.5515,132.8092,658.1631,139.7426,651.2297,138.3542,661.6288,144.9438" style="stroke: #A80036; stroke-width: 1.25;"/><!--MD5=[f90df2a441ff62028a9ff9fb470f1839]
link OpenDashboardController to VehiclesDao--><path d="M830.725,70.1625 C818.2813,88.8275 801.32,114.27 784.465,139.5525 " fill="none" id="OpenDashboardController-&gt;VehiclesDao" style="stroke: #A80036; stroke-width: 1.25;"/><polygon fill="#A80036" points="780.8713,144.9438,791.2703,138.3542,784.3369,139.7426,782.9485,132.8092,780.8713,144.9438" style="stroke: #A80036; stroke-width: 1.25;"/><!--MD5=[34a305df6ba2f626d45d03a1b2d78aa0]
link OpenInterventionsController to VehiclesDao--><path d="M1061.3663,70.1625 C1000.9363,99.3388 906.2075,145.075 832.0538,180.8775 " fill="none" id="OpenInterventionsController-&gt;VehiclesDao" style="stroke: #A80036; stroke-width: 1.25;"/><polygon fill="#A80036" points="826.3013,183.655,838.6062,183.2657,831.9295,180.9373,834.2579,174.2606,826.3013,183.655" style="stroke: #A80036; stroke-width: 1.25;"/><!--MD5=[1a8513f96609cc40d5e42683625eb098]
link OpenVehiclesController to VehiclesDao--><path d="M1284.925,70.0588 C1163.965,105.32 959.6525,164.8788 833.06,201.7813 " fill="none" id="OpenVehiclesController-&gt;VehiclesDao" style="stroke: #A80036; stroke-width: 1.25;"/><polygon fill="#A80036" points="826.7163,203.6305,838.9158,205.2839,832.7167,201.8822,836.1185,195.6832,826.7163,203.6305" style="stroke: #A80036; stroke-width: 1.25;"/><!--MD5=[ccce534231df54e3d38ec60a8945ee36]
@startuml
	class VehiclesDao {
	+save(vehicle)
	+searchVehicle(text)
	+searchVehicle(interventionId)
	+createVehicle(vehicle)
	+readVehicle(vehicleId)
	+readAllVehicles()
	+readVehicles(clientId)
	}

	ConfigClientController - -> VehiclesDao
	ConfigVehicleController - -> VehiclesDao
	CreateVehicleController - -> VehiclesDao
	OpenDashboardController - -> VehiclesDao
	OpenInterventionsController - -> VehiclesDao
	OpenVehiclesController - -> VehiclesDao
@enduml

PlantUML version 1.2020.09(Sun May 10 12:51:06 CEST 2020)
(GPL source distribution)
Java Runtime: OpenJDK Runtime Environment
JVM: OpenJDK 64-Bit Server VM
Java Version: 11.0.8+10-b1094.1
Operating System: Windows 10
Default Encoding: Cp1252
Language: en
Country: GB
--></g></svg>