<?xml version="1.0" encoding="UTF-8" standalone="no"?><svg xmlns="http://www.w3.org/2000/svg" xmlns:xlink="http://www.w3.org/1999/xlink" contentScriptType="application/ecmascript" contentStyleType="text/css" height="1681.25px" preserveAspectRatio="none" style="width:1021px;height:1681px;" version="1.1" viewBox="0 0 1021 1681" width="1021.25px" zoomAndPan="magnify"><defs><filter height="300%" id="fqgezh96dl6gp" width="300%" x="-1" y="-1"><feGaussianBlur result="blurOut" stdDeviation="2.5"/><feColorMatrix in="blurOut" result="blurOut2" type="matrix" values="0 0 0 0 0 0 0 0 0 0 0 0 0 0 0 0 0 0 .4 0"/><feOffset dx="5.0" dy="5.0" in="blurOut2" result="blurOut3"/><feBlend in="SourceGraphic" in2="blurOut3" mode="normal"/></filter></defs><g><!--MD5=[f945988a2674c3d8a4333e3c4d21d8ac]
cluster configVehicle--><rect fill="#FEFECE" filter="url(#fqgezh96dl6gp)" height="1470" rx="15.625" ry="15.625" style="stroke: #A80036; stroke-width: 1.875;" width="751.25" x="73.75" y="197.5"/><rect fill="#FFFFFF" height="1427.9883" rx="15.625" ry="15.625" style="stroke: #FFFFFF; stroke-width: 1.25;" width="743.75" x="77.5" y="235.7617"/><line style="stroke: #A80036; stroke-width: 1.875;" x1="73.75" x2="825" y1="232.0117" y2="232.0117"/><text fill="#000000" font-family="sans-serif" font-size="17.5" lengthAdjust="spacingAndGlyphs" textLength="105" x="396.875" y="220.6665">configVehicle</text><rect fill="#FEFECE" filter="url(#fqgezh96dl6gp)" height="50" rx="15.625" ry="15.625" style="stroke: #A80036; stroke-width: 1.875;" width="62.5" x="128.75" y="353.75"/><text fill="#000000" font-family="sans-serif" font-size="17.5" lengthAdjust="spacingAndGlyphs" textLength="0" x="162.5" y="385.9106"/><rect fill="#FEFECE" filter="url(#fqgezh96dl6gp)" height="50" rx="15.625" ry="15.625" style="stroke: #A80036; stroke-width: 1.875;" width="62.5" x="411.25" y="896.25"/><text fill="#000000" font-family="sans-serif" font-size="17.5" lengthAdjust="spacingAndGlyphs" textLength="0" x="445" y="928.4106"/><polygon fill="#FEFECE" filter="url(#fqgezh96dl6gp)" points="463.75,1111.25,478.75,1126.25,463.75,1141.25,448.75,1126.25,463.75,1111.25" style="stroke: #A80036; stroke-width: 1.875;"/><rect fill="#FEFECE" filter="url(#fqgezh96dl6gp)" height="50" rx="15.625" ry="15.625" style="stroke: #A80036; stroke-width: 1.875;" width="62.5" x="302.5" y="1587.5"/><text fill="#000000" font-family="sans-serif" font-size="17.5" lengthAdjust="spacingAndGlyphs" textLength="0" x="336.25" y="1619.6606"/><rect fill="#FEFECE" filter="url(#fqgezh96dl6gp)" height="50" rx="15.625" ry="15.625" style="stroke: #A80036; stroke-width: 1.875;" width="62.5" x="403.75" y="1247.5"/><text fill="#000000" font-family="sans-serif" font-size="17.5" lengthAdjust="spacingAndGlyphs" textLength="0" x="437.5" y="1279.6606"/><ellipse cx="160" cy="265" fill="#000000" filter="url(#fqgezh96dl6gp)" rx="12.5" ry="12.5" style="stroke: none; stroke-width: 1.25;"/><rect fill="#FEFECE" filter="url(#fqgezh96dl6gp)" height="50" rx="15.625" ry="15.625" style="stroke: #A80036; stroke-width: 1.875;" width="152.5" x="7.5" y="10"/><text fill="#000000" font-family="sans-serif" font-size="17.5" lengthAdjust="spacingAndGlyphs" textLength="140" x="13.75" y="42.1606">OPEN_VEHICLES</text><rect fill="#FEFECE" filter="url(#fqgezh96dl6gp)" height="50" rx="15.625" ry="15.625" style="stroke: #A80036; stroke-width: 1.875;" width="152.5" x="855" y="1247.5"/><text fill="#000000" font-family="sans-serif" font-size="17.5" lengthAdjust="spacingAndGlyphs" textLength="140" x="861.25" y="1279.6606">OPEN_VEHICLES</text><ellipse cx="931.25" cy="1408.75" fill="none" filter="url(#fqgezh96dl6gp)" rx="12.5" ry="12.5" style="stroke: #000000; stroke-width: 1.25;"/><ellipse cx="931.875" cy="1409.375" fill="#000000" rx="7.5" ry="7.5" style="stroke: none; stroke-width: 1.25;"/><!--MD5=[cdd5297cc005bc4854650772dac6a90b]
link initstate to configVehicle--><path d="M83.75,60.1625 C83.75,88.9125 83.75,138.6813 83.75,181.8141 C83.75,184.5099 83.75,187.1797 83.75,189.8169 C83.75,191.1356 83.75,192.446 83.75,193.7474 C83.75,194.3981 83.75,195.0466 83.75,195.6927 C83.75,196.0157 83.75,196.3382 83.75,196.66 " fill="none" id="initstate-&gt;configVehicle" style="stroke: #008000; stroke-width: 1.25;"/><polygon fill="#008000" points="83.75,196.66,88.75,185.41,83.75,190.41,78.75,185.41,83.75,196.66" style="stroke: #008000; stroke-width: 1.25;"/><path d="M90,103.75 L90,156.25 L242.5,156.25 L242.5,116.25 L230,103.75 L90,103.75 " fill="#F5F5F5" filter="url(#fqgezh96dl6gp)" style="stroke: #008000; stroke-width: 1.25;"/><path d="M230,103.75 L230,116.25 L242.5,116.25 L230,103.75 " fill="#F5F5F5" style="stroke: #008000; stroke-width: 1.25;"/><text fill="#000000" font-family="sans-serif" font-size="16.25" font-weight="bold" lengthAdjust="spacingAndGlyphs" textLength="126.25" x="97.5" y="126.8689">User requests to</text><ellipse cx="104.375" cy="141.5039" fill="#000000" rx="3.125" ry="3.125" style="stroke: #000000; stroke-width: 0.0;"/><text fill="#000000" font-family="sans-serif" font-size="16.25" lengthAdjust="spacingAndGlyphs" textLength="96.25" x="113.75" y="147.3083">configVehicle</text><!--MD5=[b81bb8b388e232ec71f002e4964d0194]
link *start*configVehicle to 1--><path d="M160,277.7375 C160,293.975 160,324.225 160,347.1625 " fill="none" id="*start*configVehicle-&gt;1" style="stroke: #008000; stroke-width: 1.25;"/><polygon fill="#008000" points="160,353.425,165,342.175,160,347.175,155,342.175,160,353.425" style="stroke: #008000; stroke-width: 1.25;"/><!--MD5=[0ba0d8a0fd0e641c23f69743a446dfe6]
link 1 to 2--><path d="M191.54,389.0375 C250.9975,406.075 373.75,441.25 373.75,441.25 C373.75,441.25 423.0175,784.3313 438.14,889.635 " fill="none" id="1-&gt;2" style="stroke: #008000; stroke-width: 1.25;"/><polygon fill="#008000" points="439.0438,895.93,442.392,884.083,438.1544,889.7436,432.4937,885.506,439.0438,895.93" style="stroke: #008000; stroke-width: 1.25;"/><path d="M440,447.5 L440,847.5 L795,847.5 L795,460 L782.5,447.5 L440,447.5 " fill="#F5F5F5" filter="url(#fqgezh96dl6gp)" style="stroke: #008000; stroke-width: 1.25;"/><path d="M782.5,447.5 L782.5,460 L795,460 L782.5,447.5 " fill="#F5F5F5" style="stroke: #008000; stroke-width: 1.25;"/><text fill="#000000" font-family="sans-serif" font-size="16.25" font-weight="bold" lengthAdjust="spacingAndGlyphs" textLength="111.25" x="447.5" y="470.6189">System shows</text><ellipse cx="454.375" cy="485.2539" fill="#000000" rx="3.125" ry="3.125" style="stroke: #000000; stroke-width: 0.0;"/><text fill="#000000" font-family="sans-serif" font-size="16.25" lengthAdjust="spacingAndGlyphs" textLength="137.5" x="463.75" y="491.0583">Vehicle information</text><rect fill="#000000" height="4.375" style="stroke: #000000; stroke-width: 0.0;" width="4.375" x="473.75" y="505.0684"/><text fill="#000000" font-family="sans-serif" font-size="16.25" lengthAdjust="spacingAndGlyphs" textLength="126.25" x="480" y="511.4978">Registration plate</text><rect fill="#000000" height="4.375" style="stroke: #000000; stroke-width: 0.0;" width="4.375" x="473.75" y="525.5078"/><text fill="#000000" font-family="sans-serif" font-size="16.25" lengthAdjust="spacingAndGlyphs" textLength="42.5" x="480" y="531.9373">Brand</text><rect fill="#000000" height="4.375" style="stroke: #000000; stroke-width: 0.0;" width="4.375" x="473.75" y="545.9473"/><text fill="#000000" font-family="sans-serif" font-size="16.25" lengthAdjust="spacingAndGlyphs" textLength="88.75" x="480" y="552.3767">Client Name</text><rect fill="#000000" height="4.375" style="stroke: #000000; stroke-width: 0.0;" width="4.375" x="473.75" y="566.3867"/><text fill="#000000" font-family="sans-serif" font-size="16.25" lengthAdjust="spacingAndGlyphs" textLength="106.25" x="480" y="572.8162">Body of Frame</text><rect fill="#000000" height="4.375" style="stroke: #000000; stroke-width: 0.0;" width="4.375" x="473.75" y="586.8262"/><text fill="#000000" font-family="sans-serif" font-size="16.25" lengthAdjust="spacingAndGlyphs" textLength="36.25" x="480" y="593.2556">KMS</text><rect fill="#000000" height="4.375" style="stroke: #000000; stroke-width: 0.0;" width="4.375" x="473.75" y="607.2656"/><text fill="#000000" font-family="sans-serif" font-size="16.25" lengthAdjust="spacingAndGlyphs" textLength="60" x="480" y="613.6951">Last ITV</text><rect fill="#000000" height="4.375" style="stroke: #000000; stroke-width: 0.0;" width="4.375" x="473.75" y="627.7051"/><text fill="#000000" font-family="sans-serif" font-size="16.25" lengthAdjust="spacingAndGlyphs" textLength="62.5" x="480" y="634.1345">Next ITV</text><rect fill="#000000" height="4.375" style="stroke: #000000; stroke-width: 0.0;" width="4.375" x="473.75" y="648.1445"/><text fill="#000000" font-family="sans-serif" font-size="16.25" lengthAdjust="spacingAndGlyphs" textLength="96.25" x="480" y="654.574">Last Revision</text><rect fill="#000000" height="4.375" style="stroke: #000000; stroke-width: 0.0;" width="4.375" x="473.75" y="668.584"/><text fill="#000000" font-family="sans-serif" font-size="16.25" lengthAdjust="spacingAndGlyphs" textLength="138.75" x="480" y="675.0134">Air Filter Reference</text><rect fill="#000000" height="4.375" style="stroke: #000000; stroke-width: 0.0;" width="4.375" x="473.75" y="689.0234"/><text fill="#000000" font-family="sans-serif" font-size="16.25" lengthAdjust="spacingAndGlyphs" textLength="138.75" x="480" y="695.4529">Oil Filter Reference</text><rect fill="#000000" height="4.375" style="stroke: #000000; stroke-width: 0.0;" width="4.375" x="473.75" y="709.4629"/><text fill="#000000" font-family="sans-serif" font-size="16.25" lengthAdjust="spacingAndGlyphs" textLength="72.5" x="480" y="715.8923">Fuel Filter</text><rect fill="#000000" height="4.375" style="stroke: #000000; stroke-width: 0.0;" width="4.375" x="473.75" y="729.9023"/><text fill="#000000" font-family="sans-serif" font-size="16.25" lengthAdjust="spacingAndGlyphs" textLength="66.25" x="480" y="736.3318">Motor Oil</text><text fill="#000000" font-family="sans-serif" font-size="16.25" font-weight="bold" lengthAdjust="spacingAndGlyphs" textLength="113.75" x="447.5" y="756.7712">System allows</text><ellipse cx="454.375" cy="771.4063" fill="#000000" rx="3.125" ry="3.125" style="stroke: #000000; stroke-width: 0.0;"/><text fill="#000000" font-family="sans-serif" font-size="16.25" lengthAdjust="spacingAndGlyphs" textLength="47.5" x="463.75" y="777.2107">Modify</text><rect fill="#000000" height="4.375" style="stroke: #000000; stroke-width: 0.0;" width="4.375" x="473.75" y="791.2207"/><text fill="#000000" font-family="sans-serif" font-size="16.25" lengthAdjust="spacingAndGlyphs" textLength="296.25" x="480" y="797.6501">all shown information except client Name</text><ellipse cx="454.375" cy="812.2852" fill="#000000" rx="3.125" ry="3.125" style="stroke: #000000; stroke-width: 0.0;"/><text fill="#000000" font-family="sans-serif" font-size="16.25" lengthAdjust="spacingAndGlyphs" textLength="98.75" x="463.75" y="818.0896">save changes</text><ellipse cx="454.375" cy="832.7246" fill="#000000" rx="3.125" ry="3.125" style="stroke: #000000; stroke-width: 0.0;"/><text fill="#000000" font-family="sans-serif" font-size="16.25" lengthAdjust="spacingAndGlyphs" textLength="136.25" x="463.75" y="838.5291">finish Configuration</text><!--MD5=[5a869d0c450bf69a108028e01ec256d3]
reverse link 1 to 2--><path d="M160.3963,410.3625 C161.7713,515.6687 166.25,858.75 166.25,858.75 C166.25,858.75 338.2488,896.885 410.81,912.9738 " fill="none" id="1&lt;-2" style="stroke: #008000; stroke-width: 1.25;"/><polygon fill="#008000" points="160.3138,404.075,155.475,415.3953,160.403,410.3244,165.4739,415.2524,160.3138,404.075" style="stroke: #008000; stroke-width: 1.25;"/><path d="M172.5,621.25 L172.5,673.75 L352.5,673.75 L352.5,633.75 L340,621.25 L172.5,621.25 " fill="#F5F5F5" filter="url(#fqgezh96dl6gp)" style="stroke: #008000; stroke-width: 1.25;"/><path d="M340,621.25 L340,633.75 L352.5,633.75 L340,621.25 " fill="#F5F5F5" style="stroke: #008000; stroke-width: 1.25;"/><text fill="#000000" font-family="sans-serif" font-size="16.25" font-weight="bold" lengthAdjust="spacingAndGlyphs" textLength="107.5" x="180" y="644.3689">User provides</text><ellipse cx="186.875" cy="659.0039" fill="#000000" rx="3.125" ry="3.125" style="stroke: #000000; stroke-width: 0.0;"/><text fill="#000000" font-family="sans-serif" font-size="16.25" lengthAdjust="spacingAndGlyphs" textLength="137.5" x="196.25" y="664.8083">Vehicle information</text><!--MD5=[8c316ffe68a835c409c9912a9a463893]
link 2 to endstate--><path d="M473.83,932.3413 C528.9525,949.655 637.5,983.75 637.5,983.75 C637.5,983.75 827.6675,1169.8725 901.9863,1242.6087 " fill="none" id="2-&gt;endstate" style="stroke: #008000; stroke-width: 1.25;"/><polygon fill="#008000" points="906.71,1247.2325,902.1678,1235.79,902.2435,1242.8607,895.1728,1242.9364,906.71,1247.2325" style="stroke: #008000; stroke-width: 1.25;"/><path d="M825,1097.5 L825,1150 L1001.25,1150 L1001.25,1110 L988.75,1097.5 L825,1097.5 " fill="#F5F5F5" filter="url(#fqgezh96dl6gp)" style="stroke: #008000; stroke-width: 1.25;"/><path d="M988.75,1097.5 L988.75,1110 L1001.25,1110 L988.75,1097.5 " fill="#F5F5F5" style="stroke: #008000; stroke-width: 1.25;"/><text fill="#000000" font-family="sans-serif" font-size="16.25" font-weight="bold" lengthAdjust="spacingAndGlyphs" textLength="126.25" x="832.5" y="1120.6189">User requests to</text><ellipse cx="839.375" cy="1135.2539" fill="#000000" rx="3.125" ry="3.125" style="stroke: #000000; stroke-width: 0.0;"/><text fill="#000000" font-family="sans-serif" font-size="16.25" lengthAdjust="spacingAndGlyphs" textLength="133.75" x="848.75" y="1141.0583">finish configuration</text><!--MD5=[eeb69082328d10abd3b14fdeede0d8a3]
link 2 to 3--><path d="M445.0213,946.525 C449.285,987.1587 457.8363,1068.65 461.7325,1105.7775 " fill="none" id="2-&gt;3" style="stroke: #008000; stroke-width: 1.25;"/><polygon fill="#008000" points="462.4038,1112.1738,466.2033,1100.4637,461.752,1105.9578,456.2578,1101.5065,462.4038,1112.1738" style="stroke: #008000; stroke-width: 1.25;"/><path d="M463.75,990 L463.75,1042.5 L616.25,1042.5 L616.25,1002.5 L603.75,990 L463.75,990 " fill="#F5F5F5" filter="url(#fqgezh96dl6gp)" style="stroke: #008000; stroke-width: 1.25;"/><path d="M603.75,990 L603.75,1002.5 L616.25,1002.5 L603.75,990 " fill="#F5F5F5" style="stroke: #008000; stroke-width: 1.25;"/><text fill="#000000" font-family="sans-serif" font-size="16.25" font-weight="bold" lengthAdjust="spacingAndGlyphs" textLength="126.25" x="471.25" y="1013.1189">User requests to</text><ellipse cx="478.125" cy="1027.7539" fill="#000000" rx="3.125" ry="3.125" style="stroke: #000000; stroke-width: 0.0;"/><text fill="#000000" font-family="sans-serif" font-size="16.25" lengthAdjust="spacingAndGlyphs" textLength="98.75" x="487.5" y="1033.5583">save changes</text><!--MD5=[b2ac855d378984b70ee6a5bd13272cbd]
link 3 to 6--><path d="M461.3975,1139.2638 C457.015,1161.1738 447.475,1208.8763 441.145,1240.525 " fill="none" id="3-&gt;6" style="stroke: #008000; stroke-width: 1.25;"/><polygon fill="#008000" points="439.8463,1247.02,446.9538,1236.9679,441.0709,1240.8912,437.1476,1235.0083,439.8463,1247.02" style="stroke: #008000; stroke-width: 1.25;"/><!--MD5=[c24e363b82b23e873c94edca50a9731f]
link 3 to 5--><path d="M467.1663,1137.8388 C478.0575,1170.7988 511.25,1271.25 511.25,1271.25 C511.25,1271.25 511.25,1271.25 511.25,1511.25 C511.25,1511.25 422.6088,1561.1888 370.6075,1590.4854 " fill="none" id="3-&gt;5" style="stroke: #FF0000; stroke-width: 1.25;"/><polygon fill="#FF0000" points="365.075,1593.6023,377.3307,1592.4364,370.5203,1590.5344,372.4222,1583.724,365.075,1593.6023" style="stroke: #FF0000; stroke-width: 1.25;"/><path d="M517.5,1390 L517.5,1422.5 L710,1422.5 L710,1402.5 L697.5,1390 L517.5,1390 " fill="#F5F5F5" filter="url(#fqgezh96dl6gp)" style="stroke: #FF0000; stroke-width: 1.25;"/><path d="M697.5,1390 L697.5,1402.5 L710,1402.5 L697.5,1390 " fill="#F5F5F5" style="stroke: #FF0000; stroke-width: 1.25;"/><text fill="#000000" font-family="sans-serif" font-size="16.25" lengthAdjust="spacingAndGlyphs" textLength="166.25" x="525" y="1413.1189">[Error in save changes]</text><!--MD5=[c90787a7860db4a747522be9bdb91b46]
reverse link 1 to 6--><path d="M155.6575,410.4 C153.4588,425.7875 151.25,441.25 151.25,441.25 C151.25,441.25 151.25,858.75 151.25,858.75 C151.25,858.75 192.5,1053.75 192.5,1053.75 C192.5,1053.75 344.9838,1190.5138 408.1213,1247.1425 " fill="none" id="1&lt;-6" style="stroke: #008000; stroke-width: 1.25;"/><polygon fill="#008000" points="156.5925,403.85,150.0665,414.2891,155.7174,410.0384,159.968,415.6893,156.5925,403.85" style="stroke: #008000; stroke-width: 1.25;"/><path d="M198.75,990 L198.75,1042.5 L428.75,1042.5 L428.75,1002.5 L416.25,990 L198.75,990 " fill="#F5F5F5" filter="url(#fqgezh96dl6gp)" style="stroke: #008000; stroke-width: 1.25;"/><path d="M416.25,990 L416.25,1002.5 L428.75,1002.5 L416.25,990 " fill="#F5F5F5" style="stroke: #008000; stroke-width: 1.25;"/><text fill="#000000" font-family="sans-serif" font-size="16.25" font-weight="bold" lengthAdjust="spacingAndGlyphs" textLength="111.25" x="206.25" y="1013.1189">System shows</text><ellipse cx="213.125" cy="1027.7539" fill="#000000" rx="3.125" ry="3.125" style="stroke: #000000; stroke-width: 0.0;"/><text fill="#000000" font-family="sans-serif" font-size="16.25" lengthAdjust="spacingAndGlyphs" textLength="187.5" x="222.5" y="1033.5583">Successful update vehicle</text><!--MD5=[fc331edf9d9ed5711088ff36eccb7504]
reverse link 1 to 5--><path d="M150.82,409.9875 C146.0688,425.5125 141.25,441.25 141.25,441.25 C141.25,441.25 141.25,858.75 141.25,858.75 C141.25,858.75 157.5,1345 157.5,1345 C157.5,1345 157.5,1345 157.5,1511.25 C157.5,1511.25 251.5438,1564.6087 302.24,1593.372 " fill="none" id="1&lt;-5" style="stroke: #FF0000; stroke-width: 1.25;"/><polygon fill="#FF0000" points="152.6975,403.85,144.609,413.1311,150.8587,409.8234,154.1664,416.0731,152.6975,403.85" style="stroke: #FF0000; stroke-width: 1.25;"/><path d="M162.5,1243.75 L162.5,1296.25 L347.5,1296.25 L347.5,1256.25 L335,1243.75 L162.5,1243.75 " fill="#F5F5F5" filter="url(#fqgezh96dl6gp)" style="stroke: #FF0000; stroke-width: 1.25;"/><path d="M335,1243.75 L335,1256.25 L347.5,1256.25 L335,1243.75 " fill="#F5F5F5" style="stroke: #FF0000; stroke-width: 1.25;"/><text fill="#000000" font-family="sans-serif" font-size="16.25" font-weight="bold" lengthAdjust="spacingAndGlyphs" textLength="111.25" x="170" y="1266.8689">System shows</text><ellipse cx="176.875" cy="1281.5039" fill="#000000" rx="3.125" ry="3.125" style="stroke: #000000; stroke-width: 0.0;"/><text fill="#000000" font-family="sans-serif" font-size="16.25" lengthAdjust="spacingAndGlyphs" textLength="142.5" x="186.25" y="1287.3083">Error update vehicle</text><!--MD5=[31362eb3c29412f8bbfd54b9940d661e]
link endstate to *end--><path d="M931.25,1297.6612 C931.25,1323.9463 931.25,1365.5863 931.25,1389.33 " fill="none" id="endstate-&gt;*end" style="stroke: #008000; stroke-width: 1.25;"/><polygon fill="#008000" points="931.25,1396.0875,936.25,1384.8375,931.25,1389.8375,926.25,1384.8375,931.25,1396.0875" style="stroke: #008000; stroke-width: 1.25;"/><!--MD5=[8051a548421989b3342f50161c195291]
@startuml

skinparam {
    NoteBackgroundColor #whiteSmoke
    ArrowColor #green
    NoteBorderColor #green
    linetype polyline
}

hide empty description

state initstate as "OPEN_VEHICLES"
state configVehicle
state endstate as "OPEN_VEHICLES"

initstate - -> configVehicle
    note on link
        <b>User requests to</b>
        * configVehicle
    end note

state configVehicle {

    state 1 as " "
    state 2 as " "
    state 3 <<choice>>
    state 5 as " "
    state 6 as " "

    [*] -down-> 1
    
    1 -down-> 2
    note on link
    <b>System shows</b>
    * Vehicle information
    ** Registration plate
    ** Brand
    ** Client Name
    ** Body of Frame
    ** KMS
    ** Last ITV
    ** Next ITV
    ** Last Revision
    ** Air Filter Reference
    ** Oil Filter Reference
    ** Fuel Filter
    ** Motor Oil
    <b>System allows</b>
    * Modify
    ** all shown information except client Name
    * save changes
    * finish Configuration
    end note

    2 -up-> 1
    note on link
    <b>User provides</b>
    * Vehicle information
    end note

    2 - - -> endstate
    note on link
    <b>User requests to</b>
    * finish configuration
    end note

    2 -down-> 3
    note on link
    <b>User requests to</b>
    * save changes
    end note

    3 -down-> 6

    3 -down[#red]- - - -> 5
    note on link
        [Error in save changes]
    end note

    6 -up-> 1
    note on link
    <b>System shows</b>
    * Successful update vehicle
    end note

    5 -up[#red]-> 1
    note on link
    <b>System shows</b>
    * Error update vehicle
    end note
}

endstate - -> [*]


@enduml

PlantUML version 1.2020.09(Sun May 10 12:51:06 CEST 2020)
(GPL source distribution)
Java Runtime: OpenJDK Runtime Environment
JVM: OpenJDK 64-Bit Server VM
Java Version: 11.0.8+10-b944.31
Operating System: Windows 10
Default Encoding: Cp1252
Language: en
Country: GB
--></g></svg>