<?xml version="1.0" encoding="UTF-8" standalone="no"?><svg xmlns="http://www.w3.org/2000/svg" xmlns:xlink="http://www.w3.org/1999/xlink" contentScriptType="application/ecmascript" contentStyleType="text/css" height="1111.25px" preserveAspectRatio="none" style="width:490px;height:1111px;" version="1.1" viewBox="0 0 490 1111" width="490px" zoomAndPan="magnify"><defs><filter height="300%" id="f494y75jrzhtb" width="300%" x="-1" y="-1"><feGaussianBlur result="blurOut" stdDeviation="2.5"/><feColorMatrix in="blurOut" result="blurOut2" type="matrix" values="0 0 0 0 0 0 0 0 0 0 0 0 0 0 0 0 0 0 .4 0"/><feOffset dx="5.0" dy="5.0" in="blurOut2" result="blurOut3"/><feBlend in="SourceGraphic" in2="blurOut3" mode="normal"/></filter></defs><g><rect fill="#FEFECE" filter="url(#f494y75jrzhtb)" height="50" rx="15.625" ry="15.625" style="stroke: #A80036; stroke-width: 1.875;" width="176.25" x="173.125" y="1047.5"/><text fill="#000000" font-family="sans-serif" font-size="17.5" lengthAdjust="spacingAndGlyphs" textLength="163.75" x="179.375" y="1079.6606">OPENED_VEHICLES</text><rect fill="#FEFECE" filter="url(#f494y75jrzhtb)" height="50" rx="15.625" ry="15.625" style="stroke: #A80036; stroke-width: 1.875;" width="123.75" x="283.125" y="921.25"/><text fill="#000000" font-family="sans-serif" font-size="17.5" lengthAdjust="spacingAndGlyphs" textLength="111.25" x="289.375" y="953.4106">:openVehicles</text><rect fill="#FEFECE" filter="url(#f494y75jrzhtb)" height="50" rx="15.625" ry="15.625" style="stroke: #A80036; stroke-width: 1.875;" width="176.25" x="153.125" y="10"/><text fill="#000000" font-family="sans-serif" font-size="17.5" lengthAdjust="spacingAndGlyphs" textLength="163.75" x="159.375" y="42.1606">OPENED_VEHICLES</text><rect fill="#FEFECE" filter="url(#f494y75jrzhtb)" height="639.5117" rx="15.625" ry="15.625" style="stroke: #A80036; stroke-width: 1.875;" width="467.5" x="7.5" y="205"/><rect fill="#FFFFFF" height="597.5" rx="15.625" ry="15.625" style="stroke: #FFFFFF; stroke-width: 1.25;" width="460" x="11.25" y="243.2617"/><line style="stroke: #A80036; stroke-width: 1.875;" x1="7.5" x2="475" y1="239.5117" y2="239.5117"/><text fill="#000000" font-family="sans-serif" font-size="17.5" lengthAdjust="spacingAndGlyphs" textLength="107.5" x="187.5" y="229.4165">createVehicle</text><rect fill="#FEFECE" filter="url(#f494y75jrzhtb)" height="50" rx="15.625" ry="15.625" style="stroke: #A80036; stroke-width: 1.875;" width="62.5" x="108.75" y="327.0117"/><text fill="#000000" font-family="sans-serif" font-size="17.5" lengthAdjust="spacingAndGlyphs" textLength="0" x="142.5" y="359.1724"/><rect fill="#FEFECE" filter="url(#f494y75jrzhtb)" height="50" rx="15.625" ry="15.625" style="stroke: #A80036; stroke-width: 1.875;" width="62.5" x="108.75" y="635.7617"/><text fill="#000000" font-family="sans-serif" font-size="17.5" lengthAdjust="spacingAndGlyphs" textLength="0" x="142.5" y="667.9224"/><ellipse cx="140" cy="268.2617" fill="#000000" filter="url(#f494y75jrzhtb)" rx="12.5" ry="12.5" style="stroke: none; stroke-width: 1.25;"/><ellipse cx="140" cy="813.2617" fill="none" filter="url(#f494y75jrzhtb)" rx="12.5" ry="12.5" style="stroke: #000000; stroke-width: 1.25;"/><ellipse cx="140.625" cy="813.8867" fill="#000000" rx="7.5" ry="7.5" style="stroke: none; stroke-width: 1.25;"/><!--MD5=[b65ccc35028ae1e523154555221c7271]
link *start*createVehicle to 1--><path d="M140,280.8092 C140,291.0017 140,306.468 140,320.268 " fill="none" id="*start*createVehicle-&gt;1" style="stroke: #008000; stroke-width: 1.25;"/><polygon fill="#008000" points="140,326.878,145,315.628,140,320.628,135,315.628,140,326.878" style="stroke: #008000; stroke-width: 1.25;"/><!--MD5=[0ba0d8a0fd0e641c23f69743a446dfe6]
link 1 to 2--><path d="M140,377.293 C140,432.5292 140,568.4442 140,629.2517 " fill="none" id="1-&gt;2" style="stroke: #008000; stroke-width: 1.25;"/><polygon fill="#008000" points="140,635.593,145,624.343,140,629.343,135,624.343,140,635.593" style="stroke: #008000; stroke-width: 1.25;"/><path d="M146.25,405.7617 L146.25,602.0117 L422.5,602.0117 L422.5,418.2617 L410,405.7617 L146.25,405.7617 " fill="#F5F5F5" filter="url(#f494y75jrzhtb)" style="stroke: #008000; stroke-width: 1.25;"/><path d="M410,405.7617 L410,418.2617 L422.5,418.2617 L410,405.7617 " fill="#F5F5F5" style="stroke: #008000; stroke-width: 1.25;"/><text fill="#000000" font-family="sans-serif" font-size="16.25" font-weight="bold" lengthAdjust="spacingAndGlyphs" textLength="127.5" x="153.75" y="428.8806">System requires</text><ellipse cx="160.625" cy="443.5156" fill="#000000" rx="3.125" ry="3.125" style="stroke: #000000; stroke-width: 0.0;"/><text fill="#000000" font-family="sans-serif" font-size="16.25" lengthAdjust="spacingAndGlyphs" textLength="132.5" x="170" y="449.3201">vehicle information</text><rect fill="#000000" height="4.375" style="stroke: #000000; stroke-width: 0.0;" width="4.375" x="180" y="463.3301"/><text fill="#000000" font-family="sans-serif" font-size="16.25" lengthAdjust="spacingAndGlyphs" textLength="217.5" x="186.25" y="469.7595">Registration plate (mandatory)</text><rect fill="#000000" height="4.375" style="stroke: #000000; stroke-width: 0.0;" width="4.375" x="180" y="483.7695"/><text fill="#000000" font-family="sans-serif" font-size="16.25" lengthAdjust="spacingAndGlyphs" textLength="133.75" x="186.25" y="490.199">Brand (mandatory)</text><rect fill="#000000" height="4.375" style="stroke: #000000; stroke-width: 0.0;" width="4.375" x="180" y="504.209"/><text fill="#000000" font-family="sans-serif" font-size="16.25" lengthAdjust="spacingAndGlyphs" textLength="180" x="186.25" y="510.6384">Client Name (mandatory)</text><rect fill="#000000" height="4.375" style="stroke: #000000; stroke-width: 0.0;" width="4.375" x="180" y="524.6484"/><text fill="#000000" font-family="sans-serif" font-size="16.25" lengthAdjust="spacingAndGlyphs" textLength="106.25" x="186.25" y="531.0779">Body of Frame</text><rect fill="#000000" height="4.375" style="stroke: #000000; stroke-width: 0.0;" width="4.375" x="180" y="545.0879"/><text fill="#000000" font-family="sans-serif" font-size="16.25" lengthAdjust="spacingAndGlyphs" textLength="36.25" x="186.25" y="551.5173">KMS</text><text fill="#000000" font-family="sans-serif" font-size="16.25" font-weight="bold" lengthAdjust="spacingAndGlyphs" textLength="113.75" x="153.75" y="571.9568">System allows</text><ellipse cx="160.625" cy="586.5918" fill="#000000" rx="3.125" ry="3.125" style="stroke: #000000; stroke-width: 0.0;"/><text fill="#000000" font-family="sans-serif" font-size="16.25" lengthAdjust="spacingAndGlyphs" textLength="47.5" x="170" y="592.3962">cancel</text><!--MD5=[1204e2d810115e71f49e08653a5e6b7b]
link 2 to *end*createVehicle--><path d="M108.1771,674.4055 C73.002,688.1055 21.25,708.2617 21.25,708.2617 C21.25,708.2617 21.25,778.2617 21.25,778.2617 C21.25,778.2617 88.832,797.4692 122.0289,806.9041 " fill="none" id="2-&gt;*end*createVehicle" style="stroke: #FF0000; stroke-width: 1.25;"/><polygon fill="#FF0000" points="128.1796,808.6522,118.7252,800.767,122.1677,806.9435,115.9913,810.386,128.1796,808.6522" style="stroke: #FF0000; stroke-width: 1.25;"/><path d="M27.5,714.5117 L27.5,767.0117 L222.5,767.0117 L222.5,727.0117 L210,714.5117 L27.5,714.5117 " fill="#F5F5F5" filter="url(#f494y75jrzhtb)" style="stroke: #FF0000; stroke-width: 1.25;"/><path d="M210,714.5117 L210,727.0117 L222.5,727.0117 L210,714.5117 " fill="#F5F5F5" style="stroke: #FF0000; stroke-width: 1.25;"/><text fill="#000000" font-family="sans-serif" font-size="16.25" font-weight="bold" lengthAdjust="spacingAndGlyphs" textLength="168.75" x="35" y="737.6306">mechanic requests to</text><ellipse cx="41.875" cy="752.2656" fill="#000000" rx="3.125" ry="3.125" style="stroke: #000000; stroke-width: 0.0;"/><text fill="#000000" font-family="sans-serif" font-size="16.25" lengthAdjust="spacingAndGlyphs" textLength="47.5" x="51.25" y="758.0701">cancel</text><!--MD5=[1204e2d810115e71f49e08653a5e6b7b]
link 2 to *end*createVehicle--><path d="M171.74,677.6705 C198.9375,691.0867 233.75,708.2617 233.75,708.2617 C233.75,708.2617 233.75,778.2617 233.75,778.2617 C233.75,778.2617 184.7075,795.9168 157.565,805.6883 " fill="none" id="2-&gt;*end*createVehicle-1" style="stroke: #008000; stroke-width: 1.25;"/><polygon fill="#008000" points="151.495,807.8733,163.7737,808.7656,157.3753,805.7556,160.3853,799.3572,151.495,807.8733" style="stroke: #008000; stroke-width: 1.25;"/><path d="M240,714.5117 L240,767.0117 L415,767.0117 L415,727.0117 L402.5,714.5117 L240,714.5117 " fill="#F5F5F5" filter="url(#f494y75jrzhtb)" style="stroke: #008000; stroke-width: 1.25;"/><path d="M402.5,714.5117 L402.5,727.0117 L415,727.0117 L402.5,714.5117 " fill="#F5F5F5" style="stroke: #008000; stroke-width: 1.25;"/><text fill="#000000" font-family="sans-serif" font-size="16.25" font-weight="bold" lengthAdjust="spacingAndGlyphs" textLength="107.5" x="247.5" y="737.6306">User provides</text><ellipse cx="254.375" cy="752.2656" fill="#000000" rx="3.125" ry="3.125" style="stroke: #000000; stroke-width: 0.0;"/><text fill="#000000" font-family="sans-serif" font-size="16.25" lengthAdjust="spacingAndGlyphs" textLength="132.5" x="263.75" y="758.0701">vehicle information</text><!--MD5=[a9fbda3814dc1524a6bf0bcf41750fe5]
link initState to createVehicle--><path d="M241.25,60.0938 C241.25,88.59 241.25,139.795 241.25,198.0725 " fill="none" id="initState-&gt;createVehicle" style="stroke: #008000; stroke-width: 1.25;"/><polygon fill="#008000" points="241.25,204.47,246.25,193.22,241.25,198.22,236.25,193.22,241.25,204.47" style="stroke: #008000; stroke-width: 1.25;"/><path d="M247.5,103.75 L247.5,156.25 L400,156.25 L400,116.25 L387.5,103.75 L247.5,103.75 " fill="#F5F5F5" filter="url(#f494y75jrzhtb)" style="stroke: #008000; stroke-width: 1.25;"/><path d="M387.5,103.75 L387.5,116.25 L400,116.25 L387.5,103.75 " fill="#F5F5F5" style="stroke: #008000; stroke-width: 1.25;"/><text fill="#000000" font-family="sans-serif" font-size="16.25" font-weight="bold" lengthAdjust="spacingAndGlyphs" textLength="126.25" x="255" y="126.8689">User requests to</text><ellipse cx="261.875" cy="141.5039" fill="#000000" rx="3.125" ry="3.125" style="stroke: #000000; stroke-width: 0.0;"/><text fill="#000000" font-family="sans-serif" font-size="16.25" lengthAdjust="spacingAndGlyphs" textLength="103.75" x="271.25" y="147.3083">create Vehicle</text><!--MD5=[3f607717196b3a2260d020becec4fedb]
link createVehicle to openVehicles--><path d="M320.2813,845.2312 C327.1813,873.0787 333.1875,897.325 337.5525,914.94 " fill="none" id="createVehicle-&gt;openVehicles" style="stroke: #008000; stroke-width: 1.25;"/><polygon fill="#008000" points="339.085,921.1238,341.2324,909.0014,337.5818,915.0572,331.5259,911.4066,339.085,921.1238" style="stroke: #008000; stroke-width: 1.25;"/><!--MD5=[0e0585a4fefca649d020d2f8822a3b3a]
link createVehicle to OPENED_VEHICLES--><path d="M252.9563,845.25 C255.91,925.7362 258.6588,1000.6456 260.1312,1040.7621 " fill="none" id="createVehicle-&gt;OPENED_VEHICLES" style="stroke: #FF0000; stroke-width: 1.25;"/><polygon fill="#FF0000" points="260.3738,1047.3695,264.9576,1035.9436,260.1444,1041.1237,254.9643,1036.3105,260.3738,1047.3695" style="stroke: #FF0000; stroke-width: 1.25;"/><!--MD5=[4d63c344bab8329ce8268a6876443143]
link openVehicles to OPENED_VEHICLES--><path d="M328.8525,971.36 C315.18,991.5616 295.535,1020.5895 280.9425,1042.1519 " fill="none" id="openVehicles-&gt;OPENED_VEHICLES" style="stroke: #008000; stroke-width: 1.25;"/><polygon fill="#008000" points="277.3488,1047.463,287.7956,1040.9495,280.8523,1042.2873,279.5145,1035.3439,277.3488,1047.463" style="stroke: #008000; stroke-width: 1.25;"/><!--MD5=[b4c57cc7d8fc22ed1c916a8c45dabd0a]
@startuml
skinparam {
    NoteBackgroundColor #whiteSmoke
    ArrowColor #green
    NoteBorderColor #green
    linetype polyline
}

hide empty description

state OPENED_VEHICLES as "OPENED_VEHICLES"
state openVehicles as ":openVehicles"
state initState as "OPENED_VEHICLES"

initState -down-> createVehicle
note on link
    <b>User requests to</b>
    * create Vehicle
end note

state createVehicle {
state 1 as " "
state 2 as " "

[*]  -down-> 1


1 -down-> 2
note on link
    <b>System requires</b>
    * vehicle information
    ** Registration plate (mandatory)
    ** Brand (mandatory)
    ** Client Name (mandatory)
    ** Body of Frame
    ** KMS
    <b>System allows</b>
    * cancel
end note

2 -down[#red]-> [*]
note on link
    <b>mechanic requests to
    * cancel
end note

2 -down-> [*]
note on link
<b>User provides</b>
* vehicle information
end note

createVehicle - -> openVehicles

createVehicle -[#red]-> OPENED_VEHICLES

openVehicles - -> OPENED_VEHICLES

@enduml

PlantUML version 1.2020.09(Sun May 10 12:51:06 CEST 2020)
(GPL source distribution)
Java Runtime: OpenJDK Runtime Environment
JVM: OpenJDK 64-Bit Server VM
Java Version: 11.0.8+10-b944.31
Operating System: Windows 10
Default Encoding: Cp1252
Language: en
Country: GB
--></g></svg>