<?xml version="1.0" encoding="UTF-8" standalone="no"?><svg xmlns="http://www.w3.org/2000/svg" xmlns:xlink="http://www.w3.org/1999/xlink" contentScriptType="application/ecmascript" contentStyleType="text/css" height="1605px" preserveAspectRatio="none" style="width:1137px;height:1605px;" version="1.1" viewBox="0 0 1137 1605" width="1137.5px" zoomAndPan="magnify"><defs><filter height="300%" id="f1mo51zw1ramxc" width="300%" x="-1" y="-1"><feGaussianBlur result="blurOut" stdDeviation="2.5"/><feColorMatrix in="blurOut" result="blurOut2" type="matrix" values="0 0 0 0 0 0 0 0 0 0 0 0 0 0 0 0 0 0 .4 0"/><feOffset dx="5.0" dy="5.0" in="blurOut2" result="blurOut3"/><feBlend in="SourceGraphic" in2="blurOut3" mode="normal"/></filter></defs><g><rect fill="#FEFECE" filter="url(#f1mo51zw1ramxc)" height="50" rx="15.625" ry="15.625" style="stroke: #A80036; stroke-width: 1.875;" width="201.25" x="7.5" y="10"/><text fill="#000000" font-family="sans-serif" font-size="17.5" lengthAdjust="spacingAndGlyphs" textLength="188.75" x="13.75" y="42.1606">OPENED_DASHBOARD</text><rect fill="#FEFECE" filter="url(#f1mo51zw1ramxc)" height="50" rx="15.625" ry="15.625" style="stroke: #A80036; stroke-width: 1.875;" width="176.25" x="295" y="10"/><text fill="#000000" font-family="sans-serif" font-size="17.5" lengthAdjust="spacingAndGlyphs" textLength="163.75" x="301.25" y="42.1606">OPENED_VEHICLES</text><rect fill="#FEFECE" filter="url(#f1mo51zw1ramxc)" height="50" rx="15.625" ry="15.625" style="stroke: #A80036; stroke-width: 1.875;" width="228.75" x="543.75" y="10"/><text fill="#000000" font-family="sans-serif" font-size="17.5" lengthAdjust="spacingAndGlyphs" textLength="216.25" x="550" y="42.1606">OPENED_INTERVENTIONS</text><rect fill="#FEFECE" filter="url(#f1mo51zw1ramxc)" height="50" rx="15.625" ry="15.625" style="stroke: #A80036; stroke-width: 1.875;" width="165" x="850.625" y="10"/><text fill="#000000" font-family="sans-serif" font-size="17.5" lengthAdjust="spacingAndGlyphs" textLength="152.5" x="856.875" y="42.1606">OPENED_CLIENTS</text><rect fill="#FEFECE" filter="url(#f1mo51zw1ramxc)" height="50" rx="15.625" ry="15.625" style="stroke: #A80036; stroke-width: 1.875;" width="201.25" x="442.5" y="1541.25"/><text fill="#000000" font-family="sans-serif" font-size="17.5" lengthAdjust="spacingAndGlyphs" textLength="188.75" x="448.75" y="1573.4106">OPENED_DASHBOARD</text><rect fill="#FEFECE" filter="url(#f1mo51zw1ramxc)" height="50" rx="15.625" ry="15.625" style="stroke: #A80036; stroke-width: 1.875;" width="145" x="561.875" y="1415"/><text fill="#000000" font-family="sans-serif" font-size="17.5" lengthAdjust="spacingAndGlyphs" textLength="132.5" x="568.125" y="1447.1606">:openDashboard</text><rect fill="#FEFECE" filter="url(#f1mo51zw1ramxc)" height="1133.2617" rx="15.625" ry="15.625" style="stroke: #A80036; stroke-width: 1.875;" width="655" x="193.125" y="205"/><rect fill="#FFFFFF" height="1091.25" rx="15.625" ry="15.625" style="stroke: #FFFFFF; stroke-width: 1.25;" width="647.5" x="196.875" y="243.2617"/><line style="stroke: #A80036; stroke-width: 1.875;" x1="193.125" x2="848.125" y1="239.5117" y2="239.5117"/><text fill="#000000" font-family="sans-serif" font-size="17.5" lengthAdjust="spacingAndGlyphs" textLength="142.5" x="449.375" y="229.4165">createIntervention</text><rect fill="#FEFECE" filter="url(#f1mo51zw1ramxc)" height="50" rx="15.625" ry="15.625" style="stroke: #A80036; stroke-width: 1.875;" width="62.5" x="475.625" y="327.0117"/><text fill="#000000" font-family="sans-serif" font-size="17.5" lengthAdjust="spacingAndGlyphs" textLength="0" x="509.375" y="359.1724"/><rect fill="#FEFECE" filter="url(#f1mo51zw1ramxc)" height="50" rx="15.625" ry="15.625" style="stroke: #A80036; stroke-width: 1.875;" width="62.5" x="313.125" y="635.7617"/><text fill="#000000" font-family="sans-serif" font-size="17.5" lengthAdjust="spacingAndGlyphs" textLength="0" x="346.875" y="667.9224"/><rect fill="#FEFECE" filter="url(#f1mo51zw1ramxc)" height="50" rx="15.625" ry="15.625" style="stroke: #A80036; stroke-width: 1.875;" width="62.5" x="389.375" y="842.0117"/><text fill="#000000" font-family="sans-serif" font-size="17.5" lengthAdjust="spacingAndGlyphs" textLength="0" x="423.125" y="874.1724"/><rect fill="#FEFECE" filter="url(#f1mo51zw1ramxc)" height="50" rx="15.625" ry="15.625" style="stroke: #A80036; stroke-width: 1.875;" width="62.5" x="396.875" y="1129.5117"/><text fill="#000000" font-family="sans-serif" font-size="17.5" lengthAdjust="spacingAndGlyphs" textLength="0" x="430.625" y="1161.6724"/><ellipse cx="506.875" cy="268.2617" fill="#000000" filter="url(#f1mo51zw1ramxc)" rx="12.5" ry="12.5" style="stroke: none; stroke-width: 1.25;"/><ellipse cx="226.875" cy="1307.0117" fill="none" filter="url(#f1mo51zw1ramxc)" rx="12.5" ry="12.5" style="stroke: #000000; stroke-width: 1.25;"/><ellipse cx="227.5" cy="1307.6367" fill="#000000" rx="7.5" ry="7.5" style="stroke: none; stroke-width: 1.25;"/><!--MD5=[4a8c5f787d0a038c39cacf2d61c6a23c]
link *start*createIntervention to 1--><path d="M506.875,280.8092 C506.875,291.0017 506.875,306.468 506.875,320.268 " fill="none" id="*start*createIntervention-&gt;1" style="stroke: #008000; stroke-width: 1.25;"/><polygon fill="#008000" points="506.875,326.878,511.875,315.628,506.875,320.628,501.875,315.628,506.875,326.878" style="stroke: #008000; stroke-width: 1.25;"/><!--MD5=[0ba0d8a0fd0e641c23f69743a446dfe6]
link 1 to 2--><path d="M475.4013,362.2892 C428.475,375.748 345.625,399.5117 345.625,399.5117 C345.625,399.5117 344.85,560.593 344.5213,629.178 " fill="none" id="1-&gt;2" style="stroke: #008000; stroke-width: 1.25;"/><polygon fill="#008000" points="344.49,635.518,349.5446,624.2924,344.5204,629.268,339.5447,624.2438,344.49,635.518" style="stroke: #008000; stroke-width: 1.25;"/><path d="M351.875,405.7617 L351.875,602.0117 L640.625,602.0117 L640.625,418.2617 L628.125,405.7617 L351.875,405.7617 " fill="#F5F5F5" filter="url(#f1mo51zw1ramxc)" style="stroke: #008000; stroke-width: 1.25;"/><path d="M628.125,405.7617 L628.125,418.2617 L640.625,418.2617 L628.125,405.7617 " fill="#F5F5F5" style="stroke: #008000; stroke-width: 1.25;"/><text fill="#000000" font-family="sans-serif" font-size="16.25" font-weight="bold" lengthAdjust="spacingAndGlyphs" textLength="127.5" x="359.375" y="428.8806">System requires</text><ellipse cx="366.25" cy="443.5156" fill="#000000" rx="3.125" ry="3.125" style="stroke: #000000; stroke-width: 0.0;"/><text fill="#000000" font-family="sans-serif" font-size="16.25" lengthAdjust="spacingAndGlyphs" textLength="48.75" x="375.625" y="449.3201">vehicle</text><rect fill="#000000" height="4.375" style="stroke: #000000; stroke-width: 0.0;" width="4.375" x="385.625" y="463.3301"/><text fill="#000000" font-family="sans-serif" font-size="16.25" lengthAdjust="spacingAndGlyphs" textLength="201.25" x="391.875" y="469.7595">(should exist in the system)</text><rect fill="#000000" height="4.375" style="stroke: #000000; stroke-width: 0.0;" width="4.375" x="385.625" y="483.7695"/><text fill="#000000" font-family="sans-serif" font-size="16.25" lengthAdjust="spacingAndGlyphs" textLength="230" x="391.875" y="490.199">(mandatory when type REPAIR)</text><ellipse cx="366.25" cy="504.834" fill="#000000" rx="3.125" ry="3.125" style="stroke: #000000; stroke-width: 0.0;"/><text fill="#000000" font-family="sans-serif" font-size="16.25" lengthAdjust="spacingAndGlyphs" textLength="117.5" x="375.625" y="510.6384">intervention type</text><ellipse cx="366.25" cy="525.2734" fill="#000000" rx="3.125" ry="3.125" style="stroke: #000000; stroke-width: 0.0;"/><text fill="#000000" font-family="sans-serif" font-size="16.25" lengthAdjust="spacingAndGlyphs" textLength="165" x="375.625" y="531.0779">intervention description</text><rect fill="#000000" height="4.375" style="stroke: #000000; stroke-width: 0.0;" width="4.375" x="385.625" y="545.0879"/><text fill="#000000" font-family="sans-serif" font-size="16.25" lengthAdjust="spacingAndGlyphs" textLength="117.5" x="391.875" y="551.5173">REPAIR | CAFE</text><text fill="#000000" font-family="sans-serif" font-size="16.25" font-weight="bold" lengthAdjust="spacingAndGlyphs" textLength="113.75" x="359.375" y="571.9568">System allows</text><ellipse cx="366.25" cy="586.5918" fill="#000000" rx="3.125" ry="3.125" style="stroke: #000000; stroke-width: 0.0;"/><text fill="#000000" font-family="sans-serif" font-size="16.25" lengthAdjust="spacingAndGlyphs" textLength="47.5" x="375.625" y="592.3962">cancel</text><!--MD5=[46c88778be5f7d0deb8a0d817827d9b0]
link 2 to *end*createIntervention--><path d="M331.4394,685.7667 C297.2106,748.623 206.875,914.5117 206.875,914.5117 C206.875,914.5117 206.875,1107.0117 206.875,1107.0117 C206.875,1107.0117 218.125,1272.0117 218.125,1272.0117 C218.125,1272.0117 220.2415,1280.1755 222.3926,1288.4727 " fill="none" id="2-&gt;*end*createIntervention" style="stroke: #FF0000; stroke-width: 1.25;"/><polygon fill="#FF0000" points="224.0099,1294.7107,226.0264,1282.5659,222.4413,1288.6608,216.3465,1285.0756,224.0099,1294.7107" style="stroke: #FF0000; stroke-width: 1.25;"/><path d="M213.125,982.0117 L213.125,1034.5117 L406.875,1034.5117 L406.875,994.5117 L394.375,982.0117 L213.125,982.0117 " fill="#F5F5F5" filter="url(#f1mo51zw1ramxc)" style="stroke: #FF0000; stroke-width: 1.25;"/><path d="M394.375,982.0117 L394.375,994.5117 L406.875,994.5117 L394.375,982.0117 " fill="#F5F5F5" style="stroke: #FF0000; stroke-width: 1.25;"/><text fill="#000000" font-family="sans-serif" font-size="16.25" font-weight="bold" lengthAdjust="spacingAndGlyphs" textLength="167.5" x="220.625" y="1005.1306">Mechanic requests to</text><ellipse cx="227.5" cy="1019.7656" fill="#000000" rx="3.125" ry="3.125" style="stroke: #000000; stroke-width: 0.0;"/><text fill="#000000" font-family="sans-serif" font-size="16.25" lengthAdjust="spacingAndGlyphs" textLength="47.5" x="236.875" y="1025.5701">cancel</text><!--MD5=[d209f2622dd5d3103b9c9b4670e2d6db]
link 2 to 4--><path d="M353.2713,685.783 C367.18,722.9505 394.0613,794.7792 409.3225,835.5592 " fill="none" id="2-&gt;4" style="stroke: #008000; stroke-width: 1.25;"/><polygon fill="#008000" points="411.6675,841.8267,412.4064,829.5378,409.4765,835.9733,403.041,833.0434,411.6675,841.8267" style="stroke: #008000; stroke-width: 1.25;"/><path d="M409.375,714.5117 L409.375,808.2617 L616.875,808.2617 L616.875,727.0117 L604.375,714.5117 L409.375,714.5117 " fill="#F5F5F5" filter="url(#f1mo51zw1ramxc)" style="stroke: #008000; stroke-width: 1.25;"/><path d="M604.375,714.5117 L604.375,727.0117 L616.875,727.0117 L604.375,714.5117 " fill="#F5F5F5" style="stroke: #008000; stroke-width: 1.25;"/><text fill="#000000" font-family="sans-serif" font-size="16.25" font-weight="bold" lengthAdjust="spacingAndGlyphs" textLength="148.75" x="416.875" y="737.6306">Mechanic provides</text><ellipse cx="423.75" cy="752.2656" fill="#000000" rx="3.125" ry="3.125" style="stroke: #000000; stroke-width: 0.0;"/><text fill="#000000" font-family="sans-serif" font-size="16.25" lengthAdjust="spacingAndGlyphs" textLength="48.75" x="433.125" y="758.0701">vehicle</text><ellipse cx="423.75" cy="772.7051" fill="#000000" rx="3.125" ry="3.125" style="stroke: #000000; stroke-width: 0.0;"/><text fill="#000000" font-family="sans-serif" font-size="16.25" lengthAdjust="spacingAndGlyphs" textLength="117.5" x="433.125" y="778.5095">intervention type</text><ellipse cx="423.75" cy="793.1445" fill="#000000" rx="3.125" ry="3.125" style="stroke: #000000; stroke-width: 0.0;"/><text fill="#000000" font-family="sans-serif" font-size="16.25" lengthAdjust="spacingAndGlyphs" textLength="165" x="433.125" y="798.949">intervention description</text><!--MD5=[e86e91016e2d6c468aa6ffe31bf75a9a]
link 4 to 9--><path d="M421.2475,892.0267 C422.8275,952.4155 426.875,1107.0117 426.875,1107.0117 C426.875,1107.0117 427.0613,1113.9017 427.29,1122.3642 " fill="none" id="4-&gt;9" style="stroke: #008000; stroke-width: 1.25;"/><polygon fill="#008000" points="427.4712,1129.053,432.1673,1117.6728,427.3034,1122.8052,422.1709,1117.9413,427.4712,1129.053" style="stroke: #008000; stroke-width: 1.25;"/><path d="M433.125,920.7617 L433.125,1095.7617 L640.625,1095.7617 L640.625,933.2617 L628.125,920.7617 L433.125,920.7617 " fill="#F5F5F5" filter="url(#f1mo51zw1ramxc)" style="stroke: #008000; stroke-width: 1.25;"/><path d="M628.125,920.7617 L628.125,933.2617 L640.625,933.2617 L628.125,920.7617 " fill="#F5F5F5" style="stroke: #008000; stroke-width: 1.25;"/><text fill="#000000" font-family="sans-serif" font-size="16.25" font-weight="bold" lengthAdjust="spacingAndGlyphs" textLength="111.25" x="440.625" y="943.8806">System shows</text><ellipse cx="447.5" cy="958.5156" fill="#000000" rx="3.125" ry="3.125" style="stroke: #000000; stroke-width: 0.0;"/><text fill="#000000" font-family="sans-serif" font-size="16.25" lengthAdjust="spacingAndGlyphs" textLength="117.5" x="456.875" y="964.3201">intervention type</text><ellipse cx="447.5" cy="978.9551" fill="#000000" rx="3.125" ry="3.125" style="stroke: #000000; stroke-width: 0.0;"/><text fill="#000000" font-family="sans-serif" font-size="16.25" lengthAdjust="spacingAndGlyphs" textLength="165" x="456.875" y="984.7595">intervention description</text><ellipse cx="447.5" cy="999.3945" fill="#000000" rx="3.125" ry="3.125" style="stroke: #000000; stroke-width: 0.0;"/><text fill="#000000" font-family="sans-serif" font-size="16.25" lengthAdjust="spacingAndGlyphs" textLength="125" x="456.875" y="1005.199">vehicle datasheet</text><text fill="#000000" font-family="sans-serif" font-size="16.25" font-weight="bold" lengthAdjust="spacingAndGlyphs" textLength="113.75" x="440.625" y="1025.6384">System allows</text><ellipse cx="447.5" cy="1040.2734" fill="#000000" rx="3.125" ry="3.125" style="stroke: #000000; stroke-width: 0.0;"/><text fill="#000000" font-family="sans-serif" font-size="16.25" lengthAdjust="spacingAndGlyphs" textLength="115" x="456.875" y="1046.0779">confirm creation</text><ellipse cx="447.5" cy="1060.7129" fill="#000000" rx="3.125" ry="3.125" style="stroke: #000000; stroke-width: 0.0;"/><text fill="#000000" font-family="sans-serif" font-size="16.25" lengthAdjust="spacingAndGlyphs" textLength="57.5" x="456.875" y="1066.5173">go back</text><ellipse cx="447.5" cy="1081.1523" fill="#000000" rx="3.125" ry="3.125" style="stroke: #000000; stroke-width: 0.0;"/><text fill="#000000" font-family="sans-serif" font-size="16.25" lengthAdjust="spacingAndGlyphs" textLength="47.5" x="456.875" y="1086.9568">cancel</text><!--MD5=[aee6f9a608ea4720433801f359adfa6b]
reverse link 1 to 9--><path d="M544.5113,365.2667 C587.4738,378.9705 651.875,399.5117 651.875,399.5117 C651.875,399.5117 651.875,1107.0117 651.875,1107.0117 C651.875,1107.0117 521.385,1133.9842 459.7088,1146.733 " fill="none" id="1&lt;-9" style="stroke: #008000; stroke-width: 1.25;"/><polygon fill="#008000" points="538.3375,363.2967,547.5348,371.4804,544.2916,365.1969,550.5751,361.9537,538.3375,363.2967" style="stroke: #008000; stroke-width: 1.25;"/><path d="M658.125,735.1367 L658.125,787.6367 L795.625,787.6367 L795.625,747.6367 L783.125,735.1367 L658.125,735.1367 " fill="#F5F5F5" filter="url(#f1mo51zw1ramxc)" style="stroke: #008000; stroke-width: 1.25;"/><path d="M783.125,735.1367 L783.125,747.6367 L795.625,747.6367 L783.125,735.1367 " fill="#F5F5F5" style="stroke: #008000; stroke-width: 1.25;"/><text fill="#000000" font-family="sans-serif" font-size="16.25" font-weight="bold" lengthAdjust="spacingAndGlyphs" textLength="106.25" x="670.625" y="758.2556">User requests</text><ellipse cx="672.5" cy="772.8906" fill="#000000" rx="3.125" ry="3.125" style="stroke: #000000; stroke-width: 0.0;"/><text fill="#000000" font-family="sans-serif" font-size="16.25" lengthAdjust="spacingAndGlyphs" textLength="57.5" x="681.875" y="778.6951">go back</text><!--MD5=[5cc8934c13ef7ae7420227f6350c1020]
link 9 to *end*createIntervention--><path d="M422.945,1179.8492 C415.6225,1213.8991 403.125,1272.0117 403.125,1272.0117 C403.125,1272.0117 291.1145,1293.4606 245.682,1302.1603 " fill="none" id="9-&gt;*end*createIntervention" style="stroke: #FF0000; stroke-width: 1.25;"/><polygon fill="#FF0000" points="238.9894,1303.442,250.979,1306.2367,245.1278,1302.2664,249.0982,1296.4152,238.9894,1303.442" style="stroke: #FF0000; stroke-width: 1.25;"/><path d="M424.375,1208.2617 L424.375,1260.7617 L581.875,1260.7617 L581.875,1220.7617 L569.375,1208.2617 L424.375,1208.2617 " fill="#F5F5F5" filter="url(#f1mo51zw1ramxc)" style="stroke: #FF0000; stroke-width: 1.25;"/><path d="M569.375,1208.2617 L569.375,1220.7617 L581.875,1220.7617 L569.375,1208.2617 " fill="#F5F5F5" style="stroke: #FF0000; stroke-width: 1.25;"/><text fill="#000000" font-family="sans-serif" font-size="16.25" font-weight="bold" lengthAdjust="spacingAndGlyphs" textLength="126.25" x="436.875" y="1231.3806">User requests to</text><ellipse cx="438.75" cy="1246.0156" fill="#000000" rx="3.125" ry="3.125" style="stroke: #000000; stroke-width: 0.0;"/><text fill="#000000" font-family="sans-serif" font-size="16.25" lengthAdjust="spacingAndGlyphs" textLength="47.5" x="448.125" y="1251.8201">cancel</text><!--MD5=[5cc8934c13ef7ae7420227f6350c1020]
link 9 to *end*createIntervention--><path d="M396.5425,1162.8867 C339.0388,1175.8605 223.125,1202.0117 223.125,1202.0117 C223.125,1202.0117 223.125,1272.0117 223.125,1272.0117 C223.125,1272.0117 223.9749,1279.6611 224.8655,1287.6763 " fill="none" id="9-&gt;*end*createIntervention-1" style="stroke: #008000; stroke-width: 1.25;"/><polygon fill="#008000" points="225.6054,1294.3355,229.3321,1282.602,224.915,1288.1237,219.3933,1283.7066,225.6054,1294.3355" style="stroke: #008000; stroke-width: 1.25;"/><path d="M229.375,1208.2617 L229.375,1260.7617 L386.875,1260.7617 L386.875,1220.7617 L374.375,1208.2617 L229.375,1208.2617 " fill="#F5F5F5" filter="url(#f1mo51zw1ramxc)" style="stroke: #008000; stroke-width: 1.25;"/><path d="M374.375,1208.2617 L374.375,1220.7617 L386.875,1220.7617 L374.375,1208.2617 " fill="#F5F5F5" style="stroke: #008000; stroke-width: 1.25;"/><text fill="#000000" font-family="sans-serif" font-size="16.25" font-weight="bold" lengthAdjust="spacingAndGlyphs" textLength="126.25" x="236.875" y="1231.3806">User requests to</text><ellipse cx="243.75" cy="1246.0156" fill="#000000" rx="3.125" ry="3.125" style="stroke: #000000; stroke-width: 0.0;"/><text fill="#000000" font-family="sans-serif" font-size="16.25" lengthAdjust="spacingAndGlyphs" textLength="115" x="253.125" y="1251.8201">confirm creation</text><!--MD5=[1488eabd224d37018261463db99a46c3]
link initState to createIntervention--><path d="M114.7738,60.325 C125.2389,98.2125 144.375,167.5 144.375,167.5 C144.375,167.5 161.9025,195.6 189.3913,239.6625 " fill="none" id="initState-&gt;createIntervention" style="stroke: #008000; stroke-width: 1.25;"/><polygon fill="#008000" points="192.7925,245.1125,191.0885,232.9199,189.488,239.8075,182.6005,238.2071,192.7925,245.1125" style="stroke: #008000; stroke-width: 1.25;"/><path d="M150.625,103.75 L150.625,156.25 L358.125,156.25 L358.125,116.25 L345.625,103.75 L150.625,103.75 " fill="#F5F5F5" filter="url(#f1mo51zw1ramxc)" style="stroke: #008000; stroke-width: 1.25;"/><path d="M345.625,103.75 L345.625,116.25 L358.125,116.25 L345.625,103.75 " fill="#F5F5F5" style="stroke: #008000; stroke-width: 1.25;"/><text fill="#000000" font-family="sans-serif" font-size="16.25" font-weight="bold" lengthAdjust="spacingAndGlyphs" textLength="126.25" x="158.125" y="126.8689">User requests to</text><ellipse cx="165" cy="141.5039" fill="#000000" rx="3.125" ry="3.125" style="stroke: #000000; stroke-width: 0.0;"/><text fill="#000000" font-family="sans-serif" font-size="16.25" lengthAdjust="spacingAndGlyphs" textLength="165" x="174.375" y="147.3083">create new intervention</text><!--MD5=[fcd1417b76a1af8be5840f201f3edea1]
link initState2 to createIntervention--><path d="M381.665,60.1 C380.6113,77.3 379.375,97.5 379.375,97.5 C379.375,97.5 379.375,167.5 379.375,167.5 C379.375,167.5 382.0325,178.85 386.62,198.4375 " fill="none" id="initState2-&gt;createIntervention" style="stroke: #008000; stroke-width: 1.25;"/><polygon fill="#008000" points="388.1038,204.775,390.4005,192.6801,386.6754,198.6904,380.6651,194.9654,388.1038,204.775" style="stroke: #008000; stroke-width: 1.25;"/><path d="M385.625,103.75 L385.625,156.25 L593.125,156.25 L593.125,116.25 L580.625,103.75 L385.625,103.75 " fill="#F5F5F5" filter="url(#f1mo51zw1ramxc)" style="stroke: #008000; stroke-width: 1.25;"/><path d="M580.625,103.75 L580.625,116.25 L593.125,116.25 L580.625,103.75 " fill="#F5F5F5" style="stroke: #008000; stroke-width: 1.25;"/><text fill="#000000" font-family="sans-serif" font-size="16.25" font-weight="bold" lengthAdjust="spacingAndGlyphs" textLength="126.25" x="393.125" y="126.8689">User requests to</text><ellipse cx="400" cy="141.5039" fill="#000000" rx="3.125" ry="3.125" style="stroke: #000000; stroke-width: 0.0;"/><text fill="#000000" font-family="sans-serif" font-size="16.25" lengthAdjust="spacingAndGlyphs" textLength="165" x="409.375" y="147.3083">create new intervention</text><!--MD5=[a01b698f47d5978cfbb96c4a734895c3]
link initState3 to createIntervention--><path d="M653.6288,60.2625 C648.4375,87.9875 639.14,137.65 627.7825,198.3 " fill="none" id="initState3-&gt;createIntervention" style="stroke: #008000; stroke-width: 1.25;"/><polygon fill="#008000" points="626.605,204.5875,633.5778,194.4415,627.7479,198.4429,623.7464,192.6129,626.605,204.5875" style="stroke: #008000; stroke-width: 1.25;"/><path d="M653.125,103.75 L653.125,156.25 L860.625,156.25 L860.625,116.25 L848.125,103.75 L653.125,103.75 " fill="#F5F5F5" filter="url(#f1mo51zw1ramxc)" style="stroke: #008000; stroke-width: 1.25;"/><path d="M848.125,103.75 L848.125,116.25 L860.625,116.25 L848.125,103.75 " fill="#F5F5F5" style="stroke: #008000; stroke-width: 1.25;"/><text fill="#000000" font-family="sans-serif" font-size="16.25" font-weight="bold" lengthAdjust="spacingAndGlyphs" textLength="126.25" x="660.625" y="126.8689">User requests to</text><ellipse cx="667.5" cy="141.5039" fill="#000000" rx="3.125" ry="3.125" style="stroke: #000000; stroke-width: 0.0;"/><text fill="#000000" font-family="sans-serif" font-size="16.25" lengthAdjust="spacingAndGlyphs" textLength="165" x="676.875" y="147.3083">create new intervention</text><!--MD5=[cb12774566a57ebde77f7f8e1e1cb3c7]
link initState4 to createIntervention--><path d="M923.725,60.325 C908.93,98.2125 881.875,167.5 881.875,167.5 C881.875,167.5 870.4075,186.65 851.5587,218.1125 " fill="none" id="initState4-&gt;createIntervention" style="stroke: #008000; stroke-width: 1.25;"/><polygon fill="#008000" points="848.2138,223.7,858.2862,216.6212,851.427,218.3393,849.709,211.4801,848.2138,223.7" style="stroke: #008000; stroke-width: 1.25;"/><path d="M915.625,103.75 L915.625,156.25 L1123.125,156.25 L1123.125,116.25 L1110.625,103.75 L915.625,103.75 " fill="#F5F5F5" filter="url(#f1mo51zw1ramxc)" style="stroke: #008000; stroke-width: 1.25;"/><path d="M1110.625,103.75 L1110.625,116.25 L1123.125,116.25 L1110.625,103.75 " fill="#F5F5F5" style="stroke: #008000; stroke-width: 1.25;"/><text fill="#000000" font-family="sans-serif" font-size="16.25" font-weight="bold" lengthAdjust="spacingAndGlyphs" textLength="126.25" x="923.125" y="126.8689">User requests to</text><ellipse cx="930" cy="141.5039" fill="#000000" rx="3.125" ry="3.125" style="stroke: #000000; stroke-width: 0.0;"/><text fill="#000000" font-family="sans-serif" font-size="16.25" lengthAdjust="spacingAndGlyphs" textLength="165" x="939.375" y="147.3083">create new intervention</text><!--MD5=[82e0a98b0fd0fad2d6308e9f497d1ac7]
link createIntervention to OPENED_DASHBOARD--><path d="M535.9575,1338.9038 C537.9825,1413.6388 539.375,1465 539.375,1465 C539.375,1465 540.8725,1504.9294 541.975,1534.3256 " fill="none" id="createIntervention-&gt;OPENED_DASHBOARD" style="stroke: #FF0000; stroke-width: 1.25;"/><polygon fill="#FF0000" points="542.2175,1540.7928,546.7919,1529.3631,541.983,1534.5472,536.7989,1529.7383,542.2175,1540.7928" style="stroke: #FF0000; stroke-width: 1.25;"/><!--MD5=[bca3bc745c23a89e39fecdf2c81c9150]
link createIntervention to openDashboard--><path d="M617.345,1339.0988 C622.1875,1367.435 626.2563,1391.2388 629.2,1408.4688 " fill="none" id="createIntervention-&gt;openDashboard" style="stroke: #008000; stroke-width: 1.25;"/><polygon fill="#008000" points="630.3125,1414.9775,633.3479,1403.0465,629.2607,1408.8166,623.4906,1404.7294,630.3125,1414.9775" style="stroke: #008000; stroke-width: 1.25;"/><!--MD5=[bff4bdcc9e4386ec958e61a220e68862]
link openDashboard to OPENED_DASHBOARD--><path d="M616.7813,1465.11 C601.885,1485.3116 580.4813,1514.3395 564.5813,1535.9019 " fill="none" id="openDashboard-&gt;OPENED_DASHBOARD" style="stroke: #008000; stroke-width: 1.25;"/><polygon fill="#008000" points="560.665,1541.213,571.3659,1535.1258,564.3742,1536.1827,563.3174,1529.1911,560.665,1541.213" style="stroke: #008000; stroke-width: 1.25;"/><!--MD5=[90284d502866dcab8b1972542d4c4438]
@startuml

skinparam {
    NoteBackgroundColor #whiteSmoke
    ArrowColor #green
    NoteBorderColor #green
    linetype polyline
}

hide empty description



state initState as "OPENED_DASHBOARD"
state initState2 as "OPENED_VEHICLES"
state initState3 as "OPENED_INTERVENTIONS"
state initState4 as "OPENED_CLIENTS"
state OPENED_DASHBOARD as "OPENED_DASHBOARD"
state openDashboard as ":openDashboard"

initState - -> createIntervention
note on link
    <b>User requests to</b>
    * create new intervention
end note
initState2 - -> createIntervention
note on link
    <b>User requests to</b>
    * create new intervention
end note
initState3 - -> createIntervention
note on link
    <b>User requests to</b>
    * create new intervention
end note
initState4 - -> createIntervention
note on link
    <b>User requests to</b>
    * create new intervention
end note

state createIntervention {
state 1 as " "
state 2 as " "
state 4 as " "
state 9 as " "

[*] - -> 1

1 - -> 2
note on link
<b>System requires</b>
* vehicle
** (should exist in the system)
** (mandatory when type REPAIR)
* intervention type
* intervention description
** REPAIR | CAFE
<b>System allows</b>
* cancel
end note

2 -[#red]-> [*]
note on link
<b>Mechanic requests to</b>
* cancel
end note

2 - -> 4
note on link
<b>Mechanic provides</b>
* vehicle
* intervention type
* intervention description
end note

4 - -> 9
note on link
<b>System shows
* intervention type
* intervention description
* vehicle datasheet
<b>System allows
* confirm creation
* go back
* cancel
end note

9 -up-> 1
note on link
<b> User requests
* go back
end note

9 -down[#red]-> [*]
note on link
<b> User requests to
* cancel
end note

9 -down-> [*]
note on link
<b>User requests to
* confirm creation
end note
}

createIntervention -[#red]-> OPENED_DASHBOARD

createIntervention - -> openDashboard

openDashboard - -> OPENED_DASHBOARD
@enduml

PlantUML version 1.2020.09(Sun May 10 12:51:06 CEST 2020)
(GPL source distribution)
Java Runtime: OpenJDK Runtime Environment
JVM: OpenJDK 64-Bit Server VM
Java Version: 11.0.8+10-b944.31
Operating System: Windows 10
Default Encoding: Cp1252
Language: en
Country: GB
--></g></svg>