<?xml version="1.0" encoding="UTF-8" standalone="no"?><svg xmlns="http://www.w3.org/2000/svg" xmlns:xlink="http://www.w3.org/1999/xlink" contentScriptType="application/ecmascript" contentStyleType="text/css" height="636.25px" preserveAspectRatio="none" style="width:295px;height:636px;" version="1.1" viewBox="0 0 295 636" width="295px" zoomAndPan="magnify"><defs><filter height="300%" id="f5egzz665c2q8" width="300%" x="-1" y="-1"><feGaussianBlur result="blurOut" stdDeviation="2.5"/><feColorMatrix in="blurOut" result="blurOut2" type="matrix" values="0 0 0 0 0 0 0 0 0 0 0 0 0 0 0 0 0 0 .4 0"/><feOffset dx="5.0" dy="5.0" in="blurOut2" result="blurOut3"/><feBlend in="SourceGraphic" in2="blurOut3" mode="normal"/></filter></defs><g><rect fill="#FEFECE" filter="url(#f5egzz665c2q8)" height="50" rx="15.625" ry="15.625" style="stroke: #A80036; stroke-width: 1.875;" width="201.25" x="7.5" y="10"/><text fill="#000000" font-family="sans-serif" font-size="17.5" lengthAdjust="spacingAndGlyphs" textLength="188.75" x="13.75" y="42.1606">OPENED_DASHBOARD</text><rect fill="#FEFECE" filter="url(#f5egzz665c2q8)" height="50" rx="15.625" ry="15.625" style="stroke: #A80036; stroke-width: 1.875;" width="145" x="35.625" y="446.25"/><text fill="#000000" font-family="sans-serif" font-size="17.5" lengthAdjust="spacingAndGlyphs" textLength="132.5" x="41.875" y="478.4106">:openDashboard</text><rect fill="#FEFECE" filter="url(#f5egzz665c2q8)" height="50" rx="15.625" ry="15.625" style="stroke: #A80036; stroke-width: 1.875;" width="201.25" x="7.5" y="572.5"/><text fill="#000000" font-family="sans-serif" font-size="17.5" lengthAdjust="spacingAndGlyphs" textLength="188.75" x="13.75" y="604.6606">OPENED_DASHBOARD</text><rect fill="#FEFECE" filter="url(#f5egzz665c2q8)" height="164.5117" rx="15.625" ry="15.625" style="stroke: #A80036; stroke-width: 1.875;" width="158.75" x="28.75" y="205"/><rect fill="#FFFFFF" height="122.5" rx="15.625" ry="15.625" style="stroke: #FFFFFF; stroke-width: 1.25;" width="151.25" x="32.5" y="243.2617"/><line style="stroke: #A80036; stroke-width: 1.875;" x1="28.75" x2="187.5" y1="239.5117" y2="239.5117"/><text fill="#000000" font-family="sans-serif" font-size="17.5" lengthAdjust="spacingAndGlyphs" textLength="133.75" x="41.25" y="229.4165">finishIntervention</text><ellipse cx="55" cy="268.2617" fill="#000000" filter="url(#f5egzz665c2q8)" rx="12.5" ry="12.5" style="stroke: none; stroke-width: 1.25;"/><ellipse cx="55" cy="338.2617" fill="none" filter="url(#f5egzz665c2q8)" rx="12.5" ry="12.5" style="stroke: #000000; stroke-width: 1.25;"/><ellipse cx="55.625" cy="338.8867" fill="#000000" rx="7.5" ry="7.5" style="stroke: none; stroke-width: 1.25;"/><!--MD5=[918700b07fcc9e0e6f666f8a2cae2898]
link *start*finishIntervention to *end*finishIntervention--><path d="M55,281.2693 C55,291.6258 55,306.8762 55,318.8086 " fill="none" id="*start*finishIntervention-&gt;*end*finishIntervention" style="stroke: #008000; stroke-width: 1.25;"/><polygon fill="#008000" points="55,325.3888,60,314.1388,55,319.1388,50,314.1388,55,325.3888" style="stroke: #008000; stroke-width: 1.25;"/><!--MD5=[4e9abc9c6055861bb3db62a8a8e1ba06]
link initState to finishIntervention--><path d="M108.125,60.2213 C108.125,91.8012 108.125,149.0763 108.125,198.0662 " fill="none" id="initState-&gt;finishIntervention" style="stroke: #008000; stroke-width: 1.25;"/><polygon fill="#008000" points="108.125,204.6125,113.125,193.3625,108.125,198.3625,103.125,193.3625,108.125,204.6125" style="stroke: #008000; stroke-width: 1.25;"/><path d="M114.375,103.75 L114.375,156.25 L280.625,156.25 L280.625,116.25 L268.125,103.75 L114.375,103.75 " fill="#F5F5F5" filter="url(#f5egzz665c2q8)" style="stroke: #008000; stroke-width: 1.25;"/><path d="M268.125,103.75 L268.125,116.25 L280.625,116.25 L268.125,103.75 " fill="#F5F5F5" style="stroke: #008000; stroke-width: 1.25;"/><text fill="#000000" font-family="sans-serif" font-size="16.25" font-weight="bold" lengthAdjust="spacingAndGlyphs" textLength="126.25" x="121.875" y="126.8689">User requests to</text><ellipse cx="128.75" cy="141.5039" fill="#000000" rx="3.125" ry="3.125" style="stroke: #000000; stroke-width: 0.0;"/><text fill="#000000" font-family="sans-serif" font-size="16.25" lengthAdjust="spacingAndGlyphs" textLength="123.75" x="138.125" y="147.3083">finish intervention</text><!--MD5=[d2795f49a750a43189bd190249d74c6b]
link finishIntervention to openDashboard--><path d="M108.125,370.3613 C108.125,394.965 108.125,420.4625 108.125,439.5063 " fill="none" id="finishIntervention-&gt;openDashboard" style="stroke: #008000; stroke-width: 1.25;"/><polygon fill="#008000" points="108.125,446.2163,113.125,434.9663,108.125,439.9663,103.125,434.9663,108.125,446.2163" style="stroke: #008000; stroke-width: 1.25;"/><!--MD5=[bff4bdcc9e4386ec958e61a220e68862]
link openDashboard to OPENED_DASHBOARD--><path d="M108.125,496.36 C108.125,516.2191 108.125,544.608 108.125,566.0491 " fill="none" id="openDashboard-&gt;OPENED_DASHBOARD" style="stroke: #008000; stroke-width: 1.25;"/><polygon fill="#008000" points="108.125,572.463,113.125,561.213,108.125,566.213,103.125,561.213,108.125,572.463" style="stroke: #008000; stroke-width: 1.25;"/><!--MD5=[9a3b630ab78f88a1354240a2d3d0ef5a]
@startuml

skinparam {
    NoteBackgroundColor #whiteSmoke
    ArrowColor #green
    NoteBorderColor #green
    linetype polyline
}

hide empty description

state initState as "OPENED_DASHBOARD"
state openDashboard as ":openDashboard"
state OPENED_DASHBOARD as "OPENED_DASHBOARD"

initState - -> finishIntervention
note on link
<b>User requests to</b>
* finish intervention
end note

state finishIntervention {
    [*] - -> [*]
}

finishIntervention - -> openDashboard

openDashboard - -> OPENED_DASHBOARD
@enduml

PlantUML version 1.2020.09(Sun May 10 12:51:06 CEST 2020)
(GPL source distribution)
Java Runtime: OpenJDK Runtime Environment
JVM: OpenJDK 64-Bit Server VM
Java Version: 11.0.8+10-b944.31
Operating System: Windows 10
Default Encoding: Cp1252
Language: en
Country: GB
--></g></svg>