<?xml version="1.0" encoding="UTF-8" standalone="no"?><svg xmlns="http://www.w3.org/2000/svg" xmlns:xlink="http://www.w3.org/1999/xlink" contentScriptType="application/ecmascript" contentStyleType="text/css" height="509px" preserveAspectRatio="none" style="width:236px;height:509px;" version="1.1" viewBox="0 0 236 509" width="236px" zoomAndPan="magnify"><defs><filter height="300%" id="f5egzz665c2q8" width="300%" x="-1" y="-1"><feGaussianBlur result="blurOut" stdDeviation="2.0"/><feColorMatrix in="blurOut" result="blurOut2" type="matrix" values="0 0 0 0 0 0 0 0 0 0 0 0 0 0 0 0 0 0 .4 0"/><feOffset dx="4.0" dy="4.0" in="blurOut2" result="blurOut3"/><feBlend in="SourceGraphic" in2="blurOut3" mode="normal"/></filter></defs><g><rect fill="#FEFECE" filter="url(#f5egzz665c2q8)" height="40" rx="12.5" ry="12.5" style="stroke: #A80036; stroke-width: 1.5;" width="161" x="6" y="8"/><text fill="#000000" font-family="sans-serif" font-size="14" lengthAdjust="spacingAndGlyphs" textLength="151" x="11" y="33.7285">OPENED_DASHBOARD</text><rect fill="#FEFECE" filter="url(#f5egzz665c2q8)" height="40" rx="12.5" ry="12.5" style="stroke: #A80036; stroke-width: 1.5;" width="116" x="28.5" y="357"/><text fill="#000000" font-family="sans-serif" font-size="14" lengthAdjust="spacingAndGlyphs" textLength="106" x="33.5" y="382.7285">:openDashboard</text><rect fill="#FEFECE" filter="url(#f5egzz665c2q8)" height="40" rx="12.5" ry="12.5" style="stroke: #A80036; stroke-width: 1.5;" width="161" x="6" y="458"/><text fill="#000000" font-family="sans-serif" font-size="14" lengthAdjust="spacingAndGlyphs" textLength="151" x="11" y="483.7285">OPENED_DASHBOARD</text><rect fill="#FEFECE" filter="url(#f5egzz665c2q8)" height="131.6094" rx="12.5" ry="12.5" style="stroke: #A80036; stroke-width: 1.5;" width="127" x="23" y="164"/><rect fill="#FFFFFF" height="98" rx="12.5" ry="12.5" style="stroke: #FFFFFF; stroke-width: 1.0;" width="121" x="26" y="194.6094"/><line style="stroke: #A80036; stroke-width: 1.5;" x1="23" x2="150" y1="191.6094" y2="191.6094"/><text fill="#000000" font-family="sans-serif" font-size="14" lengthAdjust="spacingAndGlyphs" textLength="107" x="33" y="183.5332">finishIntervention</text><ellipse cx="44" cy="214.6094" fill="#000000" filter="url(#f5egzz665c2q8)" rx="10" ry="10" style="stroke: none; stroke-width: 1.0;"/><ellipse cx="44" cy="270.6094" fill="none" filter="url(#f5egzz665c2q8)" rx="10" ry="10" style="stroke: #000000; stroke-width: 1.0;"/><ellipse cx="44.5" cy="271.1094" fill="#000000" rx="6" ry="6" style="stroke: none; stroke-width: 1.0;"/><!--MD5=[918700b07fcc9e0e6f666f8a2cae2898]
link *start*finishIntervention to *end*finishIntervention--><path d="M44,225.0155 C44,233.3007 44,245.501 44,255.0469 " fill="none" id="*start*finishIntervention-&gt;*end*finishIntervention" style="stroke: #008000; stroke-width: 1.0;"/><polygon fill="#008000" points="44,260.3111,48,251.3111,44,255.3111,40,251.3111,44,260.3111" style="stroke: #008000; stroke-width: 1.0;"/><!--MD5=[4e9abc9c6055861bb3db62a8a8e1ba06]
link initState to finishIntervention--><path d="M86.5,48.177 C86.5,73.441 86.5,119.261 86.5,158.453 " fill="none" id="initState-&gt;finishIntervention" style="stroke: #008000; stroke-width: 1.0;"/><polygon fill="#008000" points="86.5,163.69,90.5,154.69,86.5,158.69,82.5,154.69,86.5,163.69" style="stroke: #008000; stroke-width: 1.0;"/><path d="M91.5,83 L91.5,125 L224.5,125 L224.5,93 L214.5,83 L91.5,83 " fill="#F5F5F5" filter="url(#f5egzz665c2q8)" style="stroke: #008000; stroke-width: 1.0;"/><path d="M214.5,83 L214.5,93 L224.5,93 L214.5,83 " fill="#F5F5F5" style="stroke: #008000; stroke-width: 1.0;"/><text fill="#000000" font-family="sans-serif" font-size="13" font-weight="bold" lengthAdjust="spacingAndGlyphs" textLength="101" x="97.5" y="101.4951">User requests to</text><ellipse cx="103" cy="113.2031" fill="#000000" rx="2.5" ry="2.5" style="stroke: #000000; stroke-width: 0.0;"/><text fill="#000000" font-family="sans-serif" font-size="13" lengthAdjust="spacingAndGlyphs" textLength="99" x="110.5" y="117.8467">finish intervention</text><!--MD5=[d2795f49a750a43189bd190249d74c6b]
link finishIntervention to openDashboard--><path d="M86.5,296.289 C86.5,315.972 86.5,336.37 86.5,351.605 " fill="none" id="finishIntervention-&gt;openDashboard" style="stroke: #008000; stroke-width: 1.0;"/><polygon fill="#008000" points="86.5,356.973,90.5,347.973,86.5,351.973,82.5,347.973,86.5,356.973" style="stroke: #008000; stroke-width: 1.0;"/><!--MD5=[bff4bdcc9e4386ec958e61a220e68862]
link openDashboard to OPENED_DASHBOARD--><path d="M86.5,397.088 C86.5,412.9753 86.5,435.6864 86.5,452.8393 " fill="none" id="openDashboard-&gt;OPENED_DASHBOARD" style="stroke: #008000; stroke-width: 1.0;"/><polygon fill="#008000" points="86.5,457.9704,90.5,448.9704,86.5,452.9704,82.5,448.9704,86.5,457.9704" style="stroke: #008000; stroke-width: 1.0;"/><!--MD5=[9dc472f10f1dadbe6324f753f81c83e1]
@startuml

skinparam {
    NoteBackgroundColor #whiteSmoke
    ArrowColor #green
    NoteBorderColor #green
    linetype polyline
}

hide empty description

state initState as "OPENED_DASHBOARD"
state openDashboard as ":openDashboard"
state OPENED_DASHBOARD as "OPENED_DASHBOARD"

initState - -> finishIntervention
note on link
<b>User requests to</b>
* finish intervention
end note

state finishIntervention {
    [*] - -> [*]
}

finishIntervention - -> openDashboard

openDashboard - -> OPENED_DASHBOARD
@enduml

PlantUML version 1.2020.09(Sun May 10 12:51:06 CEST 2020)
(GPL source distribution)
Java Runtime: OpenJDK Runtime Environment
JVM: OpenJDK 64-Bit Server VM
Java Version: 11.0.8+10-b1094.1
Operating System: Windows 10
Default Encoding: Cp1252
Language: en
Country: GB
--></g></svg>