<?xml version="1.0" encoding="UTF-8" standalone="no"?><svg xmlns="http://www.w3.org/2000/svg" xmlns:xlink="http://www.w3.org/1999/xlink" contentScriptType="application/ecmascript" contentStyleType="text/css" height="1086.25px" preserveAspectRatio="none" style="width:582px;height:1086px;" version="1.1" viewBox="0 0 582 1086" width="582.5px" zoomAndPan="magnify"><defs><filter height="300%" id="f9tz7qehwhcs9" width="300%" x="-1" y="-1"><feGaussianBlur result="blurOut" stdDeviation="2.5"/><feColorMatrix in="blurOut" result="blurOut2" type="matrix" values="0 0 0 0 0 0 0 0 0 0 0 0 0 0 0 0 0 0 .4 0"/><feOffset dx="5.0" dy="5.0" in="blurOut2" result="blurOut3"/><feBlend in="SourceGraphic" in2="blurOut3" mode="normal"/></filter></defs><g><rect fill="#FEFECE" filter="url(#f9tz7qehwhcs9)" height="50" rx="15.625" ry="15.625" style="stroke: #A80036; stroke-width: 1.875;" width="67.5" x="253.75" y="10"/><text fill="#000000" font-family="sans-serif" font-size="17.5" lengthAdjust="spacingAndGlyphs" textLength="55" x="260" y="42.1606">INITIAL</text><rect fill="#FEFECE" filter="url(#f9tz7qehwhcs9)" height="50" rx="15.625" ry="15.625" style="stroke: #A80036; stroke-width: 1.875;" width="145" x="215" y="896.25"/><text fill="#000000" font-family="sans-serif" font-size="17.5" lengthAdjust="spacingAndGlyphs" textLength="132.5" x="221.25" y="928.4106">:openDashboard</text><rect fill="#FEFECE" filter="url(#f9tz7qehwhcs9)" height="50" rx="15.625" ry="15.625" style="stroke: #A80036; stroke-width: 1.875;" width="206.25" x="184.375" y="1022.5"/><text fill="#000000" font-family="sans-serif" font-size="17.5" lengthAdjust="spacingAndGlyphs" textLength="193.75" x="190.625" y="1054.6606">:OPENED_DASHBOARD</text><rect fill="#FEFECE" filter="url(#f9tz7qehwhcs9)" height="614.5117" rx="15.625" ry="15.625" style="stroke: #A80036; stroke-width: 1.875;" width="560" x="7.5" y="205"/><rect fill="#FFFFFF" height="572.5" rx="15.625" ry="15.625" style="stroke: #FFFFFF; stroke-width: 1.25;" width="552.5" x="11.25" y="243.2617"/><line style="stroke: #A80036; stroke-width: 1.875;" x1="7.5" x2="567.5" y1="239.5117" y2="239.5117"/><text fill="#000000" font-family="sans-serif" font-size="17.5" lengthAdjust="spacingAndGlyphs" textLength="37.5" x="268.75" y="229.4165">login</text><rect fill="#FEFECE" filter="url(#f9tz7qehwhcs9)" height="50" rx="15.625" ry="15.625" style="stroke: #A80036; stroke-width: 1.875;" width="62.5" x="111.25" y="327.0117"/><text fill="#000000" font-family="sans-serif" font-size="17.5" lengthAdjust="spacingAndGlyphs" textLength="0" x="145" y="359.1724"/><polygon fill="#FEFECE" filter="url(#f9tz7qehwhcs9)" points="150,699.5117,165,714.5117,150,729.5117,135,714.5117,150,699.5117" style="stroke: #A80036; stroke-width: 1.875;"/><rect fill="#FEFECE" filter="url(#f9tz7qehwhcs9)" height="50" rx="15.625" ry="15.625" style="stroke: #A80036; stroke-width: 1.875;" width="62.5" x="21.25" y="513.2617"/><text fill="#000000" font-family="sans-serif" font-size="17.5" lengthAdjust="spacingAndGlyphs" textLength="0" x="55" y="545.4224"/><ellipse cx="142.5" cy="268.2617" fill="#000000" filter="url(#f9tz7qehwhcs9)" rx="12.5" ry="12.5" style="stroke: none; stroke-width: 1.25;"/><ellipse cx="150" cy="788.2617" fill="none" filter="url(#f9tz7qehwhcs9)" rx="12.5" ry="12.5" style="stroke: #000000; stroke-width: 1.25;"/><ellipse cx="150.625" cy="788.8867" fill="#000000" rx="7.5" ry="7.5" style="stroke: none; stroke-width: 1.25;"/><!--MD5=[f237a19b6bd9a9487640db6364a35798]
link *start*login to 1--><path d="M142.5,280.8092 C142.5,291.0017 142.5,306.468 142.5,320.268 " fill="none" id="*start*login-&gt;1" style="stroke: #008000; stroke-width: 1.25;"/><polygon fill="#008000" points="142.5,326.878,147.5,315.628,142.5,320.628,137.5,315.628,142.5,326.878" style="stroke: #008000; stroke-width: 1.25;"/><!--MD5=[0ba0d8a0fd0e641c23f69743a446dfe6]
link 1 to 2--><path d="M110.7605,368.9205 C83.5629,382.3367 48.75,399.5117 48.75,399.5117 C48.75,399.5117 48.75,490.7617 48.75,490.7617 C48.75,490.7617 49.3088,497.6517 49.9948,506.1142 " fill="none" id="1-&gt;2" style="stroke: #008000; stroke-width: 1.25;"/><polygon fill="#008000" points="50.5371,512.803,54.6111,501.1855,50.0318,506.5734,44.6438,501.9941,50.5371,512.803" style="stroke: #008000; stroke-width: 1.25;"/><path d="M55,405.7617 L55,479.5117 L208.75,479.5117 L208.75,418.2617 L196.25,405.7617 L55,405.7617 " fill="#F5F5F5" filter="url(#f9tz7qehwhcs9)" style="stroke: #008000; stroke-width: 1.25;"/><path d="M196.25,405.7617 L196.25,418.2617 L208.75,418.2617 L196.25,405.7617 " fill="#F5F5F5" style="stroke: #008000; stroke-width: 1.25;"/><text fill="#000000" font-family="sans-serif" font-size="16.25" font-weight="bold" lengthAdjust="spacingAndGlyphs" textLength="127.5" x="62.5" y="428.8806">System requires</text><ellipse cx="69.375" cy="443.5156" fill="#000000" rx="3.125" ry="3.125" style="stroke: #000000; stroke-width: 0.0;"/><text fill="#000000" font-family="sans-serif" font-size="16.25" lengthAdjust="spacingAndGlyphs" textLength="71.25" x="78.75" y="449.3201">username</text><ellipse cx="69.375" cy="463.9551" fill="#000000" rx="3.125" ry="3.125" style="stroke: #000000; stroke-width: 0.0;"/><text fill="#000000" font-family="sans-serif" font-size="16.25" lengthAdjust="spacingAndGlyphs" textLength="68.75" x="78.75" y="469.7595">password</text><!--MD5=[d3e38fbb296df062c1834f01c213fc36]
link 2 to condicional--><path d="M55.3305,563.463 C59.9863,602.8567 68.75,677.0117 68.75,677.0117 C68.75,677.0117 110.5993,695.683 134.2288,706.2253 " fill="none" id="2-&gt;condicional" style="stroke: #008000; stroke-width: 1.25;"/><polygon fill="#008000" points="140.3605,708.961,132.124,699.811,134.6528,706.4144,128.0494,708.9432,140.3605,708.961" style="stroke: #008000; stroke-width: 1.25;"/><path d="M75,592.0117 L75,665.7617 L208.75,665.7617 L208.75,604.5117 L196.25,592.0117 L75,592.0117 " fill="#F5F5F5" filter="url(#f9tz7qehwhcs9)" style="stroke: #008000; stroke-width: 1.25;"/><path d="M196.25,592.0117 L196.25,604.5117 L208.75,604.5117 L196.25,592.0117 " fill="#F5F5F5" style="stroke: #008000; stroke-width: 1.25;"/><text fill="#000000" font-family="sans-serif" font-size="16.25" font-weight="bold" lengthAdjust="spacingAndGlyphs" textLength="107.5" x="82.5" y="615.1306">User provides</text><ellipse cx="89.375" cy="629.7656" fill="#000000" rx="3.125" ry="3.125" style="stroke: #000000; stroke-width: 0.0;"/><text fill="#000000" font-family="sans-serif" font-size="16.25" lengthAdjust="spacingAndGlyphs" textLength="71.25" x="98.75" y="635.5701">username</text><ellipse cx="89.375" cy="650.2051" fill="#000000" rx="3.125" ry="3.125" style="stroke: #000000; stroke-width: 0.0;"/><text fill="#000000" font-family="sans-serif" font-size="16.25" lengthAdjust="spacingAndGlyphs" textLength="68.75" x="98.75" y="656.0095">password</text><!--MD5=[b263b4bc8153c55c17d1d0668efd7e91]
link condicional to 1--><path d="M159.1513,708.5227 C178.125,698.6967 220,677.0117 220,677.0117 C220,677.0117 220,399.5117 220,399.5117 C220,399.5117 199.5125,387.2855 179.6038,375.4042 " fill="none" id="condicional-&gt;1" style="stroke: #FF0000; stroke-width: 1.25;"/><polygon fill="#FF0000" points="174.0225,372.073,181.1215,382.1311,179.3897,375.2754,186.2454,373.5436,174.0225,372.073" style="stroke: #FF0000; stroke-width: 1.25;"/><path d="M226.25,519.5117 L226.25,552.0117 L515,552.0117 L515,532.0117 L502.5,519.5117 L226.25,519.5117 " fill="#F5F5F5" filter="url(#f9tz7qehwhcs9)" style="stroke: #FF0000; stroke-width: 1.25;"/><path d="M502.5,519.5117 L502.5,532.0117 L515,532.0117 L502.5,519.5117 " fill="#F5F5F5" style="stroke: #FF0000; stroke-width: 1.25;"/><text fill="#000000" font-family="sans-serif" font-size="16.25" lengthAdjust="spacingAndGlyphs" textLength="262.5" x="233.75" y="542.6306">[pair username password not exists]</text><!--MD5=[519a62718ead6b0a3a4ca1bba9c8dc9a]
link condicional to *end*login--><path d="M150,729.8385 C150,741.0622 150,756.8567 150,769.0016 " fill="none" id="condicional-&gt;*end*login" style="stroke: #008000; stroke-width: 1.25;"/><polygon fill="#008000" points="150,775.3211,155,764.0711,150,769.0711,145,764.0711,150,775.3211" style="stroke: #008000; stroke-width: 1.25;"/><!--MD5=[3ff027586ae0f3e062b8762719d196cc]
link initstate to login--><path d="M287.5,60.1313 C287.5,88.72 287.5,140.0775 287.5,198.1713 " fill="none" id="initstate-&gt;login" style="stroke: #008000; stroke-width: 1.25;"/><polygon fill="#008000" points="287.5,204.5475,292.5,193.2975,287.5,198.2975,282.5,193.2975,287.5,204.5475" style="stroke: #008000; stroke-width: 1.25;"/><path d="M293.75,103.75 L293.75,156.25 L446.25,156.25 L446.25,116.25 L433.75,103.75 L293.75,103.75 " fill="#F5F5F5" filter="url(#f9tz7qehwhcs9)" style="stroke: #008000; stroke-width: 1.25;"/><path d="M433.75,103.75 L433.75,116.25 L446.25,116.25 L433.75,103.75 " fill="#F5F5F5" style="stroke: #008000; stroke-width: 1.25;"/><text fill="#000000" font-family="sans-serif" font-size="16.25" font-weight="bold" lengthAdjust="spacingAndGlyphs" textLength="126.25" x="301.25" y="126.8689">User requests to</text><ellipse cx="308.125" cy="141.5039" fill="#000000" rx="3.125" ry="3.125" style="stroke: #000000; stroke-width: 0.0;"/><text fill="#000000" font-family="sans-serif" font-size="16.25" lengthAdjust="spacingAndGlyphs" textLength="33.75" x="317.5" y="147.3083">login</text><!--MD5=[4161a5ef67aeea07140acceacaaf80c8]
link login to openDashboard--><path d="M287.5,820.1 C287.5,847.6388 287.5,871.7313 287.5,889.3525 " fill="none" id="login-&gt;openDashboard" style="stroke: #008000; stroke-width: 1.25;"/><polygon fill="#008000" points="287.5,896.0213,292.5,884.7713,287.5,889.7713,282.5,884.7713,287.5,896.0213" style="stroke: #008000; stroke-width: 1.25;"/><!--MD5=[23666a044ee9353181bc2d90c8f3e094]
link openDashboard to endstate--><path d="M287.5,946.36 C287.5,966.2191 287.5,994.608 287.5,1016.0491 " fill="none" id="openDashboard-&gt;endstate" style="stroke: #008000; stroke-width: 1.25;"/><polygon fill="#008000" points="287.5,1022.463,292.5,1011.213,287.5,1016.213,282.5,1011.213,287.5,1022.463" style="stroke: #008000; stroke-width: 1.25;"/><!--MD5=[6baec56c6441eb2802035ebd7890296a]
@startuml
skinparam {
    NoteBackgroundColor #whiteSmoke
    ArrowColor #green
    NoteBorderColor #green
    linetype polyline
}

hide empty description

state initstate as "INITIAL"
state login
state openDashboard as ":openDashboard"
state endstate as ":OPENED_DASHBOARD"

initstate - -> login
note on link
<b>User requests to</b>
* login
end note

state login {

state 1 as " "
state condicional <<choice>>
state 2 as " "

[*] - -> 1

1 - -> 2
note on link
<b>System requires</b>
* username
* password
end note

2 - -> condicional
note on link
<b>User provides</b>
* username
* password
end note

condicional -[#red]-> 1
note on link
[pair username password not exists]
end note

condicional - -> [*]
}

login - -> openDashboard

openDashboard - -> endstate

@enduml

PlantUML version 1.2020.09(Sun May 10 12:51:06 CEST 2020)
(GPL source distribution)
Java Runtime: OpenJDK Runtime Environment
JVM: OpenJDK 64-Bit Server VM
Java Version: 11.0.8+10-b944.31
Operating System: Windows 10
Default Encoding: Cp1252
Language: en
Country: GB
--></g></svg>