<?xml version="1.0" encoding="UTF-8" standalone="no"?><svg xmlns="http://www.w3.org/2000/svg" xmlns:xlink="http://www.w3.org/1999/xlink" contentScriptType="application/ecmascript" contentStyleType="text/css" height="626.25px" preserveAspectRatio="none" style="width:995px;height:626px;" version="1.1" viewBox="0 0 995 626" width="995px" zoomAndPan="magnify"><defs><filter height="300%" id="f9mbhhassmctq" width="300%" x="-1" y="-1"><feGaussianBlur result="blurOut" stdDeviation="2.5"/><feColorMatrix in="blurOut" result="blurOut2" type="matrix" values="0 0 0 0 0 0 0 0 0 0 0 0 0 0 0 0 0 0 .4 0"/><feOffset dx="5.0" dy="5.0" in="blurOut2" result="blurOut3"/><feBlend in="SourceGraphic" in2="blurOut3" mode="normal"/></filter></defs><g><rect fill="#FEFECE" filter="url(#f9mbhhassmctq)" height="62.5" rx="15.625" ry="15.625" style="stroke: #A80036; stroke-width: 1.875;" width="85" x="481.875" y="550"/><line style="stroke: #A80036; stroke-width: 1.875;" x1="481.875" x2="566.875" y1="584.5117" y2="584.5117"/><text fill="#000000" font-family="sans-serif" font-size="17.5" lengthAdjust="spacingAndGlyphs" textLength="60" x="494.375" y="574.4165">:INITIAL</text><rect fill="#FEFECE" filter="url(#f9mbhhassmctq)" height="62.5" rx="15.625" ry="15.625" style="stroke: #A80036; stroke-width: 1.875;" width="218.75" x="7.5" y="10"/><line style="stroke: #A80036; stroke-width: 1.875;" x1="7.5" x2="226.25" y1="44.5117" y2="44.5117"/><text fill="#000000" font-family="sans-serif" font-size="17.5" lengthAdjust="spacingAndGlyphs" textLength="193.75" x="20" y="34.4165">:OPENED_DASHBOARD</text><rect fill="#FEFECE" filter="url(#f9mbhhassmctq)" height="62.5" rx="15.625" ry="15.625" style="stroke: #A80036; stroke-width: 1.875;" width="246.25" x="270" y="10"/><line style="stroke: #A80036; stroke-width: 1.875;" x1="270" x2="516.25" y1="44.5117" y2="44.5117"/><text fill="#000000" font-family="sans-serif" font-size="17.5" lengthAdjust="spacingAndGlyphs" textLength="221.25" x="282.5" y="34.4165">:OPENED_INTERVENTIONS</text><rect fill="#FEFECE" filter="url(#f9mbhhassmctq)" height="62.5" rx="15.625" ry="15.625" style="stroke: #A80036; stroke-width: 1.875;" width="193.75" x="560" y="10"/><line style="stroke: #A80036; stroke-width: 1.875;" x1="560" x2="753.75" y1="44.5117" y2="44.5117"/><text fill="#000000" font-family="sans-serif" font-size="17.5" lengthAdjust="spacingAndGlyphs" textLength="168.75" x="572.5" y="34.4165">:OPENED_VEHICLES</text><rect fill="#FEFECE" filter="url(#f9mbhhassmctq)" height="62.5" rx="15.625" ry="15.625" style="stroke: #A80036; stroke-width: 1.875;" width="182.5" x="798.125" y="10"/><line style="stroke: #A80036; stroke-width: 1.875;" x1="798.125" x2="980.625" y1="44.5117" y2="44.5117"/><text fill="#000000" font-family="sans-serif" font-size="17.5" lengthAdjust="spacingAndGlyphs" textLength="157.5" x="810.625" y="34.4165">:OPENED_CLIENTS</text><rect fill="#FEFECE" filter="url(#f9mbhhassmctq)" height="234.5117" rx="15.625" ry="15.625" style="stroke: #A80036; stroke-width: 1.875;" width="272.5" x="388.125" y="148.75"/><rect fill="#FFFFFF" height="192.5" rx="15.625" ry="15.625" style="stroke: #FFFFFF; stroke-width: 1.25;" width="265" x="391.875" y="187.0117"/><line style="stroke: #A80036; stroke-width: 1.875;" x1="388.125" x2="660.625" y1="183.2617" y2="183.2617"/><text fill="#000000" font-family="sans-serif" font-size="17.5" lengthAdjust="spacingAndGlyphs" textLength="48.75" x="500" y="173.1665">logout</text><ellipse cx="414.375" cy="212.0117" fill="#000000" filter="url(#f9mbhhassmctq)" rx="12.5" ry="12.5" style="stroke: none; stroke-width: 1.25;"/><ellipse cx="414.375" cy="352.0117" fill="none" filter="url(#f9mbhhassmctq)" rx="12.5" ry="12.5" style="stroke: #000000; stroke-width: 1.25;"/><ellipse cx="415" cy="352.6367" fill="#000000" rx="7.5" ry="7.5" style="stroke: none; stroke-width: 1.25;"/><!--MD5=[282c70e28efa761b619695f2cab0694f]
link *start*logout to *end*logout--><path d="M414.375,224.5142 C414.375,248.3841 414.375,304.2567 414.375,332.9957 " fill="none" id="*start*logout-&gt;*end*logout" style="stroke: #A80036; stroke-width: 1.25;"/><polygon fill="#A80036" points="414.375,339.3541,419.375,328.1041,414.375,333.1041,409.375,328.1041,414.375,339.3541" style="stroke: #A80036; stroke-width: 1.25;"/><path d="M420.625,253.2617 L420.625,305.7617 L608.125,305.7617 L608.125,265.7617 L595.625,253.2617 L420.625,253.2617 " fill="#F5F5F5" filter="url(#f9mbhhassmctq)" style="stroke: #A80036; stroke-width: 1.25;"/><path d="M595.625,253.2617 L595.625,265.7617 L608.125,265.7617 L595.625,253.2617 " fill="#F5F5F5" style="stroke: #A80036; stroke-width: 1.25;"/><text fill="#000000" font-family="sans-serif" font-size="16.25" font-weight="bold" lengthAdjust="spacingAndGlyphs" textLength="161.25" x="428.125" y="276.3806">mechanic request to</text><ellipse cx="435" cy="291.0156" fill="#000000" rx="3.125" ry="3.125" style="stroke: #000000; stroke-width: 0.0;"/><text fill="#000000" font-family="sans-serif" font-size="16.25" lengthAdjust="spacingAndGlyphs" textLength="43.75" x="444.375" y="296.8201">logout</text><!--MD5=[97749eab65de15814e97d24bc13715ae]
link start1 to logout--><path d="M171.8325,72.5075 C225.6113,101.8713 309.8,147.84 382.4213,187.4912 " fill="none" id="start1-&gt;logout" style="stroke: #A80036; stroke-width: 1.25;"/><polygon fill="#A80036" points="388.0725,190.5775,380.5938,180.7984,382.5867,187.5828,375.8023,189.5757,388.0725,190.5775" style="stroke: #A80036; stroke-width: 1.25;"/><!--MD5=[cb22261c60f56f4495ac676fd3b8c5c8]
link start2 to logout--><path d="M410.8263,72.5075 C421.8663,91.2225 436.885,116.6825 452.3812,142.9538 " fill="none" id="start2-&gt;logout" style="stroke: #A80036; stroke-width: 1.25;"/><polygon fill="#A80036" points="455.6938,148.57,454.2812,136.3402,452.5168,143.1876,445.6694,141.4233,455.6938,148.57" style="stroke: #A80036; stroke-width: 1.25;"/><!--MD5=[e9176e6caf41ce2c104144fba7fde164]
link start3 to logout--><path d="M639.005,72.5075 C627.86,91.2225 612.6988,116.6825 597.0537,142.9538 " fill="none" id="start3-&gt;logout" style="stroke: #A80036; stroke-width: 1.25;"/><polygon fill="#A80036" points="593.71,148.57,603.7609,141.4607,596.9069,143.1995,595.1681,136.3456,593.71,148.57" style="stroke: #A80036; stroke-width: 1.25;"/><!--MD5=[508e66df3df2769535f3b6f5b26f2d4a]
link start4 to logout--><path d="M840.15,72.5075 C795.5725,99.6813 727.6688,141.075 666.2363,178.5225 " fill="none" id="start4-&gt;logout" style="stroke: #A80036; stroke-width: 1.25;"/><polygon fill="#A80036" points="660.6925,181.9025,672.9007,180.3145,666.0287,178.6486,667.6945,171.7766,660.6925,181.9025" style="stroke: #A80036; stroke-width: 1.25;"/><!--MD5=[aa342d12c25cd11eced140676528a8f0]
link logout to initial--><path d="M524.375,383.8638 C524.375,440.2938 524.375,504.1627 524.375,543.2578 " fill="none" id="logout-&gt;initial" style="stroke: #A80036; stroke-width: 1.25;"/><polygon fill="#A80036" points="524.375,549.7878,529.375,538.5378,524.375,543.5378,519.375,538.5378,524.375,549.7878" style="stroke: #A80036; stroke-width: 1.25;"/><path d="M530.625,427.5 L530.625,501.25 L670.625,501.25 L670.625,440 L658.125,427.5 L530.625,427.5 " fill="#F5F5F5" filter="url(#f9mbhhassmctq)" style="stroke: #A80036; stroke-width: 1.25;"/><path d="M658.125,427.5 L658.125,440 L670.625,440 L658.125,427.5 " fill="#F5F5F5" style="stroke: #A80036; stroke-width: 1.25;"/><text fill="#000000" font-family="sans-serif" font-size="16.25" font-weight="bold" lengthAdjust="spacingAndGlyphs" textLength="113.75" x="538.125" y="450.6189">System allows</text><ellipse cx="545" cy="465.2539" fill="#000000" rx="3.125" ry="3.125" style="stroke: #000000; stroke-width: 0.0;"/><text fill="#000000" font-family="sans-serif" font-size="16.25" lengthAdjust="spacingAndGlyphs" textLength="33.75" x="554.375" y="471.0583">login</text><ellipse cx="545" cy="485.6934" fill="#000000" rx="3.125" ry="3.125" style="stroke: #000000; stroke-width: 0.0;"/><text fill="#000000" font-family="sans-serif" font-size="16.25" lengthAdjust="spacingAndGlyphs" textLength="47.5" x="554.375" y="491.4978">sign in</text><!--MD5=[e6ee3eb3b9ae0f34af8ddf0c416a79a6]
@startuml

skinparam {
    NoteBackgroundColor #whiteSmoke
}

state initial as ":INITIAL"

state start1 as ":OPENED_DASHBOARD"
state start2 as ":OPENED_INTERVENTIONS"
state start3 as ":OPENED_VEHICLES"
state start4 as ":OPENED_CLIENTS"

start1 - -> logout
start2 - -> logout
start3 - -> logout
start4 - -> logout

state logout {
[*] - -> [*]
    note on link
    <b>mechanic request to</b>
    * logout
    end note
}
logout - -> initial
note on link
    <b>System allows</b>
    * login
    * sign in
end note



@enduml

PlantUML version 1.2020.09(Sun May 10 12:51:06 CEST 2020)
(GPL source distribution)
Java Runtime: OpenJDK Runtime Environment
JVM: OpenJDK 64-Bit Server VM
Java Version: 11.0.6+8-b765.25
Operating System: Windows 10
Default Encoding: Cp1252
Language: en
Country: GB
--></g></svg>