<?xml version="1.0" encoding="UTF-8" standalone="no"?><svg xmlns="http://www.w3.org/2000/svg" xmlns:xlink="http://www.w3.org/1999/xlink" contentScriptType="application/ecmascript" contentStyleType="text/css" height="600px" preserveAspectRatio="none" style="width:963px;height:600px;" version="1.1" viewBox="0 0 963 600" width="963.75px" zoomAndPan="magnify"><defs><filter height="300%" id="f1jw4bxpomdbm5" width="300%" x="-1" y="-1"><feGaussianBlur result="blurOut" stdDeviation="2.5"/><feColorMatrix in="blurOut" result="blurOut2" type="matrix" values="0 0 0 0 0 0 0 0 0 0 0 0 0 0 0 0 0 0 .4 0"/><feOffset dx="5.0" dy="5.0" in="blurOut2" result="blurOut3"/><feBlend in="SourceGraphic" in2="blurOut3" mode="normal"/></filter></defs><g><rect fill="#FEFECE" filter="url(#f1jw4bxpomdbm5)" height="50" rx="15.625" ry="15.625" style="stroke: #A80036; stroke-width: 1.875;" width="72.5" x="453.125" y="536.25"/><text fill="#000000" font-family="sans-serif" font-size="17.5" lengthAdjust="spacingAndGlyphs" textLength="60" x="459.375" y="568.4106">:INITIAL</text><rect fill="#FEFECE" filter="url(#f1jw4bxpomdbm5)" height="50" rx="15.625" ry="15.625" style="stroke: #A80036; stroke-width: 1.875;" width="201.25" x="7.5" y="10"/><text fill="#000000" font-family="sans-serif" font-size="17.5" lengthAdjust="spacingAndGlyphs" textLength="188.75" x="13.75" y="42.1606">OPENED_DASHBOARD</text><rect fill="#FEFECE" filter="url(#f1jw4bxpomdbm5)" height="50" rx="15.625" ry="15.625" style="stroke: #A80036; stroke-width: 1.875;" width="228.75" x="252.5" y="10"/><text fill="#000000" font-family="sans-serif" font-size="17.5" lengthAdjust="spacingAndGlyphs" textLength="216.25" x="258.75" y="42.1606">OPENED_INTERVENTIONS</text><rect fill="#FEFECE" filter="url(#f1jw4bxpomdbm5)" height="50" rx="15.625" ry="15.625" style="stroke: #A80036; stroke-width: 1.875;" width="176.25" x="525" y="10"/><text fill="#000000" font-family="sans-serif" font-size="17.5" lengthAdjust="spacingAndGlyphs" textLength="163.75" x="531.25" y="42.1606">OPENED_VEHICLES</text><rect fill="#FEFECE" filter="url(#f1jw4bxpomdbm5)" height="50" rx="15.625" ry="15.625" style="stroke: #A80036; stroke-width: 1.875;" width="165" x="745.625" y="10"/><text fill="#000000" font-family="sans-serif" font-size="17.5" lengthAdjust="spacingAndGlyphs" textLength="152.5" x="751.875" y="42.1606">OPENED_CLIENTS</text><rect fill="#FEFECE" filter="url(#f1jw4bxpomdbm5)" height="164.5117" rx="15.625" ry="15.625" style="stroke: #A80036; stroke-width: 1.875;" width="80" x="449.375" y="205"/><rect fill="#FFFFFF" height="122.5" rx="15.625" ry="15.625" style="stroke: #FFFFFF; stroke-width: 1.25;" width="72.5" x="453.125" y="243.2617"/><line style="stroke: #A80036; stroke-width: 1.875;" x1="449.375" x2="529.375" y1="239.5117" y2="239.5117"/><text fill="#000000" font-family="sans-serif" font-size="17.5" lengthAdjust="spacingAndGlyphs" textLength="48.75" x="465" y="229.4165">logout</text><ellipse cx="475.625" cy="268.2617" fill="#000000" filter="url(#f1jw4bxpomdbm5)" rx="12.5" ry="12.5" style="stroke: none; stroke-width: 1.25;"/><ellipse cx="475.625" cy="338.2617" fill="none" filter="url(#f1jw4bxpomdbm5)" rx="12.5" ry="12.5" style="stroke: #000000; stroke-width: 1.25;"/><ellipse cx="476.25" cy="338.8867" fill="#000000" rx="7.5" ry="7.5" style="stroke: none; stroke-width: 1.25;"/><!--MD5=[282c70e28efa761b619695f2cab0694f]
link *start*logout to *end*logout--><path d="M475.625,281.2693 C475.625,291.6258 475.625,306.8762 475.625,318.8086 " fill="none" id="*start*logout-&gt;*end*logout" style="stroke: #008000; stroke-width: 1.25;"/><polygon fill="#008000" points="475.625,325.3888,480.625,314.1388,475.625,319.1388,470.625,314.1388,475.625,325.3888" style="stroke: #008000; stroke-width: 1.25;"/><!--MD5=[97749eab65de15814e97d24bc13715ae]
link start1 to logout--><path d="M126.6958,60.3238 C155.9263,98.2138 209.375,167.5 209.375,167.5 C209.375,167.5 363.69,232.9463 443.2,266.6663 " fill="none" id="start1-&gt;logout" style="stroke: #008000; stroke-width: 1.25;"/><polygon fill="#008000" points="449.2575,269.2363,440.8506,260.2426,443.503,266.7973,436.9483,269.4498,449.2575,269.2363" style="stroke: #008000; stroke-width: 1.25;"/><path d="M215.625,103.75 L215.625,156.25 L360.625,156.25 L360.625,116.25 L348.125,103.75 L215.625,103.75 " fill="#F5F5F5" filter="url(#f1jw4bxpomdbm5)" style="stroke: #008000; stroke-width: 1.25;"/><path d="M348.125,103.75 L348.125,116.25 L360.625,116.25 L348.125,103.75 " fill="#F5F5F5" style="stroke: #008000; stroke-width: 1.25;"/><text fill="#000000" font-family="sans-serif" font-size="16.25" font-weight="bold" lengthAdjust="spacingAndGlyphs" textLength="118.75" x="223.125" y="126.8689">User request to</text><ellipse cx="230" cy="141.5039" fill="#000000" rx="3.125" ry="3.125" style="stroke: #000000; stroke-width: 0.0;"/><text fill="#000000" font-family="sans-serif" font-size="16.25" lengthAdjust="spacingAndGlyphs" textLength="43.75" x="239.375" y="147.3083">logout</text><!--MD5=[cb22261c60f56f4495ac676fd3b8c5c8]
link start2 to logout--><path d="M372.3775,60.3238 C381.0388,98.2138 396.875,167.5 396.875,167.5 C396.875,167.5 421.42,199.01 445.2225,229.5675 " fill="none" id="start2-&gt;logout" style="stroke: #008000; stroke-width: 1.25;"/><polygon fill="#008000" points="449.3413,234.855,446.3716,222.9075,445.5002,229.9246,438.483,229.0532,449.3413,234.855" style="stroke: #008000; stroke-width: 1.25;"/><path d="M403.125,103.75 L403.125,156.25 L548.125,156.25 L548.125,116.25 L535.625,103.75 L403.125,103.75 " fill="#F5F5F5" filter="url(#f1jw4bxpomdbm5)" style="stroke: #008000; stroke-width: 1.25;"/><path d="M535.625,103.75 L535.625,116.25 L548.125,116.25 L535.625,103.75 " fill="#F5F5F5" style="stroke: #008000; stroke-width: 1.25;"/><text fill="#000000" font-family="sans-serif" font-size="16.25" font-weight="bold" lengthAdjust="spacingAndGlyphs" textLength="118.75" x="410.625" y="126.8689">User request to</text><ellipse cx="417.5" cy="141.5039" fill="#000000" rx="3.125" ry="3.125" style="stroke: #000000; stroke-width: 0.0;"/><text fill="#000000" font-family="sans-serif" font-size="16.25" lengthAdjust="spacingAndGlyphs" textLength="43.75" x="426.875" y="147.3083">logout</text><!--MD5=[e9176e6caf41ce2c104144fba7fde164]
link start3 to logout--><path d="M604.1837,60.3238 C590.11,98.2138 564.375,167.5 564.375,167.5 C564.375,167.5 549.5288,191.0063 533.0475,217.1025 " fill="none" id="start3-&gt;logout" style="stroke: #008000; stroke-width: 1.25;"/><polygon fill="#008000" points="529.51,222.7038,539.7451,215.8624,532.8477,217.4196,531.2904,210.5221,529.51,222.7038" style="stroke: #008000; stroke-width: 1.25;"/><path d="M596.875,103.75 L596.875,156.25 L741.875,156.25 L741.875,116.25 L729.375,103.75 L596.875,103.75 " fill="#F5F5F5" filter="url(#f1jw4bxpomdbm5)" style="stroke: #008000; stroke-width: 1.25;"/><path d="M729.375,103.75 L729.375,116.25 L741.875,116.25 L729.375,103.75 " fill="#F5F5F5" style="stroke: #008000; stroke-width: 1.25;"/><text fill="#000000" font-family="sans-serif" font-size="16.25" font-weight="bold" lengthAdjust="spacingAndGlyphs" textLength="118.75" x="604.375" y="126.8689">User request to</text><ellipse cx="611.25" cy="141.5039" fill="#000000" rx="3.125" ry="3.125" style="stroke: #000000; stroke-width: 0.0;"/><text fill="#000000" font-family="sans-serif" font-size="16.25" lengthAdjust="spacingAndGlyphs" textLength="43.75" x="620.625" y="147.3083">logout</text><!--MD5=[508e66df3df2769535f3b6f5b26f2d4a]
link start4 to logout--><path d="M816.2025,60.3238 C797.4375,98.2138 763.125,167.5 763.125,167.5 C763.125,167.5 613.7975,232.2763 535.7213,266.145 " fill="none" id="start4-&gt;logout" style="stroke: #008000; stroke-width: 1.25;"/><polygon fill="#008000" points="529.7675,268.7275,542.0781,268.8371,535.5012,266.2401,538.0982,259.6632,529.7675,268.7275" style="stroke: #008000; stroke-width: 1.25;"/><path d="M804.375,103.75 L804.375,156.25 L949.375,156.25 L949.375,116.25 L936.875,103.75 L804.375,103.75 " fill="#F5F5F5" filter="url(#f1jw4bxpomdbm5)" style="stroke: #008000; stroke-width: 1.25;"/><path d="M936.875,103.75 L936.875,116.25 L949.375,116.25 L936.875,103.75 " fill="#F5F5F5" style="stroke: #008000; stroke-width: 1.25;"/><text fill="#000000" font-family="sans-serif" font-size="16.25" font-weight="bold" lengthAdjust="spacingAndGlyphs" textLength="118.75" x="811.875" y="126.8689">User request to</text><ellipse cx="818.75" cy="141.5039" fill="#000000" rx="3.125" ry="3.125" style="stroke: #000000; stroke-width: 0.0;"/><text fill="#000000" font-family="sans-serif" font-size="16.25" lengthAdjust="spacingAndGlyphs" textLength="43.75" x="828.125" y="147.3083">logout</text><!--MD5=[aa342d12c25cd11eced140676528a8f0]
link logout to initial--><path d="M489.375,370.1337 C489.375,423.83 489.375,491.1079 489.375,529.4593 " fill="none" id="logout-&gt;initial" style="stroke: #008000; stroke-width: 1.25;"/><polygon fill="#008000" points="489.375,535.8166,494.375,524.5666,489.375,529.5666,484.375,524.5666,489.375,535.8166" style="stroke: #008000; stroke-width: 1.25;"/><path d="M495.625,413.75 L495.625,487.5 L635.625,487.5 L635.625,426.25 L623.125,413.75 L495.625,413.75 " fill="#F5F5F5" filter="url(#f1jw4bxpomdbm5)" style="stroke: #008000; stroke-width: 1.25;"/><path d="M623.125,413.75 L623.125,426.25 L635.625,426.25 L623.125,413.75 " fill="#F5F5F5" style="stroke: #008000; stroke-width: 1.25;"/><text fill="#000000" font-family="sans-serif" font-size="16.25" font-weight="bold" lengthAdjust="spacingAndGlyphs" textLength="113.75" x="503.125" y="436.8689">System allows</text><ellipse cx="510" cy="451.5039" fill="#000000" rx="3.125" ry="3.125" style="stroke: #000000; stroke-width: 0.0;"/><text fill="#000000" font-family="sans-serif" font-size="16.25" lengthAdjust="spacingAndGlyphs" textLength="33.75" x="519.375" y="457.3083">login</text><ellipse cx="510" cy="471.9434" fill="#000000" rx="3.125" ry="3.125" style="stroke: #000000; stroke-width: 0.0;"/><text fill="#000000" font-family="sans-serif" font-size="16.25" lengthAdjust="spacingAndGlyphs" textLength="47.5" x="519.375" y="477.7478">sign in</text><!--MD5=[6c9c0ab3081d9afa60f37b938bd93619]
@startuml

skinparam {
    NoteBackgroundColor #whiteSmoke
    ArrowColor #green
    NoteBorderColor #green
    linetype polyline
}

hide empty description

state initial as ":INITIAL"

state start1 as "OPENED_DASHBOARD"
state start2 as "OPENED_INTERVENTIONS"
state start3 as "OPENED_VEHICLES"
state start4 as "OPENED_CLIENTS"

start1 - -> logout
    note on link
    <b>User request to</b>
    * logout
    end note
start2 - -> logout
    note on link
    <b>User request to</b>
    * logout
    end note
start3 - -> logout
    note on link
    <b>User request to</b>
    * logout
    end note
start4 - -> logout
    note on link
    <b>User request to</b>
    * logout
    end note

state logout {
[*] - -> [*]
}

logout - -> initial
note on link
    <b>System allows</b>
    * login
    * sign in
end note

@enduml

PlantUML version 1.2020.09(Sun May 10 12:51:06 CEST 2020)
(GPL source distribution)
Java Runtime: OpenJDK Runtime Environment
JVM: OpenJDK 64-Bit Server VM
Java Version: 11.0.8+10-b944.31
Operating System: Windows 10
Default Encoding: Cp1252
Language: en
Country: GB
--></g></svg>