<?xml version="1.0" encoding="UTF-8" standalone="no"?><svg xmlns="http://www.w3.org/2000/svg" xmlns:xlink="http://www.w3.org/1999/xlink" contentScriptType="application/ecmascript" contentStyleType="text/css" height="743.75px" preserveAspectRatio="none" style="width:1045px;height:743px;" version="1.1" viewBox="0 0 1045 743" width="1045px" zoomAndPan="magnify"><defs><filter height="300%" id="f4pzenovp60g4" width="300%" x="-1" y="-1"><feGaussianBlur result="blurOut" stdDeviation="2.5"/><feColorMatrix in="blurOut" result="blurOut2" type="matrix" values="0 0 0 0 0 0 0 0 0 0 0 0 0 0 0 0 0 0 .4 0"/><feOffset dx="5.0" dy="5.0" in="blurOut2" result="blurOut3"/><feBlend in="SourceGraphic" in2="blurOut3" mode="normal"/></filter></defs><g><rect fill="#FEFECE" filter="url(#f4pzenovp60g4)" height="50" rx="15.625" ry="15.625" style="stroke: #A80036; stroke-width: 1.875;" width="176.25" x="7.5" y="10"/><text fill="#000000" font-family="sans-serif" font-size="17.5" lengthAdjust="spacingAndGlyphs" textLength="163.75" x="13.75" y="42.1606">OPENED_VEHICLES</text><rect fill="#FEFECE" filter="url(#f4pzenovp60g4)" height="50" rx="15.625" ry="15.625" style="stroke: #A80036; stroke-width: 1.875;" width="165" x="231.875" y="10"/><text fill="#000000" font-family="sans-serif" font-size="17.5" lengthAdjust="spacingAndGlyphs" textLength="152.5" x="238.125" y="42.1606">OPENED_CLIENTS</text><rect fill="#FEFECE" filter="url(#f4pzenovp60g4)" height="50" rx="15.625" ry="15.625" style="stroke: #A80036; stroke-width: 1.875;" width="228.75" x="441.25" y="10"/><text fill="#000000" font-family="sans-serif" font-size="17.5" lengthAdjust="spacingAndGlyphs" textLength="216.25" x="447.5" y="42.1606">OPENED_INTERVENTIONS</text><rect fill="#FEFECE" filter="url(#f4pzenovp60g4)" height="50" rx="15.625" ry="15.625" style="stroke: #A80036; stroke-width: 1.875;" width="67.5" x="718.125" y="10"/><text fill="#000000" font-family="sans-serif" font-size="17.5" lengthAdjust="spacingAndGlyphs" textLength="55" x="724.375" y="42.1606">INITIAL</text><rect fill="#FEFECE" filter="url(#f4pzenovp60g4)" height="50" rx="15.625" ry="15.625" style="stroke: #A80036; stroke-width: 1.875;" width="201.25" x="830" y="10"/><text fill="#000000" font-family="sans-serif" font-size="17.5" lengthAdjust="spacingAndGlyphs" textLength="188.75" x="836.25" y="42.1606">OPENED_DASHBOARD</text><rect fill="#FEFECE" filter="url(#f4pzenovp60g4)" height="50" rx="15.625" ry="15.625" style="stroke: #A80036; stroke-width: 1.875;" width="201.25" x="450" y="680"/><text fill="#000000" font-family="sans-serif" font-size="17.5" lengthAdjust="spacingAndGlyphs" textLength="188.75" x="456.25" y="712.1606">OPENED_DASHBOARD</text><rect fill="#FEFECE" filter="url(#f4pzenovp60g4)" height="398.2617" rx="15.625" ry="15.625" style="stroke: #A80036; stroke-width: 1.875;" width="338.75" x="381.25" y="205"/><rect fill="#FFFFFF" height="356.25" rx="15.625" ry="15.625" style="stroke: #FFFFFF; stroke-width: 1.25;" width="331.25" x="385" y="243.2617"/><line style="stroke: #A80036; stroke-width: 1.875;" x1="381.25" x2="720" y1="239.5117" y2="239.5117"/><text fill="#000000" font-family="sans-serif" font-size="17.5" lengthAdjust="spacingAndGlyphs" textLength="127.5" x="486.875" y="229.4165">openDashboard</text><ellipse cx="407.5" cy="268.2617" fill="#000000" filter="url(#f4pzenovp60g4)" rx="12.5" ry="12.5" style="stroke: none; stroke-width: 1.25;"/><ellipse cx="407.5" cy="572.0117" fill="none" filter="url(#f4pzenovp60g4)" rx="12.5" ry="12.5" style="stroke: #000000; stroke-width: 1.25;"/><ellipse cx="408.125" cy="572.6367" fill="#000000" rx="7.5" ry="7.5" style="stroke: none; stroke-width: 1.25;"/><!--MD5=[7760f02715564001c393a248f9ff75f1]
link *start*openDashboard to *end*openDashboard--><path d="M407.5,280.953 C407.5,326.7142 407.5,496.7927 407.5,552.7711 " fill="none" id="*start*openDashboard-&gt;*end*openDashboard" style="stroke: #008000; stroke-width: 1.25;"/><polygon fill="#008000" points="407.5,559.3088,412.5,548.0588,407.5,553.0588,402.5,548.0588,407.5,559.3088" style="stroke: #008000; stroke-width: 1.25;"/><path d="M413.75,309.5117 L413.75,525.7617 L667.5,525.7617 L667.5,322.0117 L655,309.5117 L413.75,309.5117 " fill="#F5F5F5" filter="url(#f4pzenovp60g4)" style="stroke: #008000; stroke-width: 1.25;"/><path d="M655,309.5117 L655,322.0117 L667.5,322.0117 L655,309.5117 " fill="#F5F5F5" style="stroke: #008000; stroke-width: 1.25;"/><text fill="#000000" font-family="sans-serif" font-size="16.25" font-weight="bold" lengthAdjust="spacingAndGlyphs" textLength="111.25" x="421.25" y="332.6306">System shows</text><ellipse cx="428.125" cy="347.2656" fill="#000000" rx="3.125" ry="3.125" style="stroke: #000000; stroke-width: 0.0;"/><text fill="#000000" font-family="sans-serif" font-size="16.25" lengthAdjust="spacingAndGlyphs" textLength="211.25" x="437.5" y="353.0701">mechanic active interventions</text><text fill="#000000" font-family="sans-serif" font-size="16.25" font-weight="bold" lengthAdjust="spacingAndGlyphs" textLength="113.75" x="421.25" y="373.5095">System allows</text><ellipse cx="428.125" cy="388.1445" fill="#000000" rx="3.125" ry="3.125" style="stroke: #000000; stroke-width: 0.0;"/><text fill="#000000" font-family="sans-serif" font-size="16.25" lengthAdjust="spacingAndGlyphs" textLength="97.5" x="437.5" y="393.949">open vehicles</text><ellipse cx="428.125" cy="408.584" fill="#000000" rx="3.125" ry="3.125" style="stroke: #000000; stroke-width: 0.0;"/><text fill="#000000" font-family="sans-serif" font-size="16.25" lengthAdjust="spacingAndGlyphs" textLength="130" x="437.5" y="414.3884">open interventions</text><ellipse cx="428.125" cy="429.0234" fill="#000000" rx="3.125" ry="3.125" style="stroke: #000000; stroke-width: 0.0;"/><text fill="#000000" font-family="sans-serif" font-size="16.25" lengthAdjust="spacingAndGlyphs" textLength="87.5" x="437.5" y="434.8279">open clients</text><ellipse cx="428.125" cy="449.4629" fill="#000000" rx="3.125" ry="3.125" style="stroke: #000000; stroke-width: 0.0;"/><text fill="#000000" font-family="sans-serif" font-size="16.25" lengthAdjust="spacingAndGlyphs" textLength="115" x="437.5" y="455.2673">open operations</text><ellipse cx="428.125" cy="469.9023" fill="#000000" rx="3.125" ry="3.125" style="stroke: #000000; stroke-width: 0.0;"/><text fill="#000000" font-family="sans-serif" font-size="16.25" lengthAdjust="spacingAndGlyphs" textLength="43.75" x="437.5" y="475.7068">logout</text><ellipse cx="428.125" cy="490.3418" fill="#000000" rx="3.125" ry="3.125" style="stroke: #000000; stroke-width: 0.0;"/><text fill="#000000" font-family="sans-serif" font-size="16.25" lengthAdjust="spacingAndGlyphs" textLength="131.25" x="437.5" y="496.1462">create intervention</text><ellipse cx="428.125" cy="510.7813" fill="#000000" rx="3.125" ry="3.125" style="stroke: #000000; stroke-width: 0.0;"/><text fill="#000000" font-family="sans-serif" font-size="16.25" lengthAdjust="spacingAndGlyphs" textLength="123.75" x="437.5" y="516.5857">finish intervention</text><!--MD5=[40cf36ddaf1ccebc1ca33a1b7169da3a]
link startState1 to openDashboard--><path d="M106.6299,60.3238 C123.9514,98.2138 155.625,167.5 155.625,167.5 C155.625,167.5 269.6425,235.5138 375.1613,298.4575 " fill="none" id="startState1-&gt;openDashboard" style="stroke: #008000; stroke-width: 1.25;"/><polygon fill="#008000" points="380.8175,301.8312,373.7185,291.7731,375.4503,298.6288,368.5946,300.3606,380.8175,301.8312" style="stroke: #008000; stroke-width: 1.25;"/><path d="M161.875,103.75 L161.875,156.25 L316.875,156.25 L316.875,116.25 L304.375,103.75 L161.875,103.75 " fill="#F5F5F5" filter="url(#f4pzenovp60g4)" style="stroke: #008000; stroke-width: 1.25;"/><path d="M304.375,103.75 L304.375,116.25 L316.875,116.25 L304.375,103.75 " fill="#F5F5F5" style="stroke: #008000; stroke-width: 1.25;"/><text fill="#000000" font-family="sans-serif" font-size="16.25" font-weight="bold" lengthAdjust="spacingAndGlyphs" textLength="126.25" x="169.375" y="126.8689">User requests to</text><ellipse cx="176.25" cy="141.5039" fill="#000000" rx="3.125" ry="3.125" style="stroke: #000000; stroke-width: 0.0;"/><text fill="#000000" font-family="sans-serif" font-size="16.25" lengthAdjust="spacingAndGlyphs" textLength="112.5" x="185.625" y="147.3083">openDashboard</text><!--MD5=[ef425f6a1a8b72260792c1d076053469]
link startState2 to openDashboard--><path d="M323.5463,60.3238 C337.98,98.2138 364.375,167.5 364.375,167.5 C364.375,167.5 374.4225,180.2112 389.8512,199.73 " fill="none" id="startState2-&gt;openDashboard" style="stroke: #008000; stroke-width: 1.25;"/><polygon fill="#008000" points="393.8862,204.835,390.834,192.9083,390.0112,199.9313,382.9881,199.1084,393.8862,204.835" style="stroke: #008000; stroke-width: 1.25;"/><path d="M370.625,103.75 L370.625,156.25 L525.625,156.25 L525.625,116.25 L513.125,103.75 L370.625,103.75 " fill="#F5F5F5" filter="url(#f4pzenovp60g4)" style="stroke: #008000; stroke-width: 1.25;"/><path d="M513.125,103.75 L513.125,116.25 L525.625,116.25 L513.125,103.75 " fill="#F5F5F5" style="stroke: #008000; stroke-width: 1.25;"/><text fill="#000000" font-family="sans-serif" font-size="16.25" font-weight="bold" lengthAdjust="spacingAndGlyphs" textLength="126.25" x="378.125" y="126.8689">User requests to</text><ellipse cx="385" cy="141.5039" fill="#000000" rx="3.125" ry="3.125" style="stroke: #000000; stroke-width: 0.0;"/><text fill="#000000" font-family="sans-serif" font-size="16.25" lengthAdjust="spacingAndGlyphs" textLength="112.5" x="394.375" y="147.3083">openDashboard</text><!--MD5=[bd01fe0b97804be981629aa9322c1366]
link startState3 to openDashboard--><path d="M552.2175,60.1063 C549.76,77.3037 546.875,97.5 546.875,97.5 C546.875,97.5 546.875,167.5 546.875,167.5 C546.875,167.5 547.0675,179.5738 547.365,198.255 " fill="none" id="startState3-&gt;openDashboard" style="stroke: #008000; stroke-width: 1.25;"/><polygon fill="#008000" points="547.4688,204.835,552.2881,193.5064,547.3687,198.5858,542.2894,193.6665,547.4688,204.835" style="stroke: #008000; stroke-width: 1.25;"/><path d="M553.125,103.75 L553.125,156.25 L708.125,156.25 L708.125,116.25 L695.625,103.75 L553.125,103.75 " fill="#F5F5F5" filter="url(#f4pzenovp60g4)" style="stroke: #008000; stroke-width: 1.25;"/><path d="M695.625,103.75 L695.625,116.25 L708.125,116.25 L695.625,103.75 " fill="#F5F5F5" style="stroke: #008000; stroke-width: 1.25;"/><text fill="#000000" font-family="sans-serif" font-size="16.25" font-weight="bold" lengthAdjust="spacingAndGlyphs" textLength="126.25" x="560.625" y="126.8689">User requests to</text><ellipse cx="567.5" cy="141.5039" fill="#000000" rx="3.125" ry="3.125" style="stroke: #000000; stroke-width: 0.0;"/><text fill="#000000" font-family="sans-serif" font-size="16.25" lengthAdjust="spacingAndGlyphs" textLength="112.5" x="576.875" y="147.3083">openDashboard</text><!--MD5=[d0135f51b8bfee4406ad0b33ab60a0e3]
link startState4 to openDashboard--><path d="M746.8313,60.3238 C738.8925,98.2138 724.375,167.5 724.375,167.5 C724.375,167.5 715.0013,180.2112 700.6088,199.73 " fill="none" id="startState4-&gt;openDashboard" style="stroke: #008000; stroke-width: 1.25;"/><polygon fill="#008000" points="696.8438,204.835,707.5444,198.7474,700.5528,199.8045,699.4956,192.8129,696.8438,204.835" style="stroke: #008000; stroke-width: 1.25;"/><!--MD5=[5c261f585f02ad208b2a4df9a6509122]
link startState5 to openDashboard--><path d="M905.6925,60.3212 C868.45,96.2775 795.1162,167.0788 724.715,235.0475 " fill="none" id="startState5-&gt;openDashboard" style="stroke: #008000; stroke-width: 1.25;"/><polygon fill="#008000" points="720.0825,239.52,731.6489,235.3032,724.5789,235.1789,724.7032,228.109,720.0825,239.52" style="stroke: #008000; stroke-width: 1.25;"/><!--MD5=[2b1bc4c3aa9049d17b93068144ec0bd7]
link openDashboard to endState--><path d="M550.625,604.0638 C550.625,630.9828 550.625,655.4794 550.625,673.4528 " fill="none" id="openDashboard-&gt;endState" style="stroke: #008000; stroke-width: 1.25;"/><polygon fill="#008000" points="550.625,679.7718,555.625,668.5218,550.625,673.5218,545.625,668.5218,550.625,679.7718" style="stroke: #008000; stroke-width: 1.25;"/><!--MD5=[b7062769cba0176a4b6184e75e33258e]
@startuml

skinparam {
    NoteBackgroundColor #whiteSmoke
    ArrowColor #green
    NoteBorderColor #green
    linetype polyline
}

hide empty description

state startState1 as "OPENED_VEHICLES"
state startState2 as "OPENED_CLIENTS"
state startState3 as "OPENED_INTERVENTIONS"
state startState4 as "INITIAL"
state startState5 as "OPENED_DASHBOARD"
state endState as "OPENED_DASHBOARD"

startState1 - -> openDashboard
note on link
<b>User requests to</b>
* openDashboard
end note
startState2 - -> openDashboard
note on link
<b>User requests to</b>
* openDashboard
end note
startState3 - -> openDashboard
note on link
<b>User requests to</b>
* openDashboard
end note
startState4 - -> openDashboard

startState5 - -> openDashboard

state openDashboard {

[*] - -> [*]
note on link
<b>System shows
* mechanic active interventions
<b>System allows
* open vehicles
* open interventions
* open clients
* open operations
* logout
* create intervention
* finish intervention
end note

}

openDashboard - -> endState


@enduml

PlantUML version 1.2020.09(Sun May 10 12:51:06 CEST 2020)
(GPL source distribution)
Java Runtime: OpenJDK Runtime Environment
JVM: OpenJDK 64-Bit Server VM
Java Version: 11.0.8+10-b944.31
Operating System: Windows 10
Default Encoding: Cp1252
Language: en
Country: GB
--></g></svg>