<?xml version="1.0" encoding="UTF-8" standalone="no"?><svg xmlns="http://www.w3.org/2000/svg" xmlns:xlink="http://www.w3.org/1999/xlink" contentScriptType="application/ecmascript" contentStyleType="text/css" height="742.5px" preserveAspectRatio="none" style="width:1155px;height:742px;" version="1.1" viewBox="0 0 1155 742" width="1155px" zoomAndPan="magnify"><defs><filter height="300%" id="f1wb5sw4vh0gz3" width="300%" x="-1" y="-1"><feGaussianBlur result="blurOut" stdDeviation="2.5"/><feColorMatrix in="blurOut" result="blurOut2" type="matrix" values="0 0 0 0 0 0 0 0 0 0 0 0 0 0 0 0 0 0 .4 0"/><feOffset dx="5.0" dy="5.0" in="blurOut2" result="blurOut3"/><feBlend in="SourceGraphic" in2="blurOut3" mode="normal"/></filter></defs><g><rect fill="#FEFECE" filter="url(#f1wb5sw4vh0gz3)" height="50" rx="15.625" ry="15.625" style="stroke: #A80036; stroke-width: 1.875;" width="176.25" x="7.5" y="10"/><text fill="#000000" font-family="sans-serif" font-size="17.5" lengthAdjust="spacingAndGlyphs" textLength="163.75" x="13.75" y="42.1606">OPENED_VEHICLES</text><rect fill="#FEFECE" filter="url(#f1wb5sw4vh0gz3)" height="50" rx="15.625" ry="15.625" style="stroke: #A80036; stroke-width: 1.875;" width="201.25" x="435" y="678.75"/><text fill="#000000" font-family="sans-serif" font-size="17.5" lengthAdjust="spacingAndGlyphs" textLength="188.75" x="441.25" y="710.9106">OPENED_DASHBOARD</text><rect fill="#FEFECE" filter="url(#f1wb5sw4vh0gz3)" height="50" rx="15.625" ry="15.625" style="stroke: #A80036; stroke-width: 1.875;" width="176.25" x="227.5" y="10"/><text fill="#000000" font-family="sans-serif" font-size="17.5" lengthAdjust="spacingAndGlyphs" textLength="163.75" x="233.75" y="42.1606">OPENED_VEHICLES</text><rect fill="#FEFECE" filter="url(#f1wb5sw4vh0gz3)" height="50" rx="15.625" ry="15.625" style="stroke: #A80036; stroke-width: 1.875;" width="165" x="450.625" y="10"/><text fill="#000000" font-family="sans-serif" font-size="17.5" lengthAdjust="spacingAndGlyphs" textLength="152.5" x="456.875" y="42.1606">OPENED_CLIENTS</text><rect fill="#FEFECE" filter="url(#f1wb5sw4vh0gz3)" height="50" rx="15.625" ry="15.625" style="stroke: #A80036; stroke-width: 1.875;" width="228.75" x="660" y="10"/><text fill="#000000" font-family="sans-serif" font-size="17.5" lengthAdjust="spacingAndGlyphs" textLength="216.25" x="666.25" y="42.1606">OPENED_INTERVENTIONS</text><rect fill="#FEFECE" filter="url(#f1wb5sw4vh0gz3)" height="50" rx="15.625" ry="15.625" style="stroke: #A80036; stroke-width: 1.875;" width="193.75" x="932.5" y="10"/><text fill="#000000" font-family="sans-serif" font-size="17.5" lengthAdjust="spacingAndGlyphs" textLength="181.25" x="938.75" y="42.1606">OPENED_OPERATION</text><rect fill="#FEFECE" filter="url(#f1wb5sw4vh0gz3)" height="164.5117" rx="15.625" ry="15.625" style="stroke: #A80036; stroke-width: 1.875;" width="131.25" x="470" y="205"/><rect fill="#FFFFFF" height="122.5" rx="15.625" ry="15.625" style="stroke: #FFFFFF; stroke-width: 1.25;" width="123.75" x="473.75" y="243.2617"/><line style="stroke: #A80036; stroke-width: 1.875;" x1="470" x2="601.25" y1="239.5117" y2="239.5117"/><text fill="#000000" font-family="sans-serif" font-size="17.5" lengthAdjust="spacingAndGlyphs" textLength="106.25" x="482.5" y="229.4165">openVehicles</text><ellipse cx="496.25" cy="268.2617" fill="#000000" filter="url(#f1wb5sw4vh0gz3)" rx="12.5" ry="12.5" style="stroke: none; stroke-width: 1.25;"/><ellipse cx="496.25" cy="338.2617" fill="none" filter="url(#f1wb5sw4vh0gz3)" rx="12.5" ry="12.5" style="stroke: #000000; stroke-width: 1.25;"/><ellipse cx="496.875" cy="338.8867" fill="#000000" rx="7.5" ry="7.5" style="stroke: none; stroke-width: 1.25;"/><!--MD5=[9c73b8505b886ec60e3e4e021e6ded2e]
link *start*openVehicles to *end*openVehicles--><path d="M496.25,281.2693 C496.25,291.6258 496.25,306.8762 496.25,318.8086 " fill="none" id="*start*openVehicles-&gt;*end*openVehicles" style="stroke: #008000; stroke-width: 1.25;"/><polygon fill="#008000" points="496.25,325.3888,501.25,314.1388,496.25,319.1388,491.25,314.1388,496.25,325.3888" style="stroke: #008000; stroke-width: 1.25;"/><!--MD5=[cad8610aa8b27b03c2ff5534a7ec1797]
link startState1 to openVehicles--><path d="M322.7325,60.3238 C333.9188,98.2138 354.375,167.5 354.375,167.5 C354.375,167.5 413.4688,206.2163 464.1713,239.435 " fill="none" id="startState1-&gt;openVehicles" style="stroke: #008000; stroke-width: 1.25;"/><polygon fill="#008000" points="469.6763,243.0425,463.0053,232.6954,464.4481,239.6178,457.5258,241.0605,469.6763,243.0425" style="stroke: #008000; stroke-width: 1.25;"/><path d="M360.625,103.75 L360.625,156.25 L513.125,156.25 L513.125,116.25 L500.625,103.75 L360.625,103.75 " fill="#F5F5F5" filter="url(#f1wb5sw4vh0gz3)" style="stroke: #008000; stroke-width: 1.25;"/><path d="M500.625,103.75 L500.625,116.25 L513.125,116.25 L500.625,103.75 " fill="#F5F5F5" style="stroke: #008000; stroke-width: 1.25;"/><text fill="#000000" font-family="sans-serif" font-size="16.25" font-weight="bold" lengthAdjust="spacingAndGlyphs" textLength="126.25" x="368.125" y="126.8689">User requests to</text><ellipse cx="375" cy="141.5039" fill="#000000" rx="3.125" ry="3.125" style="stroke: #000000; stroke-width: 0.0;"/><text fill="#000000" font-family="sans-serif" font-size="16.25" lengthAdjust="spacingAndGlyphs" textLength="97.5" x="384.375" y="147.3083">openVehicles</text><!--MD5=[af1783b8a15c54c46dbdf774e53128ee]
link startState2 to openVehicles--><path d="M533.365,60.2213 C533.68,91.8012 534.2538,149.0763 534.7438,198.0662 " fill="none" id="startState2-&gt;openVehicles" style="stroke: #008000; stroke-width: 1.25;"/><polygon fill="#008000" points="534.8087,204.6125,539.696,193.3131,534.7463,198.3628,529.6965,193.4131,534.8087,204.6125" style="stroke: #008000; stroke-width: 1.25;"/><path d="M540.625,103.75 L540.625,156.25 L693.125,156.25 L693.125,116.25 L680.625,103.75 L540.625,103.75 " fill="#F5F5F5" filter="url(#f1wb5sw4vh0gz3)" style="stroke: #008000; stroke-width: 1.25;"/><path d="M680.625,103.75 L680.625,116.25 L693.125,116.25 L680.625,103.75 " fill="#F5F5F5" style="stroke: #008000; stroke-width: 1.25;"/><text fill="#000000" font-family="sans-serif" font-size="16.25" font-weight="bold" lengthAdjust="spacingAndGlyphs" textLength="126.25" x="548.125" y="126.8689">User requests to</text><ellipse cx="555" cy="141.5039" fill="#000000" rx="3.125" ry="3.125" style="stroke: #000000; stroke-width: 0.0;"/><text fill="#000000" font-family="sans-serif" font-size="16.25" lengthAdjust="spacingAndGlyphs" textLength="97.5" x="564.375" y="147.3083">openVehicles</text><!--MD5=[508de538c5c084f75ef9e48c3c7e5618]
link startState3 to openVehicles--><path d="M763.37,60.3238 C746.0488,98.2138 714.375,167.5 714.375,167.5 C714.375,167.5 656.8638,205.7063 607.085,238.7775 " fill="none" id="startState3-&gt;openVehicles" style="stroke: #008000; stroke-width: 1.25;"/><polygon fill="#008000" points="601.6775,242.3687,613.8147,240.3069,606.883,238.9097,608.2802,231.9781,601.6775,242.3687" style="stroke: #008000; stroke-width: 1.25;"/><path d="M753.125,103.75 L753.125,156.25 L905.625,156.25 L905.625,116.25 L893.125,103.75 L753.125,103.75 " fill="#F5F5F5" filter="url(#f1wb5sw4vh0gz3)" style="stroke: #008000; stroke-width: 1.25;"/><path d="M893.125,103.75 L893.125,116.25 L905.625,116.25 L893.125,103.75 " fill="#F5F5F5" style="stroke: #008000; stroke-width: 1.25;"/><text fill="#000000" font-family="sans-serif" font-size="16.25" font-weight="bold" lengthAdjust="spacingAndGlyphs" textLength="126.25" x="760.625" y="126.8689">User requests to</text><ellipse cx="767.5" cy="141.5039" fill="#000000" rx="3.125" ry="3.125" style="stroke: #000000; stroke-width: 0.0;"/><text fill="#000000" font-family="sans-serif" font-size="16.25" lengthAdjust="spacingAndGlyphs" textLength="97.5" x="776.875" y="147.3083">openVehicles</text><!--MD5=[3dbf777a85e466917969ef16dc88a7fd]
link startState5 to openVehicles--><path d="M1010.575,60.3238 C980.9838,98.2138 926.875,167.5 926.875,167.5 C926.875,167.5 720.9175,230.0113 607.8638,264.325 " fill="none" id="startState5-&gt;openVehicles" style="stroke: #008000; stroke-width: 1.25;"/><polygon fill="#008000" points="601.5525,266.24,613.77,267.7554,607.5328,264.4239,610.8643,258.1868,601.5525,266.24" style="stroke: #008000; stroke-width: 1.25;"/><path d="M988.125,103.75 L988.125,156.25 L1140.625,156.25 L1140.625,116.25 L1128.125,103.75 L988.125,103.75 " fill="#F5F5F5" filter="url(#f1wb5sw4vh0gz3)" style="stroke: #008000; stroke-width: 1.25;"/><path d="M1128.125,103.75 L1128.125,116.25 L1140.625,116.25 L1128.125,103.75 " fill="#F5F5F5" style="stroke: #008000; stroke-width: 1.25;"/><text fill="#000000" font-family="sans-serif" font-size="16.25" font-weight="bold" lengthAdjust="spacingAndGlyphs" textLength="126.25" x="995.625" y="126.8689">User requests to</text><ellipse cx="1002.5" cy="141.5039" fill="#000000" rx="3.125" ry="3.125" style="stroke: #000000; stroke-width: 0.0;"/><text fill="#000000" font-family="sans-serif" font-size="16.25" lengthAdjust="spacingAndGlyphs" textLength="97.5" x="1011.875" y="147.3083">openVehicles</text><!--MD5=[fdefe930c71f9c2ecf1f2665f03bf804]
link startState to openVehicles--><path d="M137.05,60.0187 C202.9688,97.8413 324.375,167.5 324.375,167.5 C324.375,167.5 403.105,211.7562 464.4387,246.2338 " fill="none" id="startState-&gt;openVehicles" style="stroke: #008000; stroke-width: 1.25;"/><polygon fill="#008000" points="469.9425,249.3275,462.5857,239.4564,464.4942,246.265,457.6856,248.1736,469.9425,249.3275" style="stroke: #008000; stroke-width: 1.25;"/><!--MD5=[950ef6eb268c9e44be7d558b3808cdf5]
link openVehicles to endState--><path d="M535.625,370 C535.625,462.4163 535.625,608.6643 535.625,671.8046 " fill="none" id="openVehicles-&gt;endState" style="stroke: #008000; stroke-width: 1.25;"/><polygon fill="#008000" points="535.625,678.3689,540.625,667.1189,535.625,672.1189,530.625,667.1189,535.625,678.3689" style="stroke: #008000; stroke-width: 1.25;"/><path d="M541.875,413.75 L541.875,630 L739.375,630 L739.375,426.25 L726.875,413.75 L541.875,413.75 " fill="#F5F5F5" filter="url(#f1wb5sw4vh0gz3)" style="stroke: #008000; stroke-width: 1.25;"/><path d="M726.875,413.75 L726.875,426.25 L739.375,426.25 L726.875,413.75 " fill="#F5F5F5" style="stroke: #008000; stroke-width: 1.25;"/><text fill="#000000" font-family="sans-serif" font-size="16.25" font-weight="bold" lengthAdjust="spacingAndGlyphs" textLength="111.25" x="549.375" y="436.8689">System shows</text><ellipse cx="556.25" cy="451.5039" fill="#000000" rx="3.125" ry="3.125" style="stroke: #000000; stroke-width: 0.0;"/><text fill="#000000" font-family="sans-serif" font-size="16.25" lengthAdjust="spacingAndGlyphs" textLength="155" x="565.625" y="457.3083">all vehicles in system</text><text fill="#000000" font-family="sans-serif" font-size="16.25" font-weight="bold" lengthAdjust="spacingAndGlyphs" textLength="113.75" x="549.375" y="477.7478">System allows</text><ellipse cx="556.25" cy="492.3828" fill="#000000" rx="3.125" ry="3.125" style="stroke: #000000; stroke-width: 0.0;"/><text fill="#000000" font-family="sans-serif" font-size="16.25" lengthAdjust="spacingAndGlyphs" textLength="97.5" x="565.625" y="498.1873">open vehicles</text><ellipse cx="556.25" cy="512.8223" fill="#000000" rx="3.125" ry="3.125" style="stroke: #000000; stroke-width: 0.0;"/><text fill="#000000" font-family="sans-serif" font-size="16.25" lengthAdjust="spacingAndGlyphs" textLength="130" x="565.625" y="518.6267">open interventions</text><ellipse cx="556.25" cy="533.2617" fill="#000000" rx="3.125" ry="3.125" style="stroke: #000000; stroke-width: 0.0;"/><text fill="#000000" font-family="sans-serif" font-size="16.25" lengthAdjust="spacingAndGlyphs" textLength="87.5" x="565.625" y="539.0662">open clients</text><ellipse cx="556.25" cy="553.7012" fill="#000000" rx="3.125" ry="3.125" style="stroke: #000000; stroke-width: 0.0;"/><text fill="#000000" font-family="sans-serif" font-size="16.25" lengthAdjust="spacingAndGlyphs" textLength="115" x="565.625" y="559.5056">open operations</text><ellipse cx="556.25" cy="574.1406" fill="#000000" rx="3.125" ry="3.125" style="stroke: #000000; stroke-width: 0.0;"/><text fill="#000000" font-family="sans-serif" font-size="16.25" lengthAdjust="spacingAndGlyphs" textLength="43.75" x="565.625" y="579.9451">logout</text><ellipse cx="556.25" cy="594.5801" fill="#000000" rx="3.125" ry="3.125" style="stroke: #000000; stroke-width: 0.0;"/><text fill="#000000" font-family="sans-serif" font-size="16.25" lengthAdjust="spacingAndGlyphs" textLength="131.25" x="565.625" y="600.3845">create intervention</text><ellipse cx="556.25" cy="615.0195" fill="#000000" rx="3.125" ry="3.125" style="stroke: #000000; stroke-width: 0.0;"/><text fill="#000000" font-family="sans-serif" font-size="16.25" lengthAdjust="spacingAndGlyphs" textLength="123.75" x="565.625" y="620.824">finish intervention</text><!--MD5=[46dbd3379362b399ed62640878d5b30a]
@startuml
skinparam {
    NoteBackgroundColor #whiteSmoke
    ArrowColor #green
    NoteBorderColor #green
    linetype polyline
}

hide empty description

state startState as "OPENED_VEHICLES"
state endState as "OPENED_VEHICLE"

state startState1 as "OPENED_VEHICLES"
state startState2 as "OPENED_CLIENTS"
state startState3 as "OPENED_INTERVENTIONS"
state startState5 as "OPENED_OPERATION"
state endState as "OPENED_DASHBOARD"

startState1 - -> openVehicles
note on link
<b>User requests to</b>
* openVehicles
end note
startState2 - -> openVehicles
note on link
<b>User requests to</b>
* openVehicles
end note
startState3 - -> openVehicles
note on link
<b>User requests to</b>
* openVehicles
end note
startState5 - -> openVehicles
note on link
<b>User requests to</b>
* openVehicles
end note
startState - -> openVehicles

state openVehicles {

[*] - -> [*]


}

openVehicles - -> endState
note on link
<b>System shows
* all vehicles in system
<b>System allows
* open vehicles
* open interventions
* open clients
* open operations
* logout
* create intervention
* finish intervention
end note

@enduml

PlantUML version 1.2020.09(Sun May 10 12:51:06 CEST 2020)
(GPL source distribution)
Java Runtime: OpenJDK Runtime Environment
JVM: OpenJDK 64-Bit Server VM
Java Version: 11.0.8+10-b944.31
Operating System: Windows 10
Default Encoding: Cp1252
Language: en
Country: GB
--></g></svg>