<?xml version="1.0" encoding="UTF-8" standalone="no"?><svg xmlns="http://www.w3.org/2000/svg" xmlns:xlink="http://www.w3.org/1999/xlink" contentScriptType="application/ecmascript" contentStyleType="text/css" height="743.75px" preserveAspectRatio="none" style="width:1143px;height:743px;" version="1.1" viewBox="0 0 1143 743" width="1143.75px" zoomAndPan="magnify"><defs><filter height="300%" id="f15w4m9yigsaxw" width="300%" x="-1" y="-1"><feGaussianBlur result="blurOut" stdDeviation="2.5"/><feColorMatrix in="blurOut" result="blurOut2" type="matrix" values="0 0 0 0 0 0 0 0 0 0 0 0 0 0 0 0 0 0 .4 0"/><feOffset dx="5.0" dy="5.0" in="blurOut2" result="blurOut3"/><feBlend in="SourceGraphic" in2="blurOut3" mode="normal"/></filter></defs><g><rect fill="#FEFECE" filter="url(#f15w4m9yigsaxw)" height="50" rx="15.625" ry="15.625" style="stroke: #A80036; stroke-width: 1.875;" width="165" x="7.5" y="10"/><text fill="#000000" font-family="sans-serif" font-size="17.5" lengthAdjust="spacingAndGlyphs" textLength="152.5" x="13.75" y="42.1606">OPENED_CLIENTS</text><rect fill="#FEFECE" filter="url(#f15w4m9yigsaxw)" height="50" rx="15.625" ry="15.625" style="stroke: #A80036; stroke-width: 1.875;" width="165" x="216.25" y="10"/><text fill="#000000" font-family="sans-serif" font-size="17.5" lengthAdjust="spacingAndGlyphs" textLength="152.5" x="222.5" y="42.1606">OPENED_CLIENTS</text><rect fill="#FEFECE" filter="url(#f15w4m9yigsaxw)" height="50" rx="15.625" ry="15.625" style="stroke: #A80036; stroke-width: 1.875;" width="176.25" x="425.625" y="10"/><text fill="#000000" font-family="sans-serif" font-size="17.5" lengthAdjust="spacingAndGlyphs" textLength="163.75" x="431.875" y="42.1606">OPENED_VEHICLES</text><rect fill="#FEFECE" filter="url(#f15w4m9yigsaxw)" height="50" rx="15.625" ry="15.625" style="stroke: #A80036; stroke-width: 1.875;" width="228.75" x="645.625" y="10"/><text fill="#000000" font-family="sans-serif" font-size="17.5" lengthAdjust="spacingAndGlyphs" textLength="216.25" x="651.875" y="42.1606">OPENED_INTERVENTIONS</text><rect fill="#FEFECE" filter="url(#f15w4m9yigsaxw)" height="50" rx="15.625" ry="15.625" style="stroke: #A80036; stroke-width: 1.875;" width="205" x="918.75" y="10"/><text fill="#000000" font-family="sans-serif" font-size="17.5" lengthAdjust="spacingAndGlyphs" textLength="192.5" x="925" y="42.1606">OPENED_OPERATIONS</text><rect fill="#FEFECE" filter="url(#f15w4m9yigsaxw)" height="50" rx="15.625" ry="15.625" style="stroke: #A80036; stroke-width: 1.875;" width="165" x="431.25" y="680"/><text fill="#000000" font-family="sans-serif" font-size="17.5" lengthAdjust="spacingAndGlyphs" textLength="152.5" x="437.5" y="712.1606">OPENED_CLIENTS</text><rect fill="#FEFECE" filter="url(#f15w4m9yigsaxw)" height="398.2617" rx="15.625" ry="15.625" style="stroke: #A80036; stroke-width: 1.875;" width="272.5" x="377.5" y="205"/><rect fill="#FFFFFF" height="356.25" rx="15.625" ry="15.625" style="stroke: #FFFFFF; stroke-width: 1.25;" width="265" x="381.25" y="243.2617"/><line style="stroke: #A80036; stroke-width: 1.875;" x1="377.5" x2="650" y1="239.5117" y2="239.5117"/><text fill="#000000" font-family="sans-serif" font-size="17.5" lengthAdjust="spacingAndGlyphs" textLength="93.75" x="466.875" y="229.4165">openClients</text><ellipse cx="403.75" cy="268.2617" fill="#000000" filter="url(#f15w4m9yigsaxw)" rx="12.5" ry="12.5" style="stroke: none; stroke-width: 1.25;"/><ellipse cx="403.75" cy="572.0117" fill="none" filter="url(#f15w4m9yigsaxw)" rx="12.5" ry="12.5" style="stroke: #000000; stroke-width: 1.25;"/><ellipse cx="404.375" cy="572.6367" fill="#000000" rx="7.5" ry="7.5" style="stroke: none; stroke-width: 1.25;"/><!--MD5=[01edfa4a30657a4511f79893be01b18d]
link *start*openClients to *end*openClients--><path d="M403.75,280.953 C403.75,326.7142 403.75,496.7927 403.75,552.7711 " fill="none" id="*start*openClients-&gt;*end*openClients" style="stroke: #008000; stroke-width: 1.25;"/><polygon fill="#008000" points="403.75,559.3088,408.75,548.0588,403.75,553.0588,398.75,548.0588,403.75,559.3088" style="stroke: #008000; stroke-width: 1.25;"/><path d="M410,309.5117 L410,525.7617 L597.5,525.7617 L597.5,322.0117 L585,309.5117 L410,309.5117 " fill="#F5F5F5" filter="url(#f15w4m9yigsaxw)" style="stroke: #008000; stroke-width: 1.25;"/><path d="M585,309.5117 L585,322.0117 L597.5,322.0117 L585,309.5117 " fill="#F5F5F5" style="stroke: #008000; stroke-width: 1.25;"/><text fill="#000000" font-family="sans-serif" font-size="16.25" font-weight="bold" lengthAdjust="spacingAndGlyphs" textLength="111.25" x="417.5" y="332.6306">System shows</text><ellipse cx="424.375" cy="347.2656" fill="#000000" rx="3.125" ry="3.125" style="stroke: #000000; stroke-width: 0.0;"/><text fill="#000000" font-family="sans-serif" font-size="16.25" lengthAdjust="spacingAndGlyphs" textLength="145" x="433.75" y="353.0701">all clients in system</text><text fill="#000000" font-family="sans-serif" font-size="16.25" font-weight="bold" lengthAdjust="spacingAndGlyphs" textLength="113.75" x="417.5" y="373.5095">System allows</text><ellipse cx="424.375" cy="388.1445" fill="#000000" rx="3.125" ry="3.125" style="stroke: #000000; stroke-width: 0.0;"/><text fill="#000000" font-family="sans-serif" font-size="16.25" lengthAdjust="spacingAndGlyphs" textLength="97.5" x="433.75" y="393.949">open vehicles</text><ellipse cx="424.375" cy="408.584" fill="#000000" rx="3.125" ry="3.125" style="stroke: #000000; stroke-width: 0.0;"/><text fill="#000000" font-family="sans-serif" font-size="16.25" lengthAdjust="spacingAndGlyphs" textLength="130" x="433.75" y="414.3884">open interventions</text><ellipse cx="424.375" cy="429.0234" fill="#000000" rx="3.125" ry="3.125" style="stroke: #000000; stroke-width: 0.0;"/><text fill="#000000" font-family="sans-serif" font-size="16.25" lengthAdjust="spacingAndGlyphs" textLength="87.5" x="433.75" y="434.8279">open clients</text><ellipse cx="424.375" cy="449.4629" fill="#000000" rx="3.125" ry="3.125" style="stroke: #000000; stroke-width: 0.0;"/><text fill="#000000" font-family="sans-serif" font-size="16.25" lengthAdjust="spacingAndGlyphs" textLength="115" x="433.75" y="455.2673">open operations</text><ellipse cx="424.375" cy="469.9023" fill="#000000" rx="3.125" ry="3.125" style="stroke: #000000; stroke-width: 0.0;"/><text fill="#000000" font-family="sans-serif" font-size="16.25" lengthAdjust="spacingAndGlyphs" textLength="43.75" x="433.75" y="475.7068">logout</text><ellipse cx="424.375" cy="490.3418" fill="#000000" rx="3.125" ry="3.125" style="stroke: #000000; stroke-width: 0.0;"/><text fill="#000000" font-family="sans-serif" font-size="16.25" lengthAdjust="spacingAndGlyphs" textLength="131.25" x="433.75" y="496.1462">create intervention</text><ellipse cx="424.375" cy="510.7813" fill="#000000" rx="3.125" ry="3.125" style="stroke: #000000; stroke-width: 0.0;"/><text fill="#000000" font-family="sans-serif" font-size="16.25" lengthAdjust="spacingAndGlyphs" textLength="123.75" x="433.75" y="516.5857">finish intervention</text><!--MD5=[e263efb3d06dd94bde332f45e340f36f]
link startState2 to openClients--><path d="M312.8563,60.3212 C330.2325,89.9725 361.4975,143.3212 394.265,199.2363 " fill="none" id="startState2-&gt;openClients" style="stroke: #008000; stroke-width: 1.25;"/><polygon fill="#008000" points="397.44,204.655,396.0652,192.4209,394.2797,199.2629,387.4378,197.4774,397.44,204.655" style="stroke: #008000; stroke-width: 1.25;"/><!--MD5=[5b06fafc57c78f515b7445cf278e407f]
link startState to openClients--><path d="M101.922,60.3238 C120.687,98.2138 155,167.5 155,167.5 C155,167.5 271.51,244.0225 371.735,309.85 " fill="none" id="startState-&gt;openClients" style="stroke: #008000; stroke-width: 1.25;"/><polygon fill="#008000" points="377.0988,313.3725,370.4401,303.0175,371.8747,309.9416,364.9506,311.3761,377.0988,313.3725" style="stroke: #008000; stroke-width: 1.25;"/><path d="M161.25,103.75 L161.25,156.25 L313.75,156.25 L313.75,116.25 L301.25,103.75 L161.25,103.75 " fill="#F5F5F5" filter="url(#f15w4m9yigsaxw)" style="stroke: #008000; stroke-width: 1.25;"/><path d="M301.25,103.75 L301.25,116.25 L313.75,116.25 L301.25,103.75 " fill="#F5F5F5" style="stroke: #008000; stroke-width: 1.25;"/><text fill="#000000" font-family="sans-serif" font-size="16.25" font-weight="bold" lengthAdjust="spacingAndGlyphs" textLength="126.25" x="168.75" y="126.8689">User requests to</text><ellipse cx="175.625" cy="141.5039" fill="#000000" rx="3.125" ry="3.125" style="stroke: #000000; stroke-width: 0.0;"/><text fill="#000000" font-family="sans-serif" font-size="16.25" lengthAdjust="spacingAndGlyphs" textLength="85" x="185" y="147.3083">openClients</text><!--MD5=[04eda6f9d2af888a33d5d08ec1368ee9]
link startState3 to openClients--><path d="M513.75,60.3212 C513.75,89.7938 513.75,142.6763 513.75,198.2225 " fill="none" id="startState3-&gt;openClients" style="stroke: #008000; stroke-width: 1.25;"/><polygon fill="#008000" points="513.75,204.655,518.75,193.405,513.75,198.405,508.75,193.405,513.75,204.655" style="stroke: #008000; stroke-width: 1.25;"/><path d="M520,103.75 L520,156.25 L672.5,156.25 L672.5,116.25 L660,103.75 L520,103.75 " fill="#F5F5F5" filter="url(#f15w4m9yigsaxw)" style="stroke: #008000; stroke-width: 1.25;"/><path d="M660,103.75 L660,116.25 L672.5,116.25 L660,103.75 " fill="#F5F5F5" style="stroke: #008000; stroke-width: 1.25;"/><text fill="#000000" font-family="sans-serif" font-size="16.25" font-weight="bold" lengthAdjust="spacingAndGlyphs" textLength="126.25" x="527.5" y="126.8689">User requests to</text><ellipse cx="534.375" cy="141.5039" fill="#000000" rx="3.125" ry="3.125" style="stroke: #000000; stroke-width: 0.0;"/><text fill="#000000" font-family="sans-serif" font-size="16.25" lengthAdjust="spacingAndGlyphs" textLength="85" x="543.75" y="147.3083">openClients</text><!--MD5=[c4ac00fa95e47d616d3aa07745d986d6]
link startState4 to openClients--><path d="M747.8488,60.3238 C728.7225,98.2138 693.75,167.5 693.75,167.5 C693.75,167.5 677.2463,189.1038 654.2337,219.2275 " fill="none" id="startState4-&gt;openClients" style="stroke: #008000; stroke-width: 1.25;"/><polygon fill="#008000" points="650.1775,224.5387,660.9799,218.6336,653.9713,219.5719,653.033,212.5634,650.1775,224.5387" style="stroke: #008000; stroke-width: 1.25;"/><path d="M736.25,103.75 L736.25,156.25 L888.75,156.25 L888.75,116.25 L876.25,103.75 L736.25,103.75 " fill="#F5F5F5" filter="url(#f15w4m9yigsaxw)" style="stroke: #008000; stroke-width: 1.25;"/><path d="M876.25,103.75 L876.25,116.25 L888.75,116.25 L876.25,103.75 " fill="#F5F5F5" style="stroke: #008000; stroke-width: 1.25;"/><text fill="#000000" font-family="sans-serif" font-size="16.25" font-weight="bold" lengthAdjust="spacingAndGlyphs" textLength="126.25" x="743.75" y="126.8689">User requests to</text><ellipse cx="750.625" cy="141.5039" fill="#000000" rx="3.125" ry="3.125" style="stroke: #000000; stroke-width: 0.0;"/><text fill="#000000" font-family="sans-serif" font-size="16.25" lengthAdjust="spacingAndGlyphs" textLength="85" x="760" y="147.3083">openClients</text><!--MD5=[d695ef177515f2b4231b8d4e6e4a1b7b]
link startState5 to openClients--><path d="M1000.845,60.3238 C968.7275,98.2138 910,167.5 910,167.5 C910,167.5 769.2413,251.2 655.5113,318.8288 " fill="none" id="startState5-&gt;openClients" style="stroke: #008000; stroke-width: 1.25;"/><polygon fill="#008000" points="650.1162,322.0363,662.3418,320.5877,655.4892,318.8435,657.2335,311.991,650.1162,322.0363" style="stroke: #008000; stroke-width: 1.25;"/><path d="M976.25,103.75 L976.25,156.25 L1128.75,156.25 L1128.75,116.25 L1116.25,103.75 L976.25,103.75 " fill="#F5F5F5" filter="url(#f15w4m9yigsaxw)" style="stroke: #008000; stroke-width: 1.25;"/><path d="M1116.25,103.75 L1116.25,116.25 L1128.75,116.25 L1116.25,103.75 " fill="#F5F5F5" style="stroke: #008000; stroke-width: 1.25;"/><text fill="#000000" font-family="sans-serif" font-size="16.25" font-weight="bold" lengthAdjust="spacingAndGlyphs" textLength="126.25" x="983.75" y="126.8689">User requests to</text><ellipse cx="990.625" cy="141.5039" fill="#000000" rx="3.125" ry="3.125" style="stroke: #000000; stroke-width: 0.0;"/><text fill="#000000" font-family="sans-serif" font-size="16.25" lengthAdjust="spacingAndGlyphs" textLength="85" x="1000" y="147.3083">openClients</text><!--MD5=[316f6ecad7cf5331d8120ace767d38f5]
link openClients to endState--><path d="M513.75,604.0638 C513.75,630.9828 513.75,655.4794 513.75,673.4528 " fill="none" id="openClients-&gt;endState" style="stroke: #008000; stroke-width: 1.25;"/><polygon fill="#008000" points="513.75,679.7718,518.75,668.5218,513.75,673.5218,508.75,668.5218,513.75,679.7718" style="stroke: #008000; stroke-width: 1.25;"/><!--MD5=[df255ab10fc3d320cf7fbb9d9835b4a0]
@startuml

skinparam {
    NoteBackgroundColor #whiteSmoke
    ArrowColor #green
    NoteBorderColor #green
    linetype polyline
}

hide empty description

state startState as "OPENED_CLIENTS"
state startState2 as "OPENED_CLIENTS"
state startState3 as "OPENED_VEHICLES"
state startState4 as "OPENED_INTERVENTIONS"
state startState5 as "OPENED_OPERATIONS"
state endState as "OPENED_CLIENTS"

startState2 - -> openClients

startState - -> openClients
note on link
<b>User requests to</b>
* openClients
end note

startState3 - -> openClients
note on link
<b>User requests to</b>
* openClients
end note

startState4 - -> openClients
note on link
<b>User requests to</b>
* openClients
end note

startState5 - -> openClients
note on link
<b>User requests to</b>
* openClients
end note

state openClients {
[*] - -> [*]
note on link
<b>System shows
* all clients in system
<b>System allows
* open vehicles
* open interventions
* open clients
* open operations
* logout
* create intervention
* finish intervention
end note
}

openClients - -> endState

@enduml

PlantUML version 1.2020.09(Sun May 10 12:51:06 CEST 2020)
(GPL source distribution)
Java Runtime: OpenJDK Runtime Environment
JVM: OpenJDK 64-Bit Server VM
Java Version: 11.0.8+10-b944.31
Operating System: Windows 10
Default Encoding: Cp1252
Language: en
Country: GB
--></g></svg>