<?xml version="1.0" encoding="UTF-8" standalone="no"?><svg xmlns="http://www.w3.org/2000/svg" xmlns:xlink="http://www.w3.org/1999/xlink" contentScriptType="application/ecmascript" contentStyleType="text/css" height="723.75px" preserveAspectRatio="none" style="width:1158px;height:723px;" version="1.1" viewBox="0 0 1158 723" width="1158.75px" zoomAndPan="magnify"><defs><filter height="300%" id="f1bzujbh2dgm6e" width="300%" x="-1" y="-1"><feGaussianBlur result="blurOut" stdDeviation="2.5"/><feColorMatrix in="blurOut" result="blurOut2" type="matrix" values="0 0 0 0 0 0 0 0 0 0 0 0 0 0 0 0 0 0 .4 0"/><feOffset dx="5.0" dy="5.0" in="blurOut2" result="blurOut3"/><feBlend in="SourceGraphic" in2="blurOut3" mode="normal"/></filter></defs><g><rect fill="#FEFECE" filter="url(#f1bzujbh2dgm6e)" height="50" rx="15.625" ry="15.625" style="stroke: #A80036; stroke-width: 1.875;" width="176.25" x="7.5" y="10"/><text fill="#000000" font-family="sans-serif" font-size="17.5" lengthAdjust="spacingAndGlyphs" textLength="163.75" x="13.75" y="42.1606">OPENED_VEHICLES</text><rect fill="#FEFECE" filter="url(#f1bzujbh2dgm6e)" height="50" rx="15.625" ry="15.625" style="stroke: #A80036; stroke-width: 1.875;" width="165" x="248.125" y="10"/><text fill="#000000" font-family="sans-serif" font-size="17.5" lengthAdjust="spacingAndGlyphs" textLength="152.5" x="254.375" y="42.1606">OPENED_CLIENTS</text><rect fill="#FEFECE" filter="url(#f1bzujbh2dgm6e)" height="50" rx="15.625" ry="15.625" style="stroke: #A80036; stroke-width: 1.875;" width="201.25" x="461.25" y="10"/><text fill="#000000" font-family="sans-serif" font-size="17.5" lengthAdjust="spacingAndGlyphs" textLength="188.75" x="467.5" y="42.1606">OPENED_DASHBOARD</text><rect fill="#FEFECE" filter="url(#f1bzujbh2dgm6e)" height="50" rx="15.625" ry="15.625" style="stroke: #A80036; stroke-width: 1.875;" width="165" x="706.875" y="10"/><text fill="#000000" font-family="sans-serif" font-size="17.5" lengthAdjust="spacingAndGlyphs" textLength="152.5" x="713.125" y="42.1606">OPENED_CLIENTS</text><rect fill="#FEFECE" filter="url(#f1bzujbh2dgm6e)" height="50" rx="15.625" ry="15.625" style="stroke: #A80036; stroke-width: 1.875;" width="228.75" x="916.25" y="10"/><text fill="#000000" font-family="sans-serif" font-size="17.5" lengthAdjust="spacingAndGlyphs" textLength="216.25" x="922.5" y="42.1606">OPENED_INTERVENTIONS</text><rect fill="#FEFECE" filter="url(#f1bzujbh2dgm6e)" height="50" rx="15.625" ry="15.625" style="stroke: #A80036; stroke-width: 1.875;" width="228.75" x="451.25" y="660"/><text fill="#000000" font-family="sans-serif" font-size="17.5" lengthAdjust="spacingAndGlyphs" textLength="216.25" x="457.5" y="692.1606">OPENED_INTERVENTIONS</text><rect fill="#FEFECE" filter="url(#f1bzujbh2dgm6e)" height="378.2617" rx="15.625" ry="15.625" style="stroke: #A80036; stroke-width: 1.875;" width="258.75" x="436.25" y="205"/><rect fill="#FFFFFF" height="336.25" rx="15.625" ry="15.625" style="stroke: #FFFFFF; stroke-width: 1.25;" width="251.25" x="440" y="243.2617"/><line style="stroke: #A80036; stroke-width: 1.875;" x1="436.25" x2="695" y1="239.5117" y2="239.5117"/><text fill="#000000" font-family="sans-serif" font-size="17.5" lengthAdjust="spacingAndGlyphs" textLength="141.25" x="495" y="229.4165">openInterventions</text><ellipse cx="462.5" cy="268.2617" fill="#000000" filter="url(#f1bzujbh2dgm6e)" rx="12.5" ry="12.5" style="stroke: none; stroke-width: 1.25;"/><ellipse cx="462.5" cy="552.0117" fill="none" filter="url(#f1bzujbh2dgm6e)" rx="12.5" ry="12.5" style="stroke: #000000; stroke-width: 1.25;"/><ellipse cx="463.125" cy="552.6367" fill="#000000" rx="7.5" ry="7.5" style="stroke: none; stroke-width: 1.25;"/><!--MD5=[b4147c47bb54a8809d0bc03d229ca741]
link *start*openInterventions to *end*openInterventions--><path d="M462.5,280.8855 C462.5,324.2492 462.5,479.4345 462.5,532.679 " fill="none" id="*start*openInterventions-&gt;*end*openInterventions" style="stroke: #008000; stroke-width: 1.25;"/><polygon fill="#008000" points="462.5,538.9346,467.5,527.6846,462.5,532.6846,457.5,527.6846,462.5,538.9346" style="stroke: #008000; stroke-width: 1.25;"/><path d="M468.75,309.5117 L468.75,505.7617 L642.5,505.7617 L642.5,322.0117 L630,309.5117 L468.75,309.5117 " fill="#F5F5F5" filter="url(#f1bzujbh2dgm6e)" style="stroke: #008000; stroke-width: 1.25;"/><path d="M630,309.5117 L630,322.0117 L642.5,322.0117 L630,309.5117 " fill="#F5F5F5" style="stroke: #008000; stroke-width: 1.25;"/><text fill="#000000" font-family="sans-serif" font-size="16.25" font-weight="bold" lengthAdjust="spacingAndGlyphs" textLength="111.25" x="476.25" y="332.6306">System shows</text><ellipse cx="483.125" cy="347.2656" fill="#000000" rx="3.125" ry="3.125" style="stroke: #000000; stroke-width: 0.0;"/><text fill="#000000" font-family="sans-serif" font-size="16.25" lengthAdjust="spacingAndGlyphs" textLength="111.25" x="492.5" y="353.0701">all interventions</text><text fill="#000000" font-family="sans-serif" font-size="16.25" font-weight="bold" lengthAdjust="spacingAndGlyphs" textLength="113.75" x="476.25" y="373.5095">System allows</text><ellipse cx="483.125" cy="388.1445" fill="#000000" rx="3.125" ry="3.125" style="stroke: #000000; stroke-width: 0.0;"/><text fill="#000000" font-family="sans-serif" font-size="16.25" lengthAdjust="spacingAndGlyphs" textLength="115" x="492.5" y="393.949">open dashboard</text><ellipse cx="483.125" cy="408.584" fill="#000000" rx="3.125" ry="3.125" style="stroke: #000000; stroke-width: 0.0;"/><text fill="#000000" font-family="sans-serif" font-size="16.25" lengthAdjust="spacingAndGlyphs" textLength="87.5" x="492.5" y="414.3884">open clients</text><ellipse cx="483.125" cy="429.0234" fill="#000000" rx="3.125" ry="3.125" style="stroke: #000000; stroke-width: 0.0;"/><text fill="#000000" font-family="sans-serif" font-size="16.25" lengthAdjust="spacingAndGlyphs" textLength="97.5" x="492.5" y="434.8279">open vehicles</text><ellipse cx="483.125" cy="449.4629" fill="#000000" rx="3.125" ry="3.125" style="stroke: #000000; stroke-width: 0.0;"/><text fill="#000000" font-family="sans-serif" font-size="16.25" lengthAdjust="spacingAndGlyphs" textLength="115" x="492.5" y="455.2673">open operations</text><ellipse cx="483.125" cy="469.9023" fill="#000000" rx="3.125" ry="3.125" style="stroke: #000000; stroke-width: 0.0;"/><text fill="#000000" font-family="sans-serif" font-size="16.25" lengthAdjust="spacingAndGlyphs" textLength="43.75" x="492.5" y="475.7068">logout</text><ellipse cx="483.125" cy="490.3418" fill="#000000" rx="3.125" ry="3.125" style="stroke: #000000; stroke-width: 0.0;"/><text fill="#000000" font-family="sans-serif" font-size="16.25" lengthAdjust="spacingAndGlyphs" textLength="131.25" x="492.5" y="496.1462">create intervention</text><!--MD5=[f4322564c9aecf187446de50a71a15ed]
link startState1 to openInterventions--><path d="M106.4006,60.3238 C123.3612,98.2138 154.375,167.5 154.375,167.5 C154.375,167.5 310.525,253.1688 430.3875,318.93 " fill="none" id="startState1-&gt;openInterventions" style="stroke: #008000; stroke-width: 1.25;"/><polygon fill="#008000" points="436.0675,322.045,428.6075,312.2516,430.5874,319.0398,423.7992,321.0197,436.0675,322.045" style="stroke: #008000; stroke-width: 1.25;"/><path d="M160.625,103.75 L160.625,156.25 L328.125,156.25 L328.125,116.25 L315.625,103.75 L160.625,103.75 " fill="#F5F5F5" filter="url(#f1bzujbh2dgm6e)" style="stroke: #008000; stroke-width: 1.25;"/><path d="M315.625,103.75 L315.625,116.25 L328.125,116.25 L315.625,103.75 " fill="#F5F5F5" style="stroke: #008000; stroke-width: 1.25;"/><text fill="#000000" font-family="sans-serif" font-size="16.25" font-weight="bold" lengthAdjust="spacingAndGlyphs" textLength="126.25" x="168.125" y="126.8689">User requests to</text><ellipse cx="175" cy="141.5039" fill="#000000" rx="3.125" ry="3.125" style="stroke: #000000; stroke-width: 0.0;"/><text fill="#000000" font-family="sans-serif" font-size="16.25" lengthAdjust="spacingAndGlyphs" textLength="125" x="184.375" y="147.3083">openInterventions</text><!--MD5=[6f817bb6f5f8a429ae84c360689de284]
link startState2 to openInterventions--><path d="M337.5025,60.3238 C348.3288,98.2138 368.125,167.5 368.125,167.5 C368.125,167.5 396.5125,199.93 431.7625,240.1988 " fill="none" id="startState2-&gt;openInterventions" style="stroke: #008000; stroke-width: 1.25;"/><polygon fill="#008000" points="436.0938,245.1475,432.4456,233.3894,431.977,240.4449,424.9214,239.9762,436.0938,245.1475" style="stroke: #008000; stroke-width: 1.25;"/><path d="M374.375,103.75 L374.375,156.25 L541.875,156.25 L541.875,116.25 L529.375,103.75 L374.375,103.75 " fill="#F5F5F5" filter="url(#f1bzujbh2dgm6e)" style="stroke: #008000; stroke-width: 1.25;"/><path d="M529.375,103.75 L529.375,116.25 L541.875,116.25 L529.375,103.75 " fill="#F5F5F5" style="stroke: #008000; stroke-width: 1.25;"/><text fill="#000000" font-family="sans-serif" font-size="16.25" font-weight="bold" lengthAdjust="spacingAndGlyphs" textLength="126.25" x="381.875" y="126.8689">User requests to</text><ellipse cx="388.75" cy="141.5039" fill="#000000" rx="3.125" ry="3.125" style="stroke: #000000; stroke-width: 0.0;"/><text fill="#000000" font-family="sans-serif" font-size="16.25" lengthAdjust="spacingAndGlyphs" textLength="125" x="398.125" y="147.3083">openInterventions</text><!--MD5=[8b6676e31ba4f4461ed5812b9ae79c47]
link startState3 to openInterventions--><path d="M562.1263,60.22 C562.4375,89.7888 562.9963,142.9675 563.5775,198.2675 " fill="none" id="startState3-&gt;openInterventions" style="stroke: #008000; stroke-width: 1.25;"/><polygon fill="#008000" points="563.645,204.6688,568.5258,193.3665,563.5789,198.4191,558.5264,193.4722,563.645,204.6688" style="stroke: #008000; stroke-width: 1.25;"/><path d="M570.625,103.75 L570.625,156.25 L738.125,156.25 L738.125,116.25 L725.625,103.75 L570.625,103.75 " fill="#F5F5F5" filter="url(#f1bzujbh2dgm6e)" style="stroke: #008000; stroke-width: 1.25;"/><path d="M725.625,103.75 L725.625,116.25 L738.125,116.25 L725.625,103.75 " fill="#F5F5F5" style="stroke: #008000; stroke-width: 1.25;"/><text fill="#000000" font-family="sans-serif" font-size="16.25" font-weight="bold" lengthAdjust="spacingAndGlyphs" textLength="126.25" x="578.125" y="126.8689">User requests to</text><ellipse cx="585" cy="141.5039" fill="#000000" rx="3.125" ry="3.125" style="stroke: #000000; stroke-width: 0.0;"/><text fill="#000000" font-family="sans-serif" font-size="16.25" lengthAdjust="spacingAndGlyphs" textLength="125" x="594.375" y="147.3083">openInterventions</text><!--MD5=[8c7d9bf353afd76d7e15571b109b4aaa]
link startState4 to openInterventions--><path d="M783.8725,60.3238 C775.2113,98.2138 759.375,167.5 759.375,167.5 C759.375,167.5 732.7538,198.5012 699.2475,237.52 " fill="none" id="startState4-&gt;openInterventions" style="stroke: #008000; stroke-width: 1.25;"/><polygon fill="#008000" points="695.1288,242.3163,706.2504,237.0368,699.1997,237.5739,698.6626,230.5233,695.1288,242.3163" style="stroke: #008000; stroke-width: 1.25;"/><!--MD5=[a7a30310388f548469268e613c42223a]
link startState5 to openInterventions--><path d="M999.3925,60.22 C939.2775,106.3562 804.275,209.9675 700.73,289.435 " fill="none" id="startState5-&gt;openInterventions" style="stroke: #008000; stroke-width: 1.25;"/><polygon fill="#008000" points="695.2025,293.6775,707.1714,290.7953,700.1608,289.8726,701.0836,282.862,695.2025,293.6775" style="stroke: #008000; stroke-width: 1.25;"/><!--MD5=[2e5b22bde69a909a217e141ea7b57b47]
link openInterventions to endState--><path d="M565.625,583.7863 C565.625,610.7946 565.625,635.5143 565.625,653.615 " fill="none" id="openInterventions-&gt;endState" style="stroke: #008000; stroke-width: 1.25;"/><polygon fill="#008000" points="565.625,659.9762,570.625,648.7262,565.625,653.7262,560.625,648.7262,565.625,659.9762" style="stroke: #008000; stroke-width: 1.25;"/><!--MD5=[a2f2c47586ee36a870a18d5277c35d96]
@startuml

skinparam {
    NoteBackgroundColor #whiteSmoke
    ArrowColor #green
    NoteBorderColor #green
    linetype polyline
}

hide empty description

state startState1 as "OPENED_VEHICLES"
state startState2 as "OPENED_CLIENTS"
state startState3 as "OPENED_DASHBOARD"
state startState4 as "OPENED_CLIENTS"
state startState5 as "OPENED_INTERVENTIONS"
state endState as "OPENED_INTERVENTIONS"

startState1 - -> openInterventions
    note on link
    <b>User requests to</b>
    * openInterventions
    end note
startState2 - -> openInterventions
    note on link
    <b>User requests to</b>
    * openInterventions
    end note
startState3 - -> openInterventions
    note on link
    <b>User requests to</b>
    * openInterventions
    end note

startState4 - -> openInterventions

startState5 - -> openInterventions

state openInterventions {
    [*] - -> [*]
    note on link
    <b>System shows
    * all interventions
    <b>System allows
    * open dashboard
    * open clients
    * open vehicles
    * open operations
    * logout
    * create intervention
    end note
}

openInterventions - -> endState

@enduml

PlantUML version 1.2020.09(Sun May 10 12:51:06 CEST 2020)
(GPL source distribution)
Java Runtime: OpenJDK Runtime Environment
JVM: OpenJDK 64-Bit Server VM
Java Version: 11.0.8+10-b944.31
Operating System: Windows 10
Default Encoding: Cp1252
Language: en
Country: GB
--></g></svg>