<?xml version="1.0" encoding="UTF-8" standalone="no"?><svg xmlns="http://www.w3.org/2000/svg" xmlns:xlink="http://www.w3.org/1999/xlink" contentScriptType="application/ecmascript" contentStyleType="text/css" height="767.5px" preserveAspectRatio="none" style="width:307px;height:767px;" version="1.1" viewBox="0 0 307 767" width="307.5px" zoomAndPan="magnify"><defs><filter height="300%" id="fd9csut1t6f5h" width="300%" x="-1" y="-1"><feGaussianBlur result="blurOut" stdDeviation="2.5"/><feColorMatrix in="blurOut" result="blurOut2" type="matrix" values="0 0 0 0 0 0 0 0 0 0 0 0 0 0 0 0 0 0 .4 0"/><feOffset dx="5.0" dy="5.0" in="blurOut2" result="blurOut3"/><feBlend in="SourceGraphic" in2="blurOut3" mode="normal"/></filter></defs><g><rect fill="#FEFECE" filter="url(#fd9csut1t6f5h)" height="62.5" rx="15.625" ry="15.625" style="stroke: #A80036; stroke-width: 1.875;" width="182.5" x="7.5" y="10"/><line style="stroke: #A80036; stroke-width: 1.875;" x1="7.5" x2="190" y1="44.5117" y2="44.5117"/><text fill="#000000" font-family="sans-serif" font-size="17.5" lengthAdjust="spacingAndGlyphs" textLength="157.5" x="20" y="34.4165">:OPENED_CLIENTS</text><rect fill="#FEFECE" filter="url(#fd9csut1t6f5h)" height="62.5" rx="15.625" ry="15.625" style="stroke: #A80036; stroke-width: 1.875;" width="171.25" x="13.125" y="691.25"/><line style="stroke: #A80036; stroke-width: 1.875;" x1="13.125" x2="184.375" y1="725.7617" y2="725.7617"/><text fill="#000000" font-family="sans-serif" font-size="17.5" lengthAdjust="spacingAndGlyphs" textLength="146.25" x="25.625" y="715.6665">:OPENED_CLIENT</text><rect fill="#FEFECE" filter="url(#fd9csut1t6f5h)" height="164.5117" rx="15.625" ry="15.625" style="stroke: #A80036; stroke-width: 1.875;" width="118.75" x="39.375" y="217.5"/><rect fill="#FFFFFF" height="122.5" rx="15.625" ry="15.625" style="stroke: #FFFFFF; stroke-width: 1.25;" width="111.25" x="43.125" y="255.7617"/><line style="stroke: #A80036; stroke-width: 1.875;" x1="39.375" x2="158.125" y1="252.0117" y2="252.0117"/><text fill="#000000" font-family="sans-serif" font-size="17.5" lengthAdjust="spacingAndGlyphs" textLength="93.75" x="51.875" y="241.9165">openClients</text><ellipse cx="65.625" cy="280.7617" fill="#000000" filter="url(#fd9csut1t6f5h)" rx="12.5" ry="12.5" style="stroke: none; stroke-width: 1.25;"/><ellipse cx="65.625" cy="350.7617" fill="none" filter="url(#fd9csut1t6f5h)" rx="12.5" ry="12.5" style="stroke: #000000; stroke-width: 1.25;"/><ellipse cx="66.25" cy="351.3867" fill="#000000" rx="7.5" ry="7.5" style="stroke: none; stroke-width: 1.25;"/><!--MD5=[01edfa4a30657a4511f79893be01b18d]
link *start*openClients to *end*openClients--><path d="M65.625,293.7693 C65.625,304.1258 65.625,319.3762 65.625,331.3086 " fill="none" id="*start*openClients-&gt;*end*openClients" style="stroke: #A80036; stroke-width: 1.25;"/><polygon fill="#A80036" points="65.625,337.8888,70.625,326.6388,65.625,331.6388,60.625,326.6388,65.625,337.8888" style="stroke: #A80036; stroke-width: 1.25;"/><!--MD5=[5b06fafc57c78f515b7445cf278e407f]
link startState to openClients--><path d="M98.75,72.9013 C98.75,106.7775 98.75,163.0938 98.75,211.0137 " fill="none" id="startState-&gt;openClients" style="stroke: #A80036; stroke-width: 1.25;"/><polygon fill="#A80036" points="98.75,217.415,103.75,206.165,98.75,211.165,93.75,206.165,98.75,217.415" style="stroke: #A80036; stroke-width: 1.25;"/><path d="M105,116.25 L105,168.75 L257.5,168.75 L257.5,128.75 L245,116.25 L105,116.25 " fill="#F5F5F5" filter="url(#fd9csut1t6f5h)" style="stroke: #A80036; stroke-width: 1.25;"/><path d="M245,116.25 L245,128.75 L257.5,128.75 L245,116.25 " fill="#F5F5F5" style="stroke: #A80036; stroke-width: 1.25;"/><text fill="#000000" font-family="sans-serif" font-size="16.25" font-weight="bold" lengthAdjust="spacingAndGlyphs" textLength="126.25" x="112.5" y="139.3689">User requests to</text><ellipse cx="119.375" cy="154.0039" fill="#000000" rx="3.125" ry="3.125" style="stroke: #000000; stroke-width: 0.0;"/><text fill="#000000" font-family="sans-serif" font-size="16.25" lengthAdjust="spacingAndGlyphs" textLength="85" x="128.75" y="159.8083">openClients</text><!--MD5=[316f6ecad7cf5331d8120ace767d38f5]
link openClients to endState--><path d="M98.75,382.7288 C98.75,473.8275 98.75,617.3575 98.75,684.4243 " fill="none" id="openClients-&gt;endState" style="stroke: #A80036; stroke-width: 1.25;"/><polygon fill="#A80036" points="98.75,691.0585,103.75,679.8085,98.75,684.8085,93.75,679.8085,98.75,691.0585" style="stroke: #A80036; stroke-width: 1.25;"/><path d="M105,426.25 L105,642.5 L292.5,642.5 L292.5,438.75 L280,426.25 L105,426.25 " fill="#F5F5F5" filter="url(#fd9csut1t6f5h)" style="stroke: #A80036; stroke-width: 1.25;"/><path d="M280,426.25 L280,438.75 L292.5,438.75 L280,426.25 " fill="#F5F5F5" style="stroke: #A80036; stroke-width: 1.25;"/><text fill="#000000" font-family="sans-serif" font-size="16.25" font-weight="bold" lengthAdjust="spacingAndGlyphs" textLength="111.25" x="112.5" y="449.3689">System shows</text><ellipse cx="119.375" cy="464.0039" fill="#000000" rx="3.125" ry="3.125" style="stroke: #000000; stroke-width: 0.0;"/><text fill="#000000" font-family="sans-serif" font-size="16.25" lengthAdjust="spacingAndGlyphs" textLength="145" x="128.75" y="469.8083">all clients in system</text><text fill="#000000" font-family="sans-serif" font-size="16.25" font-weight="bold" lengthAdjust="spacingAndGlyphs" textLength="113.75" x="112.5" y="490.2478">System allows</text><ellipse cx="119.375" cy="504.8828" fill="#000000" rx="3.125" ry="3.125" style="stroke: #000000; stroke-width: 0.0;"/><text fill="#000000" font-family="sans-serif" font-size="16.25" lengthAdjust="spacingAndGlyphs" textLength="97.5" x="128.75" y="510.6873">open vehicles</text><ellipse cx="119.375" cy="525.3223" fill="#000000" rx="3.125" ry="3.125" style="stroke: #000000; stroke-width: 0.0;"/><text fill="#000000" font-family="sans-serif" font-size="16.25" lengthAdjust="spacingAndGlyphs" textLength="130" x="128.75" y="531.1267">open interventions</text><ellipse cx="119.375" cy="545.7617" fill="#000000" rx="3.125" ry="3.125" style="stroke: #000000; stroke-width: 0.0;"/><text fill="#000000" font-family="sans-serif" font-size="16.25" lengthAdjust="spacingAndGlyphs" textLength="87.5" x="128.75" y="551.5662">open clients</text><ellipse cx="119.375" cy="566.2012" fill="#000000" rx="3.125" ry="3.125" style="stroke: #000000; stroke-width: 0.0;"/><text fill="#000000" font-family="sans-serif" font-size="16.25" lengthAdjust="spacingAndGlyphs" textLength="115" x="128.75" y="572.0056">open operations</text><ellipse cx="119.375" cy="586.6406" fill="#000000" rx="3.125" ry="3.125" style="stroke: #000000; stroke-width: 0.0;"/><text fill="#000000" font-family="sans-serif" font-size="16.25" lengthAdjust="spacingAndGlyphs" textLength="43.75" x="128.75" y="592.4451">logout</text><ellipse cx="119.375" cy="607.0801" fill="#000000" rx="3.125" ry="3.125" style="stroke: #000000; stroke-width: 0.0;"/><text fill="#000000" font-family="sans-serif" font-size="16.25" lengthAdjust="spacingAndGlyphs" textLength="131.25" x="128.75" y="612.8845">create intervention</text><ellipse cx="119.375" cy="627.5195" fill="#000000" rx="3.125" ry="3.125" style="stroke: #000000; stroke-width: 0.0;"/><text fill="#000000" font-family="sans-serif" font-size="16.25" lengthAdjust="spacingAndGlyphs" textLength="123.75" x="128.75" y="633.324">finish intervention</text><!--MD5=[38ea6d9b43a0ba670aac34ea32e8b6e9]
@startuml
skinparam {
        NoteBackgroundColor #whiteSmoke
}

state startState as ":OPENED_CLIENTS"
state endState as ":OPENED_CLIENT"

startState - -> openClients
note on link
<b>User requests to</b>
* openClients
end note

state openClients {
[*] - -> [*]
}

openClients - -> endState
note on link
<b>System shows
* all clients in system
<b>System allows
* open vehicles
* open interventions
* open clients
* open operations
* logout
* create intervention
* finish intervention
end note

@enduml

PlantUML version 1.2020.09(Sun May 10 12:51:06 CEST 2020)
(GPL source distribution)
Java Runtime: OpenJDK Runtime Environment
JVM: OpenJDK 64-Bit Server VM
Java Version: 11.0.6+8-b765.25
Operating System: Windows 10
Default Encoding: Cp1252
Language: en
Country: GB
--></g></svg>