<?xml version="1.0" encoding="UTF-8" standalone="no"?><svg xmlns="http://www.w3.org/2000/svg" xmlns:xlink="http://www.w3.org/1999/xlink" contentScriptType="application/ecmascript" contentStyleType="text/css" height="579px" preserveAspectRatio="none" style="width:927px;height:579px;" version="1.1" viewBox="0 0 927 579" width="927px" zoomAndPan="magnify"><defs><filter height="300%" id="f1bzujbh2dgm6e" width="300%" x="-1" y="-1"><feGaussianBlur result="blurOut" stdDeviation="2.0"/><feColorMatrix in="blurOut" result="blurOut2" type="matrix" values="0 0 0 0 0 0 0 0 0 0 0 0 0 0 0 0 0 0 .4 0"/><feOffset dx="4.0" dy="4.0" in="blurOut2" result="blurOut3"/><feBlend in="SourceGraphic" in2="blurOut3" mode="normal"/></filter></defs><g><rect fill="#FEFECE" filter="url(#f1bzujbh2dgm6e)" height="40" rx="12.5" ry="12.5" style="stroke: #A80036; stroke-width: 1.5;" width="141" x="6" y="8"/><text fill="#000000" font-family="sans-serif" font-size="14" lengthAdjust="spacingAndGlyphs" textLength="131" x="11" y="33.7285">OPENED_VEHICLES</text><rect fill="#FEFECE" filter="url(#f1bzujbh2dgm6e)" height="40" rx="12.5" ry="12.5" style="stroke: #A80036; stroke-width: 1.5;" width="132" x="198.5" y="8"/><text fill="#000000" font-family="sans-serif" font-size="14" lengthAdjust="spacingAndGlyphs" textLength="122" x="203.5" y="33.7285">OPENED_CLIENTS</text><rect fill="#FEFECE" filter="url(#f1bzujbh2dgm6e)" height="40" rx="12.5" ry="12.5" style="stroke: #A80036; stroke-width: 1.5;" width="161" x="369" y="8"/><text fill="#000000" font-family="sans-serif" font-size="14" lengthAdjust="spacingAndGlyphs" textLength="151" x="374" y="33.7285">OPENED_DASHBOARD</text><rect fill="#FEFECE" filter="url(#f1bzujbh2dgm6e)" height="40" rx="12.5" ry="12.5" style="stroke: #A80036; stroke-width: 1.5;" width="132" x="565.5" y="8"/><text fill="#000000" font-family="sans-serif" font-size="14" lengthAdjust="spacingAndGlyphs" textLength="122" x="570.5" y="33.7285">OPENED_CLIENTS</text><rect fill="#FEFECE" filter="url(#f1bzujbh2dgm6e)" height="40" rx="12.5" ry="12.5" style="stroke: #A80036; stroke-width: 1.5;" width="183" x="733" y="8"/><text fill="#000000" font-family="sans-serif" font-size="14" lengthAdjust="spacingAndGlyphs" textLength="173" x="738" y="33.7285">OPENED_INTERVENTIONS</text><rect fill="#FEFECE" filter="url(#f1bzujbh2dgm6e)" height="40" rx="12.5" ry="12.5" style="stroke: #A80036; stroke-width: 1.5;" width="183" x="361" y="528"/><text fill="#000000" font-family="sans-serif" font-size="14" lengthAdjust="spacingAndGlyphs" textLength="173" x="366" y="553.7285">OPENED_INTERVENTIONS</text><rect fill="#FEFECE" filter="url(#f1bzujbh2dgm6e)" height="302.6094" rx="12.5" ry="12.5" style="stroke: #A80036; stroke-width: 1.5;" width="207" x="349" y="164"/><rect fill="#FFFFFF" height="269" rx="12.5" ry="12.5" style="stroke: #FFFFFF; stroke-width: 1.0;" width="201" x="352" y="194.6094"/><line style="stroke: #A80036; stroke-width: 1.5;" x1="349" x2="556" y1="191.6094" y2="191.6094"/><text fill="#000000" font-family="sans-serif" font-size="14" lengthAdjust="spacingAndGlyphs" textLength="113" x="396" y="183.5332">openInterventions</text><ellipse cx="370" cy="214.6094" fill="#000000" filter="url(#f1bzujbh2dgm6e)" rx="10" ry="10" style="stroke: none; stroke-width: 1.0;"/><ellipse cx="370" cy="441.6094" fill="none" filter="url(#f1bzujbh2dgm6e)" rx="10" ry="10" style="stroke: #000000; stroke-width: 1.0;"/><ellipse cx="370.5" cy="442.1094" fill="#000000" rx="6" ry="6" style="stroke: none; stroke-width: 1.0;"/><!--MD5=[b4147c47bb54a8809d0bc03d229ca741]
link *start*openInterventions to *end*openInterventions--><path d="M370,224.7084 C370,259.3994 370,383.5476 370,426.1432 " fill="none" id="*start*openInterventions-&gt;*end*openInterventions" style="stroke: #008000; stroke-width: 1.0;"/><polygon fill="#008000" points="370,431.1477,374,422.1477,370,426.1477,366,422.1477,370,431.1477" style="stroke: #008000; stroke-width: 1.0;"/><path d="M375,247.6094 L375,404.6094 L514,404.6094 L514,257.6094 L504,247.6094 L375,247.6094 " fill="#F5F5F5" filter="url(#f1bzujbh2dgm6e)" style="stroke: #008000; stroke-width: 1.0;"/><path d="M504,247.6094 L504,257.6094 L514,257.6094 L504,247.6094 " fill="#F5F5F5" style="stroke: #008000; stroke-width: 1.0;"/><text fill="#000000" font-family="sans-serif" font-size="13" font-weight="bold" lengthAdjust="spacingAndGlyphs" textLength="89" x="381" y="266.1045">System shows</text><ellipse cx="386.5" cy="277.8125" fill="#000000" rx="2.5" ry="2.5" style="stroke: #000000; stroke-width: 0.0;"/><text fill="#000000" font-family="sans-serif" font-size="13" lengthAdjust="spacingAndGlyphs" textLength="89" x="394" y="282.4561">all interventions</text><text fill="#000000" font-family="sans-serif" font-size="13" font-weight="bold" lengthAdjust="spacingAndGlyphs" textLength="91" x="381" y="298.8076">System allows</text><ellipse cx="386.5" cy="310.5156" fill="#000000" rx="2.5" ry="2.5" style="stroke: #000000; stroke-width: 0.0;"/><text fill="#000000" font-family="sans-serif" font-size="13" lengthAdjust="spacingAndGlyphs" textLength="92" x="394" y="315.1592">open dashboard</text><ellipse cx="386.5" cy="326.8672" fill="#000000" rx="2.5" ry="2.5" style="stroke: #000000; stroke-width: 0.0;"/><text fill="#000000" font-family="sans-serif" font-size="13" lengthAdjust="spacingAndGlyphs" textLength="70" x="394" y="331.5107">open clients</text><ellipse cx="386.5" cy="343.2188" fill="#000000" rx="2.5" ry="2.5" style="stroke: #000000; stroke-width: 0.0;"/><text fill="#000000" font-family="sans-serif" font-size="13" lengthAdjust="spacingAndGlyphs" textLength="78" x="394" y="347.8623">open vehicles</text><ellipse cx="386.5" cy="359.5703" fill="#000000" rx="2.5" ry="2.5" style="stroke: #000000; stroke-width: 0.0;"/><text fill="#000000" font-family="sans-serif" font-size="13" lengthAdjust="spacingAndGlyphs" textLength="92" x="394" y="364.2139">open operations</text><ellipse cx="386.5" cy="375.9219" fill="#000000" rx="2.5" ry="2.5" style="stroke: #000000; stroke-width: 0.0;"/><text fill="#000000" font-family="sans-serif" font-size="13" lengthAdjust="spacingAndGlyphs" textLength="35" x="394" y="380.5654">logout</text><ellipse cx="386.5" cy="392.2734" fill="#000000" rx="2.5" ry="2.5" style="stroke: #000000; stroke-width: 0.0;"/><text fill="#000000" font-family="sans-serif" font-size="13" lengthAdjust="spacingAndGlyphs" textLength="105" x="394" y="396.917">create intervention</text><!--MD5=[f4322564c9aecf187446de50a71a15ed]
link startState1 to openInterventions--><path d="M85.1205,48.259 C98.689,78.571 123.5,134 123.5,134 C123.5,134 248.42,202.535 344.31,255.144 " fill="none" id="startState1-&gt;openInterventions" style="stroke: #008000; stroke-width: 1.0;"/><polygon fill="#008000" points="348.854,257.636,342.886,249.8013,344.4699,255.2318,339.0394,256.8158,348.854,257.636" style="stroke: #008000; stroke-width: 1.0;"/><path d="M128.5,83 L128.5,125 L262.5,125 L262.5,93 L252.5,83 L128.5,83 " fill="#F5F5F5" filter="url(#f1bzujbh2dgm6e)" style="stroke: #008000; stroke-width: 1.0;"/><path d="M252.5,83 L252.5,93 L262.5,93 L252.5,83 " fill="#F5F5F5" style="stroke: #008000; stroke-width: 1.0;"/><text fill="#000000" font-family="sans-serif" font-size="13" font-weight="bold" lengthAdjust="spacingAndGlyphs" textLength="101" x="134.5" y="101.4951">User requests to</text><ellipse cx="140" cy="113.2031" fill="#000000" rx="2.5" ry="2.5" style="stroke: #000000; stroke-width: 0.0;"/><text fill="#000000" font-family="sans-serif" font-size="13" lengthAdjust="spacingAndGlyphs" textLength="100" x="147.5" y="117.8467">openInterventions</text><!--MD5=[6f817bb6f5f8a429ae84c360689de284]
link startState2 to openInterventions--><path d="M270.002,48.259 C278.663,78.571 294.5,134 294.5,134 C294.5,134 317.21,159.944 345.41,192.159 " fill="none" id="startState2-&gt;openInterventions" style="stroke: #008000; stroke-width: 1.0;"/><polygon fill="#008000" points="348.875,196.118,345.9565,186.7115,345.5816,192.3559,339.9372,191.981,348.875,196.118" style="stroke: #008000; stroke-width: 1.0;"/><path d="M299.5,83 L299.5,125 L433.5,125 L433.5,93 L423.5,83 L299.5,83 " fill="#F5F5F5" filter="url(#f1bzujbh2dgm6e)" style="stroke: #008000; stroke-width: 1.0;"/><path d="M423.5,83 L423.5,93 L433.5,93 L423.5,83 " fill="#F5F5F5" style="stroke: #008000; stroke-width: 1.0;"/><text fill="#000000" font-family="sans-serif" font-size="13" font-weight="bold" lengthAdjust="spacingAndGlyphs" textLength="101" x="305.5" y="101.4951">User requests to</text><ellipse cx="311" cy="113.2031" fill="#000000" rx="2.5" ry="2.5" style="stroke: #000000; stroke-width: 0.0;"/><text fill="#000000" font-family="sans-serif" font-size="13" lengthAdjust="spacingAndGlyphs" textLength="100" x="318.5" y="117.8467">openInterventions</text><!--MD5=[8b6676e31ba4f4461ed5812b9ae79c47]
link startState3 to openInterventions--><path d="M449.701,48.176 C449.95,71.831 450.397,114.374 450.862,158.614 " fill="none" id="startState3-&gt;openInterventions" style="stroke: #008000; stroke-width: 1.0;"/><polygon fill="#008000" points="450.916,163.735,454.8206,154.6932,450.8631,158.7353,446.8211,154.7778,450.916,163.735" style="stroke: #008000; stroke-width: 1.0;"/><path d="M456.5,83 L456.5,125 L590.5,125 L590.5,93 L580.5,83 L456.5,83 " fill="#F5F5F5" filter="url(#f1bzujbh2dgm6e)" style="stroke: #008000; stroke-width: 1.0;"/><path d="M580.5,83 L580.5,93 L590.5,93 L580.5,83 " fill="#F5F5F5" style="stroke: #008000; stroke-width: 1.0;"/><text fill="#000000" font-family="sans-serif" font-size="13" font-weight="bold" lengthAdjust="spacingAndGlyphs" textLength="101" x="462.5" y="101.4951">User requests to</text><ellipse cx="468" cy="113.2031" fill="#000000" rx="2.5" ry="2.5" style="stroke: #000000; stroke-width: 0.0;"/><text fill="#000000" font-family="sans-serif" font-size="13" lengthAdjust="spacingAndGlyphs" textLength="100" x="475.5" y="117.8467">openInterventions</text><!--MD5=[8c7d9bf353afd76d7e15571b109b4aaa]
link startState4 to openInterventions--><path d="M627.098,48.259 C620.169,78.571 607.5,134 607.5,134 C607.5,134 586.203,158.801 559.398,190.016 " fill="none" id="startState4-&gt;openInterventions" style="stroke: #008000; stroke-width: 1.0;"/><polygon fill="#008000" points="556.103,193.853,565.0003,189.6295,559.3598,190.0591,558.9301,184.4186,556.103,193.853" style="stroke: #008000; stroke-width: 1.0;"/><!--MD5=[a7a30310388f548469268e613c42223a]
link startState5 to openInterventions--><path d="M799.514,48.176 C751.422,85.085 643.42,167.974 560.584,231.548 " fill="none" id="startState5-&gt;openInterventions" style="stroke: #008000; stroke-width: 1.0;"/><polygon fill="#008000" points="556.162,234.942,565.7372,232.6363,560.1287,231.8981,560.8669,226.2896,556.162,234.942" style="stroke: #008000; stroke-width: 1.0;"/><!--MD5=[2e5b22bde69a909a217e141ea7b57b47]
link openInterventions to endState--><path d="M452.5,467.029 C452.5,488.6357 452.5,508.4114 452.5,522.892 " fill="none" id="openInterventions-&gt;endState" style="stroke: #008000; stroke-width: 1.0;"/><polygon fill="#008000" points="452.5,527.981,456.5,518.981,452.5,522.981,448.5,518.981,452.5,527.981" style="stroke: #008000; stroke-width: 1.0;"/><!--MD5=[1e00a66d7fe988fd2f28ce5b6205117b]
@startuml

skinparam {
    NoteBackgroundColor #whiteSmoke
    ArrowColor #green
    NoteBorderColor #green
    linetype polyline
}

hide empty description

state startState1 as "OPENED_VEHICLES"
state startState2 as "OPENED_CLIENTS"
state startState3 as "OPENED_DASHBOARD"
state startState4 as "OPENED_CLIENTS"
state startState5 as "OPENED_INTERVENTIONS"
state endState as "OPENED_INTERVENTIONS"

startState1 - -> openInterventions
    note on link
    <b>User requests to</b>
    * openInterventions
    end note
startState2 - -> openInterventions
    note on link
    <b>User requests to</b>
    * openInterventions
    end note
startState3 - -> openInterventions
    note on link
    <b>User requests to</b>
    * openInterventions
    end note

startState4 - -> openInterventions

startState5 - -> openInterventions

state openInterventions {
    [*] - -> [*]
    note on link
    <b>System shows
    * all interventions
    <b>System allows
    * open dashboard
    * open clients
    * open vehicles
    * open operations
    * logout
    * create intervention
    end note
}

openInterventions - -> endState

@enduml

PlantUML version 1.2020.09(Sun May 10 12:51:06 CEST 2020)
(GPL source distribution)
Java Runtime: OpenJDK Runtime Environment
JVM: OpenJDK 64-Bit Server VM
Java Version: 11.0.8+10-b1094.1
Operating System: Windows 10
Default Encoding: Cp1252
Language: en
Country: GB
--></g></svg>