<?xml version="1.0" encoding="UTF-8" standalone="no"?><svg xmlns="http://www.w3.org/2000/svg" xmlns:xlink="http://www.w3.org/1999/xlink" contentScriptType="application/ecmascript" contentStyleType="text/css" height="594px" preserveAspectRatio="none" style="width:962px;height:594px;" version="1.1" viewBox="0 0 962 594" width="962px" zoomAndPan="magnify"><defs><filter height="300%" id="f1qyvu7azj53ty" width="300%" x="-1" y="-1"><feGaussianBlur result="blurOut" stdDeviation="2.0"/><feColorMatrix in="blurOut" result="blurOut2" type="matrix" values="0 0 0 0 0 0 0 0 0 0 0 0 0 0 0 0 0 0 .4 0"/><feOffset dx="4.0" dy="4.0" in="blurOut2" result="blurOut3"/><feBlend in="SourceGraphic" in2="blurOut3" mode="normal"/></filter></defs><g><rect fill="#FEFECE" filter="url(#f1qyvu7azj53ty)" height="40" rx="12.5" ry="12.5" style="stroke: #A80036; stroke-width: 1.5;" width="164" x="6" y="8"/><text fill="#000000" font-family="sans-serif" font-size="14" lengthAdjust="spacingAndGlyphs" textLength="154" x="11" y="33.7285">OPENED_OPERATIONS</text><rect fill="#FEFECE" filter="url(#f1qyvu7azj53ty)" height="40" rx="12.5" ry="12.5" style="stroke: #A80036; stroke-width: 1.5;" width="161" x="389.5" y="543"/><text fill="#000000" font-family="sans-serif" font-size="14" lengthAdjust="spacingAndGlyphs" textLength="151" x="394.5" y="568.7285">OPENED_DASHBOARD</text><rect fill="#FEFECE" filter="url(#f1qyvu7azj53ty)" height="40" rx="12.5" ry="12.5" style="stroke: #A80036; stroke-width: 1.5;" width="164" x="205" y="8"/><text fill="#000000" font-family="sans-serif" font-size="14" lengthAdjust="spacingAndGlyphs" textLength="154" x="210" y="33.7285">OPENED_OPERATIONS</text><rect fill="#FEFECE" filter="url(#f1qyvu7azj53ty)" height="40" rx="12.5" ry="12.5" style="stroke: #A80036; stroke-width: 1.5;" width="132" x="404" y="8"/><text fill="#000000" font-family="sans-serif" font-size="14" lengthAdjust="spacingAndGlyphs" textLength="122" x="409" y="33.7285">OPENED_CLIENTS</text><rect fill="#FEFECE" filter="url(#f1qyvu7azj53ty)" height="40" rx="12.5" ry="12.5" style="stroke: #A80036; stroke-width: 1.5;" width="183" x="571.5" y="8"/><text fill="#000000" font-family="sans-serif" font-size="14" lengthAdjust="spacingAndGlyphs" textLength="173" x="576.5" y="33.7285">OPENED_INTERVENTIONS</text><rect fill="#FEFECE" filter="url(#f1qyvu7azj53ty)" height="40" rx="12.5" ry="12.5" style="stroke: #A80036; stroke-width: 1.5;" width="132" x="790" y="8"/><text fill="#000000" font-family="sans-serif" font-size="14" lengthAdjust="spacingAndGlyphs" textLength="122" x="795" y="33.7285">OPENED_VEHICLE</text><rect fill="#FEFECE" filter="url(#f1qyvu7azj53ty)" height="131.6094" rx="12.5" ry="12.5" style="stroke: #A80036; stroke-width: 1.5;" width="105" x="417.5" y="164"/><rect fill="#FFFFFF" height="98" rx="12.5" ry="12.5" style="stroke: #FFFFFF; stroke-width: 1.0;" width="99" x="420.5" y="194.6094"/><line style="stroke: #A80036; stroke-width: 1.5;" x1="417.5" x2="522.5" y1="191.6094" y2="191.6094"/><text fill="#000000" font-family="sans-serif" font-size="14" lengthAdjust="spacingAndGlyphs" textLength="85" x="427.5" y="183.5332">openVehicles</text><ellipse cx="438.5" cy="214.6094" fill="#000000" filter="url(#f1qyvu7azj53ty)" rx="10" ry="10" style="stroke: none; stroke-width: 1.0;"/><ellipse cx="438.5" cy="270.6094" fill="none" filter="url(#f1qyvu7azj53ty)" rx="10" ry="10" style="stroke: #000000; stroke-width: 1.0;"/><ellipse cx="439" cy="271.1094" fill="#000000" rx="6" ry="6" style="stroke: none; stroke-width: 1.0;"/><!--MD5=[9c73b8505b886ec60e3e4e021e6ded2e]
link *start*openVehicles to *end*openVehicles--><path d="M438.5,225.0155 C438.5,233.3007 438.5,245.501 438.5,255.0469 " fill="none" id="*start*openVehicles-&gt;*end*openVehicles" style="stroke: #008000; stroke-width: 1.0;"/><polygon fill="#008000" points="438.5,260.3111,442.5,251.3111,438.5,255.3111,434.5,251.3111,438.5,260.3111" style="stroke: #008000; stroke-width: 1.0;"/><!--MD5=[cad8610aa8b27b03c2ff5534a7ec1797]
link startState1 to openVehicles--><path d="M294.153,48.259 C305.412,78.571 326,134 326,134 C326,134 372.639,164.769 412.832,191.285 " fill="none" id="startState1-&gt;openVehicles" style="stroke: #008000; stroke-width: 1.0;"/><polygon fill="#008000" points="417.197,194.165,411.8892,185.8688,413.024,191.4106,407.4822,192.5455,417.197,194.165" style="stroke: #008000; stroke-width: 1.0;"/><path d="M331,83 L331,125 L453,125 L453,93 L443,83 L331,83 " fill="#F5F5F5" filter="url(#f1qyvu7azj53ty)" style="stroke: #008000; stroke-width: 1.0;"/><path d="M443,83 L443,93 L453,93 L443,83 " fill="#F5F5F5" style="stroke: #008000; stroke-width: 1.0;"/><text fill="#000000" font-family="sans-serif" font-size="13" font-weight="bold" lengthAdjust="spacingAndGlyphs" textLength="101" x="337" y="101.4951">User requests to</text><ellipse cx="342.5" cy="113.2031" fill="#000000" rx="2.5" ry="2.5" style="stroke: #000000; stroke-width: 0.0;"/><text fill="#000000" font-family="sans-serif" font-size="13" lengthAdjust="spacingAndGlyphs" textLength="78" x="350" y="117.8467">openVehicles</text><!--MD5=[af1783b8a15c54c46dbdf774e53128ee]
link startState2 to openVehicles--><path d="M470,48.177 C470,73.441 470,119.261 470,158.453 " fill="none" id="startState2-&gt;openVehicles" style="stroke: #008000; stroke-width: 1.0;"/><polygon fill="#008000" points="470,163.69,474,154.69,470,158.69,466,154.69,470,163.69" style="stroke: #008000; stroke-width: 1.0;"/><path d="M475,83 L475,125 L597,125 L597,93 L587,83 L475,83 " fill="#F5F5F5" filter="url(#f1qyvu7azj53ty)" style="stroke: #008000; stroke-width: 1.0;"/><path d="M587,83 L587,93 L597,93 L587,83 " fill="#F5F5F5" style="stroke: #008000; stroke-width: 1.0;"/><text fill="#000000" font-family="sans-serif" font-size="13" font-weight="bold" lengthAdjust="spacingAndGlyphs" textLength="101" x="481" y="101.4951">User requests to</text><ellipse cx="486.5" cy="113.2031" fill="#000000" rx="2.5" ry="2.5" style="stroke: #000000; stroke-width: 0.0;"/><text fill="#000000" font-family="sans-serif" font-size="13" lengthAdjust="spacingAndGlyphs" textLength="78" x="494" y="117.8467">openVehicles</text><!--MD5=[508de538c5c084f75ef9e48c3c7e5618]
link startState3 to openVehicles--><path d="M654.013,48.259 C639.867,78.571 614,134 614,134 C614,134 567.361,164.769 527.168,191.285 " fill="none" id="startState3-&gt;openVehicles" style="stroke: #008000; stroke-width: 1.0;"/><polygon fill="#008000" points="522.803,194.165,532.5178,192.5455,526.976,191.4106,528.1108,185.8688,522.803,194.165" style="stroke: #008000; stroke-width: 1.0;"/><path d="M645,83 L645,125 L767,125 L767,93 L757,83 L645,83 " fill="#F5F5F5" filter="url(#f1qyvu7azj53ty)" style="stroke: #008000; stroke-width: 1.0;"/><path d="M757,83 L757,93 L767,93 L757,83 " fill="#F5F5F5" style="stroke: #008000; stroke-width: 1.0;"/><text fill="#000000" font-family="sans-serif" font-size="13" font-weight="bold" lengthAdjust="spacingAndGlyphs" textLength="101" x="651" y="101.4951">User requests to</text><ellipse cx="656.5" cy="113.2031" fill="#000000" rx="2.5" ry="2.5" style="stroke: #000000; stroke-width: 0.0;"/><text fill="#000000" font-family="sans-serif" font-size="13" lengthAdjust="spacingAndGlyphs" textLength="78" x="664" y="117.8467">openVehicles</text><!--MD5=[3dbf777a85e466917969ef16dc88a7fd]
link startState5 to openVehicles--><path d="M842.794,48.259 C822.008,78.571 784,134 784,134 C784,134 617.94,184.241 527.346,211.65 " fill="none" id="startState5-&gt;openVehicles" style="stroke: #008000; stroke-width: 1.0;"/><polygon fill="#008000" points="522.557,213.099,532.3295,214.3228,527.343,211.6518,530.014,206.6652,522.557,213.099" style="stroke: #008000; stroke-width: 1.0;"/><path d="M828,83 L828,125 L950,125 L950,93 L940,83 L828,83 " fill="#F5F5F5" filter="url(#f1qyvu7azj53ty)" style="stroke: #008000; stroke-width: 1.0;"/><path d="M940,83 L940,93 L950,93 L940,83 " fill="#F5F5F5" style="stroke: #008000; stroke-width: 1.0;"/><text fill="#000000" font-family="sans-serif" font-size="13" font-weight="bold" lengthAdjust="spacingAndGlyphs" textLength="101" x="834" y="101.4951">User requests to</text><ellipse cx="839.5" cy="113.2031" fill="#000000" rx="2.5" ry="2.5" style="stroke: #000000; stroke-width: 0.0;"/><text fill="#000000" font-family="sans-serif" font-size="13" lengthAdjust="spacingAndGlyphs" textLength="78" x="847" y="117.8467">openVehicles</text><!--MD5=[fdefe930c71f9c2ecf1f2665f03bf804]
link startState to openVehicles--><path d="M124.628,48.177 C191.366,83.118 333.207,157.381 412.791,199.048 " fill="none" id="startState-&gt;openVehicles" style="stroke: #008000; stroke-width: 1.0;"/><polygon fill="#008000" points="417.472,201.498,411.3559,193.7783,413.043,199.1778,407.6435,200.8648,417.472,201.498" style="stroke: #008000; stroke-width: 1.0;"/><!--MD5=[950ef6eb268c9e44be7d558b3808cdf5]
link openVehicles to endState--><path d="M470,296 C470,369.933 470,486.9314 470,537.4437 " fill="none" id="openVehicles-&gt;endState" style="stroke: #008000; stroke-width: 1.0;"/><polygon fill="#008000" points="470,542.6951,474,533.6951,470,537.6951,466,533.6951,470,542.6951" style="stroke: #008000; stroke-width: 1.0;"/><path d="M475,331 L475,504 L635,504 L635,341 L625,331 L475,331 " fill="#F5F5F5" filter="url(#f1qyvu7azj53ty)" style="stroke: #008000; stroke-width: 1.0;"/><path d="M625,331 L625,341 L635,341 L625,331 " fill="#F5F5F5" style="stroke: #008000; stroke-width: 1.0;"/><text fill="#000000" font-family="sans-serif" font-size="13" font-weight="bold" lengthAdjust="spacingAndGlyphs" textLength="91" x="481" y="349.4951">System allows</text><ellipse cx="486.5" cy="361.2031" fill="#000000" rx="2.5" ry="2.5" style="stroke: #000000; stroke-width: 0.0;"/><text fill="#000000" font-family="sans-serif" font-size="13" lengthAdjust="spacingAndGlyphs" textLength="96" x="494" y="365.8467">create Mechanic</text><ellipse cx="486.5" cy="377.5547" fill="#000000" rx="2.5" ry="2.5" style="stroke: #000000; stroke-width: 0.0;"/><text fill="#000000" font-family="sans-serif" font-size="13" lengthAdjust="spacingAndGlyphs" textLength="95" x="494" y="382.1982">delete Mechanic</text><ellipse cx="486.5" cy="393.9063" fill="#000000" rx="2.5" ry="2.5" style="stroke: #000000; stroke-width: 0.0;"/><text fill="#000000" font-family="sans-serif" font-size="13" lengthAdjust="spacingAndGlyphs" textLength="90" x="494" y="398.5498">import Vehicles</text><ellipse cx="486.5" cy="410.2578" fill="#000000" rx="2.5" ry="2.5" style="stroke: #000000; stroke-width: 0.0;"/><text fill="#000000" font-family="sans-serif" font-size="13" lengthAdjust="spacingAndGlyphs" textLength="78" x="494" y="414.9014">open vehicles</text><ellipse cx="486.5" cy="426.6094" fill="#000000" rx="2.5" ry="2.5" style="stroke: #000000; stroke-width: 0.0;"/><text fill="#000000" font-family="sans-serif" font-size="13" lengthAdjust="spacingAndGlyphs" textLength="70" x="494" y="431.2529">open clients</text><ellipse cx="486.5" cy="442.9609" fill="#000000" rx="2.5" ry="2.5" style="stroke: #000000; stroke-width: 0.0;"/><text fill="#000000" font-family="sans-serif" font-size="13" lengthAdjust="spacingAndGlyphs" textLength="104" x="494" y="447.6045">open interventions</text><ellipse cx="486.5" cy="459.3125" fill="#000000" rx="2.5" ry="2.5" style="stroke: #000000; stroke-width: 0.0;"/><text fill="#000000" font-family="sans-serif" font-size="13" lengthAdjust="spacingAndGlyphs" textLength="126" x="494" y="463.9561">open my interventions</text><ellipse cx="486.5" cy="475.6641" fill="#000000" rx="2.5" ry="2.5" style="stroke: #000000; stroke-width: 0.0;"/><text fill="#000000" font-family="sans-serif" font-size="13" lengthAdjust="spacingAndGlyphs" textLength="105" x="494" y="480.3076">create intervention</text><ellipse cx="486.5" cy="492.0156" fill="#000000" rx="2.5" ry="2.5" style="stroke: #000000; stroke-width: 0.0;"/><text fill="#000000" font-family="sans-serif" font-size="13" lengthAdjust="spacingAndGlyphs" textLength="35" x="494" y="496.6592">logout</text><!--MD5=[033a231f0400f533f09043065f7f1608]
@startuml
skinparam {
    NoteBackgroundColor #whiteSmoke
    ArrowColor #green
    NoteBorderColor #green
    linetype polyline
}

hide empty description

state startState as "OPENED_OPERATIONS"
state endState as "OPENED_VEHICLE"

state startState1 as "OPENED_OPERATIONS"
state startState2 as "OPENED_CLIENTS"
state startState3 as "OPENED_INTERVENTIONS"
state startState5 as "OPENED_VEHICLE"
state endState as "OPENED_DASHBOARD"

startState1 - -> openVehicles
note on link
<b>User requests to</b>
* openVehicles
end note
startState2 - -> openVehicles
note on link
<b>User requests to</b>
* openVehicles
end note
startState3 - -> openVehicles
note on link
<b>User requests to</b>
* openVehicles
end note
startState5 - -> openVehicles
note on link
<b>User requests to</b>
* openVehicles
end note
startState - -> openVehicles

state openVehicles {

[*] - -> [*]


}

openVehicles - -> endState
note on link
<b>System allows
* create Mechanic
* delete Mechanic
* import Vehicles
* open vehicles
* open clients
* open interventions
* open my interventions
* create intervention
* logout
end note

@enduml

PlantUML version 1.2020.09(Sun May 10 12:51:06 CEST 2020)
(GPL source distribution)
Java Runtime: OpenJDK Runtime Environment
JVM: OpenJDK 64-Bit Server VM
Java Version: 11.0.8+10-b1094.1
Operating System: Windows 10
Default Encoding: Cp1252
Language: en
Country: GB
--></g></svg>