<?xml version="1.0" encoding="UTF-8" standalone="no"?><svg xmlns="http://www.w3.org/2000/svg" xmlns:xlink="http://www.w3.org/1999/xlink" contentScriptType="application/ecmascript" contentStyleType="text/css" height="1261.25px" preserveAspectRatio="none" style="width:811px;height:1261px;" version="1.1" viewBox="0 0 811 1261" width="811.25px" zoomAndPan="magnify"><defs><filter height="300%" id="f1rp18wum3uqa3" width="300%" x="-1" y="-1"><feGaussianBlur result="blurOut" stdDeviation="2.5"/><feColorMatrix in="blurOut" result="blurOut2" type="matrix" values="0 0 0 0 0 0 0 0 0 0 0 0 0 0 0 0 0 0 .4 0"/><feOffset dx="5.0" dy="5.0" in="blurOut2" result="blurOut3"/><feBlend in="SourceGraphic" in2="blurOut3" mode="normal"/></filter></defs><g><rect fill="#FEFECE" filter="url(#f1rp18wum3uqa3)" height="50" rx="15.625" ry="15.625" style="stroke: #A80036; stroke-width: 1.875;" width="201.25" x="301.25" y="1197.5"/><text fill="#000000" font-family="sans-serif" font-size="17.5" lengthAdjust="spacingAndGlyphs" textLength="188.75" x="307.5" y="1229.6606">OPENED_DASHBOARD</text><rect fill="#FEFECE" filter="url(#f1rp18wum3uqa3)" height="50" rx="15.625" ry="15.625" style="stroke: #A80036; stroke-width: 1.875;" width="67.5" x="368.125" y="10"/><text fill="#000000" font-family="sans-serif" font-size="17.5" lengthAdjust="spacingAndGlyphs" textLength="55" x="374.375" y="42.1606">INITIAL</text><rect fill="#FEFECE" filter="url(#f1rp18wum3uqa3)" height="50" rx="15.625" ry="15.625" style="stroke: #A80036; stroke-width: 1.875;" width="140" x="331.875" y="1071.25"/><text fill="#000000" font-family="sans-serif" font-size="17.5" lengthAdjust="spacingAndGlyphs" textLength="127.5" x="338.125" y="1103.4106">openDashboard</text><rect fill="#FEFECE" filter="url(#f1rp18wum3uqa3)" height="789.5117" rx="15.625" ry="15.625" style="stroke: #A80036; stroke-width: 1.875;" width="788.75" x="7.5" y="205"/><rect fill="#FFFFFF" height="747.5" rx="15.625" ry="15.625" style="stroke: #FFFFFF; stroke-width: 1.25;" width="781.25" x="11.25" y="243.2617"/><line style="stroke: #A80036; stroke-width: 1.875;" x1="7.5" x2="796.25" y1="239.5117" y2="239.5117"/><text fill="#000000" font-family="sans-serif" font-size="17.5" lengthAdjust="spacingAndGlyphs" textLength="46.25" x="378.75" y="229.4165">signin</text><rect fill="#FEFECE" filter="url(#f1rp18wum3uqa3)" height="50" rx="15.625" ry="15.625" style="stroke: #A80036; stroke-width: 1.875;" width="62.5" x="280" y="327.0117"/><text fill="#000000" font-family="sans-serif" font-size="17.5" lengthAdjust="spacingAndGlyphs" textLength="0" x="313.75" y="359.1724"/><rect fill="#FEFECE" filter="url(#f1rp18wum3uqa3)" height="50" rx="15.625" ry="15.625" style="stroke: #A80036; stroke-width: 1.875;" width="62.5" x="181.25" y="574.5117"/><text fill="#000000" font-family="sans-serif" font-size="17.5" lengthAdjust="spacingAndGlyphs" textLength="0" x="215" y="606.6724"/><rect fill="#FEFECE" filter="url(#f1rp18wum3uqa3)" height="50" rx="15.625" ry="15.625" style="stroke: #A80036; stroke-width: 1.875;" width="62.5" x="227.5" y="925.7617"/><text fill="#000000" font-family="sans-serif" font-size="17.5" lengthAdjust="spacingAndGlyphs" textLength="0" x="261.25" y="957.9224"/><polygon fill="#FEFECE" filter="url(#f1rp18wum3uqa3)" points="217.5,780.7617,232.5,795.7617,217.5,810.7617,202.5,795.7617,217.5,780.7617" style="stroke: #A80036; stroke-width: 1.875;"/><ellipse cx="311.25" cy="268.2617" fill="#000000" filter="url(#f1rp18wum3uqa3)" rx="12.5" ry="12.5" style="stroke: none; stroke-width: 1.25;"/><ellipse cx="122.5" cy="950.7617" fill="none" filter="url(#f1rp18wum3uqa3)" rx="12.5" ry="12.5" style="stroke: #000000; stroke-width: 1.25;"/><ellipse cx="123.125" cy="951.3867" fill="#000000" rx="7.5" ry="7.5" style="stroke: none; stroke-width: 1.25;"/><!--MD5=[98e3777f2355e1b7fb7744a53817b257]
link *start*signin to 2--><path d="M311.25,280.8092 C311.25,291.0017 311.25,306.468 311.25,320.268 " fill="none" id="*start*signin-&gt;2" style="stroke: #008000; stroke-width: 1.25;"/><polygon fill="#008000" points="311.25,326.878,316.25,315.628,311.25,320.628,306.25,315.628,311.25,326.878" style="stroke: #008000; stroke-width: 1.25;"/><!--MD5=[eeb69082328d10abd3b14fdeede0d8a3]
link 2 to 3--><path d="M279.8638,368.1505 C251.3612,381.6705 213.75,399.5117 213.75,399.5117 C213.75,399.5117 213.0425,512.088 212.6913,567.788 " fill="none" id="2-&gt;3" style="stroke: #008000; stroke-width: 1.25;"/><polygon fill="#008000" points="212.6513,574.288,217.7219,563.0696,212.6905,568.0381,207.7221,563.0068,212.6513,574.288" style="stroke: #008000; stroke-width: 1.25;"/><path d="M220,405.7617 L220,540.7617 L381.25,540.7617 L381.25,418.2617 L368.75,405.7617 L220,405.7617 " fill="#F5F5F5" filter="url(#f1rp18wum3uqa3)" style="stroke: #008000; stroke-width: 1.25;"/><path d="M368.75,405.7617 L368.75,418.2617 L381.25,418.2617 L368.75,405.7617 " fill="#F5F5F5" style="stroke: #008000; stroke-width: 1.25;"/><text fill="#000000" font-family="sans-serif" font-size="16.25" font-weight="bold" lengthAdjust="spacingAndGlyphs" textLength="127.5" x="227.5" y="428.8806">System requires</text><ellipse cx="234.375" cy="443.5156" fill="#000000" rx="3.125" ry="3.125" style="stroke: #000000; stroke-width: 0.0;"/><text fill="#000000" font-family="sans-serif" font-size="16.25" lengthAdjust="spacingAndGlyphs" textLength="71.25" x="243.75" y="449.3201">username</text><ellipse cx="234.375" cy="463.9551" fill="#000000" rx="3.125" ry="3.125" style="stroke: #000000; stroke-width: 0.0;"/><text fill="#000000" font-family="sans-serif" font-size="16.25" lengthAdjust="spacingAndGlyphs" textLength="68.75" x="243.75" y="469.7595">password</text><ellipse cx="234.375" cy="484.3945" fill="#000000" rx="3.125" ry="3.125" style="stroke: #000000; stroke-width: 0.0;"/><text fill="#000000" font-family="sans-serif" font-size="16.25" lengthAdjust="spacingAndGlyphs" textLength="118.75" x="243.75" y="490.199">repeat password</text><text fill="#000000" font-family="sans-serif" font-size="16.25" font-weight="bold" lengthAdjust="spacingAndGlyphs" textLength="113.75" x="227.5" y="510.6384">System allows</text><ellipse cx="234.375" cy="525.2734" fill="#000000" rx="3.125" ry="3.125" style="stroke: #000000; stroke-width: 0.0;"/><text fill="#000000" font-family="sans-serif" font-size="16.25" lengthAdjust="spacingAndGlyphs" textLength="47.5" x="243.75" y="531.0779">cancel</text><!--MD5=[4372aae091d9b2337155a1f520140840]
link 3 to *end*signin--><path d="M183.8675,624.7155 C130.5156,669.3505 21.25,760.7617 21.25,760.7617 C21.25,760.7617 21.25,830.7617 21.25,830.7617 C21.25,830.7617 83.8861,904.2238 110.6281,935.5878 " fill="none" id="3-&gt;*end*signin" style="stroke: #FF0000; stroke-width: 1.25;"/><polygon fill="#FF0000" points="114.8897,940.5862,111.3954,928.7815,110.8347,935.8303,103.7859,935.2695,114.8897,940.5862" style="stroke: #FF0000; stroke-width: 1.25;"/><path d="M27.5,767.0117 L27.5,819.5117 L180,819.5117 L180,779.5117 L167.5,767.0117 L27.5,767.0117 " fill="#F5F5F5" filter="url(#f1rp18wum3uqa3)" style="stroke: #FF0000; stroke-width: 1.25;"/><path d="M167.5,767.0117 L167.5,779.5117 L180,779.5117 L167.5,767.0117 " fill="#F5F5F5" style="stroke: #FF0000; stroke-width: 1.25;"/><text fill="#000000" font-family="sans-serif" font-size="16.25" font-weight="bold" lengthAdjust="spacingAndGlyphs" textLength="126.25" x="35" y="790.1306">User requests to</text><ellipse cx="41.875" cy="804.7656" fill="#000000" rx="3.125" ry="3.125" style="stroke: #000000; stroke-width: 0.0;"/><text fill="#000000" font-family="sans-serif" font-size="16.25" lengthAdjust="spacingAndGlyphs" textLength="47.5" x="51.25" y="810.5701">cancel</text><!--MD5=[b1f22f0c97e7f2b556a5a2d67c42ac53]
link 3 to 4--><path d="M213.1125,624.5192 C214.1063,662.9805 216.0475,738.2042 216.9775,774.2755 " fill="none" id="3-&gt;4" style="stroke: #008000; stroke-width: 1.25;"/><polygon fill="#008000" points="217.15,780.9455,221.8558,769.5693,216.9875,774.6976,211.8592,769.8293,217.15,780.9455" style="stroke: #008000; stroke-width: 1.25;"/><path d="M222.5,653.2617 L222.5,727.0117 L356.25,727.0117 L356.25,665.7617 L343.75,653.2617 L222.5,653.2617 " fill="#F5F5F5" filter="url(#f1rp18wum3uqa3)" style="stroke: #008000; stroke-width: 1.25;"/><path d="M343.75,653.2617 L343.75,665.7617 L356.25,665.7617 L343.75,653.2617 " fill="#F5F5F5" style="stroke: #008000; stroke-width: 1.25;"/><text fill="#000000" font-family="sans-serif" font-size="16.25" font-weight="bold" lengthAdjust="spacingAndGlyphs" textLength="107.5" x="230" y="676.3806">User provides</text><ellipse cx="236.875" cy="691.0156" fill="#000000" rx="3.125" ry="3.125" style="stroke: #000000; stroke-width: 0.0;"/><text fill="#000000" font-family="sans-serif" font-size="16.25" lengthAdjust="spacingAndGlyphs" textLength="71.25" x="246.25" y="696.8201">username</text><ellipse cx="236.875" cy="711.4551" fill="#000000" rx="3.125" ry="3.125" style="stroke: #000000; stroke-width: 0.0;"/><text fill="#000000" font-family="sans-serif" font-size="16.25" lengthAdjust="spacingAndGlyphs" textLength="91.25" x="246.25" y="717.2595">password x2</text><!--MD5=[8d0349d2492b523f5a0efa7c22a342ff]
link 4 to *end*signin--><path d="M212.12,805.648 C196.6,830.5605 151.605,902.7913 131.9136,934.4005 " fill="none" id="4-&gt;*end*signin" style="stroke: #008000; stroke-width: 1.25;"/><polygon fill="#008000" points="128.5441,939.8093,138.7365,932.9044,131.8488,934.5045,130.2488,927.6169,128.5441,939.8093" style="stroke: #008000; stroke-width: 1.25;"/><!--MD5=[e86e91016e2d6c468aa6ffe31bf75a9a]
link 4 to 9--><path d="M217.6638,810.9017 C218.0025,839.703 218.75,903.2617 218.75,903.2617 C218.75,903.2617 225.4313,910.9868 233.3325,920.1226 " fill="none" id="4-&gt;9" style="stroke: #FF0000; stroke-width: 1.25;"/><polygon fill="#FF0000" points="237.8125,925.3031,234.2346,913.5234,233.7238,920.576,226.6712,920.0653,237.8125,925.3031" style="stroke: #FF0000; stroke-width: 1.25;"/><path d="M225,859.5117 L225,892.0117 L381.25,892.0117 L381.25,872.0117 L368.75,859.5117 L225,859.5117 " fill="#F5F5F5" filter="url(#f1rp18wum3uqa3)" style="stroke: #FF0000; stroke-width: 1.25;"/><path d="M368.75,859.5117 L368.75,872.0117 L381.25,872.0117 L368.75,859.5117 " fill="#F5F5F5" style="stroke: #FF0000; stroke-width: 1.25;"/><text fill="#000000" font-family="sans-serif" font-size="16.25" lengthAdjust="spacingAndGlyphs" textLength="130" x="232.5" y="882.6306">[username exists]</text><!--MD5=[ccb9eb92e35289dd6f195be8ee0b0786]
link 9 to 2--><path d="M290.1088,938.6681 C329.6412,924.9981 392.5,903.2617 392.5,903.2617 C392.5,903.2617 392.5,399.5117 392.5,399.5117 C392.5,399.5117 370.1163,386.7705 348.8463,374.663 " fill="none" id="9-&gt;2" style="stroke: #FF0000; stroke-width: 1.25;"/><polygon fill="#FF0000" points="342.8963,371.2755,350.1988,381.1869,348.3276,374.3679,355.1466,372.4967,342.8963,371.2755" style="stroke: #FF0000; stroke-width: 1.25;"/><path d="M398.75,673.8867 L398.75,706.3867 L743.75,706.3867 L743.75,686.3867 L731.25,673.8867 L398.75,673.8867 " fill="#F5F5F5" filter="url(#f1rp18wum3uqa3)" style="stroke: #FF0000; stroke-width: 1.25;"/><path d="M731.25,673.8867 L731.25,686.3867 L743.75,686.3867 L731.25,673.8867 " fill="#F5F5F5" style="stroke: #FF0000; stroke-width: 1.25;"/><text fill="#000000" font-family="sans-serif" font-size="16.25" lengthAdjust="spacingAndGlyphs" textLength="318.75" x="406.25" y="697.0056">System shows error username already used</text><!--MD5=[f629dcd761e2fb19b3a7f32dffebbfa0]
link startState to signin--><path d="M401.875,60.0612 C401.875,88.2563 401.875,138.9612 401.875,198.365 " fill="none" id="startState-&gt;signin" style="stroke: #008000; stroke-width: 1.25;"/><polygon fill="#008000" points="401.875,204.8925,406.875,193.6425,401.875,198.6425,396.875,193.6425,401.875,204.8925" style="stroke: #008000; stroke-width: 1.25;"/><path d="M408.125,103.75 L408.125,156.25 L560.625,156.25 L560.625,116.25 L548.125,103.75 L408.125,103.75 " fill="#F5F5F5" filter="url(#f1rp18wum3uqa3)" style="stroke: #008000; stroke-width: 1.25;"/><path d="M548.125,103.75 L548.125,116.25 L560.625,116.25 L548.125,103.75 " fill="#F5F5F5" style="stroke: #008000; stroke-width: 1.25;"/><text fill="#000000" font-family="sans-serif" font-size="16.25" font-weight="bold" lengthAdjust="spacingAndGlyphs" textLength="126.25" x="415.625" y="126.8689">User requests to</text><ellipse cx="422.5" cy="141.5039" fill="#000000" rx="3.125" ry="3.125" style="stroke: #000000; stroke-width: 0.0;"/><text fill="#000000" font-family="sans-serif" font-size="16.25" lengthAdjust="spacingAndGlyphs" textLength="42.5" x="431.875" y="147.3083">signin</text><!--MD5=[8bfc989c42bec13ed09a9fd3ebd15238]
link signin to openDashboard--><path d="M401.875,995.0825 C401.875,1022.9988 401.875,1046.9737 401.875,1064.4363 " fill="none" id="signin-&gt;openDashboard" style="stroke: #008000; stroke-width: 1.25;"/><polygon fill="#008000" points="401.875,1071.04,406.875,1059.79,401.875,1064.79,396.875,1059.79,401.875,1071.04" style="stroke: #008000; stroke-width: 1.25;"/><!--MD5=[02a5700b98ea6837795e18a48387c89f]
link openDashboard to 7--><path d="M401.875,1121.36 C401.875,1141.2191 401.875,1169.608 401.875,1191.0491 " fill="none" id="openDashboard-&gt;7" style="stroke: #008000; stroke-width: 1.25;"/><polygon fill="#008000" points="401.875,1197.463,406.875,1186.213,401.875,1191.213,396.875,1186.213,401.875,1197.463" style="stroke: #008000; stroke-width: 1.25;"/><!--MD5=[65316f1301abac1f4a9f6eac5977c7ab]
@startuml
skinparam {
    NoteBackgroundColor #whiteSmoke
    ArrowColor #green
    NoteBorderColor #green
    linetype polyline
}

hide empty description

state 7 as "OPENED_DASHBOARD"
state startState as "INITIAL"

startState - -> signin
note on link
    <b>User requests to</b>
    * signin
end note

state signin {
state 2 as " "
state 3 as " "
state 9 as " "
state 4 <<choice>>

[*] -down-> 2

2 -down-> 3
note on link
<b>System requires</b>
* username
* password
* repeat password
<b>System allows</b>
* cancel
end note

3 -[#red]-> [*]
note on link
<b>User requests to
* cancel
end note

3 -down-> 4
note on link
<b>User provides</b>
* username
* password x2
end note

4 -down-> [*]

4 -[#red]-> 9
note on link
[username exists]
end note

9 -[#red]-> 2
note on link
    System shows error username already used
end note

}

signin - -> openDashboard

openDashboard - -> 7

@enduml

PlantUML version 1.2020.09(Sun May 10 12:51:06 CEST 2020)
(GPL source distribution)
Java Runtime: OpenJDK Runtime Environment
JVM: OpenJDK 64-Bit Server VM
Java Version: 11.0.8+10-b944.31
Operating System: Windows 10
Default Encoding: Cp1252
Language: en
Country: GB
--></g></svg>