<?xml version="1.0" encoding="UTF-8" standalone="no"?><svg xmlns="http://www.w3.org/2000/svg" xmlns:xlink="http://www.w3.org/1999/xlink" contentScriptType="application/ecmascript" contentStyleType="text/css" height="513.75px" preserveAspectRatio="none" style="width:523px;height:513px;" version="1.1" viewBox="0 0 523 513" width="523.75px" zoomAndPan="magnify"><defs><filter height="300%" id="fwb9jnynmgowm" width="300%" x="-1" y="-1"><feGaussianBlur result="blurOut" stdDeviation="2.5"/><feColorMatrix in="blurOut" result="blurOut2" type="matrix" values="0 0 0 0 0 0 0 0 0 0 0 0 0 0 0 0 0 0 .4 0"/><feOffset dx="5.0" dy="5.0" in="blurOut2" result="blurOut3"/><feBlend in="SourceGraphic" in2="blurOut3" mode="normal"/></filter></defs><g><!--MD5=[795c71406de7ebe19cc9bd57dbfd6742]
entity agrimManager--><rect fill="#FEFECE" filter="url(#fwb9jnynmgowm)" height="69.0234" style="stroke: #A80036; stroke-width: 1.875;" width="171.25" x="149.375" y="158.75"/><rect fill="#FEFECE" height="6.25" style="stroke: #A80036; stroke-width: 1.875;" width="12.5" x="143.125" y="165"/><rect fill="#FEFECE" height="6.25" style="stroke: #A80036; stroke-width: 1.875;" width="12.5" x="143.125" y="215.2734"/><text fill="#000000" font-family="sans-serif" font-size="17.5" font-style="italic" lengthAdjust="spacingAndGlyphs" textLength="61.25" x="204.375" y="189.4165">«WAR»</text><text fill="#000000" font-family="sans-serif" font-size="17.5" lengthAdjust="spacingAndGlyphs" textLength="146.25" x="161.875" y="211.4282">agrimManager.war</text><!--MD5=[2096986e852d30b58645c57d356e69df]
entity jsf--><rect fill="#FEFECE" filter="url(#fwb9jnynmgowm)" height="47.0117" style="stroke: #A80036; stroke-width: 1.875;" width="55" x="7.5" y="303.75"/><rect fill="#FEFECE" height="6.25" style="stroke: #A80036; stroke-width: 1.875;" width="12.5" x="1.25" y="310"/><rect fill="#FEFECE" height="6.25" style="stroke: #A80036; stroke-width: 1.875;" width="12.5" x="1.25" y="338.2617"/><text fill="#000000" font-family="sans-serif" font-size="17.5" lengthAdjust="spacingAndGlyphs" textLength="30" x="20" y="334.4165">JSF</text><!--MD5=[51548b40e48be63876fbb21659139ccc]
entity primefaces--><rect fill="#FEFECE" filter="url(#fwb9jnynmgowm)" height="47.0117" style="stroke: #A80036; stroke-width: 1.875;" width="112.5" x="106.25" y="303.75"/><rect fill="#FEFECE" height="6.25" style="stroke: #A80036; stroke-width: 1.875;" width="12.5" x="100" y="310"/><rect fill="#FEFECE" height="6.25" style="stroke: #A80036; stroke-width: 1.875;" width="12.5" x="100" y="338.2617"/><text fill="#000000" font-family="sans-serif" font-size="17.5" lengthAdjust="spacingAndGlyphs" textLength="87.5" x="118.75" y="334.4165">Primefaces</text><!--MD5=[431bf97f09493fe295d612ad4ebfd9b8]
entity java--><rect fill="#FEFECE" filter="url(#fwb9jnynmgowm)" height="47.0117" style="stroke: #A80036; stroke-width: 1.875;" width="88.75" x="263.125" y="303.75"/><rect fill="#FEFECE" height="6.25" style="stroke: #A80036; stroke-width: 1.875;" width="12.5" x="256.875" y="310"/><rect fill="#FEFECE" height="6.25" style="stroke: #A80036; stroke-width: 1.875;" width="12.5" x="256.875" y="338.2617"/><text fill="#000000" font-family="sans-serif" font-size="17.5" lengthAdjust="spacingAndGlyphs" textLength="63.75" x="275.625" y="334.4165">Java EE</text><!--MD5=[f50ff5e4cd64f259303fc83dba1819fc]
entity database--><rect fill="#FEFECE" filter="url(#fwb9jnynmgowm)" height="72.7734" style="stroke: #000000; stroke-width: 1.875;" width="113.75" x="389.375" y="427.5"/><polygon fill="#FEFECE" points="481.875,433.75,481.875,451.25,496.875,451.25,496.875,441.25,489.375,433.75,481.875,433.75" style="stroke: #000000; stroke-width: 1.875;"/><line style="stroke: #000000; stroke-width: 1.875;" x1="489.375" x2="489.375" y1="433.75" y2="441.25"/><line style="stroke: #000000; stroke-width: 1.875;" x1="496.875" x2="489.375" y1="441.25" y2="441.25"/><text fill="#000000" font-family="sans-serif" font-size="17.5" font-style="italic" lengthAdjust="spacingAndGlyphs" textLength="68.75" x="405.625" y="461.9165">«MySql»</text><text fill="#000000" font-family="sans-serif" font-size="17.5" lengthAdjust="spacingAndGlyphs" textLength="76.25" x="401.875" y="483.9282">Database</text><!--MD5=[eed528b962a59b01eb872ad5f65e1479]
entity hibernate--><rect fill="#FEFECE" filter="url(#fwb9jnynmgowm)" height="47.0117" style="stroke: #A80036; stroke-width: 1.875;" width="101.25" x="395.625" y="303.75"/><rect fill="#FEFECE" height="6.25" style="stroke: #A80036; stroke-width: 1.875;" width="12.5" x="389.375" y="310"/><rect fill="#FEFECE" height="6.25" style="stroke: #A80036; stroke-width: 1.875;" width="12.5" x="389.375" y="338.2617"/><text fill="#000000" font-family="sans-serif" font-size="17.5" lengthAdjust="spacingAndGlyphs" textLength="76.25" x="408.125" y="334.4165">Hibernate</text><!--MD5=[e2307af040e3f87d22824e7603ca28ec]
entity api--><polygon fill="#FEFECE" filter="url(#fwb9jnynmgowm)" points="74.375,10,108.125,10,116.875,39.5117,138.125,39.5117,138.125,60.7617,74.375,60.7617,74.375,10" style="stroke: #000000; stroke-width: 1.875;"/><line style="stroke: #000000; stroke-width: 1.875;" x1="74.375" x2="116.875" y1="39.5117" y2="39.5117"/><text fill="#000000" font-family="sans-serif" font-size="17.5" font-weight="bold" lengthAdjust="spacingAndGlyphs" textLength="26.25" x="79.375" y="31.9165">api</text><!--MD5=[2021705b656b270ae1616113380bc97f]
entity webapp--><polygon fill="#FEFECE" filter="url(#fwb9jnynmgowm)" points="181.875,10,258.125,10,266.875,39.5117,288.125,39.5117,288.125,60.7617,181.875,60.7617,181.875,10" style="stroke: #000000; stroke-width: 1.875;"/><line style="stroke: #000000; stroke-width: 1.875;" x1="181.875" x2="266.875" y1="39.5117" y2="39.5117"/><text fill="#000000" font-family="sans-serif" font-size="17.5" font-weight="bold" lengthAdjust="spacingAndGlyphs" textLength="68.75" x="186.875" y="31.9165">webapp</text><!--MD5=[eae7271b97cd89b1036f59bc0af90589]
entity front--><polygon fill="#FEFECE" filter="url(#fwb9jnynmgowm)" points="332.5,10,382.5,10,391.25,39.5117,412.5,39.5117,412.5,60.7617,332.5,60.7617,332.5,10" style="stroke: #000000; stroke-width: 1.875;"/><line style="stroke: #000000; stroke-width: 1.875;" x1="332.5" x2="391.25" y1="39.5117" y2="39.5117"/><text fill="#000000" font-family="sans-serif" font-size="17.5" font-weight="bold" lengthAdjust="spacingAndGlyphs" textLength="42.5" x="337.5" y="31.9165">front</text><!--MD5=[4265d0cac85327ce5de073de49ce9044]
link agrimManager to jsf--><path d="M184.5313,227.6525 C147.995,251.7438 99.6564,283.6175 67.9659,304.5137 " fill="none" id="agrimManager-&gt;jsf" style="stroke: #A80036; stroke-width: 1.25; stroke-dasharray: 7.0,7.0;"/><polygon fill="#A80036" points="62.6385,308.0263,74.7829,306.0076,67.8563,304.5858,69.2781,297.6591,62.6385,308.0263" style="stroke: #A80036; stroke-width: 1.25;"/><!--MD5=[4392c7497b1a4ff26b12ef5b4b8d1492]
link agrimManager to primefaces--><path d="M216.705,227.6525 C204.8188,249.2738 189.4862,277.1625 178.1638,297.7587 " fill="none" id="agrimManager-&gt;primefaces" style="stroke: #A80036; stroke-width: 1.25; stroke-dasharray: 7.0,7.0;"/><polygon fill="#A80036" points="175.0825,303.3638,184.8854,295.9163,178.0947,297.8875,176.1235,291.0968,175.0825,303.3638" style="stroke: #A80036; stroke-width: 1.25;"/><!--MD5=[28e26b6e512cb9e7cc6a4a6f80010134]
link agrimManager to java--><path d="M253.295,227.6525 C265.1813,249.2738 280.5138,277.1625 291.8363,297.7587 " fill="none" id="agrimManager-&gt;java" style="stroke: #A80036; stroke-width: 1.25; stroke-dasharray: 7.0,7.0;"/><polygon fill="#A80036" points="294.9175,303.3638,293.8765,291.0968,291.9053,297.8875,285.1146,295.9163,294.9175,303.3638" style="stroke: #A80036; stroke-width: 1.25;"/><!--MD5=[8d6c1eeb4b9a35d3793891be6290c929]
link agrimManager to hibernate--><path d="M288.3075,227.6525 C324.2413,250.085 370.9838,279.2638 404.2737,300.0463 " fill="none" id="agrimManager-&gt;hibernate" style="stroke: #A80036; stroke-width: 1.25; stroke-dasharray: 7.0,7.0;"/><polygon fill="#A80036" points="409.9125,303.5663,403.016,293.3682,404.6104,300.2571,397.7214,301.8515,409.9125,303.5663" style="stroke: #A80036; stroke-width: 1.25;"/><!--MD5=[21a69d6fcc91e7f2564f146b8ab492a9]
link hibernate to database--><path d="M446.25,351.4388 C446.25,370.3775 446.25,397.8742 446.25,420.769 " fill="none" id="hibernate-&gt;database" style="stroke: #A80036; stroke-width: 1.25;"/><polygon fill="#A80036" points="446.25,427.0935,451.25,415.8435,446.25,420.8435,441.25,415.8435,446.25,427.0935" style="stroke: #A80036; stroke-width: 1.25;"/><!--MD5=[1be06dcbf1cf3c92743f55e2b0032407]
link api to agrimManager--><path d="M123.3074,61.4475 C135.4825,78.5938 152.5138,101.7963 168.75,121.25 C177.73,132.0088 187.8863,143.25 197.5,153.5175 " fill="none" id="api-&gt;agrimManager" style="stroke: #A80036; stroke-width: 1.25; stroke-dasharray: 7.0,7.0;"/><polygon fill="#A80036" points="202.1688,158.4738,198.0948,146.8563,197.8834,153.9242,190.8155,153.7128,202.1688,158.4738" style="stroke: #A80036; stroke-width: 1.25;"/><text fill="#000000" font-family="sans-serif" font-size="16.25" lengthAdjust="spacingAndGlyphs" textLength="53.75" x="170" y="116.8689">«trace»</text><!--MD5=[528008e7ab09fe55eceae3d1ec5cd095]
link webapp to agrimManager--><path d="M235,61.435 C235,85.72 235,123.2875 235,151.8813 " fill="none" id="webapp-&gt;agrimManager" style="stroke: #A80036; stroke-width: 1.25; stroke-dasharray: 7.0,7.0;"/><polygon fill="#A80036" points="235,158.205,240,146.955,235,151.955,230,146.955,235,158.205" style="stroke: #A80036; stroke-width: 1.25;"/><text fill="#000000" font-family="sans-serif" font-size="16.25" lengthAdjust="spacingAndGlyphs" textLength="53.75" x="236.25" y="116.8689">«trace»</text><!--MD5=[83aa54f793af11ff8bd9c96c0e5c0f7f]
link front to agrimManager--><path d="M352.2537,61.5325 C338.1725,78.5125 318.8425,101.4875 301.25,121.25 C291.8363,131.825 281.4463,143.0863 271.7413,153.4375 " fill="none" id="front-&gt;agrimManager" style="stroke: #A80036; stroke-width: 1.25; stroke-dasharray: 7.0,7.0;"/><polygon fill="#A80036" points="267.0388,158.4387,278.3871,153.6662,271.3194,153.8848,271.1008,146.8171,267.0388,158.4387" style="stroke: #A80036; stroke-width: 1.25;"/><text fill="#000000" font-family="sans-serif" font-size="16.25" lengthAdjust="spacingAndGlyphs" textLength="53.75" x="321.25" y="116.8689">«trace»</text><!--MD5=[b6b9d02dcffad4e71519172b2dc9626f]
@startuml



component agrimManager as "agrimManager.war" <<WAR>>
component jsf as "JSF"
component primefaces as "Primefaces"
component java as "Java EE"
artifact database as "Database" <<MySql>>
component hibernate as "Hibernate"
package api as "api"
package webapp as "webapp"
package front as "front"

agrimManager .down.>jsf
agrimManager .down.>primefaces
agrimManager .down.> java
agrimManager .down.> hibernate
hibernate - -> database

api ..> agrimManager : <<trace>>
webapp ..> agrimManager : <<trace>>
front ..> agrimManager : <<trace>>
@enduml

PlantUML version 1.2020.09(Sun May 10 12:51:06 CEST 2020)
(GPL source distribution)
Java Runtime: OpenJDK Runtime Environment
JVM: OpenJDK 64-Bit Server VM
Java Version: 11.0.8+10-b944.34
Operating System: Windows 10
Default Encoding: Cp1252
Language: en
Country: GB
--></g></svg>