<?xml version="1.0" encoding="UTF-8" standalone="no"?><svg xmlns="http://www.w3.org/2000/svg" xmlns:xlink="http://www.w3.org/1999/xlink" contentScriptType="application/ecmascript" contentStyleType="text/css" height="270px" preserveAspectRatio="none" style="width:536px;height:270px;" version="1.1" viewBox="0 0 536 270" width="536.25px" zoomAndPan="magnify"><defs><filter height="300%" id="f16s01qfaqxysa" width="300%" x="-1" y="-1"><feGaussianBlur result="blurOut" stdDeviation="2.5"/><feColorMatrix in="blurOut" result="blurOut2" type="matrix" values="0 0 0 0 0 0 0 0 0 0 0 0 0 0 0 0 0 0 .4 0"/><feOffset dx="5.0" dy="5.0" in="blurOut2" result="blurOut3"/><feBlend in="SourceGraphic" in2="blurOut3" mode="normal"/></filter></defs><g><!--MD5=[2ca1536628238a7dc78c5d90808014f9]
class Session--><rect fill="#FEFECE" filter="url(#f16s01qfaqxysa)" height="111.8848" id="Session" style="stroke: #A80036; stroke-width: 1.875;" width="176.25" x="171.875" y="145"/><ellipse cx="226.0625" cy="165" fill="#ADD1B2" rx="13.75" ry="13.75" style="stroke: #A80036; stroke-width: 1.25;"/><path d="M228.5625,160.625 Q228.8164,160 229.1094,159.6875 Q229.4023,159.375 229.7344,159.375 Q230.3203,159.375 230.6914,159.7266 Q231.0625,160.0781 231.0625,160.8984 L231.0625,162.8516 Q231.0625,163.6719 230.7109,164.0234 Q230.3594,164.375 229.8125,164.375 Q229.3242,164.375 229.0117,164.1602 Q228.6992,163.9453 228.5625,163.3789 Q228.5039,162.9883 228.2891,162.7734 Q227.8984,162.3633 227.1953,162.1289 Q226.4922,161.875 225.7891,161.875 Q224.9102,161.875 224.168,162.2266 Q223.4453,162.5781 222.8789,163.3594 Q222.3125,164.1406 222.3125,165.2148 L222.3125,166.3672 Q222.3125,167.6563 223.3672,168.5156 Q224.4219,169.375 226.2969,169.375 Q227.4102,169.375 228.1914,169.1211 Q228.6406,168.9844 229.1484,168.5352 Q229.4805,168.2813 229.6563,168.2031 Q229.832,168.125 230.0469,168.125 Q230.457,168.125 230.75,168.457 Q231.0625,168.7695 231.0625,169.2188 Q231.0625,169.6484 230.6328,170.1563 Q230.0078,170.8984 229.0117,171.3086 Q227.7031,171.875 226.1016,171.875 Q224.2266,171.875 222.7227,171.1328 Q221.5117,170.5469 220.6523,169.2773 Q219.8125,168.0078 219.8125,166.5039 L219.8125,165.1367 Q219.8125,163.5742 220.5547,162.207 Q221.3164,160.8398 222.625,160.1172 Q223.9531,159.375 225.4375,159.375 Q226.3359,159.375 227.1172,159.6875 Q227.8984,160 228.5625,160.625 Z "/><text fill="#000000" font-family="sans-serif" font-size="15" lengthAdjust="spacingAndGlyphs" textLength="57.5" x="251.4375" y="171.1377">Session</text><line style="stroke: #A80036; stroke-width: 1.875;" x1="173.125" x2="346.875" y1="185" y2="185"/><line style="stroke: #A80036; stroke-width: 1.875;" x1="173.125" x2="346.875" y1="195" y2="195"/><ellipse cx="185.625" cy="208.75" fill="#84BE84" rx="3.75" ry="3.75" style="stroke: #038048; stroke-width: 1.25;"/><text fill="#000000" font-family="sans-serif" font-size="13.75" lengthAdjust="spacingAndGlyphs" textLength="143.75" x="196.875" y="214.2737">setMechanic(mechanic)</text><ellipse cx="185.625" cy="226.0449" fill="#84BE84" rx="3.75" ry="3.75" style="stroke: #038048; stroke-width: 1.25;"/><text fill="#000000" font-family="sans-serif" font-size="13.75" lengthAdjust="spacingAndGlyphs" textLength="115" x="196.875" y="231.5686">invalidateSession()</text><ellipse cx="185.625" cy="243.3398" fill="#84BE84" rx="3.75" ry="3.75" style="stroke: #038048; stroke-width: 1.25;"/><text fill="#000000" font-family="sans-serif" font-size="13.75" lengthAdjust="spacingAndGlyphs" textLength="86.25" x="196.875" y="248.8635">getMechanic()</text><!--MD5=[bdd4672b4bae795639395c14a0d6d497]
class DashboardView--><rect fill="#FEFECE" filter="url(#f16s01qfaqxysa)" height="60" id="DashboardView" style="stroke: #A80036; stroke-width: 1.875;" width="150" x="7.5" y="10"/><ellipse cx="26.25" cy="30" fill="#ADD1B2" rx="13.75" ry="13.75" style="stroke: #A80036; stroke-width: 1.25;"/><path d="M28.75,25.625 Q29.0039,25 29.2969,24.6875 Q29.5898,24.375 29.9219,24.375 Q30.5078,24.375 30.8789,24.7266 Q31.25,25.0781 31.25,25.8984 L31.25,27.8516 Q31.25,28.6719 30.8984,29.0234 Q30.5469,29.375 30,29.375 Q29.5117,29.375 29.1992,29.1602 Q28.8867,28.9453 28.75,28.3789 Q28.6914,27.9883 28.4766,27.7734 Q28.0859,27.3633 27.3828,27.1289 Q26.6797,26.875 25.9766,26.875 Q25.0977,26.875 24.3555,27.2266 Q23.6328,27.5781 23.0664,28.3594 Q22.5,29.1406 22.5,30.2148 L22.5,31.3672 Q22.5,32.6563 23.5547,33.5156 Q24.6094,34.375 26.4844,34.375 Q27.5977,34.375 28.3789,34.1211 Q28.8281,33.9844 29.3359,33.5352 Q29.668,33.2813 29.8438,33.2031 Q30.0195,33.125 30.2344,33.125 Q30.6445,33.125 30.9375,33.457 Q31.25,33.7695 31.25,34.2188 Q31.25,34.6484 30.8203,35.1563 Q30.1953,35.8984 29.1992,36.3086 Q27.8906,36.875 26.2891,36.875 Q24.4141,36.875 22.9102,36.1328 Q21.6992,35.5469 20.8398,34.2773 Q20,33.0078 20,31.5039 L20,30.1367 Q20,28.5742 20.7422,27.207 Q21.5039,25.8398 22.8125,25.1172 Q24.1406,24.375 25.625,24.375 Q26.5234,24.375 27.3047,24.6875 Q28.0859,25 28.75,25.625 Z "/><text fill="#000000" font-family="sans-serif" font-size="15" lengthAdjust="spacingAndGlyphs" textLength="110" x="43.75" y="36.1377">DashboardView</text><line style="stroke: #A80036; stroke-width: 1.875;" x1="8.75" x2="156.25" y1="50" y2="50"/><line style="stroke: #A80036; stroke-width: 1.875;" x1="8.75" x2="156.25" y1="60" y2="60"/><!--MD5=[c165718656364e8a2441ae1f83ea1dcf]
class SignInView--><rect fill="#FEFECE" filter="url(#f16s01qfaqxysa)" height="60" id="SignInView" style="stroke: #A80036; stroke-width: 1.875;" width="116.25" x="201.875" y="10"/><ellipse cx="220.625" cy="30" fill="#ADD1B2" rx="13.75" ry="13.75" style="stroke: #A80036; stroke-width: 1.25;"/><path d="M223.125,25.625 Q223.3789,25 223.6719,24.6875 Q223.9648,24.375 224.2969,24.375 Q224.8828,24.375 225.2539,24.7266 Q225.625,25.0781 225.625,25.8984 L225.625,27.8516 Q225.625,28.6719 225.2734,29.0234 Q224.9219,29.375 224.375,29.375 Q223.8867,29.375 223.5742,29.1602 Q223.2617,28.9453 223.125,28.3789 Q223.0664,27.9883 222.8516,27.7734 Q222.4609,27.3633 221.7578,27.1289 Q221.0547,26.875 220.3516,26.875 Q219.4727,26.875 218.7305,27.2266 Q218.0078,27.5781 217.4414,28.3594 Q216.875,29.1406 216.875,30.2148 L216.875,31.3672 Q216.875,32.6563 217.9297,33.5156 Q218.9844,34.375 220.8594,34.375 Q221.9727,34.375 222.7539,34.1211 Q223.2031,33.9844 223.7109,33.5352 Q224.043,33.2813 224.2188,33.2031 Q224.3945,33.125 224.6094,33.125 Q225.0195,33.125 225.3125,33.457 Q225.625,33.7695 225.625,34.2188 Q225.625,34.6484 225.1953,35.1563 Q224.5703,35.8984 223.5742,36.3086 Q222.2656,36.875 220.6641,36.875 Q218.7891,36.875 217.2852,36.1328 Q216.0742,35.5469 215.2148,34.2773 Q214.375,33.0078 214.375,31.5039 L214.375,30.1367 Q214.375,28.5742 215.1172,27.207 Q215.8789,25.8398 217.1875,25.1172 Q218.5156,24.375 220,24.375 Q220.8984,24.375 221.6797,24.6875 Q222.4609,25 223.125,25.625 Z "/><text fill="#000000" font-family="sans-serif" font-size="15" lengthAdjust="spacingAndGlyphs" textLength="76.25" x="238.125" y="36.1377">SignInView</text><line style="stroke: #A80036; stroke-width: 1.875;" x1="203.125" x2="316.875" y1="50" y2="50"/><line style="stroke: #A80036; stroke-width: 1.875;" x1="203.125" x2="316.875" y1="60" y2="60"/><!--MD5=[6d3946f4576b3d1380341ff87dc4fff4]
class InterventionsView--><rect fill="#FEFECE" filter="url(#f16s01qfaqxysa)" height="60" id="InterventionsView" style="stroke: #A80036; stroke-width: 1.875;" width="160" x="362.5" y="10"/><ellipse cx="381.25" cy="30" fill="#ADD1B2" rx="13.75" ry="13.75" style="stroke: #A80036; stroke-width: 1.25;"/><path d="M383.75,25.625 Q384.0039,25 384.2969,24.6875 Q384.5898,24.375 384.9219,24.375 Q385.5078,24.375 385.8789,24.7266 Q386.25,25.0781 386.25,25.8984 L386.25,27.8516 Q386.25,28.6719 385.8984,29.0234 Q385.5469,29.375 385,29.375 Q384.5117,29.375 384.1992,29.1602 Q383.8867,28.9453 383.75,28.3789 Q383.6914,27.9883 383.4766,27.7734 Q383.0859,27.3633 382.3828,27.1289 Q381.6797,26.875 380.9766,26.875 Q380.0977,26.875 379.3555,27.2266 Q378.6328,27.5781 378.0664,28.3594 Q377.5,29.1406 377.5,30.2148 L377.5,31.3672 Q377.5,32.6563 378.5547,33.5156 Q379.6094,34.375 381.4844,34.375 Q382.5977,34.375 383.3789,34.1211 Q383.8281,33.9844 384.3359,33.5352 Q384.668,33.2813 384.8438,33.2031 Q385.0195,33.125 385.2344,33.125 Q385.6445,33.125 385.9375,33.457 Q386.25,33.7695 386.25,34.2188 Q386.25,34.6484 385.8203,35.1563 Q385.1953,35.8984 384.1992,36.3086 Q382.8906,36.875 381.2891,36.875 Q379.4141,36.875 377.9102,36.1328 Q376.6992,35.5469 375.8398,34.2773 Q375,33.0078 375,31.5039 L375,30.1367 Q375,28.5742 375.7422,27.207 Q376.5039,25.8398 377.8125,25.1172 Q379.1406,24.375 380.625,24.375 Q381.5234,24.375 382.3047,24.6875 Q383.0859,25 383.75,25.625 Z "/><text fill="#000000" font-family="sans-serif" font-size="15" lengthAdjust="spacingAndGlyphs" textLength="120" x="398.75" y="36.1377">InterventionsView</text><line style="stroke: #A80036; stroke-width: 1.875;" x1="363.75" x2="521.25" y1="50" y2="50"/><line style="stroke: #A80036; stroke-width: 1.875;" x1="363.75" x2="521.25" y1="60" y2="60"/><!--MD5=[f6bfa8e6ad2e37edcd578b647fafadda]
class MenuView--><rect fill="#FEFECE" filter="url(#f16s01qfaqxysa)" height="60" id="MenuView" style="stroke: #A80036; stroke-width: 1.875;" width="110" x="17.5" y="171.25"/><ellipse cx="36.25" cy="191.25" fill="#ADD1B2" rx="13.75" ry="13.75" style="stroke: #A80036; stroke-width: 1.25;"/><path d="M38.75,186.875 Q39.0039,186.25 39.2969,185.9375 Q39.5898,185.625 39.9219,185.625 Q40.5078,185.625 40.8789,185.9766 Q41.25,186.3281 41.25,187.1484 L41.25,189.1016 Q41.25,189.9219 40.8984,190.2734 Q40.5469,190.625 40,190.625 Q39.5117,190.625 39.1992,190.4102 Q38.8867,190.1953 38.75,189.6289 Q38.6914,189.2383 38.4766,189.0234 Q38.0859,188.6133 37.3828,188.3789 Q36.6797,188.125 35.9766,188.125 Q35.0977,188.125 34.3555,188.4766 Q33.6328,188.8281 33.0664,189.6094 Q32.5,190.3906 32.5,191.4648 L32.5,192.6172 Q32.5,193.9063 33.5547,194.7656 Q34.6094,195.625 36.4844,195.625 Q37.5977,195.625 38.3789,195.3711 Q38.8281,195.2344 39.3359,194.7852 Q39.668,194.5313 39.8438,194.4531 Q40.0195,194.375 40.2344,194.375 Q40.6445,194.375 40.9375,194.707 Q41.25,195.0195 41.25,195.4688 Q41.25,195.8984 40.8203,196.4063 Q40.1953,197.1484 39.1992,197.5586 Q37.8906,198.125 36.2891,198.125 Q34.4141,198.125 32.9102,197.3828 Q31.6992,196.7969 30.8398,195.5273 Q30,194.2578 30,192.7539 L30,191.3867 Q30,189.8242 30.7422,188.457 Q31.5039,187.0898 32.8125,186.3672 Q34.1406,185.625 35.625,185.625 Q36.5234,185.625 37.3047,185.9375 Q38.0859,186.25 38.75,186.875 Z "/><text fill="#000000" font-family="sans-serif" font-size="15" lengthAdjust="spacingAndGlyphs" textLength="70" x="53.75" y="197.3877">MenuView</text><line style="stroke: #A80036; stroke-width: 1.875;" x1="18.75" x2="126.25" y1="211.25" y2="211.25"/><line style="stroke: #A80036; stroke-width: 1.875;" x1="18.75" x2="126.25" y1="221.25" y2="221.25"/><!--MD5=[cbb00088b92544238e2f93e5abc90875]
link DashboardView to Session--><path d="M115.0563,70.3675 C136.915,89.9175 166.5,116.3763 193.2412,140.2936 " fill="none" id="DashboardView-&gt;Session" style="stroke: #A80036; stroke-width: 1.25;"/><polygon fill="#A80036" points="198.2,144.7276,193.1472,133.5013,193.5412,140.5613,186.4811,140.9554,198.2,144.7276" style="stroke: #A80036; stroke-width: 1.25;"/><!--MD5=[d0344c470cca7bae7302d37464bd71cc]
link SignInView to Session--><path d="M260,70.3675 C260,89.3488 260,114.845 260,138.2034 " fill="none" id="SignInView-&gt;Session" style="stroke: #A80036; stroke-width: 1.25;"/><polygon fill="#A80036" points="260,144.7276,265,133.4776,260,138.4776,255,133.4776,260,144.7276" style="stroke: #A80036; stroke-width: 1.25;"/><!--MD5=[04ff8de8ae3660906f10a1c269814489]
link InterventionsView to Session--><path d="M409.0263,70.3675 C386.4587,89.9988 355.8812,116.5963 328.2963,140.5913 " fill="none" id="InterventionsView-&gt;Session" style="stroke: #A80036; stroke-width: 1.25;"/><polygon fill="#A80036" points="323.5413,144.7276,335.3109,141.1168,328.2569,140.6258,328.7479,133.5718,323.5413,144.7276" style="stroke: #A80036; stroke-width: 1.25;"/><!--MD5=[8dc298174baca4f6cb2cd84821bf835a]
link MenuView to Session--><path d="M127.7979,201.25 C140.2575,201.25 152.7175,201.25 165.1775,201.25 " fill="none" id="MenuView-&gt;Session" style="stroke: #A80036; stroke-width: 1.25;"/><polygon fill="#A80036" points="171.6925,201.25,160.4425,196.25,165.4425,201.25,160.4425,206.25,171.6925,201.25" style="stroke: #A80036; stroke-width: 1.25;"/><!--MD5=[aa77a07bb5361a3b06522fc33414f07d]
@startuml
	class Session {
	+setMechanic(mechanic)
	+invalidateSession()
	+getMechanic()
	}

	DashboardView - -> Session
	SignInView - -> Session
	InterventionsView - -> Session
	MenuView -> Session
@enduml

PlantUML version 1.2020.09(Sun May 10 12:51:06 CEST 2020)
(GPL source distribution)
Java Runtime: OpenJDK Runtime Environment
JVM: OpenJDK 64-Bit Server VM
Java Version: 11.0.8+10-b1094.1
Operating System: Windows 10
Default Encoding: Cp1252
Language: en
Country: GB
--></g></svg>