<?xml version="1.0" encoding="UTF-8" standalone="no"?><svg xmlns="http://www.w3.org/2000/svg" xmlns:xlink="http://www.w3.org/1999/xlink" contentScriptType="application/ecmascript" contentStyleType="text/css" height="430px" preserveAspectRatio="none" style="width:763px;height:430px;" version="1.1" viewBox="0 0 763 430" width="763.75px" zoomAndPan="magnify"><defs><filter height="300%" id="f18a6hhx6njmbk" width="300%" x="-1" y="-1"><feGaussianBlur result="blurOut" stdDeviation="2.5"/><feColorMatrix in="blurOut" result="blurOut2" type="matrix" values="0 0 0 0 0 0 0 0 0 0 0 0 0 0 0 0 0 0 .4 0"/><feOffset dx="5.0" dy="5.0" in="blurOut2" result="blurOut3"/><feBlend in="SourceGraphic" in2="blurOut3" mode="normal"/></filter></defs><g><!--MD5=[3aa0d89c6bfdcbf7f32042cedac57549]
class Vehicle--><rect fill="#FEFECE" filter="url(#f18a6hhx6njmbk)" height="60" id="Vehicle" style="stroke: #A80036; stroke-width: 1.875;" width="90" x="342.5" y="356.25"/><ellipse cx="361.25" cy="376.25" fill="#ADD1B2" rx="13.75" ry="13.75" style="stroke: #A80036; stroke-width: 1.25;"/><path d="M363.75,371.875 Q364.0039,371.25 364.2969,370.9375 Q364.5898,370.625 364.9219,370.625 Q365.5078,370.625 365.8789,370.9766 Q366.25,371.3281 366.25,372.1484 L366.25,374.1016 Q366.25,374.9219 365.8984,375.2734 Q365.5469,375.625 365,375.625 Q364.5117,375.625 364.1992,375.4102 Q363.8867,375.1953 363.75,374.6289 Q363.6914,374.2383 363.4766,374.0234 Q363.0859,373.6133 362.3828,373.3789 Q361.6797,373.125 360.9766,373.125 Q360.0977,373.125 359.3555,373.4766 Q358.6328,373.8281 358.0664,374.6094 Q357.5,375.3906 357.5,376.4648 L357.5,377.6172 Q357.5,378.9063 358.5547,379.7656 Q359.6094,380.625 361.4844,380.625 Q362.5977,380.625 363.3789,380.3711 Q363.8281,380.2344 364.3359,379.7852 Q364.668,379.5313 364.8438,379.4531 Q365.0195,379.375 365.2344,379.375 Q365.6445,379.375 365.9375,379.707 Q366.25,380.0195 366.25,380.4688 Q366.25,380.8984 365.8203,381.4063 Q365.1953,382.1484 364.1992,382.5586 Q362.8906,383.125 361.2891,383.125 Q359.4141,383.125 357.9102,382.3828 Q356.6992,381.7969 355.8398,380.5273 Q355,379.2578 355,377.7539 L355,376.3867 Q355,374.8242 355.7422,373.457 Q356.5039,372.0898 357.8125,371.3672 Q359.1406,370.625 360.625,370.625 Q361.5234,370.625 362.3047,370.9375 Q363.0859,371.25 363.75,371.875 Z "/><text fill="#000000" font-family="sans-serif" font-size="15" lengthAdjust="spacingAndGlyphs" textLength="50" x="378.75" y="382.3877">Vehicle</text><line style="stroke: #A80036; stroke-width: 1.875;" x1="343.75" x2="431.25" y1="396.25" y2="396.25"/><line style="stroke: #A80036; stroke-width: 1.875;" x1="343.75" x2="431.25" y1="406.25" y2="406.25"/><!--MD5=[9e0c71a3125094596f70bfdc08b8bc9b]
class ConfigVehicleView--><rect fill="#FEFECE" filter="url(#f18a6hhx6njmbk)" height="60" id="ConfigVehicleView" style="stroke: #A80036; stroke-width: 1.875;" width="167.5" x="7.5" y="221.25"/><ellipse cx="26.25" cy="241.25" fill="#ADD1B2" rx="13.75" ry="13.75" style="stroke: #A80036; stroke-width: 1.25;"/><path d="M28.75,236.875 Q29.0039,236.25 29.2969,235.9375 Q29.5898,235.625 29.9219,235.625 Q30.5078,235.625 30.8789,235.9766 Q31.25,236.3281 31.25,237.1484 L31.25,239.1016 Q31.25,239.9219 30.8984,240.2734 Q30.5469,240.625 30,240.625 Q29.5117,240.625 29.1992,240.4102 Q28.8867,240.1953 28.75,239.6289 Q28.6914,239.2383 28.4766,239.0234 Q28.0859,238.6133 27.3828,238.3789 Q26.6797,238.125 25.9766,238.125 Q25.0977,238.125 24.3555,238.4766 Q23.6328,238.8281 23.0664,239.6094 Q22.5,240.3906 22.5,241.4648 L22.5,242.6172 Q22.5,243.9063 23.5547,244.7656 Q24.6094,245.625 26.4844,245.625 Q27.5977,245.625 28.3789,245.3711 Q28.8281,245.2344 29.3359,244.7852 Q29.668,244.5313 29.8438,244.4531 Q30.0195,244.375 30.2344,244.375 Q30.6445,244.375 30.9375,244.707 Q31.25,245.0195 31.25,245.4688 Q31.25,245.8984 30.8203,246.4063 Q30.1953,247.1484 29.1992,247.5586 Q27.8906,248.125 26.2891,248.125 Q24.4141,248.125 22.9102,247.3828 Q21.6992,246.7969 20.8398,245.5273 Q20,244.2578 20,242.7539 L20,241.3867 Q20,239.8242 20.7422,238.457 Q21.5039,237.0898 22.8125,236.3672 Q24.1406,235.625 25.625,235.625 Q26.5234,235.625 27.3047,235.9375 Q28.0859,236.25 28.75,236.875 Z "/><text fill="#000000" font-family="sans-serif" font-size="15" lengthAdjust="spacingAndGlyphs" textLength="127.5" x="43.75" y="247.3877">ConfigVehicleView</text><line style="stroke: #A80036; stroke-width: 1.875;" x1="8.75" x2="173.75" y1="261.25" y2="261.25"/><line style="stroke: #A80036; stroke-width: 1.875;" x1="8.75" x2="173.75" y1="271.25" y2="271.25"/><!--MD5=[5d2bdef844ee30e945474426b37189d0]
class VehiclesView--><rect fill="#FEFECE" filter="url(#f18a6hhx6njmbk)" height="60" id="VehiclesView" style="stroke: #A80036; stroke-width: 1.875;" width="131.25" x="175.625" y="10"/><ellipse cx="194.375" cy="30" fill="#ADD1B2" rx="13.75" ry="13.75" style="stroke: #A80036; stroke-width: 1.25;"/><path d="M196.875,25.625 Q197.1289,25 197.4219,24.6875 Q197.7148,24.375 198.0469,24.375 Q198.6328,24.375 199.0039,24.7266 Q199.375,25.0781 199.375,25.8984 L199.375,27.8516 Q199.375,28.6719 199.0234,29.0234 Q198.6719,29.375 198.125,29.375 Q197.6367,29.375 197.3242,29.1602 Q197.0117,28.9453 196.875,28.3789 Q196.8164,27.9883 196.6016,27.7734 Q196.2109,27.3633 195.5078,27.1289 Q194.8047,26.875 194.1016,26.875 Q193.2227,26.875 192.4805,27.2266 Q191.7578,27.5781 191.1914,28.3594 Q190.625,29.1406 190.625,30.2148 L190.625,31.3672 Q190.625,32.6563 191.6797,33.5156 Q192.7344,34.375 194.6094,34.375 Q195.7227,34.375 196.5039,34.1211 Q196.9531,33.9844 197.4609,33.5352 Q197.793,33.2813 197.9688,33.2031 Q198.1445,33.125 198.3594,33.125 Q198.7695,33.125 199.0625,33.457 Q199.375,33.7695 199.375,34.2188 Q199.375,34.6484 198.9453,35.1563 Q198.3203,35.8984 197.3242,36.3086 Q196.0156,36.875 194.4141,36.875 Q192.5391,36.875 191.0352,36.1328 Q189.8242,35.5469 188.9648,34.2773 Q188.125,33.0078 188.125,31.5039 L188.125,30.1367 Q188.125,28.5742 188.8672,27.207 Q189.6289,25.8398 190.9375,25.1172 Q192.2656,24.375 193.75,24.375 Q194.6484,24.375 195.4297,24.6875 Q196.2109,25 196.875,25.625 Z "/><text fill="#000000" font-family="sans-serif" font-size="15" lengthAdjust="spacingAndGlyphs" textLength="91.25" x="211.875" y="36.1377">VehiclesView</text><line style="stroke: #A80036; stroke-width: 1.875;" x1="176.875" x2="305.625" y1="50" y2="50"/><line style="stroke: #A80036; stroke-width: 1.875;" x1="176.875" x2="305.625" y1="60" y2="60"/><!--MD5=[6d3946f4576b3d1380341ff87dc4fff4]
class InterventionsView--><rect fill="#FEFECE" filter="url(#f18a6hhx6njmbk)" height="60" id="InterventionsView" style="stroke: #A80036; stroke-width: 1.875;" width="160" x="307.5" y="221.25"/><ellipse cx="326.25" cy="241.25" fill="#ADD1B2" rx="13.75" ry="13.75" style="stroke: #A80036; stroke-width: 1.25;"/><path d="M328.75,236.875 Q329.0039,236.25 329.2969,235.9375 Q329.5898,235.625 329.9219,235.625 Q330.5078,235.625 330.8789,235.9766 Q331.25,236.3281 331.25,237.1484 L331.25,239.1016 Q331.25,239.9219 330.8984,240.2734 Q330.5469,240.625 330,240.625 Q329.5117,240.625 329.1992,240.4102 Q328.8867,240.1953 328.75,239.6289 Q328.6914,239.2383 328.4766,239.0234 Q328.0859,238.6133 327.3828,238.3789 Q326.6797,238.125 325.9766,238.125 Q325.0977,238.125 324.3555,238.4766 Q323.6328,238.8281 323.0664,239.6094 Q322.5,240.3906 322.5,241.4648 L322.5,242.6172 Q322.5,243.9063 323.5547,244.7656 Q324.6094,245.625 326.4844,245.625 Q327.5977,245.625 328.3789,245.3711 Q328.8281,245.2344 329.3359,244.7852 Q329.668,244.5313 329.8438,244.4531 Q330.0195,244.375 330.2344,244.375 Q330.6445,244.375 330.9375,244.707 Q331.25,245.0195 331.25,245.4688 Q331.25,245.8984 330.8203,246.4063 Q330.1953,247.1484 329.1992,247.5586 Q327.8906,248.125 326.2891,248.125 Q324.4141,248.125 322.9102,247.3828 Q321.6992,246.7969 320.8398,245.5273 Q320,244.2578 320,242.7539 L320,241.3867 Q320,239.8242 320.7422,238.457 Q321.5039,237.0898 322.8125,236.3672 Q324.1406,235.625 325.625,235.625 Q326.5234,235.625 327.3047,235.9375 Q328.0859,236.25 328.75,236.875 Z "/><text fill="#000000" font-family="sans-serif" font-size="15" lengthAdjust="spacingAndGlyphs" textLength="120" x="343.75" y="247.3877">InterventionsView</text><line style="stroke: #A80036; stroke-width: 1.875;" x1="308.75" x2="466.25" y1="261.25" y2="261.25"/><line style="stroke: #A80036; stroke-width: 1.875;" x1="308.75" x2="466.25" y1="271.25" y2="271.25"/><!--MD5=[1bad87b9dbf42e3983017760005a656d]
class ConfigClientView--><rect fill="#FEFECE" filter="url(#f18a6hhx6njmbk)" height="60" id="ConfigClientView" style="stroke: #A80036; stroke-width: 1.875;" width="157.5" x="455" y="10"/><ellipse cx="473.75" cy="30" fill="#ADD1B2" rx="13.75" ry="13.75" style="stroke: #A80036; stroke-width: 1.25;"/><path d="M476.25,25.625 Q476.5039,25 476.7969,24.6875 Q477.0898,24.375 477.4219,24.375 Q478.0078,24.375 478.3789,24.7266 Q478.75,25.0781 478.75,25.8984 L478.75,27.8516 Q478.75,28.6719 478.3984,29.0234 Q478.0469,29.375 477.5,29.375 Q477.0117,29.375 476.6992,29.1602 Q476.3867,28.9453 476.25,28.3789 Q476.1914,27.9883 475.9766,27.7734 Q475.5859,27.3633 474.8828,27.1289 Q474.1797,26.875 473.4766,26.875 Q472.5977,26.875 471.8555,27.2266 Q471.1328,27.5781 470.5664,28.3594 Q470,29.1406 470,30.2148 L470,31.3672 Q470,32.6563 471.0547,33.5156 Q472.1094,34.375 473.9844,34.375 Q475.0977,34.375 475.8789,34.1211 Q476.3281,33.9844 476.8359,33.5352 Q477.168,33.2813 477.3438,33.2031 Q477.5195,33.125 477.7344,33.125 Q478.1445,33.125 478.4375,33.457 Q478.75,33.7695 478.75,34.2188 Q478.75,34.6484 478.3203,35.1563 Q477.6953,35.8984 476.6992,36.3086 Q475.3906,36.875 473.7891,36.875 Q471.9141,36.875 470.4102,36.1328 Q469.1992,35.5469 468.3398,34.2773 Q467.5,33.0078 467.5,31.5039 L467.5,30.1367 Q467.5,28.5742 468.2422,27.207 Q469.0039,25.8398 470.3125,25.1172 Q471.6406,24.375 473.125,24.375 Q474.0234,24.375 474.8047,24.6875 Q475.5859,25 476.25,25.625 Z "/><text fill="#000000" font-family="sans-serif" font-size="15" lengthAdjust="spacingAndGlyphs" textLength="117.5" x="491.25" y="36.1377">ConfigClientView</text><line style="stroke: #A80036; stroke-width: 1.875;" x1="456.25" x2="611.25" y1="50" y2="50"/><line style="stroke: #A80036; stroke-width: 1.875;" x1="456.25" x2="611.25" y1="60" y2="60"/><!--MD5=[bdd4672b4bae795639395c14a0d6d497]
class DashboardView--><rect fill="#FEFECE" filter="url(#f18a6hhx6njmbk)" height="60" id="DashboardView" style="stroke: #A80036; stroke-width: 1.875;" width="150" x="600" y="221.25"/><ellipse cx="618.75" cy="241.25" fill="#ADD1B2" rx="13.75" ry="13.75" style="stroke: #A80036; stroke-width: 1.25;"/><path d="M621.25,236.875 Q621.5039,236.25 621.7969,235.9375 Q622.0898,235.625 622.4219,235.625 Q623.0078,235.625 623.3789,235.9766 Q623.75,236.3281 623.75,237.1484 L623.75,239.1016 Q623.75,239.9219 623.3984,240.2734 Q623.0469,240.625 622.5,240.625 Q622.0117,240.625 621.6992,240.4102 Q621.3867,240.1953 621.25,239.6289 Q621.1914,239.2383 620.9766,239.0234 Q620.5859,238.6133 619.8828,238.3789 Q619.1797,238.125 618.4766,238.125 Q617.5977,238.125 616.8555,238.4766 Q616.1328,238.8281 615.5664,239.6094 Q615,240.3906 615,241.4648 L615,242.6172 Q615,243.9063 616.0547,244.7656 Q617.1094,245.625 618.9844,245.625 Q620.0977,245.625 620.8789,245.3711 Q621.3281,245.2344 621.8359,244.7852 Q622.168,244.5313 622.3438,244.4531 Q622.5195,244.375 622.7344,244.375 Q623.1445,244.375 623.4375,244.707 Q623.75,245.0195 623.75,245.4688 Q623.75,245.8984 623.3203,246.4063 Q622.6953,247.1484 621.6992,247.5586 Q620.3906,248.125 618.7891,248.125 Q616.9141,248.125 615.4102,247.3828 Q614.1992,246.7969 613.3398,245.5273 Q612.5,244.2578 612.5,242.7539 L612.5,241.3867 Q612.5,239.8242 613.2422,238.457 Q614.0039,237.0898 615.3125,236.3672 Q616.6406,235.625 618.125,235.625 Q619.0234,235.625 619.8047,235.9375 Q620.5859,236.25 621.25,236.875 Z "/><text fill="#000000" font-family="sans-serif" font-size="15" lengthAdjust="spacingAndGlyphs" textLength="110" x="636.25" y="247.3877">DashboardView</text><line style="stroke: #A80036; stroke-width: 1.875;" x1="601.25" x2="748.75" y1="261.25" y2="261.25"/><line style="stroke: #A80036; stroke-width: 1.875;" x1="601.25" x2="748.75" y1="271.25" y2="271.25"/><!--MD5=[05e4c6501b8f899b86ed298a0ae3d692]
link ConfigVehicleView to Vehicle--><path d="M155.5313,281.25 C209.66,305.4595 286.0588,339.6295 336.1688,362.0415 " fill="none" id="ConfigVehicleView-&gt;Vehicle" style="stroke: #A80036; stroke-width: 1.25;"/><polygon fill="#A80036" points="342.1463,364.715,333.9181,355.5575,336.4409,362.1632,329.8352,364.6861,342.1463,364.715" style="stroke: #A80036; stroke-width: 1.25;"/><!--MD5=[40d8b619e0632680c8f1b5408673d623]
link VehiclesView to Vehicle--><path d="M241.1325,70.3538 C242.0888,117.36 248.83,211.745 285,281.25 C299.235,308.6048 323.1238,333.4136 344.26,351.9076 " fill="none" id="VehiclesView-&gt;Vehicle" style="stroke: #A80036; stroke-width: 1.25;"/><polygon fill="#A80036" points="349.0037,355.9939,343.7455,344.8622,344.2692,351.9139,337.2175,352.4376,349.0037,355.9939" style="stroke: #A80036; stroke-width: 1.25;"/><!--MD5=[d781d38a7e59b5f10de7b43248ff4f8c]
link InterventionsView to Vehicle--><path d="M387.5,281.25 C387.5,301.2537 387.5,328.0576 387.5,349.41 " fill="none" id="InterventionsView-&gt;Vehicle" style="stroke: #A80036; stroke-width: 1.25;"/><polygon fill="#A80036" points="387.5,355.848,392.5,344.598,387.5,349.598,382.5,344.598,387.5,355.848" style="stroke: #A80036; stroke-width: 1.25;"/><!--MD5=[6d0658b42fe72eb0d2d6ec169da6f3d1]
link ConfigClientView to Vehicle--><path d="M533.6312,70.3338 C532.3113,117.3138 524.915,211.66 488.75,281.25 C474.7338,308.2198 451.41,332.8325 430.6788,351.3101 " fill="none" id="ConfigClientView-&gt;Vehicle" style="stroke: #A80036; stroke-width: 1.25;"/><polygon fill="#A80036" points="425.4713,355.8734,437.2274,352.2189,430.1716,351.754,430.6364,344.6983,425.4713,355.8734" style="stroke: #A80036; stroke-width: 1.25;"/><!--MD5=[12cb02a75a603bb973ed3c9bb4a84f0c]
link DashboardView to Vehicle--><path d="M612.6163,281.25 C560.5638,305.24 487.2875,339.011 438.6438,361.4292 " fill="none" id="DashboardView-&gt;Vehicle" style="stroke: #A80036; stroke-width: 1.25;"/><polygon fill="#A80036" points="432.8375,364.1055,445.1474,363.9376,438.5137,361.4895,440.9618,354.8557,432.8375,364.1055" style="stroke: #A80036; stroke-width: 1.25;"/><!--MD5=[137b5f4bebe3fed1124b88178e9236a8]
@startuml
	class Vehicle {
	}

	ConfigVehicleView - -> Vehicle
	VehiclesView - - - -> Vehicle
	InterventionsView - -> Vehicle
	ConfigClientView - - - -> Vehicle
	DashboardView - -> Vehicle
@enduml

PlantUML version 1.2020.09(Sun May 10 12:51:06 CEST 2020)
(GPL source distribution)
Java Runtime: OpenJDK Runtime Environment
JVM: OpenJDK 64-Bit Server VM
Java Version: 11.0.8+10-b1094.1
Operating System: Windows 10
Default Encoding: Cp1252
Language: en
Country: GB
--></g></svg>