<?xml version="1.0" encoding="UTF-8" standalone="no"?><svg xmlns="http://www.w3.org/2000/svg" xmlns:xlink="http://www.w3.org/1999/xlink" contentScriptType="application/ecmascript" contentStyleType="text/css" height="2651.25px" preserveAspectRatio="none" style="width:1181px;height:2651px;" version="1.1" viewBox="0 0 1181 2651" width="1181.25px" zoomAndPan="magnify"><defs><filter height="300%" id="f1ovmq12f6tkrb" width="300%" x="-1" y="-1"><feGaussianBlur result="blurOut" stdDeviation="2.5"/><feColorMatrix in="blurOut" result="blurOut2" type="matrix" values="0 0 0 0 0 0 0 0 0 0 0 0 0 0 0 0 0 0 .4 0"/><feOffset dx="5.0" dy="5.0" in="blurOut2" result="blurOut3"/><feBlend in="SourceGraphic" in2="blurOut3" mode="normal"/></filter></defs><g><rect fill="#FEFECE" filter="url(#f1ovmq12f6tkrb)" height="62.5" rx="15.625" ry="15.625" style="stroke: #A80036; stroke-width: 1.875;" width="193.75" x="490" y="2575"/><line style="stroke: #A80036; stroke-width: 1.875;" x1="490" x2="683.75" y1="2609.5117" y2="2609.5117"/><text fill="#000000" font-family="sans-serif" font-size="17.5" lengthAdjust="spacingAndGlyphs" textLength="168.75" x="502.5" y="2599.4165">:OPENED_VEHICLES</text><rect fill="#FEFECE" filter="url(#f1ovmq12f6tkrb)" height="62.5" rx="15.625" ry="15.625" style="stroke: #A80036; stroke-width: 1.875;" width="136.25" x="518.75" y="2162.5"/><line style="stroke: #A80036; stroke-width: 1.875;" x1="518.75" x2="655" y1="2197.0117" y2="2197.0117"/><text fill="#000000" font-family="sans-serif" font-size="17.5" lengthAdjust="spacingAndGlyphs" textLength="111.25" x="531.25" y="2186.9165">:openVehicles</text><rect fill="#FEFECE" filter="url(#f1ovmq12f6tkrb)" height="62.5" rx="15.625" ry="15.625" style="stroke: #A80036; stroke-width: 1.875;" width="193.75" x="490" y="10"/><line style="stroke: #A80036; stroke-width: 1.875;" x1="490" x2="683.75" y1="44.5117" y2="44.5117"/><text fill="#000000" font-family="sans-serif" font-size="17.5" lengthAdjust="spacingAndGlyphs" textLength="168.75" x="502.5" y="34.4165">:OPENED_VEHICLES</text><rect fill="#FEFECE" filter="url(#f1ovmq12f6tkrb)" height="1937.0117" rx="15.625" ry="15.625" style="stroke: #A80036; stroke-width: 1.875;" width="1158.75" x="7.5" y="148.75"/><rect fill="#FFFFFF" height="1895" rx="15.625" ry="15.625" style="stroke: #FFFFFF; stroke-width: 1.25;" width="1151.25" x="11.25" y="187.0117"/><line style="stroke: #A80036; stroke-width: 1.875;" x1="7.5" x2="1166.25" y1="183.2617" y2="183.2617"/><text fill="#000000" font-family="sans-serif" font-size="17.5" lengthAdjust="spacingAndGlyphs" textLength="107.5" x="533.125" y="173.1665">createVehicle</text><rect fill="#FEFECE" filter="url(#f1ovmq12f6tkrb)" height="62.5" rx="15.625" ry="15.625" style="stroke: #A80036; stroke-width: 1.875;" width="62.5" x="498.75" y="339.5117"/><line style="stroke: #A80036; stroke-width: 1.875;" x1="498.75" x2="561.25" y1="374.0234" y2="374.0234"/><text fill="#000000" font-family="sans-serif" font-size="17.5" lengthAdjust="spacingAndGlyphs" textLength="0" x="532.5" y="363.9282"/><rect fill="#FEFECE" filter="url(#f1ovmq12f6tkrb)" height="62.5" rx="15.625" ry="15.625" style="stroke: #A80036; stroke-width: 1.875;" width="62.5" x="646.25" y="1259.5117"/><line style="stroke: #A80036; stroke-width: 1.875;" x1="646.25" x2="708.75" y1="1294.0234" y2="1294.0234"/><text fill="#000000" font-family="sans-serif" font-size="17.5" lengthAdjust="spacingAndGlyphs" textLength="0" x="680" y="1283.9282"/><rect fill="#FEFECE" filter="url(#f1ovmq12f6tkrb)" height="62.5" rx="15.625" ry="15.625" style="stroke: #A80036; stroke-width: 1.875;" width="62.5" x="497.5" y="1462.0117"/><line style="stroke: #A80036; stroke-width: 1.875;" x1="497.5" x2="560" y1="1496.5234" y2="1496.5234"/><text fill="#000000" font-family="sans-serif" font-size="17.5" lengthAdjust="spacingAndGlyphs" textLength="0" x="531.25" y="1486.4282"/><rect fill="#FEFECE" filter="url(#f1ovmq12f6tkrb)" height="62.5" rx="15.625" ry="15.625" style="stroke: #A80036; stroke-width: 1.875;" width="62.5" x="302.5" y="660.7617"/><line style="stroke: #A80036; stroke-width: 1.875;" x1="302.5" x2="365" y1="695.2734" y2="695.2734"/><text fill="#000000" font-family="sans-serif" font-size="17.5" lengthAdjust="spacingAndGlyphs" textLength="0" x="336.25" y="685.1782"/><rect fill="#FEFECE" filter="url(#f1ovmq12f6tkrb)" height="62.5" rx="15.625" ry="15.625" style="stroke: #A80036; stroke-width: 1.875;" width="62.5" x="431.25" y="995.7617"/><line style="stroke: #A80036; stroke-width: 1.875;" x1="431.25" x2="493.75" y1="1030.2734" y2="1030.2734"/><text fill="#000000" font-family="sans-serif" font-size="17.5" lengthAdjust="spacingAndGlyphs" textLength="0" x="465" y="1020.1782"/><polygon fill="#FEFECE" filter="url(#f1ovmq12f6tkrb)" points="333.75,899.5117,348.75,914.5117,333.75,929.5117,318.75,914.5117,333.75,899.5117" style="stroke: #A80036; stroke-width: 1.875;"/><rect fill="#FEFECE" filter="url(#f1ovmq12f6tkrb)" height="62.5" rx="15.625" ry="15.625" style="stroke: #A80036; stroke-width: 1.875;" width="62.5" x="457.5" y="1864.5117"/><line style="stroke: #A80036; stroke-width: 1.875;" x1="457.5" x2="520" y1="1899.0234" y2="1899.0234"/><text fill="#000000" font-family="sans-serif" font-size="17.5" lengthAdjust="spacingAndGlyphs" textLength="0" x="491.25" y="1888.9282"/><ellipse cx="530" cy="212.0117" fill="#000000" filter="url(#f1ovmq12f6tkrb)" rx="12.5" ry="12.5" style="stroke: none; stroke-width: 1.25;"/><ellipse cx="478.75" cy="2054.5117" fill="none" filter="url(#f1ovmq12f6tkrb)" rx="12.5" ry="12.5" style="stroke: #000000; stroke-width: 1.25;"/><ellipse cx="479.375" cy="2055.1367" fill="#000000" rx="7.5" ry="7.5" style="stroke: none; stroke-width: 1.25;"/><!--MD5=[b65ccc35028ae1e523154555221c7271]
link *start*createVehicle to 1--><path d="M530,225.0117 C530,247.5867 530,297.9117 530,332.7742 " fill="none" id="*start*createVehicle-&gt;1" style="stroke: #008000; stroke-width: 1.25;"/><polygon fill="#008000" points="530,339.0992,535,327.8492,530,332.8492,525,327.8492,530,339.0992" style="stroke: #008000; stroke-width: 1.25;"/><path d="M536.25,253.2617 L536.25,305.7617 L730,305.7617 L730,265.7617 L717.5,253.2617 L536.25,253.2617 " fill="#F5F5F5" filter="url(#f1ovmq12f6tkrb)" style="stroke: #008000; stroke-width: 1.25;"/><path d="M717.5,253.2617 L717.5,265.7617 L730,265.7617 L717.5,253.2617 " fill="#F5F5F5" style="stroke: #008000; stroke-width: 1.25;"/><text fill="#000000" font-family="sans-serif" font-size="16.25" font-weight="bold" lengthAdjust="spacingAndGlyphs" textLength="167.5" x="543.75" y="276.3806">Mechanic requests to</text><ellipse cx="550.625" cy="291.0156" fill="#000000" rx="3.125" ry="3.125" style="stroke: #000000; stroke-width: 0.0;"/><text fill="#000000" font-family="sans-serif" font-size="16.25" lengthAdjust="spacingAndGlyphs" textLength="103.75" x="560" y="296.8201">create Vehicle</text><!--MD5=[0ba0d8a0fd0e641c23f69743a446dfe6]
link 1 to 2--><path d="M498.1988,376.3242 C468.2063,382.0992 424.1688,395.2242 398.75,424.5117 C341.6875,490.2492 332.9875,598.0117 332.6688,654.1492 " fill="none" id="1-&gt;2" style="stroke: #A80036; stroke-width: 1.25;"/><polygon fill="#A80036" points="332.6663,660.4117,337.6663,649.1617,332.6663,654.1617,327.6663,649.1617,332.6663,660.4117" style="stroke: #A80036; stroke-width: 1.25;"/><path d="M405,430.7617 L405,627.0117 L665,627.0117 L665,443.2617 L652.5,430.7617 L405,430.7617 " fill="#F5F5F5" filter="url(#f1ovmq12f6tkrb)" style="stroke: #A80036; stroke-width: 1.25;"/><path d="M652.5,430.7617 L652.5,443.2617 L665,443.2617 L652.5,430.7617 " fill="#F5F5F5" style="stroke: #A80036; stroke-width: 1.25;"/><text fill="#000000" font-family="sans-serif" font-size="16.25" font-weight="bold" lengthAdjust="spacingAndGlyphs" textLength="127.5" x="412.5" y="453.8806">System requires</text><ellipse cx="419.375" cy="468.5156" fill="#000000" rx="3.125" ry="3.125" style="stroke: #000000; stroke-width: 0.0;"/><text fill="#000000" font-family="sans-serif" font-size="16.25" lengthAdjust="spacingAndGlyphs" textLength="217.5" x="428.75" y="474.3201">Registration plate (mandatory)</text><ellipse cx="419.375" cy="488.9551" fill="#000000" rx="3.125" ry="3.125" style="stroke: #000000; stroke-width: 0.0;"/><text fill="#000000" font-family="sans-serif" font-size="16.25" lengthAdjust="spacingAndGlyphs" textLength="133.75" x="428.75" y="494.7595">Brand (mandatory)</text><ellipse cx="419.375" cy="509.3945" fill="#000000" rx="3.125" ry="3.125" style="stroke: #000000; stroke-width: 0.0;"/><text fill="#000000" font-family="sans-serif" font-size="16.25" lengthAdjust="spacingAndGlyphs" textLength="180" x="428.75" y="515.199">Client Name (mandatory)</text><ellipse cx="419.375" cy="529.834" fill="#000000" rx="3.125" ry="3.125" style="stroke: #000000; stroke-width: 0.0;"/><text fill="#000000" font-family="sans-serif" font-size="16.25" lengthAdjust="spacingAndGlyphs" textLength="106.25" x="428.75" y="535.6384">Body of Frame</text><ellipse cx="419.375" cy="550.2734" fill="#000000" rx="3.125" ry="3.125" style="stroke: #000000; stroke-width: 0.0;"/><text fill="#000000" font-family="sans-serif" font-size="16.25" lengthAdjust="spacingAndGlyphs" textLength="36.25" x="428.75" y="556.0779">KMS</text><text fill="#000000" font-family="sans-serif" font-size="16.25" font-weight="bold" lengthAdjust="spacingAndGlyphs" textLength="113.75" x="412.5" y="576.5173">System allows</text><ellipse cx="419.375" cy="591.1523" fill="#000000" rx="3.125" ry="3.125" style="stroke: #000000; stroke-width: 0.0;"/><text fill="#000000" font-family="sans-serif" font-size="16.25" lengthAdjust="spacingAndGlyphs" textLength="47.5" x="428.75" y="596.9568">cancel</text><ellipse cx="419.375" cy="611.5918" fill="#000000" rx="3.125" ry="3.125" style="stroke: #000000; stroke-width: 0.0;"/><text fill="#000000" font-family="sans-serif" font-size="16.25" lengthAdjust="spacingAndGlyphs" textLength="175" x="428.75" y="617.3962">skip optional information</text><!--MD5=[1204e2d810115e71f49e08653a5e6b7b]
link 2 to *end*createVehicle--><path d="M302.0662,699.6492 C222.62,717.6992 21.25,776.9117 21.25,913.2617 C21.25,913.2617 21.25,913.2617 21.25,1897.0117 C21.25,1991.3021 373.665,2040.441 459.8863,2051.0522 " fill="none" id="2-&gt;*end*createVehicle" style="stroke: #A80036; stroke-width: 1.25;"/><polygon fill="#A80036" points="466.5125,2051.856,455.9456,2045.539,460.3079,2051.1042,454.7427,2055.4664,466.5125,2051.856" style="stroke: #A80036; stroke-width: 1.25;"/><path d="M27.5,1262.0117 L27.5,1314.5117 L222.5,1314.5117 L222.5,1274.5117 L210,1262.0117 L27.5,1262.0117 " fill="#F5F5F5" filter="url(#f1ovmq12f6tkrb)" style="stroke: #A80036; stroke-width: 1.25;"/><path d="M210,1262.0117 L210,1274.5117 L222.5,1274.5117 L210,1262.0117 " fill="#F5F5F5" style="stroke: #A80036; stroke-width: 1.25;"/><text fill="#000000" font-family="sans-serif" font-size="16.25" font-weight="bold" lengthAdjust="spacingAndGlyphs" textLength="168.75" x="35" y="1285.1306">mechanic requests to</text><ellipse cx="41.875" cy="1299.7656" fill="#000000" rx="3.125" ry="3.125" style="stroke: #000000; stroke-width: 0.0;"/><text fill="#000000" font-family="sans-serif" font-size="16.25" lengthAdjust="spacingAndGlyphs" textLength="47.5" x="51.25" y="1305.5701">cancel</text><!--MD5=[f6beec9fcfadaf89da455e3c32a463dc]
link 2 to A4--><path d="M333.75,723.3867 C333.75,768.8117 333.75,853.6555 333.75,892.6705 " fill="none" id="2-&gt;A4" style="stroke: #008000; stroke-width: 1.25;"/><polygon fill="#008000" points="333.75,899.4017,338.75,888.1517,333.75,893.1517,328.75,888.1517,333.75,899.4017" style="stroke: #008000; stroke-width: 1.25;"/><path d="M340,752.0117 L340,845.7617 L600,845.7617 L600,764.5117 L587.5,752.0117 L340,752.0117 " fill="#F5F5F5" filter="url(#f1ovmq12f6tkrb)" style="stroke: #008000; stroke-width: 1.25;"/><path d="M587.5,752.0117 L587.5,764.5117 L600,764.5117 L587.5,752.0117 " fill="#F5F5F5" style="stroke: #008000; stroke-width: 1.25;"/><text fill="#000000" font-family="sans-serif" font-size="16.25" font-weight="bold" lengthAdjust="spacingAndGlyphs" textLength="148.75" x="347.5" y="775.1306">Mechanic provides</text><ellipse cx="354.375" cy="789.7656" fill="#000000" rx="3.125" ry="3.125" style="stroke: #000000; stroke-width: 0.0;"/><text fill="#000000" font-family="sans-serif" font-size="16.25" lengthAdjust="spacingAndGlyphs" textLength="217.5" x="363.75" y="795.5701">Registration plate (mandatory)</text><ellipse cx="354.375" cy="810.2051" fill="#000000" rx="3.125" ry="3.125" style="stroke: #000000; stroke-width: 0.0;"/><text fill="#000000" font-family="sans-serif" font-size="16.25" lengthAdjust="spacingAndGlyphs" textLength="133.75" x="363.75" y="816.0095">Brand (mandatory)</text><ellipse cx="354.375" cy="830.6445" fill="#000000" rx="3.125" ry="3.125" style="stroke: #000000; stroke-width: 0.0;"/><text fill="#000000" font-family="sans-serif" font-size="16.25" lengthAdjust="spacingAndGlyphs" textLength="180" x="363.75" y="836.449">Client Name (mandatory)</text><!--MD5=[fb91fe12d955141a140365b143bff60e]
link A4 to A1--><path d="M328.8438,924.9017 C308.7975,963.5092 236.16,1116.6005 278.75,1233.2617 C318.5938,1342.3992 432.5125,1429.5392 491.8338,1469.033 " fill="none" id="A4-&gt;A1" style="stroke: #008000; stroke-width: 1.25;"/><polygon fill="#008000" points="497.3987,1472.7055,490.764,1462.3352,492.1826,1469.2625,485.2553,1470.6811,497.3987,1472.7055" style="stroke: #008000; stroke-width: 1.25;"/><path d="M285,1138.2617 L285,1170.7617 L442.5,1170.7617 L442.5,1150.7617 L430,1138.2617 L285,1138.2617 " fill="#F5F5F5" filter="url(#f1ovmq12f6tkrb)" style="stroke: #008000; stroke-width: 1.25;"/><path d="M430,1138.2617 L430,1150.7617 L442.5,1150.7617 L430,1138.2617 " fill="#F5F5F5" style="stroke: #008000; stroke-width: 1.25;"/><text fill="#000000" font-family="sans-serif" font-size="16.25" lengthAdjust="spacingAndGlyphs" textLength="131.25" x="292.5" y="1161.3806">[skip optional info]</text><!--MD5=[612183cfbbde0a03349137f9ace06cf2]
link A4 to 4--><path d="M341.4188,922.313 C357.6925,936.2167 396.595,969.4555 425.945,994.5305 " fill="none" id="A4-&gt;4" style="stroke: #008000; stroke-width: 1.25;"/><polygon fill="#008000" points="430.9375,998.7955,425.6309,987.6868,426.1852,994.7361,419.1359,995.2905,430.9375,998.7955" style="stroke: #008000; stroke-width: 1.25;"/><!--MD5=[910482590f1e03b42b082a885a985bc4]
link 4 to A0--><path d="M470.8588,1058.7105 C472.7313,1065.9167 474.6375,1073.5917 476.25,1080.7617 C491.385,1148.0517 459.4713,1181.4517 505,1233.2617 C539.005,1271.958 599.96,1284.1692 639.555,1287.943 " fill="none" id="4-&gt;A0" style="stroke: #008000; stroke-width: 1.25;"/><polygon fill="#008000" points="646.2037,1288.5167,635.4254,1282.5677,639.9769,1287.9792,634.5654,1292.5307,646.2037,1288.5167" style="stroke: #008000; stroke-width: 1.25;"/><path d="M511.25,1087.0117 L511.25,1222.0117 L665,1222.0117 L665,1099.5117 L652.5,1087.0117 L511.25,1087.0117 " fill="#F5F5F5" filter="url(#f1ovmq12f6tkrb)" style="stroke: #008000; stroke-width: 1.25;"/><path d="M652.5,1087.0117 L652.5,1099.5117 L665,1099.5117 L652.5,1087.0117 " fill="#F5F5F5" style="stroke: #008000; stroke-width: 1.25;"/><text fill="#000000" font-family="sans-serif" font-size="16.25" font-weight="bold" lengthAdjust="spacingAndGlyphs" textLength="127.5" x="518.75" y="1110.1306">System requires</text><ellipse cx="525.625" cy="1124.7656" fill="#000000" rx="3.125" ry="3.125" style="stroke: #000000; stroke-width: 0.0;"/><text fill="#000000" font-family="sans-serif" font-size="16.25" lengthAdjust="spacingAndGlyphs" textLength="91.25" x="535" y="1130.5701">last ITV date</text><ellipse cx="525.625" cy="1145.2051" fill="#000000" rx="3.125" ry="3.125" style="stroke: #000000; stroke-width: 0.0;"/><text fill="#000000" font-family="sans-serif" font-size="16.25" lengthAdjust="spacingAndGlyphs" textLength="96.25" x="535" y="1151.0095">next ITV date</text><text fill="#000000" font-family="sans-serif" font-size="16.25" font-weight="bold" lengthAdjust="spacingAndGlyphs" textLength="113.75" x="518.75" y="1171.449">System allows</text><ellipse cx="525.625" cy="1186.084" fill="#000000" rx="3.125" ry="3.125" style="stroke: #000000; stroke-width: 0.0;"/><text fill="#000000" font-family="sans-serif" font-size="16.25" lengthAdjust="spacingAndGlyphs" textLength="57.5" x="535" y="1191.8884">go back</text><ellipse cx="525.625" cy="1206.5234" fill="#000000" rx="3.125" ry="3.125" style="stroke: #000000; stroke-width: 0.0;"/><text fill="#000000" font-family="sans-serif" font-size="16.25" lengthAdjust="spacingAndGlyphs" textLength="47.5" x="535" y="1212.3279">cancel</text><!--MD5=[e3c9cbb10a0655971735cac4721456d7]
reverse link 1 to A0--><path d="M567.7388,374.3742 C601.9812,378.7242 650.875,390.8492 676.25,424.5117 C747.63,519.2117 693.75,572.1742 693.75,690.7617 C693.75,690.7617 693.75,690.7617 693.75,1028.2617 C693.75,1112.1055 685.31,1210.793 680.595,1259.3792 " fill="none" id="1&lt;-A0" style="stroke: #A80036; stroke-width: 1.25;"/><polygon fill="#A80036" points="561.5238,373.6617,572.1183,379.9322,567.7316,374.3863,573.2775,369.9996,561.5238,373.6617" style="stroke: #A80036; stroke-width: 1.25;"/><path d="M700,885.7617 L700,938.2617 L893.75,938.2617 L893.75,898.2617 L881.25,885.7617 L700,885.7617 " fill="#F5F5F5" filter="url(#f1ovmq12f6tkrb)" style="stroke: #A80036; stroke-width: 1.25;"/><path d="M881.25,885.7617 L881.25,898.2617 L893.75,898.2617 L881.25,885.7617 " fill="#F5F5F5" style="stroke: #A80036; stroke-width: 1.25;"/><text fill="#000000" font-family="sans-serif" font-size="16.25" font-weight="bold" lengthAdjust="spacingAndGlyphs" textLength="167.5" x="707.5" y="908.8806">Mechanic requests to</text><ellipse cx="714.375" cy="923.5156" fill="#000000" rx="3.125" ry="3.125" style="stroke: #000000; stroke-width: 0.0;"/><text fill="#000000" font-family="sans-serif" font-size="16.25" lengthAdjust="spacingAndGlyphs" textLength="57.5" x="723.75" y="929.3201">go back</text><!--MD5=[c6bff53cb18c0a4e843d35fc549994a8]
link A0 to *end*createVehicle--><path d="M709.0887,1294.618 C742.6937,1299.268 794.305,1312.2155 818.75,1348.2617 C873.7663,1429.388 1039.695,1722.5455 741.25,2019.5117 C707.0475,2053.5445 552.2937,2054.4522 497.8038,2053.6802 " fill="none" id="A0-&gt;*end*createVehicle" style="stroke: #A80036; stroke-width: 1.25;"/><polygon fill="#A80036" points="491.38,2053.5745,502.5471,2058.757,497.6292,2053.6763,502.7099,2048.7583,491.38,2053.5745" style="stroke: #A80036; stroke-width: 1.25;"/><path d="M920,1665.7617 L920,1718.2617 L1113.75,1718.2617 L1113.75,1678.2617 L1101.25,1665.7617 L920,1665.7617 " fill="#F5F5F5" filter="url(#f1ovmq12f6tkrb)" style="stroke: #A80036; stroke-width: 1.25;"/><path d="M1101.25,1665.7617 L1101.25,1678.2617 L1113.75,1678.2617 L1101.25,1665.7617 " fill="#F5F5F5" style="stroke: #A80036; stroke-width: 1.25;"/><text fill="#000000" font-family="sans-serif" font-size="16.25" font-weight="bold" lengthAdjust="spacingAndGlyphs" textLength="167.5" x="927.5" y="1688.8806">Mechanic requests to</text><ellipse cx="934.375" cy="1703.5156" fill="#000000" rx="3.125" ry="3.125" style="stroke: #000000; stroke-width: 0.0;"/><text fill="#000000" font-family="sans-serif" font-size="16.25" lengthAdjust="spacingAndGlyphs" textLength="47.5" x="943.75" y="1709.3201">cancel</text><!--MD5=[c2c6fdd1dc0e3cc43addcf6e2f93a043]
link A0 to A1--><path d="M669.2425,1322.0755 C657.6725,1363.8555 637.6113,1434.9067 633.75,1439.5117 C616.395,1460.2117 588.865,1473.5492 566.3488,1481.6005 " fill="none" id="A0-&gt;A1" style="stroke: #008000; stroke-width: 1.25;"/><polygon fill="#008000" points="560.1438,1483.733,572.4079,1484.8069,566.0547,1481.7025,569.1592,1475.3494,560.1438,1483.733" style="stroke: #008000; stroke-width: 1.25;"/><path d="M667.5,1354.5117 L667.5,1428.2617 L806.25,1428.2617 L806.25,1367.0117 L793.75,1354.5117 L667.5,1354.5117 " fill="#F5F5F5" filter="url(#f1ovmq12f6tkrb)" style="stroke: #008000; stroke-width: 1.25;"/><path d="M793.75,1354.5117 L793.75,1367.0117 L806.25,1367.0117 L793.75,1354.5117 " fill="#F5F5F5" style="stroke: #008000; stroke-width: 1.25;"/><text fill="#000000" font-family="sans-serif" font-size="16.25" font-weight="bold" lengthAdjust="spacingAndGlyphs" textLength="107.5" x="675" y="1377.6306">User provides</text><ellipse cx="681.875" cy="1392.2656" fill="#000000" rx="3.125" ry="3.125" style="stroke: #000000; stroke-width: 0.0;"/><text fill="#000000" font-family="sans-serif" font-size="16.25" lengthAdjust="spacingAndGlyphs" textLength="91.25" x="691.25" y="1398.0701">last ITV date</text><ellipse cx="681.875" cy="1412.7051" fill="#000000" rx="3.125" ry="3.125" style="stroke: #000000; stroke-width: 0.0;"/><text fill="#000000" font-family="sans-serif" font-size="16.25" lengthAdjust="spacingAndGlyphs" textLength="96.25" x="691.25" y="1418.5095">next ITV date</text><!--MD5=[f9e58d902f7eac143de74872ae8c8d96]
link A1 to 6--><path d="M525.7438,1524.5767 C518.5338,1596.6792 500.2763,1779.2517 492.4275,1857.7305 " fill="none" id="A1-&gt;6" style="stroke: #008000; stroke-width: 1.25;"/><polygon fill="#008000" points="491.7913,1864.098,497.8849,1853.4008,492.4126,1857.8789,487.9345,1852.4066,491.7913,1864.098" style="stroke: #008000; stroke-width: 1.25;"/><path d="M528.75,1553.2617 L528.75,1830.7617 L713.75,1830.7617 L713.75,1565.7617 L701.25,1553.2617 L528.75,1553.2617 " fill="#F5F5F5" filter="url(#f1ovmq12f6tkrb)" style="stroke: #008000; stroke-width: 1.25;"/><path d="M701.25,1553.2617 L701.25,1565.7617 L713.75,1565.7617 L701.25,1553.2617 " fill="#F5F5F5" style="stroke: #008000; stroke-width: 1.25;"/><text fill="#000000" font-family="sans-serif" font-size="16.25" font-weight="bold" lengthAdjust="spacingAndGlyphs" textLength="111.25" x="536.25" y="1576.3806">System shows</text><ellipse cx="543.125" cy="1591.0156" fill="#000000" rx="3.125" ry="3.125" style="stroke: #000000; stroke-width: 0.0;"/><text fill="#000000" font-family="sans-serif" font-size="16.25" lengthAdjust="spacingAndGlyphs" textLength="87.5" x="552.5" y="1596.8201">new Vehicle</text><rect fill="#000000" height="4.375" style="stroke: #000000; stroke-width: 0.0;" width="4.375" x="562.5" y="1610.8301"/><text fill="#000000" font-family="sans-serif" font-size="16.25" lengthAdjust="spacingAndGlyphs" textLength="126.25" x="568.75" y="1617.2595">Registration plate</text><rect fill="#000000" height="4.375" style="stroke: #000000; stroke-width: 0.0;" width="4.375" x="562.5" y="1631.2695"/><text fill="#000000" font-family="sans-serif" font-size="16.25" lengthAdjust="spacingAndGlyphs" textLength="42.5" x="568.75" y="1637.699">Brand</text><rect fill="#000000" height="4.375" style="stroke: #000000; stroke-width: 0.0;" width="4.375" x="562.5" y="1651.709"/><text fill="#000000" font-family="sans-serif" font-size="16.25" lengthAdjust="spacingAndGlyphs" textLength="88.75" x="568.75" y="1658.1384">Client Name</text><rect fill="#000000" height="4.375" style="stroke: #000000; stroke-width: 0.0;" width="4.375" x="562.5" y="1672.1484"/><text fill="#000000" font-family="sans-serif" font-size="16.25" lengthAdjust="spacingAndGlyphs" textLength="106.25" x="568.75" y="1678.5779">Body of Frame</text><rect fill="#000000" height="4.375" style="stroke: #000000; stroke-width: 0.0;" width="4.375" x="562.5" y="1692.5879"/><text fill="#000000" font-family="sans-serif" font-size="16.25" lengthAdjust="spacingAndGlyphs" textLength="36.25" x="568.75" y="1699.0173">KMS</text><rect fill="#000000" height="4.375" style="stroke: #000000; stroke-width: 0.0;" width="4.375" x="562.5" y="1713.0273"/><text fill="#000000" font-family="sans-serif" font-size="16.25" lengthAdjust="spacingAndGlyphs" textLength="96.25" x="568.75" y="1719.4568">Last ITV date</text><rect fill="#000000" height="4.375" style="stroke: #000000; stroke-width: 0.0;" width="4.375" x="562.5" y="1733.4668"/><text fill="#000000" font-family="sans-serif" font-size="16.25" lengthAdjust="spacingAndGlyphs" textLength="98.75" x="568.75" y="1739.8962">Next ITV date</text><text fill="#000000" font-family="sans-serif" font-size="16.25" font-weight="bold" lengthAdjust="spacingAndGlyphs" textLength="113.75" x="536.25" y="1760.3357">System allows</text><ellipse cx="543.125" cy="1774.9707" fill="#000000" rx="3.125" ry="3.125" style="stroke: #000000; stroke-width: 0.0;"/><text fill="#000000" font-family="sans-serif" font-size="16.25" lengthAdjust="spacingAndGlyphs" textLength="115" x="552.5" y="1780.7751">confirm creation</text><ellipse cx="543.125" cy="1795.4102" fill="#000000" rx="3.125" ry="3.125" style="stroke: #000000; stroke-width: 0.0;"/><text fill="#000000" font-family="sans-serif" font-size="16.25" lengthAdjust="spacingAndGlyphs" textLength="47.5" x="552.5" y="1801.2146">cancel</text><ellipse cx="543.125" cy="1815.8496" fill="#000000" rx="3.125" ry="3.125" style="stroke: #000000; stroke-width: 0.0;"/><text fill="#000000" font-family="sans-serif" font-size="16.25" lengthAdjust="spacingAndGlyphs" textLength="57.5" x="552.5" y="1821.6541">go back</text><!--MD5=[cb4f3d03f7d585db42746fe770dfd22e]
link 6 to *end*createVehicle--><path d="M520.1238,1914.9755 C532.2013,1923.703 544.6663,1935.383 551.25,1949.5117 C564.3913,1977.7115 567.975,1993.2783 551.25,2019.5117 C539.5213,2037.9082 514.875,2046.4367 497.5875,2050.2801 " fill="none" id="6-&gt;*end*createVehicle" style="stroke: #008000; stroke-width: 1.25;"/><polygon fill="#008000" points="491.14,2051.5751,503.1541,2054.2626,497.2677,2050.3447,501.1856,2044.4583,491.14,2051.5751" style="stroke: #008000; stroke-width: 1.25;"/><path d="M567.5,1955.7617 L567.5,2008.2617 L725,2008.2617 L725,1968.2617 L712.5,1955.7617 L567.5,1955.7617 " fill="#F5F5F5" filter="url(#f1ovmq12f6tkrb)" style="stroke: #008000; stroke-width: 1.25;"/><path d="M712.5,1955.7617 L712.5,1968.2617 L725,1968.2617 L712.5,1955.7617 " fill="#F5F5F5" style="stroke: #008000; stroke-width: 1.25;"/><text fill="#000000" font-family="sans-serif" font-size="16.25" font-weight="bold" lengthAdjust="spacingAndGlyphs" textLength="126.25" x="575" y="1978.8806">User requests to</text><ellipse cx="581.875" cy="1993.5156" fill="#000000" rx="3.125" ry="3.125" style="stroke: #000000; stroke-width: 0.0;"/><text fill="#000000" font-family="sans-serif" font-size="16.25" lengthAdjust="spacingAndGlyphs" textLength="115" x="591.25" y="1999.3201">confirm creation</text><!--MD5=[ec2ff2c3673e6412eb6457cb0fa066f9]
reverse link 4 to 6--><path d="M461.93,1064.958 C461.0388,1124.4392 459.3513,1245.608 458.75,1348.2617 C458.5125,1388.8167 457.415,1398.978 458.75,1439.5117 C464.0263,1599.733 479.7263,1791.1755 486.0588,1864.1942 " fill="none" id="4&lt;-6" style="stroke: #A80036; stroke-width: 1.25;"/><polygon fill="#A80036" points="462.025,1058.7042,456.8552,1069.8772,461.9304,1064.9535,466.8541,1070.0286,462.025,1058.7042" style="stroke: #A80036; stroke-width: 1.25;"/><path d="M465,1365.1367 L465,1417.6367 L617.5,1417.6367 L617.5,1377.6367 L605,1365.1367 L465,1365.1367 " fill="#F5F5F5" filter="url(#f1ovmq12f6tkrb)" style="stroke: #A80036; stroke-width: 1.25;"/><path d="M605,1365.1367 L605,1377.6367 L617.5,1377.6367 L605,1365.1367 " fill="#F5F5F5" style="stroke: #A80036; stroke-width: 1.25;"/><text fill="#000000" font-family="sans-serif" font-size="16.25" font-weight="bold" lengthAdjust="spacingAndGlyphs" textLength="126.25" x="472.5" y="1388.2556">User requests to</text><ellipse cx="479.375" cy="1402.8906" fill="#000000" rx="3.125" ry="3.125" style="stroke: #000000; stroke-width: 0.0;"/><text fill="#000000" font-family="sans-serif" font-size="16.25" lengthAdjust="spacingAndGlyphs" textLength="57.5" x="488.75" y="1408.6951">go back</text><!--MD5=[cb4f3d03f7d585db42746fe770dfd22e]
link 6 to *end*createVehicle--><path d="M457.3725,1902.1605 C430.6887,1908.3767 393.9638,1921.6967 376.25,1949.5117 C359.5375,1975.753 358.0125,1994.3065 376.25,2019.5117 C395.3238,2045.8725 435.6912,2051.9996 459.6838,2053.2141 " fill="none" id="6-&gt;*end*createVehicle-1" style="stroke: #A80036; stroke-width: 1.25;"/><polygon fill="#A80036" points="465.985,2053.4392,454.9207,2048.0406,459.739,2053.216,454.5636,2058.0342,465.985,2053.4392" style="stroke: #A80036; stroke-width: 1.25;"/><path d="M382.5,1955.7617 L382.5,2008.2617 L535,2008.2617 L535,1968.2617 L522.5,1955.7617 L382.5,1955.7617 " fill="#F5F5F5" filter="url(#f1ovmq12f6tkrb)" style="stroke: #A80036; stroke-width: 1.25;"/><path d="M522.5,1955.7617 L522.5,1968.2617 L535,1968.2617 L522.5,1955.7617 " fill="#F5F5F5" style="stroke: #A80036; stroke-width: 1.25;"/><text fill="#000000" font-family="sans-serif" font-size="16.25" font-weight="bold" lengthAdjust="spacingAndGlyphs" textLength="126.25" x="390" y="1978.8806">User requests to</text><ellipse cx="396.875" cy="1993.5156" fill="#000000" rx="3.125" ry="3.125" style="stroke: #000000; stroke-width: 0.0;"/><text fill="#000000" font-family="sans-serif" font-size="16.25" lengthAdjust="spacingAndGlyphs" textLength="47.5" x="406.25" y="1999.3201">cancel</text><!--MD5=[a9fbda3814dc1524a6bf0bcf41750fe5]
link initState to createVehicle--><path d="M586.875,72.9 C586.875,89.875 586.875,113.4 586.875,142.0375 " fill="none" id="initState-&gt;createVehicle" style="stroke: #A80036; stroke-width: 1.25;"/><polygon fill="#A80036" points="586.875,148.625,591.875,137.375,586.875,142.375,581.875,137.375,586.875,148.625" style="stroke: #A80036; stroke-width: 1.25;"/><!--MD5=[3f607717196b3a2260d020becec4fedb]
link createVehicle to openVehicles--><path d="M586.875,2086.6063 C586.875,2114.795 586.875,2138.3688 586.875,2156.065 " fill="none" id="createVehicle-&gt;openVehicles" style="stroke: #A80036; stroke-width: 1.25;"/><polygon fill="#A80036" points="586.875,2162.3163,591.875,2151.0663,586.875,2156.0663,581.875,2151.0663,586.875,2162.3163" style="stroke: #A80036; stroke-width: 1.25;"/><!--MD5=[4d63c344bab8329ce8268a6876443143]
link openVehicles to OPENED_VEHICLES--><path d="M586.875,2225.1488 C586.875,2298.8963 586.875,2488.2038 586.875,2568.315 " fill="none" id="openVehicles-&gt;OPENED_VEHICLES" style="stroke: #A80036; stroke-width: 1.25;"/><polygon fill="#A80036" points="586.875,2574.8075,591.875,2563.5575,586.875,2568.5575,581.875,2563.5575,586.875,2574.8075" style="stroke: #A80036; stroke-width: 1.25;"/><path d="M593.125,2268.75 L593.125,2526.25 L790.625,2526.25 L790.625,2281.25 L778.125,2268.75 L593.125,2268.75 " fill="#F5F5F5" filter="url(#f1ovmq12f6tkrb)" style="stroke: #A80036; stroke-width: 1.25;"/><path d="M778.125,2268.75 L778.125,2281.25 L790.625,2281.25 L778.125,2268.75 " fill="#F5F5F5" style="stroke: #A80036; stroke-width: 1.25;"/><text fill="#000000" font-family="sans-serif" font-size="16.25" font-weight="bold" lengthAdjust="spacingAndGlyphs" textLength="111.25" x="600.625" y="2291.8689">System shows</text><ellipse cx="607.5" cy="2306.5039" fill="#000000" rx="3.125" ry="3.125" style="stroke: #000000; stroke-width: 0.0;"/><text fill="#000000" font-family="sans-serif" font-size="16.25" lengthAdjust="spacingAndGlyphs" textLength="155" x="616.875" y="2312.3083">all vehicles in system</text><text fill="#000000" font-family="sans-serif" font-size="16.25" font-weight="bold" lengthAdjust="spacingAndGlyphs" textLength="113.75" x="600.625" y="2332.7478">System allows</text><ellipse cx="607.5" cy="2347.3828" fill="#000000" rx="3.125" ry="3.125" style="stroke: #000000; stroke-width: 0.0;"/><text fill="#000000" font-family="sans-serif" font-size="16.25" lengthAdjust="spacingAndGlyphs" textLength="88.75" x="616.875" y="2353.1873">create client</text><ellipse cx="607.5" cy="2367.8223" fill="#000000" rx="3.125" ry="3.125" style="stroke: #000000; stroke-width: 0.0;"/><text fill="#000000" font-family="sans-serif" font-size="16.25" lengthAdjust="spacingAndGlyphs" textLength="102.5" x="616.875" y="2373.6267">update vehicle</text><ellipse cx="607.5" cy="2388.2617" fill="#000000" rx="3.125" ry="3.125" style="stroke: #000000; stroke-width: 0.0;"/><text fill="#000000" font-family="sans-serif" font-size="16.25" lengthAdjust="spacingAndGlyphs" textLength="85" x="616.875" y="2394.0662">read vehicle</text><ellipse cx="607.5" cy="2408.7012" fill="#000000" rx="3.125" ry="3.125" style="stroke: #000000; stroke-width: 0.0;"/><text fill="#000000" font-family="sans-serif" font-size="16.25" lengthAdjust="spacingAndGlyphs" textLength="115" x="616.875" y="2414.5056">open dashboard</text><ellipse cx="607.5" cy="2429.1406" fill="#000000" rx="3.125" ry="3.125" style="stroke: #000000; stroke-width: 0.0;"/><text fill="#000000" font-family="sans-serif" font-size="16.25" lengthAdjust="spacingAndGlyphs" textLength="130" x="616.875" y="2434.9451">open interventions</text><ellipse cx="607.5" cy="2449.5801" fill="#000000" rx="3.125" ry="3.125" style="stroke: #000000; stroke-width: 0.0;"/><text fill="#000000" font-family="sans-serif" font-size="16.25" lengthAdjust="spacingAndGlyphs" textLength="87.5" x="616.875" y="2455.3845">open clients</text><ellipse cx="607.5" cy="2470.0195" fill="#000000" rx="3.125" ry="3.125" style="stroke: #000000; stroke-width: 0.0;"/><text fill="#000000" font-family="sans-serif" font-size="16.25" lengthAdjust="spacingAndGlyphs" textLength="115" x="616.875" y="2475.824">open operations</text><ellipse cx="607.5" cy="2490.459" fill="#000000" rx="3.125" ry="3.125" style="stroke: #000000; stroke-width: 0.0;"/><text fill="#000000" font-family="sans-serif" font-size="16.25" lengthAdjust="spacingAndGlyphs" textLength="43.75" x="616.875" y="2496.2634">logout</text><ellipse cx="607.5" cy="2510.8984" fill="#000000" rx="3.125" ry="3.125" style="stroke: #000000; stroke-width: 0.0;"/><text fill="#000000" font-family="sans-serif" font-size="16.25" lengthAdjust="spacingAndGlyphs" textLength="131.25" x="616.875" y="2516.7029">create intervention</text><!--MD5=[caa690762afbe09f22e14f090f8e3265]
@startuml
skinparam {
    NoteBackgroundColor #whiteSmoke
}

state OPENED_VEHICLES as ":OPENED_VEHICLES"
state openVehicles as ":openVehicles"
state initState as ":OPENED_VEHICLES"

initState -down-> createVehicle

state createVehicle {
state 1 as " "
state A0 as " "
state A1 as " "
state 2 as " "
state 4 as " "
state A4 <<choice>>
state 6 as " "

[*]  -[#Green]down-> 1
note on link
    <b>Mechanic requests to</b>
    * create Vehicle
end note

1 -down-> 2
note on link
    <b>System requires</b>
    * Registration plate (mandatory)
    * Brand (mandatory)
    * Client Name (mandatory)
    * Body of Frame
    * KMS
    <b>System allows</b>
    * cancel
    * skip optional information
end note

2 -down-> [*]
note on link
<b>mechanic requests to
* cancel
end note

2 -[#Green]down-> A4
note on link
<b>Mechanic provides</b>
* Registration plate (mandatory)
* Brand (mandatory)
* Client Name (mandatory)
end note

A4 -[#Green]down-> A1
note on link
[skip optional info]
end note


A4 -[#Green]down-> 4

4 -[#Green]down-> A0
note on link
<b>System requires</b>
* last ITV date
* next ITV date
<b>System allows</b>
* go back
* cancel
end note

A0 -left-> 1
note on link
<b>Mechanic requests to</b>
* go back
end note

A0 -down-> [*]
note on link
<b>Mechanic requests to</b>
* cancel
end note

A0 -[#Green]down-> A1
note on link
<b>User provides</b>
* last ITV date
* next ITV date
end note

A1 -[#Green]down-> 6
note on link
    <b>System shows</b>
    * new Vehicle
    ** Registration plate
    ** Brand
    ** Client Name
    ** Body of Frame
    ** KMS
    ** Last ITV date
    ** Next ITV date
    <b>System allows</b>
    *confirm creation
    *cancel
    *go back
end note

6 -[#Green]down-> [*]
note on link
<b>User requests to</b>
* confirm creation
end note

6 -up-> 4
note on link
<b>User requests to</b>
* go back
end note

6 -down-> [*]
note on link
<b>User requests to</b>
* cancel
end note
}

createVehicle - -> openVehicles

openVehicles - -> OPENED_VEHICLES
note on link
<b>System shows</b>
* all vehicles in system
<b>System allows</b>
* create client
* update vehicle
* read vehicle
* open dashboard
* open interventions
* open clients
* open operations
* logout
* create intervention
end note

@enduml

PlantUML version 1.2020.09(Sun May 10 12:51:06 CEST 2020)
(GPL source distribution)
Java Runtime: OpenJDK Runtime Environment
JVM: OpenJDK 64-Bit Server VM
Java Version: 11.0.6+8-b765.25
Operating System: Windows 10
Default Encoding: Cp1252
Language: en
Country: GB
--></g></svg>