<?xml version="1.0" encoding="UTF-8" standalone="no"?><svg xmlns="http://www.w3.org/2000/svg" xmlns:xlink="http://www.w3.org/1999/xlink" contentScriptType="application/ecmascript" contentStyleType="text/css" height="768.75px" preserveAspectRatio="none" style="width:862px;height:768px;" version="1.1" viewBox="0 0 862 768" width="862.5px" zoomAndPan="magnify"><defs><filter height="300%" id="fzfnprsba88mv" width="300%" x="-1" y="-1"><feGaussianBlur result="blurOut" stdDeviation="2.5"/><feColorMatrix in="blurOut" result="blurOut2" type="matrix" values="0 0 0 0 0 0 0 0 0 0 0 0 0 0 0 0 0 0 .4 0"/><feOffset dx="5.0" dy="5.0" in="blurOut2" result="blurOut3"/><feBlend in="SourceGraphic" in2="blurOut3" mode="normal"/></filter></defs><g><rect fill="#FEFECE" filter="url(#fzfnprsba88mv)" height="62.5" rx="15.625" ry="15.625" style="stroke: #A80036; stroke-width: 1.875;" width="193.75" x="7.5" y="10"/><line style="stroke: #A80036; stroke-width: 1.875;" x1="7.5" x2="201.25" y1="44.5117" y2="44.5117"/><text fill="#000000" font-family="sans-serif" font-size="17.5" lengthAdjust="spacingAndGlyphs" textLength="168.75" x="20" y="34.4165">:OPENED_VEHICLES</text><rect fill="#FEFECE" filter="url(#fzfnprsba88mv)" height="62.5" rx="15.625" ry="15.625" style="stroke: #A80036; stroke-width: 1.875;" width="182.5" x="245.625" y="10"/><line style="stroke: #A80036; stroke-width: 1.875;" x1="245.625" x2="428.125" y1="44.5117" y2="44.5117"/><text fill="#000000" font-family="sans-serif" font-size="17.5" lengthAdjust="spacingAndGlyphs" textLength="157.5" x="258.125" y="34.4165">:OPENED_CLIENTS</text><rect fill="#FEFECE" filter="url(#fzfnprsba88mv)" height="62.5" rx="15.625" ry="15.625" style="stroke: #A80036; stroke-width: 1.875;" width="246.25" x="472.5" y="10"/><line style="stroke: #A80036; stroke-width: 1.875;" x1="472.5" x2="718.75" y1="44.5117" y2="44.5117"/><text fill="#000000" font-family="sans-serif" font-size="17.5" lengthAdjust="spacingAndGlyphs" textLength="221.25" x="485" y="34.4165">:OPENED_INTERVENTIONS</text><rect fill="#FEFECE" filter="url(#fzfnprsba88mv)" height="62.5" rx="15.625" ry="15.625" style="stroke: #A80036; stroke-width: 1.875;" width="85" x="763.125" y="10"/><line style="stroke: #A80036; stroke-width: 1.875;" x1="763.125" x2="848.125" y1="44.5117" y2="44.5117"/><text fill="#000000" font-family="sans-serif" font-size="17.5" lengthAdjust="spacingAndGlyphs" textLength="60" x="775.625" y="34.4165">:INITIAL</text><rect fill="#FEFECE" filter="url(#fzfnprsba88mv)" height="62.5" rx="15.625" ry="15.625" style="stroke: #A80036; stroke-width: 1.875;" width="218.75" x="356.25" y="692.5"/><line style="stroke: #A80036; stroke-width: 1.875;" x1="356.25" x2="575" y1="727.0117" y2="727.0117"/><text fill="#000000" font-family="sans-serif" font-size="17.5" lengthAdjust="spacingAndGlyphs" textLength="193.75" x="368.75" y="716.9165">:OPENED_DASHBOARD</text><rect fill="#FEFECE" filter="url(#fzfnprsba88mv)" height="234.5117" rx="15.625" ry="15.625" style="stroke: #A80036; stroke-width: 1.875;" width="240" x="345.625" y="148.75"/><rect fill="#FFFFFF" height="192.5" rx="15.625" ry="15.625" style="stroke: #FFFFFF; stroke-width: 1.25;" width="232.5" x="349.375" y="187.0117"/><line style="stroke: #A80036; stroke-width: 1.875;" x1="345.625" x2="585.625" y1="183.2617" y2="183.2617"/><text fill="#000000" font-family="sans-serif" font-size="17.5" lengthAdjust="spacingAndGlyphs" textLength="127.5" x="401.875" y="173.1665">openDashboard</text><ellipse cx="371.875" cy="212.0117" fill="#000000" filter="url(#fzfnprsba88mv)" rx="12.5" ry="12.5" style="stroke: none; stroke-width: 1.25;"/><ellipse cx="371.875" cy="352.0117" fill="none" filter="url(#fzfnprsba88mv)" rx="12.5" ry="12.5" style="stroke: #000000; stroke-width: 1.25;"/><ellipse cx="372.5" cy="352.6367" fill="#000000" rx="7.5" ry="7.5" style="stroke: none; stroke-width: 1.25;"/><!--MD5=[7760f02715564001c393a248f9ff75f1]
link *start*openDashboard to *end*openDashboard--><path d="M371.875,224.5142 C371.875,248.3841 371.875,304.2567 371.875,332.9957 " fill="none" id="*start*openDashboard-&gt;*end*openDashboard" style="stroke: #A80036; stroke-width: 1.25;"/><polygon fill="#A80036" points="371.875,339.3541,376.875,328.1041,371.875,333.1041,366.875,328.1041,371.875,339.3541" style="stroke: #A80036; stroke-width: 1.25;"/><path d="M378.125,253.2617 L378.125,305.7617 L533.125,305.7617 L533.125,265.7617 L520.625,253.2617 L378.125,253.2617 " fill="#F5F5F5" filter="url(#fzfnprsba88mv)" style="stroke: #A80036; stroke-width: 1.25;"/><path d="M520.625,253.2617 L520.625,265.7617 L533.125,265.7617 L520.625,253.2617 " fill="#F5F5F5" style="stroke: #A80036; stroke-width: 1.25;"/><text fill="#000000" font-family="sans-serif" font-size="16.25" font-weight="bold" lengthAdjust="spacingAndGlyphs" textLength="126.25" x="385.625" y="276.3806">User requests to</text><ellipse cx="392.5" cy="291.0156" fill="#000000" rx="3.125" ry="3.125" style="stroke: #000000; stroke-width: 0.0;"/><text fill="#000000" font-family="sans-serif" font-size="16.25" lengthAdjust="spacingAndGlyphs" textLength="112.5" x="401.875" y="296.8201">openDashboard</text><!--MD5=[40cf36ddaf1ccebc1ca33a1b7169da3a]
link startState1 to openDashboard--><path d="M153.095,72.5075 C200.8625,101.9275 275.6912,148.0163 340.1538,187.72 " fill="none" id="startState1-&gt;openDashboard" style="stroke: #A80036; stroke-width: 1.25;"/><polygon fill="#A80036" points="345.565,191.0538,338.6097,180.8957,340.2439,187.7754,333.3642,189.4096,345.565,191.0538" style="stroke: #A80036; stroke-width: 1.25;"/><!--MD5=[ef425f6a1a8b72260792c1d076053469]
link startState2 to openDashboard--><path d="M354.2388,72.5075 C365.0688,91.2225 379.8013,116.6825 395.0025,142.9538 " fill="none" id="startState2-&gt;openDashboard" style="stroke: #A80036; stroke-width: 1.25;"/><polygon fill="#A80036" points="398.2525,148.57,396.9449,136.3286,395.1219,143.1606,388.2898,141.3376,398.2525,148.57" style="stroke: #A80036; stroke-width: 1.25;"/><!--MD5=[bd01fe0b97804be981629aa9322c1366]
link startState3 to openDashboard--><path d="M578.0925,72.5075 C567.1575,91.2225 552.2825,116.6825 536.9325,142.9538 " fill="none" id="startState3-&gt;openDashboard" style="stroke: #A80036; stroke-width: 1.25;"/><polygon fill="#A80036" points="533.6513,148.57,543.6443,141.3796,536.8047,143.1738,535.0105,136.3342,533.6513,148.57" style="stroke: #A80036; stroke-width: 1.25;"/><!--MD5=[d0135f51b8bfee4406ad0b33ab60a0e3]
link startState4 to openDashboard--><path d="M762.9075,70.455 C719.9725,98.5525 651.69,143.2362 591.39,182.6988 " fill="none" id="startState4-&gt;openDashboard" style="stroke: #A80036; stroke-width: 1.25;"/><polygon fill="#A80036" points="585.9525,186.2563,598.1035,184.2772,591.1815,182.8328,592.6259,175.9108,585.9525,186.2563" style="stroke: #A80036; stroke-width: 1.25;"/><!--MD5=[2b1bc4c3aa9049d17b93068144ec0bd7]
link openDashboard to endState--><path d="M465.625,384.0825 C465.625,483.87 465.625,621.3513 465.625,686.0497 " fill="none" id="openDashboard-&gt;endState" style="stroke: #A80036; stroke-width: 1.25;"/><polygon fill="#A80036" points="465.625,692.4537,470.625,681.2037,465.625,686.2037,460.625,681.2037,465.625,692.4537" style="stroke: #A80036; stroke-width: 1.25;"/><path d="M471.875,427.5 L471.875,643.75 L725.625,643.75 L725.625,440 L713.125,427.5 L471.875,427.5 " fill="#F5F5F5" filter="url(#fzfnprsba88mv)" style="stroke: #A80036; stroke-width: 1.25;"/><path d="M713.125,427.5 L713.125,440 L725.625,440 L713.125,427.5 " fill="#F5F5F5" style="stroke: #A80036; stroke-width: 1.25;"/><text fill="#000000" font-family="sans-serif" font-size="16.25" font-weight="bold" lengthAdjust="spacingAndGlyphs" textLength="111.25" x="479.375" y="450.6189">System shows</text><ellipse cx="486.25" cy="465.2539" fill="#000000" rx="3.125" ry="3.125" style="stroke: #000000; stroke-width: 0.0;"/><text fill="#000000" font-family="sans-serif" font-size="16.25" lengthAdjust="spacingAndGlyphs" textLength="211.25" x="495.625" y="471.0583">mechanic active interventions</text><text fill="#000000" font-family="sans-serif" font-size="16.25" font-weight="bold" lengthAdjust="spacingAndGlyphs" textLength="113.75" x="479.375" y="491.4978">System allows</text><ellipse cx="486.25" cy="506.1328" fill="#000000" rx="3.125" ry="3.125" style="stroke: #000000; stroke-width: 0.0;"/><text fill="#000000" font-family="sans-serif" font-size="16.25" lengthAdjust="spacingAndGlyphs" textLength="97.5" x="495.625" y="511.9373">open vehicles</text><ellipse cx="486.25" cy="526.5723" fill="#000000" rx="3.125" ry="3.125" style="stroke: #000000; stroke-width: 0.0;"/><text fill="#000000" font-family="sans-serif" font-size="16.25" lengthAdjust="spacingAndGlyphs" textLength="130" x="495.625" y="532.3767">open interventions</text><ellipse cx="486.25" cy="547.0117" fill="#000000" rx="3.125" ry="3.125" style="stroke: #000000; stroke-width: 0.0;"/><text fill="#000000" font-family="sans-serif" font-size="16.25" lengthAdjust="spacingAndGlyphs" textLength="87.5" x="495.625" y="552.8162">open clients</text><ellipse cx="486.25" cy="567.4512" fill="#000000" rx="3.125" ry="3.125" style="stroke: #000000; stroke-width: 0.0;"/><text fill="#000000" font-family="sans-serif" font-size="16.25" lengthAdjust="spacingAndGlyphs" textLength="115" x="495.625" y="573.2556">open operations</text><ellipse cx="486.25" cy="587.8906" fill="#000000" rx="3.125" ry="3.125" style="stroke: #000000; stroke-width: 0.0;"/><text fill="#000000" font-family="sans-serif" font-size="16.25" lengthAdjust="spacingAndGlyphs" textLength="43.75" x="495.625" y="593.6951">logout</text><ellipse cx="486.25" cy="608.3301" fill="#000000" rx="3.125" ry="3.125" style="stroke: #000000; stroke-width: 0.0;"/><text fill="#000000" font-family="sans-serif" font-size="16.25" lengthAdjust="spacingAndGlyphs" textLength="131.25" x="495.625" y="614.1345">create intervention</text><ellipse cx="486.25" cy="628.7695" fill="#000000" rx="3.125" ry="3.125" style="stroke: #000000; stroke-width: 0.0;"/><text fill="#000000" font-family="sans-serif" font-size="16.25" lengthAdjust="spacingAndGlyphs" textLength="123.75" x="495.625" y="634.574">finish intervention</text><!--MD5=[07b700f627d6c26af80134ee4ddf644e]
@startuml
skinparam {
        NoteBackgroundColor #whiteSmoke
}

state startState1 as ":OPENED_VEHICLES"
state startState2 as ":OPENED_CLIENTS"
state startState3 as ":OPENED_INTERVENTIONS"
state startState4 as ":INITIAL"
state endState as ":OPENED_DASHBOARD"

startState1 - -> openDashboard
startState2 - -> openDashboard
startState3 - -> openDashboard
startState4 - -> openDashboard

state openDashboard {

[*] - -> [*]
note on link
<b>User requests to</b>
* openDashboard
end note

}

openDashboard - -> endState
note on link
<b>System shows
* mechanic active interventions
<b>System allows
* open vehicles
* open interventions
* open clients
* open operations
* logout
* create intervention
* finish intervention
end note

@enduml

PlantUML version 1.2020.09(Sun May 10 12:51:06 CEST 2020)
(GPL source distribution)
Java Runtime: OpenJDK Runtime Environment
JVM: OpenJDK 64-Bit Server VM
Java Version: 11.0.6+8-b765.25
Operating System: Windows 10
Default Encoding: Cp1252
Language: en
Country: GB
--></g></svg>