<?xml version="1.0" encoding="UTF-8" standalone="no"?><svg xmlns="http://www.w3.org/2000/svg" xmlns:xlink="http://www.w3.org/1999/xlink" contentScriptType="application/ecmascript" contentStyleType="text/css" height="1826.25px" preserveAspectRatio="none" style="width:871px;height:1826px;" version="1.1" viewBox="0 0 871 1826" width="871.25px" zoomAndPan="magnify"><defs><filter height="300%" id="f1ahsi0413zzfk" width="300%" x="-1" y="-1"><feGaussianBlur result="blurOut" stdDeviation="2.5"/><feColorMatrix in="blurOut" result="blurOut2" type="matrix" values="0 0 0 0 0 0 0 0 0 0 0 0 0 0 0 0 0 0 .4 0"/><feOffset dx="5.0" dy="5.0" in="blurOut2" result="blurOut3"/><feBlend in="SourceGraphic" in2="blurOut3" mode="normal"/></filter></defs><g><!--MD5=[e87e603ccfa50601551ee5182e1669af]
cluster usecase--><rect fill="#FEFECE" filter="url(#f1ahsi0413zzfk)" height="1267.5" rx="15.625" ry="15.625" style="stroke: #A80036; stroke-width: 1.875;" width="576.25" x="76.875" y="141.25"/><rect fill="#FFFFFF" height="1225.4883" rx="15.625" ry="15.625" style="stroke: #FFFFFF; stroke-width: 1.25;" width="568.75" x="80.625" y="179.5117"/><line style="stroke: #A80036; stroke-width: 1.875;" x1="76.875" x2="653.125" y1="175.7617" y2="175.7617"/><text fill="#000000" font-family="sans-serif" font-size="17.5" lengthAdjust="spacingAndGlyphs" textLength="66.25" x="331.875" y="164.4165">usecase</text><ellipse cx="293.125" cy="208.75" fill="#000000" filter="url(#f1ahsi0413zzfk)" rx="12.5" ry="12.5" style="stroke: none; stroke-width: 1.25;"/><rect fill="#FEFECE" filter="url(#f1ahsi0413zzfk)" height="62.5" rx="15.625" ry="15.625" style="stroke: #A80036; stroke-width: 1.875;" width="62.5" x="261.875" y="366.25"/><line style="stroke: #A80036; stroke-width: 1.875;" x1="261.875" x2="324.375" y1="400.7617" y2="400.7617"/><text fill="#000000" font-family="sans-serif" font-size="17.5" lengthAdjust="spacingAndGlyphs" textLength="10" x="288.125" y="390.6665">1</text><rect fill="#FEFECE" filter="url(#f1ahsi0413zzfk)" height="62.5" rx="15.625" ry="15.625" style="stroke: #A80036; stroke-width: 1.875;" width="62.5" x="393.125" y="901.25"/><line style="stroke: #A80036; stroke-width: 1.875;" x1="393.125" x2="455.625" y1="935.7617" y2="935.7617"/><text fill="#000000" font-family="sans-serif" font-size="17.5" lengthAdjust="spacingAndGlyphs" textLength="10" x="419.375" y="925.6665">2</text><rect fill="#FEFECE" filter="url(#f1ahsi0413zzfk)" height="62.5" rx="15.625" ry="15.625" style="stroke: #A80036; stroke-width: 1.875;" width="62.5" x="390.625" y="1108.75"/><line style="stroke: #A80036; stroke-width: 1.875;" x1="390.625" x2="453.125" y1="1143.2617" y2="1143.2617"/><text fill="#000000" font-family="sans-serif" font-size="17.5" lengthAdjust="spacingAndGlyphs" textLength="10" x="416.875" y="1133.1665">3</text><rect fill="#FEFECE" filter="url(#f1ahsi0413zzfk)" height="62.5" rx="15.625" ry="15.625" style="stroke: #A80036; stroke-width: 1.875;" width="62.5" x="404.375" y="1316.25"/><line style="stroke: #A80036; stroke-width: 1.875;" x1="404.375" x2="466.875" y1="1350.7617" y2="1350.7617"/><text fill="#000000" font-family="sans-serif" font-size="17.5" lengthAdjust="spacingAndGlyphs" textLength="10" x="430.625" y="1340.6665">4</text><rect fill="#FEFECE" filter="url(#f1ahsi0413zzfk)" height="62.5" rx="15.625" ry="15.625" style="stroke: #A80036; stroke-width: 1.875;" width="158.75" x="7.5" y="10"/><line style="stroke: #A80036; stroke-width: 1.875;" x1="7.5" x2="166.25" y1="44.5117" y2="44.5117"/><text fill="#000000" font-family="sans-serif" font-size="17.5" lengthAdjust="spacingAndGlyphs" textLength="133.75" x="20" y="34.4165">:OPEN_VEHICLE</text><rect fill="#FEFECE" filter="url(#f1ahsi0413zzfk)" height="62.5" rx="15.625" ry="15.625" style="stroke: #A80036; stroke-width: 1.875;" width="158.75" x="441.25" y="1648.75"/><line style="stroke: #A80036; stroke-width: 1.875;" x1="441.25" x2="600" y1="1683.2617" y2="1683.2617"/><text fill="#000000" font-family="sans-serif" font-size="17.5" lengthAdjust="spacingAndGlyphs" textLength="133.75" x="453.75" y="1673.1665">:OPEN_VEHICLE</text><rect fill="#FEFECE" filter="url(#f1ahsi0413zzfk)" height="62.5" rx="15.625" ry="15.625" style="stroke: #A80036; stroke-width: 1.875;" width="170" x="683.125" y="1108.75"/><line style="stroke: #A80036; stroke-width: 1.875;" x1="683.125" x2="853.125" y1="1143.2617" y2="1143.2617"/><text fill="#000000" font-family="sans-serif" font-size="17.5" lengthAdjust="spacingAndGlyphs" textLength="145" x="695.625" y="1133.1665">:OPEN_VEHICLES</text><ellipse cx="669.375" cy="1800" fill="none" filter="url(#f1ahsi0413zzfk)" rx="12.5" ry="12.5" style="stroke: #000000; stroke-width: 1.25;"/><ellipse cx="670" cy="1800.625" fill="#000000" rx="7.5" ry="7.5" style="stroke: none; stroke-width: 1.25;"/><!--MD5=[23c818df494d5cf74003ae78d6d87bde]
link initstate to usecase--><path d="M86.875,72.7625 C86.875,84.4844 86.875,98.5969 86.875,113.2135 C86.875,120.5218 86.875,127.9561 86.875,135.2806 C86.875,137.1118 86.875,138.936 86.875,140.7498 " fill="none" id="initstate-&gt;usecase" style="stroke: #008000; stroke-width: 1.25;"/><polygon fill="#008000" points="86.875,140.7498,91.875,129.4998,86.875,134.4998,81.875,129.4998,86.875,140.7498" style="stroke: #008000; stroke-width: 1.25;"/><!--MD5=[49b0d40b42421284764c72336c9702f9]
link *start*usecase to 1--><path d="M293.125,221.65 C293.125,248.7125 293.125,316.7625 293.125,359.475 " fill="none" id="*start*usecase-&gt;1" style="stroke: #008000; stroke-width: 1.25;"/><polygon fill="#008000" points="293.125,366.1,298.125,354.85,293.125,359.85,288.125,354.85,293.125,366.1" style="stroke: #008000; stroke-width: 1.25;"/><path d="M299.375,265 L299.375,317.5 L451.875,317.5 L451.875,277.5 L439.375,265 L299.375,265 " fill="#F5F5F5" filter="url(#f1ahsi0413zzfk)" style="stroke: #008000; stroke-width: 1.25;"/><path d="M439.375,265 L439.375,277.5 L451.875,277.5 L439.375,265 " fill="#F5F5F5" style="stroke: #008000; stroke-width: 1.25;"/><text fill="#000000" font-family="sans-serif" font-size="16.25" font-weight="bold" lengthAdjust="spacingAndGlyphs" textLength="126.25" x="306.875" y="288.1189">User requests to</text><ellipse cx="313.75" cy="302.7539" fill="#000000" rx="3.125" ry="3.125" style="stroke: #000000; stroke-width: 0.0;"/><text fill="#000000" font-family="sans-serif" font-size="16.25" lengthAdjust="spacingAndGlyphs" textLength="102.5" x="323.125" y="308.5583">updateVehicle</text><!--MD5=[0ba0d8a0fd0e641c23f69743a446dfe6]
link 1 to 2--><path d="M261.8275,404.3875 C229.2,412.1125 179.7038,429.4625 156.875,466.25 C63.7198,616.3613 48.3053,724.3813 156.875,863.75 C184.9625,899.805 319.8338,919.6163 386.6688,927.365 " fill="none" id="1-&gt;2" style="stroke: #008000; stroke-width: 1.25;"/><polygon fill="#008000" points="392.9188,928.0775,382.3068,921.8366,386.7089,927.3703,381.1752,931.7723,392.9188,928.0775" style="stroke: #008000; stroke-width: 1.25;"/><path d="M163.125,472.5 L163.125,852.5 L360.625,852.5 L360.625,485 L348.125,472.5 L163.125,472.5 " fill="#F5F5F5" filter="url(#f1ahsi0413zzfk)" style="stroke: #008000; stroke-width: 1.25;"/><path d="M348.125,472.5 L348.125,485 L360.625,485 L348.125,472.5 " fill="#F5F5F5" style="stroke: #008000; stroke-width: 1.25;"/><text fill="#000000" font-family="sans-serif" font-size="16.25" font-weight="bold" lengthAdjust="spacingAndGlyphs" textLength="111.25" x="170.625" y="495.6189">System shows</text><ellipse cx="177.5" cy="510.2539" fill="#000000" rx="3.125" ry="3.125" style="stroke: #000000; stroke-width: 0.0;"/><text fill="#000000" font-family="sans-serif" font-size="16.25" lengthAdjust="spacingAndGlyphs" textLength="137.5" x="186.875" y="516.0583">Vehicle information</text><rect fill="#000000" height="4.375" style="stroke: #000000; stroke-width: 0.0;" width="4.375" x="196.875" y="530.0684"/><text fill="#000000" font-family="sans-serif" font-size="16.25" lengthAdjust="spacingAndGlyphs" textLength="126.25" x="203.125" y="536.4978">Registration plate</text><rect fill="#000000" height="4.375" style="stroke: #000000; stroke-width: 0.0;" width="4.375" x="196.875" y="550.5078"/><text fill="#000000" font-family="sans-serif" font-size="16.25" lengthAdjust="spacingAndGlyphs" textLength="42.5" x="203.125" y="556.9373">Brand</text><rect fill="#000000" height="4.375" style="stroke: #000000; stroke-width: 0.0;" width="4.375" x="196.875" y="570.9473"/><text fill="#000000" font-family="sans-serif" font-size="16.25" lengthAdjust="spacingAndGlyphs" textLength="88.75" x="203.125" y="577.3767">Client Name</text><rect fill="#000000" height="4.375" style="stroke: #000000; stroke-width: 0.0;" width="4.375" x="196.875" y="591.3867"/><text fill="#000000" font-family="sans-serif" font-size="16.25" lengthAdjust="spacingAndGlyphs" textLength="106.25" x="203.125" y="597.8162">Body of Frame</text><rect fill="#000000" height="4.375" style="stroke: #000000; stroke-width: 0.0;" width="4.375" x="196.875" y="611.8262"/><text fill="#000000" font-family="sans-serif" font-size="16.25" lengthAdjust="spacingAndGlyphs" textLength="36.25" x="203.125" y="618.2556">KMS</text><rect fill="#000000" height="4.375" style="stroke: #000000; stroke-width: 0.0;" width="4.375" x="196.875" y="632.2656"/><text fill="#000000" font-family="sans-serif" font-size="16.25" lengthAdjust="spacingAndGlyphs" textLength="60" x="203.125" y="638.6951">Last ITV</text><rect fill="#000000" height="4.375" style="stroke: #000000; stroke-width: 0.0;" width="4.375" x="196.875" y="652.7051"/><text fill="#000000" font-family="sans-serif" font-size="16.25" lengthAdjust="spacingAndGlyphs" textLength="62.5" x="203.125" y="659.1345">Next ITV</text><rect fill="#000000" height="4.375" style="stroke: #000000; stroke-width: 0.0;" width="4.375" x="196.875" y="673.1445"/><text fill="#000000" font-family="sans-serif" font-size="16.25" lengthAdjust="spacingAndGlyphs" textLength="96.25" x="203.125" y="679.574">Last Revision</text><rect fill="#000000" height="4.375" style="stroke: #000000; stroke-width: 0.0;" width="4.375" x="196.875" y="693.584"/><text fill="#000000" font-family="sans-serif" font-size="16.25" lengthAdjust="spacingAndGlyphs" textLength="138.75" x="203.125" y="700.0134">Air Filter Reference</text><rect fill="#000000" height="4.375" style="stroke: #000000; stroke-width: 0.0;" width="4.375" x="196.875" y="714.0234"/><text fill="#000000" font-family="sans-serif" font-size="16.25" lengthAdjust="spacingAndGlyphs" textLength="138.75" x="203.125" y="720.4529">Oil Filter Reference</text><rect fill="#000000" height="4.375" style="stroke: #000000; stroke-width: 0.0;" width="4.375" x="196.875" y="734.4629"/><text fill="#000000" font-family="sans-serif" font-size="16.25" lengthAdjust="spacingAndGlyphs" textLength="72.5" x="203.125" y="740.8923">Fuel Filter</text><rect fill="#000000" height="4.375" style="stroke: #000000; stroke-width: 0.0;" width="4.375" x="196.875" y="754.9023"/><text fill="#000000" font-family="sans-serif" font-size="16.25" lengthAdjust="spacingAndGlyphs" textLength="66.25" x="203.125" y="761.3318">Motor Oil</text><text fill="#000000" font-family="sans-serif" font-size="16.25" font-weight="bold" lengthAdjust="spacingAndGlyphs" textLength="113.75" x="170.625" y="781.7712">System allows</text><ellipse cx="177.5" cy="796.4063" fill="#000000" rx="3.125" ry="3.125" style="stroke: #000000; stroke-width: 0.0;"/><text fill="#000000" font-family="sans-serif" font-size="16.25" lengthAdjust="spacingAndGlyphs" textLength="120" x="186.875" y="802.2107">Modify full Name</text><ellipse cx="177.5" cy="816.8457" fill="#000000" rx="3.125" ry="3.125" style="stroke: #000000; stroke-width: 0.0;"/><text fill="#000000" font-family="sans-serif" font-size="16.25" lengthAdjust="spacingAndGlyphs" textLength="108.75" x="186.875" y="822.6501">Confirm update</text><ellipse cx="177.5" cy="837.2852" fill="#000000" rx="3.125" ry="3.125" style="stroke: #000000; stroke-width: 0.0;"/><text fill="#000000" font-family="sans-serif" font-size="16.25" lengthAdjust="spacingAndGlyphs" textLength="103.75" x="186.875" y="843.0896">Cancel update</text><!--MD5=[f66784b854ad69a06c9b9f3eda09ba3a]
link 2 to 1--><path d="M428.8425,901.2163 C438.8588,823.7175 456.4013,612.8275 376.875,466.25 C366.2212,446.6125 347.2375,430.5875 330.0338,419.0875 " fill="none" id="2-&gt;1" style="stroke: #008000; stroke-width: 1.25;"/><polygon fill="#008000" points="324.7638,415.6625,331.4836,425.9778,330.0081,419.0624,336.9235,417.5869,324.7638,415.6625" style="stroke: #008000; stroke-width: 1.25;"/><path d="M444.375,636.25 L444.375,688.75 L624.375,688.75 L624.375,648.75 L611.875,636.25 L444.375,636.25 " fill="#F5F5F5" filter="url(#f1ahsi0413zzfk)" style="stroke: #008000; stroke-width: 1.25;"/><path d="M611.875,636.25 L611.875,648.75 L624.375,648.75 L611.875,636.25 " fill="#F5F5F5" style="stroke: #008000; stroke-width: 1.25;"/><text fill="#000000" font-family="sans-serif" font-size="16.25" font-weight="bold" lengthAdjust="spacingAndGlyphs" textLength="107.5" x="451.875" y="659.3689">User provides</text><ellipse cx="458.75" cy="674.0039" fill="#000000" rx="3.125" ry="3.125" style="stroke: #000000; stroke-width: 0.0;"/><text fill="#000000" font-family="sans-serif" font-size="16.25" lengthAdjust="spacingAndGlyphs" textLength="137.5" x="468.125" y="679.8083">Vehicle information</text><!--MD5=[d287cc390a072d5416fd331feff291ee]
link 2 to endstateCancel--><path d="M455.7363,941.9825 C492.8263,952.4975 555.67,972.8025 604.375,1001.25 C653.5638,1029.98 702.62,1073.6725 734.0288,1104.0663 " fill="none" id="2-&gt;endstateCancel" style="stroke: #A80036; stroke-width: 1.25;"/><polygon fill="#A80036" points="738.5325,1108.4513,733.9603,1097.0207,734.0546,1104.0911,726.9841,1104.1854,738.5325,1108.4513" style="stroke: #A80036; stroke-width: 1.25;"/><path d="M704.375,1007.5 L704.375,1060 L856.875,1060 L856.875,1020 L844.375,1007.5 L704.375,1007.5 " fill="#F5F5F5" filter="url(#f1ahsi0413zzfk)" style="stroke: #A80036; stroke-width: 1.25;"/><path d="M844.375,1007.5 L844.375,1020 L856.875,1020 L844.375,1007.5 " fill="#F5F5F5" style="stroke: #A80036; stroke-width: 1.25;"/><text fill="#000000" font-family="sans-serif" font-size="16.25" font-weight="bold" lengthAdjust="spacingAndGlyphs" textLength="126.25" x="711.875" y="1030.6189">User requests to</text><ellipse cx="718.75" cy="1045.2539" fill="#000000" rx="3.125" ry="3.125" style="stroke: #000000; stroke-width: 0.0;"/><text fill="#000000" font-family="sans-serif" font-size="16.25" lengthAdjust="spacingAndGlyphs" textLength="101.25" x="728.125" y="1051.0583">cancel update</text><!--MD5=[eeb69082328d10abd3b14fdeede0d8a3]
link 2 to 3--><path d="M424.0062,963.9988 C423.5575,1000.7425 422.8025,1062.6913 422.3213,1102.1062 " fill="none" id="2-&gt;3" style="stroke: #008000; stroke-width: 1.25;"/><polygon fill="#008000" points="422.2413,1108.7113,427.3791,1097.5235,422.318,1102.4617,417.3798,1097.4007,422.2413,1108.7113" style="stroke: #008000; stroke-width: 1.25;"/><path d="M430.625,1007.5 L430.625,1060 L583.125,1060 L583.125,1020 L570.625,1007.5 L430.625,1007.5 " fill="#F5F5F5" filter="url(#f1ahsi0413zzfk)" style="stroke: #008000; stroke-width: 1.25;"/><path d="M570.625,1007.5 L570.625,1020 L583.125,1020 L570.625,1007.5 " fill="#F5F5F5" style="stroke: #008000; stroke-width: 1.25;"/><text fill="#000000" font-family="sans-serif" font-size="16.25" font-weight="bold" lengthAdjust="spacingAndGlyphs" textLength="126.25" x="438.125" y="1030.6189">User requests to</text><ellipse cx="445" cy="1045.2539" fill="#000000" rx="3.125" ry="3.125" style="stroke: #000000; stroke-width: 0.0;"/><text fill="#000000" font-family="sans-serif" font-size="16.25" lengthAdjust="spacingAndGlyphs" textLength="52.5" x="454.375" y="1051.0583">confirm</text><!--MD5=[b1f22f0c97e7f2b556a5a2d67c42ac53]
link 3 to 4--><path d="M423.9038,1171.4988 C426.3688,1208.2425 430.5237,1270.1913 433.1675,1309.6062 " fill="none" id="3-&gt;4" style="stroke: #008000; stroke-width: 1.25;"/><polygon fill="#008000" points="433.61,1316.2113,437.8469,1304.6522,433.1922,1309.9752,427.8692,1305.3206,433.61,1316.2113" style="stroke: #008000; stroke-width: 1.25;"/><path d="M438.125,1215 L438.125,1267.5 L621.875,1267.5 L621.875,1227.5 L609.375,1215 L438.125,1215 " fill="#F5F5F5" filter="url(#f1ahsi0413zzfk)" style="stroke: #008000; stroke-width: 1.25;"/><path d="M609.375,1215 L609.375,1227.5 L621.875,1227.5 L609.375,1215 " fill="#F5F5F5" style="stroke: #008000; stroke-width: 1.25;"/><text fill="#000000" font-family="sans-serif" font-size="16.25" font-weight="bold" lengthAdjust="spacingAndGlyphs" textLength="111.25" x="445.625" y="1238.1189">System shows</text><ellipse cx="452.5" cy="1252.7539" fill="#000000" rx="3.125" ry="3.125" style="stroke: #000000; stroke-width: 0.0;"/><text fill="#000000" font-family="sans-serif" font-size="16.25" lengthAdjust="spacingAndGlyphs" textLength="141.25" x="461.875" y="1258.5583">information updated</text><!--MD5=[6ac6a9ca048cb137e6dc1289f1ce2cb5]
link 4 to endstate--><path d="M435.13,1379.0812 C435.3225,1429.2438 440.0275,1531.8275 471.875,1611.25 C476.3688,1622.4575 483.12,1633.5375 490.1775,1643.38 " fill="none" id="4-&gt;endstate" style="stroke: #008000; stroke-width: 1.25;"/><polygon fill="#008000" points="494.1175,1648.7138,491.456,1636.6938,490.4045,1643.6862,483.412,1642.6347,494.1175,1648.7138" style="stroke: #008000; stroke-width: 1.25;"/><path d="M478.125,1445 L478.125,1600 L693.125,1600 L693.125,1457.5 L680.625,1445 L478.125,1445 " fill="#F5F5F5" filter="url(#f1ahsi0413zzfk)" style="stroke: #008000; stroke-width: 1.25;"/><path d="M680.625,1445 L680.625,1457.5 L693.125,1457.5 L680.625,1445 " fill="#F5F5F5" style="stroke: #008000; stroke-width: 1.25;"/><text fill="#000000" font-family="sans-serif" font-size="16.25" font-weight="bold" lengthAdjust="spacingAndGlyphs" textLength="111.25" x="485.625" y="1468.1189">System shows</text><ellipse cx="492.5" cy="1482.7539" fill="#000000" rx="3.125" ry="3.125" style="stroke: #000000; stroke-width: 0.0;"/><text fill="#000000" font-family="sans-serif" font-size="16.25" lengthAdjust="spacingAndGlyphs" textLength="53.75" x="501.875" y="1488.5583">Vehicle</text><rect fill="#000000" height="4.375" style="stroke: #000000; stroke-width: 0.0;" width="4.375" x="511.875" y="1502.5684"/><text fill="#000000" font-family="sans-serif" font-size="16.25" lengthAdjust="spacingAndGlyphs" textLength="67.5" x="518.125" y="1508.9978">full Name</text><rect fill="#000000" height="4.375" style="stroke: #000000; stroke-width: 0.0;" width="4.375" x="511.875" y="1523.0078"/><text fill="#000000" font-family="sans-serif" font-size="16.25" lengthAdjust="spacingAndGlyphs" textLength="156.25" x="518.125" y="1529.4373">billable pending hours</text><text fill="#000000" font-family="sans-serif" font-size="16.25" font-weight="bold" lengthAdjust="spacingAndGlyphs" textLength="113.75" x="485.625" y="1549.8767">System allows</text><ellipse cx="492.5" cy="1564.5117" fill="#000000" rx="3.125" ry="3.125" style="stroke: #000000; stroke-width: 0.0;"/><text fill="#000000" font-family="sans-serif" font-size="16.25" lengthAdjust="spacingAndGlyphs" textLength="92.5" x="501.875" y="1570.3162">update client</text><ellipse cx="492.5" cy="1584.9512" fill="#000000" rx="3.125" ry="3.125" style="stroke: #000000; stroke-width: 0.0;"/><text fill="#000000" font-family="sans-serif" font-size="16.25" lengthAdjust="spacingAndGlyphs" textLength="87.5" x="501.875" y="1590.7556">open clients</text><!--MD5=[31362eb3c29412f8bbfd54b9940d661e]
link endstate to *end--><path d="M558.9313,1711.5091 C590.3563,1736.3323 633.1163,1770.1091 655.0713,1787.4518 " fill="none" id="endstate-&gt;*end" style="stroke: #A80036; stroke-width: 1.25;"/><polygon fill="#A80036" points="660.1863,1791.4913,654.4585,1780.5937,655.2821,1787.6167,648.2592,1788.4403,660.1863,1791.4913" style="stroke: #A80036; stroke-width: 1.25;"/><!--MD5=[f5eefdc4d0c34a2830e140f194b2ac64]
link endstateCancel to *end--><path d="M765.2413,1171.6238 C757.9263,1246.5775 737.2362,1446.2425 709.375,1611.25 C698.7688,1674.0638 681.665,1747.7536 673.7063,1780.9505 " fill="none" id="endstateCancel-&gt;*end" style="stroke: #A80036; stroke-width: 1.25;"/><polygon fill="#A80036" points="672.1525,1787.4013,679.6486,1777.6355,673.6165,1781.3251,669.9268,1775.293,672.1525,1787.4013" style="stroke: #A80036; stroke-width: 1.25;"/><!--MD5=[5f7e8b851d1e9fa339ca8891bfc67bd2]
@startuml
    skinparam {
        NoteBackgroundColor #whiteSmoke
    }

state initstate as ":OPEN_VEHICLE"
state usecase as "openVehicle"
state endstate as ":OPEN_VEHICLE"
state endstateCancel as ":OPEN_VEHICLES"

initstate -[#Green]-> usecase

state usecase {
    [*] -[#Green]-> 1
    note on link
    <b>User requests to</b>
    * updateVehicle
    end note
    
    1 -[#Green]-> 2
    note on link
    <b>System shows</b>
    * Vehicle information
    ** Registration plate
    ** Brand
    ** Client Name
    ** Body of Frame
    ** KMS
    ** Last ITV
    ** Next ITV
    ** Last Revision
    ** Air Filter Reference
    ** Oil Filter Reference
    ** Fuel Filter
    ** Motor Oil
    <b>System allows</b>
    * Modify full Name
    * Confirm update
    * Cancel update
    end note

    2 -[#Green]-> 1
    note on link
    <b>User provides</b>
    * Vehicle information
    end note

    2 - -> endstateCancel
    note on link
    <b>User requests to</b>
    * cancel update
    end note

    2 -[#Green]-> 3
    note on link
    <b>User requests to</b>
    * confirm
    end note

    3 -[#Green]-> 4
    note on link
    <b>System shows</b>
    * information updated
    end note
}

4 -[#Green]-> endstate
note on link
<b>System shows</b>
* Vehicle
** full Name
** billable pending hours
<b>System allows</b>
* update client
* open clients
end note

endstate - -> [*]
endstateCancel - -> [*]


@enduml

PlantUML version 1.2020.09(Sun May 10 12:51:06 CEST 2020)
(GPL source distribution)
Java Runtime: OpenJDK Runtime Environment
JVM: OpenJDK 64-Bit Server VM
Java Version: 11.0.6+8-b765.25
Operating System: Windows 10
Default Encoding: Cp1252
Language: en
Country: GB
--></g></svg>