<?xml version="1.0" encoding="UTF-8" standalone="no"?><svg xmlns="http://www.w3.org/2000/svg" xmlns:xlink="http://www.w3.org/1999/xlink" contentScriptType="application/ecmascript" contentStyleType="text/css" height="752px" preserveAspectRatio="none" style="width:430px;height:752px;" version="1.1" viewBox="0 0 430 752" width="430px" zoomAndPan="magnify"><defs><filter height="300%" id="f16edruqfirrh" width="300%" x="-1" y="-1"><feGaussianBlur result="blurOut" stdDeviation="2.0"/><feColorMatrix in="blurOut" result="blurOut2" type="matrix" values="0 0 0 0 0 0 0 0 0 0 0 0 0 0 0 0 0 0 .4 0"/><feOffset dx="4.0" dy="4.0" in="blurOut2" result="blurOut3"/><feBlend in="SourceGraphic" in2="blurOut3" mode="normal"/></filter></defs><g><!--MD5=[e209b37fc91f378abaa2ddf468318055]
entity actor--><ellipse cx="141.241" cy="17.5" fill="#FEFECE" filter="url(#f16edruqfirrh)" rx="8" ry="8" style="stroke: #A80036; stroke-width: 1.5;"/><path d="M141.241,25.5 L141.241,52.5 M128.241,33.5 L154.241,33.5 M141.241,52.5 L128.241,67.5 M141.241,52.5 L154.241,67.5 " fill="none" filter="url(#f16edruqfirrh)" style="stroke: #A80036; stroke-width: 1.5;"/><text fill="#000000" font-family="sans-serif" font-size="14" lengthAdjust="spacingAndGlyphs" textLength="29" x="126.741" y="87.5332">User</text><!--MD5=[6b0e729622303f4def5f3eba755f4c5f]
entity b0--><path d="M57.7408,155 L57.7408,179 M57.7408,167 L74.7408,167 " fill="none" filter="url(#f16edruqfirrh)" style="stroke: #000000; stroke-width: 2.0;"/><ellipse cx="86.7408" cy="167" fill="#629EF9" filter="url(#f16edruqfirrh)" rx="12" ry="12" style="stroke: #000000; stroke-width: 2.0;"/><text fill="#000000" font-family="sans-serif" font-size="12" lengthAdjust="spacingAndGlyphs" textLength="56" x="50.2408" y="195.457">MenuView</text><!--MD5=[2a8c0f8b3c228d0be80896e8f45c28b0]
entity b5--><path d="M183.741,155 L183.741,179 M183.741,167 L200.741,167 " fill="none" filter="url(#f16edruqfirrh)" style="stroke: #000000; stroke-width: 2.0;"/><ellipse cx="212.741" cy="167" fill="#629EF9" filter="url(#f16edruqfirrh)" rx="12" ry="12" style="stroke: #000000; stroke-width: 2.0;"/><text fill="#000000" font-family="sans-serif" font-size="12" lengthAdjust="spacingAndGlyphs" textLength="126" x="141.241" y="195.457">InterventionCreateView</text><!--MD5=[a77eeca02088215ee6f6daab415a21a2]
entity b6--><path d="M109.7408,262 L109.7408,286 M109.7408,274 L126.7408,274 " fill="none" filter="url(#f16edruqfirrh)" style="stroke: #000000; stroke-width: 2.0;"/><ellipse cx="138.7408" cy="274" fill="#629EF9" filter="url(#f16edruqfirrh)" rx="12" ry="12" style="stroke: #000000; stroke-width: 2.0;"/><text fill="#000000" font-family="sans-serif" font-size="12" lengthAdjust="spacingAndGlyphs" textLength="187" x="36.7408" y="302.457">InterventionCreateAddVehicleView</text><!--MD5=[b63b949d92c1fb2c61102e611b370e1d]
entity b7--><ellipse cx="279.241" cy="381" fill="#B5BD68" filter="url(#f16edruqfirrh)" rx="12" ry="12" style="stroke: #718C00; stroke-width: 2.0;"/><polygon fill="#718C00" points="275.241,369,281.241,364,279.241,369,281.241,374,275.241,369" style="stroke: #718C00; stroke-width: 1.0;"/><text fill="#000000" font-family="sans-serif" font-size="14" lengthAdjust="spacingAndGlyphs" textLength="195" x="181.741" y="411.5332">InterventionCreateConfirmView</text><!--MD5=[a0bade23152799fdfb83a32a25d0dced]
entity b8--><path d="M168.741,479 L168.741,503 M168.741,491 L185.741,491 " fill="none" filter="url(#f16edruqfirrh)" style="stroke: #000000; stroke-width: 2.0;"/><ellipse cx="197.741" cy="491" fill="#629EF9" filter="url(#f16edruqfirrh)" rx="12" ry="12" style="stroke: #000000; stroke-width: 2.0;"/><text fill="#000000" font-family="sans-serif" font-size="12" lengthAdjust="spacingAndGlyphs" textLength="163" x="107.741" y="519.457">InterventionAdditionalInfoView</text><!--MD5=[9a8196a355cf02d41f4706c57a9658b7]
entity b9--><path d="M353.741,262 L353.741,286 M353.741,274 L370.741,274 " fill="none" filter="url(#f16edruqfirrh)" style="stroke: #000000; stroke-width: 2.0;"/><ellipse cx="382.741" cy="274" fill="#629EF9" filter="url(#f16edruqfirrh)" rx="12" ry="12" style="stroke: #000000; stroke-width: 2.0;"/><text fill="#000000" font-family="sans-serif" font-size="12" lengthAdjust="spacingAndGlyphs" textLength="88" x="330.241" y="302.457">DashboardView</text><!--MD5=[0aac872f208ab6f5f7887aae079fb447]
entity c1--><ellipse cx="189.2408" cy="598" fill="#B5BD68" filter="url(#f16edruqfirrh)" rx="12" ry="12" style="stroke: #718C00; stroke-width: 2.0;"/><polygon fill="#718C00" points="185.2408,586,191.2408,581,189.2408,586,191.2408,591,185.2408,586" style="stroke: #718C00; stroke-width: 1.0;"/><text fill="#000000" font-family="sans-serif" font-size="14" lengthAdjust="spacingAndGlyphs" textLength="179" x="99.7408" y="628.5332">InterventionCreateController</text><!--MD5=[3d2111c8a0a2d14b8769ddc11704380e]
entity c2--><ellipse cx="274.241" cy="40.5" fill="#B5BD68" filter="url(#f16edruqfirrh)" rx="12" ry="12" style="stroke: #718C00; stroke-width: 2.0;"/><polygon fill="#718C00" points="270.241,28.5,276.241,23.5,274.241,28.5,276.241,33.5,270.241,28.5" style="stroke: #718C00; stroke-width: 1.0;"/><text fill="#000000" font-family="sans-serif" font-size="14" lengthAdjust="spacingAndGlyphs" textLength="167" x="190.741" y="71.0332">OpenDashboardController</text><!--MD5=[e5f8c6b8840b805c75264b95a6f5cc6b]
entity e1--><ellipse cx="121.2408" cy="708" fill="#F2AC4E" filter="url(#f16edruqfirrh)" rx="12" ry="12" style="stroke: #000000; stroke-width: 2.0;"/><line style="stroke: #000000; stroke-width: 2.0;" x1="109.2408" x2="133.2408" y1="722" y2="722"/><text fill="#000000" font-family="sans-serif" font-size="14" lengthAdjust="spacingAndGlyphs" textLength="116" x="63.2408" y="738.5332">InterventionsEntity</text><!--MD5=[d3ebc56a79a5ad2d3ee323b213a67460]
entity e2--><ellipse cx="258.241" cy="708" fill="#F2AC4E" filter="url(#f16edruqfirrh)" rx="12" ry="12" style="stroke: #000000; stroke-width: 2.0;"/><line style="stroke: #000000; stroke-width: 2.0;" x1="246.241" x2="270.241" y1="722" y2="722"/><text fill="#000000" font-family="sans-serif" font-size="14" lengthAdjust="spacingAndGlyphs" textLength="88" x="214.241" y="738.5332">VehiclesEntity</text><!--MD5=[80b267427d6633a440b0a8774c39d747]
link actor to b0--><path d="M126.629,79.028 C116.264,99.264 102.4363,126.261 92.2172,146.213 " fill="none" id="actor-&gt;b0" style="stroke: #A80036; stroke-width: 1.0;"/><polygon fill="#A80036" points="89.8326,150.868,97.4964,144.682,92.1125,146.4181,90.3765,141.0342,89.8326,150.868" style="stroke: #A80036; stroke-width: 1.0;"/><!--MD5=[bf71555527fae8c21b27485658f4a2cf]
link b0 to b5--><path d="M106.295,174.5 C116.178,174.5 126.061,174.5 135.944,174.5 " fill="none" id="b0-&gt;b5" style="stroke: #A80036; stroke-width: 1.0;"/><polygon fill="#A80036" points="141.112,174.5,132.112,170.5,136.112,174.5,132.112,178.5,141.112,174.5" style="stroke: #A80036; stroke-width: 1.0;"/><!--MD5=[1292c6d72e6b063d0a8858ec7b32ef18]
link actor to b5--><path d="M155.853,79.028 C166.217,99.264 180.045,126.261 190.264,146.213 " fill="none" id="actor-&gt;b5" style="stroke: #A80036; stroke-width: 1.0;"/><polygon fill="#A80036" points="192.649,150.868,192.105,141.0342,190.369,146.4181,184.9851,144.6821,192.649,150.868" style="stroke: #A80036; stroke-width: 1.0;"/><!--MD5=[07fc90522955cb0e0a4b485b29b5d1a0]
link b5 to b6--><path d="M188.366,198.025 C176.934,214.246 161.456,236.208 149.346,253.391 " fill="none" id="b5-&gt;b6" style="stroke: #A80036; stroke-width: 1.0;"/><polygon fill="#A80036" points="146.345,257.65,154.7989,252.5971,149.225,253.5628,148.2593,247.989,146.345,257.65" style="stroke: #A80036; stroke-width: 1.0;"/><!--MD5=[6d2d4cdec3f5b3171f56535f85f889f4]
link b5 to b7--><path d="M215.48,198.259 C223.309,214.631 233.665,237.371 241.241,258 C253.792,292.177 264.974,332.554 271.904,359.355 " fill="none" id="b5-&gt;b7" style="stroke: #A80036; stroke-width: 1.0;"/><polygon fill="#A80036" points="273.232,364.529,274.8692,354.8172,271.9891,359.6859,267.1203,356.8058,273.232,364.529" style="stroke: #A80036; stroke-width: 1.0;"/><!--MD5=[e2bd536cc16be5d0abc989a66599e104]
link b5 to b8--><path d="M140.808,195.505 C93.0264,212.008 33.4077,236.171 19.2408,258 C-32.7062,338.044 82.1417,429.047 147.684,472.212 " fill="none" id="b5-&gt;b8" style="stroke: #A80036; stroke-width: 1.0;"/><polygon fill="#A80036" points="151.927,474.985,146.583,466.712,147.7421,472.2489,142.2052,473.4079,151.927,474.985" style="stroke: #A80036; stroke-width: 1.0;"/><!--MD5=[c95980586f28c5fdc2a4ff17b6b00961]
link b5 to b9--><path d="M240.71,198.025 C267.844,214.784 304.901,237.672 333.093,255.085 " fill="none" id="b5-&gt;b9" style="stroke: #A80036; stroke-width: 1.0;"/><polygon fill="#A80036" points="337.539,257.831,331.9851,249.6975,333.2854,255.2029,327.7801,256.5032,337.539,257.831" style="stroke: #A80036; stroke-width: 1.0;"/><!--MD5=[7774d65093cf5781ac5d95a354424bd8]
link b6 to b7--><path d="M161.84,305.086 C185.097,321.709 216.815,344.38 241.421,361.967 " fill="none" id="b6-&gt;b7" style="stroke: #A80036; stroke-width: 1.0;"/><polygon fill="#A80036" points="245.616,364.967,240.6188,356.4801,241.5478,362.0601,235.9678,362.9892,245.616,364.967" style="stroke: #A80036; stroke-width: 1.0;"/><!--MD5=[90f00da96d8d35e8e23d0c049d9ee404]
link b6 to c1--><path d="M118.124,305.119 C96.3599,349.024 55.97,447.977 90.2408,522 C101.07,545.39 121.978,564.645 141.8,578.791 " fill="none" id="b6-&gt;c1" style="stroke: #A80036; stroke-width: 1.0;"/><polygon fill="#A80036" points="146.274,581.913,141.1829,573.4821,142.1738,579.0514,136.6044,580.0423,146.274,581.913" style="stroke: #A80036; stroke-width: 1.0;"/><!--MD5=[f8926df835875a36a4cea6b5b5a80e51]
link b8 to b6--><path d="M182.079,474.816 C176.931,458.286 169.924,435.322 164.241,415 C154.166,378.978 143.619,337.127 136.993,310.254 " fill="none" id="b8-&gt;b6" style="stroke: #A80036; stroke-width: 1.0;"/><polygon fill="#A80036" points="135.722,305.085,133.9873,314.7799,136.9162,309.9403,141.7558,312.8692,135.722,305.085" style="stroke: #A80036; stroke-width: 1.0;"/><!--MD5=[677a04c860f09f4745291a8ebd0f9f9c]
link b8 to c1--><path d="M189.241,522.086 C189.241,538.022 189.241,559.517 189.241,576.762 " fill="none" id="b8-&gt;c1" style="stroke: #A80036; stroke-width: 1.0;"/><polygon fill="#A80036" points="189.241,581.967,193.241,572.967,189.241,576.967,185.241,572.967,189.241,581.967" style="stroke: #A80036; stroke-width: 1.0;"/><!--MD5=[61ae462ec6f5e0ed57ff07ec736a9c8e]
link b7 to b8--><path d="M258.818,415.166 C244.858,431.687 226.344,453.594 211.924,470.658 " fill="none" id="b7-&gt;b8" style="stroke: #A80036; stroke-width: 1.0;"/><polygon fill="#A80036" points="208.352,474.886,217.2156,470.5923,211.5787,471.0665,211.1045,465.4296,208.352,474.886" style="stroke: #A80036; stroke-width: 1.0;"/><!--MD5=[01da63133ebd2122aa3d794fbe3e9462]
link b7 to c1--><path d="M287.691,415.456 C295.635,442.773 304.14,487.659 288.241,522 C277.412,545.39 256.504,564.645 236.682,578.791 " fill="none" id="b7-&gt;c1" style="stroke: #A80036; stroke-width: 1.0;"/><polygon fill="#A80036" points="232.208,581.913,241.8776,580.0423,236.3082,579.0514,237.2991,573.4821,232.208,581.913" style="stroke: #A80036; stroke-width: 1.0;"/><!--MD5=[fe4cda531b7291b3011b8bb76b92be04]
link c1 to e1--><path d="M173.98,632.237 C163.656,648.6345 149.98,670.356 139.141,687.5702 " fill="none" id="c1-&gt;e1" style="stroke: #A80036; stroke-width: 1.0;"/><polygon fill="#A80036" points="136.45,691.8436,144.6309,686.3597,139.1145,687.6127,137.8615,682.0964,136.45,691.8436" style="stroke: #A80036; stroke-width: 1.0;"/><!--MD5=[bca748c6c09d0643261a2ea756a052c3]
link c1 to e2--><path d="M204.726,632.237 C215.202,648.6345 229.079,670.356 240.077,687.5702 " fill="none" id="c1-&gt;e2" style="stroke: #A80036; stroke-width: 1.0;"/><polygon fill="#A80036" points="242.808,691.8436,241.3325,682.1059,240.1157,687.6303,234.5913,686.4135,242.808,691.8436" style="stroke: #A80036; stroke-width: 1.0;"/><!--MD5=[67f44807304e04eda6b8bf8d212296f3]
@startuml

    skinparam {
    BoundaryBackgroundColor #629EF9
    BoundaryBorderColor black
    BoundaryFontSize 12
    BoundarySize 10
    ControlBackgroundColor #b5bd68
    ControlBorderColor #718c00
    EntityBackgroundColor #F2AC4E
    EntityBorderColor black
}


actor :User: as actor
boundary "MenuView" as b0
boundary "InterventionCreateView" as b5
boundary "InterventionCreateAddVehicleView" as b6
control "InterventionCreateConfirmView" as b7
boundary "InterventionAdditionalInfoView" as b8
boundary "DashboardView" as b9
control "InterventionCreateController" as c1
control "OpenDashboardController" as c2
entity "InterventionsEntity" as e1
entity "VehiclesEntity" as e2

actor - -> b0
b0 -right-> b5
actor - -> b5
b5 - -> b6
b5 - -> b7
b5 - -> b8
b5 - -> b9
b6 - -> b7
b6 - -> c1
b8 - -> b6
b8 - -> c1
b7 - -> b8
b7 - -> c1
c1 - -> e1
c1 - -> e2
@enduml

PlantUML version 1.2020.09(Sun May 10 12:51:06 CEST 2020)
(GPL source distribution)
Java Runtime: OpenJDK Runtime Environment
JVM: OpenJDK 64-Bit Server VM
Java Version: 11.0.6+8-b765.25
Operating System: Windows 10
Default Encoding: Cp1252
Language: en
Country: GB
--></g></svg>