<?xml version="1.0" encoding="UTF-8" standalone="no"?><svg xmlns="http://www.w3.org/2000/svg" xmlns:xlink="http://www.w3.org/1999/xlink" contentScriptType="application/ecmascript" contentStyleType="text/css" height="428px" preserveAspectRatio="none" style="width:349px;height:428px;" version="1.1" viewBox="0 0 349 428" width="349px" zoomAndPan="magnify"><defs><filter height="300%" id="fnapcrvpg0v2u" width="300%" x="-1" y="-1"><feGaussianBlur result="blurOut" stdDeviation="2.0"/><feColorMatrix in="blurOut" result="blurOut2" type="matrix" values="0 0 0 0 0 0 0 0 0 0 0 0 0 0 0 0 0 0 .4 0"/><feOffset dx="4.0" dy="4.0" in="blurOut2" result="blurOut3"/><feBlend in="SourceGraphic" in2="blurOut3" mode="normal"/></filter></defs><g><!--MD5=[e209b37fc91f378abaa2ddf468318055]
entity actor--><ellipse cx="103" cy="17.5" fill="#FEFECE" filter="url(#fnapcrvpg0v2u)" rx="8" ry="8" style="stroke: #A80036; stroke-width: 1.5;"/><path d="M103,25.5 L103,52.5 M90,33.5 L116,33.5 M103,52.5 L90,67.5 M103,52.5 L116,67.5 " fill="none" filter="url(#fnapcrvpg0v2u)" style="stroke: #A80036; stroke-width: 1.5;"/><text fill="#000000" font-family="sans-serif" font-size="14" lengthAdjust="spacingAndGlyphs" textLength="29" x="88.5" y="87.5332">User</text><!--MD5=[55492eb1c4b62cc9e892e1fafdaeb44c]
entity b1--><path d="M82.5,155 L82.5,179 M82.5,167 L99.5,167 " fill="none" filter="url(#fnapcrvpg0v2u)" style="stroke: #000000; stroke-width: 2.0;"/><ellipse cx="111.5" cy="167" fill="#629EF9" filter="url(#fnapcrvpg0v2u)" rx="12" ry="12" style="stroke: #000000; stroke-width: 2.0;"/><text fill="#000000" font-family="sans-serif" font-size="12" lengthAdjust="spacingAndGlyphs" textLength="56" x="75" y="195.457">MenuView</text><!--MD5=[bb04a20f8ffc3fa40d9086bdeb8759dc]
entity b2--><path d="M178.5,155 L178.5,179 M178.5,167 L195.5,167 " fill="none" filter="url(#fnapcrvpg0v2u)" style="stroke: #000000; stroke-width: 2.0;"/><ellipse cx="207.5" cy="167" fill="#629EF9" filter="url(#fnapcrvpg0v2u)" rx="12" ry="12" style="stroke: #000000; stroke-width: 2.0;"/><text fill="#000000" font-family="sans-serif" font-size="12" lengthAdjust="spacingAndGlyphs" textLength="65" x="166.5" y="195.457">ClientsView</text><!--MD5=[0aac872f208ab6f5f7887aae079fb447]
entity c1--><ellipse cx="76" cy="274" fill="#B5BD68" filter="url(#fnapcrvpg0v2u)" rx="12" ry="12" style="stroke: #718C00; stroke-width: 2.0;"/><polygon fill="#718C00" points="72,262,78,257,76,262,78,267,72,262" style="stroke: #718C00; stroke-width: 1.0;"/><text fill="#000000" font-family="sans-serif" font-size="14" lengthAdjust="spacingAndGlyphs" textLength="140" x="6" y="304.5332">OpenClientsController</text><!--MD5=[e5f8c6b8840b805c75264b95a6f5cc6b]
entity e1--><ellipse cx="76" cy="384" fill="#F2AC4E" filter="url(#fnapcrvpg0v2u)" rx="12" ry="12" style="stroke: #000000; stroke-width: 2.0;"/><line style="stroke: #000000; stroke-width: 2.0;" x1="64" x2="88" y1="398" y2="398"/><text fill="#000000" font-family="sans-serif" font-size="14" lengthAdjust="spacingAndGlyphs" textLength="78" x="37" y="414.5332">ClientsEntity</text><!--MD5=[d3ebc56a79a5ad2d3ee323b213a67460]
entity e2--><ellipse cx="192" cy="384" fill="#F2AC4E" filter="url(#fnapcrvpg0v2u)" rx="12" ry="12" style="stroke: #000000; stroke-width: 2.0;"/><line style="stroke: #000000; stroke-width: 2.0;" x1="180" x2="204" y1="398" y2="398"/><text fill="#000000" font-family="sans-serif" font-size="14" lengthAdjust="spacingAndGlyphs" textLength="71" x="156.5" y="414.5332">ClientEntity</text><!--MD5=[c8306153f9cb3c677467ab9071446357]
entity e3--><ellipse cx="295" cy="274" fill="#F2AC4E" filter="url(#fnapcrvpg0v2u)" rx="12" ry="12" style="stroke: #000000; stroke-width: 2.0;"/><line style="stroke: #000000; stroke-width: 2.0;" x1="283" x2="307" y1="288" y2="288"/><text fill="#000000" font-family="sans-serif" font-size="14" lengthAdjust="spacingAndGlyphs" textLength="85" x="252.5" y="304.5332">SessionEntity</text><!--MD5=[5ea18c93ccb51d1fa91cb81eafc9d493]
link actor to b1--><path d="M103,91.116 C103,108.97 103,129.49 103,145.584 " fill="none" id="actor-&gt;b1" style="stroke: #A80036; stroke-width: 1.0;"/><polygon fill="#A80036" points="103,150.862,107,141.862,103,145.862,99,141.862,103,150.862" style="stroke: #A80036; stroke-width: 1.0;"/><!--MD5=[dad5d2e1a2a5ca29001c223a65c3ee5f]
link b1 to b2--><path d="M131.125,174.5 C141.135,174.5 151.144,174.5 161.154,174.5 " fill="none" id="b1-&gt;b2" style="stroke: #A80036; stroke-width: 1.0;"/><polygon fill="#A80036" points="166.388,174.5,157.388,170.5,161.388,174.5,157.388,178.5,166.388,174.5" style="stroke: #A80036; stroke-width: 1.0;"/><!--MD5=[dc2076ca3fbf4831a5703d294d0b7c42]
link b2 to c1--><path d="M172.915,198.086 C153.875,214.572 127.965,237.006 107.726,254.53 " fill="none" id="b2-&gt;c1" style="stroke: #A80036; stroke-width: 1.0;"/><polygon fill="#A80036" points="103.757,257.967,113.1793,255.0999,107.537,254.6941,107.9427,249.0519,103.757,257.967" style="stroke: #A80036; stroke-width: 1.0;"/><!--MD5=[fe4cda531b7291b3011b8bb76b92be04]
link c1 to e1--><path d="M76,308.237 C76,324.3565 76,345.6212 76,362.6911 " fill="none" id="c1-&gt;e1" style="stroke: #A80036; stroke-width: 1.0;"/><polygon fill="#A80036" points="76,367.8436,80,358.8436,76,362.8436,72,358.8436,76,367.8436" style="stroke: #A80036; stroke-width: 1.0;"/><!--MD5=[bca748c6c09d0643261a2ea756a052c3]
link c1 to e2--><path d="M102.0327,308.237 C119.794,324.7734 143.371,346.7246 161.933,364.0069 " fill="none" id="c1-&gt;e2" style="stroke: #A80036; stroke-width: 1.0;"/><polygon fill="#A80036" points="166.054,367.8436,162.1926,358.7833,162.3945,364.4365,156.7413,364.6385,166.054,367.8436" style="stroke: #A80036; stroke-width: 1.0;"/><!--MD5=[33e8d0c7f7c31f643f3847f91d6a1c14]
link b2 to e2--><path d="M198.264,198.26 C196.986,237.799 194.357,319.1159 192.945,362.7701 " fill="none" id="b2-&gt;e2" style="stroke: #A80036; stroke-width: 1.0;"/><polygon fill="#A80036" points="192.779,367.9017,197.0678,359.0357,192.9406,362.9043,189.0719,358.7771,192.779,367.9017" style="stroke: #A80036; stroke-width: 1.0;"/><!--MD5=[77693a6cdd2df8f6e111f5a2d095ab57]
link b2 to e3--><path d="M219.359,198.086 C234.096,214.434 254.105,236.633 269.843,254.091 " fill="none" id="b2-&gt;e3" style="stroke: #A80036; stroke-width: 1.0;"/><polygon fill="#A80036" points="273.336,257.967,270.2825,248.6034,269.9888,254.2527,264.3396,253.9589,273.336,257.967" style="stroke: #A80036; stroke-width: 1.0;"/><!--MD5=[8281411522e419120d9a0ede2d8c5689]
@startuml

    skinparam {
    BoundaryBackgroundColor #629EF9
    BoundaryBorderColor black
    BoundaryFontSize 12
    BoundarySize 10
    ControlBackgroundColor #b5bd68
    ControlBorderColor #718c00
    EntityBackgroundColor #F2AC4E
    EntityBorderColor black
}



actor :User: as actor
boundary MenuView as b1
boundary ClientsView as b2
control OpenClientsController as c1
entity ClientsEntity as e1
entity ClientEntity as e2
entity SessionEntity as e3

actor - -> b1
b1 -right-> b2
b2 - -> c1

c1 - -> e1
c1 - -> e2
b2 - -> e2
b2 - -> e3


@enduml

PlantUML version 1.2020.09(Sun May 10 12:51:06 CEST 2020)
(GPL source distribution)
Java Runtime: OpenJDK Runtime Environment
JVM: OpenJDK 64-Bit Server VM
Java Version: 11.0.6+8-b765.25
Operating System: Windows 10
Default Encoding: Cp1252
Language: en
Country: GB
--></g></svg>