<?xml version="1.0" encoding="UTF-8" standalone="no"?><svg xmlns="http://www.w3.org/2000/svg" xmlns:xlink="http://www.w3.org/1999/xlink" contentScriptType="application/ecmascript" contentStyleType="text/css" height="538px" preserveAspectRatio="none" style="width:427px;height:538px;" version="1.1" viewBox="0 0 427 538" width="427px" zoomAndPan="magnify"><defs><filter height="300%" id="f1sl152m61c2td" width="300%" x="-1" y="-1"><feGaussianBlur result="blurOut" stdDeviation="2.0"/><feColorMatrix in="blurOut" result="blurOut2" type="matrix" values="0 0 0 0 0 0 0 0 0 0 0 0 0 0 0 0 0 0 .4 0"/><feOffset dx="4.0" dy="4.0" in="blurOut2" result="blurOut3"/><feBlend in="SourceGraphic" in2="blurOut3" mode="normal"/></filter></defs><g><!--MD5=[e209b37fc91f378abaa2ddf468318055]
entity actor--><ellipse cx="101.5" cy="17.5" fill="#FEFECE" filter="url(#f1sl152m61c2td)" rx="8" ry="8" style="stroke: #A80036; stroke-width: 1.5;"/><path d="M101.5,25.5 L101.5,52.5 M88.5,33.5 L114.5,33.5 M101.5,52.5 L88.5,67.5 M101.5,52.5 L114.5,67.5 " fill="none" filter="url(#f1sl152m61c2td)" style="stroke: #A80036; stroke-width: 1.5;"/><text fill="#000000" font-family="sans-serif" font-size="14" lengthAdjust="spacingAndGlyphs" textLength="29" x="87" y="87.5332">User</text><!--MD5=[55492eb1c4b62cc9e892e1fafdaeb44c]
entity b1--><path d="M81,155 L81,179 M81,167 L98,167 " fill="none" filter="url(#f1sl152m61c2td)" style="stroke: #000000; stroke-width: 2.0;"/><ellipse cx="110" cy="167" fill="#629EF9" filter="url(#f1sl152m61c2td)" rx="12" ry="12" style="stroke: #000000; stroke-width: 2.0;"/><text fill="#000000" font-family="sans-serif" font-size="12" lengthAdjust="spacingAndGlyphs" textLength="56" x="73.5" y="195.457">MenuView</text><!--MD5=[bb04a20f8ffc3fa40d9086bdeb8759dc]
entity b2--><path d="M188,155 L188,179 M188,167 L205,167 " fill="none" filter="url(#f1sl152m61c2td)" style="stroke: #000000; stroke-width: 2.0;"/><ellipse cx="217" cy="167" fill="#629EF9" filter="url(#f1sl152m61c2td)" rx="12" ry="12" style="stroke: #000000; stroke-width: 2.0;"/><text fill="#000000" font-family="sans-serif" font-size="12" lengthAdjust="spacingAndGlyphs" textLength="88" x="164.5" y="195.457">DashboardView</text><!--MD5=[3d2111c8a0a2d14b8769ddc11704380e]
entity c2--><ellipse cx="208.5" cy="274" fill="#B5BD68" filter="url(#f1sl152m61c2td)" rx="12" ry="12" style="stroke: #718C00; stroke-width: 2.0;"/><polygon fill="#718C00" points="204.5,262,210.5,257,208.5,262,210.5,267,204.5,262" style="stroke: #718C00; stroke-width: 1.0;"/><text fill="#000000" font-family="sans-serif" font-size="14" lengthAdjust="spacingAndGlyphs" textLength="164" x="126.5" y="304.5332">openDashboardController</text><!--MD5=[c8306153f9cb3c677467ab9071446357]
entity e3--><ellipse cx="208.5" cy="384" fill="#F2AC4E" filter="url(#f1sl152m61c2td)" rx="12" ry="12" style="stroke: #000000; stroke-width: 2.0;"/><line style="stroke: #000000; stroke-width: 2.0;" x1="196.5" x2="220.5" y1="398" y2="398"/><text fill="#000000" font-family="sans-serif" font-size="14" lengthAdjust="spacingAndGlyphs" textLength="116" x="150.5" y="414.5332">InterventionsEntity</text><!--MD5=[99968eeafbc7379c4679c2781d409b3e]
entity e4--><ellipse cx="60.5" cy="384" fill="#F2AC4E" filter="url(#f1sl152m61c2td)" rx="12" ry="12" style="stroke: #000000; stroke-width: 2.0;"/><line style="stroke: #000000; stroke-width: 2.0;" x1="48.5" x2="72.5" y1="398" y2="398"/><text fill="#000000" font-family="sans-serif" font-size="14" lengthAdjust="spacingAndGlyphs" textLength="109" x="6" y="414.5332">InterventionEntity</text><!--MD5=[b173ad7416c07f681d6ae7b2d3215148]
entity e5--><ellipse cx="250.5" cy="494" fill="#F2AC4E" filter="url(#f1sl152m61c2td)" rx="12" ry="12" style="stroke: #000000; stroke-width: 2.0;"/><line style="stroke: #000000; stroke-width: 2.0;" x1="238.5" x2="262.5" y1="508" y2="508"/><text fill="#000000" font-family="sans-serif" font-size="14" lengthAdjust="spacingAndGlyphs" textLength="81" x="210" y="524.5332">VehicleEntity</text><!--MD5=[3d774add76be5193bed2d701b3921d6e]
entity e6--><ellipse cx="344.5" cy="384" fill="#F2AC4E" filter="url(#f1sl152m61c2td)" rx="12" ry="12" style="stroke: #000000; stroke-width: 2.0;"/><line style="stroke: #000000; stroke-width: 2.0;" x1="332.5" x2="356.5" y1="398" y2="398"/><text fill="#000000" font-family="sans-serif" font-size="14" lengthAdjust="spacingAndGlyphs" textLength="85" x="302" y="414.5332">SessionEntity</text><!--MD5=[5ea18c93ccb51d1fa91cb81eafc9d493]
link actor to b1--><path d="M101.5,91.116 C101.5,108.97 101.5,129.49 101.5,145.584 " fill="none" id="actor-&gt;b1" style="stroke: #A80036; stroke-width: 1.0;"/><polygon fill="#A80036" points="101.5,150.862,105.5,141.862,101.5,145.862,97.5,141.862,101.5,150.862" style="stroke: #A80036; stroke-width: 1.0;"/><!--MD5=[dad5d2e1a2a5ca29001c223a65c3ee5f]
link b1 to b2--><path d="M129.504,174.5 C139.402,174.5 149.3,174.5 159.197,174.5 " fill="none" id="b1-&gt;b2" style="stroke: #A80036; stroke-width: 1.0;"/><polygon fill="#A80036" points="164.373,174.5,155.373,170.5,159.373,174.5,155.373,178.5,164.373,174.5" style="stroke: #A80036; stroke-width: 1.0;"/><!--MD5=[6563a9383af1b6dc4a74a56c1c5abb03]
link b2 to e4--><path d="M172.381,198.045 C151.239,212.838 125.45,233.876 108.5,258 C85.8976,290.169 72.8498,334.108 66.2104,362.764 " fill="none" id="b2-&gt;e4" style="stroke: #A80036; stroke-width: 1.0;"/><polygon fill="#A80036" points="65.0444,367.93,70.9287,360.0322,66.1458,363.0528,63.1252,358.2699,65.0444,367.93" style="stroke: #A80036; stroke-width: 1.0;"/><!--MD5=[0ae93c1a8669f05451e3c8d1a3d6b8ae]
link b2 to e5--><path d="M246.916,198.204 C295.158,229.338 375.161,290.37 404.5,368 C412.356,388.787 415.844,398.891 404.5,418 C381.216,457.2232 332.463,479.3034 296.014,490.874 " fill="none" id="b2-&gt;e5" style="stroke: #A80036; stroke-width: 1.0;"/><polygon fill="#A80036" points="291.182,492.3695,300.9623,493.5292,295.9584,490.8909,298.5966,485.887,291.182,492.3695" style="stroke: #A80036; stroke-width: 1.0;"/><!--MD5=[4e3a7b128feac607bd74dccab7386e20]
link b2 to c2--><path d="M208.5,198.086 C208.5,214.022 208.5,235.517 208.5,252.762 " fill="none" id="b2-&gt;c2" style="stroke: #A80036; stroke-width: 1.0;"/><polygon fill="#A80036" points="208.5,257.967,212.5,248.967,208.5,252.967,204.5,248.967,208.5,257.967" style="stroke: #A80036; stroke-width: 1.0;"/><!--MD5=[91e56ad78e20f56d05447ae001febad7]
link c2 to e3--><path d="M208.5,308.237 C208.5,324.357 208.5,345.621 208.5,362.691 " fill="none" id="c2-&gt;e3" style="stroke: #A80036; stroke-width: 1.0;"/><polygon fill="#A80036" points="208.5,367.844,212.5,358.844,208.5,362.844,204.5,358.844,208.5,367.844" style="stroke: #A80036; stroke-width: 1.0;"/><!--MD5=[923a0438dea40afd2769c8036f572bb5]
link c2 to e4--><path d="M175.286,308.237 C152.244,325.051 121.531,347.464 97.6723,364.874 " fill="none" id="c2-&gt;e4" style="stroke: #A80036; stroke-width: 1.0;"/><polygon fill="#A80036" points="93.6032,367.844,103.2311,365.7694,97.642,364.8964,98.5149,359.3073,93.6032,367.844" style="stroke: #A80036; stroke-width: 1.0;"/><text fill="#000000" font-family="sans-serif" font-size="13" lengthAdjust="spacingAndGlyphs" textLength="20" x="79.2346" y="357.3478">0..*</text><!--MD5=[e8c5cd92cb17f61f1ac617e87b0058f3]
link c2 to e6--><path d="M239.021,308.237 C260.107,324.982 288.184,347.279 310.07,364.658 " fill="none" id="c2-&gt;e6" style="stroke: #A80036; stroke-width: 1.0;"/><polygon fill="#A80036" points="314.081,367.844,309.5212,359.1143,310.1657,364.7343,304.5457,365.3788,314.081,367.844" style="stroke: #A80036; stroke-width: 1.0;"/><!--MD5=[c97c4776446aeb1e005f493e12148f6a]
reverse link e4 to e3--><path d="M120.33,393 C130.269,393 140.207,393 150.146,393 " fill="none" id="e4&lt;-e3" style="stroke: #A80036; stroke-width: 1.0;"/><polygon fill="#A80036" points="115.133,393,124.133,397,120.133,393,124.133,389,115.133,393" style="stroke: #A80036; stroke-width: 1.0;"/><!--MD5=[fa38b9626d57388fc5ba061cd87d0f1c]
link e4 to e5--><path d="M103.1397,418.237 C133.59,435.5459 174.478,458.7874 205.458,476.3975 " fill="none" id="e4-&gt;e5" style="stroke: #A80036; stroke-width: 1.0;"/><polygon fill="#A80036" points="209.955,478.9534,204.1082,471.0278,205.6084,476.4821,200.1541,477.9824,209.955,478.9534" style="stroke: #A80036; stroke-width: 1.0;"/><!--MD5=[08035daef2b8a8c65534731ea342abe2]
@startuml

    skinparam {
    BoundaryBackgroundColor #629EF9
    BoundaryBorderColor black
    BoundaryFontSize 12
    BoundarySize 10
    ControlBackgroundColor #b5bd68
    ControlBorderColor #718c00
    EntityBackgroundColor #F2AC4E
    EntityBorderColor black
}


actor :User: as actor

boundary MenuView as b1
boundary DashboardView as b2
control openDashboardController as c2
entity InterventionsEntity as e3
entity InterventionEntity as e4
entity VehicleEntity as e5
entity SessionEntity as e6

actor - -> b1
b1 -right-> b2
b2 -down-> e4
b2 -down-> e5
b2 -down-> c2
c2 -down-> e3
c2 -down-> "0..*" e4
c2 -down-> e6
e3 -left-> e4
e4 -down-> e5
@enduml

PlantUML version 1.2020.09(Sun May 10 12:51:06 CEST 2020)
(GPL source distribution)
Java Runtime: OpenJDK Runtime Environment
JVM: OpenJDK 64-Bit Server VM
Java Version: 11.0.6+8-b765.25
Operating System: Windows 10
Default Encoding: Cp1252
Language: en
Country: GB
--></g></svg>