<?xml version="1.0" encoding="UTF-8" standalone="no"?><svg xmlns="http://www.w3.org/2000/svg" xmlns:xlink="http://www.w3.org/1999/xlink" contentScriptType="application/ecmascript" contentStyleType="text/css" height="305px" preserveAspectRatio="none" style="width:911px;height:305px;" version="1.1" viewBox="0 0 911 305" width="911.25px" zoomAndPan="magnify"><defs><filter height="300%" id="fsgkbcc3h46rd" width="300%" x="-1" y="-1"><feGaussianBlur result="blurOut" stdDeviation="2.5"/><feColorMatrix in="blurOut" result="blurOut2" type="matrix" values="0 0 0 0 0 0 0 0 0 0 0 0 0 0 0 0 0 0 .4 0"/><feOffset dx="5.0" dy="5.0" in="blurOut2" result="blurOut3"/><feBlend in="SourceGraphic" in2="blurOut3" mode="normal"/></filter></defs><g><!--MD5=[06d4c65dbd21248dc81c14552ce35f1c]
class MechanicsDao--><rect fill="#FEFECE" filter="url(#fsgkbcc3h46rd)" height="146.4746" id="MechanicsDao" style="stroke: #A80036; stroke-width: 1.875;" width="223.75" x="277.5" y="145"/><ellipse cx="332.8125" cy="165" fill="#ADD1B2" rx="13.75" ry="13.75" style="stroke: #A80036; stroke-width: 1.25;"/><path d="M335.3125,160.625 Q335.5664,160 335.8594,159.6875 Q336.1523,159.375 336.4844,159.375 Q337.0703,159.375 337.4414,159.7266 Q337.8125,160.0781 337.8125,160.8984 L337.8125,162.8516 Q337.8125,163.6719 337.4609,164.0234 Q337.1094,164.375 336.5625,164.375 Q336.0742,164.375 335.7617,164.1602 Q335.4492,163.9453 335.3125,163.3789 Q335.2539,162.9883 335.0391,162.7734 Q334.6484,162.3633 333.9453,162.1289 Q333.2422,161.875 332.5391,161.875 Q331.6602,161.875 330.918,162.2266 Q330.1953,162.5781 329.6289,163.3594 Q329.0625,164.1406 329.0625,165.2148 L329.0625,166.3672 Q329.0625,167.6563 330.1172,168.5156 Q331.1719,169.375 333.0469,169.375 Q334.1602,169.375 334.9414,169.1211 Q335.3906,168.9844 335.8984,168.5352 Q336.2305,168.2813 336.4063,168.2031 Q336.582,168.125 336.7969,168.125 Q337.207,168.125 337.5,168.457 Q337.8125,168.7695 337.8125,169.2188 Q337.8125,169.6484 337.3828,170.1563 Q336.7578,170.8984 335.7617,171.3086 Q334.4531,171.875 332.8516,171.875 Q330.9766,171.875 329.4727,171.1328 Q328.2617,170.5469 327.4023,169.2773 Q326.5625,168.0078 326.5625,166.5039 L326.5625,165.1367 Q326.5625,163.5742 327.3047,162.207 Q328.0664,160.8398 329.375,160.1172 Q330.7031,159.375 332.1875,159.375 Q333.0859,159.375 333.8672,159.6875 Q334.6484,160 335.3125,160.625 Z "/><text fill="#000000" font-family="sans-serif" font-size="15" lengthAdjust="spacingAndGlyphs" textLength="102.5" x="358.4375" y="171.1377">MechanicsDao</text><line style="stroke: #A80036; stroke-width: 1.875;" x1="278.75" x2="500" y1="185" y2="185"/><line style="stroke: #A80036; stroke-width: 1.875;" x1="278.75" x2="500" y1="195" y2="195"/><ellipse cx="291.25" cy="208.75" fill="#84BE84" rx="3.75" ry="3.75" style="stroke: #038048; stroke-width: 1.25;"/><text fill="#000000" font-family="sans-serif" font-size="13.75" lengthAdjust="spacingAndGlyphs" textLength="106.25" x="302.5" y="214.2737">create(mechanic)</text><ellipse cx="291.25" cy="226.0449" fill="#84BE84" rx="3.75" ry="3.75" style="stroke: #038048; stroke-width: 1.25;"/><text fill="#000000" font-family="sans-serif" font-size="13.75" lengthAdjust="spacingAndGlyphs" textLength="102.5" x="302.5" y="231.5686">readMechanics()</text><ellipse cx="291.25" cy="243.3398" fill="#84BE84" rx="3.75" ry="3.75" style="stroke: #038048; stroke-width: 1.25;"/><text fill="#000000" font-family="sans-serif" font-size="13.75" lengthAdjust="spacingAndGlyphs" textLength="105" x="302.5" y="248.8635">read(mechanicId)</text><ellipse cx="291.25" cy="260.6348" fill="#84BE84" rx="3.75" ry="3.75" style="stroke: #038048; stroke-width: 1.25;"/><text fill="#000000" font-family="sans-serif" font-size="13.75" lengthAdjust="spacingAndGlyphs" textLength="191.25" x="302.5" y="266.1584">serchBy(username, password)</text><ellipse cx="291.25" cy="277.9297" fill="#84BE84" rx="3.75" ry="3.75" style="stroke: #038048; stroke-width: 1.25;"/><text fill="#000000" font-family="sans-serif" font-size="13.75" lengthAdjust="spacingAndGlyphs" textLength="108.75" x="302.5" y="283.4534">update(mechanic)</text><!--MD5=[5103e3471bf31fadd75905833dcba617]
class LoginController--><rect fill="#FEFECE" filter="url(#fsgkbcc3h46rd)" height="60" id="LoginController" style="stroke: #A80036; stroke-width: 1.875;" width="146.25" x="7.5" y="10"/><ellipse cx="26.25" cy="30" fill="#ADD1B2" rx="13.75" ry="13.75" style="stroke: #A80036; stroke-width: 1.25;"/><path d="M28.75,25.625 Q29.0039,25 29.2969,24.6875 Q29.5898,24.375 29.9219,24.375 Q30.5078,24.375 30.8789,24.7266 Q31.25,25.0781 31.25,25.8984 L31.25,27.8516 Q31.25,28.6719 30.8984,29.0234 Q30.5469,29.375 30,29.375 Q29.5117,29.375 29.1992,29.1602 Q28.8867,28.9453 28.75,28.3789 Q28.6914,27.9883 28.4766,27.7734 Q28.0859,27.3633 27.3828,27.1289 Q26.6797,26.875 25.9766,26.875 Q25.0977,26.875 24.3555,27.2266 Q23.6328,27.5781 23.0664,28.3594 Q22.5,29.1406 22.5,30.2148 L22.5,31.3672 Q22.5,32.6563 23.5547,33.5156 Q24.6094,34.375 26.4844,34.375 Q27.5977,34.375 28.3789,34.1211 Q28.8281,33.9844 29.3359,33.5352 Q29.668,33.2813 29.8438,33.2031 Q30.0195,33.125 30.2344,33.125 Q30.6445,33.125 30.9375,33.457 Q31.25,33.7695 31.25,34.2188 Q31.25,34.6484 30.8203,35.1563 Q30.1953,35.8984 29.1992,36.3086 Q27.8906,36.875 26.2891,36.875 Q24.4141,36.875 22.9102,36.1328 Q21.6992,35.5469 20.8398,34.2773 Q20,33.0078 20,31.5039 L20,30.1367 Q20,28.5742 20.7422,27.207 Q21.5039,25.8398 22.8125,25.1172 Q24.1406,24.375 25.625,24.375 Q26.5234,24.375 27.3047,24.6875 Q28.0859,25 28.75,25.625 Z "/><text fill="#000000" font-family="sans-serif" font-size="15" lengthAdjust="spacingAndGlyphs" textLength="106.25" x="43.75" y="36.1377">LoginController</text><line style="stroke: #A80036; stroke-width: 1.875;" x1="8.75" x2="152.5" y1="50" y2="50"/><line style="stroke: #A80036; stroke-width: 1.875;" x1="8.75" x2="152.5" y1="60" y2="60"/><!--MD5=[30447da4da4e7cfdf8dead7e3e7400a7]
class SignInController--><rect fill="#FEFECE" filter="url(#fsgkbcc3h46rd)" height="60" id="SignInController" style="stroke: #A80036; stroke-width: 1.875;" width="151.25" x="197.5" y="10"/><ellipse cx="216.25" cy="30" fill="#ADD1B2" rx="13.75" ry="13.75" style="stroke: #A80036; stroke-width: 1.25;"/><path d="M218.75,25.625 Q219.0039,25 219.2969,24.6875 Q219.5898,24.375 219.9219,24.375 Q220.5078,24.375 220.8789,24.7266 Q221.25,25.0781 221.25,25.8984 L221.25,27.8516 Q221.25,28.6719 220.8984,29.0234 Q220.5469,29.375 220,29.375 Q219.5117,29.375 219.1992,29.1602 Q218.8867,28.9453 218.75,28.3789 Q218.6914,27.9883 218.4766,27.7734 Q218.0859,27.3633 217.3828,27.1289 Q216.6797,26.875 215.9766,26.875 Q215.0977,26.875 214.3555,27.2266 Q213.6328,27.5781 213.0664,28.3594 Q212.5,29.1406 212.5,30.2148 L212.5,31.3672 Q212.5,32.6563 213.5547,33.5156 Q214.6094,34.375 216.4844,34.375 Q217.5977,34.375 218.3789,34.1211 Q218.8281,33.9844 219.3359,33.5352 Q219.668,33.2813 219.8438,33.2031 Q220.0195,33.125 220.2344,33.125 Q220.6445,33.125 220.9375,33.457 Q221.25,33.7695 221.25,34.2188 Q221.25,34.6484 220.8203,35.1563 Q220.1953,35.8984 219.1992,36.3086 Q217.8906,36.875 216.2891,36.875 Q214.4141,36.875 212.9102,36.1328 Q211.6992,35.5469 210.8398,34.2773 Q210,33.0078 210,31.5039 L210,30.1367 Q210,28.5742 210.7422,27.207 Q211.5039,25.8398 212.8125,25.1172 Q214.1406,24.375 215.625,24.375 Q216.5234,24.375 217.3047,24.6875 Q218.0859,25 218.75,25.625 Z "/><text fill="#000000" font-family="sans-serif" font-size="15" lengthAdjust="spacingAndGlyphs" textLength="111.25" x="233.75" y="36.1377">SignInController</text><line style="stroke: #A80036; stroke-width: 1.875;" x1="198.75" x2="347.5" y1="50" y2="50"/><line style="stroke: #A80036; stroke-width: 1.875;" x1="198.75" x2="347.5" y1="60" y2="60"/><!--MD5=[6eb95dae11a1ea7d98ae0342753f209d]
class FinishInterventionController--><rect fill="#FEFECE" filter="url(#fsgkbcc3h46rd)" height="60" id="FinishInterventionController" style="stroke: #A80036; stroke-width: 1.875;" width="228.75" x="392.5" y="10"/><ellipse cx="411.25" cy="30" fill="#ADD1B2" rx="13.75" ry="13.75" style="stroke: #A80036; stroke-width: 1.25;"/><path d="M413.75,25.625 Q414.0039,25 414.2969,24.6875 Q414.5898,24.375 414.9219,24.375 Q415.5078,24.375 415.8789,24.7266 Q416.25,25.0781 416.25,25.8984 L416.25,27.8516 Q416.25,28.6719 415.8984,29.0234 Q415.5469,29.375 415,29.375 Q414.5117,29.375 414.1992,29.1602 Q413.8867,28.9453 413.75,28.3789 Q413.6914,27.9883 413.4766,27.7734 Q413.0859,27.3633 412.3828,27.1289 Q411.6797,26.875 410.9766,26.875 Q410.0977,26.875 409.3555,27.2266 Q408.6328,27.5781 408.0664,28.3594 Q407.5,29.1406 407.5,30.2148 L407.5,31.3672 Q407.5,32.6563 408.5547,33.5156 Q409.6094,34.375 411.4844,34.375 Q412.5977,34.375 413.3789,34.1211 Q413.8281,33.9844 414.3359,33.5352 Q414.668,33.2813 414.8438,33.2031 Q415.0195,33.125 415.2344,33.125 Q415.6445,33.125 415.9375,33.457 Q416.25,33.7695 416.25,34.2188 Q416.25,34.6484 415.8203,35.1563 Q415.1953,35.8984 414.1992,36.3086 Q412.8906,36.875 411.2891,36.875 Q409.4141,36.875 407.9102,36.1328 Q406.6992,35.5469 405.8398,34.2773 Q405,33.0078 405,31.5039 L405,30.1367 Q405,28.5742 405.7422,27.207 Q406.5039,25.8398 407.8125,25.1172 Q409.1406,24.375 410.625,24.375 Q411.5234,24.375 412.3047,24.6875 Q413.0859,25 413.75,25.625 Z "/><text fill="#000000" font-family="sans-serif" font-size="15" lengthAdjust="spacingAndGlyphs" textLength="188.75" x="428.75" y="36.1377">FinishInterventionController</text><line style="stroke: #A80036; stroke-width: 1.875;" x1="393.75" x2="620" y1="50" y2="50"/><line style="stroke: #A80036; stroke-width: 1.875;" x1="393.75" x2="620" y1="60" y2="60"/><!--MD5=[fb53487f3bac7251ff70379f798d388d]
class OpenInterventionsController--><rect fill="#FEFECE" filter="url(#fsgkbcc3h46rd)" height="60" id="OpenInterventionsController" style="stroke: #A80036; stroke-width: 1.875;" width="232.5" x="665.625" y="10"/><ellipse cx="684.375" cy="30" fill="#ADD1B2" rx="13.75" ry="13.75" style="stroke: #A80036; stroke-width: 1.25;"/><path d="M686.875,25.625 Q687.1289,25 687.4219,24.6875 Q687.7148,24.375 688.0469,24.375 Q688.6328,24.375 689.0039,24.7266 Q689.375,25.0781 689.375,25.8984 L689.375,27.8516 Q689.375,28.6719 689.0234,29.0234 Q688.6719,29.375 688.125,29.375 Q687.6367,29.375 687.3242,29.1602 Q687.0117,28.9453 686.875,28.3789 Q686.8164,27.9883 686.6016,27.7734 Q686.2109,27.3633 685.5078,27.1289 Q684.8047,26.875 684.1016,26.875 Q683.2227,26.875 682.4805,27.2266 Q681.7578,27.5781 681.1914,28.3594 Q680.625,29.1406 680.625,30.2148 L680.625,31.3672 Q680.625,32.6563 681.6797,33.5156 Q682.7344,34.375 684.6094,34.375 Q685.7227,34.375 686.5039,34.1211 Q686.9531,33.9844 687.4609,33.5352 Q687.793,33.2813 687.9688,33.2031 Q688.1445,33.125 688.3594,33.125 Q688.7695,33.125 689.0625,33.457 Q689.375,33.7695 689.375,34.2188 Q689.375,34.6484 688.9453,35.1563 Q688.3203,35.8984 687.3242,36.3086 Q686.0156,36.875 684.4141,36.875 Q682.5391,36.875 681.0352,36.1328 Q679.8242,35.5469 678.9648,34.2773 Q678.125,33.0078 678.125,31.5039 L678.125,30.1367 Q678.125,28.5742 678.8672,27.207 Q679.6289,25.8398 680.9375,25.1172 Q682.2656,24.375 683.75,24.375 Q684.6484,24.375 685.4297,24.6875 Q686.2109,25 686.875,25.625 Z "/><text fill="#000000" font-family="sans-serif" font-size="15" lengthAdjust="spacingAndGlyphs" textLength="192.5" x="701.875" y="36.1377">OpenInterventionsController</text><line style="stroke: #A80036; stroke-width: 1.875;" x1="666.875" x2="896.875" y1="50" y2="50"/><line style="stroke: #A80036; stroke-width: 1.875;" x1="666.875" x2="896.875" y1="60" y2="60"/><!--MD5=[7c7947527e80c8b754fb1e91c7a1da12]
link LoginController to MechanicsDao--><path d="M131.263,70.0538 C169.2387,91.655 222.8013,122.1238 271.2975,149.71 " fill="none" id="LoginController-&gt;MechanicsDao" style="stroke: #A80036; stroke-width: 1.25;"/><polygon fill="#A80036" points="277.185,153.0588,269.8762,143.152,271.7517,149.9698,264.9339,151.8453,277.185,153.0588" style="stroke: #A80036; stroke-width: 1.25;"/><!--MD5=[616a17fc61e02bac6a034463ad70a3e6]
link SignInController to MechanicsDao--><path d="M292.3213,70.2513 C304.8513,89.1813 321.85,114.86 338.1188,139.44 " fill="none" id="SignInController-&gt;MechanicsDao" style="stroke: #A80036; stroke-width: 1.25;"/><polygon fill="#A80036" points="341.795,144.9938,339.7553,132.8528,338.3454,139.7819,331.4163,138.3721,341.795,144.9938" style="stroke: #A80036; stroke-width: 1.25;"/><!--MD5=[439715382970c7d3afad25ca24fd85b6]
link FinishInterventionController to MechanicsDao--><path d="M487.4725,70.2513 C474.8075,89.1813 457.6263,114.86 441.1825,139.44 " fill="none" id="FinishInterventionController-&gt;MechanicsDao" style="stroke: #A80036; stroke-width: 1.25;"/><polygon fill="#A80036" points="437.4663,144.9938,447.8773,138.4232,440.9414,139.7989,439.5656,132.863,437.4663,144.9938" style="stroke: #A80036; stroke-width: 1.25;"/><!--MD5=[7573ade0f4395eaac80b89579e8afbec]
link OpenInterventionsController to MechanicsDao--><path d="M717.5013,70.0538 C660.5975,95.5163 576.1637,133.2963 507.1963,164.155 " fill="none" id="OpenInterventionsController-&gt;MechanicsDao" style="stroke: #A80036; stroke-width: 1.25;"/><polygon fill="#A80036" points="501.4175,166.7413,513.7285,166.7091,507.1222,164.188,509.6433,157.5816,501.4175,166.7413" style="stroke: #A80036; stroke-width: 1.25;"/><!--MD5=[ba35cbe6f6a3ab6d06eb6f1deb28c4e8]
@startuml
	class MechanicsDao {
	+create(mechanic)
	+readMechanics()
	+read(mechanicId)
	+serchBy(username, password)
	+update(mechanic)
	}

	LoginController - -> MechanicsDao
	SignInController - -> MechanicsDao
	FinishInterventionController - -> MechanicsDao
	OpenInterventionsController - -> MechanicsDao
@enduml

PlantUML version 1.2020.09(Sun May 10 12:51:06 CEST 2020)
(GPL source distribution)
Java Runtime: OpenJDK Runtime Environment
JVM: OpenJDK 64-Bit Server VM
Java Version: 11.0.8+10-b1094.1
Operating System: Windows 10
Default Encoding: Cp1252
Language: en
Country: GB
--></g></svg>