<?xml version="1.0" encoding="UTF-8" standalone="no"?><svg xmlns="http://www.w3.org/2000/svg" xmlns:xlink="http://www.w3.org/1999/xlink" contentScriptType="application/ecmascript" contentStyleType="text/css" height="388.75px" preserveAspectRatio="none" style="width:743px;height:388px;" version="1.1" viewBox="0 0 743 388" width="743.75px" zoomAndPan="magnify"><defs><filter height="300%" id="f1lkqh81c2vqcs" width="300%" x="-1" y="-1"><feGaussianBlur result="blurOut" stdDeviation="2.5"/><feColorMatrix in="blurOut" result="blurOut2" type="matrix" values="0 0 0 0 0 0 0 0 0 0 0 0 0 0 0 0 0 0 .4 0"/><feOffset dx="5.0" dy="5.0" in="blurOut2" result="blurOut3"/><feBlend in="SourceGraphic" in2="blurOut3" mode="normal"/></filter></defs><g><!--MD5=[b062a93b9911b68ecc396197f878ab01]
class ClientsView--><rect fill="#FEFECE" filter="url(#f1lkqh81c2vqcs)" height="94.5898" id="ClientsView" style="stroke: #A80036; stroke-width: 1.875;" width="153.75" x="235.625" y="145"/><ellipse cx="269" cy="165" fill="#ADD1B2" rx="13.75" ry="13.75" style="stroke: #A80036; stroke-width: 1.25;"/><path d="M271.5,160.625 Q271.7539,160 272.0469,159.6875 Q272.3398,159.375 272.6719,159.375 Q273.2578,159.375 273.6289,159.7266 Q274,160.0781 274,160.8984 L274,162.8516 Q274,163.6719 273.6484,164.0234 Q273.2969,164.375 272.75,164.375 Q272.2617,164.375 271.9492,164.1602 Q271.6367,163.9453 271.5,163.3789 Q271.4414,162.9883 271.2266,162.7734 Q270.8359,162.3633 270.1328,162.1289 Q269.4297,161.875 268.7266,161.875 Q267.8477,161.875 267.1055,162.2266 Q266.3828,162.5781 265.8164,163.3594 Q265.25,164.1406 265.25,165.2148 L265.25,166.3672 Q265.25,167.6563 266.3047,168.5156 Q267.3594,169.375 269.2344,169.375 Q270.3477,169.375 271.1289,169.1211 Q271.5781,168.9844 272.0859,168.5352 Q272.418,168.2813 272.5938,168.2031 Q272.7695,168.125 272.9844,168.125 Q273.3945,168.125 273.6875,168.457 Q274,168.7695 274,169.2188 Q274,169.6484 273.5703,170.1563 Q272.9453,170.8984 271.9492,171.3086 Q270.6406,171.875 269.0391,171.875 Q267.1641,171.875 265.6602,171.1328 Q264.4492,170.5469 263.5898,169.2773 Q262.75,168.0078 262.75,166.5039 L262.75,165.1367 Q262.75,163.5742 263.4922,162.207 Q264.2539,160.8398 265.5625,160.1172 Q266.8906,159.375 268.375,159.375 Q269.2734,159.375 270.0547,159.6875 Q270.8359,160 271.5,160.625 Z "/><text fill="#000000" font-family="sans-serif" font-size="15" lengthAdjust="spacingAndGlyphs" textLength="81.25" x="289.75" y="171.1377">ClientsView</text><line style="stroke: #A80036; stroke-width: 1.875;" x1="236.875" x2="388.125" y1="185" y2="185"/><line style="stroke: #A80036; stroke-width: 1.875;" x1="236.875" x2="388.125" y1="195" y2="195"/><ellipse cx="249.375" cy="208.75" fill="#84BE84" rx="3.75" ry="3.75" style="stroke: #038048; stroke-width: 1.25;"/><text fill="#000000" font-family="sans-serif" font-size="13.75" lengthAdjust="spacingAndGlyphs" textLength="121.25" x="260.625" y="214.2737">configClient(clientId)</text><ellipse cx="249.375" cy="226.0449" fill="#84BE84" rx="3.75" ry="3.75" style="stroke: #038048; stroke-width: 1.25;"/><text fill="#000000" font-family="sans-serif" font-size="13.75" lengthAdjust="spacingAndGlyphs" textLength="81.25" x="260.625" y="231.5686">createClient()</text><!--MD5=[ed6624c6556d5e7b1bd23032162d20b7]
class Client--><rect fill="#FEFECE" filter="url(#f1lkqh81c2vqcs)" height="60" id="Client" style="stroke: #A80036; stroke-width: 1.875;" width="80" x="7.5" y="315"/><ellipse cx="26.25" cy="335" fill="#ADD1B2" rx="13.75" ry="13.75" style="stroke: #A80036; stroke-width: 1.25;"/><path d="M28.75,330.625 Q29.0039,330 29.2969,329.6875 Q29.5898,329.375 29.9219,329.375 Q30.5078,329.375 30.8789,329.7266 Q31.25,330.0781 31.25,330.8984 L31.25,332.8516 Q31.25,333.6719 30.8984,334.0234 Q30.5469,334.375 30,334.375 Q29.5117,334.375 29.1992,334.1602 Q28.8867,333.9453 28.75,333.3789 Q28.6914,332.9883 28.4766,332.7734 Q28.0859,332.3633 27.3828,332.1289 Q26.6797,331.875 25.9766,331.875 Q25.0977,331.875 24.3555,332.2266 Q23.6328,332.5781 23.0664,333.3594 Q22.5,334.1406 22.5,335.2148 L22.5,336.3672 Q22.5,337.6563 23.5547,338.5156 Q24.6094,339.375 26.4844,339.375 Q27.5977,339.375 28.3789,339.1211 Q28.8281,338.9844 29.3359,338.5352 Q29.668,338.2813 29.8438,338.2031 Q30.0195,338.125 30.2344,338.125 Q30.6445,338.125 30.9375,338.457 Q31.25,338.7695 31.25,339.2188 Q31.25,339.6484 30.8203,340.1563 Q30.1953,340.8984 29.1992,341.3086 Q27.8906,341.875 26.2891,341.875 Q24.4141,341.875 22.9102,341.1328 Q21.6992,340.5469 20.8398,339.2773 Q20,338.0078 20,336.5039 L20,335.1367 Q20,333.5742 20.7422,332.207 Q21.5039,330.8398 22.8125,330.1172 Q24.1406,329.375 25.625,329.375 Q26.5234,329.375 27.3047,329.6875 Q28.0859,330 28.75,330.625 Z "/><text fill="#000000" font-family="sans-serif" font-size="15" lengthAdjust="spacingAndGlyphs" textLength="40" x="43.75" y="341.1377">Client</text><line style="stroke: #A80036; stroke-width: 1.875;" x1="8.75" x2="86.25" y1="355" y2="355"/><line style="stroke: #A80036; stroke-width: 1.875;" x1="8.75" x2="86.25" y1="365" y2="365"/><!--MD5=[db2a8cf534fad014d6d2a50fd3c594b1]
class CreateClientView--><rect fill="#FEFECE" filter="url(#f1lkqh81c2vqcs)" height="60" id="CreateClientView" style="stroke: #A80036; stroke-width: 1.875;" width="158.75" x="131.875" y="315"/><ellipse cx="150.625" cy="335" fill="#ADD1B2" rx="13.75" ry="13.75" style="stroke: #A80036; stroke-width: 1.25;"/><path d="M153.125,330.625 Q153.3789,330 153.6719,329.6875 Q153.9648,329.375 154.2969,329.375 Q154.8828,329.375 155.2539,329.7266 Q155.625,330.0781 155.625,330.8984 L155.625,332.8516 Q155.625,333.6719 155.2734,334.0234 Q154.9219,334.375 154.375,334.375 Q153.8867,334.375 153.5742,334.1602 Q153.2617,333.9453 153.125,333.3789 Q153.0664,332.9883 152.8516,332.7734 Q152.4609,332.3633 151.7578,332.1289 Q151.0547,331.875 150.3516,331.875 Q149.4727,331.875 148.7305,332.2266 Q148.0078,332.5781 147.4414,333.3594 Q146.875,334.1406 146.875,335.2148 L146.875,336.3672 Q146.875,337.6563 147.9297,338.5156 Q148.9844,339.375 150.8594,339.375 Q151.9727,339.375 152.7539,339.1211 Q153.2031,338.9844 153.7109,338.5352 Q154.043,338.2813 154.2188,338.2031 Q154.3945,338.125 154.6094,338.125 Q155.0195,338.125 155.3125,338.457 Q155.625,338.7695 155.625,339.2188 Q155.625,339.6484 155.1953,340.1563 Q154.5703,340.8984 153.5742,341.3086 Q152.2656,341.875 150.6641,341.875 Q148.7891,341.875 147.2852,341.1328 Q146.0742,340.5469 145.2148,339.2773 Q144.375,338.0078 144.375,336.5039 L144.375,335.1367 Q144.375,333.5742 145.1172,332.207 Q145.8789,330.8398 147.1875,330.1172 Q148.5156,329.375 150,329.375 Q150.8984,329.375 151.6797,329.6875 Q152.4609,330 153.125,330.625 Z "/><text fill="#000000" font-family="sans-serif" font-size="15" lengthAdjust="spacingAndGlyphs" textLength="118.75" x="168.125" y="341.1377">CreateClientView</text><line style="stroke: #A80036; stroke-width: 1.875;" x1="133.125" x2="289.375" y1="355" y2="355"/><line style="stroke: #A80036; stroke-width: 1.875;" x1="133.125" x2="289.375" y1="365" y2="365"/><!--MD5=[1bad87b9dbf42e3983017760005a656d]
class ConfigClientView--><rect fill="#FEFECE" filter="url(#f1lkqh81c2vqcs)" height="60" id="ConfigClientView" style="stroke: #A80036; stroke-width: 1.875;" width="157.5" x="335" y="315"/><ellipse cx="353.75" cy="335" fill="#ADD1B2" rx="13.75" ry="13.75" style="stroke: #A80036; stroke-width: 1.25;"/><path d="M356.25,330.625 Q356.5039,330 356.7969,329.6875 Q357.0898,329.375 357.4219,329.375 Q358.0078,329.375 358.3789,329.7266 Q358.75,330.0781 358.75,330.8984 L358.75,332.8516 Q358.75,333.6719 358.3984,334.0234 Q358.0469,334.375 357.5,334.375 Q357.0117,334.375 356.6992,334.1602 Q356.3867,333.9453 356.25,333.3789 Q356.1914,332.9883 355.9766,332.7734 Q355.5859,332.3633 354.8828,332.1289 Q354.1797,331.875 353.4766,331.875 Q352.5977,331.875 351.8555,332.2266 Q351.1328,332.5781 350.5664,333.3594 Q350,334.1406 350,335.2148 L350,336.3672 Q350,337.6563 351.0547,338.5156 Q352.1094,339.375 353.9844,339.375 Q355.0977,339.375 355.8789,339.1211 Q356.3281,338.9844 356.8359,338.5352 Q357.168,338.2813 357.3438,338.2031 Q357.5195,338.125 357.7344,338.125 Q358.1445,338.125 358.4375,338.457 Q358.75,338.7695 358.75,339.2188 Q358.75,339.6484 358.3203,340.1563 Q357.6953,340.8984 356.6992,341.3086 Q355.3906,341.875 353.7891,341.875 Q351.9141,341.875 350.4102,341.1328 Q349.1992,340.5469 348.3398,339.2773 Q347.5,338.0078 347.5,336.5039 L347.5,335.1367 Q347.5,333.5742 348.2422,332.207 Q349.0039,330.8398 350.3125,330.1172 Q351.6406,329.375 353.125,329.375 Q354.0234,329.375 354.8047,329.6875 Q355.5859,330 356.25,330.625 Z "/><text fill="#000000" font-family="sans-serif" font-size="15" lengthAdjust="spacingAndGlyphs" textLength="117.5" x="371.25" y="341.1377">ConfigClientView</text><line style="stroke: #A80036; stroke-width: 1.875;" x1="336.25" x2="491.25" y1="355" y2="355"/><line style="stroke: #A80036; stroke-width: 1.875;" x1="336.25" x2="491.25" y1="365" y2="365"/><!--MD5=[d00b8625e1e18ad3cef6970b6d29f6da]
class OpenClientsController--><rect fill="#FEFECE" filter="url(#f1lkqh81c2vqcs)" height="60" id="OpenClientsController" style="stroke: #A80036; stroke-width: 1.875;" width="193.75" x="536.875" y="315"/><ellipse cx="555.625" cy="335" fill="#ADD1B2" rx="13.75" ry="13.75" style="stroke: #A80036; stroke-width: 1.25;"/><path d="M558.125,330.625 Q558.3789,330 558.6719,329.6875 Q558.9648,329.375 559.2969,329.375 Q559.8828,329.375 560.2539,329.7266 Q560.625,330.0781 560.625,330.8984 L560.625,332.8516 Q560.625,333.6719 560.2734,334.0234 Q559.9219,334.375 559.375,334.375 Q558.8867,334.375 558.5742,334.1602 Q558.2617,333.9453 558.125,333.3789 Q558.0664,332.9883 557.8516,332.7734 Q557.4609,332.3633 556.7578,332.1289 Q556.0547,331.875 555.3516,331.875 Q554.4727,331.875 553.7305,332.2266 Q553.0078,332.5781 552.4414,333.3594 Q551.875,334.1406 551.875,335.2148 L551.875,336.3672 Q551.875,337.6563 552.9297,338.5156 Q553.9844,339.375 555.8594,339.375 Q556.9727,339.375 557.7539,339.1211 Q558.2031,338.9844 558.7109,338.5352 Q559.043,338.2813 559.2188,338.2031 Q559.3945,338.125 559.6094,338.125 Q560.0195,338.125 560.3125,338.457 Q560.625,338.7695 560.625,339.2188 Q560.625,339.6484 560.1953,340.1563 Q559.5703,340.8984 558.5742,341.3086 Q557.2656,341.875 555.6641,341.875 Q553.7891,341.875 552.2852,341.1328 Q551.0742,340.5469 550.2148,339.2773 Q549.375,338.0078 549.375,336.5039 L549.375,335.1367 Q549.375,333.5742 550.1172,332.207 Q550.8789,330.8398 552.1875,330.1172 Q553.5156,329.375 555,329.375 Q555.8984,329.375 556.6797,329.6875 Q557.4609,330 558.125,330.625 Z "/><text fill="#000000" font-family="sans-serif" font-size="15" lengthAdjust="spacingAndGlyphs" textLength="153.75" x="573.125" y="341.1377">OpenClientsController</text><line style="stroke: #A80036; stroke-width: 1.875;" x1="538.125" x2="729.375" y1="355" y2="355"/><line style="stroke: #A80036; stroke-width: 1.875;" x1="538.125" x2="729.375" y1="365" y2="365"/><!--MD5=[f6bfa8e6ad2e37edcd578b647fafadda]
class MenuView--><rect fill="#FEFECE" filter="url(#f1lkqh81c2vqcs)" height="60" id="MenuView" style="stroke: #A80036; stroke-width: 1.875;" width="110" x="257.5" y="10"/><ellipse cx="276.25" cy="30" fill="#ADD1B2" rx="13.75" ry="13.75" style="stroke: #A80036; stroke-width: 1.25;"/><path d="M278.75,25.625 Q279.0039,25 279.2969,24.6875 Q279.5898,24.375 279.9219,24.375 Q280.5078,24.375 280.8789,24.7266 Q281.25,25.0781 281.25,25.8984 L281.25,27.8516 Q281.25,28.6719 280.8984,29.0234 Q280.5469,29.375 280,29.375 Q279.5117,29.375 279.1992,29.1602 Q278.8867,28.9453 278.75,28.3789 Q278.6914,27.9883 278.4766,27.7734 Q278.0859,27.3633 277.3828,27.1289 Q276.6797,26.875 275.9766,26.875 Q275.0977,26.875 274.3555,27.2266 Q273.6328,27.5781 273.0664,28.3594 Q272.5,29.1406 272.5,30.2148 L272.5,31.3672 Q272.5,32.6563 273.5547,33.5156 Q274.6094,34.375 276.4844,34.375 Q277.5977,34.375 278.3789,34.1211 Q278.8281,33.9844 279.3359,33.5352 Q279.668,33.2813 279.8438,33.2031 Q280.0195,33.125 280.2344,33.125 Q280.6445,33.125 280.9375,33.457 Q281.25,33.7695 281.25,34.2188 Q281.25,34.6484 280.8203,35.1563 Q280.1953,35.8984 279.1992,36.3086 Q277.8906,36.875 276.2891,36.875 Q274.4141,36.875 272.9102,36.1328 Q271.6992,35.5469 270.8398,34.2773 Q270,33.0078 270,31.5039 L270,30.1367 Q270,28.5742 270.7422,27.207 Q271.5039,25.8398 272.8125,25.1172 Q274.1406,24.375 275.625,24.375 Q276.5234,24.375 277.3047,24.6875 Q278.0859,25 278.75,25.625 Z "/><text fill="#000000" font-family="sans-serif" font-size="15" lengthAdjust="spacingAndGlyphs" textLength="70" x="293.75" y="36.1377">MenuView</text><line style="stroke: #A80036; stroke-width: 1.875;" x1="258.75" x2="366.25" y1="50" y2="50"/><line style="stroke: #A80036; stroke-width: 1.875;" x1="258.75" x2="366.25" y1="60" y2="60"/><!--MD5=[a7293d51e69298fb0d2e1aa8a292ec55]
link ClientsView to Client--><path d="M235.495,237.3375 C189.4688,263.3904 132.5375,295.6153 93.4594,317.7353 " fill="none" id="ClientsView-&gt;Client" style="stroke: #A80036; stroke-width: 1.25;"/><polygon fill="#A80036" points="87.8266,320.9236,100.08,319.7332,93.2657,317.8449,95.154,311.0306,87.8266,320.9236" style="stroke: #A80036; stroke-width: 1.25;"/><!--MD5=[d23bdb41222177ad3151863a31e26802]
link ClientsView to CreateClientView--><path d="M281.0188,240.3888 C266.055,262.557 248.475,288.6021 234.705,309.0016 " fill="none" id="ClientsView-&gt;CreateClientView" style="stroke: #A80036; stroke-width: 1.25;"/><polygon fill="#A80036" points="230.9275,314.5978,241.3657,308.0704,234.4241,309.4174,233.0771,302.4758,230.9275,314.5978" style="stroke: #A80036; stroke-width: 1.25;"/><!--MD5=[9565210aff18593641f6b08a92cd232a]
link ClientsView to ConfigClientView--><path d="M343.9813,240.3888 C358.945,262.557 376.525,288.6021 390.295,309.0016 " fill="none" id="ClientsView-&gt;ConfigClientView" style="stroke: #A80036; stroke-width: 1.25;"/><polygon fill="#A80036" points="394.0725,314.5978,391.9229,302.4758,390.5759,309.4174,383.6343,308.0704,394.0725,314.5978" style="stroke: #A80036; stroke-width: 1.25;"/><!--MD5=[81dfcf33288c0d770adf2a583be9fa56]
link ClientsView to OpenClientsController--><path d="M389.4475,229.6787 C443.2463,254.799 514.4213,288.0324 566.0613,312.1441 " fill="none" id="ClientsView-&gt;OpenClientsController" style="stroke: #A80036; stroke-width: 1.25;"/><polygon fill="#A80036" points="571.9425,314.8903,563.8649,305.5997,566.2796,312.2457,559.6336,314.6603,571.9425,314.8903" style="stroke: #A80036; stroke-width: 1.25;"/><!--MD5=[c71599cac86e869311397ed9484ffd64]
link MenuView to ClientsView--><path d="M312.5,70.1713 C312.5,89.47 312.5,115.415 312.5,138.3363 " fill="none" id="MenuView-&gt;ClientsView" style="stroke: #A80036; stroke-width: 1.25;"/><polygon fill="#A80036" points="312.5,144.7137,317.5,133.4637,312.5,138.4637,307.5,133.4637,312.5,144.7137" style="stroke: #A80036; stroke-width: 1.25;"/><!--MD5=[58e582503b643de4ebd91e53d5bf8182]
@startuml
	class ClientsView {
	+configClient(clientId)
	+createClient()
	}

	ClientsView - -> Client
	ClientsView - -> CreateClientView
	ClientsView - -> ConfigClientView
	ClientsView - -> OpenClientsController
	MenuView - -> ClientsView
@enduml

PlantUML version 1.2020.09(Sun May 10 12:51:06 CEST 2020)
(GPL source distribution)
Java Runtime: OpenJDK Runtime Environment
JVM: OpenJDK 64-Bit Server VM
Java Version: 11.0.8+10-b1094.1
Operating System: Windows 10
Default Encoding: Cp1252
Language: en
Country: GB
--></g></svg>