<?xml version="1.0" encoding="UTF-8" standalone="no"?><svg xmlns="http://www.w3.org/2000/svg" xmlns:xlink="http://www.w3.org/1999/xlink" contentScriptType="application/ecmascript" contentStyleType="text/css" height="617.5px" preserveAspectRatio="none" style="width:448px;height:617px;" version="1.1" viewBox="0 0 448 617" width="448.75px" zoomAndPan="magnify"><defs><filter height="300%" id="f1l44k01ab7zpi" width="300%" x="-1" y="-1"><feGaussianBlur result="blurOut" stdDeviation="2.5"/><feColorMatrix in="blurOut" result="blurOut2" type="matrix" values="0 0 0 0 0 0 0 0 0 0 0 0 0 0 0 0 0 0 .4 0"/><feOffset dx="5.0" dy="5.0" in="blurOut2" result="blurOut3"/><feBlend in="SourceGraphic" in2="blurOut3" mode="normal"/></filter></defs><g><!--MD5=[1bad87b9dbf42e3983017760005a656d]
class ConfigClientView--><rect fill="#FEFECE" filter="url(#f1l44k01ab7zpi)" height="111.8848" id="ConfigClientView" style="stroke: #A80036; stroke-width: 1.875;" width="215" x="120" y="145"/><ellipse cx="164.625" cy="165" fill="#ADD1B2" rx="13.75" ry="13.75" style="stroke: #A80036; stroke-width: 1.25;"/><path d="M167.125,160.625 Q167.3789,160 167.6719,159.6875 Q167.9648,159.375 168.2969,159.375 Q168.8828,159.375 169.2539,159.7266 Q169.625,160.0781 169.625,160.8984 L169.625,162.8516 Q169.625,163.6719 169.2734,164.0234 Q168.9219,164.375 168.375,164.375 Q167.8867,164.375 167.5742,164.1602 Q167.2617,163.9453 167.125,163.3789 Q167.0664,162.9883 166.8516,162.7734 Q166.4609,162.3633 165.7578,162.1289 Q165.0547,161.875 164.3516,161.875 Q163.4727,161.875 162.7305,162.2266 Q162.0078,162.5781 161.4414,163.3594 Q160.875,164.1406 160.875,165.2148 L160.875,166.3672 Q160.875,167.6563 161.9297,168.5156 Q162.9844,169.375 164.8594,169.375 Q165.9727,169.375 166.7539,169.1211 Q167.2031,168.9844 167.7109,168.5352 Q168.043,168.2813 168.2188,168.2031 Q168.3945,168.125 168.6094,168.125 Q169.0195,168.125 169.3125,168.457 Q169.625,168.7695 169.625,169.2188 Q169.625,169.6484 169.1953,170.1563 Q168.5703,170.8984 167.5742,171.3086 Q166.2656,171.875 164.6641,171.875 Q162.7891,171.875 161.2852,171.1328 Q160.0742,170.5469 159.2148,169.2773 Q158.375,168.0078 158.375,166.5039 L158.375,165.1367 Q158.375,163.5742 159.1172,162.207 Q159.8789,160.8398 161.1875,160.1172 Q162.5156,159.375 164,159.375 Q164.8984,159.375 165.6797,159.6875 Q166.4609,160 167.125,160.625 Z "/><text fill="#000000" font-family="sans-serif" font-size="15" lengthAdjust="spacingAndGlyphs" textLength="117.5" x="187.875" y="171.1377">ConfigClientView</text><line style="stroke: #A80036; stroke-width: 1.875;" x1="121.25" x2="333.75" y1="185" y2="185"/><line style="stroke: #A80036; stroke-width: 1.875;" x1="121.25" x2="333.75" y1="195" y2="195"/><ellipse cx="133.75" cy="208.75" fill="#84BE84" rx="3.75" ry="3.75" style="stroke: #038048; stroke-width: 1.25;"/><text fill="#000000" font-family="sans-serif" font-size="13.75" lengthAdjust="spacingAndGlyphs" textLength="182.5" x="145" y="214.2737">setBillableHours(billableHours)</text><ellipse cx="133.75" cy="226.0449" fill="#84BE84" rx="3.75" ry="3.75" style="stroke: #038048; stroke-width: 1.25;"/><text fill="#000000" font-family="sans-serif" font-size="13.75" lengthAdjust="spacingAndGlyphs" textLength="71.25" x="145" y="231.5686">save(client)</text><ellipse cx="133.75" cy="243.3398" fill="#84BE84" rx="3.75" ry="3.75" style="stroke: #038048; stroke-width: 1.25;"/><text fill="#000000" font-family="sans-serif" font-size="13.75" lengthAdjust="spacingAndGlyphs" textLength="133.75" x="145" y="248.8635">setFullName(fullName)</text><!--MD5=[ed6624c6556d5e7b1bd23032162d20b7]
class Client--><rect fill="#FEFECE" filter="url(#f1l44k01ab7zpi)" height="60" id="Client" style="stroke: #A80036; stroke-width: 1.875;" width="80" x="7.5" y="332.5"/><ellipse cx="26.25" cy="352.5" fill="#ADD1B2" rx="13.75" ry="13.75" style="stroke: #A80036; stroke-width: 1.25;"/><path d="M28.75,348.125 Q29.0039,347.5 29.2969,347.1875 Q29.5898,346.875 29.9219,346.875 Q30.5078,346.875 30.8789,347.2266 Q31.25,347.5781 31.25,348.3984 L31.25,350.3516 Q31.25,351.1719 30.8984,351.5234 Q30.5469,351.875 30,351.875 Q29.5117,351.875 29.1992,351.6602 Q28.8867,351.4453 28.75,350.8789 Q28.6914,350.4883 28.4766,350.2734 Q28.0859,349.8633 27.3828,349.6289 Q26.6797,349.375 25.9766,349.375 Q25.0977,349.375 24.3555,349.7266 Q23.6328,350.0781 23.0664,350.8594 Q22.5,351.6406 22.5,352.7148 L22.5,353.8672 Q22.5,355.1563 23.5547,356.0156 Q24.6094,356.875 26.4844,356.875 Q27.5977,356.875 28.3789,356.6211 Q28.8281,356.4844 29.3359,356.0352 Q29.668,355.7813 29.8438,355.7031 Q30.0195,355.625 30.2344,355.625 Q30.6445,355.625 30.9375,355.957 Q31.25,356.2695 31.25,356.7188 Q31.25,357.1484 30.8203,357.6563 Q30.1953,358.3984 29.1992,358.8086 Q27.8906,359.375 26.2891,359.375 Q24.4141,359.375 22.9102,358.6328 Q21.6992,358.0469 20.8398,356.7773 Q20,355.5078 20,354.0039 L20,352.6367 Q20,351.0742 20.7422,349.707 Q21.5039,348.3398 22.8125,347.6172 Q24.1406,346.875 25.625,346.875 Q26.5234,346.875 27.3047,347.1875 Q28.0859,347.5 28.75,348.125 Z "/><text fill="#000000" font-family="sans-serif" font-size="15" lengthAdjust="spacingAndGlyphs" textLength="40" x="43.75" y="358.6377">Client</text><line style="stroke: #A80036; stroke-width: 1.875;" x1="8.75" x2="86.25" y1="372.5" y2="372.5"/><line style="stroke: #A80036; stroke-width: 1.875;" x1="8.75" x2="86.25" y1="382.5" y2="382.5"/><!--MD5=[b062a93b9911b68ecc396197f878ab01]
class ClientsView--><rect fill="#FEFECE" filter="url(#f1l44k01ab7zpi)" height="60" id="ClientsView" style="stroke: #A80036; stroke-width: 1.875;" width="121.25" x="166.875" y="10"/><ellipse cx="185.625" cy="30" fill="#ADD1B2" rx="13.75" ry="13.75" style="stroke: #A80036; stroke-width: 1.25;"/><path d="M188.125,25.625 Q188.3789,25 188.6719,24.6875 Q188.9648,24.375 189.2969,24.375 Q189.8828,24.375 190.2539,24.7266 Q190.625,25.0781 190.625,25.8984 L190.625,27.8516 Q190.625,28.6719 190.2734,29.0234 Q189.9219,29.375 189.375,29.375 Q188.8867,29.375 188.5742,29.1602 Q188.2617,28.9453 188.125,28.3789 Q188.0664,27.9883 187.8516,27.7734 Q187.4609,27.3633 186.7578,27.1289 Q186.0547,26.875 185.3516,26.875 Q184.4727,26.875 183.7305,27.2266 Q183.0078,27.5781 182.4414,28.3594 Q181.875,29.1406 181.875,30.2148 L181.875,31.3672 Q181.875,32.6563 182.9297,33.5156 Q183.9844,34.375 185.8594,34.375 Q186.9727,34.375 187.7539,34.1211 Q188.2031,33.9844 188.7109,33.5352 Q189.043,33.2813 189.2188,33.2031 Q189.3945,33.125 189.6094,33.125 Q190.0195,33.125 190.3125,33.457 Q190.625,33.7695 190.625,34.2188 Q190.625,34.6484 190.1953,35.1563 Q189.5703,35.8984 188.5742,36.3086 Q187.2656,36.875 185.6641,36.875 Q183.7891,36.875 182.2852,36.1328 Q181.0742,35.5469 180.2148,34.2773 Q179.375,33.0078 179.375,31.5039 L179.375,30.1367 Q179.375,28.5742 180.1172,27.207 Q180.8789,25.8398 182.1875,25.1172 Q183.5156,24.375 185,24.375 Q185.8984,24.375 186.6797,24.6875 Q187.4609,25 188.125,25.625 Z "/><text fill="#000000" font-family="sans-serif" font-size="15" lengthAdjust="spacingAndGlyphs" textLength="81.25" x="203.125" y="36.1377">ClientsView</text><line style="stroke: #A80036; stroke-width: 1.875;" x1="168.125" x2="286.875" y1="50" y2="50"/><line style="stroke: #A80036; stroke-width: 1.875;" x1="168.125" x2="286.875" y1="60" y2="60"/><!--MD5=[b91ba1baef5d10b77f32375464f8b740]
class ConfigClientController--><rect fill="#FEFECE" filter="url(#f1l44k01ab7zpi)" height="60" id="ConfigClientController" style="stroke: #A80036; stroke-width: 1.875;" width="192.5" x="131.25" y="332.5"/><ellipse cx="150" cy="352.5" fill="#ADD1B2" rx="13.75" ry="13.75" style="stroke: #A80036; stroke-width: 1.25;"/><path d="M152.5,348.125 Q152.7539,347.5 153.0469,347.1875 Q153.3398,346.875 153.6719,346.875 Q154.2578,346.875 154.6289,347.2266 Q155,347.5781 155,348.3984 L155,350.3516 Q155,351.1719 154.6484,351.5234 Q154.2969,351.875 153.75,351.875 Q153.2617,351.875 152.9492,351.6602 Q152.6367,351.4453 152.5,350.8789 Q152.4414,350.4883 152.2266,350.2734 Q151.8359,349.8633 151.1328,349.6289 Q150.4297,349.375 149.7266,349.375 Q148.8477,349.375 148.1055,349.7266 Q147.3828,350.0781 146.8164,350.8594 Q146.25,351.6406 146.25,352.7148 L146.25,353.8672 Q146.25,355.1563 147.3047,356.0156 Q148.3594,356.875 150.2344,356.875 Q151.3477,356.875 152.1289,356.6211 Q152.5781,356.4844 153.0859,356.0352 Q153.418,355.7813 153.5938,355.7031 Q153.7695,355.625 153.9844,355.625 Q154.3945,355.625 154.6875,355.957 Q155,356.2695 155,356.7188 Q155,357.1484 154.5703,357.6563 Q153.9453,358.3984 152.9492,358.8086 Q151.6406,359.375 150.0391,359.375 Q148.1641,359.375 146.6602,358.6328 Q145.4492,358.0469 144.5898,356.7773 Q143.75,355.5078 143.75,354.0039 L143.75,352.6367 Q143.75,351.0742 144.4922,349.707 Q145.2539,348.3398 146.5625,347.6172 Q147.8906,346.875 149.375,346.875 Q150.2734,346.875 151.0547,347.1875 Q151.8359,347.5 152.5,348.125 Z "/><text fill="#000000" font-family="sans-serif" font-size="15" lengthAdjust="spacingAndGlyphs" textLength="152.5" x="167.5" y="358.6377">ConfigClientController</text><line style="stroke: #A80036; stroke-width: 1.875;" x1="132.5" x2="322.5" y1="372.5" y2="372.5"/><line style="stroke: #A80036; stroke-width: 1.875;" x1="132.5" x2="322.5" y1="382.5" y2="382.5"/><!--MD5=[3aa0d89c6bfdcbf7f32042cedac57549]
class Vehicle--><rect fill="#FEFECE" filter="url(#f1l44k01ab7zpi)" height="60" id="Vehicle" style="stroke: #A80036; stroke-width: 1.875;" width="90" x="345" y="543.75"/><ellipse cx="363.75" cy="563.75" fill="#ADD1B2" rx="13.75" ry="13.75" style="stroke: #A80036; stroke-width: 1.25;"/><path d="M366.25,559.375 Q366.5039,558.75 366.7969,558.4375 Q367.0898,558.125 367.4219,558.125 Q368.0078,558.125 368.3789,558.4766 Q368.75,558.8281 368.75,559.6484 L368.75,561.6016 Q368.75,562.4219 368.3984,562.7734 Q368.0469,563.125 367.5,563.125 Q367.0117,563.125 366.6992,562.9102 Q366.3867,562.6953 366.25,562.1289 Q366.1914,561.7383 365.9766,561.5234 Q365.5859,561.1133 364.8828,560.8789 Q364.1797,560.625 363.4766,560.625 Q362.5977,560.625 361.8555,560.9766 Q361.1328,561.3281 360.5664,562.1094 Q360,562.8906 360,563.9648 L360,565.1172 Q360,566.4063 361.0547,567.2656 Q362.1094,568.125 363.9844,568.125 Q365.0977,568.125 365.8789,567.8711 Q366.3281,567.7344 366.8359,567.2852 Q367.168,567.0313 367.3438,566.9531 Q367.5195,566.875 367.7344,566.875 Q368.1445,566.875 368.4375,567.207 Q368.75,567.5195 368.75,567.9688 Q368.75,568.3984 368.3203,568.9063 Q367.6953,569.6484 366.6992,570.0586 Q365.3906,570.625 363.7891,570.625 Q361.9141,570.625 360.4102,569.8828 Q359.1992,569.2969 358.3398,568.0273 Q357.5,566.7578 357.5,565.2539 L357.5,563.8867 Q357.5,562.3242 358.2422,560.957 Q359.0039,559.5898 360.3125,558.8672 Q361.6406,558.125 363.125,558.125 Q364.0234,558.125 364.8047,558.4375 Q365.5859,558.75 366.25,559.375 Z "/><text fill="#000000" font-family="sans-serif" font-size="15" lengthAdjust="spacingAndGlyphs" textLength="50" x="381.25" y="569.8877">Vehicle</text><line style="stroke: #A80036; stroke-width: 1.875;" x1="346.25" x2="433.75" y1="583.75" y2="583.75"/><line style="stroke: #A80036; stroke-width: 1.875;" x1="346.25" x2="433.75" y1="593.75" y2="593.75"/><!--MD5=[c837591119cd2aed62b61b4b202b2922]
link ConfigClientView to Client--><path d="M165.05,257.5775 C138.6175,280.8888 108.6773,307.295 85.6281,327.6225 " fill="none" id="ConfigClientView-&gt;Client" style="stroke: #A80036; stroke-width: 1.25;"/><polygon fill="#A80036" points="80.5214,332.1275,92.266,328.4362,85.2088,327.9934,85.6515,320.9363,80.5214,332.1275" style="stroke: #A80036; stroke-width: 1.25;"/><!--MD5=[9565210aff18593641f6b08a92cd232a]
link ClientsView to ConfigClientView--><path d="M227.5,70.3675 C227.5,89.3487 227.5,114.845 227.5,138.2037 " fill="none" id="ClientsView-&gt;ConfigClientView" style="stroke: #A80036; stroke-width: 1.25;"/><polygon fill="#A80036" points="227.5,144.7275,232.5,133.4775,227.5,138.4775,222.5,133.4775,227.5,144.7275" style="stroke: #A80036; stroke-width: 1.25;"/><!--MD5=[21506a4cced13b6e8f30089a1277344c]
link ConfigClientView to ConfigClientController--><path d="M227.5,257.5775 C227.5,280.105 227.5,305.5238 227.5,325.5525 " fill="none" id="ConfigClientView-&gt;ConfigClientController" style="stroke: #A80036; stroke-width: 1.25;"/><polygon fill="#A80036" points="227.5,332.1275,232.5,320.8775,227.5,325.8775,222.5,320.8775,227.5,332.1275" style="stroke: #A80036; stroke-width: 1.25;"/><!--MD5=[6d0658b42fe72eb0d2d6ec169da6f3d1]
link ConfigClientView to Vehicle--><path d="M289.8638,257.8025 C310.3975,279.185 331.4225,305.1063 345,332.5 C378.3313,399.75 387.0825,488.7752 389.31,537.2893 " fill="none" id="ConfigClientView-&gt;Vehicle" style="stroke: #A80036; stroke-width: 1.25;"/><polygon fill="#A80036" points="389.5725,543.5731,394.0989,532.1243,389.3118,537.3286,384.1076,532.5415,389.5725,543.5731" style="stroke: #A80036; stroke-width: 1.25;"/><!--MD5=[27303d935aa570af119a9de380275472]
@startuml
	class ConfigClientView {
	+setBillableHours(billableHours)
	+save(client)
	+setFullName(fullName)
	}

	ConfigClientView - -> Client
	ClientsView - -> ConfigClientView
	ConfigClientView - -> ConfigClientController
	ConfigClientView - - - -> Vehicle
@enduml

PlantUML version 1.2020.09(Sun May 10 12:51:06 CEST 2020)
(GPL source distribution)
Java Runtime: OpenJDK Runtime Environment
JVM: OpenJDK 64-Bit Server VM
Java Version: 11.0.8+10-b1094.1
Operating System: Windows 10
Default Encoding: Cp1252
Language: en
Country: GB
--></g></svg>