<?xml version="1.0" encoding="UTF-8" standalone="no"?><svg xmlns="http://www.w3.org/2000/svg" xmlns:xlink="http://www.w3.org/1999/xlink" contentScriptType="application/ecmascript" contentStyleType="text/css" height="371.25px" preserveAspectRatio="none" style="width:357px;height:371px;" version="1.1" viewBox="0 0 357 371" width="357.5px" zoomAndPan="magnify"><defs><filter height="300%" id="f10qu0h9x0j0d1" width="300%" x="-1" y="-1"><feGaussianBlur result="blurOut" stdDeviation="2.5"/><feColorMatrix in="blurOut" result="blurOut2" type="matrix" values="0 0 0 0 0 0 0 0 0 0 0 0 0 0 0 0 0 0 .4 0"/><feOffset dx="5.0" dy="5.0" in="blurOut2" result="blurOut3"/><feBlend in="SourceGraphic" in2="blurOut3" mode="normal"/></filter></defs><g><!--MD5=[9e0c71a3125094596f70bfdc08b8bc9b]
class ConfigVehicleView--><rect fill="#FEFECE" filter="url(#f10qu0h9x0j0d1)" height="77.2949" id="ConfigVehicleView" style="stroke: #A80036; stroke-width: 1.875;" width="167.5" x="63.75" y="145"/><ellipse cx="82.5" cy="165" fill="#ADD1B2" rx="13.75" ry="13.75" style="stroke: #A80036; stroke-width: 1.25;"/><path d="M85,160.625 Q85.2539,160 85.5469,159.6875 Q85.8398,159.375 86.1719,159.375 Q86.7578,159.375 87.1289,159.7266 Q87.5,160.0781 87.5,160.8984 L87.5,162.8516 Q87.5,163.6719 87.1484,164.0234 Q86.7969,164.375 86.25,164.375 Q85.7617,164.375 85.4492,164.1602 Q85.1367,163.9453 85,163.3789 Q84.9414,162.9883 84.7266,162.7734 Q84.3359,162.3633 83.6328,162.1289 Q82.9297,161.875 82.2266,161.875 Q81.3477,161.875 80.6055,162.2266 Q79.8828,162.5781 79.3164,163.3594 Q78.75,164.1406 78.75,165.2148 L78.75,166.3672 Q78.75,167.6563 79.8047,168.5156 Q80.8594,169.375 82.7344,169.375 Q83.8477,169.375 84.6289,169.1211 Q85.0781,168.9844 85.5859,168.5352 Q85.918,168.2813 86.0938,168.2031 Q86.2695,168.125 86.4844,168.125 Q86.8945,168.125 87.1875,168.457 Q87.5,168.7695 87.5,169.2188 Q87.5,169.6484 87.0703,170.1563 Q86.4453,170.8984 85.4492,171.3086 Q84.1406,171.875 82.5391,171.875 Q80.6641,171.875 79.1602,171.1328 Q77.9492,170.5469 77.0898,169.2773 Q76.25,168.0078 76.25,166.5039 L76.25,165.1367 Q76.25,163.5742 76.9922,162.207 Q77.7539,160.8398 79.0625,160.1172 Q80.3906,159.375 81.875,159.375 Q82.7734,159.375 83.5547,159.6875 Q84.3359,160 85,160.625 Z "/><text fill="#000000" font-family="sans-serif" font-size="15" lengthAdjust="spacingAndGlyphs" textLength="127.5" x="100" y="171.1377">ConfigVehicleView</text><line style="stroke: #A80036; stroke-width: 1.875;" x1="65" x2="230" y1="185" y2="185"/><line style="stroke: #A80036; stroke-width: 1.875;" x1="65" x2="230" y1="195" y2="195"/><ellipse cx="77.5" cy="208.75" fill="#84BE84" rx="3.75" ry="3.75" style="stroke: #038048; stroke-width: 1.25;"/><text fill="#000000" font-family="sans-serif" font-size="13.75" lengthAdjust="spacingAndGlyphs" textLength="118.75" x="88.75" y="214.2737">setVehicleInfo(info)</text><!--MD5=[3aa0d89c6bfdcbf7f32042cedac57549]
class Vehicle--><rect fill="#FEFECE" filter="url(#f10qu0h9x0j0d1)" height="60" id="Vehicle" style="stroke: #A80036; stroke-width: 1.875;" width="90" x="7.5" y="297.5"/><ellipse cx="26.25" cy="317.5" fill="#ADD1B2" rx="13.75" ry="13.75" style="stroke: #A80036; stroke-width: 1.25;"/><path d="M28.75,313.125 Q29.0039,312.5 29.2969,312.1875 Q29.5898,311.875 29.9219,311.875 Q30.5078,311.875 30.8789,312.2266 Q31.25,312.5781 31.25,313.3984 L31.25,315.3516 Q31.25,316.1719 30.8984,316.5234 Q30.5469,316.875 30,316.875 Q29.5117,316.875 29.1992,316.6602 Q28.8867,316.4453 28.75,315.8789 Q28.6914,315.4883 28.4766,315.2734 Q28.0859,314.8633 27.3828,314.6289 Q26.6797,314.375 25.9766,314.375 Q25.0977,314.375 24.3555,314.7266 Q23.6328,315.0781 23.0664,315.8594 Q22.5,316.6406 22.5,317.7148 L22.5,318.8672 Q22.5,320.1563 23.5547,321.0156 Q24.6094,321.875 26.4844,321.875 Q27.5977,321.875 28.3789,321.6211 Q28.8281,321.4844 29.3359,321.0352 Q29.668,320.7813 29.8438,320.7031 Q30.0195,320.625 30.2344,320.625 Q30.6445,320.625 30.9375,320.957 Q31.25,321.2695 31.25,321.7188 Q31.25,322.1484 30.8203,322.6563 Q30.1953,323.3984 29.1992,323.8086 Q27.8906,324.375 26.2891,324.375 Q24.4141,324.375 22.9102,323.6328 Q21.6992,323.0469 20.8398,321.7773 Q20,320.5078 20,319.0039 L20,317.6367 Q20,316.0742 20.7422,314.707 Q21.5039,313.3398 22.8125,312.6172 Q24.1406,311.875 25.625,311.875 Q26.5234,311.875 27.3047,312.1875 Q28.0859,312.5 28.75,313.125 Z "/><text fill="#000000" font-family="sans-serif" font-size="15" lengthAdjust="spacingAndGlyphs" textLength="50" x="43.75" y="323.6377">Vehicle</text><line style="stroke: #A80036; stroke-width: 1.875;" x1="8.75" x2="96.25" y1="337.5" y2="337.5"/><line style="stroke: #A80036; stroke-width: 1.875;" x1="8.75" x2="96.25" y1="347.5" y2="347.5"/><!--MD5=[5d2bdef844ee30e945474426b37189d0]
class VehiclesView--><rect fill="#FEFECE" filter="url(#f10qu0h9x0j0d1)" height="60" id="VehiclesView" style="stroke: #A80036; stroke-width: 1.875;" width="131.25" x="81.875" y="10"/><ellipse cx="100.625" cy="30" fill="#ADD1B2" rx="13.75" ry="13.75" style="stroke: #A80036; stroke-width: 1.25;"/><path d="M103.125,25.625 Q103.3789,25 103.6719,24.6875 Q103.9648,24.375 104.2969,24.375 Q104.8828,24.375 105.2539,24.7266 Q105.625,25.0781 105.625,25.8984 L105.625,27.8516 Q105.625,28.6719 105.2734,29.0234 Q104.9219,29.375 104.375,29.375 Q103.8867,29.375 103.5742,29.1602 Q103.2617,28.9453 103.125,28.3789 Q103.0664,27.9883 102.8516,27.7734 Q102.4609,27.3633 101.7578,27.1289 Q101.0547,26.875 100.3516,26.875 Q99.4727,26.875 98.7305,27.2266 Q98.0078,27.5781 97.4414,28.3594 Q96.875,29.1406 96.875,30.2148 L96.875,31.3672 Q96.875,32.6563 97.9297,33.5156 Q98.9844,34.375 100.8594,34.375 Q101.9727,34.375 102.7539,34.1211 Q103.2031,33.9844 103.7109,33.5352 Q104.043,33.2813 104.2188,33.2031 Q104.3945,33.125 104.6094,33.125 Q105.0195,33.125 105.3125,33.457 Q105.625,33.7695 105.625,34.2188 Q105.625,34.6484 105.1953,35.1563 Q104.5703,35.8984 103.5742,36.3086 Q102.2656,36.875 100.6641,36.875 Q98.7891,36.875 97.2852,36.1328 Q96.0742,35.5469 95.2148,34.2773 Q94.375,33.0078 94.375,31.5039 L94.375,30.1367 Q94.375,28.5742 95.1172,27.207 Q95.8789,25.8398 97.1875,25.1172 Q98.5156,24.375 100,24.375 Q100.8984,24.375 101.6797,24.6875 Q102.4609,25 103.125,25.625 Z "/><text fill="#000000" font-family="sans-serif" font-size="15" lengthAdjust="spacingAndGlyphs" textLength="91.25" x="118.125" y="36.1377">VehiclesView</text><line style="stroke: #A80036; stroke-width: 1.875;" x1="83.125" x2="211.875" y1="50" y2="50"/><line style="stroke: #A80036; stroke-width: 1.875;" x1="83.125" x2="211.875" y1="60" y2="60"/><!--MD5=[fc034e8661e1d99469ca7885388ee1f3]
class ConfigVehicleController--><rect fill="#FEFECE" filter="url(#f10qu0h9x0j0d1)" height="60" id="ConfigVehicleController" style="stroke: #A80036; stroke-width: 1.875;" width="202.5" x="141.25" y="297.5"/><ellipse cx="160" cy="317.5" fill="#ADD1B2" rx="13.75" ry="13.75" style="stroke: #A80036; stroke-width: 1.25;"/><path d="M162.5,313.125 Q162.7539,312.5 163.0469,312.1875 Q163.3398,311.875 163.6719,311.875 Q164.2578,311.875 164.6289,312.2266 Q165,312.5781 165,313.3984 L165,315.3516 Q165,316.1719 164.6484,316.5234 Q164.2969,316.875 163.75,316.875 Q163.2617,316.875 162.9492,316.6602 Q162.6367,316.4453 162.5,315.8789 Q162.4414,315.4883 162.2266,315.2734 Q161.8359,314.8633 161.1328,314.6289 Q160.4297,314.375 159.7266,314.375 Q158.8477,314.375 158.1055,314.7266 Q157.3828,315.0781 156.8164,315.8594 Q156.25,316.6406 156.25,317.7148 L156.25,318.8672 Q156.25,320.1563 157.3047,321.0156 Q158.3594,321.875 160.2344,321.875 Q161.3477,321.875 162.1289,321.6211 Q162.5781,321.4844 163.0859,321.0352 Q163.418,320.7813 163.5938,320.7031 Q163.7695,320.625 163.9844,320.625 Q164.3945,320.625 164.6875,320.957 Q165,321.2695 165,321.7188 Q165,322.1484 164.5703,322.6563 Q163.9453,323.3984 162.9492,323.8086 Q161.6406,324.375 160.0391,324.375 Q158.1641,324.375 156.6602,323.6328 Q155.4492,323.0469 154.5898,321.7773 Q153.75,320.5078 153.75,319.0039 L153.75,317.6367 Q153.75,316.0742 154.4922,314.707 Q155.2539,313.3398 156.5625,312.6172 Q157.8906,311.875 159.375,311.875 Q160.2734,311.875 161.0547,312.1875 Q161.8359,312.5 162.5,313.125 Z "/><text fill="#000000" font-family="sans-serif" font-size="15" lengthAdjust="spacingAndGlyphs" textLength="162.5" x="177.5" y="323.6377">ConfigVehicleController</text><line style="stroke: #A80036; stroke-width: 1.875;" x1="142.5" x2="342.5" y1="337.5" y2="337.5"/><line style="stroke: #A80036; stroke-width: 1.875;" x1="142.5" x2="342.5" y1="347.5" y2="347.5"/><!--MD5=[05e4c6501b8f899b86ed298a0ae3d692]
link ConfigVehicleView to Vehicle--><path d="M122.0418,222.8525 C107.6736,244.2155 89.8484,270.7189 75.842,291.5441 " fill="none" id="ConfigVehicleView-&gt;Vehicle" style="stroke: #A80036; stroke-width: 1.25;"/><polygon fill="#A80036" points="71.9988,297.2584,82.4262,290.7138,75.4868,292.0723,74.1284,285.1329,71.9988,297.2584" style="stroke: #A80036; stroke-width: 1.25;"/><!--MD5=[8a8e7e811f003e2cf9a880837877c3e7]
link VehiclesView to ConfigVehicleView--><path d="M147.5,70.175 C147.5,89.6313 147.5,115.6662 147.5,137.7725 " fill="none" id="VehiclesView-&gt;ConfigVehicleView" style="stroke: #A80036; stroke-width: 1.25;"/><polygon fill="#A80036" points="147.5,144.495,152.5,133.245,147.5,138.245,142.5,133.245,147.5,144.495" style="stroke: #A80036; stroke-width: 1.25;"/><!--MD5=[428626b4e90d4a096408b7f2eb43deae]
link ConfigVehicleView to ConfigVehicleController--><path d="M172.9587,222.8525 C187.3263,244.2155 205.1513,270.7189 219.1575,291.5441 " fill="none" id="ConfigVehicleView-&gt;ConfigVehicleController" style="stroke: #A80036; stroke-width: 1.25;"/><polygon fill="#A80036" points="223.0013,297.2584,220.8732,285.1326,219.5138,292.0718,212.5747,290.7125,223.0013,297.2584" style="stroke: #A80036; stroke-width: 1.25;"/><!--MD5=[62a8dd8fdc0ab2a2710eee63048c1be7]
@startuml
	class ConfigVehicleView {
	+setVehicleInfo(info)
	}

	ConfigVehicleView - -> Vehicle
	VehiclesView - -> ConfigVehicleView
	ConfigVehicleView - -> ConfigVehicleController
@enduml

PlantUML version 1.2020.09(Sun May 10 12:51:06 CEST 2020)
(GPL source distribution)
Java Runtime: OpenJDK Runtime Environment
JVM: OpenJDK 64-Bit Server VM
Java Version: 11.0.8+10-b1094.1
Operating System: Windows 10
Default Encoding: Cp1252
Language: en
Country: GB
--></g></svg>