<?xml version="1.0" encoding="UTF-8" standalone="no"?><svg xmlns="http://www.w3.org/2000/svg" xmlns:xlink="http://www.w3.org/1999/xlink" contentScriptType="application/ecmascript" contentStyleType="text/css" height="422.5px" preserveAspectRatio="none" style="width:797px;height:422px;" version="1.1" viewBox="0 0 797 422" width="797.5px" zoomAndPan="magnify"><defs><filter height="300%" id="ffwg70yg1v0pp" width="300%" x="-1" y="-1"><feGaussianBlur result="blurOut" stdDeviation="2.5"/><feColorMatrix in="blurOut" result="blurOut2" type="matrix" values="0 0 0 0 0 0 0 0 0 0 0 0 0 0 0 0 0 0 .4 0"/><feOffset dx="5.0" dy="5.0" in="blurOut2" result="blurOut3"/><feBlend in="SourceGraphic" in2="blurOut3" mode="normal"/></filter></defs><g><!--MD5=[62a12d2efef6aa64fe8c97bdb0c8af55]
class CreateInterventionView--><rect fill="#FEFECE" filter="url(#ffwg70yg1v0pp)" height="129.1797" id="CreateInterventionView" style="stroke: #A80036; stroke-width: 1.875;" width="197.5" x="268.125" y="145"/><ellipse cx="286.875" cy="165" fill="#ADD1B2" rx="13.75" ry="13.75" style="stroke: #A80036; stroke-width: 1.25;"/><path d="M289.375,160.625 Q289.6289,160 289.9219,159.6875 Q290.2148,159.375 290.5469,159.375 Q291.1328,159.375 291.5039,159.7266 Q291.875,160.0781 291.875,160.8984 L291.875,162.8516 Q291.875,163.6719 291.5234,164.0234 Q291.1719,164.375 290.625,164.375 Q290.1367,164.375 289.8242,164.1602 Q289.5117,163.9453 289.375,163.3789 Q289.3164,162.9883 289.1016,162.7734 Q288.7109,162.3633 288.0078,162.1289 Q287.3047,161.875 286.6016,161.875 Q285.7227,161.875 284.9805,162.2266 Q284.2578,162.5781 283.6914,163.3594 Q283.125,164.1406 283.125,165.2148 L283.125,166.3672 Q283.125,167.6563 284.1797,168.5156 Q285.2344,169.375 287.1094,169.375 Q288.2227,169.375 289.0039,169.1211 Q289.4531,168.9844 289.9609,168.5352 Q290.293,168.2813 290.4688,168.2031 Q290.6445,168.125 290.8594,168.125 Q291.2695,168.125 291.5625,168.457 Q291.875,168.7695 291.875,169.2188 Q291.875,169.6484 291.4453,170.1563 Q290.8203,170.8984 289.8242,171.3086 Q288.5156,171.875 286.9141,171.875 Q285.0391,171.875 283.5352,171.1328 Q282.3242,170.5469 281.4648,169.2773 Q280.625,168.0078 280.625,166.5039 L280.625,165.1367 Q280.625,163.5742 281.3672,162.207 Q282.1289,160.8398 283.4375,160.1172 Q284.7656,159.375 286.25,159.375 Q287.1484,159.375 287.9297,159.6875 Q288.7109,160 289.375,160.625 Z "/><text fill="#000000" font-family="sans-serif" font-size="15" lengthAdjust="spacingAndGlyphs" textLength="157.5" x="304.375" y="171.1377">CreateInterventionView</text><line style="stroke: #A80036; stroke-width: 1.875;" x1="269.375" x2="464.375" y1="185" y2="185"/><line style="stroke: #A80036; stroke-width: 1.875;" x1="269.375" x2="464.375" y1="195" y2="195"/><ellipse cx="281.875" cy="208.75" fill="#84BE84" rx="3.75" ry="3.75" style="stroke: #038048; stroke-width: 1.25;"/><text fill="#000000" font-family="sans-serif" font-size="13.75" lengthAdjust="spacingAndGlyphs" textLength="105" x="293.125" y="214.2737">confirmCreation()</text><ellipse cx="281.875" cy="226.0449" fill="#84BE84" rx="3.75" ry="3.75" style="stroke: #038048; stroke-width: 1.25;"/><text fill="#000000" font-family="sans-serif" font-size="13.75" lengthAdjust="spacingAndGlyphs" textLength="85" x="293.125" y="231.5686">setType(type)</text><ellipse cx="281.875" cy="243.3398" fill="#84BE84" rx="3.75" ry="3.75" style="stroke: #038048; stroke-width: 1.25;"/><text fill="#000000" font-family="sans-serif" font-size="13.75" lengthAdjust="spacingAndGlyphs" textLength="162.5" x="293.125" y="248.8635">setDescription(description)</text><ellipse cx="281.875" cy="260.6348" fill="#84BE84" rx="3.75" ry="3.75" style="stroke: #038048; stroke-width: 1.25;"/><text fill="#000000" font-family="sans-serif" font-size="13.75" lengthAdjust="spacingAndGlyphs" textLength="127.5" x="293.125" y="266.1584">searchVehicles(text)</text><!--MD5=[91506c20fa69d22eac57944020c826c2]
class Intervention--><rect fill="#FEFECE" filter="url(#ffwg70yg1v0pp)" height="60" id="Intervention" style="stroke: #A80036; stroke-width: 1.875;" width="118.75" x="7.5" y="348.75"/><ellipse cx="26.25" cy="368.75" fill="#ADD1B2" rx="13.75" ry="13.75" style="stroke: #A80036; stroke-width: 1.25;"/><path d="M28.75,364.375 Q29.0039,363.75 29.2969,363.4375 Q29.5898,363.125 29.9219,363.125 Q30.5078,363.125 30.8789,363.4766 Q31.25,363.8281 31.25,364.6484 L31.25,366.6016 Q31.25,367.4219 30.8984,367.7734 Q30.5469,368.125 30,368.125 Q29.5117,368.125 29.1992,367.9102 Q28.8867,367.6953 28.75,367.1289 Q28.6914,366.7383 28.4766,366.5234 Q28.0859,366.1133 27.3828,365.8789 Q26.6797,365.625 25.9766,365.625 Q25.0977,365.625 24.3555,365.9766 Q23.6328,366.3281 23.0664,367.1094 Q22.5,367.8906 22.5,368.9648 L22.5,370.1172 Q22.5,371.4063 23.5547,372.2656 Q24.6094,373.125 26.4844,373.125 Q27.5977,373.125 28.3789,372.8711 Q28.8281,372.7344 29.3359,372.2852 Q29.668,372.0313 29.8438,371.9531 Q30.0195,371.875 30.2344,371.875 Q30.6445,371.875 30.9375,372.207 Q31.25,372.5195 31.25,372.9688 Q31.25,373.3984 30.8203,373.9063 Q30.1953,374.6484 29.1992,375.0586 Q27.8906,375.625 26.2891,375.625 Q24.4141,375.625 22.9102,374.8828 Q21.6992,374.2969 20.8398,373.0273 Q20,371.7578 20,370.2539 L20,368.8867 Q20,367.3242 20.7422,365.957 Q21.5039,364.5898 22.8125,363.8672 Q24.1406,363.125 25.625,363.125 Q26.5234,363.125 27.3047,363.4375 Q28.0859,363.75 28.75,364.375 Z "/><text fill="#000000" font-family="sans-serif" font-size="15" lengthAdjust="spacingAndGlyphs" textLength="78.75" x="43.75" y="374.8877">Intervention</text><line style="stroke: #A80036; stroke-width: 1.875;" x1="8.75" x2="125" y1="388.75" y2="388.75"/><line style="stroke: #A80036; stroke-width: 1.875;" x1="8.75" x2="125" y1="398.75" y2="398.75"/><!--MD5=[a8a9ef21f02945362a565f5006e12261]
class OpenVehiclesController--><rect fill="#FEFECE" filter="url(#ffwg70yg1v0pp)" height="60" id="OpenVehiclesController" style="stroke: #A80036; stroke-width: 1.875;" width="203.75" x="170" y="348.75"/><ellipse cx="188.75" cy="368.75" fill="#ADD1B2" rx="13.75" ry="13.75" style="stroke: #A80036; stroke-width: 1.25;"/><path d="M191.25,364.375 Q191.5039,363.75 191.7969,363.4375 Q192.0898,363.125 192.4219,363.125 Q193.0078,363.125 193.3789,363.4766 Q193.75,363.8281 193.75,364.6484 L193.75,366.6016 Q193.75,367.4219 193.3984,367.7734 Q193.0469,368.125 192.5,368.125 Q192.0117,368.125 191.6992,367.9102 Q191.3867,367.6953 191.25,367.1289 Q191.1914,366.7383 190.9766,366.5234 Q190.5859,366.1133 189.8828,365.8789 Q189.1797,365.625 188.4766,365.625 Q187.5977,365.625 186.8555,365.9766 Q186.1328,366.3281 185.5664,367.1094 Q185,367.8906 185,368.9648 L185,370.1172 Q185,371.4063 186.0547,372.2656 Q187.1094,373.125 188.9844,373.125 Q190.0977,373.125 190.8789,372.8711 Q191.3281,372.7344 191.8359,372.2852 Q192.168,372.0313 192.3438,371.9531 Q192.5195,371.875 192.7344,371.875 Q193.1445,371.875 193.4375,372.207 Q193.75,372.5195 193.75,372.9688 Q193.75,373.3984 193.3203,373.9063 Q192.6953,374.6484 191.6992,375.0586 Q190.3906,375.625 188.7891,375.625 Q186.9141,375.625 185.4102,374.8828 Q184.1992,374.2969 183.3398,373.0273 Q182.5,371.7578 182.5,370.2539 L182.5,368.8867 Q182.5,367.3242 183.2422,365.957 Q184.0039,364.5898 185.3125,363.8672 Q186.6406,363.125 188.125,363.125 Q189.0234,363.125 189.8047,363.4375 Q190.5859,363.75 191.25,364.375 Z "/><text fill="#000000" font-family="sans-serif" font-size="15" lengthAdjust="spacingAndGlyphs" textLength="163.75" x="206.25" y="374.8877">OpenVehiclesController</text><line style="stroke: #A80036; stroke-width: 1.875;" x1="171.25" x2="372.5" y1="388.75" y2="388.75"/><line style="stroke: #A80036; stroke-width: 1.875;" x1="171.25" x2="372.5" y1="398.75" y2="398.75"/><!--MD5=[f6bfa8e6ad2e37edcd578b647fafadda]
class MenuView--><rect fill="#FEFECE" filter="url(#ffwg70yg1v0pp)" height="60" id="MenuView" style="stroke: #A80036; stroke-width: 1.875;" width="110" x="311.875" y="10"/><ellipse cx="330.625" cy="30" fill="#ADD1B2" rx="13.75" ry="13.75" style="stroke: #A80036; stroke-width: 1.25;"/><path d="M333.125,25.625 Q333.3789,25 333.6719,24.6875 Q333.9648,24.375 334.2969,24.375 Q334.8828,24.375 335.2539,24.7266 Q335.625,25.0781 335.625,25.8984 L335.625,27.8516 Q335.625,28.6719 335.2734,29.0234 Q334.9219,29.375 334.375,29.375 Q333.8867,29.375 333.5742,29.1602 Q333.2617,28.9453 333.125,28.3789 Q333.0664,27.9883 332.8516,27.7734 Q332.4609,27.3633 331.7578,27.1289 Q331.0547,26.875 330.3516,26.875 Q329.4727,26.875 328.7305,27.2266 Q328.0078,27.5781 327.4414,28.3594 Q326.875,29.1406 326.875,30.2148 L326.875,31.3672 Q326.875,32.6563 327.9297,33.5156 Q328.9844,34.375 330.8594,34.375 Q331.9727,34.375 332.7539,34.1211 Q333.2031,33.9844 333.7109,33.5352 Q334.043,33.2813 334.2188,33.2031 Q334.3945,33.125 334.6094,33.125 Q335.0195,33.125 335.3125,33.457 Q335.625,33.7695 335.625,34.2188 Q335.625,34.6484 335.1953,35.1563 Q334.5703,35.8984 333.5742,36.3086 Q332.2656,36.875 330.6641,36.875 Q328.7891,36.875 327.2852,36.1328 Q326.0742,35.5469 325.2148,34.2773 Q324.375,33.0078 324.375,31.5039 L324.375,30.1367 Q324.375,28.5742 325.1172,27.207 Q325.8789,25.8398 327.1875,25.1172 Q328.5156,24.375 330,24.375 Q330.8984,24.375 331.6797,24.6875 Q332.4609,25 333.125,25.625 Z "/><text fill="#000000" font-family="sans-serif" font-size="15" lengthAdjust="spacingAndGlyphs" textLength="70" x="348.125" y="36.1377">MenuView</text><line style="stroke: #A80036; stroke-width: 1.875;" x1="313.125" x2="420.625" y1="50" y2="50"/><line style="stroke: #A80036; stroke-width: 1.875;" x1="313.125" x2="420.625" y1="60" y2="60"/><!--MD5=[3aa0d89c6bfdcbf7f32042cedac57549]
class Vehicle--><rect fill="#FEFECE" filter="url(#ffwg70yg1v0pp)" height="60" id="Vehicle" style="stroke: #A80036; stroke-width: 1.875;" width="90" x="418.125" y="348.75"/><ellipse cx="436.875" cy="368.75" fill="#ADD1B2" rx="13.75" ry="13.75" style="stroke: #A80036; stroke-width: 1.25;"/><path d="M439.375,364.375 Q439.6289,363.75 439.9219,363.4375 Q440.2148,363.125 440.5469,363.125 Q441.1328,363.125 441.5039,363.4766 Q441.875,363.8281 441.875,364.6484 L441.875,366.6016 Q441.875,367.4219 441.5234,367.7734 Q441.1719,368.125 440.625,368.125 Q440.1367,368.125 439.8242,367.9102 Q439.5117,367.6953 439.375,367.1289 Q439.3164,366.7383 439.1016,366.5234 Q438.7109,366.1133 438.0078,365.8789 Q437.3047,365.625 436.6016,365.625 Q435.7227,365.625 434.9805,365.9766 Q434.2578,366.3281 433.6914,367.1094 Q433.125,367.8906 433.125,368.9648 L433.125,370.1172 Q433.125,371.4063 434.1797,372.2656 Q435.2344,373.125 437.1094,373.125 Q438.2227,373.125 439.0039,372.8711 Q439.4531,372.7344 439.9609,372.2852 Q440.293,372.0313 440.4688,371.9531 Q440.6445,371.875 440.8594,371.875 Q441.2695,371.875 441.5625,372.207 Q441.875,372.5195 441.875,372.9688 Q441.875,373.3984 441.4453,373.9063 Q440.8203,374.6484 439.8242,375.0586 Q438.5156,375.625 436.9141,375.625 Q435.0391,375.625 433.5352,374.8828 Q432.3242,374.2969 431.4648,373.0273 Q430.625,371.7578 430.625,370.2539 L430.625,368.8867 Q430.625,367.3242 431.3672,365.957 Q432.1289,364.5898 433.4375,363.8672 Q434.7656,363.125 436.25,363.125 Q437.1484,363.125 437.9297,363.4375 Q438.7109,363.75 439.375,364.375 Z "/><text fill="#000000" font-family="sans-serif" font-size="15" lengthAdjust="spacingAndGlyphs" textLength="50" x="454.375" y="374.8877">Vehicle</text><line style="stroke: #A80036; stroke-width: 1.875;" x1="419.375" x2="506.875" y1="388.75" y2="388.75"/><line style="stroke: #A80036; stroke-width: 1.875;" x1="419.375" x2="506.875" y1="398.75" y2="398.75"/><!--MD5=[271ca2af047a16fa902c7f7025fc9e30]
class CreateInterventionController--><rect fill="#FEFECE" filter="url(#ffwg70yg1v0pp)" height="60" id="CreateInterventionController" style="stroke: #A80036; stroke-width: 1.875;" width="232.5" x="551.875" y="348.75"/><ellipse cx="570.625" cy="368.75" fill="#ADD1B2" rx="13.75" ry="13.75" style="stroke: #A80036; stroke-width: 1.25;"/><path d="M573.125,364.375 Q573.3789,363.75 573.6719,363.4375 Q573.9648,363.125 574.2969,363.125 Q574.8828,363.125 575.2539,363.4766 Q575.625,363.8281 575.625,364.6484 L575.625,366.6016 Q575.625,367.4219 575.2734,367.7734 Q574.9219,368.125 574.375,368.125 Q573.8867,368.125 573.5742,367.9102 Q573.2617,367.6953 573.125,367.1289 Q573.0664,366.7383 572.8516,366.5234 Q572.4609,366.1133 571.7578,365.8789 Q571.0547,365.625 570.3516,365.625 Q569.4727,365.625 568.7305,365.9766 Q568.0078,366.3281 567.4414,367.1094 Q566.875,367.8906 566.875,368.9648 L566.875,370.1172 Q566.875,371.4063 567.9297,372.2656 Q568.9844,373.125 570.8594,373.125 Q571.9727,373.125 572.7539,372.8711 Q573.2031,372.7344 573.7109,372.2852 Q574.043,372.0313 574.2188,371.9531 Q574.3945,371.875 574.6094,371.875 Q575.0195,371.875 575.3125,372.207 Q575.625,372.5195 575.625,372.9688 Q575.625,373.3984 575.1953,373.9063 Q574.5703,374.6484 573.5742,375.0586 Q572.2656,375.625 570.6641,375.625 Q568.7891,375.625 567.2852,374.8828 Q566.0742,374.2969 565.2148,373.0273 Q564.375,371.7578 564.375,370.2539 L564.375,368.8867 Q564.375,367.3242 565.1172,365.957 Q565.8789,364.5898 567.1875,363.8672 Q568.5156,363.125 570,363.125 Q570.8984,363.125 571.6797,363.4375 Q572.4609,363.75 573.125,364.375 Z "/><text fill="#000000" font-family="sans-serif" font-size="15" lengthAdjust="spacingAndGlyphs" textLength="192.5" x="588.125" y="374.8877">CreateInterventionController</text><line style="stroke: #A80036; stroke-width: 1.875;" x1="553.125" x2="783.125" y1="388.75" y2="388.75"/><line style="stroke: #A80036; stroke-width: 1.875;" x1="553.125" x2="783.125" y1="398.75" y2="398.75"/><!--MD5=[a535b4e8f17356c3d8fbb4389cad23c9]
link CreateInterventionView to Intervention--><path d="M267.8125,265.7288 C220.3125,292.1504 165.08,322.8735 124.5565,345.4146 " fill="none" id="CreateInterventionView-&gt;Intervention" style="stroke: #A80036; stroke-width: 1.25;"/><polygon fill="#A80036" points="118.687,348.6796,130.9489,347.5803,124.1488,345.6414,126.0877,338.8413,118.687,348.6796" style="stroke: #A80036; stroke-width: 1.25;"/><!--MD5=[3622722fcaf08974dda2e70386239c50]
link CreateInterventionView to OpenVehiclesController--><path d="M330.6887,274.1888 C317.3638,297.5946 302.7788,323.215 291.4663,343.0866 " fill="none" id="CreateInterventionView-&gt;OpenVehiclesController" style="stroke: #A80036; stroke-width: 1.25;"/><polygon fill="#A80036" points="288.3663,348.5324,298.278,341.2303,291.4589,343.1012,289.588,336.2821,288.3663,348.5324" style="stroke: #A80036; stroke-width: 1.25;"/><!--MD5=[29e76145d2dc29153836a68535a78c31]
link MenuView to CreateInterventionView--><path d="M366.875,70.3175 C366.875,89.0962 366.875,114.3813 366.875,138.1663 " fill="none" id="MenuView-&gt;CreateInterventionView" style="stroke: #A80036; stroke-width: 1.25;"/><polygon fill="#A80036" points="366.875,144.8288,371.875,133.5788,366.875,138.5788,361.875,133.5788,366.875,144.8288" style="stroke: #A80036; stroke-width: 1.25;"/><!--MD5=[bf54c98fe8649cd9358b51b48d233e4e]
link CreateInterventionView to Vehicle--><path d="M403.5375,274.1888 C417.0375,297.5946 431.815,323.215 443.2763,343.0866 " fill="none" id="CreateInterventionView-&gt;Vehicle" style="stroke: #A80036; stroke-width: 1.25;"/><polygon fill="#A80036" points="446.4175,348.5324,445.1261,336.2892,443.294,343.1188,436.4644,341.2868,446.4175,348.5324" style="stroke: #A80036; stroke-width: 1.25;"/><text fill="#000000" font-family="sans-serif" font-size="16.25" lengthAdjust="spacingAndGlyphs" textLength="6.25" x="435.0854" y="335.1518">*</text><!--MD5=[d99b35b70764764d44660c6b27a4cd17]
link CreateInterventionView to CreateInterventionController--><path d="M465.9325,265.4975 C513.66,291.9356 569.2438,322.7258 610.04,345.3245 " fill="none" id="CreateInterventionView-&gt;CreateInterventionController" style="stroke: #A80036; stroke-width: 1.25;"/><polygon fill="#A80036" points="615.95,348.5979,608.5319,338.7727,610.4828,345.5693,603.6862,347.5202,615.95,348.5979" style="stroke: #A80036; stroke-width: 1.25;"/><!--MD5=[1e35a0b0e75c49597628bbda6d67795b]
@startuml
	class CreateInterventionView {
	+confirmCreation()
	+setType(type)
	+setDescription(description)
	+searchVehicles(text)
	}

	CreateInterventionView - -> Intervention
	CreateInterventionView - -> OpenVehiclesController
	MenuView - -> CreateInterventionView
	CreateInterventionView - -> "*" Vehicle
	CreateInterventionView - -> CreateInterventionController
@enduml

PlantUML version 1.2020.09(Sun May 10 12:51:06 CEST 2020)
(GPL source distribution)
Java Runtime: OpenJDK Runtime Environment
JVM: OpenJDK 64-Bit Server VM
Java Version: 11.0.8+10-b1094.1
Operating System: Windows 10
Default Encoding: Cp1252
Language: en
Country: GB
--></g></svg>