<?xml version="1.0" encoding="UTF-8" standalone="no"?><svg xmlns="http://www.w3.org/2000/svg" xmlns:xlink="http://www.w3.org/1999/xlink" contentScriptType="application/ecmascript" contentStyleType="text/css" height="371.25px" preserveAspectRatio="none" style="width:841px;height:371px;" version="1.1" viewBox="0 0 841 371" width="841.25px" zoomAndPan="magnify"><defs><filter height="300%" id="fmw8akm2qjlu2" width="300%" x="-1" y="-1"><feGaussianBlur result="blurOut" stdDeviation="2.5"/><feColorMatrix in="blurOut" result="blurOut2" type="matrix" values="0 0 0 0 0 0 0 0 0 0 0 0 0 0 0 0 0 0 .4 0"/><feOffset dx="5.0" dy="5.0" in="blurOut2" result="blurOut3"/><feBlend in="SourceGraphic" in2="blurOut3" mode="normal"/></filter></defs><g><!--MD5=[6d3946f4576b3d1380341ff87dc4fff4]
class InterventionsView--><rect fill="#FEFECE" filter="url(#fmw8akm2qjlu2)" height="77.2949" id="InterventionsView" style="stroke: #A80036; stroke-width: 1.875;" width="182.5" x="277.5" y="145"/><ellipse cx="306.375" cy="165" fill="#ADD1B2" rx="13.75" ry="13.75" style="stroke: #A80036; stroke-width: 1.25;"/><path d="M308.875,160.625 Q309.1289,160 309.4219,159.6875 Q309.7148,159.375 310.0469,159.375 Q310.6328,159.375 311.0039,159.7266 Q311.375,160.0781 311.375,160.8984 L311.375,162.8516 Q311.375,163.6719 311.0234,164.0234 Q310.6719,164.375 310.125,164.375 Q309.6367,164.375 309.3242,164.1602 Q309.0117,163.9453 308.875,163.3789 Q308.8164,162.9883 308.6016,162.7734 Q308.2109,162.3633 307.5078,162.1289 Q306.8047,161.875 306.1016,161.875 Q305.2227,161.875 304.4805,162.2266 Q303.7578,162.5781 303.1914,163.3594 Q302.625,164.1406 302.625,165.2148 L302.625,166.3672 Q302.625,167.6563 303.6797,168.5156 Q304.7344,169.375 306.6094,169.375 Q307.7227,169.375 308.5039,169.1211 Q308.9531,168.9844 309.4609,168.5352 Q309.793,168.2813 309.9688,168.2031 Q310.1445,168.125 310.3594,168.125 Q310.7695,168.125 311.0625,168.457 Q311.375,168.7695 311.375,169.2188 Q311.375,169.6484 310.9453,170.1563 Q310.3203,170.8984 309.3242,171.3086 Q308.0156,171.875 306.4141,171.875 Q304.5391,171.875 303.0352,171.1328 Q301.8242,170.5469 300.9648,169.2773 Q300.125,168.0078 300.125,166.5039 L300.125,165.1367 Q300.125,163.5742 300.8672,162.207 Q301.6289,160.8398 302.9375,160.1172 Q304.2656,159.375 305.75,159.375 Q306.6484,159.375 307.4297,159.6875 Q308.2109,160 308.875,160.625 Z "/><text fill="#000000" font-family="sans-serif" font-size="15" lengthAdjust="spacingAndGlyphs" textLength="120" x="326.125" y="171.1377">InterventionsView</text><line style="stroke: #A80036; stroke-width: 1.875;" x1="278.75" x2="458.75" y1="185" y2="185"/><line style="stroke: #A80036; stroke-width: 1.875;" x1="278.75" x2="458.75" y1="195" y2="195"/><ellipse cx="291.25" cy="208.75" fill="#84BE84" rx="3.75" ry="3.75" style="stroke: #038048; stroke-width: 1.25;"/><text fill="#000000" font-family="sans-serif" font-size="13.75" lengthAdjust="spacingAndGlyphs" textLength="150" x="302.5" y="214.2737">openInterventionsView()</text><!--MD5=[1e29ec7aa20142996304403e448274ec]
class Mechanic--><rect fill="#FEFECE" filter="url(#fmw8akm2qjlu2)" height="60" id="Mechanic" style="stroke: #A80036; stroke-width: 1.875;" width="105" x="7.5" y="297.5"/><ellipse cx="26.25" cy="317.5" fill="#ADD1B2" rx="13.75" ry="13.75" style="stroke: #A80036; stroke-width: 1.25;"/><path d="M28.75,313.125 Q29.0039,312.5 29.2969,312.1875 Q29.5898,311.875 29.9219,311.875 Q30.5078,311.875 30.8789,312.2266 Q31.25,312.5781 31.25,313.3984 L31.25,315.3516 Q31.25,316.1719 30.8984,316.5234 Q30.5469,316.875 30,316.875 Q29.5117,316.875 29.1992,316.6602 Q28.8867,316.4453 28.75,315.8789 Q28.6914,315.4883 28.4766,315.2734 Q28.0859,314.8633 27.3828,314.6289 Q26.6797,314.375 25.9766,314.375 Q25.0977,314.375 24.3555,314.7266 Q23.6328,315.0781 23.0664,315.8594 Q22.5,316.6406 22.5,317.7148 L22.5,318.8672 Q22.5,320.1563 23.5547,321.0156 Q24.6094,321.875 26.4844,321.875 Q27.5977,321.875 28.3789,321.6211 Q28.8281,321.4844 29.3359,321.0352 Q29.668,320.7813 29.8438,320.7031 Q30.0195,320.625 30.2344,320.625 Q30.6445,320.625 30.9375,320.957 Q31.25,321.2695 31.25,321.7188 Q31.25,322.1484 30.8203,322.6563 Q30.1953,323.3984 29.1992,323.8086 Q27.8906,324.375 26.2891,324.375 Q24.4141,324.375 22.9102,323.6328 Q21.6992,323.0469 20.8398,321.7773 Q20,320.5078 20,319.0039 L20,317.6367 Q20,316.0742 20.7422,314.707 Q21.5039,313.3398 22.8125,312.6172 Q24.1406,311.875 25.625,311.875 Q26.5234,311.875 27.3047,312.1875 Q28.0859,312.5 28.75,313.125 Z "/><text fill="#000000" font-family="sans-serif" font-size="15" lengthAdjust="spacingAndGlyphs" textLength="65" x="43.75" y="323.6377">Mechanic</text><line style="stroke: #A80036; stroke-width: 1.875;" x1="8.75" x2="111.25" y1="337.5" y2="337.5"/><line style="stroke: #A80036; stroke-width: 1.875;" x1="8.75" x2="111.25" y1="347.5" y2="347.5"/><!--MD5=[91506c20fa69d22eac57944020c826c2]
class Intervention--><rect fill="#FEFECE" filter="url(#fmw8akm2qjlu2)" height="60" id="Intervention" style="stroke: #A80036; stroke-width: 1.875;" width="118.75" x="156.875" y="297.5"/><ellipse cx="175.625" cy="317.5" fill="#ADD1B2" rx="13.75" ry="13.75" style="stroke: #A80036; stroke-width: 1.25;"/><path d="M178.125,313.125 Q178.3789,312.5 178.6719,312.1875 Q178.9648,311.875 179.2969,311.875 Q179.8828,311.875 180.2539,312.2266 Q180.625,312.5781 180.625,313.3984 L180.625,315.3516 Q180.625,316.1719 180.2734,316.5234 Q179.9219,316.875 179.375,316.875 Q178.8867,316.875 178.5742,316.6602 Q178.2617,316.4453 178.125,315.8789 Q178.0664,315.4883 177.8516,315.2734 Q177.4609,314.8633 176.7578,314.6289 Q176.0547,314.375 175.3516,314.375 Q174.4727,314.375 173.7305,314.7266 Q173.0078,315.0781 172.4414,315.8594 Q171.875,316.6406 171.875,317.7148 L171.875,318.8672 Q171.875,320.1563 172.9297,321.0156 Q173.9844,321.875 175.8594,321.875 Q176.9727,321.875 177.7539,321.6211 Q178.2031,321.4844 178.7109,321.0352 Q179.043,320.7813 179.2188,320.7031 Q179.3945,320.625 179.6094,320.625 Q180.0195,320.625 180.3125,320.957 Q180.625,321.2695 180.625,321.7188 Q180.625,322.1484 180.1953,322.6563 Q179.5703,323.3984 178.5742,323.8086 Q177.2656,324.375 175.6641,324.375 Q173.7891,324.375 172.2852,323.6328 Q171.0742,323.0469 170.2148,321.7773 Q169.375,320.5078 169.375,319.0039 L169.375,317.6367 Q169.375,316.0742 170.1172,314.707 Q170.8789,313.3398 172.1875,312.6172 Q173.5156,311.875 175,311.875 Q175.8984,311.875 176.6797,312.1875 Q177.4609,312.5 178.125,313.125 Z "/><text fill="#000000" font-family="sans-serif" font-size="15" lengthAdjust="spacingAndGlyphs" textLength="78.75" x="193.125" y="323.6377">Intervention</text><line style="stroke: #A80036; stroke-width: 1.875;" x1="158.125" x2="274.375" y1="337.5" y2="337.5"/><line style="stroke: #A80036; stroke-width: 1.875;" x1="158.125" x2="274.375" y1="347.5" y2="347.5"/><!--MD5=[2ca1536628238a7dc78c5d90808014f9]
class Session--><rect fill="#FEFECE" filter="url(#fmw8akm2qjlu2)" height="60" id="Session" style="stroke: #A80036; stroke-width: 1.875;" width="97.5" x="320" y="297.5"/><ellipse cx="338.75" cy="317.5" fill="#ADD1B2" rx="13.75" ry="13.75" style="stroke: #A80036; stroke-width: 1.25;"/><path d="M341.25,313.125 Q341.5039,312.5 341.7969,312.1875 Q342.0898,311.875 342.4219,311.875 Q343.0078,311.875 343.3789,312.2266 Q343.75,312.5781 343.75,313.3984 L343.75,315.3516 Q343.75,316.1719 343.3984,316.5234 Q343.0469,316.875 342.5,316.875 Q342.0117,316.875 341.6992,316.6602 Q341.3867,316.4453 341.25,315.8789 Q341.1914,315.4883 340.9766,315.2734 Q340.5859,314.8633 339.8828,314.6289 Q339.1797,314.375 338.4766,314.375 Q337.5977,314.375 336.8555,314.7266 Q336.1328,315.0781 335.5664,315.8594 Q335,316.6406 335,317.7148 L335,318.8672 Q335,320.1563 336.0547,321.0156 Q337.1094,321.875 338.9844,321.875 Q340.0977,321.875 340.8789,321.6211 Q341.3281,321.4844 341.8359,321.0352 Q342.168,320.7813 342.3438,320.7031 Q342.5195,320.625 342.7344,320.625 Q343.1445,320.625 343.4375,320.957 Q343.75,321.2695 343.75,321.7188 Q343.75,322.1484 343.3203,322.6563 Q342.6953,323.3984 341.6992,323.8086 Q340.3906,324.375 338.7891,324.375 Q336.9141,324.375 335.4102,323.6328 Q334.1992,323.0469 333.3398,321.7773 Q332.5,320.5078 332.5,319.0039 L332.5,317.6367 Q332.5,316.0742 333.2422,314.707 Q334.0039,313.3398 335.3125,312.6172 Q336.6406,311.875 338.125,311.875 Q339.0234,311.875 339.8047,312.1875 Q340.5859,312.5 341.25,313.125 Z "/><text fill="#000000" font-family="sans-serif" font-size="15" lengthAdjust="spacingAndGlyphs" textLength="57.5" x="356.25" y="323.6377">Session</text><line style="stroke: #A80036; stroke-width: 1.875;" x1="321.25" x2="416.25" y1="337.5" y2="337.5"/><line style="stroke: #A80036; stroke-width: 1.875;" x1="321.25" x2="416.25" y1="347.5" y2="347.5"/><!--MD5=[3aa0d89c6bfdcbf7f32042cedac57549]
class Vehicle--><rect fill="#FEFECE" filter="url(#fmw8akm2qjlu2)" height="60" id="Vehicle" style="stroke: #A80036; stroke-width: 1.875;" width="90" x="461.25" y="297.5"/><ellipse cx="480" cy="317.5" fill="#ADD1B2" rx="13.75" ry="13.75" style="stroke: #A80036; stroke-width: 1.25;"/><path d="M482.5,313.125 Q482.7539,312.5 483.0469,312.1875 Q483.3398,311.875 483.6719,311.875 Q484.2578,311.875 484.6289,312.2266 Q485,312.5781 485,313.3984 L485,315.3516 Q485,316.1719 484.6484,316.5234 Q484.2969,316.875 483.75,316.875 Q483.2617,316.875 482.9492,316.6602 Q482.6367,316.4453 482.5,315.8789 Q482.4414,315.4883 482.2266,315.2734 Q481.8359,314.8633 481.1328,314.6289 Q480.4297,314.375 479.7266,314.375 Q478.8477,314.375 478.1055,314.7266 Q477.3828,315.0781 476.8164,315.8594 Q476.25,316.6406 476.25,317.7148 L476.25,318.8672 Q476.25,320.1563 477.3047,321.0156 Q478.3594,321.875 480.2344,321.875 Q481.3477,321.875 482.1289,321.6211 Q482.5781,321.4844 483.0859,321.0352 Q483.418,320.7813 483.5938,320.7031 Q483.7695,320.625 483.9844,320.625 Q484.3945,320.625 484.6875,320.957 Q485,321.2695 485,321.7188 Q485,322.1484 484.5703,322.6563 Q483.9453,323.3984 482.9492,323.8086 Q481.6406,324.375 480.0391,324.375 Q478.1641,324.375 476.6602,323.6328 Q475.4492,323.0469 474.5898,321.7773 Q473.75,320.5078 473.75,319.0039 L473.75,317.6367 Q473.75,316.0742 474.4922,314.707 Q475.2539,313.3398 476.5625,312.6172 Q477.8906,311.875 479.375,311.875 Q480.2734,311.875 481.0547,312.1875 Q481.8359,312.5 482.5,313.125 Z "/><text fill="#000000" font-family="sans-serif" font-size="15" lengthAdjust="spacingAndGlyphs" textLength="50" x="497.5" y="323.6377">Vehicle</text><line style="stroke: #A80036; stroke-width: 1.875;" x1="462.5" x2="550" y1="337.5" y2="337.5"/><line style="stroke: #A80036; stroke-width: 1.875;" x1="462.5" x2="550" y1="347.5" y2="347.5"/><!--MD5=[f6bfa8e6ad2e37edcd578b647fafadda]
class MenuView--><rect fill="#FEFECE" filter="url(#fmw8akm2qjlu2)" height="60" id="MenuView" style="stroke: #A80036; stroke-width: 1.875;" width="110" x="313.75" y="10"/><ellipse cx="332.5" cy="30" fill="#ADD1B2" rx="13.75" ry="13.75" style="stroke: #A80036; stroke-width: 1.25;"/><path d="M335,25.625 Q335.2539,25 335.5469,24.6875 Q335.8398,24.375 336.1719,24.375 Q336.7578,24.375 337.1289,24.7266 Q337.5,25.0781 337.5,25.8984 L337.5,27.8516 Q337.5,28.6719 337.1484,29.0234 Q336.7969,29.375 336.25,29.375 Q335.7617,29.375 335.4492,29.1602 Q335.1367,28.9453 335,28.3789 Q334.9414,27.9883 334.7266,27.7734 Q334.3359,27.3633 333.6328,27.1289 Q332.9297,26.875 332.2266,26.875 Q331.3477,26.875 330.6055,27.2266 Q329.8828,27.5781 329.3164,28.3594 Q328.75,29.1406 328.75,30.2148 L328.75,31.3672 Q328.75,32.6563 329.8047,33.5156 Q330.8594,34.375 332.7344,34.375 Q333.8477,34.375 334.6289,34.1211 Q335.0781,33.9844 335.5859,33.5352 Q335.918,33.2813 336.0938,33.2031 Q336.2695,33.125 336.4844,33.125 Q336.8945,33.125 337.1875,33.457 Q337.5,33.7695 337.5,34.2188 Q337.5,34.6484 337.0703,35.1563 Q336.4453,35.8984 335.4492,36.3086 Q334.1406,36.875 332.5391,36.875 Q330.6641,36.875 329.1602,36.1328 Q327.9492,35.5469 327.0898,34.2773 Q326.25,33.0078 326.25,31.5039 L326.25,30.1367 Q326.25,28.5742 326.9922,27.207 Q327.7539,25.8398 329.0625,25.1172 Q330.3906,24.375 331.875,24.375 Q332.7734,24.375 333.5547,24.6875 Q334.3359,25 335,25.625 Z "/><text fill="#000000" font-family="sans-serif" font-size="15" lengthAdjust="spacingAndGlyphs" textLength="70" x="350" y="36.1377">MenuView</text><line style="stroke: #A80036; stroke-width: 1.875;" x1="315" x2="422.5" y1="50" y2="50"/><line style="stroke: #A80036; stroke-width: 1.875;" x1="315" x2="422.5" y1="60" y2="60"/><!--MD5=[fb53487f3bac7251ff70379f798d388d]
class OpenInterventionsController--><rect fill="#FEFECE" filter="url(#fmw8akm2qjlu2)" height="60" id="OpenInterventionsController" style="stroke: #A80036; stroke-width: 1.875;" width="232.5" x="595" y="297.5"/><ellipse cx="613.75" cy="317.5" fill="#ADD1B2" rx="13.75" ry="13.75" style="stroke: #A80036; stroke-width: 1.25;"/><path d="M616.25,313.125 Q616.5039,312.5 616.7969,312.1875 Q617.0898,311.875 617.4219,311.875 Q618.0078,311.875 618.3789,312.2266 Q618.75,312.5781 618.75,313.3984 L618.75,315.3516 Q618.75,316.1719 618.3984,316.5234 Q618.0469,316.875 617.5,316.875 Q617.0117,316.875 616.6992,316.6602 Q616.3867,316.4453 616.25,315.8789 Q616.1914,315.4883 615.9766,315.2734 Q615.5859,314.8633 614.8828,314.6289 Q614.1797,314.375 613.4766,314.375 Q612.5977,314.375 611.8555,314.7266 Q611.1328,315.0781 610.5664,315.8594 Q610,316.6406 610,317.7148 L610,318.8672 Q610,320.1563 611.0547,321.0156 Q612.1094,321.875 613.9844,321.875 Q615.0977,321.875 615.8789,321.6211 Q616.3281,321.4844 616.8359,321.0352 Q617.168,320.7813 617.3438,320.7031 Q617.5195,320.625 617.7344,320.625 Q618.1445,320.625 618.4375,320.957 Q618.75,321.2695 618.75,321.7188 Q618.75,322.1484 618.3203,322.6563 Q617.6953,323.3984 616.6992,323.8086 Q615.3906,324.375 613.7891,324.375 Q611.9141,324.375 610.4102,323.6328 Q609.1992,323.0469 608.3398,321.7773 Q607.5,320.5078 607.5,319.0039 L607.5,317.6367 Q607.5,316.0742 608.2422,314.707 Q609.0039,313.3398 610.3125,312.6172 Q611.6406,311.875 613.125,311.875 Q614.0234,311.875 614.8047,312.1875 Q615.5859,312.5 616.25,313.125 Z "/><text fill="#000000" font-family="sans-serif" font-size="15" lengthAdjust="spacingAndGlyphs" textLength="192.5" x="631.25" y="323.6377">OpenInterventionsController</text><line style="stroke: #A80036; stroke-width: 1.875;" x1="596.25" x2="826.25" y1="337.5" y2="337.5"/><line style="stroke: #A80036; stroke-width: 1.875;" x1="596.25" x2="826.25" y1="347.5" y2="347.5"/><!--MD5=[7bac7d1076a4ccaa31d8d4027821bef9]
link InterventionsView to Mechanic--><path d="M286.4163,222.6663 C233.3738,246.9335 165.7025,277.8919 118.2114,299.6189 " fill="none" id="InterventionsView-&gt;Mechanic" style="stroke: #A80036; stroke-width: 1.25;"/><polygon fill="#A80036" points="112.5221,302.2216,124.8325,302.0882,118.2056,299.6215,120.6723,292.9946,112.5221,302.2216" style="stroke: #A80036; stroke-width: 1.25;"/><!--MD5=[38f5437fc595d84930ebbe246ff65429]
link InterventionsView to Intervention--><path d="M327.8825,222.8525 C304.4238,244.5806 275.2238,271.6265 252.5725,292.6071 " fill="none" id="InterventionsView-&gt;Intervention" style="stroke: #A80036; stroke-width: 1.25;"/><polygon fill="#A80036" points="247.5512,297.2584,259.2028,293.2828,252.1369,293.0117,252.4081,285.9458,247.5512,297.2584" style="stroke: #A80036; stroke-width: 1.25;"/><!--MD5=[04ff8de8ae3660906f10a1c269814489]
link InterventionsView to Session--><path d="M368.75,222.8525 C368.75,243.8503 368.75,269.8144 368.75,290.4713 " fill="none" id="InterventionsView-&gt;Session" style="stroke: #A80036; stroke-width: 1.25;"/><polygon fill="#A80036" points="368.75,297.2584,373.75,286.0084,368.75,291.0084,363.75,286.0084,368.75,297.2584" style="stroke: #A80036; stroke-width: 1.25;"/><!--MD5=[d781d38a7e59b5f10de7b43248ff4f8c]
link InterventionsView to Vehicle--><path d="M405.5975,222.8525 C426.7488,244.5806 453.0763,271.6265 473.5,292.6071 " fill="none" id="InterventionsView-&gt;Vehicle" style="stroke: #A80036; stroke-width: 1.25;"/><polygon fill="#A80036" points="478.0275,297.2584,473.7631,285.7095,473.6679,292.7799,466.5975,292.6848,478.0275,297.2584" style="stroke: #A80036; stroke-width: 1.25;"/><!--MD5=[4336de9b67a098d4ba2746591b9d96e9]
link MenuView to InterventionsView--><path d="M368.75,70.175 C368.75,89.6313 368.75,115.6662 368.75,137.7725 " fill="none" id="MenuView-&gt;InterventionsView" style="stroke: #A80036; stroke-width: 1.25;"/><polygon fill="#A80036" points="368.75,144.495,373.75,133.245,368.75,138.245,363.75,133.245,368.75,144.495" style="stroke: #A80036; stroke-width: 1.25;"/><!--MD5=[97451a318fbb31ff098968f1385ed399]
link InterventionsView to OpenInterventionsController--><path d="M460.0838,222.6663 C514.8463,245.2515 583.665,273.6326 635.4113,294.9735 " fill="none" id="InterventionsView-&gt;OpenInterventionsController" style="stroke: #A80036; stroke-width: 1.25;"/><polygon fill="#A80036" points="641.3163,297.4088,632.8213,288.4982,635.5381,295.0265,629.0097,297.7433,641.3163,297.4088" style="stroke: #A80036; stroke-width: 1.25;"/><!--MD5=[a1d4a735a2df6d041966954d6d97255b]
@startuml
	class InterventionsView {
	+openInterventionsView()
	}

	InterventionsView - -> Mechanic
	InterventionsView - -> Intervention
	InterventionsView - -> Session
	InterventionsView - -> Vehicle
	MenuView - -> InterventionsView
	InterventionsView - -> OpenInterventionsController
@enduml

PlantUML version 1.2020.09(Sun May 10 12:51:06 CEST 2020)
(GPL source distribution)
Java Runtime: OpenJDK Runtime Environment
JVM: OpenJDK 64-Bit Server VM
Java Version: 11.0.8+10-b1094.1
Operating System: Windows 10
Default Encoding: Cp1252
Language: en
Country: GB
--></g></svg>