<?xml version="1.0" encoding="UTF-8" standalone="no"?><svg xmlns="http://www.w3.org/2000/svg" xmlns:xlink="http://www.w3.org/1999/xlink" contentScriptType="application/ecmascript" contentStyleType="text/css" height="203px" preserveAspectRatio="none" style="width:654px;height:203px;" version="1.1" viewBox="0 0 654 203" width="654px" zoomAndPan="magnify"><defs><filter height="300%" id="fbdjh167l3ihg" width="300%" x="-1" y="-1"><feGaussianBlur result="blurOut" stdDeviation="2.0"/><feColorMatrix in="blurOut" result="blurOut2" type="matrix" values="0 0 0 0 0 0 0 0 0 0 0 0 0 0 0 0 0 0 .4 0"/><feOffset dx="4.0" dy="4.0" in="blurOut2" result="blurOut3"/><feBlend in="SourceGraphic" in2="blurOut3" mode="normal"/></filter></defs><g><!--MD5=[8309b17d830045003489ce4c308a9814]
class LoginView--><rect fill="#FEFECE" filter="url(#fbdjh167l3ihg)" height="75.6719" id="LoginView" style="stroke: #A80036; stroke-width: 1.5;" width="253" x="187" y="8"/><ellipse cx="280.75" cy="24" fill="#ADD1B2" rx="11" ry="11" style="stroke: #A80036; stroke-width: 1.0;"/><path d="M282.75,20.5 Q282.9531,20 283.1875,19.75 Q283.4219,19.5 283.6875,19.5 Q284.1563,19.5 284.4531,19.7813 Q284.75,20.0625 284.75,20.7188 L284.75,22.2813 Q284.75,22.9375 284.4688,23.2188 Q284.1875,23.5 283.75,23.5 Q283.3594,23.5 283.1094,23.3281 Q282.8594,23.1563 282.75,22.7031 Q282.7031,22.3906 282.5313,22.2188 Q282.2188,21.8906 281.6563,21.7031 Q281.0938,21.5 280.5313,21.5 Q279.8281,21.5 279.2344,21.7813 Q278.6563,22.0625 278.2031,22.6875 Q277.75,23.3125 277.75,24.1719 L277.75,25.0938 Q277.75,26.125 278.5938,26.8125 Q279.4375,27.5 280.9375,27.5 Q281.8281,27.5 282.4531,27.2969 Q282.8125,27.1875 283.2188,26.8281 Q283.4844,26.625 283.625,26.5625 Q283.7656,26.5 283.9375,26.5 Q284.2656,26.5 284.5,26.7656 Q284.75,27.0156 284.75,27.375 Q284.75,27.7188 284.4063,28.125 Q283.9063,28.7188 283.1094,29.0469 Q282.0625,29.5 280.7813,29.5 Q279.2813,29.5 278.0781,28.9063 Q277.1094,28.4375 276.4219,27.4219 Q275.75,26.4063 275.75,25.2031 L275.75,24.1094 Q275.75,22.8594 276.3438,21.7656 Q276.9531,20.6719 278,20.0938 Q279.0625,19.5 280.25,19.5 Q280.9688,19.5 281.5938,19.75 Q282.2188,20 282.75,20.5 Z "/><text fill="#000000" font-family="sans-serif" font-size="12" lengthAdjust="spacingAndGlyphs" textLength="57" x="301.25" y="28.9102">LoginView</text><line style="stroke: #A80036; stroke-width: 1.5;" x1="188" x2="439" y1="40" y2="40"/><line style="stroke: #A80036; stroke-width: 1.5;" x1="188" x2="439" y1="48" y2="48"/><ellipse cx="198" cy="59" fill="#84BE84" rx="3" ry="3" style="stroke: #038048; stroke-width: 1.0;"/><text fill="#000000" font-family="sans-serif" font-size="11" lengthAdjust="spacingAndGlyphs" textLength="227" x="207" y="63.4189">signin(username, password, repeatPassword)</text><ellipse cx="198" cy="72.8359" fill="#84BE84" rx="3" ry="3" style="stroke: #038048; stroke-width: 1.0;"/><text fill="#000000" font-family="sans-serif" font-size="11" lengthAdjust="spacingAndGlyphs" textLength="134" x="207" y="77.2549">login(username, password)</text><!--MD5=[5103e3471bf31fadd75905833dcba617]
class LoginController--><rect fill="#FEFECE" filter="url(#fbdjh167l3ihg)" height="48" id="LoginController" style="stroke: #A80036; stroke-width: 1.5;" width="117" x="6" y="144"/><ellipse cx="21" cy="160" fill="#ADD1B2" rx="11" ry="11" style="stroke: #A80036; stroke-width: 1.0;"/><path d="M23,156.5 Q23.2031,156 23.4375,155.75 Q23.6719,155.5 23.9375,155.5 Q24.4063,155.5 24.7031,155.7813 Q25,156.0625 25,156.7188 L25,158.2813 Q25,158.9375 24.7188,159.2188 Q24.4375,159.5 24,159.5 Q23.6094,159.5 23.3594,159.3281 Q23.1094,159.1563 23,158.7031 Q22.9531,158.3906 22.7813,158.2188 Q22.4688,157.8906 21.9063,157.7031 Q21.3438,157.5 20.7813,157.5 Q20.0781,157.5 19.4844,157.7813 Q18.9063,158.0625 18.4531,158.6875 Q18,159.3125 18,160.1719 L18,161.0938 Q18,162.125 18.8438,162.8125 Q19.6875,163.5 21.1875,163.5 Q22.0781,163.5 22.7031,163.2969 Q23.0625,163.1875 23.4688,162.8281 Q23.7344,162.625 23.875,162.5625 Q24.0156,162.5 24.1875,162.5 Q24.5156,162.5 24.75,162.7656 Q25,163.0156 25,163.375 Q25,163.7188 24.6563,164.125 Q24.1563,164.7188 23.3594,165.0469 Q22.3125,165.5 21.0313,165.5 Q19.5313,165.5 18.3281,164.9063 Q17.3594,164.4375 16.6719,163.4219 Q16,162.4063 16,161.2031 L16,160.1094 Q16,158.8594 16.5938,157.7656 Q17.2031,156.6719 18.25,156.0938 Q19.3125,155.5 20.5,155.5 Q21.2188,155.5 21.8438,155.75 Q22.4688,156 23,156.5 Z "/><text fill="#000000" font-family="sans-serif" font-size="12" lengthAdjust="spacingAndGlyphs" textLength="85" x="35" y="164.9102">LoginController</text><line style="stroke: #A80036; stroke-width: 1.5;" x1="7" x2="122" y1="176" y2="176"/><line style="stroke: #A80036; stroke-width: 1.5;" x1="7" x2="122" y1="184" y2="184"/><!--MD5=[2ca1536628238a7dc78c5d90808014f9]
class Session--><rect fill="#FEFECE" filter="url(#fbdjh167l3ihg)" height="48" id="Session" style="stroke: #A80036; stroke-width: 1.5;" width="78" x="158.5" y="144"/><ellipse cx="173.5" cy="160" fill="#ADD1B2" rx="11" ry="11" style="stroke: #A80036; stroke-width: 1.0;"/><path d="M175.5,156.5 Q175.7031,156 175.9375,155.75 Q176.1719,155.5 176.4375,155.5 Q176.9063,155.5 177.2031,155.7813 Q177.5,156.0625 177.5,156.7188 L177.5,158.2813 Q177.5,158.9375 177.2188,159.2188 Q176.9375,159.5 176.5,159.5 Q176.1094,159.5 175.8594,159.3281 Q175.6094,159.1563 175.5,158.7031 Q175.4531,158.3906 175.2813,158.2188 Q174.9688,157.8906 174.4063,157.7031 Q173.8438,157.5 173.2813,157.5 Q172.5781,157.5 171.9844,157.7813 Q171.4063,158.0625 170.9531,158.6875 Q170.5,159.3125 170.5,160.1719 L170.5,161.0938 Q170.5,162.125 171.3438,162.8125 Q172.1875,163.5 173.6875,163.5 Q174.5781,163.5 175.2031,163.2969 Q175.5625,163.1875 175.9688,162.8281 Q176.2344,162.625 176.375,162.5625 Q176.5156,162.5 176.6875,162.5 Q177.0156,162.5 177.25,162.7656 Q177.5,163.0156 177.5,163.375 Q177.5,163.7188 177.1563,164.125 Q176.6563,164.7188 175.8594,165.0469 Q174.8125,165.5 173.5313,165.5 Q172.0313,165.5 170.8281,164.9063 Q169.8594,164.4375 169.1719,163.4219 Q168.5,162.4063 168.5,161.2031 L168.5,160.1094 Q168.5,158.8594 169.0938,157.7656 Q169.7031,156.6719 170.75,156.0938 Q171.8125,155.5 173,155.5 Q173.7188,155.5 174.3438,155.75 Q174.9688,156 175.5,156.5 Z "/><text fill="#000000" font-family="sans-serif" font-size="12" lengthAdjust="spacingAndGlyphs" textLength="46" x="187.5" y="164.9102">Session</text><line style="stroke: #A80036; stroke-width: 1.5;" x1="159.5" x2="235.5" y1="176" y2="176"/><line style="stroke: #A80036; stroke-width: 1.5;" x1="159.5" x2="235.5" y1="184" y2="184"/><!--MD5=[1e29ec7aa20142996304403e448274ec]
class Mechanic--><rect fill="#FEFECE" filter="url(#fbdjh167l3ihg)" height="48" id="Mechanic" style="stroke: #A80036; stroke-width: 1.5;" width="84" x="271.5" y="144"/><ellipse cx="286.5" cy="160" fill="#ADD1B2" rx="11" ry="11" style="stroke: #A80036; stroke-width: 1.0;"/><path d="M288.5,156.5 Q288.7031,156 288.9375,155.75 Q289.1719,155.5 289.4375,155.5 Q289.9063,155.5 290.2031,155.7813 Q290.5,156.0625 290.5,156.7188 L290.5,158.2813 Q290.5,158.9375 290.2188,159.2188 Q289.9375,159.5 289.5,159.5 Q289.1094,159.5 288.8594,159.3281 Q288.6094,159.1563 288.5,158.7031 Q288.4531,158.3906 288.2813,158.2188 Q287.9688,157.8906 287.4063,157.7031 Q286.8438,157.5 286.2813,157.5 Q285.5781,157.5 284.9844,157.7813 Q284.4063,158.0625 283.9531,158.6875 Q283.5,159.3125 283.5,160.1719 L283.5,161.0938 Q283.5,162.125 284.3438,162.8125 Q285.1875,163.5 286.6875,163.5 Q287.5781,163.5 288.2031,163.2969 Q288.5625,163.1875 288.9688,162.8281 Q289.2344,162.625 289.375,162.5625 Q289.5156,162.5 289.6875,162.5 Q290.0156,162.5 290.25,162.7656 Q290.5,163.0156 290.5,163.375 Q290.5,163.7188 290.1563,164.125 Q289.6563,164.7188 288.8594,165.0469 Q287.8125,165.5 286.5313,165.5 Q285.0313,165.5 283.8281,164.9063 Q282.8594,164.4375 282.1719,163.4219 Q281.5,162.4063 281.5,161.2031 L281.5,160.1094 Q281.5,158.8594 282.0938,157.7656 Q282.7031,156.6719 283.75,156.0938 Q284.8125,155.5 286,155.5 Q286.7188,155.5 287.3438,155.75 Q287.9688,156 288.5,156.5 Z "/><text fill="#000000" font-family="sans-serif" font-size="12" lengthAdjust="spacingAndGlyphs" textLength="52" x="300.5" y="164.9102">Mechanic</text><line style="stroke: #A80036; stroke-width: 1.5;" x1="272.5" x2="354.5" y1="176" y2="176"/><line style="stroke: #A80036; stroke-width: 1.5;" x1="272.5" x2="354.5" y1="184" y2="184"/><!--MD5=[c165718656364e8a2441ae1f83ea1dcf]
class SignInView--><rect fill="#FEFECE" filter="url(#fbdjh167l3ihg)" height="48" id="SignInView" style="stroke: #A80036; stroke-width: 1.5;" width="93" x="391" y="144"/><ellipse cx="406" cy="160" fill="#ADD1B2" rx="11" ry="11" style="stroke: #A80036; stroke-width: 1.0;"/><path d="M408,156.5 Q408.2031,156 408.4375,155.75 Q408.6719,155.5 408.9375,155.5 Q409.4063,155.5 409.7031,155.7813 Q410,156.0625 410,156.7188 L410,158.2813 Q410,158.9375 409.7188,159.2188 Q409.4375,159.5 409,159.5 Q408.6094,159.5 408.3594,159.3281 Q408.1094,159.1563 408,158.7031 Q407.9531,158.3906 407.7813,158.2188 Q407.4688,157.8906 406.9063,157.7031 Q406.3438,157.5 405.7813,157.5 Q405.0781,157.5 404.4844,157.7813 Q403.9063,158.0625 403.4531,158.6875 Q403,159.3125 403,160.1719 L403,161.0938 Q403,162.125 403.8438,162.8125 Q404.6875,163.5 406.1875,163.5 Q407.0781,163.5 407.7031,163.2969 Q408.0625,163.1875 408.4688,162.8281 Q408.7344,162.625 408.875,162.5625 Q409.0156,162.5 409.1875,162.5 Q409.5156,162.5 409.75,162.7656 Q410,163.0156 410,163.375 Q410,163.7188 409.6563,164.125 Q409.1563,164.7188 408.3594,165.0469 Q407.3125,165.5 406.0313,165.5 Q404.5313,165.5 403.3281,164.9063 Q402.3594,164.4375 401.6719,163.4219 Q401,162.4063 401,161.2031 L401,160.1094 Q401,158.8594 401.5938,157.7656 Q402.2031,156.6719 403.25,156.0938 Q404.3125,155.5 405.5,155.5 Q406.2188,155.5 406.8438,155.75 Q407.4688,156 408,156.5 Z "/><text fill="#000000" font-family="sans-serif" font-size="12" lengthAdjust="spacingAndGlyphs" textLength="61" x="420" y="164.9102">SignInView</text><line style="stroke: #A80036; stroke-width: 1.5;" x1="392" x2="483" y1="176" y2="176"/><line style="stroke: #A80036; stroke-width: 1.5;" x1="392" x2="483" y1="184" y2="184"/><!--MD5=[acfd4a11b7ab481a843f8f3c2570b65c]
class OpenDashboard--><rect fill="#FEFECE" filter="url(#fbdjh167l3ihg)" height="48" id="OpenDashboard" style="stroke: #A80036; stroke-width: 1.5;" width="124" x="519.5" y="144"/><ellipse cx="534.5" cy="160" fill="#ADD1B2" rx="11" ry="11" style="stroke: #A80036; stroke-width: 1.0;"/><path d="M536.5,156.5 Q536.7031,156 536.9375,155.75 Q537.1719,155.5 537.4375,155.5 Q537.9063,155.5 538.2031,155.7813 Q538.5,156.0625 538.5,156.7188 L538.5,158.2813 Q538.5,158.9375 538.2188,159.2188 Q537.9375,159.5 537.5,159.5 Q537.1094,159.5 536.8594,159.3281 Q536.6094,159.1563 536.5,158.7031 Q536.4531,158.3906 536.2813,158.2188 Q535.9688,157.8906 535.4063,157.7031 Q534.8438,157.5 534.2813,157.5 Q533.5781,157.5 532.9844,157.7813 Q532.4063,158.0625 531.9531,158.6875 Q531.5,159.3125 531.5,160.1719 L531.5,161.0938 Q531.5,162.125 532.3438,162.8125 Q533.1875,163.5 534.6875,163.5 Q535.5781,163.5 536.2031,163.2969 Q536.5625,163.1875 536.9688,162.8281 Q537.2344,162.625 537.375,162.5625 Q537.5156,162.5 537.6875,162.5 Q538.0156,162.5 538.25,162.7656 Q538.5,163.0156 538.5,163.375 Q538.5,163.7188 538.1563,164.125 Q537.6563,164.7188 536.8594,165.0469 Q535.8125,165.5 534.5313,165.5 Q533.0313,165.5 531.8281,164.9063 Q530.8594,164.4375 530.1719,163.4219 Q529.5,162.4063 529.5,161.2031 L529.5,160.1094 Q529.5,158.8594 530.0938,157.7656 Q530.7031,156.6719 531.75,156.0938 Q532.8125,155.5 534,155.5 Q534.7188,155.5 535.3438,155.75 Q535.9688,156 536.5,156.5 Z "/><text fill="#000000" font-family="sans-serif" font-size="12" lengthAdjust="spacingAndGlyphs" textLength="92" x="548.5" y="164.9102">OpenDashboard</text><line style="stroke: #A80036; stroke-width: 1.5;" x1="520.5" x2="642.5" y1="176" y2="176"/><line style="stroke: #A80036; stroke-width: 1.5;" x1="520.5" x2="642.5" y1="184" y2="184"/><!--MD5=[00612bbf082436bfb3978d0560ce9303]
link LoginView to LoginController--><path d="M236.42,84.147 C197.599,102.8557 151.547,125.0497 116.881,141.7563 " fill="none" id="LoginView-&gt;LoginController" style="stroke: #A80036; stroke-width: 1.0;"/><polygon fill="#A80036" points="112.282,143.9726,122.1261,143.6675,116.786,141.8013,118.6521,136.4612,112.282,143.9726" style="stroke: #A80036; stroke-width: 1.0;"/><!--MD5=[1388d103e7d0072ce5f15ff6e719b690]
link LoginView to Session--><path d="M277.433,84.311 C259.996,102.3487 239.458,123.5949 223.567,140.0342 " fill="none" id="LoginView-&gt;Session" style="stroke: #A80036; stroke-width: 1.0; stroke-dasharray: 7.0,7.0;"/><polygon fill="#A80036" points="220.044,143.6782,229.1748,139.9865,223.5187,140.0829,223.4223,134.4269,220.044,143.6782" style="stroke: #A80036; stroke-width: 1.0;"/><text fill="#000000" font-family="sans-serif" font-size="13" lengthAdjust="spacingAndGlyphs" textLength="7" x="217.686" y="133.3377">1</text><!--MD5=[1cb41e0826c52d284a6bf7ccafa1711c]
link LoginView to Mechanic--><path d="M313.5,84.311 C313.5,101.7424 313.5,122.1702 313.5,138.3605 " fill="none" id="LoginView-&gt;Mechanic" style="stroke: #A80036; stroke-width: 1.0;"/><polygon fill="#A80036" points="313.5,143.6782,317.5,134.6782,313.5,138.6782,309.5,134.6782,313.5,143.6782" style="stroke: #A80036; stroke-width: 1.0;"/><text fill="#000000" font-family="sans-serif" font-size="13" lengthAdjust="spacingAndGlyphs" textLength="7" x="305.6469" y="133.3377">1</text><!--MD5=[9b66fb5479e96f05da90ee9901b26f34]
link LoginView to SignInView--><path d="M352.055,84.311 C370.694,102.3487 392.648,123.5949 409.635,140.0342 " fill="none" id="LoginView-&gt;SignInView" style="stroke: #A80036; stroke-width: 1.0;"/><polygon fill="#A80036" points="413.401,143.6782,409.7153,134.545,409.808,140.2011,404.1519,140.2938,413.401,143.6782" style="stroke: #A80036; stroke-width: 1.0;"/><!--MD5=[db5de6258108b1126a16735e692faa3a]
link LoginView to OpenDashboard--><path d="M396.462,84.147 C438.244,102.8557 487.811,125.0497 525.123,141.7563 " fill="none" id="LoginView-&gt;OpenDashboard" style="stroke: #A80036; stroke-width: 1.0;"/><polygon fill="#A80036" points="530.072,143.9726,523.4919,136.6444,525.5084,141.9297,520.2232,143.9462,530.072,143.9726" style="stroke: #A80036; stroke-width: 1.0;"/><!--MD5=[495a1e965c897e1b8d9992177faa355f]
@startuml
	class LoginView {
	+signin(username, password, repeatPassword)
	+login(username, password)
	}

	LoginView - -> LoginController
	LoginView ..> "1" Session
	LoginView - -> "1" Mechanic
	LoginView - -> SignInView
	LoginView - -> OpenDashboard
@enduml

PlantUML version 1.2020.09(Sun May 10 12:51:06 CEST 2020)
(GPL source distribution)
Java Runtime: OpenJDK Runtime Environment
JVM: OpenJDK 64-Bit Server VM
Java Version: 11.0.8+10-b1094.1
Operating System: Windows 10
Default Encoding: Cp1252
Language: en
Country: GB
--></g></svg>