<?xml version="1.0" encoding="UTF-8" standalone="no"?><svg xmlns="http://www.w3.org/2000/svg" xmlns:xlink="http://www.w3.org/1999/xlink" contentScriptType="application/ecmascript" contentStyleType="text/css" height="218.75px" preserveAspectRatio="none" style="width:170px;height:218px;" version="1.1" viewBox="0 0 170 218" width="170px" zoomAndPan="magnify"><defs><filter height="300%" id="f1giy0618pyqkr" width="300%" x="-1" y="-1"><feGaussianBlur result="blurOut" stdDeviation="2.5"/><feColorMatrix in="blurOut" result="blurOut2" type="matrix" values="0 0 0 0 0 0 0 0 0 0 0 0 0 0 0 0 0 0 .4 0"/><feOffset dx="5.0" dy="5.0" in="blurOut2" result="blurOut3"/><feBlend in="SourceGraphic" in2="blurOut3" mode="normal"/></filter></defs><g><!--MD5=[b3dbcbbebe7cd62111d3eff112e075fa]
class OperationsView--><rect fill="#FEFECE" filter="url(#f1giy0618pyqkr)" height="60" id="OperationsView" style="stroke: #A80036; stroke-width: 1.875;" width="148.75" x="7.5" y="145"/><ellipse cx="26.25" cy="165" fill="#ADD1B2" rx="13.75" ry="13.75" style="stroke: #A80036; stroke-width: 1.25;"/><path d="M28.75,160.625 Q29.0039,160 29.2969,159.6875 Q29.5898,159.375 29.9219,159.375 Q30.5078,159.375 30.8789,159.7266 Q31.25,160.0781 31.25,160.8984 L31.25,162.8516 Q31.25,163.6719 30.8984,164.0234 Q30.5469,164.375 30,164.375 Q29.5117,164.375 29.1992,164.1602 Q28.8867,163.9453 28.75,163.3789 Q28.6914,162.9883 28.4766,162.7734 Q28.0859,162.3633 27.3828,162.1289 Q26.6797,161.875 25.9766,161.875 Q25.0977,161.875 24.3555,162.2266 Q23.6328,162.5781 23.0664,163.3594 Q22.5,164.1406 22.5,165.2148 L22.5,166.3672 Q22.5,167.6563 23.5547,168.5156 Q24.6094,169.375 26.4844,169.375 Q27.5977,169.375 28.3789,169.1211 Q28.8281,168.9844 29.3359,168.5352 Q29.668,168.2813 29.8438,168.2031 Q30.0195,168.125 30.2344,168.125 Q30.6445,168.125 30.9375,168.457 Q31.25,168.7695 31.25,169.2188 Q31.25,169.6484 30.8203,170.1563 Q30.1953,170.8984 29.1992,171.3086 Q27.8906,171.875 26.2891,171.875 Q24.4141,171.875 22.9102,171.1328 Q21.6992,170.5469 20.8398,169.2773 Q20,168.0078 20,166.5039 L20,165.1367 Q20,163.5742 20.7422,162.207 Q21.5039,160.8398 22.8125,160.1172 Q24.1406,159.375 25.625,159.375 Q26.5234,159.375 27.3047,159.6875 Q28.0859,160 28.75,160.625 Z "/><text fill="#000000" font-family="sans-serif" font-size="15" lengthAdjust="spacingAndGlyphs" textLength="108.75" x="43.75" y="171.1377">OperationsView</text><line style="stroke: #A80036; stroke-width: 1.875;" x1="8.75" x2="155" y1="185" y2="185"/><line style="stroke: #A80036; stroke-width: 1.875;" x1="8.75" x2="155" y1="195" y2="195"/><!--MD5=[f6bfa8e6ad2e37edcd578b647fafadda]
class MenuView--><rect fill="#FEFECE" filter="url(#f1giy0618pyqkr)" height="60" id="MenuView" style="stroke: #A80036; stroke-width: 1.875;" width="110" x="26.875" y="10"/><ellipse cx="45.625" cy="30" fill="#ADD1B2" rx="13.75" ry="13.75" style="stroke: #A80036; stroke-width: 1.25;"/><path d="M48.125,25.625 Q48.3789,25 48.6719,24.6875 Q48.9648,24.375 49.2969,24.375 Q49.8828,24.375 50.2539,24.7266 Q50.625,25.0781 50.625,25.8984 L50.625,27.8516 Q50.625,28.6719 50.2734,29.0234 Q49.9219,29.375 49.375,29.375 Q48.8867,29.375 48.5742,29.1602 Q48.2617,28.9453 48.125,28.3789 Q48.0664,27.9883 47.8516,27.7734 Q47.4609,27.3633 46.7578,27.1289 Q46.0547,26.875 45.3516,26.875 Q44.4727,26.875 43.7305,27.2266 Q43.0078,27.5781 42.4414,28.3594 Q41.875,29.1406 41.875,30.2148 L41.875,31.3672 Q41.875,32.6563 42.9297,33.5156 Q43.9844,34.375 45.8594,34.375 Q46.9727,34.375 47.7539,34.1211 Q48.2031,33.9844 48.7109,33.5352 Q49.043,33.2813 49.2188,33.2031 Q49.3945,33.125 49.6094,33.125 Q50.0195,33.125 50.3125,33.457 Q50.625,33.7695 50.625,34.2188 Q50.625,34.6484 50.1953,35.1563 Q49.5703,35.8984 48.5742,36.3086 Q47.2656,36.875 45.6641,36.875 Q43.7891,36.875 42.2852,36.1328 Q41.0742,35.5469 40.2148,34.2773 Q39.375,33.0078 39.375,31.5039 L39.375,30.1367 Q39.375,28.5742 40.1172,27.207 Q40.8789,25.8398 42.1875,25.1172 Q43.5156,24.375 45,24.375 Q45.8984,24.375 46.6797,24.6875 Q47.4609,25 48.125,25.625 Z "/><text fill="#000000" font-family="sans-serif" font-size="15" lengthAdjust="spacingAndGlyphs" textLength="70" x="63.125" y="36.1377">MenuView</text><line style="stroke: #A80036; stroke-width: 1.875;" x1="28.125" x2="135.625" y1="50" y2="50"/><line style="stroke: #A80036; stroke-width: 1.875;" x1="28.125" x2="135.625" y1="60" y2="60"/><!--MD5=[ffd25ecd16cc964c257ad3573640de44]
link MenuView to OperationsView--><path d="M81.875,70 C81.875,90.0038 81.875,116.8076 81.875,138.16 " fill="none" id="MenuView-&gt;OperationsView" style="stroke: #A80036; stroke-width: 1.25;"/><polygon fill="#A80036" points="81.875,144.598,86.875,133.348,81.875,138.348,76.875,133.348,81.875,144.598" style="stroke: #A80036; stroke-width: 1.25;"/><!--MD5=[55a3ce15d6e7b9ac24522c969230e413]
@startuml
	class OperationsView {
	}

	MenuView - -> OperationsView
@enduml

PlantUML version 1.2020.09(Sun May 10 12:51:06 CEST 2020)
(GPL source distribution)
Java Runtime: OpenJDK Runtime Environment
JVM: OpenJDK 64-Bit Server VM
Java Version: 11.0.8+10-b1094.1
Operating System: Windows 10
Default Encoding: Cp1252
Language: en
Country: GB
--></g></svg>