<?xml version="1.0" encoding="UTF-8" standalone="no"?><svg xmlns="http://www.w3.org/2000/svg" xmlns:xlink="http://www.w3.org/1999/xlink" contentScriptType="application/ecmascript" contentStyleType="text/css" height="600px" preserveAspectRatio="none" style="width:862px;height:600px;" version="1.1" viewBox="0 0 862 600" width="862.5px" zoomAndPan="magnify"><defs><filter height="300%" id="fijey8xqm438k" width="300%" x="-1" y="-1"><feGaussianBlur result="blurOut" stdDeviation="2.5"/><feColorMatrix in="blurOut" result="blurOut2" type="matrix" values="0 0 0 0 0 0 0 0 0 0 0 0 0 0 0 0 0 0 .4 0"/><feOffset dx="5.0" dy="5.0" in="blurOut2" result="blurOut3"/><feBlend in="SourceGraphic" in2="blurOut3" mode="normal"/></filter></defs><g><!--MD5=[5d2bdef844ee30e945474426b37189d0]
class VehiclesView--><rect fill="#FEFECE" filter="url(#fijey8xqm438k)" height="94.5898" id="VehiclesView" style="stroke: #A80036; stroke-width: 1.875;" width="257.5" x="281.25" y="145"/><ellipse cx="359.0625" cy="165" fill="#ADD1B2" rx="13.75" ry="13.75" style="stroke: #A80036; stroke-width: 1.25;"/><path d="M361.5625,160.625 Q361.8164,160 362.1094,159.6875 Q362.4023,159.375 362.7344,159.375 Q363.3203,159.375 363.6914,159.7266 Q364.0625,160.0781 364.0625,160.8984 L364.0625,162.8516 Q364.0625,163.6719 363.7109,164.0234 Q363.3594,164.375 362.8125,164.375 Q362.3242,164.375 362.0117,164.1602 Q361.6992,163.9453 361.5625,163.3789 Q361.5039,162.9883 361.2891,162.7734 Q360.8984,162.3633 360.1953,162.1289 Q359.4922,161.875 358.7891,161.875 Q357.9102,161.875 357.168,162.2266 Q356.4453,162.5781 355.8789,163.3594 Q355.3125,164.1406 355.3125,165.2148 L355.3125,166.3672 Q355.3125,167.6563 356.3672,168.5156 Q357.4219,169.375 359.2969,169.375 Q360.4102,169.375 361.1914,169.1211 Q361.6406,168.9844 362.1484,168.5352 Q362.4805,168.2813 362.6563,168.2031 Q362.832,168.125 363.0469,168.125 Q363.457,168.125 363.75,168.457 Q364.0625,168.7695 364.0625,169.2188 Q364.0625,169.6484 363.6328,170.1563 Q363.0078,170.8984 362.0117,171.3086 Q360.7031,171.875 359.1016,171.875 Q357.2266,171.875 355.7227,171.1328 Q354.5117,170.5469 353.6523,169.2773 Q352.8125,168.0078 352.8125,166.5039 L352.8125,165.1367 Q352.8125,163.5742 353.5547,162.207 Q354.3164,160.8398 355.625,160.1172 Q356.9531,159.375 358.4375,159.375 Q359.3359,159.375 360.1172,159.6875 Q360.8984,160 361.5625,160.625 Z "/><text fill="#000000" font-family="sans-serif" font-size="15" lengthAdjust="spacingAndGlyphs" textLength="91.25" x="384.6875" y="171.1377">VehiclesView</text><line style="stroke: #A80036; stroke-width: 1.875;" x1="282.5" x2="537.5" y1="185" y2="185"/><line style="stroke: #A80036; stroke-width: 1.875;" x1="282.5" x2="537.5" y1="195" y2="195"/><ellipse cx="295" cy="208.75" fill="#84BE84" rx="3.75" ry="3.75" style="stroke: #038048; stroke-width: 1.25;"/><text fill="#000000" font-family="sans-serif" font-size="13.75" lengthAdjust="spacingAndGlyphs" textLength="93.75" x="306.25" y="214.2737">createVehicle()</text><ellipse cx="295" cy="226.0449" fill="#84BE84" rx="3.75" ry="3.75" style="stroke: #038048; stroke-width: 1.25;"/><text fill="#000000" font-family="sans-serif" font-size="13.75" lengthAdjust="spacingAndGlyphs" textLength="225" x="306.25" y="231.5686">configClient(vehicleId, clientFullName)</text><!--MD5=[9e0c71a3125094596f70bfdc08b8bc9b]
class ConfigVehicleView--><rect fill="#FEFECE" filter="url(#fijey8xqm438k)" height="60" id="ConfigVehicleView" style="stroke: #A80036; stroke-width: 1.875;" width="167.5" x="7.5" y="315"/><ellipse cx="26.25" cy="335" fill="#ADD1B2" rx="13.75" ry="13.75" style="stroke: #A80036; stroke-width: 1.25;"/><path d="M28.75,330.625 Q29.0039,330 29.2969,329.6875 Q29.5898,329.375 29.9219,329.375 Q30.5078,329.375 30.8789,329.7266 Q31.25,330.0781 31.25,330.8984 L31.25,332.8516 Q31.25,333.6719 30.8984,334.0234 Q30.5469,334.375 30,334.375 Q29.5117,334.375 29.1992,334.1602 Q28.8867,333.9453 28.75,333.3789 Q28.6914,332.9883 28.4766,332.7734 Q28.0859,332.3633 27.3828,332.1289 Q26.6797,331.875 25.9766,331.875 Q25.0977,331.875 24.3555,332.2266 Q23.6328,332.5781 23.0664,333.3594 Q22.5,334.1406 22.5,335.2148 L22.5,336.3672 Q22.5,337.6563 23.5547,338.5156 Q24.6094,339.375 26.4844,339.375 Q27.5977,339.375 28.3789,339.1211 Q28.8281,338.9844 29.3359,338.5352 Q29.668,338.2813 29.8438,338.2031 Q30.0195,338.125 30.2344,338.125 Q30.6445,338.125 30.9375,338.457 Q31.25,338.7695 31.25,339.2188 Q31.25,339.6484 30.8203,340.1563 Q30.1953,340.8984 29.1992,341.3086 Q27.8906,341.875 26.2891,341.875 Q24.4141,341.875 22.9102,341.1328 Q21.6992,340.5469 20.8398,339.2773 Q20,338.0078 20,336.5039 L20,335.1367 Q20,333.5742 20.7422,332.207 Q21.5039,330.8398 22.8125,330.1172 Q24.1406,329.375 25.625,329.375 Q26.5234,329.375 27.3047,329.6875 Q28.0859,330 28.75,330.625 Z "/><text fill="#000000" font-family="sans-serif" font-size="15" lengthAdjust="spacingAndGlyphs" textLength="127.5" x="43.75" y="341.1377">ConfigVehicleView</text><line style="stroke: #A80036; stroke-width: 1.875;" x1="8.75" x2="173.75" y1="355" y2="355"/><line style="stroke: #A80036; stroke-width: 1.875;" x1="8.75" x2="173.75" y1="365" y2="365"/><!--MD5=[3aa0d89c6bfdcbf7f32042cedac57549]
class Vehicle--><rect fill="#FEFECE" filter="url(#fijey8xqm438k)" height="60" id="Vehicle" style="stroke: #A80036; stroke-width: 1.875;" width="90" x="196.25" y="526.25"/><ellipse cx="215" cy="546.25" fill="#ADD1B2" rx="13.75" ry="13.75" style="stroke: #A80036; stroke-width: 1.25;"/><path d="M217.5,541.875 Q217.7539,541.25 218.0469,540.9375 Q218.3398,540.625 218.6719,540.625 Q219.2578,540.625 219.6289,540.9766 Q220,541.3281 220,542.1484 L220,544.1016 Q220,544.9219 219.6484,545.2734 Q219.2969,545.625 218.75,545.625 Q218.2617,545.625 217.9492,545.4102 Q217.6367,545.1953 217.5,544.6289 Q217.4414,544.2383 217.2266,544.0234 Q216.8359,543.6133 216.1328,543.3789 Q215.4297,543.125 214.7266,543.125 Q213.8477,543.125 213.1055,543.4766 Q212.3828,543.8281 211.8164,544.6094 Q211.25,545.3906 211.25,546.4648 L211.25,547.6172 Q211.25,548.9063 212.3047,549.7656 Q213.3594,550.625 215.2344,550.625 Q216.3477,550.625 217.1289,550.3711 Q217.5781,550.2344 218.0859,549.7852 Q218.418,549.5313 218.5938,549.4531 Q218.7695,549.375 218.9844,549.375 Q219.3945,549.375 219.6875,549.707 Q220,550.0195 220,550.4688 Q220,550.8984 219.5703,551.4063 Q218.9453,552.1484 217.9492,552.5586 Q216.6406,553.125 215.0391,553.125 Q213.1641,553.125 211.6602,552.3828 Q210.4492,551.7969 209.5898,550.5273 Q208.75,549.2578 208.75,547.7539 L208.75,546.3867 Q208.75,544.8242 209.4922,543.457 Q210.2539,542.0898 211.5625,541.3672 Q212.8906,540.625 214.375,540.625 Q215.2734,540.625 216.0547,540.9375 Q216.8359,541.25 217.5,541.875 Z "/><text fill="#000000" font-family="sans-serif" font-size="15" lengthAdjust="spacingAndGlyphs" textLength="50" x="232.5" y="552.3877">Vehicle</text><line style="stroke: #A80036; stroke-width: 1.875;" x1="197.5" x2="285" y1="566.25" y2="566.25"/><line style="stroke: #A80036; stroke-width: 1.875;" x1="197.5" x2="285" y1="576.25" y2="576.25"/><!--MD5=[a8a9ef21f02945362a565f5006e12261]
class OpenVehiclesController--><rect fill="#FEFECE" filter="url(#fijey8xqm438k)" height="60" id="OpenVehiclesController" style="stroke: #A80036; stroke-width: 1.875;" width="203.75" x="308.125" y="315"/><ellipse cx="326.875" cy="335" fill="#ADD1B2" rx="13.75" ry="13.75" style="stroke: #A80036; stroke-width: 1.25;"/><path d="M329.375,330.625 Q329.6289,330 329.9219,329.6875 Q330.2148,329.375 330.5469,329.375 Q331.1328,329.375 331.5039,329.7266 Q331.875,330.0781 331.875,330.8984 L331.875,332.8516 Q331.875,333.6719 331.5234,334.0234 Q331.1719,334.375 330.625,334.375 Q330.1367,334.375 329.8242,334.1602 Q329.5117,333.9453 329.375,333.3789 Q329.3164,332.9883 329.1016,332.7734 Q328.7109,332.3633 328.0078,332.1289 Q327.3047,331.875 326.6016,331.875 Q325.7227,331.875 324.9805,332.2266 Q324.2578,332.5781 323.6914,333.3594 Q323.125,334.1406 323.125,335.2148 L323.125,336.3672 Q323.125,337.6563 324.1797,338.5156 Q325.2344,339.375 327.1094,339.375 Q328.2227,339.375 329.0039,339.1211 Q329.4531,338.9844 329.9609,338.5352 Q330.293,338.2813 330.4688,338.2031 Q330.6445,338.125 330.8594,338.125 Q331.2695,338.125 331.5625,338.457 Q331.875,338.7695 331.875,339.2188 Q331.875,339.6484 331.4453,340.1563 Q330.8203,340.8984 329.8242,341.3086 Q328.5156,341.875 326.9141,341.875 Q325.0391,341.875 323.5352,341.1328 Q322.3242,340.5469 321.4648,339.2773 Q320.625,338.0078 320.625,336.5039 L320.625,335.1367 Q320.625,333.5742 321.3672,332.207 Q322.1289,330.8398 323.4375,330.1172 Q324.7656,329.375 326.25,329.375 Q327.1484,329.375 327.9297,329.6875 Q328.7109,330 329.375,330.625 Z "/><text fill="#000000" font-family="sans-serif" font-size="15" lengthAdjust="spacingAndGlyphs" textLength="163.75" x="344.375" y="341.1377">OpenVehiclesController</text><line style="stroke: #A80036; stroke-width: 1.875;" x1="309.375" x2="510.625" y1="355" y2="355"/><line style="stroke: #A80036; stroke-width: 1.875;" x1="309.375" x2="510.625" y1="365" y2="365"/><!--MD5=[f6bfa8e6ad2e37edcd578b647fafadda]
class MenuView--><rect fill="#FEFECE" filter="url(#fijey8xqm438k)" height="60" id="MenuView" style="stroke: #A80036; stroke-width: 1.875;" width="110" x="355" y="10"/><ellipse cx="373.75" cy="30" fill="#ADD1B2" rx="13.75" ry="13.75" style="stroke: #A80036; stroke-width: 1.25;"/><path d="M376.25,25.625 Q376.5039,25 376.7969,24.6875 Q377.0898,24.375 377.4219,24.375 Q378.0078,24.375 378.3789,24.7266 Q378.75,25.0781 378.75,25.8984 L378.75,27.8516 Q378.75,28.6719 378.3984,29.0234 Q378.0469,29.375 377.5,29.375 Q377.0117,29.375 376.6992,29.1602 Q376.3867,28.9453 376.25,28.3789 Q376.1914,27.9883 375.9766,27.7734 Q375.5859,27.3633 374.8828,27.1289 Q374.1797,26.875 373.4766,26.875 Q372.5977,26.875 371.8555,27.2266 Q371.1328,27.5781 370.5664,28.3594 Q370,29.1406 370,30.2148 L370,31.3672 Q370,32.6563 371.0547,33.5156 Q372.1094,34.375 373.9844,34.375 Q375.0977,34.375 375.8789,34.1211 Q376.3281,33.9844 376.8359,33.5352 Q377.168,33.2813 377.3438,33.2031 Q377.5195,33.125 377.7344,33.125 Q378.1445,33.125 378.4375,33.457 Q378.75,33.7695 378.75,34.2188 Q378.75,34.6484 378.3203,35.1563 Q377.6953,35.8984 376.6992,36.3086 Q375.3906,36.875 373.7891,36.875 Q371.9141,36.875 370.4102,36.1328 Q369.1992,35.5469 368.3398,34.2773 Q367.5,33.0078 367.5,31.5039 L367.5,30.1367 Q367.5,28.5742 368.2422,27.207 Q369.0039,25.8398 370.3125,25.1172 Q371.6406,24.375 373.125,24.375 Q374.0234,24.375 374.8047,24.6875 Q375.5859,25 376.25,25.625 Z "/><text fill="#000000" font-family="sans-serif" font-size="15" lengthAdjust="spacingAndGlyphs" textLength="70" x="391.25" y="36.1377">MenuView</text><line style="stroke: #A80036; stroke-width: 1.875;" x1="356.25" x2="463.75" y1="50" y2="50"/><line style="stroke: #A80036; stroke-width: 1.875;" x1="356.25" x2="463.75" y1="60" y2="60"/><!--MD5=[ed6624c6556d5e7b1bd23032162d20b7]
class Client--><rect fill="#FEFECE" filter="url(#fijey8xqm438k)" height="60" id="Client" style="stroke: #A80036; stroke-width: 1.875;" width="80" x="556.25" y="315"/><ellipse cx="575" cy="335" fill="#ADD1B2" rx="13.75" ry="13.75" style="stroke: #A80036; stroke-width: 1.25;"/><path d="M577.5,330.625 Q577.7539,330 578.0469,329.6875 Q578.3398,329.375 578.6719,329.375 Q579.2578,329.375 579.6289,329.7266 Q580,330.0781 580,330.8984 L580,332.8516 Q580,333.6719 579.6484,334.0234 Q579.2969,334.375 578.75,334.375 Q578.2617,334.375 577.9492,334.1602 Q577.6367,333.9453 577.5,333.3789 Q577.4414,332.9883 577.2266,332.7734 Q576.8359,332.3633 576.1328,332.1289 Q575.4297,331.875 574.7266,331.875 Q573.8477,331.875 573.1055,332.2266 Q572.3828,332.5781 571.8164,333.3594 Q571.25,334.1406 571.25,335.2148 L571.25,336.3672 Q571.25,337.6563 572.3047,338.5156 Q573.3594,339.375 575.2344,339.375 Q576.3477,339.375 577.1289,339.1211 Q577.5781,338.9844 578.0859,338.5352 Q578.418,338.2813 578.5938,338.2031 Q578.7695,338.125 578.9844,338.125 Q579.3945,338.125 579.6875,338.457 Q580,338.7695 580,339.2188 Q580,339.6484 579.5703,340.1563 Q578.9453,340.8984 577.9492,341.3086 Q576.6406,341.875 575.0391,341.875 Q573.1641,341.875 571.6602,341.1328 Q570.4492,340.5469 569.5898,339.2773 Q568.75,338.0078 568.75,336.5039 L568.75,335.1367 Q568.75,333.5742 569.4922,332.207 Q570.2539,330.8398 571.5625,330.1172 Q572.8906,329.375 574.375,329.375 Q575.2734,329.375 576.0547,329.6875 Q576.8359,330 577.5,330.625 Z "/><text fill="#000000" font-family="sans-serif" font-size="15" lengthAdjust="spacingAndGlyphs" textLength="40" x="592.5" y="341.1377">Client</text><line style="stroke: #A80036; stroke-width: 1.875;" x1="557.5" x2="635" y1="355" y2="355"/><line style="stroke: #A80036; stroke-width: 1.875;" x1="557.5" x2="635" y1="365" y2="365"/><!--MD5=[bd58c9b3f4b8063f41ed02105b061fc5]
class CreateVehicleView--><rect fill="#FEFECE" filter="url(#fijey8xqm438k)" height="60" id="CreateVehicleView" style="stroke: #A80036; stroke-width: 1.875;" width="168.75" x="680.625" y="315"/><ellipse cx="699.375" cy="335" fill="#ADD1B2" rx="13.75" ry="13.75" style="stroke: #A80036; stroke-width: 1.25;"/><path d="M701.875,330.625 Q702.1289,330 702.4219,329.6875 Q702.7148,329.375 703.0469,329.375 Q703.6328,329.375 704.0039,329.7266 Q704.375,330.0781 704.375,330.8984 L704.375,332.8516 Q704.375,333.6719 704.0234,334.0234 Q703.6719,334.375 703.125,334.375 Q702.6367,334.375 702.3242,334.1602 Q702.0117,333.9453 701.875,333.3789 Q701.8164,332.9883 701.6016,332.7734 Q701.2109,332.3633 700.5078,332.1289 Q699.8047,331.875 699.1016,331.875 Q698.2227,331.875 697.4805,332.2266 Q696.7578,332.5781 696.1914,333.3594 Q695.625,334.1406 695.625,335.2148 L695.625,336.3672 Q695.625,337.6563 696.6797,338.5156 Q697.7344,339.375 699.6094,339.375 Q700.7227,339.375 701.5039,339.1211 Q701.9531,338.9844 702.4609,338.5352 Q702.793,338.2813 702.9688,338.2031 Q703.1445,338.125 703.3594,338.125 Q703.7695,338.125 704.0625,338.457 Q704.375,338.7695 704.375,339.2188 Q704.375,339.6484 703.9453,340.1563 Q703.3203,340.8984 702.3242,341.3086 Q701.0156,341.875 699.4141,341.875 Q697.5391,341.875 696.0352,341.1328 Q694.8242,340.5469 693.9648,339.2773 Q693.125,338.0078 693.125,336.5039 L693.125,335.1367 Q693.125,333.5742 693.8672,332.207 Q694.6289,330.8398 695.9375,330.1172 Q697.2656,329.375 698.75,329.375 Q699.6484,329.375 700.4297,329.6875 Q701.2109,330 701.875,330.625 Z "/><text fill="#000000" font-family="sans-serif" font-size="15" lengthAdjust="spacingAndGlyphs" textLength="128.75" x="716.875" y="341.1377">CreateVehicleView</text><line style="stroke: #A80036; stroke-width: 1.875;" x1="681.875" x2="848.125" y1="355" y2="355"/><line style="stroke: #A80036; stroke-width: 1.875;" x1="681.875" x2="848.125" y1="365" y2="365"/><!--MD5=[8a8e7e811f003e2cf9a880837877c3e7]
link VehiclesView to ConfigVehicleView--><path d="M311.3288,240.1837 C261.6337,263.57 202.68,291.3125 158.3038,312.195 " fill="none" id="VehiclesView-&gt;ConfigVehicleView" style="stroke: #A80036; stroke-width: 1.25;"/><polygon fill="#A80036" points="152.4163,314.9663,164.7245,314.7012,158.0716,312.3055,160.4673,305.6527,152.4163,314.9663" style="stroke: #A80036; stroke-width: 1.25;"/><!--MD5=[40d8b619e0632680c8f1b5408673d623]
link VehiclesView to Vehicle--><path d="M348.7625,240.0225 C325.7412,260.5288 301.4813,286.4775 286.25,315 C250.7988,381.3875 242.8762,471.1163 241.35,519.8873 " fill="none" id="VehiclesView-&gt;Vehicle" style="stroke: #A80036; stroke-width: 1.25;"/><polygon fill="#A80036" points="241.1812,526.2029,246.4803,515.0906,241.3484,519.9551,236.4839,514.8232,241.1812,526.2029" style="stroke: #A80036; stroke-width: 1.25;"/><!--MD5=[9f9a42d40fc66ac560841a98cd9508c5]
link VehiclesView to OpenVehiclesController--><path d="M410,240.3887 C410,262.1775 410,287.7125 410,307.95 " fill="none" id="VehiclesView-&gt;OpenVehiclesController" style="stroke: #A80036; stroke-width: 1.25;"/><polygon fill="#A80036" points="410,314.5975,415,303.3475,410,308.3475,405,303.3475,410,314.5975" style="stroke: #A80036; stroke-width: 1.25;"/><!--MD5=[d5ee3621bc80cdf19279bea982f0a7b0]
link MenuView to VehiclesView--><path d="M410,70.1713 C410,89.47 410,115.415 410,138.3362 " fill="none" id="MenuView-&gt;VehiclesView" style="stroke: #A80036; stroke-width: 1.25;"/><polygon fill="#A80036" points="410,144.7138,415,133.4638,410,138.4638,405,133.4638,410,144.7138" style="stroke: #A80036; stroke-width: 1.25;"/><!--MD5=[5430a9698428fc78cdd73388f6b88c76]
link VehiclesView to Client--><path d="M467.91,240.3887 C496.1413,263.125 529.4363,289.94 555.0388,310.56 " fill="none" id="VehiclesView-&gt;Client" style="stroke: #A80036; stroke-width: 1.25;"/><polygon fill="#A80036" points="560.0525,314.5975,554.4283,303.6462,555.1853,310.6766,548.1549,311.4337,560.0525,314.5975" style="stroke: #A80036; stroke-width: 1.25;"/><!--MD5=[4391e3a07edec19e6cb4233504f810a9]
link VehiclesView to CreateVehicleView--><path d="M519.8925,240.1837 C575.4663,263.665 641.4325,291.5388 690.925,312.4513 " fill="none" id="VehiclesView-&gt;CreateVehicleView" style="stroke: #A80036; stroke-width: 1.25;"/><polygon fill="#A80036" points="696.8775,314.9663,688.4591,305.9833,691.1199,312.5347,684.5686,315.1955,696.8775,314.9663" style="stroke: #A80036; stroke-width: 1.25;"/><!--MD5=[ae92ec927a9fbad98978b21dfed549d5]
@startuml
	class VehiclesView {
	+createVehicle()
	+configClient(vehicleId, clientFullName)
	}

	VehiclesView - -> ConfigVehicleView
	VehiclesView - - - -> Vehicle
	VehiclesView - -> OpenVehiclesController
	MenuView - -> VehiclesView
	VehiclesView - -> Client
	VehiclesView - -> CreateVehicleView
@enduml

PlantUML version 1.2020.09(Sun May 10 12:51:06 CEST 2020)
(GPL source distribution)
Java Runtime: OpenJDK Runtime Environment
JVM: OpenJDK 64-Bit Server VM
Java Version: 11.0.8+10-b1094.1
Operating System: Windows 10
Default Encoding: Cp1252
Language: en
Country: GB
--></g></svg>